G04 #@! TF.GenerationSoftware,KiCad,Pcbnew,(5.1.2)-1*
G04 #@! TF.CreationDate,2019-05-22T15:10:38+02:00*
G04 #@! TF.ProjectId,ADClock1,4144436c-6f63-46b3-912e-6b696361645f,rev?*
G04 #@! TF.SameCoordinates,Original*
G04 #@! TF.FileFunction,Copper,L2,Bot*
G04 #@! TF.FilePolarity,Positive*
%FSLAX46Y46*%
G04 Gerber Fmt 4.6, Leading zero omitted, Abs format (unit mm)*
G04 Created by KiCad (PCBNEW (5.1.2)-1) date 2019-05-22 15:10:38*
%MOMM*%
%LPD*%
G04 APERTURE LIST*
%ADD10C,1.600000*%
%ADD11R,1.700000X1.700000*%
%ADD12O,1.700000X1.700000*%
%ADD13C,3.000000*%
%ADD14R,3.000000X3.000000*%
%ADD15C,6.400000*%
%ADD16O,1.320800X2.641600*%
%ADD17O,1.600000X1.600000*%
%ADD18C,2.000000*%
%ADD19C,1.500000*%
%ADD20C,1.000000*%
%ADD21C,0.500000*%
%ADD22C,0.254000*%
G04 APERTURE END LIST*
D10*
X100330000Y-52070000D03*
X105330000Y-52070000D03*
X109220000Y-52070000D03*
X114220000Y-52070000D03*
X91520000Y-30480000D03*
X96520000Y-30480000D03*
X100330000Y-29210000D03*
X105330000Y-29210000D03*
X94060000Y-45720000D03*
X99060000Y-45720000D03*
D11*
X95250000Y-54610000D03*
D12*
X92710000Y-54610000D03*
X90170000Y-54610000D03*
X87630000Y-54610000D03*
X85090000Y-54610000D03*
X82550000Y-54610000D03*
X80010000Y-54610000D03*
X77470000Y-54610000D03*
X74930000Y-54610000D03*
X72390000Y-54610000D03*
D13*
X41410000Y-49530000D03*
X41410000Y-54610000D03*
D14*
X41410000Y-59690000D03*
D15*
X73660000Y-30480000D03*
X144780000Y-58420000D03*
X120650000Y-36830000D03*
X33020000Y-58420000D03*
D12*
X75200000Y-40640000D03*
X75200000Y-43180000D03*
D11*
X75200000Y-45720000D03*
D12*
X71390000Y-40640000D03*
X71390000Y-43180000D03*
D11*
X71390000Y-45720000D03*
D16*
X80010000Y-41910000D03*
X82550000Y-41910000D03*
X85090000Y-41910000D03*
X87630000Y-41910000D03*
X90170000Y-41910000D03*
X92710000Y-41910000D03*
X95250000Y-41910000D03*
X97790000Y-41910000D03*
X100330000Y-41910000D03*
X102870000Y-41910000D03*
X105410000Y-41910000D03*
X107950000Y-41910000D03*
X110490000Y-41910000D03*
X113030000Y-41910000D03*
X113030000Y-34290000D03*
X110490000Y-34290000D03*
X107950000Y-34290000D03*
X105410000Y-34290000D03*
X102870000Y-34290000D03*
X100330000Y-34290000D03*
X97790000Y-34290000D03*
X95250000Y-34290000D03*
X92710000Y-34290000D03*
X90170000Y-34290000D03*
X87630000Y-34290000D03*
X85090000Y-34290000D03*
X82550000Y-34290000D03*
X80010000Y-34290000D03*
D11*
X86360000Y-59690000D03*
D12*
X88900000Y-59690000D03*
X91440000Y-59690000D03*
X93980000Y-59690000D03*
X96520000Y-59690000D03*
D10*
X72390000Y-59690000D03*
D17*
X80010000Y-59690000D03*
D11*
X132080000Y-45720000D03*
D12*
X132080000Y-48260000D03*
X132080000Y-50800000D03*
X132080000Y-53340000D03*
X132080000Y-55880000D03*
X132080000Y-58420000D03*
X124460000Y-58420000D03*
X124460000Y-55880000D03*
X124460000Y-53340000D03*
X124460000Y-50800000D03*
X124460000Y-48260000D03*
D11*
X124460000Y-45720000D03*
D18*
X51760000Y-45720000D03*
X47260000Y-45720000D03*
X51760000Y-39220000D03*
X47260000Y-39220000D03*
D14*
X56150000Y-38100000D03*
D13*
X61230000Y-38100000D03*
X66310000Y-38100000D03*
D19*
X109220000Y-46990000D03*
X104340000Y-46990000D03*
D20*
X132080000Y-48260000D02*
X124460000Y-48260000D01*
X118030000Y-48260000D02*
X114220000Y-52070000D01*
X124460000Y-48260000D02*
X118030000Y-48260000D01*
X74350001Y-42330001D02*
X75200000Y-43180000D01*
X73649999Y-41629999D02*
X74350001Y-42330001D01*
X73649999Y-39895999D02*
X73649999Y-41629999D01*
X73660000Y-39885998D02*
X73649999Y-39895999D01*
X73660000Y-30480000D02*
X73660000Y-39885998D01*
X97790000Y-39589200D02*
X97790000Y-41910000D01*
X97790000Y-39150800D02*
X97790000Y-39589200D01*
X95250000Y-36610800D02*
X97790000Y-39150800D01*
X95250000Y-34290000D02*
X95250000Y-36610800D01*
X49800000Y-43180000D02*
X47260000Y-45720000D01*
X71390000Y-43180000D02*
X49800000Y-43180000D01*
D21*
X71590001Y-58890001D02*
X72390000Y-59690000D01*
X71089999Y-58389999D02*
X71590001Y-58890001D01*
X71089999Y-52650801D02*
X71089999Y-58389999D01*
X80010000Y-43730800D02*
X71089999Y-52650801D01*
X80010000Y-41910000D02*
X80010000Y-43730800D01*
X113030000Y-34950400D02*
X113030000Y-34290000D01*
X118559601Y-40480001D02*
X113030000Y-34950400D01*
X133380001Y-44509999D02*
X129350003Y-40480001D01*
X129350003Y-40480001D02*
X118559601Y-40480001D01*
X133380001Y-59044001D02*
X133380001Y-44509999D01*
X132704001Y-59720001D02*
X133380001Y-59044001D01*
X131455999Y-59720001D02*
X132704001Y-59720001D01*
X130779999Y-59044001D02*
X131455999Y-59720001D01*
X130779999Y-57119999D02*
X130779999Y-59044001D01*
X124460000Y-50800000D02*
X130779999Y-57119999D01*
X75200000Y-39437919D02*
X75200000Y-40640000D01*
X75200000Y-36869244D02*
X75200000Y-39437919D01*
X80300054Y-31769190D02*
X75200000Y-36869244D01*
X90849590Y-31769190D02*
X80300054Y-31769190D01*
X92710000Y-33629600D02*
X90849590Y-31769190D01*
X92710000Y-34290000D02*
X92710000Y-33629600D01*
D20*
X95670001Y-60539999D02*
X96520000Y-59690000D01*
X94969999Y-61240001D02*
X95670001Y-60539999D01*
X81560001Y-61240001D02*
X94969999Y-61240001D01*
X80010000Y-59690000D02*
X81560001Y-61240001D01*
X94859999Y-46519999D02*
X94060000Y-45720000D01*
X96780001Y-48440001D02*
X94859999Y-46519999D01*
X109916001Y-48440001D02*
X96780001Y-48440001D01*
X112636002Y-45720000D02*
X109916001Y-48440001D01*
X124460000Y-45720000D02*
X112636002Y-45720000D01*
X132080000Y-45720000D02*
X124460000Y-45720000D01*
X99530001Y-28410001D02*
X100330000Y-29210000D01*
X97699999Y-26579999D02*
X99530001Y-28410001D01*
X71787999Y-26579999D02*
X97699999Y-26579999D01*
X62729999Y-35637999D02*
X71787999Y-26579999D01*
X62729999Y-36600001D02*
X62729999Y-35637999D01*
X61230000Y-38100000D02*
X62729999Y-36600001D01*
D21*
X104249600Y-43730800D02*
X105410000Y-42570400D01*
X94199198Y-43730800D02*
X104249600Y-43730800D01*
X105410000Y-42570400D02*
X105410000Y-41910000D01*
X92809999Y-50819999D02*
X92809999Y-45119999D01*
X95250000Y-53260000D02*
X92809999Y-50819999D01*
X92809999Y-45119999D02*
X94199198Y-43730800D01*
X95250000Y-54610000D02*
X95250000Y-53260000D01*
X85090000Y-36110800D02*
X85090000Y-34290000D01*
X83660410Y-37540390D02*
X85090000Y-36110800D01*
X83660410Y-45879590D02*
X83660410Y-37540390D01*
X74930000Y-54610000D02*
X83660410Y-45879590D01*
X87630000Y-33629600D02*
X87630000Y-34290000D01*
X84680044Y-32469200D02*
X86469600Y-32469200D01*
X83979590Y-33169654D02*
X84680044Y-32469200D01*
X83979590Y-35091166D02*
X83979590Y-33169654D01*
X86469600Y-32469200D02*
X87630000Y-33629600D01*
X81120410Y-37950346D02*
X83979590Y-35091166D01*
X81120410Y-45879590D02*
X81120410Y-37950346D01*
X72390000Y-54610000D02*
X81120410Y-45879590D01*
D22*
G36*
X122228224Y-29636350D02*
G01*
X142008900Y-44502952D01*
X152015695Y-59705899D01*
X151700968Y-63080184D01*
X150091579Y-64139507D01*
X28606882Y-64139507D01*
X26997492Y-63080184D01*
X26814744Y-61120881D01*
X30498724Y-61120881D01*
X30858912Y-61610548D01*
X31522882Y-61970849D01*
X32244385Y-62194694D01*
X32995695Y-62273480D01*
X33747938Y-62204178D01*
X34472208Y-61989452D01*
X35140670Y-61637555D01*
X35181088Y-61610548D01*
X35490433Y-61190000D01*
X39271928Y-61190000D01*
X39284188Y-61314482D01*
X39320498Y-61434180D01*
X39379463Y-61544494D01*
X39458815Y-61641185D01*
X39555506Y-61720537D01*
X39665820Y-61779502D01*
X39785518Y-61815812D01*
X39910000Y-61828072D01*
X41124250Y-61825000D01*
X41283000Y-61666250D01*
X41283000Y-59817000D01*
X41537000Y-59817000D01*
X41537000Y-61666250D01*
X41695750Y-61825000D01*
X42910000Y-61828072D01*
X43034482Y-61815812D01*
X43154180Y-61779502D01*
X43264494Y-61720537D01*
X43361185Y-61641185D01*
X43440537Y-61544494D01*
X43499502Y-61434180D01*
X43535812Y-61314482D01*
X43548072Y-61190000D01*
X43545000Y-59975750D01*
X43386250Y-59817000D01*
X41537000Y-59817000D01*
X41283000Y-59817000D01*
X39433750Y-59817000D01*
X39275000Y-59975750D01*
X39271928Y-61190000D01*
X35490433Y-61190000D01*
X35541276Y-61120881D01*
X33020000Y-58599605D01*
X30498724Y-61120881D01*
X26814744Y-61120881D01*
X26682765Y-59705898D01*
X27545159Y-58395695D01*
X29166520Y-58395695D01*
X29235822Y-59147938D01*
X29450548Y-59872208D01*
X29802445Y-60540670D01*
X29829452Y-60581088D01*
X30319119Y-60941276D01*
X32840395Y-58420000D01*
X33199605Y-58420000D01*
X35720881Y-60941276D01*
X36210548Y-60581088D01*
X36570849Y-59917118D01*
X36794694Y-59195615D01*
X36873480Y-58444305D01*
X36850052Y-58190000D01*
X39271928Y-58190000D01*
X39275000Y-59404250D01*
X39433750Y-59563000D01*
X41283000Y-59563000D01*
X41283000Y-57713750D01*
X41537000Y-57713750D01*
X41537000Y-59563000D01*
X43386250Y-59563000D01*
X43545000Y-59404250D01*
X43548072Y-58190000D01*
X43535812Y-58065518D01*
X43499502Y-57945820D01*
X43440537Y-57835506D01*
X43361185Y-57738815D01*
X43264494Y-57659463D01*
X43154180Y-57600498D01*
X43034482Y-57564188D01*
X42910000Y-57551928D01*
X41695750Y-57555000D01*
X41537000Y-57713750D01*
X41283000Y-57713750D01*
X41124250Y-57555000D01*
X39910000Y-57551928D01*
X39785518Y-57564188D01*
X39665820Y-57600498D01*
X39555506Y-57659463D01*
X39458815Y-57738815D01*
X39379463Y-57835506D01*
X39320498Y-57945820D01*
X39284188Y-58065518D01*
X39271928Y-58190000D01*
X36850052Y-58190000D01*
X36804178Y-57692062D01*
X36589452Y-56967792D01*
X36237555Y-56299330D01*
X36210548Y-56258912D01*
X35996759Y-56101653D01*
X40097952Y-56101653D01*
X40253962Y-56417214D01*
X40628745Y-56608020D01*
X41033551Y-56722044D01*
X41452824Y-56754902D01*
X41870451Y-56705334D01*
X42270383Y-56575243D01*
X42566038Y-56417214D01*
X42722048Y-56101653D01*
X41410000Y-54789605D01*
X40097952Y-56101653D01*
X35996759Y-56101653D01*
X35720881Y-55898724D01*
X33199605Y-58420000D01*
X32840395Y-58420000D01*
X30319119Y-55898724D01*
X29829452Y-56258912D01*
X29469151Y-56922882D01*
X29245306Y-57644385D01*
X29166520Y-58395695D01*
X27545159Y-58395695D01*
X29306919Y-55719119D01*
X30498724Y-55719119D01*
X33020000Y-58240395D01*
X35541276Y-55719119D01*
X35181088Y-55229452D01*
X34517118Y-54869151D01*
X33819848Y-54652824D01*
X39265098Y-54652824D01*
X39314666Y-55070451D01*
X39444757Y-55470383D01*
X39602786Y-55766038D01*
X39918347Y-55922048D01*
X41230395Y-54610000D01*
X41589605Y-54610000D01*
X42901653Y-55922048D01*
X43217214Y-55766038D01*
X43408020Y-55391255D01*
X43522044Y-54986449D01*
X43554902Y-54567176D01*
X43505334Y-54149549D01*
X43375243Y-53749617D01*
X43217214Y-53453962D01*
X42901653Y-53297952D01*
X41589605Y-54610000D01*
X41230395Y-54610000D01*
X39918347Y-53297952D01*
X39602786Y-53453962D01*
X39411980Y-53828745D01*
X39297956Y-54233551D01*
X39265098Y-54652824D01*
X33819848Y-54652824D01*
X33795615Y-54645306D01*
X33044305Y-54566520D01*
X32292062Y-54635822D01*
X31567792Y-54850548D01*
X30899330Y-55202445D01*
X30858912Y-55229452D01*
X30498724Y-55719119D01*
X29306919Y-55719119D01*
X31018784Y-53118347D01*
X40097952Y-53118347D01*
X41410000Y-54430395D01*
X42722048Y-53118347D01*
X42566038Y-52802786D01*
X42267508Y-52650801D01*
X70200718Y-52650801D01*
X70204999Y-52694270D01*
X70205000Y-58346520D01*
X70200718Y-58389999D01*
X70217804Y-58563489D01*
X70268411Y-58730312D01*
X70350589Y-58884058D01*
X70433467Y-58985045D01*
X70433470Y-58985048D01*
X70461183Y-59018816D01*
X70494951Y-59046529D01*
X70961983Y-59513561D01*
X70955000Y-59548665D01*
X70955000Y-59831335D01*
X71010147Y-60108574D01*
X71118320Y-60369727D01*
X71275363Y-60604759D01*
X71475241Y-60804637D01*
X71710273Y-60961680D01*
X71971426Y-61069853D01*
X72248665Y-61125000D01*
X72531335Y-61125000D01*
X72808574Y-61069853D01*
X73069727Y-60961680D01*
X73304759Y-60804637D01*
X73504637Y-60604759D01*
X73661680Y-60369727D01*
X73769853Y-60108574D01*
X73825000Y-59831335D01*
X73825000Y-59690000D01*
X78568057Y-59690000D01*
X78595764Y-59971309D01*
X78677818Y-60241808D01*
X78811068Y-60491101D01*
X78990392Y-60709608D01*
X79208899Y-60888932D01*
X79458192Y-61022182D01*
X79728691Y-61104236D01*
X79828983Y-61114114D01*
X80718010Y-62003141D01*
X80753552Y-62046450D01*
X80926378Y-62188285D01*
X81123554Y-62293677D01*
X81337502Y-62358578D01*
X81504249Y-62375001D01*
X81504258Y-62375001D01*
X81560000Y-62380491D01*
X81615742Y-62375001D01*
X94914248Y-62375001D01*
X94969999Y-62380492D01*
X95025750Y-62375001D01*
X95025751Y-62375001D01*
X95192498Y-62358578D01*
X95406446Y-62293677D01*
X95603622Y-62188285D01*
X95776448Y-62046450D01*
X95811995Y-62003136D01*
X96645286Y-61169845D01*
X96811111Y-61153513D01*
X96918683Y-61120881D01*
X142258724Y-61120881D01*
X142618912Y-61610548D01*
X143282882Y-61970849D01*
X144004385Y-62194694D01*
X144755695Y-62273480D01*
X145507938Y-62204178D01*
X146232208Y-61989452D01*
X146900670Y-61637555D01*
X146941088Y-61610548D01*
X147301276Y-61120881D01*
X144780000Y-58599605D01*
X142258724Y-61120881D01*
X96918683Y-61120881D01*
X97091034Y-61068599D01*
X97349014Y-60930706D01*
X97575134Y-60745134D01*
X97760706Y-60519014D01*
X97898599Y-60261034D01*
X97983513Y-59981111D01*
X98012185Y-59690000D01*
X97983513Y-59398889D01*
X97898599Y-59118966D01*
X97760706Y-58860986D01*
X97575134Y-58634866D01*
X97349014Y-58449294D01*
X97091034Y-58311401D01*
X96811111Y-58226487D01*
X96592950Y-58205000D01*
X96447050Y-58205000D01*
X96228889Y-58226487D01*
X95948966Y-58311401D01*
X95690986Y-58449294D01*
X95464866Y-58634866D01*
X95279294Y-58860986D01*
X95244799Y-58925523D01*
X95175178Y-58808645D01*
X94980269Y-58592412D01*
X94746920Y-58418359D01*
X94484099Y-58293175D01*
X94336890Y-58248524D01*
X94107000Y-58369845D01*
X94107000Y-59563000D01*
X94127000Y-59563000D01*
X94127000Y-59817000D01*
X94107000Y-59817000D01*
X94107000Y-59837000D01*
X93853000Y-59837000D01*
X93853000Y-59817000D01*
X93833000Y-59817000D01*
X93833000Y-59563000D01*
X93853000Y-59563000D01*
X93853000Y-58369845D01*
X93623110Y-58248524D01*
X93475901Y-58293175D01*
X93213080Y-58418359D01*
X92979731Y-58592412D01*
X92784822Y-58808645D01*
X92715201Y-58925523D01*
X92680706Y-58860986D01*
X92495134Y-58634866D01*
X92269014Y-58449294D01*
X92011034Y-58311401D01*
X91731111Y-58226487D01*
X91512950Y-58205000D01*
X91367050Y-58205000D01*
X91148889Y-58226487D01*
X90868966Y-58311401D01*
X90610986Y-58449294D01*
X90384866Y-58634866D01*
X90199294Y-58860986D01*
X90170000Y-58915791D01*
X90140706Y-58860986D01*
X89955134Y-58634866D01*
X89729014Y-58449294D01*
X89471034Y-58311401D01*
X89191111Y-58226487D01*
X88972950Y-58205000D01*
X88827050Y-58205000D01*
X88608889Y-58226487D01*
X88328966Y-58311401D01*
X88070986Y-58449294D01*
X87844866Y-58634866D01*
X87820393Y-58664687D01*
X87799502Y-58595820D01*
X87740537Y-58485506D01*
X87661185Y-58388815D01*
X87564494Y-58309463D01*
X87454180Y-58250498D01*
X87334482Y-58214188D01*
X87210000Y-58201928D01*
X85510000Y-58201928D01*
X85385518Y-58214188D01*
X85265820Y-58250498D01*
X85155506Y-58309463D01*
X85058815Y-58388815D01*
X84979463Y-58485506D01*
X84920498Y-58595820D01*
X84884188Y-58715518D01*
X84871928Y-58840000D01*
X84871928Y-60105001D01*
X82030133Y-60105001D01*
X81434114Y-59508983D01*
X81424236Y-59408691D01*
X81342182Y-59138192D01*
X81208932Y-58888899D01*
X81029608Y-58670392D01*
X80811101Y-58491068D01*
X80561808Y-58357818D01*
X80291309Y-58275764D01*
X80080492Y-58255000D01*
X79939508Y-58255000D01*
X79728691Y-58275764D01*
X79458192Y-58357818D01*
X79208899Y-58491068D01*
X78990392Y-58670392D01*
X78811068Y-58888899D01*
X78677818Y-59138192D01*
X78595764Y-59408691D01*
X78568057Y-59690000D01*
X73825000Y-59690000D01*
X73825000Y-59548665D01*
X73769853Y-59271426D01*
X73661680Y-59010273D01*
X73504637Y-58775241D01*
X73304759Y-58575363D01*
X73069727Y-58418320D01*
X72808574Y-58310147D01*
X72531335Y-58255000D01*
X72248665Y-58255000D01*
X72213561Y-58261983D01*
X71974999Y-58023421D01*
X71974999Y-56035931D01*
X72098889Y-56073513D01*
X72317050Y-56095000D01*
X72462950Y-56095000D01*
X72681111Y-56073513D01*
X72961034Y-55988599D01*
X73219014Y-55850706D01*
X73445134Y-55665134D01*
X73630706Y-55439014D01*
X73660000Y-55384209D01*
X73689294Y-55439014D01*
X73874866Y-55665134D01*
X74100986Y-55850706D01*
X74358966Y-55988599D01*
X74638889Y-56073513D01*
X74857050Y-56095000D01*
X75002950Y-56095000D01*
X75221111Y-56073513D01*
X75501034Y-55988599D01*
X75759014Y-55850706D01*
X75985134Y-55665134D01*
X76170706Y-55439014D01*
X76200000Y-55384209D01*
X76229294Y-55439014D01*
X76414866Y-55665134D01*
X76640986Y-55850706D01*
X76898966Y-55988599D01*
X77178889Y-56073513D01*
X77397050Y-56095000D01*
X77542950Y-56095000D01*
X77761111Y-56073513D01*
X78041034Y-55988599D01*
X78299014Y-55850706D01*
X78525134Y-55665134D01*
X78710706Y-55439014D01*
X78740000Y-55384209D01*
X78769294Y-55439014D01*
X78954866Y-55665134D01*
X79180986Y-55850706D01*
X79438966Y-55988599D01*
X79718889Y-56073513D01*
X79937050Y-56095000D01*
X80082950Y-56095000D01*
X80301111Y-56073513D01*
X80581034Y-55988599D01*
X80839014Y-55850706D01*
X81065134Y-55665134D01*
X81250706Y-55439014D01*
X81280000Y-55384209D01*
X81309294Y-55439014D01*
X81494866Y-55665134D01*
X81720986Y-55850706D01*
X81978966Y-55988599D01*
X82258889Y-56073513D01*
X82477050Y-56095000D01*
X82622950Y-56095000D01*
X82841111Y-56073513D01*
X83121034Y-55988599D01*
X83379014Y-55850706D01*
X83605134Y-55665134D01*
X83790706Y-55439014D01*
X83820000Y-55384209D01*
X83849294Y-55439014D01*
X84034866Y-55665134D01*
X84260986Y-55850706D01*
X84518966Y-55988599D01*
X84798889Y-56073513D01*
X85017050Y-56095000D01*
X85162950Y-56095000D01*
X85381111Y-56073513D01*
X85661034Y-55988599D01*
X85919014Y-55850706D01*
X86145134Y-55665134D01*
X86330706Y-55439014D01*
X86360000Y-55384209D01*
X86389294Y-55439014D01*
X86574866Y-55665134D01*
X86800986Y-55850706D01*
X87058966Y-55988599D01*
X87338889Y-56073513D01*
X87557050Y-56095000D01*
X87702950Y-56095000D01*
X87921111Y-56073513D01*
X88201034Y-55988599D01*
X88459014Y-55850706D01*
X88685134Y-55665134D01*
X88870706Y-55439014D01*
X88900000Y-55384209D01*
X88929294Y-55439014D01*
X89114866Y-55665134D01*
X89340986Y-55850706D01*
X89598966Y-55988599D01*
X89878889Y-56073513D01*
X90097050Y-56095000D01*
X90242950Y-56095000D01*
X90461111Y-56073513D01*
X90741034Y-55988599D01*
X90999014Y-55850706D01*
X91225134Y-55665134D01*
X91410706Y-55439014D01*
X91440000Y-55384209D01*
X91469294Y-55439014D01*
X91654866Y-55665134D01*
X91880986Y-55850706D01*
X92138966Y-55988599D01*
X92418889Y-56073513D01*
X92637050Y-56095000D01*
X92782950Y-56095000D01*
X93001111Y-56073513D01*
X93281034Y-55988599D01*
X93539014Y-55850706D01*
X93765134Y-55665134D01*
X93789607Y-55635313D01*
X93810498Y-55704180D01*
X93869463Y-55814494D01*
X93948815Y-55911185D01*
X94045506Y-55990537D01*
X94155820Y-56049502D01*
X94275518Y-56085812D01*
X94400000Y-56098072D01*
X96100000Y-56098072D01*
X96224482Y-56085812D01*
X96344180Y-56049502D01*
X96454494Y-55990537D01*
X96551185Y-55911185D01*
X96630537Y-55814494D01*
X96689502Y-55704180D01*
X96725812Y-55584482D01*
X96738072Y-55460000D01*
X96738072Y-53760000D01*
X96725812Y-53635518D01*
X96689502Y-53515820D01*
X96630537Y-53405506D01*
X96551185Y-53308815D01*
X96454494Y-53229463D01*
X96344180Y-53170498D01*
X96224482Y-53134188D01*
X96125935Y-53124482D01*
X96122195Y-53086510D01*
X96114974Y-53062702D01*
X99516903Y-53062702D01*
X99588486Y-53306671D01*
X99843996Y-53427571D01*
X100118184Y-53496300D01*
X100400512Y-53510217D01*
X100680130Y-53468787D01*
X100946292Y-53373603D01*
X101071514Y-53306671D01*
X101143097Y-53062702D01*
X100330000Y-52249605D01*
X99516903Y-53062702D01*
X96114974Y-53062702D01*
X96110783Y-53048889D01*
X96071589Y-52919686D01*
X95989411Y-52765941D01*
X95906532Y-52664953D01*
X95906530Y-52664951D01*
X95878817Y-52631183D01*
X95845049Y-52603470D01*
X95382091Y-52140512D01*
X98889783Y-52140512D01*
X98931213Y-52420130D01*
X99026397Y-52686292D01*
X99093329Y-52811514D01*
X99337298Y-52883097D01*
X100150395Y-52070000D01*
X100509605Y-52070000D01*
X101322702Y-52883097D01*
X101566671Y-52811514D01*
X101687571Y-52556004D01*
X101756300Y-52281816D01*
X101770217Y-51999488D01*
X101759724Y-51928665D01*
X103895000Y-51928665D01*
X103895000Y-52211335D01*
X103950147Y-52488574D01*
X104058320Y-52749727D01*
X104215363Y-52984759D01*
X104415241Y-53184637D01*
X104650273Y-53341680D01*
X104911426Y-53449853D01*
X105188665Y-53505000D01*
X105471335Y-53505000D01*
X105748574Y-53449853D01*
X106009727Y-53341680D01*
X106244759Y-53184637D01*
X106444637Y-52984759D01*
X106601680Y-52749727D01*
X106709853Y-52488574D01*
X106765000Y-52211335D01*
X106765000Y-51928665D01*
X107785000Y-51928665D01*
X107785000Y-52211335D01*
X107840147Y-52488574D01*
X107948320Y-52749727D01*
X108105363Y-52984759D01*
X108305241Y-53184637D01*
X108540273Y-53341680D01*
X108801426Y-53449853D01*
X109078665Y-53505000D01*
X109361335Y-53505000D01*
X109638574Y-53449853D01*
X109899727Y-53341680D01*
X110134759Y-53184637D01*
X110256694Y-53062702D01*
X113406903Y-53062702D01*
X113478486Y-53306671D01*
X113733996Y-53427571D01*
X114008184Y-53496300D01*
X114290512Y-53510217D01*
X114570130Y-53468787D01*
X114836292Y-53373603D01*
X114961514Y-53306671D01*
X115033097Y-53062702D01*
X114220000Y-52249605D01*
X113406903Y-53062702D01*
X110256694Y-53062702D01*
X110334637Y-52984759D01*
X110491680Y-52749727D01*
X110599853Y-52488574D01*
X110655000Y-52211335D01*
X110655000Y-52140512D01*
X112779783Y-52140512D01*
X112821213Y-52420130D01*
X112916397Y-52686292D01*
X112983329Y-52811514D01*
X113227298Y-52883097D01*
X114040395Y-52070000D01*
X114399605Y-52070000D01*
X115212702Y-52883097D01*
X115456671Y-52811514D01*
X115577571Y-52556004D01*
X115646300Y-52281816D01*
X115660217Y-51999488D01*
X115618787Y-51719870D01*
X115523603Y-51453708D01*
X115456671Y-51328486D01*
X115212702Y-51256903D01*
X114399605Y-52070000D01*
X114040395Y-52070000D01*
X113227298Y-51256903D01*
X112983329Y-51328486D01*
X112862429Y-51583996D01*
X112793700Y-51858184D01*
X112779783Y-52140512D01*
X110655000Y-52140512D01*
X110655000Y-51928665D01*
X110599853Y-51651426D01*
X110491680Y-51390273D01*
X110334637Y-51155241D01*
X110256694Y-51077298D01*
X113406903Y-51077298D01*
X114220000Y-51890395D01*
X115033097Y-51077298D01*
X114961514Y-50833329D01*
X114706004Y-50712429D01*
X114431816Y-50643700D01*
X114149488Y-50629783D01*
X113869870Y-50671213D01*
X113603708Y-50766397D01*
X113478486Y-50833329D01*
X113406903Y-51077298D01*
X110256694Y-51077298D01*
X110134759Y-50955363D01*
X109899727Y-50798320D01*
X109638574Y-50690147D01*
X109361335Y-50635000D01*
X109078665Y-50635000D01*
X108801426Y-50690147D01*
X108540273Y-50798320D01*
X108305241Y-50955363D01*
X108105363Y-51155241D01*
X107948320Y-51390273D01*
X107840147Y-51651426D01*
X107785000Y-51928665D01*
X106765000Y-51928665D01*
X106709853Y-51651426D01*
X106601680Y-51390273D01*
X106444637Y-51155241D01*
X106244759Y-50955363D01*
X106009727Y-50798320D01*
X105748574Y-50690147D01*
X105471335Y-50635000D01*
X105188665Y-50635000D01*
X104911426Y-50690147D01*
X104650273Y-50798320D01*
X104415241Y-50955363D01*
X104215363Y-51155241D01*
X104058320Y-51390273D01*
X103950147Y-51651426D01*
X103895000Y-51928665D01*
X101759724Y-51928665D01*
X101728787Y-51719870D01*
X101633603Y-51453708D01*
X101566671Y-51328486D01*
X101322702Y-51256903D01*
X100509605Y-52070000D01*
X100150395Y-52070000D01*
X99337298Y-51256903D01*
X99093329Y-51328486D01*
X98972429Y-51583996D01*
X98903700Y-51858184D01*
X98889783Y-52140512D01*
X95382091Y-52140512D01*
X94318877Y-51077298D01*
X99516903Y-51077298D01*
X100330000Y-51890395D01*
X101143097Y-51077298D01*
X101071514Y-50833329D01*
X100816004Y-50712429D01*
X100541816Y-50643700D01*
X100259488Y-50629783D01*
X99979870Y-50671213D01*
X99713708Y-50766397D01*
X99588486Y-50833329D01*
X99516903Y-51077298D01*
X94318877Y-51077298D01*
X93694999Y-50453421D01*
X93694999Y-47110509D01*
X93882718Y-47147850D01*
X94096855Y-47361987D01*
X94096860Y-47361991D01*
X95938010Y-49203142D01*
X95973552Y-49246450D01*
X96146378Y-49388285D01*
X96343554Y-49493677D01*
X96557502Y-49558578D01*
X96702146Y-49572824D01*
X96780001Y-49580492D01*
X96835753Y-49575001D01*
X109860250Y-49575001D01*
X109916001Y-49580492D01*
X109971752Y-49575001D01*
X109971753Y-49575001D01*
X110138500Y-49558578D01*
X110352448Y-49493677D01*
X110549624Y-49388285D01*
X110722450Y-49246450D01*
X110757997Y-49203136D01*
X113106134Y-46855000D01*
X123042317Y-46855000D01*
X123079463Y-46924494D01*
X123158815Y-47021185D01*
X123255506Y-47100537D01*
X123365820Y-47159502D01*
X123446466Y-47183966D01*
X123362412Y-47259731D01*
X123188359Y-47493080D01*
X123063175Y-47755901D01*
X123018524Y-47903110D01*
X123139845Y-48133000D01*
X124333000Y-48133000D01*
X124333000Y-48113000D01*
X124587000Y-48113000D01*
X124587000Y-48133000D01*
X125780155Y-48133000D01*
X125901476Y-47903110D01*
X125856825Y-47755901D01*
X125731641Y-47493080D01*
X125557588Y-47259731D01*
X125473534Y-47183966D01*
X125554180Y-47159502D01*
X125664494Y-47100537D01*
X125761185Y-47021185D01*
X125840537Y-46924494D01*
X125877683Y-46855000D01*
X130662317Y-46855000D01*
X130699463Y-46924494D01*
X130778815Y-47021185D01*
X130875506Y-47100537D01*
X130985820Y-47159502D01*
X131066466Y-47183966D01*
X130982412Y-47259731D01*
X130808359Y-47493080D01*
X130683175Y-47755901D01*
X130638524Y-47903110D01*
X130759845Y-48133000D01*
X131953000Y-48133000D01*
X131953000Y-48113000D01*
X132207000Y-48113000D01*
X132207000Y-48133000D01*
X132227000Y-48133000D01*
X132227000Y-48387000D01*
X132207000Y-48387000D01*
X132207000Y-48407000D01*
X131953000Y-48407000D01*
X131953000Y-48387000D01*
X130759845Y-48387000D01*
X130638524Y-48616890D01*
X130683175Y-48764099D01*
X130808359Y-49026920D01*
X130982412Y-49260269D01*
X131198645Y-49455178D01*
X131315523Y-49524799D01*
X131250986Y-49559294D01*
X131024866Y-49744866D01*
X130839294Y-49970986D01*
X130701401Y-50228966D01*
X130616487Y-50508889D01*
X130587815Y-50800000D01*
X130616487Y-51091111D01*
X130701401Y-51371034D01*
X130839294Y-51629014D01*
X131024866Y-51855134D01*
X131250986Y-52040706D01*
X131305791Y-52070000D01*
X131250986Y-52099294D01*
X131024866Y-52284866D01*
X130839294Y-52510986D01*
X130701401Y-52768966D01*
X130616487Y-53048889D01*
X130587815Y-53340000D01*
X130616487Y-53631111D01*
X130701401Y-53911034D01*
X130839294Y-54169014D01*
X131024866Y-54395134D01*
X131250986Y-54580706D01*
X131305791Y-54610000D01*
X131250986Y-54639294D01*
X131024866Y-54824866D01*
X130839294Y-55050986D01*
X130701401Y-55308966D01*
X130616487Y-55588889D01*
X130606085Y-55694506D01*
X125930612Y-51019034D01*
X125952185Y-50800000D01*
X125923513Y-50508889D01*
X125838599Y-50228966D01*
X125700706Y-49970986D01*
X125515134Y-49744866D01*
X125289014Y-49559294D01*
X125224477Y-49524799D01*
X125341355Y-49455178D01*
X125557588Y-49260269D01*
X125731641Y-49026920D01*
X125856825Y-48764099D01*
X125901476Y-48616890D01*
X125780155Y-48387000D01*
X124587000Y-48387000D01*
X124587000Y-48407000D01*
X124333000Y-48407000D01*
X124333000Y-48387000D01*
X123139845Y-48387000D01*
X123018524Y-48616890D01*
X123063175Y-48764099D01*
X123188359Y-49026920D01*
X123362412Y-49260269D01*
X123578645Y-49455178D01*
X123695523Y-49524799D01*
X123630986Y-49559294D01*
X123404866Y-49744866D01*
X123219294Y-49970986D01*
X123081401Y-50228966D01*
X122996487Y-50508889D01*
X122967815Y-50800000D01*
X122996487Y-51091111D01*
X123081401Y-51371034D01*
X123219294Y-51629014D01*
X123404866Y-51855134D01*
X123630986Y-52040706D01*
X123685791Y-52070000D01*
X123630986Y-52099294D01*
X123404866Y-52284866D01*
X123219294Y-52510986D01*
X123081401Y-52768966D01*
X122996487Y-53048889D01*
X122967815Y-53340000D01*
X122996487Y-53631111D01*
X123081401Y-53911034D01*
X123219294Y-54169014D01*
X123404866Y-54395134D01*
X123630986Y-54580706D01*
X123685791Y-54610000D01*
X123630986Y-54639294D01*
X123404866Y-54824866D01*
X123219294Y-55050986D01*
X123081401Y-55308966D01*
X122996487Y-55588889D01*
X122967815Y-55880000D01*
X122996487Y-56171111D01*
X123081401Y-56451034D01*
X123219294Y-56709014D01*
X123404866Y-56935134D01*
X123630986Y-57120706D01*
X123685791Y-57150000D01*
X123630986Y-57179294D01*
X123404866Y-57364866D01*
X123219294Y-57590986D01*
X123081401Y-57848966D01*
X122996487Y-58128889D01*
X122967815Y-58420000D01*
X122996487Y-58711111D01*
X123081401Y-58991034D01*
X123219294Y-59249014D01*
X123404866Y-59475134D01*
X123630986Y-59660706D01*
X123888966Y-59798599D01*
X124168889Y-59883513D01*
X124387050Y-59905000D01*
X124532950Y-59905000D01*
X124751111Y-59883513D01*
X125031034Y-59798599D01*
X125289014Y-59660706D01*
X125515134Y-59475134D01*
X125700706Y-59249014D01*
X125838599Y-58991034D01*
X125923513Y-58711111D01*
X125952185Y-58420000D01*
X125923513Y-58128889D01*
X125838599Y-57848966D01*
X125700706Y-57590986D01*
X125515134Y-57364866D01*
X125289014Y-57179294D01*
X125234209Y-57150000D01*
X125289014Y-57120706D01*
X125515134Y-56935134D01*
X125700706Y-56709014D01*
X125838599Y-56451034D01*
X125923513Y-56171111D01*
X125952185Y-55880000D01*
X125923513Y-55588889D01*
X125838599Y-55308966D01*
X125700706Y-55050986D01*
X125515134Y-54824866D01*
X125289014Y-54639294D01*
X125234209Y-54610000D01*
X125289014Y-54580706D01*
X125515134Y-54395134D01*
X125700706Y-54169014D01*
X125838599Y-53911034D01*
X125923513Y-53631111D01*
X125933915Y-53525494D01*
X129894999Y-57486578D01*
X129895000Y-59000522D01*
X129890718Y-59044001D01*
X129907804Y-59217491D01*
X129958411Y-59384314D01*
X130040589Y-59538060D01*
X130123467Y-59639047D01*
X130123468Y-59639048D01*
X130151183Y-59672818D01*
X130184950Y-59700530D01*
X130799469Y-60315050D01*
X130827182Y-60348818D01*
X130860950Y-60376531D01*
X130860952Y-60376533D01*
X130925383Y-60429410D01*
X130961940Y-60459412D01*
X131115686Y-60541590D01*
X131282509Y-60592196D01*
X131412522Y-60605001D01*
X131412532Y-60605001D01*
X131455998Y-60609282D01*
X131499464Y-60605001D01*
X132660532Y-60605001D01*
X132704001Y-60609282D01*
X132747470Y-60605001D01*
X132747478Y-60605001D01*
X132877491Y-60592196D01*
X133044314Y-60541590D01*
X133198060Y-60459412D01*
X133332818Y-60348818D01*
X133360535Y-60315045D01*
X133975051Y-59700530D01*
X134008818Y-59672818D01*
X134036534Y-59639047D01*
X134109944Y-59549597D01*
X134119412Y-59538060D01*
X134201590Y-59384314D01*
X134252196Y-59217491D01*
X134265001Y-59087478D01*
X134265001Y-59087468D01*
X134269282Y-59044002D01*
X134265001Y-59000536D01*
X134265001Y-58395695D01*
X140926520Y-58395695D01*
X140995822Y-59147938D01*
X141210548Y-59872208D01*
X141562445Y-60540670D01*
X141589452Y-60581088D01*
X142079119Y-60941276D01*
X144600395Y-58420000D01*
X144959605Y-58420000D01*
X147480881Y-60941276D01*
X147970548Y-60581088D01*
X148330849Y-59917118D01*
X148554694Y-59195615D01*
X148633480Y-58444305D01*
X148564178Y-57692062D01*
X148349452Y-56967792D01*
X147997555Y-56299330D01*
X147970548Y-56258912D01*
X147480881Y-55898724D01*
X144959605Y-58420000D01*
X144600395Y-58420000D01*
X142079119Y-55898724D01*
X141589452Y-56258912D01*
X141229151Y-56922882D01*
X141005306Y-57644385D01*
X140926520Y-58395695D01*
X134265001Y-58395695D01*
X134265001Y-55719119D01*
X142258724Y-55719119D01*
X144780000Y-58240395D01*
X147301276Y-55719119D01*
X146941088Y-55229452D01*
X146277118Y-54869151D01*
X145555615Y-54645306D01*
X144804305Y-54566520D01*
X144052062Y-54635822D01*
X143327792Y-54850548D01*
X142659330Y-55202445D01*
X142618912Y-55229452D01*
X142258724Y-55719119D01*
X134265001Y-55719119D01*
X134265001Y-44553468D01*
X134269282Y-44509999D01*
X134265001Y-44466530D01*
X134265001Y-44466522D01*
X134252196Y-44336509D01*
X134201590Y-44169686D01*
X134119412Y-44015940D01*
X134036533Y-43914952D01*
X134036531Y-43914950D01*
X134008818Y-43881182D01*
X133975050Y-43853469D01*
X130006537Y-39884957D01*
X129978820Y-39851184D01*
X129844062Y-39740590D01*
X129690316Y-39658412D01*
X129523493Y-39607806D01*
X129393480Y-39595001D01*
X129393472Y-39595001D01*
X129350003Y-39590720D01*
X129306534Y-39595001D01*
X123124111Y-39595001D01*
X123171276Y-39530881D01*
X120650000Y-37009605D01*
X120635858Y-37023748D01*
X120456253Y-36844143D01*
X120470395Y-36830000D01*
X120829605Y-36830000D01*
X123350881Y-39351276D01*
X123840548Y-38991088D01*
X124200849Y-38327118D01*
X124424694Y-37605615D01*
X124503480Y-36854305D01*
X124434178Y-36102062D01*
X124219452Y-35377792D01*
X123867555Y-34709330D01*
X123840548Y-34668912D01*
X123350881Y-34308724D01*
X120829605Y-36830000D01*
X120470395Y-36830000D01*
X117949119Y-34308724D01*
X117459452Y-34668912D01*
X117099151Y-35332882D01*
X116875306Y-36054385D01*
X116796520Y-36805695D01*
X116863458Y-37532280D01*
X114325400Y-34994222D01*
X114325400Y-34129119D01*
X118128724Y-34129119D01*
X120650000Y-36650395D01*
X123171276Y-34129119D01*
X122811088Y-33639452D01*
X122147118Y-33279151D01*
X121425615Y-33055306D01*
X120674305Y-32976520D01*
X119922062Y-33045822D01*
X119197792Y-33260548D01*
X118529330Y-33612445D01*
X118488912Y-33639452D01*
X118128724Y-34129119D01*
X114325400Y-34129119D01*
X114325400Y-33565970D01*
X114306656Y-33375657D01*
X114232583Y-33131474D01*
X114112297Y-32906433D01*
X113950418Y-32709182D01*
X113753166Y-32547303D01*
X113528125Y-32427017D01*
X113283942Y-32352944D01*
X113030000Y-32327933D01*
X112776057Y-32352944D01*
X112531874Y-32427017D01*
X112306833Y-32547303D01*
X112109582Y-32709182D01*
X111947703Y-32906434D01*
X111827417Y-33131475D01*
X111760000Y-33353716D01*
X111692583Y-33131474D01*
X111572297Y-32906433D01*
X111410418Y-32709182D01*
X111213166Y-32547303D01*
X110988125Y-32427017D01*
X110743942Y-32352944D01*
X110490000Y-32327933D01*
X110236057Y-32352944D01*
X109991874Y-32427017D01*
X109766833Y-32547303D01*
X109569582Y-32709182D01*
X109407703Y-32906434D01*
X109287417Y-33131475D01*
X109220000Y-33353716D01*
X109152583Y-33131474D01*
X109032297Y-32906433D01*
X108870418Y-32709182D01*
X108673166Y-32547303D01*
X108448125Y-32427017D01*
X108203942Y-32352944D01*
X107950000Y-32327933D01*
X107696057Y-32352944D01*
X107451874Y-32427017D01*
X107226833Y-32547303D01*
X107029582Y-32709182D01*
X106867703Y-32906434D01*
X106747417Y-33131475D01*
X106680000Y-33353716D01*
X106612583Y-33131474D01*
X106492297Y-32906433D01*
X106330418Y-32709182D01*
X106133166Y-32547303D01*
X105908125Y-32427017D01*
X105663942Y-32352944D01*
X105410000Y-32327933D01*
X105156057Y-32352944D01*
X104911874Y-32427017D01*
X104686833Y-32547303D01*
X104489582Y-32709182D01*
X104327703Y-32906434D01*
X104207417Y-33131475D01*
X104140000Y-33353716D01*
X104072583Y-33131474D01*
X103952297Y-32906433D01*
X103790418Y-32709182D01*
X103593166Y-32547303D01*
X103368125Y-32427017D01*
X103123942Y-32352944D01*
X102870000Y-32327933D01*
X102616057Y-32352944D01*
X102371874Y-32427017D01*
X102146833Y-32547303D01*
X101949582Y-32709182D01*
X101787703Y-32906434D01*
X101667417Y-33131475D01*
X101600000Y-33353716D01*
X101532583Y-33131474D01*
X101412297Y-32906433D01*
X101250418Y-32709182D01*
X101053166Y-32547303D01*
X100828125Y-32427017D01*
X100583942Y-32352944D01*
X100330000Y-32327933D01*
X100076057Y-32352944D01*
X99831874Y-32427017D01*
X99606833Y-32547303D01*
X99409582Y-32709182D01*
X99247703Y-32906434D01*
X99127417Y-33131475D01*
X99060000Y-33353716D01*
X98992583Y-33131474D01*
X98872297Y-32906433D01*
X98710418Y-32709182D01*
X98513166Y-32547303D01*
X98288125Y-32427017D01*
X98043942Y-32352944D01*
X97790000Y-32327933D01*
X97536057Y-32352944D01*
X97291874Y-32427017D01*
X97066833Y-32547303D01*
X96869582Y-32709182D01*
X96707703Y-32906434D01*
X96587417Y-33131475D01*
X96517494Y-33361977D01*
X96495733Y-33252320D01*
X96398193Y-33016539D01*
X96256529Y-32804317D01*
X96076184Y-32623811D01*
X95864089Y-32481956D01*
X95628395Y-32384205D01*
X95577105Y-32376180D01*
X95377000Y-32500067D01*
X95377000Y-34163000D01*
X95397000Y-34163000D01*
X95397000Y-34417000D01*
X95377000Y-34417000D01*
X95377000Y-36079933D01*
X95577105Y-36203820D01*
X95628395Y-36195795D01*
X95864089Y-36098044D01*
X96076184Y-35956189D01*
X96256529Y-35775683D01*
X96398193Y-35563461D01*
X96495733Y-35327680D01*
X96517494Y-35218023D01*
X96587417Y-35448526D01*
X96707704Y-35673567D01*
X96869583Y-35870818D01*
X97066834Y-36032697D01*
X97291875Y-36152983D01*
X97536058Y-36227056D01*
X97790000Y-36252067D01*
X98043943Y-36227056D01*
X98288126Y-36152983D01*
X98513167Y-36032697D01*
X98710418Y-35870818D01*
X98872297Y-35673567D01*
X98992583Y-35448526D01*
X99060000Y-35226285D01*
X99127417Y-35448526D01*
X99247704Y-35673567D01*
X99409583Y-35870818D01*
X99606834Y-36032697D01*
X99831875Y-36152983D01*
X100076058Y-36227056D01*
X100330000Y-36252067D01*
X100583943Y-36227056D01*
X100828126Y-36152983D01*
X101053167Y-36032697D01*
X101250418Y-35870818D01*
X101412297Y-35673567D01*
X101532583Y-35448526D01*
X101600000Y-35226285D01*
X101667417Y-35448526D01*
X101787704Y-35673567D01*
X101949583Y-35870818D01*
X102146834Y-36032697D01*
X102371875Y-36152983D01*
X102616058Y-36227056D01*
X102870000Y-36252067D01*
X103123943Y-36227056D01*
X103368126Y-36152983D01*
X103593167Y-36032697D01*
X103790418Y-35870818D01*
X103952297Y-35673567D01*
X104072583Y-35448526D01*
X104140000Y-35226285D01*
X104207417Y-35448526D01*
X104327704Y-35673567D01*
X104489583Y-35870818D01*
X104686834Y-36032697D01*
X104911875Y-36152983D01*
X105156058Y-36227056D01*
X105410000Y-36252067D01*
X105663943Y-36227056D01*
X105908126Y-36152983D01*
X106133167Y-36032697D01*
X106330418Y-35870818D01*
X106492297Y-35673567D01*
X106612583Y-35448526D01*
X106680000Y-35226285D01*
X106747417Y-35448526D01*
X106867704Y-35673567D01*
X107029583Y-35870818D01*
X107226834Y-36032697D01*
X107451875Y-36152983D01*
X107696058Y-36227056D01*
X107950000Y-36252067D01*
X108203943Y-36227056D01*
X108448126Y-36152983D01*
X108673167Y-36032697D01*
X108870418Y-35870818D01*
X109032297Y-35673567D01*
X109152583Y-35448526D01*
X109220000Y-35226285D01*
X109287417Y-35448526D01*
X109407704Y-35673567D01*
X109569583Y-35870818D01*
X109766834Y-36032697D01*
X109991875Y-36152983D01*
X110236058Y-36227056D01*
X110490000Y-36252067D01*
X110743943Y-36227056D01*
X110988126Y-36152983D01*
X111213167Y-36032697D01*
X111410418Y-35870818D01*
X111572297Y-35673567D01*
X111692583Y-35448526D01*
X111760000Y-35226285D01*
X111827417Y-35448526D01*
X111947704Y-35673567D01*
X112109583Y-35870818D01*
X112306834Y-36032697D01*
X112531875Y-36152983D01*
X112776058Y-36227056D01*
X113030000Y-36252067D01*
X113075598Y-36247576D01*
X117903071Y-41075050D01*
X117930784Y-41108818D01*
X117964552Y-41136531D01*
X117964554Y-41136533D01*
X118024793Y-41185970D01*
X118065542Y-41219412D01*
X118219288Y-41301590D01*
X118386111Y-41352196D01*
X118516124Y-41365001D01*
X118516132Y-41365001D01*
X118559601Y-41369282D01*
X118603070Y-41365001D01*
X128983425Y-41365001D01*
X131850351Y-44231928D01*
X131230000Y-44231928D01*
X131105518Y-44244188D01*
X130985820Y-44280498D01*
X130875506Y-44339463D01*
X130778815Y-44418815D01*
X130699463Y-44515506D01*
X130662317Y-44585000D01*
X125877683Y-44585000D01*
X125840537Y-44515506D01*
X125761185Y-44418815D01*
X125664494Y-44339463D01*
X125554180Y-44280498D01*
X125434482Y-44244188D01*
X125310000Y-44231928D01*
X123610000Y-44231928D01*
X123485518Y-44244188D01*
X123365820Y-44280498D01*
X123255506Y-44339463D01*
X123158815Y-44418815D01*
X123079463Y-44515506D01*
X123042317Y-44585000D01*
X112691743Y-44585000D01*
X112636001Y-44579510D01*
X112580259Y-44585000D01*
X112580250Y-44585000D01*
X112413503Y-44601423D01*
X112199555Y-44666324D01*
X112002379Y-44771716D01*
X111829553Y-44913551D01*
X111794011Y-44956859D01*
X110435171Y-46315699D01*
X110295799Y-46107114D01*
X110102886Y-45914201D01*
X109876043Y-45762629D01*
X109623989Y-45658225D01*
X109356411Y-45605000D01*
X109083589Y-45605000D01*
X108816011Y-45658225D01*
X108563957Y-45762629D01*
X108337114Y-45914201D01*
X108144201Y-46107114D01*
X107992629Y-46333957D01*
X107888225Y-46586011D01*
X107835000Y-46853589D01*
X107835000Y-47126411D01*
X107870524Y-47305001D01*
X105689476Y-47305001D01*
X105725000Y-47126411D01*
X105725000Y-46853589D01*
X105671775Y-46586011D01*
X105567371Y-46333957D01*
X105415799Y-46107114D01*
X105222886Y-45914201D01*
X104996043Y-45762629D01*
X104743989Y-45658225D01*
X104476411Y-45605000D01*
X104203589Y-45605000D01*
X103936011Y-45658225D01*
X103683957Y-45762629D01*
X103457114Y-45914201D01*
X103264201Y-46107114D01*
X103112629Y-46333957D01*
X103008225Y-46586011D01*
X102955000Y-46853589D01*
X102955000Y-47126411D01*
X102990524Y-47305001D01*
X97250133Y-47305001D01*
X96657834Y-46712702D01*
X98246903Y-46712702D01*
X98318486Y-46956671D01*
X98573996Y-47077571D01*
X98848184Y-47146300D01*
X99130512Y-47160217D01*
X99410130Y-47118787D01*
X99676292Y-47023603D01*
X99801514Y-46956671D01*
X99873097Y-46712702D01*
X99060000Y-45899605D01*
X98246903Y-46712702D01*
X96657834Y-46712702D01*
X95735644Y-45790512D01*
X97619783Y-45790512D01*
X97661213Y-46070130D01*
X97756397Y-46336292D01*
X97823329Y-46461514D01*
X98067298Y-46533097D01*
X98880395Y-45720000D01*
X99239605Y-45720000D01*
X100052702Y-46533097D01*
X100296671Y-46461514D01*
X100417571Y-46206004D01*
X100486300Y-45931816D01*
X100500217Y-45649488D01*
X100458787Y-45369870D01*
X100363603Y-45103708D01*
X100296671Y-44978486D01*
X100052702Y-44906903D01*
X99239605Y-45720000D01*
X98880395Y-45720000D01*
X98067298Y-44906903D01*
X97823329Y-44978486D01*
X97702429Y-45233996D01*
X97633700Y-45508184D01*
X97619783Y-45790512D01*
X95735644Y-45790512D01*
X95701991Y-45756860D01*
X95701987Y-45756855D01*
X95487850Y-45542718D01*
X95439853Y-45301426D01*
X95331680Y-45040273D01*
X95174637Y-44805241D01*
X94985196Y-44615800D01*
X98279618Y-44615800D01*
X98246903Y-44727298D01*
X99060000Y-45540395D01*
X99873097Y-44727298D01*
X99840382Y-44615800D01*
X104206131Y-44615800D01*
X104249600Y-44620081D01*
X104293069Y-44615800D01*
X104293077Y-44615800D01*
X104423090Y-44602995D01*
X104589913Y-44552389D01*
X104743659Y-44470211D01*
X104878417Y-44359617D01*
X104906134Y-44325844D01*
X105364402Y-43867576D01*
X105410000Y-43872067D01*
X105663943Y-43847056D01*
X105908126Y-43772983D01*
X106133167Y-43652697D01*
X106330418Y-43490818D01*
X106492297Y-43293567D01*
X106612583Y-43068526D01*
X106680000Y-42846285D01*
X106747417Y-43068526D01*
X106867704Y-43293567D01*
X107029583Y-43490818D01*
X107226834Y-43652697D01*
X107451875Y-43772983D01*
X107696058Y-43847056D01*
X107950000Y-43872067D01*
X108203943Y-43847056D01*
X108448126Y-43772983D01*
X108673167Y-43652697D01*
X108870418Y-43490818D01*
X109032297Y-43293567D01*
X109152583Y-43068526D01*
X109220000Y-42846285D01*
X109287417Y-43068526D01*
X109407704Y-43293567D01*
X109569583Y-43490818D01*
X109766834Y-43652697D01*
X109991875Y-43772983D01*
X110236058Y-43847056D01*
X110490000Y-43872067D01*
X110743943Y-43847056D01*
X110988126Y-43772983D01*
X111213167Y-43652697D01*
X111410418Y-43490818D01*
X111572297Y-43293567D01*
X111692583Y-43068526D01*
X111760000Y-42846285D01*
X111827417Y-43068526D01*
X111947704Y-43293567D01*
X112109583Y-43490818D01*
X112306834Y-43652697D01*
X112531875Y-43772983D01*
X112776058Y-43847056D01*
X113030000Y-43872067D01*
X113283943Y-43847056D01*
X113528126Y-43772983D01*
X113753167Y-43652697D01*
X113950418Y-43490818D01*
X114112297Y-43293567D01*
X114232583Y-43068526D01*
X114306656Y-42824343D01*
X114325400Y-42634030D01*
X114325400Y-41185970D01*
X114306656Y-40995657D01*
X114232583Y-40751474D01*
X114112297Y-40526433D01*
X113950418Y-40329182D01*
X113753166Y-40167303D01*
X113528125Y-40047017D01*
X113283942Y-39972944D01*
X113030000Y-39947933D01*
X112776057Y-39972944D01*
X112531874Y-40047017D01*
X112306833Y-40167303D01*
X112109582Y-40329182D01*
X111947703Y-40526434D01*
X111827417Y-40751475D01*
X111760000Y-40973716D01*
X111692583Y-40751474D01*
X111572297Y-40526433D01*
X111410418Y-40329182D01*
X111213166Y-40167303D01*
X110988125Y-40047017D01*
X110743942Y-39972944D01*
X110490000Y-39947933D01*
X110236057Y-39972944D01*
X109991874Y-40047017D01*
X109766833Y-40167303D01*
X109569582Y-40329182D01*
X109407703Y-40526434D01*
X109287417Y-40751475D01*
X109220000Y-40973716D01*
X109152583Y-40751474D01*
X109032297Y-40526433D01*
X108870418Y-40329182D01*
X108673166Y-40167303D01*
X108448125Y-40047017D01*
X108203942Y-39972944D01*
X107950000Y-39947933D01*
X107696057Y-39972944D01*
X107451874Y-40047017D01*
X107226833Y-40167303D01*
X107029582Y-40329182D01*
X106867703Y-40526434D01*
X106747417Y-40751475D01*
X106680000Y-40973716D01*
X106612583Y-40751474D01*
X106492297Y-40526433D01*
X106330418Y-40329182D01*
X106133166Y-40167303D01*
X105908125Y-40047017D01*
X105663942Y-39972944D01*
X105410000Y-39947933D01*
X105156057Y-39972944D01*
X104911874Y-40047017D01*
X104686833Y-40167303D01*
X104489582Y-40329182D01*
X104327703Y-40526434D01*
X104207417Y-40751475D01*
X104140000Y-40973716D01*
X104072583Y-40751474D01*
X103952297Y-40526433D01*
X103790418Y-40329182D01*
X103593166Y-40167303D01*
X103368125Y-40047017D01*
X103123942Y-39972944D01*
X102870000Y-39947933D01*
X102616057Y-39972944D01*
X102371874Y-40047017D01*
X102146833Y-40167303D01*
X101949582Y-40329182D01*
X101787703Y-40526434D01*
X101667417Y-40751475D01*
X101600000Y-40973716D01*
X101532583Y-40751474D01*
X101412297Y-40526433D01*
X101250418Y-40329182D01*
X101053166Y-40167303D01*
X100828125Y-40047017D01*
X100583942Y-39972944D01*
X100330000Y-39947933D01*
X100076057Y-39972944D01*
X99831874Y-40047017D01*
X99606833Y-40167303D01*
X99409582Y-40329182D01*
X99247703Y-40526434D01*
X99127417Y-40751475D01*
X99057494Y-40981977D01*
X99035733Y-40872320D01*
X98938193Y-40636539D01*
X98796529Y-40424317D01*
X98616184Y-40243811D01*
X98404089Y-40101956D01*
X98168395Y-40004205D01*
X98117105Y-39996180D01*
X97917000Y-40120067D01*
X97917000Y-41783000D01*
X97937000Y-41783000D01*
X97937000Y-42037000D01*
X97917000Y-42037000D01*
X97917000Y-42057000D01*
X97663000Y-42057000D01*
X97663000Y-42037000D01*
X97643000Y-42037000D01*
X97643000Y-41783000D01*
X97663000Y-41783000D01*
X97663000Y-40120067D01*
X97462895Y-39996180D01*
X97411605Y-40004205D01*
X97175911Y-40101956D01*
X96963816Y-40243811D01*
X96783471Y-40424317D01*
X96641807Y-40636539D01*
X96544267Y-40872320D01*
X96522506Y-40981977D01*
X96452583Y-40751474D01*
X96332297Y-40526433D01*
X96170418Y-40329182D01*
X95973166Y-40167303D01*
X95748125Y-40047017D01*
X95503942Y-39972944D01*
X95250000Y-39947933D01*
X94996057Y-39972944D01*
X94751874Y-40047017D01*
X94526833Y-40167303D01*
X94329582Y-40329182D01*
X94167703Y-40526434D01*
X94047417Y-40751475D01*
X93980000Y-40973716D01*
X93912583Y-40751474D01*
X93792297Y-40526433D01*
X93630418Y-40329182D01*
X93433166Y-40167303D01*
X93208125Y-40047017D01*
X92963942Y-39972944D01*
X92710000Y-39947933D01*
X92456057Y-39972944D01*
X92211874Y-40047017D01*
X91986833Y-40167303D01*
X91789582Y-40329182D01*
X91627703Y-40526434D01*
X91507417Y-40751475D01*
X91440000Y-40973716D01*
X91372583Y-40751474D01*
X91252297Y-40526433D01*
X91090418Y-40329182D01*
X90893166Y-40167303D01*
X90668125Y-40047017D01*
X90423942Y-39972944D01*
X90170000Y-39947933D01*
X89916057Y-39972944D01*
X89671874Y-40047017D01*
X89446833Y-40167303D01*
X89249582Y-40329182D01*
X89087703Y-40526434D01*
X88967417Y-40751475D01*
X88900000Y-40973716D01*
X88832583Y-40751474D01*
X88712297Y-40526433D01*
X88550418Y-40329182D01*
X88353166Y-40167303D01*
X88128125Y-40047017D01*
X87883942Y-39972944D01*
X87630000Y-39947933D01*
X87376057Y-39972944D01*
X87131874Y-40047017D01*
X86906833Y-40167303D01*
X86709582Y-40329182D01*
X86547703Y-40526434D01*
X86427417Y-40751475D01*
X86360000Y-40973716D01*
X86292583Y-40751474D01*
X86172297Y-40526433D01*
X86010418Y-40329182D01*
X85813166Y-40167303D01*
X85588125Y-40047017D01*
X85343942Y-39972944D01*
X85090000Y-39947933D01*
X84836057Y-39972944D01*
X84591874Y-40047017D01*
X84545410Y-40071852D01*
X84545410Y-37906968D01*
X85685050Y-36767329D01*
X85718817Y-36739617D01*
X85758163Y-36691675D01*
X85829411Y-36604859D01*
X85911589Y-36451114D01*
X85962195Y-36284290D01*
X85963443Y-36271621D01*
X85975000Y-36154277D01*
X85975000Y-36154269D01*
X85979281Y-36110800D01*
X85975000Y-36067331D01*
X85975000Y-35899885D01*
X86010418Y-35870818D01*
X86172297Y-35673567D01*
X86292583Y-35448526D01*
X86360000Y-35226285D01*
X86427417Y-35448526D01*
X86547704Y-35673567D01*
X86709583Y-35870818D01*
X86906834Y-36032697D01*
X87131875Y-36152983D01*
X87376058Y-36227056D01*
X87630000Y-36252067D01*
X87883943Y-36227056D01*
X88128126Y-36152983D01*
X88353167Y-36032697D01*
X88550418Y-35870818D01*
X88712297Y-35673567D01*
X88832583Y-35448526D01*
X88900000Y-35226285D01*
X88967417Y-35448526D01*
X89087704Y-35673567D01*
X89249583Y-35870818D01*
X89446834Y-36032697D01*
X89671875Y-36152983D01*
X89916058Y-36227056D01*
X90170000Y-36252067D01*
X90423943Y-36227056D01*
X90668126Y-36152983D01*
X90893167Y-36032697D01*
X91090418Y-35870818D01*
X91252297Y-35673567D01*
X91372583Y-35448526D01*
X91440000Y-35226285D01*
X91507417Y-35448526D01*
X91627704Y-35673567D01*
X91789583Y-35870818D01*
X91986834Y-36032697D01*
X92211875Y-36152983D01*
X92456058Y-36227056D01*
X92710000Y-36252067D01*
X92963943Y-36227056D01*
X93208126Y-36152983D01*
X93433167Y-36032697D01*
X93630418Y-35870818D01*
X93792297Y-35673567D01*
X93912583Y-35448526D01*
X93982506Y-35218023D01*
X94004267Y-35327680D01*
X94101807Y-35563461D01*
X94243471Y-35775683D01*
X94423816Y-35956189D01*
X94635911Y-36098044D01*
X94871605Y-36195795D01*
X94922895Y-36203820D01*
X95123000Y-36079933D01*
X95123000Y-34417000D01*
X95103000Y-34417000D01*
X95103000Y-34163000D01*
X95123000Y-34163000D01*
X95123000Y-32500067D01*
X94922895Y-32376180D01*
X94871605Y-32384205D01*
X94635911Y-32481956D01*
X94423816Y-32623811D01*
X94243471Y-32804317D01*
X94101807Y-33016539D01*
X94004267Y-33252320D01*
X93982506Y-33361977D01*
X93912583Y-33131474D01*
X93792297Y-32906433D01*
X93630418Y-32709182D01*
X93433166Y-32547303D01*
X93208125Y-32427017D01*
X92963942Y-32352944D01*
X92710000Y-32327933D01*
X92664403Y-32332424D01*
X92121037Y-31789058D01*
X92136292Y-31783603D01*
X92261514Y-31716671D01*
X92333097Y-31472702D01*
X91520000Y-30659605D01*
X91505858Y-30673748D01*
X91326253Y-30494143D01*
X91340395Y-30480000D01*
X91699605Y-30480000D01*
X92512702Y-31293097D01*
X92756671Y-31221514D01*
X92877571Y-30966004D01*
X92946300Y-30691816D01*
X92960217Y-30409488D01*
X92949724Y-30338665D01*
X95085000Y-30338665D01*
X95085000Y-30621335D01*
X95140147Y-30898574D01*
X95248320Y-31159727D01*
X95405363Y-31394759D01*
X95605241Y-31594637D01*
X95840273Y-31751680D01*
X96101426Y-31859853D01*
X96378665Y-31915000D01*
X96661335Y-31915000D01*
X96938574Y-31859853D01*
X97199727Y-31751680D01*
X97434759Y-31594637D01*
X97634637Y-31394759D01*
X97791680Y-31159727D01*
X97899853Y-30898574D01*
X97955000Y-30621335D01*
X97955000Y-30338665D01*
X97899853Y-30061426D01*
X97791680Y-29800273D01*
X97634637Y-29565241D01*
X97434759Y-29365363D01*
X97199727Y-29208320D01*
X96938574Y-29100147D01*
X96661335Y-29045000D01*
X96378665Y-29045000D01*
X96101426Y-29100147D01*
X95840273Y-29208320D01*
X95605241Y-29365363D01*
X95405363Y-29565241D01*
X95248320Y-29800273D01*
X95140147Y-30061426D01*
X95085000Y-30338665D01*
X92949724Y-30338665D01*
X92918787Y-30129870D01*
X92823603Y-29863708D01*
X92756671Y-29738486D01*
X92512702Y-29666903D01*
X91699605Y-30480000D01*
X91340395Y-30480000D01*
X90527298Y-29666903D01*
X90283329Y-29738486D01*
X90162429Y-29993996D01*
X90093700Y-30268184D01*
X90079783Y-30550512D01*
X90121213Y-30830130D01*
X90140546Y-30884190D01*
X80343523Y-30884190D01*
X80300054Y-30879909D01*
X80256585Y-30884190D01*
X80256577Y-30884190D01*
X80126564Y-30896995D01*
X79959740Y-30947601D01*
X79805995Y-31029779D01*
X79705007Y-31112658D01*
X79705005Y-31112660D01*
X79671237Y-31140373D01*
X79643524Y-31174141D01*
X74604956Y-36212710D01*
X74571183Y-36240427D01*
X74460589Y-36375186D01*
X74378411Y-36528932D01*
X74343157Y-36645148D01*
X74329043Y-36691675D01*
X74327805Y-36695755D01*
X74315000Y-36825768D01*
X74315000Y-36825775D01*
X74310719Y-36869244D01*
X74315000Y-36912713D01*
X74315001Y-39394433D01*
X74315000Y-39394443D01*
X74315000Y-39445241D01*
X74144866Y-39584866D01*
X73959294Y-39810986D01*
X73821401Y-40068966D01*
X73736487Y-40348889D01*
X73707815Y-40640000D01*
X73736487Y-40931111D01*
X73821401Y-41211034D01*
X73959294Y-41469014D01*
X74144866Y-41695134D01*
X74370986Y-41880706D01*
X74435523Y-41915201D01*
X74318645Y-41984822D01*
X74102412Y-42179731D01*
X73928359Y-42413080D01*
X73803175Y-42675901D01*
X73758524Y-42823110D01*
X73879845Y-43053000D01*
X75073000Y-43053000D01*
X75073000Y-43033000D01*
X75327000Y-43033000D01*
X75327000Y-43053000D01*
X76520155Y-43053000D01*
X76641476Y-42823110D01*
X76596825Y-42675901D01*
X76471641Y-42413080D01*
X76297588Y-42179731D01*
X76081355Y-41984822D01*
X75964477Y-41915201D01*
X76029014Y-41880706D01*
X76255134Y-41695134D01*
X76440706Y-41469014D01*
X76578599Y-41211034D01*
X76663513Y-40931111D01*
X76692185Y-40640000D01*
X76663513Y-40348889D01*
X76578599Y-40068966D01*
X76440706Y-39810986D01*
X76255134Y-39584866D01*
X76085000Y-39445241D01*
X76085000Y-37235822D01*
X78714600Y-34606223D01*
X78714600Y-35014030D01*
X78733344Y-35204343D01*
X78807417Y-35448526D01*
X78927704Y-35673567D01*
X79089583Y-35870818D01*
X79286834Y-36032697D01*
X79511875Y-36152983D01*
X79756058Y-36227056D01*
X80010000Y-36252067D01*
X80263943Y-36227056D01*
X80508126Y-36152983D01*
X80733167Y-36032697D01*
X80930418Y-35870818D01*
X81092297Y-35673567D01*
X81212583Y-35448526D01*
X81280000Y-35226285D01*
X81347417Y-35448526D01*
X81467704Y-35673567D01*
X81629583Y-35870818D01*
X81804670Y-36014508D01*
X80525361Y-37293817D01*
X80491594Y-37321529D01*
X80463881Y-37355297D01*
X80463878Y-37355300D01*
X80381000Y-37456287D01*
X80298822Y-37610033D01*
X80248215Y-37776856D01*
X80231129Y-37950346D01*
X80235411Y-37993825D01*
X80235411Y-39970134D01*
X80010000Y-39947933D01*
X79756057Y-39972944D01*
X79511874Y-40047017D01*
X79286833Y-40167303D01*
X79089582Y-40329182D01*
X78927703Y-40526434D01*
X78807417Y-40751475D01*
X78733344Y-40995658D01*
X78714600Y-41185971D01*
X78714600Y-42634030D01*
X78733344Y-42824343D01*
X78807417Y-43068526D01*
X78927704Y-43293567D01*
X79048483Y-43440738D01*
X76688072Y-45801149D01*
X76688072Y-44870000D01*
X76675812Y-44745518D01*
X76639502Y-44625820D01*
X76580537Y-44515506D01*
X76501185Y-44418815D01*
X76404494Y-44339463D01*
X76294180Y-44280498D01*
X76213534Y-44256034D01*
X76297588Y-44180269D01*
X76471641Y-43946920D01*
X76596825Y-43684099D01*
X76641476Y-43536890D01*
X76520155Y-43307000D01*
X75327000Y-43307000D01*
X75327000Y-43327000D01*
X75073000Y-43327000D01*
X75073000Y-43307000D01*
X73879845Y-43307000D01*
X73758524Y-43536890D01*
X73803175Y-43684099D01*
X73928359Y-43946920D01*
X74102412Y-44180269D01*
X74186466Y-44256034D01*
X74105820Y-44280498D01*
X73995506Y-44339463D01*
X73898815Y-44418815D01*
X73819463Y-44515506D01*
X73760498Y-44625820D01*
X73724188Y-44745518D01*
X73711928Y-44870000D01*
X73711928Y-46570000D01*
X73724188Y-46694482D01*
X73760498Y-46814180D01*
X73819463Y-46924494D01*
X73898815Y-47021185D01*
X73995506Y-47100537D01*
X74105820Y-47159502D01*
X74225518Y-47195812D01*
X74350000Y-47208072D01*
X75281149Y-47208072D01*
X70494955Y-51994267D01*
X70461182Y-52021984D01*
X70350588Y-52156743D01*
X70268410Y-52310489D01*
X70217804Y-52477312D01*
X70204999Y-52607325D01*
X70204999Y-52607332D01*
X70200718Y-52650801D01*
X42267508Y-52650801D01*
X42191255Y-52611980D01*
X41786449Y-52497956D01*
X41367176Y-52465098D01*
X40949549Y-52514666D01*
X40549617Y-52644757D01*
X40253962Y-52802786D01*
X40097952Y-53118347D01*
X31018784Y-53118347D01*
X32398858Y-51021653D01*
X40097952Y-51021653D01*
X40253962Y-51337214D01*
X40628745Y-51528020D01*
X41033551Y-51642044D01*
X41452824Y-51674902D01*
X41870451Y-51625334D01*
X42270383Y-51495243D01*
X42566038Y-51337214D01*
X42722048Y-51021653D01*
X41410000Y-49709605D01*
X40097952Y-51021653D01*
X32398858Y-51021653D01*
X33352498Y-49572824D01*
X39265098Y-49572824D01*
X39314666Y-49990451D01*
X39444757Y-50390383D01*
X39602786Y-50686038D01*
X39918347Y-50842048D01*
X41230395Y-49530000D01*
X41589605Y-49530000D01*
X42901653Y-50842048D01*
X43217214Y-50686038D01*
X43408020Y-50311255D01*
X43522044Y-49906449D01*
X43554902Y-49487176D01*
X43505334Y-49069549D01*
X43375243Y-48669617D01*
X43217214Y-48373962D01*
X42901653Y-48217952D01*
X41589605Y-49530000D01*
X41230395Y-49530000D01*
X39918347Y-48217952D01*
X39602786Y-48373962D01*
X39411980Y-48748745D01*
X39297956Y-49153551D01*
X39265098Y-49572824D01*
X33352498Y-49572824D01*
X34362512Y-48038347D01*
X40097952Y-48038347D01*
X41410000Y-49350395D01*
X42722048Y-48038347D01*
X42566038Y-47722786D01*
X42191255Y-47531980D01*
X41786449Y-47417956D01*
X41367176Y-47385098D01*
X40949549Y-47434666D01*
X40549617Y-47564757D01*
X40253962Y-47722786D01*
X40097952Y-48038347D01*
X34362512Y-48038347D01*
X35141135Y-46855413D01*
X46304192Y-46855413D01*
X46399956Y-47119814D01*
X46689571Y-47260704D01*
X47001108Y-47342384D01*
X47322595Y-47361718D01*
X47641675Y-47317961D01*
X47946088Y-47212795D01*
X48120044Y-47119814D01*
X48215808Y-46855413D01*
X47260000Y-45899605D01*
X46304192Y-46855413D01*
X35141135Y-46855413D01*
X35847280Y-45782595D01*
X45618282Y-45782595D01*
X45662039Y-46101675D01*
X45767205Y-46406088D01*
X45860186Y-46580044D01*
X46124587Y-46675808D01*
X47080395Y-45720000D01*
X47439605Y-45720000D01*
X48395413Y-46675808D01*
X48659814Y-46580044D01*
X48800704Y-46290429D01*
X48882384Y-45978892D01*
X48901718Y-45657405D01*
X48888219Y-45558967D01*
X50125000Y-45558967D01*
X50125000Y-45881033D01*
X50187832Y-46196912D01*
X50311082Y-46494463D01*
X50490013Y-46762252D01*
X50717748Y-46989987D01*
X50985537Y-47168918D01*
X51283088Y-47292168D01*
X51598967Y-47355000D01*
X51921033Y-47355000D01*
X52236912Y-47292168D01*
X52534463Y-47168918D01*
X52802252Y-46989987D01*
X53029987Y-46762252D01*
X53208918Y-46494463D01*
X53332168Y-46196912D01*
X53395000Y-45881033D01*
X53395000Y-45558967D01*
X53332168Y-45243088D01*
X53208918Y-44945537D01*
X53158446Y-44870000D01*
X69901928Y-44870000D01*
X69901928Y-46570000D01*
X69914188Y-46694482D01*
X69950498Y-46814180D01*
X70009463Y-46924494D01*
X70088815Y-47021185D01*
X70185506Y-47100537D01*
X70295820Y-47159502D01*
X70415518Y-47195812D01*
X70540000Y-47208072D01*
X72240000Y-47208072D01*
X72364482Y-47195812D01*
X72484180Y-47159502D01*
X72594494Y-47100537D01*
X72691185Y-47021185D01*
X72770537Y-46924494D01*
X72829502Y-46814180D01*
X72865812Y-46694482D01*
X72878072Y-46570000D01*
X72878072Y-44870000D01*
X72865812Y-44745518D01*
X72829502Y-44625820D01*
X72770537Y-44515506D01*
X72691185Y-44418815D01*
X72594494Y-44339463D01*
X72484180Y-44280498D01*
X72403534Y-44256034D01*
X72487588Y-44180269D01*
X72661641Y-43946920D01*
X72786825Y-43684099D01*
X72831476Y-43536890D01*
X72710155Y-43307000D01*
X71517000Y-43307000D01*
X71517000Y-43327000D01*
X71263000Y-43327000D01*
X71263000Y-43307000D01*
X70069845Y-43307000D01*
X69948524Y-43536890D01*
X69993175Y-43684099D01*
X70118359Y-43946920D01*
X70292412Y-44180269D01*
X70376466Y-44256034D01*
X70295820Y-44280498D01*
X70185506Y-44339463D01*
X70088815Y-44418815D01*
X70009463Y-44515506D01*
X69950498Y-44625820D01*
X69914188Y-44745518D01*
X69901928Y-44870000D01*
X53158446Y-44870000D01*
X53029987Y-44677748D01*
X52802252Y-44450013D01*
X52534463Y-44271082D01*
X52236912Y-44147832D01*
X51921033Y-44085000D01*
X51598967Y-44085000D01*
X51283088Y-44147832D01*
X50985537Y-44271082D01*
X50717748Y-44450013D01*
X50490013Y-44677748D01*
X50311082Y-44945537D01*
X50187832Y-45243088D01*
X50125000Y-45558967D01*
X48888219Y-45558967D01*
X48857961Y-45338325D01*
X48752795Y-45033912D01*
X48659814Y-44859956D01*
X48395413Y-44764192D01*
X47439605Y-45720000D01*
X47080395Y-45720000D01*
X46124587Y-44764192D01*
X45860186Y-44859956D01*
X45719296Y-45149571D01*
X45637616Y-45461108D01*
X45618282Y-45782595D01*
X35847280Y-45782595D01*
X36635827Y-44584587D01*
X46304192Y-44584587D01*
X47260000Y-45540395D01*
X48215808Y-44584587D01*
X48120044Y-44320186D01*
X47830429Y-44179296D01*
X47518892Y-44097616D01*
X47197405Y-44078282D01*
X46878325Y-44122039D01*
X46573912Y-44227205D01*
X46399956Y-44320186D01*
X46304192Y-44584587D01*
X36635827Y-44584587D01*
X36689562Y-44502950D01*
X42208044Y-40355413D01*
X46304192Y-40355413D01*
X46399956Y-40619814D01*
X46689571Y-40760704D01*
X47001108Y-40842384D01*
X47322595Y-40861718D01*
X47641675Y-40817961D01*
X47946088Y-40712795D01*
X48120044Y-40619814D01*
X48215808Y-40355413D01*
X47260000Y-39399605D01*
X46304192Y-40355413D01*
X42208044Y-40355413D01*
X43635477Y-39282595D01*
X45618282Y-39282595D01*
X45662039Y-39601675D01*
X45767205Y-39906088D01*
X45860186Y-40080044D01*
X46124587Y-40175808D01*
X47080395Y-39220000D01*
X47439605Y-39220000D01*
X48395413Y-40175808D01*
X48659814Y-40080044D01*
X48800704Y-39790429D01*
X48882384Y-39478892D01*
X48901718Y-39157405D01*
X48888219Y-39058967D01*
X50125000Y-39058967D01*
X50125000Y-39381033D01*
X50187832Y-39696912D01*
X50311082Y-39994463D01*
X50490013Y-40262252D01*
X50717748Y-40489987D01*
X50985537Y-40668918D01*
X51283088Y-40792168D01*
X51598967Y-40855000D01*
X51921033Y-40855000D01*
X52236912Y-40792168D01*
X52534463Y-40668918D01*
X52577741Y-40640000D01*
X69897815Y-40640000D01*
X69926487Y-40931111D01*
X70011401Y-41211034D01*
X70149294Y-41469014D01*
X70334866Y-41695134D01*
X70560986Y-41880706D01*
X70625523Y-41915201D01*
X70508645Y-41984822D01*
X70292412Y-42179731D01*
X70118359Y-42413080D01*
X69993175Y-42675901D01*
X69948524Y-42823110D01*
X70069845Y-43053000D01*
X71263000Y-43053000D01*
X71263000Y-43033000D01*
X71517000Y-43033000D01*
X71517000Y-43053000D01*
X72710155Y-43053000D01*
X72831476Y-42823110D01*
X72786825Y-42675901D01*
X72661641Y-42413080D01*
X72487588Y-42179731D01*
X72271355Y-41984822D01*
X72154477Y-41915201D01*
X72219014Y-41880706D01*
X72445134Y-41695134D01*
X72630706Y-41469014D01*
X72768599Y-41211034D01*
X72853513Y-40931111D01*
X72882185Y-40640000D01*
X72853513Y-40348889D01*
X72768599Y-40068966D01*
X72630706Y-39810986D01*
X72445134Y-39584866D01*
X72219014Y-39399294D01*
X71961034Y-39261401D01*
X71681111Y-39176487D01*
X71462950Y-39155000D01*
X71317050Y-39155000D01*
X71098889Y-39176487D01*
X70818966Y-39261401D01*
X70560986Y-39399294D01*
X70334866Y-39584866D01*
X70149294Y-39810986D01*
X70011401Y-40068966D01*
X69926487Y-40348889D01*
X69897815Y-40640000D01*
X52577741Y-40640000D01*
X52802252Y-40489987D01*
X53029987Y-40262252D01*
X53208918Y-39994463D01*
X53332168Y-39696912D01*
X53395000Y-39381033D01*
X53395000Y-39058967D01*
X53332168Y-38743088D01*
X53208918Y-38445537D01*
X53029987Y-38177748D01*
X52802252Y-37950013D01*
X52534463Y-37771082D01*
X52236912Y-37647832D01*
X51921033Y-37585000D01*
X51598967Y-37585000D01*
X51283088Y-37647832D01*
X50985537Y-37771082D01*
X50717748Y-37950013D01*
X50490013Y-38177748D01*
X50311082Y-38445537D01*
X50187832Y-38743088D01*
X50125000Y-39058967D01*
X48888219Y-39058967D01*
X48857961Y-38838325D01*
X48752795Y-38533912D01*
X48659814Y-38359956D01*
X48395413Y-38264192D01*
X47439605Y-39220000D01*
X47080395Y-39220000D01*
X46124587Y-38264192D01*
X45860186Y-38359956D01*
X45719296Y-38649571D01*
X45637616Y-38961108D01*
X45618282Y-39282595D01*
X43635477Y-39282595D01*
X45229480Y-38084587D01*
X46304192Y-38084587D01*
X47260000Y-39040395D01*
X48215808Y-38084587D01*
X48120044Y-37820186D01*
X47830429Y-37679296D01*
X47518892Y-37597616D01*
X47197405Y-37578282D01*
X46878325Y-37622039D01*
X46573912Y-37727205D01*
X46399956Y-37820186D01*
X46304192Y-38084587D01*
X45229480Y-38084587D01*
X47204789Y-36600000D01*
X54011928Y-36600000D01*
X54011928Y-39600000D01*
X54024188Y-39724482D01*
X54060498Y-39844180D01*
X54119463Y-39954494D01*
X54198815Y-40051185D01*
X54295506Y-40130537D01*
X54405820Y-40189502D01*
X54525518Y-40225812D01*
X54650000Y-40238072D01*
X57650000Y-40238072D01*
X57774482Y-40225812D01*
X57894180Y-40189502D01*
X58004494Y-40130537D01*
X58101185Y-40051185D01*
X58180537Y-39954494D01*
X58239502Y-39844180D01*
X58275812Y-39724482D01*
X58288072Y-39600000D01*
X58288072Y-37889721D01*
X59095000Y-37889721D01*
X59095000Y-38310279D01*
X59177047Y-38722756D01*
X59337988Y-39111302D01*
X59571637Y-39460983D01*
X59869017Y-39758363D01*
X60218698Y-39992012D01*
X60607244Y-40152953D01*
X61019721Y-40235000D01*
X61440279Y-40235000D01*
X61852756Y-40152953D01*
X62241302Y-39992012D01*
X62590983Y-39758363D01*
X62888363Y-39460983D01*
X63122012Y-39111302D01*
X63282953Y-38722756D01*
X63365000Y-38310279D01*
X63365000Y-37889721D01*
X64175000Y-37889721D01*
X64175000Y-38310279D01*
X64257047Y-38722756D01*
X64417988Y-39111302D01*
X64651637Y-39460983D01*
X64949017Y-39758363D01*
X65298698Y-39992012D01*
X65687244Y-40152953D01*
X66099721Y-40235000D01*
X66520279Y-40235000D01*
X66932756Y-40152953D01*
X67321302Y-39992012D01*
X67670983Y-39758363D01*
X67968363Y-39460983D01*
X68202012Y-39111302D01*
X68362953Y-38722756D01*
X68445000Y-38310279D01*
X68445000Y-37889721D01*
X68362953Y-37477244D01*
X68202012Y-37088698D01*
X67968363Y-36739017D01*
X67670983Y-36441637D01*
X67321302Y-36207988D01*
X66932756Y-36047047D01*
X66520279Y-35965000D01*
X66099721Y-35965000D01*
X65687244Y-36047047D01*
X65298698Y-36207988D01*
X64949017Y-36441637D01*
X64651637Y-36739017D01*
X64417988Y-37088698D01*
X64257047Y-37477244D01*
X64175000Y-37889721D01*
X63365000Y-37889721D01*
X63311977Y-37623155D01*
X63493139Y-37441993D01*
X63536448Y-37406450D01*
X63678283Y-37233624D01*
X63783675Y-37036448D01*
X63848576Y-36822500D01*
X63864999Y-36655753D01*
X63864999Y-36655752D01*
X63870490Y-36600001D01*
X63864999Y-36544250D01*
X63864999Y-36108130D01*
X66792248Y-33180881D01*
X71138724Y-33180881D01*
X71498912Y-33670548D01*
X72162882Y-34030849D01*
X72884385Y-34254694D01*
X73635695Y-34333480D01*
X74387938Y-34264178D01*
X75112208Y-34049452D01*
X75780670Y-33697555D01*
X75821088Y-33670548D01*
X76181276Y-33180881D01*
X73660000Y-30659605D01*
X71138724Y-33180881D01*
X66792248Y-33180881D01*
X69840386Y-30132743D01*
X69806520Y-30455695D01*
X69875822Y-31207938D01*
X70090548Y-31932208D01*
X70442445Y-32600670D01*
X70469452Y-32641088D01*
X70959119Y-33001276D01*
X73480395Y-30480000D01*
X73839605Y-30480000D01*
X76360881Y-33001276D01*
X76850548Y-32641088D01*
X77210849Y-31977118D01*
X77434694Y-31255615D01*
X77513480Y-30504305D01*
X77444178Y-29752062D01*
X77365683Y-29487298D01*
X90706903Y-29487298D01*
X91520000Y-30300395D01*
X92333097Y-29487298D01*
X92261514Y-29243329D01*
X92006004Y-29122429D01*
X91731816Y-29053700D01*
X91449488Y-29039783D01*
X91169870Y-29081213D01*
X90903708Y-29176397D01*
X90778486Y-29243329D01*
X90706903Y-29487298D01*
X77365683Y-29487298D01*
X77229452Y-29027792D01*
X76877555Y-28359330D01*
X76850548Y-28318912D01*
X76360881Y-27958724D01*
X73839605Y-30480000D01*
X73480395Y-30480000D01*
X73466253Y-30465858D01*
X73645858Y-30286253D01*
X73660000Y-30300395D01*
X76181276Y-27779119D01*
X76134111Y-27714999D01*
X97229868Y-27714999D01*
X98766857Y-29251990D01*
X98766868Y-29251999D01*
X98902150Y-29387282D01*
X98950147Y-29628574D01*
X99058320Y-29889727D01*
X99215363Y-30124759D01*
X99415241Y-30324637D01*
X99650273Y-30481680D01*
X99911426Y-30589853D01*
X100188665Y-30645000D01*
X100471335Y-30645000D01*
X100748574Y-30589853D01*
X101009727Y-30481680D01*
X101244759Y-30324637D01*
X101366694Y-30202702D01*
X104516903Y-30202702D01*
X104588486Y-30446671D01*
X104843996Y-30567571D01*
X105118184Y-30636300D01*
X105400512Y-30650217D01*
X105680130Y-30608787D01*
X105946292Y-30513603D01*
X106071514Y-30446671D01*
X106143097Y-30202702D01*
X105330000Y-29389605D01*
X104516903Y-30202702D01*
X101366694Y-30202702D01*
X101444637Y-30124759D01*
X101601680Y-29889727D01*
X101709853Y-29628574D01*
X101765000Y-29351335D01*
X101765000Y-29280512D01*
X103889783Y-29280512D01*
X103931213Y-29560130D01*
X104026397Y-29826292D01*
X104093329Y-29951514D01*
X104337298Y-30023097D01*
X105150395Y-29210000D01*
X105509605Y-29210000D01*
X106322702Y-30023097D01*
X106566671Y-29951514D01*
X106687571Y-29696004D01*
X106756300Y-29421816D01*
X106770217Y-29139488D01*
X106728787Y-28859870D01*
X106633603Y-28593708D01*
X106566671Y-28468486D01*
X106322702Y-28396903D01*
X105509605Y-29210000D01*
X105150395Y-29210000D01*
X104337298Y-28396903D01*
X104093329Y-28468486D01*
X103972429Y-28723996D01*
X103903700Y-28998184D01*
X103889783Y-29280512D01*
X101765000Y-29280512D01*
X101765000Y-29068665D01*
X101709853Y-28791426D01*
X101601680Y-28530273D01*
X101444637Y-28295241D01*
X101366694Y-28217298D01*
X104516903Y-28217298D01*
X105330000Y-29030395D01*
X106143097Y-28217298D01*
X106071514Y-27973329D01*
X105816004Y-27852429D01*
X105541816Y-27783700D01*
X105259488Y-27769783D01*
X104979870Y-27811213D01*
X104713708Y-27906397D01*
X104588486Y-27973329D01*
X104516903Y-28217298D01*
X101366694Y-28217298D01*
X101244759Y-28095363D01*
X101009727Y-27938320D01*
X100748574Y-27830147D01*
X100507282Y-27782150D01*
X100371999Y-27646868D01*
X100371990Y-27646857D01*
X98541994Y-25816863D01*
X98506448Y-25773550D01*
X98333622Y-25631715D01*
X98136446Y-25526323D01*
X97922498Y-25461422D01*
X97755751Y-25444999D01*
X97755750Y-25444999D01*
X97699999Y-25439508D01*
X97644248Y-25444999D01*
X71843740Y-25444999D01*
X71787998Y-25439509D01*
X71732256Y-25444999D01*
X71732247Y-25444999D01*
X71565500Y-25461422D01*
X71351552Y-25526323D01*
X71154376Y-25631715D01*
X70981550Y-25773550D01*
X70946008Y-25816858D01*
X61966859Y-34796008D01*
X61923551Y-34831550D01*
X61781716Y-35004376D01*
X61676323Y-35201552D01*
X61611422Y-35415500D01*
X61604929Y-35481424D01*
X61589508Y-35637999D01*
X61594999Y-35693750D01*
X61594999Y-35995776D01*
X61440279Y-35965000D01*
X61019721Y-35965000D01*
X60607244Y-36047047D01*
X60218698Y-36207988D01*
X59869017Y-36441637D01*
X59571637Y-36739017D01*
X59337988Y-37088698D01*
X59177047Y-37477244D01*
X59095000Y-37889721D01*
X58288072Y-37889721D01*
X58288072Y-36600000D01*
X58275812Y-36475518D01*
X58239502Y-36355820D01*
X58180537Y-36245506D01*
X58101185Y-36148815D01*
X58004494Y-36069463D01*
X57894180Y-36010498D01*
X57774482Y-35974188D01*
X57650000Y-35961928D01*
X54650000Y-35961928D01*
X54525518Y-35974188D01*
X54405820Y-36010498D01*
X54295506Y-36069463D01*
X54198815Y-36148815D01*
X54119463Y-36245506D01*
X54060498Y-36355820D01*
X54024188Y-36475518D01*
X54011928Y-36600000D01*
X47204789Y-36600000D01*
X56470239Y-29636349D01*
X80122842Y-22310808D01*
X98575622Y-22310808D01*
X122228224Y-29636350D01*
X122228224Y-29636350D01*
G37*
X122228224Y-29636350D02*
X142008900Y-44502952D01*
X152015695Y-59705899D01*
X151700968Y-63080184D01*
X150091579Y-64139507D01*
X28606882Y-64139507D01*
X26997492Y-63080184D01*
X26814744Y-61120881D01*
X30498724Y-61120881D01*
X30858912Y-61610548D01*
X31522882Y-61970849D01*
X32244385Y-62194694D01*
X32995695Y-62273480D01*
X33747938Y-62204178D01*
X34472208Y-61989452D01*
X35140670Y-61637555D01*
X35181088Y-61610548D01*
X35490433Y-61190000D01*
X39271928Y-61190000D01*
X39284188Y-61314482D01*
X39320498Y-61434180D01*
X39379463Y-61544494D01*
X39458815Y-61641185D01*
X39555506Y-61720537D01*
X39665820Y-61779502D01*
X39785518Y-61815812D01*
X39910000Y-61828072D01*
X41124250Y-61825000D01*
X41283000Y-61666250D01*
X41283000Y-59817000D01*
X41537000Y-59817000D01*
X41537000Y-61666250D01*
X41695750Y-61825000D01*
X42910000Y-61828072D01*
X43034482Y-61815812D01*
X43154180Y-61779502D01*
X43264494Y-61720537D01*
X43361185Y-61641185D01*
X43440537Y-61544494D01*
X43499502Y-61434180D01*
X43535812Y-61314482D01*
X43548072Y-61190000D01*
X43545000Y-59975750D01*
X43386250Y-59817000D01*
X41537000Y-59817000D01*
X41283000Y-59817000D01*
X39433750Y-59817000D01*
X39275000Y-59975750D01*
X39271928Y-61190000D01*
X35490433Y-61190000D01*
X35541276Y-61120881D01*
X33020000Y-58599605D01*
X30498724Y-61120881D01*
X26814744Y-61120881D01*
X26682765Y-59705898D01*
X27545159Y-58395695D01*
X29166520Y-58395695D01*
X29235822Y-59147938D01*
X29450548Y-59872208D01*
X29802445Y-60540670D01*
X29829452Y-60581088D01*
X30319119Y-60941276D01*
X32840395Y-58420000D01*
X33199605Y-58420000D01*
X35720881Y-60941276D01*
X36210548Y-60581088D01*
X36570849Y-59917118D01*
X36794694Y-59195615D01*
X36873480Y-58444305D01*
X36850052Y-58190000D01*
X39271928Y-58190000D01*
X39275000Y-59404250D01*
X39433750Y-59563000D01*
X41283000Y-59563000D01*
X41283000Y-57713750D01*
X41537000Y-57713750D01*
X41537000Y-59563000D01*
X43386250Y-59563000D01*
X43545000Y-59404250D01*
X43548072Y-58190000D01*
X43535812Y-58065518D01*
X43499502Y-57945820D01*
X43440537Y-57835506D01*
X43361185Y-57738815D01*
X43264494Y-57659463D01*
X43154180Y-57600498D01*
X43034482Y-57564188D01*
X42910000Y-57551928D01*
X41695750Y-57555000D01*
X41537000Y-57713750D01*
X41283000Y-57713750D01*
X41124250Y-57555000D01*
X39910000Y-57551928D01*
X39785518Y-57564188D01*
X39665820Y-57600498D01*
X39555506Y-57659463D01*
X39458815Y-57738815D01*
X39379463Y-57835506D01*
X39320498Y-57945820D01*
X39284188Y-58065518D01*
X39271928Y-58190000D01*
X36850052Y-58190000D01*
X36804178Y-57692062D01*
X36589452Y-56967792D01*
X36237555Y-56299330D01*
X36210548Y-56258912D01*
X35996759Y-56101653D01*
X40097952Y-56101653D01*
X40253962Y-56417214D01*
X40628745Y-56608020D01*
X41033551Y-56722044D01*
X41452824Y-56754902D01*
X41870451Y-56705334D01*
X42270383Y-56575243D01*
X42566038Y-56417214D01*
X42722048Y-56101653D01*
X41410000Y-54789605D01*
X40097952Y-56101653D01*
X35996759Y-56101653D01*
X35720881Y-55898724D01*
X33199605Y-58420000D01*
X32840395Y-58420000D01*
X30319119Y-55898724D01*
X29829452Y-56258912D01*
X29469151Y-56922882D01*
X29245306Y-57644385D01*
X29166520Y-58395695D01*
X27545159Y-58395695D01*
X29306919Y-55719119D01*
X30498724Y-55719119D01*
X33020000Y-58240395D01*
X35541276Y-55719119D01*
X35181088Y-55229452D01*
X34517118Y-54869151D01*
X33819848Y-54652824D01*
X39265098Y-54652824D01*
X39314666Y-55070451D01*
X39444757Y-55470383D01*
X39602786Y-55766038D01*
X39918347Y-55922048D01*
X41230395Y-54610000D01*
X41589605Y-54610000D01*
X42901653Y-55922048D01*
X43217214Y-55766038D01*
X43408020Y-55391255D01*
X43522044Y-54986449D01*
X43554902Y-54567176D01*
X43505334Y-54149549D01*
X43375243Y-53749617D01*
X43217214Y-53453962D01*
X42901653Y-53297952D01*
X41589605Y-54610000D01*
X41230395Y-54610000D01*
X39918347Y-53297952D01*
X39602786Y-53453962D01*
X39411980Y-53828745D01*
X39297956Y-54233551D01*
X39265098Y-54652824D01*
X33819848Y-54652824D01*
X33795615Y-54645306D01*
X33044305Y-54566520D01*
X32292062Y-54635822D01*
X31567792Y-54850548D01*
X30899330Y-55202445D01*
X30858912Y-55229452D01*
X30498724Y-55719119D01*
X29306919Y-55719119D01*
X31018784Y-53118347D01*
X40097952Y-53118347D01*
X41410000Y-54430395D01*
X42722048Y-53118347D01*
X42566038Y-52802786D01*
X42267508Y-52650801D01*
X70200718Y-52650801D01*
X70204999Y-52694270D01*
X70205000Y-58346520D01*
X70200718Y-58389999D01*
X70217804Y-58563489D01*
X70268411Y-58730312D01*
X70350589Y-58884058D01*
X70433467Y-58985045D01*
X70433470Y-58985048D01*
X70461183Y-59018816D01*
X70494951Y-59046529D01*
X70961983Y-59513561D01*
X70955000Y-59548665D01*
X70955000Y-59831335D01*
X71010147Y-60108574D01*
X71118320Y-60369727D01*
X71275363Y-60604759D01*
X71475241Y-60804637D01*
X71710273Y-60961680D01*
X71971426Y-61069853D01*
X72248665Y-61125000D01*
X72531335Y-61125000D01*
X72808574Y-61069853D01*
X73069727Y-60961680D01*
X73304759Y-60804637D01*
X73504637Y-60604759D01*
X73661680Y-60369727D01*
X73769853Y-60108574D01*
X73825000Y-59831335D01*
X73825000Y-59690000D01*
X78568057Y-59690000D01*
X78595764Y-59971309D01*
X78677818Y-60241808D01*
X78811068Y-60491101D01*
X78990392Y-60709608D01*
X79208899Y-60888932D01*
X79458192Y-61022182D01*
X79728691Y-61104236D01*
X79828983Y-61114114D01*
X80718010Y-62003141D01*
X80753552Y-62046450D01*
X80926378Y-62188285D01*
X81123554Y-62293677D01*
X81337502Y-62358578D01*
X81504249Y-62375001D01*
X81504258Y-62375001D01*
X81560000Y-62380491D01*
X81615742Y-62375001D01*
X94914248Y-62375001D01*
X94969999Y-62380492D01*
X95025750Y-62375001D01*
X95025751Y-62375001D01*
X95192498Y-62358578D01*
X95406446Y-62293677D01*
X95603622Y-62188285D01*
X95776448Y-62046450D01*
X95811995Y-62003136D01*
X96645286Y-61169845D01*
X96811111Y-61153513D01*
X96918683Y-61120881D01*
X142258724Y-61120881D01*
X142618912Y-61610548D01*
X143282882Y-61970849D01*
X144004385Y-62194694D01*
X144755695Y-62273480D01*
X145507938Y-62204178D01*
X146232208Y-61989452D01*
X146900670Y-61637555D01*
X146941088Y-61610548D01*
X147301276Y-61120881D01*
X144780000Y-58599605D01*
X142258724Y-61120881D01*
X96918683Y-61120881D01*
X97091034Y-61068599D01*
X97349014Y-60930706D01*
X97575134Y-60745134D01*
X97760706Y-60519014D01*
X97898599Y-60261034D01*
X97983513Y-59981111D01*
X98012185Y-59690000D01*
X97983513Y-59398889D01*
X97898599Y-59118966D01*
X97760706Y-58860986D01*
X97575134Y-58634866D01*
X97349014Y-58449294D01*
X97091034Y-58311401D01*
X96811111Y-58226487D01*
X96592950Y-58205000D01*
X96447050Y-58205000D01*
X96228889Y-58226487D01*
X95948966Y-58311401D01*
X95690986Y-58449294D01*
X95464866Y-58634866D01*
X95279294Y-58860986D01*
X95244799Y-58925523D01*
X95175178Y-58808645D01*
X94980269Y-58592412D01*
X94746920Y-58418359D01*
X94484099Y-58293175D01*
X94336890Y-58248524D01*
X94107000Y-58369845D01*
X94107000Y-59563000D01*
X94127000Y-59563000D01*
X94127000Y-59817000D01*
X94107000Y-59817000D01*
X94107000Y-59837000D01*
X93853000Y-59837000D01*
X93853000Y-59817000D01*
X93833000Y-59817000D01*
X93833000Y-59563000D01*
X93853000Y-59563000D01*
X93853000Y-58369845D01*
X93623110Y-58248524D01*
X93475901Y-58293175D01*
X93213080Y-58418359D01*
X92979731Y-58592412D01*
X92784822Y-58808645D01*
X92715201Y-58925523D01*
X92680706Y-58860986D01*
X92495134Y-58634866D01*
X92269014Y-58449294D01*
X92011034Y-58311401D01*
X91731111Y-58226487D01*
X91512950Y-58205000D01*
X91367050Y-58205000D01*
X91148889Y-58226487D01*
X90868966Y-58311401D01*
X90610986Y-58449294D01*
X90384866Y-58634866D01*
X90199294Y-58860986D01*
X90170000Y-58915791D01*
X90140706Y-58860986D01*
X89955134Y-58634866D01*
X89729014Y-58449294D01*
X89471034Y-58311401D01*
X89191111Y-58226487D01*
X88972950Y-58205000D01*
X88827050Y-58205000D01*
X88608889Y-58226487D01*
X88328966Y-58311401D01*
X88070986Y-58449294D01*
X87844866Y-58634866D01*
X87820393Y-58664687D01*
X87799502Y-58595820D01*
X87740537Y-58485506D01*
X87661185Y-58388815D01*
X87564494Y-58309463D01*
X87454180Y-58250498D01*
X87334482Y-58214188D01*
X87210000Y-58201928D01*
X85510000Y-58201928D01*
X85385518Y-58214188D01*
X85265820Y-58250498D01*
X85155506Y-58309463D01*
X85058815Y-58388815D01*
X84979463Y-58485506D01*
X84920498Y-58595820D01*
X84884188Y-58715518D01*
X84871928Y-58840000D01*
X84871928Y-60105001D01*
X82030133Y-60105001D01*
X81434114Y-59508983D01*
X81424236Y-59408691D01*
X81342182Y-59138192D01*
X81208932Y-58888899D01*
X81029608Y-58670392D01*
X80811101Y-58491068D01*
X80561808Y-58357818D01*
X80291309Y-58275764D01*
X80080492Y-58255000D01*
X79939508Y-58255000D01*
X79728691Y-58275764D01*
X79458192Y-58357818D01*
X79208899Y-58491068D01*
X78990392Y-58670392D01*
X78811068Y-58888899D01*
X78677818Y-59138192D01*
X78595764Y-59408691D01*
X78568057Y-59690000D01*
X73825000Y-59690000D01*
X73825000Y-59548665D01*
X73769853Y-59271426D01*
X73661680Y-59010273D01*
X73504637Y-58775241D01*
X73304759Y-58575363D01*
X73069727Y-58418320D01*
X72808574Y-58310147D01*
X72531335Y-58255000D01*
X72248665Y-58255000D01*
X72213561Y-58261983D01*
X71974999Y-58023421D01*
X71974999Y-56035931D01*
X72098889Y-56073513D01*
X72317050Y-56095000D01*
X72462950Y-56095000D01*
X72681111Y-56073513D01*
X72961034Y-55988599D01*
X73219014Y-55850706D01*
X73445134Y-55665134D01*
X73630706Y-55439014D01*
X73660000Y-55384209D01*
X73689294Y-55439014D01*
X73874866Y-55665134D01*
X74100986Y-55850706D01*
X74358966Y-55988599D01*
X74638889Y-56073513D01*
X74857050Y-56095000D01*
X75002950Y-56095000D01*
X75221111Y-56073513D01*
X75501034Y-55988599D01*
X75759014Y-55850706D01*
X75985134Y-55665134D01*
X76170706Y-55439014D01*
X76200000Y-55384209D01*
X76229294Y-55439014D01*
X76414866Y-55665134D01*
X76640986Y-55850706D01*
X76898966Y-55988599D01*
X77178889Y-56073513D01*
X77397050Y-56095000D01*
X77542950Y-56095000D01*
X77761111Y-56073513D01*
X78041034Y-55988599D01*
X78299014Y-55850706D01*
X78525134Y-55665134D01*
X78710706Y-55439014D01*
X78740000Y-55384209D01*
X78769294Y-55439014D01*
X78954866Y-55665134D01*
X79180986Y-55850706D01*
X79438966Y-55988599D01*
X79718889Y-56073513D01*
X79937050Y-56095000D01*
X80082950Y-56095000D01*
X80301111Y-56073513D01*
X80581034Y-55988599D01*
X80839014Y-55850706D01*
X81065134Y-55665134D01*
X81250706Y-55439014D01*
X81280000Y-55384209D01*
X81309294Y-55439014D01*
X81494866Y-55665134D01*
X81720986Y-55850706D01*
X81978966Y-55988599D01*
X82258889Y-56073513D01*
X82477050Y-56095000D01*
X82622950Y-56095000D01*
X82841111Y-56073513D01*
X83121034Y-55988599D01*
X83379014Y-55850706D01*
X83605134Y-55665134D01*
X83790706Y-55439014D01*
X83820000Y-55384209D01*
X83849294Y-55439014D01*
X84034866Y-55665134D01*
X84260986Y-55850706D01*
X84518966Y-55988599D01*
X84798889Y-56073513D01*
X85017050Y-56095000D01*
X85162950Y-56095000D01*
X85381111Y-56073513D01*
X85661034Y-55988599D01*
X85919014Y-55850706D01*
X86145134Y-55665134D01*
X86330706Y-55439014D01*
X86360000Y-55384209D01*
X86389294Y-55439014D01*
X86574866Y-55665134D01*
X86800986Y-55850706D01*
X87058966Y-55988599D01*
X87338889Y-56073513D01*
X87557050Y-56095000D01*
X87702950Y-56095000D01*
X87921111Y-56073513D01*
X88201034Y-55988599D01*
X88459014Y-55850706D01*
X88685134Y-55665134D01*
X88870706Y-55439014D01*
X88900000Y-55384209D01*
X88929294Y-55439014D01*
X89114866Y-55665134D01*
X89340986Y-55850706D01*
X89598966Y-55988599D01*
X89878889Y-56073513D01*
X90097050Y-56095000D01*
X90242950Y-56095000D01*
X90461111Y-56073513D01*
X90741034Y-55988599D01*
X90999014Y-55850706D01*
X91225134Y-55665134D01*
X91410706Y-55439014D01*
X91440000Y-55384209D01*
X91469294Y-55439014D01*
X91654866Y-55665134D01*
X91880986Y-55850706D01*
X92138966Y-55988599D01*
X92418889Y-56073513D01*
X92637050Y-56095000D01*
X92782950Y-56095000D01*
X93001111Y-56073513D01*
X93281034Y-55988599D01*
X93539014Y-55850706D01*
X93765134Y-55665134D01*
X93789607Y-55635313D01*
X93810498Y-55704180D01*
X93869463Y-55814494D01*
X93948815Y-55911185D01*
X94045506Y-55990537D01*
X94155820Y-56049502D01*
X94275518Y-56085812D01*
X94400000Y-56098072D01*
X96100000Y-56098072D01*
X96224482Y-56085812D01*
X96344180Y-56049502D01*
X96454494Y-55990537D01*
X96551185Y-55911185D01*
X96630537Y-55814494D01*
X96689502Y-55704180D01*
X96725812Y-55584482D01*
X96738072Y-55460000D01*
X96738072Y-53760000D01*
X96725812Y-53635518D01*
X96689502Y-53515820D01*
X96630537Y-53405506D01*
X96551185Y-53308815D01*
X96454494Y-53229463D01*
X96344180Y-53170498D01*
X96224482Y-53134188D01*
X96125935Y-53124482D01*
X96122195Y-53086510D01*
X96114974Y-53062702D01*
X99516903Y-53062702D01*
X99588486Y-53306671D01*
X99843996Y-53427571D01*
X100118184Y-53496300D01*
X100400512Y-53510217D01*
X100680130Y-53468787D01*
X100946292Y-53373603D01*
X101071514Y-53306671D01*
X101143097Y-53062702D01*
X100330000Y-52249605D01*
X99516903Y-53062702D01*
X96114974Y-53062702D01*
X96110783Y-53048889D01*
X96071589Y-52919686D01*
X95989411Y-52765941D01*
X95906532Y-52664953D01*
X95906530Y-52664951D01*
X95878817Y-52631183D01*
X95845049Y-52603470D01*
X95382091Y-52140512D01*
X98889783Y-52140512D01*
X98931213Y-52420130D01*
X99026397Y-52686292D01*
X99093329Y-52811514D01*
X99337298Y-52883097D01*
X100150395Y-52070000D01*
X100509605Y-52070000D01*
X101322702Y-52883097D01*
X101566671Y-52811514D01*
X101687571Y-52556004D01*
X101756300Y-52281816D01*
X101770217Y-51999488D01*
X101759724Y-51928665D01*
X103895000Y-51928665D01*
X103895000Y-52211335D01*
X103950147Y-52488574D01*
X104058320Y-52749727D01*
X104215363Y-52984759D01*
X104415241Y-53184637D01*
X104650273Y-53341680D01*
X104911426Y-53449853D01*
X105188665Y-53505000D01*
X105471335Y-53505000D01*
X105748574Y-53449853D01*
X106009727Y-53341680D01*
X106244759Y-53184637D01*
X106444637Y-52984759D01*
X106601680Y-52749727D01*
X106709853Y-52488574D01*
X106765000Y-52211335D01*
X106765000Y-51928665D01*
X107785000Y-51928665D01*
X107785000Y-52211335D01*
X107840147Y-52488574D01*
X107948320Y-52749727D01*
X108105363Y-52984759D01*
X108305241Y-53184637D01*
X108540273Y-53341680D01*
X108801426Y-53449853D01*
X109078665Y-53505000D01*
X109361335Y-53505000D01*
X109638574Y-53449853D01*
X109899727Y-53341680D01*
X110134759Y-53184637D01*
X110256694Y-53062702D01*
X113406903Y-53062702D01*
X113478486Y-53306671D01*
X113733996Y-53427571D01*
X114008184Y-53496300D01*
X114290512Y-53510217D01*
X114570130Y-53468787D01*
X114836292Y-53373603D01*
X114961514Y-53306671D01*
X115033097Y-53062702D01*
X114220000Y-52249605D01*
X113406903Y-53062702D01*
X110256694Y-53062702D01*
X110334637Y-52984759D01*
X110491680Y-52749727D01*
X110599853Y-52488574D01*
X110655000Y-52211335D01*
X110655000Y-52140512D01*
X112779783Y-52140512D01*
X112821213Y-52420130D01*
X112916397Y-52686292D01*
X112983329Y-52811514D01*
X113227298Y-52883097D01*
X114040395Y-52070000D01*
X114399605Y-52070000D01*
X115212702Y-52883097D01*
X115456671Y-52811514D01*
X115577571Y-52556004D01*
X115646300Y-52281816D01*
X115660217Y-51999488D01*
X115618787Y-51719870D01*
X115523603Y-51453708D01*
X115456671Y-51328486D01*
X115212702Y-51256903D01*
X114399605Y-52070000D01*
X114040395Y-52070000D01*
X113227298Y-51256903D01*
X112983329Y-51328486D01*
X112862429Y-51583996D01*
X112793700Y-51858184D01*
X112779783Y-52140512D01*
X110655000Y-52140512D01*
X110655000Y-51928665D01*
X110599853Y-51651426D01*
X110491680Y-51390273D01*
X110334637Y-51155241D01*
X110256694Y-51077298D01*
X113406903Y-51077298D01*
X114220000Y-51890395D01*
X115033097Y-51077298D01*
X114961514Y-50833329D01*
X114706004Y-50712429D01*
X114431816Y-50643700D01*
X114149488Y-50629783D01*
X113869870Y-50671213D01*
X113603708Y-50766397D01*
X113478486Y-50833329D01*
X113406903Y-51077298D01*
X110256694Y-51077298D01*
X110134759Y-50955363D01*
X109899727Y-50798320D01*
X109638574Y-50690147D01*
X109361335Y-50635000D01*
X109078665Y-50635000D01*
X108801426Y-50690147D01*
X108540273Y-50798320D01*
X108305241Y-50955363D01*
X108105363Y-51155241D01*
X107948320Y-51390273D01*
X107840147Y-51651426D01*
X107785000Y-51928665D01*
X106765000Y-51928665D01*
X106709853Y-51651426D01*
X106601680Y-51390273D01*
X106444637Y-51155241D01*
X106244759Y-50955363D01*
X106009727Y-50798320D01*
X105748574Y-50690147D01*
X105471335Y-50635000D01*
X105188665Y-50635000D01*
X104911426Y-50690147D01*
X104650273Y-50798320D01*
X104415241Y-50955363D01*
X104215363Y-51155241D01*
X104058320Y-51390273D01*
X103950147Y-51651426D01*
X103895000Y-51928665D01*
X101759724Y-51928665D01*
X101728787Y-51719870D01*
X101633603Y-51453708D01*
X101566671Y-51328486D01*
X101322702Y-51256903D01*
X100509605Y-52070000D01*
X100150395Y-52070000D01*
X99337298Y-51256903D01*
X99093329Y-51328486D01*
X98972429Y-51583996D01*
X98903700Y-51858184D01*
X98889783Y-52140512D01*
X95382091Y-52140512D01*
X94318877Y-51077298D01*
X99516903Y-51077298D01*
X100330000Y-51890395D01*
X101143097Y-51077298D01*
X101071514Y-50833329D01*
X100816004Y-50712429D01*
X100541816Y-50643700D01*
X100259488Y-50629783D01*
X99979870Y-50671213D01*
X99713708Y-50766397D01*
X99588486Y-50833329D01*
X99516903Y-51077298D01*
X94318877Y-51077298D01*
X93694999Y-50453421D01*
X93694999Y-47110509D01*
X93882718Y-47147850D01*
X94096855Y-47361987D01*
X94096860Y-47361991D01*
X95938010Y-49203142D01*
X95973552Y-49246450D01*
X96146378Y-49388285D01*
X96343554Y-49493677D01*
X96557502Y-49558578D01*
X96702146Y-49572824D01*
X96780001Y-49580492D01*
X96835753Y-49575001D01*
X109860250Y-49575001D01*
X109916001Y-49580492D01*
X109971752Y-49575001D01*
X109971753Y-49575001D01*
X110138500Y-49558578D01*
X110352448Y-49493677D01*
X110549624Y-49388285D01*
X110722450Y-49246450D01*
X110757997Y-49203136D01*
X113106134Y-46855000D01*
X123042317Y-46855000D01*
X123079463Y-46924494D01*
X123158815Y-47021185D01*
X123255506Y-47100537D01*
X123365820Y-47159502D01*
X123446466Y-47183966D01*
X123362412Y-47259731D01*
X123188359Y-47493080D01*
X123063175Y-47755901D01*
X123018524Y-47903110D01*
X123139845Y-48133000D01*
X124333000Y-48133000D01*
X124333000Y-48113000D01*
X124587000Y-48113000D01*
X124587000Y-48133000D01*
X125780155Y-48133000D01*
X125901476Y-47903110D01*
X125856825Y-47755901D01*
X125731641Y-47493080D01*
X125557588Y-47259731D01*
X125473534Y-47183966D01*
X125554180Y-47159502D01*
X125664494Y-47100537D01*
X125761185Y-47021185D01*
X125840537Y-46924494D01*
X125877683Y-46855000D01*
X130662317Y-46855000D01*
X130699463Y-46924494D01*
X130778815Y-47021185D01*
X130875506Y-47100537D01*
X130985820Y-47159502D01*
X131066466Y-47183966D01*
X130982412Y-47259731D01*
X130808359Y-47493080D01*
X130683175Y-47755901D01*
X130638524Y-47903110D01*
X130759845Y-48133000D01*
X131953000Y-48133000D01*
X131953000Y-48113000D01*
X132207000Y-48113000D01*
X132207000Y-48133000D01*
X132227000Y-48133000D01*
X132227000Y-48387000D01*
X132207000Y-48387000D01*
X132207000Y-48407000D01*
X131953000Y-48407000D01*
X131953000Y-48387000D01*
X130759845Y-48387000D01*
X130638524Y-48616890D01*
X130683175Y-48764099D01*
X130808359Y-49026920D01*
X130982412Y-49260269D01*
X131198645Y-49455178D01*
X131315523Y-49524799D01*
X131250986Y-49559294D01*
X131024866Y-49744866D01*
X130839294Y-49970986D01*
X130701401Y-50228966D01*
X130616487Y-50508889D01*
X130587815Y-50800000D01*
X130616487Y-51091111D01*
X130701401Y-51371034D01*
X130839294Y-51629014D01*
X131024866Y-51855134D01*
X131250986Y-52040706D01*
X131305791Y-52070000D01*
X131250986Y-52099294D01*
X131024866Y-52284866D01*
X130839294Y-52510986D01*
X130701401Y-52768966D01*
X130616487Y-53048889D01*
X130587815Y-53340000D01*
X130616487Y-53631111D01*
X130701401Y-53911034D01*
X130839294Y-54169014D01*
X131024866Y-54395134D01*
X131250986Y-54580706D01*
X131305791Y-54610000D01*
X131250986Y-54639294D01*
X131024866Y-54824866D01*
X130839294Y-55050986D01*
X130701401Y-55308966D01*
X130616487Y-55588889D01*
X130606085Y-55694506D01*
X125930612Y-51019034D01*
X125952185Y-50800000D01*
X125923513Y-50508889D01*
X125838599Y-50228966D01*
X125700706Y-49970986D01*
X125515134Y-49744866D01*
X125289014Y-49559294D01*
X125224477Y-49524799D01*
X125341355Y-49455178D01*
X125557588Y-49260269D01*
X125731641Y-49026920D01*
X125856825Y-48764099D01*
X125901476Y-48616890D01*
X125780155Y-48387000D01*
X124587000Y-48387000D01*
X124587000Y-48407000D01*
X124333000Y-48407000D01*
X124333000Y-48387000D01*
X123139845Y-48387000D01*
X123018524Y-48616890D01*
X123063175Y-48764099D01*
X123188359Y-49026920D01*
X123362412Y-49260269D01*
X123578645Y-49455178D01*
X123695523Y-49524799D01*
X123630986Y-49559294D01*
X123404866Y-49744866D01*
X123219294Y-49970986D01*
X123081401Y-50228966D01*
X122996487Y-50508889D01*
X122967815Y-50800000D01*
X122996487Y-51091111D01*
X123081401Y-51371034D01*
X123219294Y-51629014D01*
X123404866Y-51855134D01*
X123630986Y-52040706D01*
X123685791Y-52070000D01*
X123630986Y-52099294D01*
X123404866Y-52284866D01*
X123219294Y-52510986D01*
X123081401Y-52768966D01*
X122996487Y-53048889D01*
X122967815Y-53340000D01*
X122996487Y-53631111D01*
X123081401Y-53911034D01*
X123219294Y-54169014D01*
X123404866Y-54395134D01*
X123630986Y-54580706D01*
X123685791Y-54610000D01*
X123630986Y-54639294D01*
X123404866Y-54824866D01*
X123219294Y-55050986D01*
X123081401Y-55308966D01*
X122996487Y-55588889D01*
X122967815Y-55880000D01*
X122996487Y-56171111D01*
X123081401Y-56451034D01*
X123219294Y-56709014D01*
X123404866Y-56935134D01*
X123630986Y-57120706D01*
X123685791Y-57150000D01*
X123630986Y-57179294D01*
X123404866Y-57364866D01*
X123219294Y-57590986D01*
X123081401Y-57848966D01*
X122996487Y-58128889D01*
X122967815Y-58420000D01*
X122996487Y-58711111D01*
X123081401Y-58991034D01*
X123219294Y-59249014D01*
X123404866Y-59475134D01*
X123630986Y-59660706D01*
X123888966Y-59798599D01*
X124168889Y-59883513D01*
X124387050Y-59905000D01*
X124532950Y-59905000D01*
X124751111Y-59883513D01*
X125031034Y-59798599D01*
X125289014Y-59660706D01*
X125515134Y-59475134D01*
X125700706Y-59249014D01*
X125838599Y-58991034D01*
X125923513Y-58711111D01*
X125952185Y-58420000D01*
X125923513Y-58128889D01*
X125838599Y-57848966D01*
X125700706Y-57590986D01*
X125515134Y-57364866D01*
X125289014Y-57179294D01*
X125234209Y-57150000D01*
X125289014Y-57120706D01*
X125515134Y-56935134D01*
X125700706Y-56709014D01*
X125838599Y-56451034D01*
X125923513Y-56171111D01*
X125952185Y-55880000D01*
X125923513Y-55588889D01*
X125838599Y-55308966D01*
X125700706Y-55050986D01*
X125515134Y-54824866D01*
X125289014Y-54639294D01*
X125234209Y-54610000D01*
X125289014Y-54580706D01*
X125515134Y-54395134D01*
X125700706Y-54169014D01*
X125838599Y-53911034D01*
X125923513Y-53631111D01*
X125933915Y-53525494D01*
X129894999Y-57486578D01*
X129895000Y-59000522D01*
X129890718Y-59044001D01*
X129907804Y-59217491D01*
X129958411Y-59384314D01*
X130040589Y-59538060D01*
X130123467Y-59639047D01*
X130123468Y-59639048D01*
X130151183Y-59672818D01*
X130184950Y-59700530D01*
X130799469Y-60315050D01*
X130827182Y-60348818D01*
X130860950Y-60376531D01*
X130860952Y-60376533D01*
X130925383Y-60429410D01*
X130961940Y-60459412D01*
X131115686Y-60541590D01*
X131282509Y-60592196D01*
X131412522Y-60605001D01*
X131412532Y-60605001D01*
X131455998Y-60609282D01*
X131499464Y-60605001D01*
X132660532Y-60605001D01*
X132704001Y-60609282D01*
X132747470Y-60605001D01*
X132747478Y-60605001D01*
X132877491Y-60592196D01*
X133044314Y-60541590D01*
X133198060Y-60459412D01*
X133332818Y-60348818D01*
X133360535Y-60315045D01*
X133975051Y-59700530D01*
X134008818Y-59672818D01*
X134036534Y-59639047D01*
X134109944Y-59549597D01*
X134119412Y-59538060D01*
X134201590Y-59384314D01*
X134252196Y-59217491D01*
X134265001Y-59087478D01*
X134265001Y-59087468D01*
X134269282Y-59044002D01*
X134265001Y-59000536D01*
X134265001Y-58395695D01*
X140926520Y-58395695D01*
X140995822Y-59147938D01*
X141210548Y-59872208D01*
X141562445Y-60540670D01*
X141589452Y-60581088D01*
X142079119Y-60941276D01*
X144600395Y-58420000D01*
X144959605Y-58420000D01*
X147480881Y-60941276D01*
X147970548Y-60581088D01*
X148330849Y-59917118D01*
X148554694Y-59195615D01*
X148633480Y-58444305D01*
X148564178Y-57692062D01*
X148349452Y-56967792D01*
X147997555Y-56299330D01*
X147970548Y-56258912D01*
X147480881Y-55898724D01*
X144959605Y-58420000D01*
X144600395Y-58420000D01*
X142079119Y-55898724D01*
X141589452Y-56258912D01*
X141229151Y-56922882D01*
X141005306Y-57644385D01*
X140926520Y-58395695D01*
X134265001Y-58395695D01*
X134265001Y-55719119D01*
X142258724Y-55719119D01*
X144780000Y-58240395D01*
X147301276Y-55719119D01*
X146941088Y-55229452D01*
X146277118Y-54869151D01*
X145555615Y-54645306D01*
X144804305Y-54566520D01*
X144052062Y-54635822D01*
X143327792Y-54850548D01*
X142659330Y-55202445D01*
X142618912Y-55229452D01*
X142258724Y-55719119D01*
X134265001Y-55719119D01*
X134265001Y-44553468D01*
X134269282Y-44509999D01*
X134265001Y-44466530D01*
X134265001Y-44466522D01*
X134252196Y-44336509D01*
X134201590Y-44169686D01*
X134119412Y-44015940D01*
X134036533Y-43914952D01*
X134036531Y-43914950D01*
X134008818Y-43881182D01*
X133975050Y-43853469D01*
X130006537Y-39884957D01*
X129978820Y-39851184D01*
X129844062Y-39740590D01*
X129690316Y-39658412D01*
X129523493Y-39607806D01*
X129393480Y-39595001D01*
X129393472Y-39595001D01*
X129350003Y-39590720D01*
X129306534Y-39595001D01*
X123124111Y-39595001D01*
X123171276Y-39530881D01*
X120650000Y-37009605D01*
X120635858Y-37023748D01*
X120456253Y-36844143D01*
X120470395Y-36830000D01*
X120829605Y-36830000D01*
X123350881Y-39351276D01*
X123840548Y-38991088D01*
X124200849Y-38327118D01*
X124424694Y-37605615D01*
X124503480Y-36854305D01*
X124434178Y-36102062D01*
X124219452Y-35377792D01*
X123867555Y-34709330D01*
X123840548Y-34668912D01*
X123350881Y-34308724D01*
X120829605Y-36830000D01*
X120470395Y-36830000D01*
X117949119Y-34308724D01*
X117459452Y-34668912D01*
X117099151Y-35332882D01*
X116875306Y-36054385D01*
X116796520Y-36805695D01*
X116863458Y-37532280D01*
X114325400Y-34994222D01*
X114325400Y-34129119D01*
X118128724Y-34129119D01*
X120650000Y-36650395D01*
X123171276Y-34129119D01*
X122811088Y-33639452D01*
X122147118Y-33279151D01*
X121425615Y-33055306D01*
X120674305Y-32976520D01*
X119922062Y-33045822D01*
X119197792Y-33260548D01*
X118529330Y-33612445D01*
X118488912Y-33639452D01*
X118128724Y-34129119D01*
X114325400Y-34129119D01*
X114325400Y-33565970D01*
X114306656Y-33375657D01*
X114232583Y-33131474D01*
X114112297Y-32906433D01*
X113950418Y-32709182D01*
X113753166Y-32547303D01*
X113528125Y-32427017D01*
X113283942Y-32352944D01*
X113030000Y-32327933D01*
X112776057Y-32352944D01*
X112531874Y-32427017D01*
X112306833Y-32547303D01*
X112109582Y-32709182D01*
X111947703Y-32906434D01*
X111827417Y-33131475D01*
X111760000Y-33353716D01*
X111692583Y-33131474D01*
X111572297Y-32906433D01*
X111410418Y-32709182D01*
X111213166Y-32547303D01*
X110988125Y-32427017D01*
X110743942Y-32352944D01*
X110490000Y-32327933D01*
X110236057Y-32352944D01*
X109991874Y-32427017D01*
X109766833Y-32547303D01*
X109569582Y-32709182D01*
X109407703Y-32906434D01*
X109287417Y-33131475D01*
X109220000Y-33353716D01*
X109152583Y-33131474D01*
X109032297Y-32906433D01*
X108870418Y-32709182D01*
X108673166Y-32547303D01*
X108448125Y-32427017D01*
X108203942Y-32352944D01*
X107950000Y-32327933D01*
X107696057Y-32352944D01*
X107451874Y-32427017D01*
X107226833Y-32547303D01*
X107029582Y-32709182D01*
X106867703Y-32906434D01*
X106747417Y-33131475D01*
X106680000Y-33353716D01*
X106612583Y-33131474D01*
X106492297Y-32906433D01*
X106330418Y-32709182D01*
X106133166Y-32547303D01*
X105908125Y-32427017D01*
X105663942Y-32352944D01*
X105410000Y-32327933D01*
X105156057Y-32352944D01*
X104911874Y-32427017D01*
X104686833Y-32547303D01*
X104489582Y-32709182D01*
X104327703Y-32906434D01*
X104207417Y-33131475D01*
X104140000Y-33353716D01*
X104072583Y-33131474D01*
X103952297Y-32906433D01*
X103790418Y-32709182D01*
X103593166Y-32547303D01*
X103368125Y-32427017D01*
X103123942Y-32352944D01*
X102870000Y-32327933D01*
X102616057Y-32352944D01*
X102371874Y-32427017D01*
X102146833Y-32547303D01*
X101949582Y-32709182D01*
X101787703Y-32906434D01*
X101667417Y-33131475D01*
X101600000Y-33353716D01*
X101532583Y-33131474D01*
X101412297Y-32906433D01*
X101250418Y-32709182D01*
X101053166Y-32547303D01*
X100828125Y-32427017D01*
X100583942Y-32352944D01*
X100330000Y-32327933D01*
X100076057Y-32352944D01*
X99831874Y-32427017D01*
X99606833Y-32547303D01*
X99409582Y-32709182D01*
X99247703Y-32906434D01*
X99127417Y-33131475D01*
X99060000Y-33353716D01*
X98992583Y-33131474D01*
X98872297Y-32906433D01*
X98710418Y-32709182D01*
X98513166Y-32547303D01*
X98288125Y-32427017D01*
X98043942Y-32352944D01*
X97790000Y-32327933D01*
X97536057Y-32352944D01*
X97291874Y-32427017D01*
X97066833Y-32547303D01*
X96869582Y-32709182D01*
X96707703Y-32906434D01*
X96587417Y-33131475D01*
X96517494Y-33361977D01*
X96495733Y-33252320D01*
X96398193Y-33016539D01*
X96256529Y-32804317D01*
X96076184Y-32623811D01*
X95864089Y-32481956D01*
X95628395Y-32384205D01*
X95577105Y-32376180D01*
X95377000Y-32500067D01*
X95377000Y-34163000D01*
X95397000Y-34163000D01*
X95397000Y-34417000D01*
X95377000Y-34417000D01*
X95377000Y-36079933D01*
X95577105Y-36203820D01*
X95628395Y-36195795D01*
X95864089Y-36098044D01*
X96076184Y-35956189D01*
X96256529Y-35775683D01*
X96398193Y-35563461D01*
X96495733Y-35327680D01*
X96517494Y-35218023D01*
X96587417Y-35448526D01*
X96707704Y-35673567D01*
X96869583Y-35870818D01*
X97066834Y-36032697D01*
X97291875Y-36152983D01*
X97536058Y-36227056D01*
X97790000Y-36252067D01*
X98043943Y-36227056D01*
X98288126Y-36152983D01*
X98513167Y-36032697D01*
X98710418Y-35870818D01*
X98872297Y-35673567D01*
X98992583Y-35448526D01*
X99060000Y-35226285D01*
X99127417Y-35448526D01*
X99247704Y-35673567D01*
X99409583Y-35870818D01*
X99606834Y-36032697D01*
X99831875Y-36152983D01*
X100076058Y-36227056D01*
X100330000Y-36252067D01*
X100583943Y-36227056D01*
X100828126Y-36152983D01*
X101053167Y-36032697D01*
X101250418Y-35870818D01*
X101412297Y-35673567D01*
X101532583Y-35448526D01*
X101600000Y-35226285D01*
X101667417Y-35448526D01*
X101787704Y-35673567D01*
X101949583Y-35870818D01*
X102146834Y-36032697D01*
X102371875Y-36152983D01*
X102616058Y-36227056D01*
X102870000Y-36252067D01*
X103123943Y-36227056D01*
X103368126Y-36152983D01*
X103593167Y-36032697D01*
X103790418Y-35870818D01*
X103952297Y-35673567D01*
X104072583Y-35448526D01*
X104140000Y-35226285D01*
X104207417Y-35448526D01*
X104327704Y-35673567D01*
X104489583Y-35870818D01*
X104686834Y-36032697D01*
X104911875Y-36152983D01*
X105156058Y-36227056D01*
X105410000Y-36252067D01*
X105663943Y-36227056D01*
X105908126Y-36152983D01*
X106133167Y-36032697D01*
X106330418Y-35870818D01*
X106492297Y-35673567D01*
X106612583Y-35448526D01*
X106680000Y-35226285D01*
X106747417Y-35448526D01*
X106867704Y-35673567D01*
X107029583Y-35870818D01*
X107226834Y-36032697D01*
X107451875Y-36152983D01*
X107696058Y-36227056D01*
X107950000Y-36252067D01*
X108203943Y-36227056D01*
X108448126Y-36152983D01*
X108673167Y-36032697D01*
X108870418Y-35870818D01*
X109032297Y-35673567D01*
X109152583Y-35448526D01*
X109220000Y-35226285D01*
X109287417Y-35448526D01*
X109407704Y-35673567D01*
X109569583Y-35870818D01*
X109766834Y-36032697D01*
X109991875Y-36152983D01*
X110236058Y-36227056D01*
X110490000Y-36252067D01*
X110743943Y-36227056D01*
X110988126Y-36152983D01*
X111213167Y-36032697D01*
X111410418Y-35870818D01*
X111572297Y-35673567D01*
X111692583Y-35448526D01*
X111760000Y-35226285D01*
X111827417Y-35448526D01*
X111947704Y-35673567D01*
X112109583Y-35870818D01*
X112306834Y-36032697D01*
X112531875Y-36152983D01*
X112776058Y-36227056D01*
X113030000Y-36252067D01*
X113075598Y-36247576D01*
X117903071Y-41075050D01*
X117930784Y-41108818D01*
X117964552Y-41136531D01*
X117964554Y-41136533D01*
X118024793Y-41185970D01*
X118065542Y-41219412D01*
X118219288Y-41301590D01*
X118386111Y-41352196D01*
X118516124Y-41365001D01*
X118516132Y-41365001D01*
X118559601Y-41369282D01*
X118603070Y-41365001D01*
X128983425Y-41365001D01*
X131850351Y-44231928D01*
X131230000Y-44231928D01*
X131105518Y-44244188D01*
X130985820Y-44280498D01*
X130875506Y-44339463D01*
X130778815Y-44418815D01*
X130699463Y-44515506D01*
X130662317Y-44585000D01*
X125877683Y-44585000D01*
X125840537Y-44515506D01*
X125761185Y-44418815D01*
X125664494Y-44339463D01*
X125554180Y-44280498D01*
X125434482Y-44244188D01*
X125310000Y-44231928D01*
X123610000Y-44231928D01*
X123485518Y-44244188D01*
X123365820Y-44280498D01*
X123255506Y-44339463D01*
X123158815Y-44418815D01*
X123079463Y-44515506D01*
X123042317Y-44585000D01*
X112691743Y-44585000D01*
X112636001Y-44579510D01*
X112580259Y-44585000D01*
X112580250Y-44585000D01*
X112413503Y-44601423D01*
X112199555Y-44666324D01*
X112002379Y-44771716D01*
X111829553Y-44913551D01*
X111794011Y-44956859D01*
X110435171Y-46315699D01*
X110295799Y-46107114D01*
X110102886Y-45914201D01*
X109876043Y-45762629D01*
X109623989Y-45658225D01*
X109356411Y-45605000D01*
X109083589Y-45605000D01*
X108816011Y-45658225D01*
X108563957Y-45762629D01*
X108337114Y-45914201D01*
X108144201Y-46107114D01*
X107992629Y-46333957D01*
X107888225Y-46586011D01*
X107835000Y-46853589D01*
X107835000Y-47126411D01*
X107870524Y-47305001D01*
X105689476Y-47305001D01*
X105725000Y-47126411D01*
X105725000Y-46853589D01*
X105671775Y-46586011D01*
X105567371Y-46333957D01*
X105415799Y-46107114D01*
X105222886Y-45914201D01*
X104996043Y-45762629D01*
X104743989Y-45658225D01*
X104476411Y-45605000D01*
X104203589Y-45605000D01*
X103936011Y-45658225D01*
X103683957Y-45762629D01*
X103457114Y-45914201D01*
X103264201Y-46107114D01*
X103112629Y-46333957D01*
X103008225Y-46586011D01*
X102955000Y-46853589D01*
X102955000Y-47126411D01*
X102990524Y-47305001D01*
X97250133Y-47305001D01*
X96657834Y-46712702D01*
X98246903Y-46712702D01*
X98318486Y-46956671D01*
X98573996Y-47077571D01*
X98848184Y-47146300D01*
X99130512Y-47160217D01*
X99410130Y-47118787D01*
X99676292Y-47023603D01*
X99801514Y-46956671D01*
X99873097Y-46712702D01*
X99060000Y-45899605D01*
X98246903Y-46712702D01*
X96657834Y-46712702D01*
X95735644Y-45790512D01*
X97619783Y-45790512D01*
X97661213Y-46070130D01*
X97756397Y-46336292D01*
X97823329Y-46461514D01*
X98067298Y-46533097D01*
X98880395Y-45720000D01*
X99239605Y-45720000D01*
X100052702Y-46533097D01*
X100296671Y-46461514D01*
X100417571Y-46206004D01*
X100486300Y-45931816D01*
X100500217Y-45649488D01*
X100458787Y-45369870D01*
X100363603Y-45103708D01*
X100296671Y-44978486D01*
X100052702Y-44906903D01*
X99239605Y-45720000D01*
X98880395Y-45720000D01*
X98067298Y-44906903D01*
X97823329Y-44978486D01*
X97702429Y-45233996D01*
X97633700Y-45508184D01*
X97619783Y-45790512D01*
X95735644Y-45790512D01*
X95701991Y-45756860D01*
X95701987Y-45756855D01*
X95487850Y-45542718D01*
X95439853Y-45301426D01*
X95331680Y-45040273D01*
X95174637Y-44805241D01*
X94985196Y-44615800D01*
X98279618Y-44615800D01*
X98246903Y-44727298D01*
X99060000Y-45540395D01*
X99873097Y-44727298D01*
X99840382Y-44615800D01*
X104206131Y-44615800D01*
X104249600Y-44620081D01*
X104293069Y-44615800D01*
X104293077Y-44615800D01*
X104423090Y-44602995D01*
X104589913Y-44552389D01*
X104743659Y-44470211D01*
X104878417Y-44359617D01*
X104906134Y-44325844D01*
X105364402Y-43867576D01*
X105410000Y-43872067D01*
X105663943Y-43847056D01*
X105908126Y-43772983D01*
X106133167Y-43652697D01*
X106330418Y-43490818D01*
X106492297Y-43293567D01*
X106612583Y-43068526D01*
X106680000Y-42846285D01*
X106747417Y-43068526D01*
X106867704Y-43293567D01*
X107029583Y-43490818D01*
X107226834Y-43652697D01*
X107451875Y-43772983D01*
X107696058Y-43847056D01*
X107950000Y-43872067D01*
X108203943Y-43847056D01*
X108448126Y-43772983D01*
X108673167Y-43652697D01*
X108870418Y-43490818D01*
X109032297Y-43293567D01*
X109152583Y-43068526D01*
X109220000Y-42846285D01*
X109287417Y-43068526D01*
X109407704Y-43293567D01*
X109569583Y-43490818D01*
X109766834Y-43652697D01*
X109991875Y-43772983D01*
X110236058Y-43847056D01*
X110490000Y-43872067D01*
X110743943Y-43847056D01*
X110988126Y-43772983D01*
X111213167Y-43652697D01*
X111410418Y-43490818D01*
X111572297Y-43293567D01*
X111692583Y-43068526D01*
X111760000Y-42846285D01*
X111827417Y-43068526D01*
X111947704Y-43293567D01*
X112109583Y-43490818D01*
X112306834Y-43652697D01*
X112531875Y-43772983D01*
X112776058Y-43847056D01*
X113030000Y-43872067D01*
X113283943Y-43847056D01*
X113528126Y-43772983D01*
X113753167Y-43652697D01*
X113950418Y-43490818D01*
X114112297Y-43293567D01*
X114232583Y-43068526D01*
X114306656Y-42824343D01*
X114325400Y-42634030D01*
X114325400Y-41185970D01*
X114306656Y-40995657D01*
X114232583Y-40751474D01*
X114112297Y-40526433D01*
X113950418Y-40329182D01*
X113753166Y-40167303D01*
X113528125Y-40047017D01*
X113283942Y-39972944D01*
X113030000Y-39947933D01*
X112776057Y-39972944D01*
X112531874Y-40047017D01*
X112306833Y-40167303D01*
X112109582Y-40329182D01*
X111947703Y-40526434D01*
X111827417Y-40751475D01*
X111760000Y-40973716D01*
X111692583Y-40751474D01*
X111572297Y-40526433D01*
X111410418Y-40329182D01*
X111213166Y-40167303D01*
X110988125Y-40047017D01*
X110743942Y-39972944D01*
X110490000Y-39947933D01*
X110236057Y-39972944D01*
X109991874Y-40047017D01*
X109766833Y-40167303D01*
X109569582Y-40329182D01*
X109407703Y-40526434D01*
X109287417Y-40751475D01*
X109220000Y-40973716D01*
X109152583Y-40751474D01*
X109032297Y-40526433D01*
X108870418Y-40329182D01*
X108673166Y-40167303D01*
X108448125Y-40047017D01*
X108203942Y-39972944D01*
X107950000Y-39947933D01*
X107696057Y-39972944D01*
X107451874Y-40047017D01*
X107226833Y-40167303D01*
X107029582Y-40329182D01*
X106867703Y-40526434D01*
X106747417Y-40751475D01*
X106680000Y-40973716D01*
X106612583Y-40751474D01*
X106492297Y-40526433D01*
X106330418Y-40329182D01*
X106133166Y-40167303D01*
X105908125Y-40047017D01*
X105663942Y-39972944D01*
X105410000Y-39947933D01*
X105156057Y-39972944D01*
X104911874Y-40047017D01*
X104686833Y-40167303D01*
X104489582Y-40329182D01*
X104327703Y-40526434D01*
X104207417Y-40751475D01*
X104140000Y-40973716D01*
X104072583Y-40751474D01*
X103952297Y-40526433D01*
X103790418Y-40329182D01*
X103593166Y-40167303D01*
X103368125Y-40047017D01*
X103123942Y-39972944D01*
X102870000Y-39947933D01*
X102616057Y-39972944D01*
X102371874Y-40047017D01*
X102146833Y-40167303D01*
X101949582Y-40329182D01*
X101787703Y-40526434D01*
X101667417Y-40751475D01*
X101600000Y-40973716D01*
X101532583Y-40751474D01*
X101412297Y-40526433D01*
X101250418Y-40329182D01*
X101053166Y-40167303D01*
X100828125Y-40047017D01*
X100583942Y-39972944D01*
X100330000Y-39947933D01*
X100076057Y-39972944D01*
X99831874Y-40047017D01*
X99606833Y-40167303D01*
X99409582Y-40329182D01*
X99247703Y-40526434D01*
X99127417Y-40751475D01*
X99057494Y-40981977D01*
X99035733Y-40872320D01*
X98938193Y-40636539D01*
X98796529Y-40424317D01*
X98616184Y-40243811D01*
X98404089Y-40101956D01*
X98168395Y-40004205D01*
X98117105Y-39996180D01*
X97917000Y-40120067D01*
X97917000Y-41783000D01*
X97937000Y-41783000D01*
X97937000Y-42037000D01*
X97917000Y-42037000D01*
X97917000Y-42057000D01*
X97663000Y-42057000D01*
X97663000Y-42037000D01*
X97643000Y-42037000D01*
X97643000Y-41783000D01*
X97663000Y-41783000D01*
X97663000Y-40120067D01*
X97462895Y-39996180D01*
X97411605Y-40004205D01*
X97175911Y-40101956D01*
X96963816Y-40243811D01*
X96783471Y-40424317D01*
X96641807Y-40636539D01*
X96544267Y-40872320D01*
X96522506Y-40981977D01*
X96452583Y-40751474D01*
X96332297Y-40526433D01*
X96170418Y-40329182D01*
X95973166Y-40167303D01*
X95748125Y-40047017D01*
X95503942Y-39972944D01*
X95250000Y-39947933D01*
X94996057Y-39972944D01*
X94751874Y-40047017D01*
X94526833Y-40167303D01*
X94329582Y-40329182D01*
X94167703Y-40526434D01*
X94047417Y-40751475D01*
X93980000Y-40973716D01*
X93912583Y-40751474D01*
X93792297Y-40526433D01*
X93630418Y-40329182D01*
X93433166Y-40167303D01*
X93208125Y-40047017D01*
X92963942Y-39972944D01*
X92710000Y-39947933D01*
X92456057Y-39972944D01*
X92211874Y-40047017D01*
X91986833Y-40167303D01*
X91789582Y-40329182D01*
X91627703Y-40526434D01*
X91507417Y-40751475D01*
X91440000Y-40973716D01*
X91372583Y-40751474D01*
X91252297Y-40526433D01*
X91090418Y-40329182D01*
X90893166Y-40167303D01*
X90668125Y-40047017D01*
X90423942Y-39972944D01*
X90170000Y-39947933D01*
X89916057Y-39972944D01*
X89671874Y-40047017D01*
X89446833Y-40167303D01*
X89249582Y-40329182D01*
X89087703Y-40526434D01*
X88967417Y-40751475D01*
X88900000Y-40973716D01*
X88832583Y-40751474D01*
X88712297Y-40526433D01*
X88550418Y-40329182D01*
X88353166Y-40167303D01*
X88128125Y-40047017D01*
X87883942Y-39972944D01*
X87630000Y-39947933D01*
X87376057Y-39972944D01*
X87131874Y-40047017D01*
X86906833Y-40167303D01*
X86709582Y-40329182D01*
X86547703Y-40526434D01*
X86427417Y-40751475D01*
X86360000Y-40973716D01*
X86292583Y-40751474D01*
X86172297Y-40526433D01*
X86010418Y-40329182D01*
X85813166Y-40167303D01*
X85588125Y-40047017D01*
X85343942Y-39972944D01*
X85090000Y-39947933D01*
X84836057Y-39972944D01*
X84591874Y-40047017D01*
X84545410Y-40071852D01*
X84545410Y-37906968D01*
X85685050Y-36767329D01*
X85718817Y-36739617D01*
X85758163Y-36691675D01*
X85829411Y-36604859D01*
X85911589Y-36451114D01*
X85962195Y-36284290D01*
X85963443Y-36271621D01*
X85975000Y-36154277D01*
X85975000Y-36154269D01*
X85979281Y-36110800D01*
X85975000Y-36067331D01*
X85975000Y-35899885D01*
X86010418Y-35870818D01*
X86172297Y-35673567D01*
X86292583Y-35448526D01*
X86360000Y-35226285D01*
X86427417Y-35448526D01*
X86547704Y-35673567D01*
X86709583Y-35870818D01*
X86906834Y-36032697D01*
X87131875Y-36152983D01*
X87376058Y-36227056D01*
X87630000Y-36252067D01*
X87883943Y-36227056D01*
X88128126Y-36152983D01*
X88353167Y-36032697D01*
X88550418Y-35870818D01*
X88712297Y-35673567D01*
X88832583Y-35448526D01*
X88900000Y-35226285D01*
X88967417Y-35448526D01*
X89087704Y-35673567D01*
X89249583Y-35870818D01*
X89446834Y-36032697D01*
X89671875Y-36152983D01*
X89916058Y-36227056D01*
X90170000Y-36252067D01*
X90423943Y-36227056D01*
X90668126Y-36152983D01*
X90893167Y-36032697D01*
X91090418Y-35870818D01*
X91252297Y-35673567D01*
X91372583Y-35448526D01*
X91440000Y-35226285D01*
X91507417Y-35448526D01*
X91627704Y-35673567D01*
X91789583Y-35870818D01*
X91986834Y-36032697D01*
X92211875Y-36152983D01*
X92456058Y-36227056D01*
X92710000Y-36252067D01*
X92963943Y-36227056D01*
X93208126Y-36152983D01*
X93433167Y-36032697D01*
X93630418Y-35870818D01*
X93792297Y-35673567D01*
X93912583Y-35448526D01*
X93982506Y-35218023D01*
X94004267Y-35327680D01*
X94101807Y-35563461D01*
X94243471Y-35775683D01*
X94423816Y-35956189D01*
X94635911Y-36098044D01*
X94871605Y-36195795D01*
X94922895Y-36203820D01*
X95123000Y-36079933D01*
X95123000Y-34417000D01*
X95103000Y-34417000D01*
X95103000Y-34163000D01*
X95123000Y-34163000D01*
X95123000Y-32500067D01*
X94922895Y-32376180D01*
X94871605Y-32384205D01*
X94635911Y-32481956D01*
X94423816Y-32623811D01*
X94243471Y-32804317D01*
X94101807Y-33016539D01*
X94004267Y-33252320D01*
X93982506Y-33361977D01*
X93912583Y-33131474D01*
X93792297Y-32906433D01*
X93630418Y-32709182D01*
X93433166Y-32547303D01*
X93208125Y-32427017D01*
X92963942Y-32352944D01*
X92710000Y-32327933D01*
X92664403Y-32332424D01*
X92121037Y-31789058D01*
X92136292Y-31783603D01*
X92261514Y-31716671D01*
X92333097Y-31472702D01*
X91520000Y-30659605D01*
X91505858Y-30673748D01*
X91326253Y-30494143D01*
X91340395Y-30480000D01*
X91699605Y-30480000D01*
X92512702Y-31293097D01*
X92756671Y-31221514D01*
X92877571Y-30966004D01*
X92946300Y-30691816D01*
X92960217Y-30409488D01*
X92949724Y-30338665D01*
X95085000Y-30338665D01*
X95085000Y-30621335D01*
X95140147Y-30898574D01*
X95248320Y-31159727D01*
X95405363Y-31394759D01*
X95605241Y-31594637D01*
X95840273Y-31751680D01*
X96101426Y-31859853D01*
X96378665Y-31915000D01*
X96661335Y-31915000D01*
X96938574Y-31859853D01*
X97199727Y-31751680D01*
X97434759Y-31594637D01*
X97634637Y-31394759D01*
X97791680Y-31159727D01*
X97899853Y-30898574D01*
X97955000Y-30621335D01*
X97955000Y-30338665D01*
X97899853Y-30061426D01*
X97791680Y-29800273D01*
X97634637Y-29565241D01*
X97434759Y-29365363D01*
X97199727Y-29208320D01*
X96938574Y-29100147D01*
X96661335Y-29045000D01*
X96378665Y-29045000D01*
X96101426Y-29100147D01*
X95840273Y-29208320D01*
X95605241Y-29365363D01*
X95405363Y-29565241D01*
X95248320Y-29800273D01*
X95140147Y-30061426D01*
X95085000Y-30338665D01*
X92949724Y-30338665D01*
X92918787Y-30129870D01*
X92823603Y-29863708D01*
X92756671Y-29738486D01*
X92512702Y-29666903D01*
X91699605Y-30480000D01*
X91340395Y-30480000D01*
X90527298Y-29666903D01*
X90283329Y-29738486D01*
X90162429Y-29993996D01*
X90093700Y-30268184D01*
X90079783Y-30550512D01*
X90121213Y-30830130D01*
X90140546Y-30884190D01*
X80343523Y-30884190D01*
X80300054Y-30879909D01*
X80256585Y-30884190D01*
X80256577Y-30884190D01*
X80126564Y-30896995D01*
X79959740Y-30947601D01*
X79805995Y-31029779D01*
X79705007Y-31112658D01*
X79705005Y-31112660D01*
X79671237Y-31140373D01*
X79643524Y-31174141D01*
X74604956Y-36212710D01*
X74571183Y-36240427D01*
X74460589Y-36375186D01*
X74378411Y-36528932D01*
X74343157Y-36645148D01*
X74329043Y-36691675D01*
X74327805Y-36695755D01*
X74315000Y-36825768D01*
X74315000Y-36825775D01*
X74310719Y-36869244D01*
X74315000Y-36912713D01*
X74315001Y-39394433D01*
X74315000Y-39394443D01*
X74315000Y-39445241D01*
X74144866Y-39584866D01*
X73959294Y-39810986D01*
X73821401Y-40068966D01*
X73736487Y-40348889D01*
X73707815Y-40640000D01*
X73736487Y-40931111D01*
X73821401Y-41211034D01*
X73959294Y-41469014D01*
X74144866Y-41695134D01*
X74370986Y-41880706D01*
X74435523Y-41915201D01*
X74318645Y-41984822D01*
X74102412Y-42179731D01*
X73928359Y-42413080D01*
X73803175Y-42675901D01*
X73758524Y-42823110D01*
X73879845Y-43053000D01*
X75073000Y-43053000D01*
X75073000Y-43033000D01*
X75327000Y-43033000D01*
X75327000Y-43053000D01*
X76520155Y-43053000D01*
X76641476Y-42823110D01*
X76596825Y-42675901D01*
X76471641Y-42413080D01*
X76297588Y-42179731D01*
X76081355Y-41984822D01*
X75964477Y-41915201D01*
X76029014Y-41880706D01*
X76255134Y-41695134D01*
X76440706Y-41469014D01*
X76578599Y-41211034D01*
X76663513Y-40931111D01*
X76692185Y-40640000D01*
X76663513Y-40348889D01*
X76578599Y-40068966D01*
X76440706Y-39810986D01*
X76255134Y-39584866D01*
X76085000Y-39445241D01*
X76085000Y-37235822D01*
X78714600Y-34606223D01*
X78714600Y-35014030D01*
X78733344Y-35204343D01*
X78807417Y-35448526D01*
X78927704Y-35673567D01*
X79089583Y-35870818D01*
X79286834Y-36032697D01*
X79511875Y-36152983D01*
X79756058Y-36227056D01*
X80010000Y-36252067D01*
X80263943Y-36227056D01*
X80508126Y-36152983D01*
X80733167Y-36032697D01*
X80930418Y-35870818D01*
X81092297Y-35673567D01*
X81212583Y-35448526D01*
X81280000Y-35226285D01*
X81347417Y-35448526D01*
X81467704Y-35673567D01*
X81629583Y-35870818D01*
X81804670Y-36014508D01*
X80525361Y-37293817D01*
X80491594Y-37321529D01*
X80463881Y-37355297D01*
X80463878Y-37355300D01*
X80381000Y-37456287D01*
X80298822Y-37610033D01*
X80248215Y-37776856D01*
X80231129Y-37950346D01*
X80235411Y-37993825D01*
X80235411Y-39970134D01*
X80010000Y-39947933D01*
X79756057Y-39972944D01*
X79511874Y-40047017D01*
X79286833Y-40167303D01*
X79089582Y-40329182D01*
X78927703Y-40526434D01*
X78807417Y-40751475D01*
X78733344Y-40995658D01*
X78714600Y-41185971D01*
X78714600Y-42634030D01*
X78733344Y-42824343D01*
X78807417Y-43068526D01*
X78927704Y-43293567D01*
X79048483Y-43440738D01*
X76688072Y-45801149D01*
X76688072Y-44870000D01*
X76675812Y-44745518D01*
X76639502Y-44625820D01*
X76580537Y-44515506D01*
X76501185Y-44418815D01*
X76404494Y-44339463D01*
X76294180Y-44280498D01*
X76213534Y-44256034D01*
X76297588Y-44180269D01*
X76471641Y-43946920D01*
X76596825Y-43684099D01*
X76641476Y-43536890D01*
X76520155Y-43307000D01*
X75327000Y-43307000D01*
X75327000Y-43327000D01*
X75073000Y-43327000D01*
X75073000Y-43307000D01*
X73879845Y-43307000D01*
X73758524Y-43536890D01*
X73803175Y-43684099D01*
X73928359Y-43946920D01*
X74102412Y-44180269D01*
X74186466Y-44256034D01*
X74105820Y-44280498D01*
X73995506Y-44339463D01*
X73898815Y-44418815D01*
X73819463Y-44515506D01*
X73760498Y-44625820D01*
X73724188Y-44745518D01*
X73711928Y-44870000D01*
X73711928Y-46570000D01*
X73724188Y-46694482D01*
X73760498Y-46814180D01*
X73819463Y-46924494D01*
X73898815Y-47021185D01*
X73995506Y-47100537D01*
X74105820Y-47159502D01*
X74225518Y-47195812D01*
X74350000Y-47208072D01*
X75281149Y-47208072D01*
X70494955Y-51994267D01*
X70461182Y-52021984D01*
X70350588Y-52156743D01*
X70268410Y-52310489D01*
X70217804Y-52477312D01*
X70204999Y-52607325D01*
X70204999Y-52607332D01*
X70200718Y-52650801D01*
X42267508Y-52650801D01*
X42191255Y-52611980D01*
X41786449Y-52497956D01*
X41367176Y-52465098D01*
X40949549Y-52514666D01*
X40549617Y-52644757D01*
X40253962Y-52802786D01*
X40097952Y-53118347D01*
X31018784Y-53118347D01*
X32398858Y-51021653D01*
X40097952Y-51021653D01*
X40253962Y-51337214D01*
X40628745Y-51528020D01*
X41033551Y-51642044D01*
X41452824Y-51674902D01*
X41870451Y-51625334D01*
X42270383Y-51495243D01*
X42566038Y-51337214D01*
X42722048Y-51021653D01*
X41410000Y-49709605D01*
X40097952Y-51021653D01*
X32398858Y-51021653D01*
X33352498Y-49572824D01*
X39265098Y-49572824D01*
X39314666Y-49990451D01*
X39444757Y-50390383D01*
X39602786Y-50686038D01*
X39918347Y-50842048D01*
X41230395Y-49530000D01*
X41589605Y-49530000D01*
X42901653Y-50842048D01*
X43217214Y-50686038D01*
X43408020Y-50311255D01*
X43522044Y-49906449D01*
X43554902Y-49487176D01*
X43505334Y-49069549D01*
X43375243Y-48669617D01*
X43217214Y-48373962D01*
X42901653Y-48217952D01*
X41589605Y-49530000D01*
X41230395Y-49530000D01*
X39918347Y-48217952D01*
X39602786Y-48373962D01*
X39411980Y-48748745D01*
X39297956Y-49153551D01*
X39265098Y-49572824D01*
X33352498Y-49572824D01*
X34362512Y-48038347D01*
X40097952Y-48038347D01*
X41410000Y-49350395D01*
X42722048Y-48038347D01*
X42566038Y-47722786D01*
X42191255Y-47531980D01*
X41786449Y-47417956D01*
X41367176Y-47385098D01*
X40949549Y-47434666D01*
X40549617Y-47564757D01*
X40253962Y-47722786D01*
X40097952Y-48038347D01*
X34362512Y-48038347D01*
X35141135Y-46855413D01*
X46304192Y-46855413D01*
X46399956Y-47119814D01*
X46689571Y-47260704D01*
X47001108Y-47342384D01*
X47322595Y-47361718D01*
X47641675Y-47317961D01*
X47946088Y-47212795D01*
X48120044Y-47119814D01*
X48215808Y-46855413D01*
X47260000Y-45899605D01*
X46304192Y-46855413D01*
X35141135Y-46855413D01*
X35847280Y-45782595D01*
X45618282Y-45782595D01*
X45662039Y-46101675D01*
X45767205Y-46406088D01*
X45860186Y-46580044D01*
X46124587Y-46675808D01*
X47080395Y-45720000D01*
X47439605Y-45720000D01*
X48395413Y-46675808D01*
X48659814Y-46580044D01*
X48800704Y-46290429D01*
X48882384Y-45978892D01*
X48901718Y-45657405D01*
X48888219Y-45558967D01*
X50125000Y-45558967D01*
X50125000Y-45881033D01*
X50187832Y-46196912D01*
X50311082Y-46494463D01*
X50490013Y-46762252D01*
X50717748Y-46989987D01*
X50985537Y-47168918D01*
X51283088Y-47292168D01*
X51598967Y-47355000D01*
X51921033Y-47355000D01*
X52236912Y-47292168D01*
X52534463Y-47168918D01*
X52802252Y-46989987D01*
X53029987Y-46762252D01*
X53208918Y-46494463D01*
X53332168Y-46196912D01*
X53395000Y-45881033D01*
X53395000Y-45558967D01*
X53332168Y-45243088D01*
X53208918Y-44945537D01*
X53158446Y-44870000D01*
X69901928Y-44870000D01*
X69901928Y-46570000D01*
X69914188Y-46694482D01*
X69950498Y-46814180D01*
X70009463Y-46924494D01*
X70088815Y-47021185D01*
X70185506Y-47100537D01*
X70295820Y-47159502D01*
X70415518Y-47195812D01*
X70540000Y-47208072D01*
X72240000Y-47208072D01*
X72364482Y-47195812D01*
X72484180Y-47159502D01*
X72594494Y-47100537D01*
X72691185Y-47021185D01*
X72770537Y-46924494D01*
X72829502Y-46814180D01*
X72865812Y-46694482D01*
X72878072Y-46570000D01*
X72878072Y-44870000D01*
X72865812Y-44745518D01*
X72829502Y-44625820D01*
X72770537Y-44515506D01*
X72691185Y-44418815D01*
X72594494Y-44339463D01*
X72484180Y-44280498D01*
X72403534Y-44256034D01*
X72487588Y-44180269D01*
X72661641Y-43946920D01*
X72786825Y-43684099D01*
X72831476Y-43536890D01*
X72710155Y-43307000D01*
X71517000Y-43307000D01*
X71517000Y-43327000D01*
X71263000Y-43327000D01*
X71263000Y-43307000D01*
X70069845Y-43307000D01*
X69948524Y-43536890D01*
X69993175Y-43684099D01*
X70118359Y-43946920D01*
X70292412Y-44180269D01*
X70376466Y-44256034D01*
X70295820Y-44280498D01*
X70185506Y-44339463D01*
X70088815Y-44418815D01*
X70009463Y-44515506D01*
X69950498Y-44625820D01*
X69914188Y-44745518D01*
X69901928Y-44870000D01*
X53158446Y-44870000D01*
X53029987Y-44677748D01*
X52802252Y-44450013D01*
X52534463Y-44271082D01*
X52236912Y-44147832D01*
X51921033Y-44085000D01*
X51598967Y-44085000D01*
X51283088Y-44147832D01*
X50985537Y-44271082D01*
X50717748Y-44450013D01*
X50490013Y-44677748D01*
X50311082Y-44945537D01*
X50187832Y-45243088D01*
X50125000Y-45558967D01*
X48888219Y-45558967D01*
X48857961Y-45338325D01*
X48752795Y-45033912D01*
X48659814Y-44859956D01*
X48395413Y-44764192D01*
X47439605Y-45720000D01*
X47080395Y-45720000D01*
X46124587Y-44764192D01*
X45860186Y-44859956D01*
X45719296Y-45149571D01*
X45637616Y-45461108D01*
X45618282Y-45782595D01*
X35847280Y-45782595D01*
X36635827Y-44584587D01*
X46304192Y-44584587D01*
X47260000Y-45540395D01*
X48215808Y-44584587D01*
X48120044Y-44320186D01*
X47830429Y-44179296D01*
X47518892Y-44097616D01*
X47197405Y-44078282D01*
X46878325Y-44122039D01*
X46573912Y-44227205D01*
X46399956Y-44320186D01*
X46304192Y-44584587D01*
X36635827Y-44584587D01*
X36689562Y-44502950D01*
X42208044Y-40355413D01*
X46304192Y-40355413D01*
X46399956Y-40619814D01*
X46689571Y-40760704D01*
X47001108Y-40842384D01*
X47322595Y-40861718D01*
X47641675Y-40817961D01*
X47946088Y-40712795D01*
X48120044Y-40619814D01*
X48215808Y-40355413D01*
X47260000Y-39399605D01*
X46304192Y-40355413D01*
X42208044Y-40355413D01*
X43635477Y-39282595D01*
X45618282Y-39282595D01*
X45662039Y-39601675D01*
X45767205Y-39906088D01*
X45860186Y-40080044D01*
X46124587Y-40175808D01*
X47080395Y-39220000D01*
X47439605Y-39220000D01*
X48395413Y-40175808D01*
X48659814Y-40080044D01*
X48800704Y-39790429D01*
X48882384Y-39478892D01*
X48901718Y-39157405D01*
X48888219Y-39058967D01*
X50125000Y-39058967D01*
X50125000Y-39381033D01*
X50187832Y-39696912D01*
X50311082Y-39994463D01*
X50490013Y-40262252D01*
X50717748Y-40489987D01*
X50985537Y-40668918D01*
X51283088Y-40792168D01*
X51598967Y-40855000D01*
X51921033Y-40855000D01*
X52236912Y-40792168D01*
X52534463Y-40668918D01*
X52577741Y-40640000D01*
X69897815Y-40640000D01*
X69926487Y-40931111D01*
X70011401Y-41211034D01*
X70149294Y-41469014D01*
X70334866Y-41695134D01*
X70560986Y-41880706D01*
X70625523Y-41915201D01*
X70508645Y-41984822D01*
X70292412Y-42179731D01*
X70118359Y-42413080D01*
X69993175Y-42675901D01*
X69948524Y-42823110D01*
X70069845Y-43053000D01*
X71263000Y-43053000D01*
X71263000Y-43033000D01*
X71517000Y-43033000D01*
X71517000Y-43053000D01*
X72710155Y-43053000D01*
X72831476Y-42823110D01*
X72786825Y-42675901D01*
X72661641Y-42413080D01*
X72487588Y-42179731D01*
X72271355Y-41984822D01*
X72154477Y-41915201D01*
X72219014Y-41880706D01*
X72445134Y-41695134D01*
X72630706Y-41469014D01*
X72768599Y-41211034D01*
X72853513Y-40931111D01*
X72882185Y-40640000D01*
X72853513Y-40348889D01*
X72768599Y-40068966D01*
X72630706Y-39810986D01*
X72445134Y-39584866D01*
X72219014Y-39399294D01*
X71961034Y-39261401D01*
X71681111Y-39176487D01*
X71462950Y-39155000D01*
X71317050Y-39155000D01*
X71098889Y-39176487D01*
X70818966Y-39261401D01*
X70560986Y-39399294D01*
X70334866Y-39584866D01*
X70149294Y-39810986D01*
X70011401Y-40068966D01*
X69926487Y-40348889D01*
X69897815Y-40640000D01*
X52577741Y-40640000D01*
X52802252Y-40489987D01*
X53029987Y-40262252D01*
X53208918Y-39994463D01*
X53332168Y-39696912D01*
X53395000Y-39381033D01*
X53395000Y-39058967D01*
X53332168Y-38743088D01*
X53208918Y-38445537D01*
X53029987Y-38177748D01*
X52802252Y-37950013D01*
X52534463Y-37771082D01*
X52236912Y-37647832D01*
X51921033Y-37585000D01*
X51598967Y-37585000D01*
X51283088Y-37647832D01*
X50985537Y-37771082D01*
X50717748Y-37950013D01*
X50490013Y-38177748D01*
X50311082Y-38445537D01*
X50187832Y-38743088D01*
X50125000Y-39058967D01*
X48888219Y-39058967D01*
X48857961Y-38838325D01*
X48752795Y-38533912D01*
X48659814Y-38359956D01*
X48395413Y-38264192D01*
X47439605Y-39220000D01*
X47080395Y-39220000D01*
X46124587Y-38264192D01*
X45860186Y-38359956D01*
X45719296Y-38649571D01*
X45637616Y-38961108D01*
X45618282Y-39282595D01*
X43635477Y-39282595D01*
X45229480Y-38084587D01*
X46304192Y-38084587D01*
X47260000Y-39040395D01*
X48215808Y-38084587D01*
X48120044Y-37820186D01*
X47830429Y-37679296D01*
X47518892Y-37597616D01*
X47197405Y-37578282D01*
X46878325Y-37622039D01*
X46573912Y-37727205D01*
X46399956Y-37820186D01*
X46304192Y-38084587D01*
X45229480Y-38084587D01*
X47204789Y-36600000D01*
X54011928Y-36600000D01*
X54011928Y-39600000D01*
X54024188Y-39724482D01*
X54060498Y-39844180D01*
X54119463Y-39954494D01*
X54198815Y-40051185D01*
X54295506Y-40130537D01*
X54405820Y-40189502D01*
X54525518Y-40225812D01*
X54650000Y-40238072D01*
X57650000Y-40238072D01*
X57774482Y-40225812D01*
X57894180Y-40189502D01*
X58004494Y-40130537D01*
X58101185Y-40051185D01*
X58180537Y-39954494D01*
X58239502Y-39844180D01*
X58275812Y-39724482D01*
X58288072Y-39600000D01*
X58288072Y-37889721D01*
X59095000Y-37889721D01*
X59095000Y-38310279D01*
X59177047Y-38722756D01*
X59337988Y-39111302D01*
X59571637Y-39460983D01*
X59869017Y-39758363D01*
X60218698Y-39992012D01*
X60607244Y-40152953D01*
X61019721Y-40235000D01*
X61440279Y-40235000D01*
X61852756Y-40152953D01*
X62241302Y-39992012D01*
X62590983Y-39758363D01*
X62888363Y-39460983D01*
X63122012Y-39111302D01*
X63282953Y-38722756D01*
X63365000Y-38310279D01*
X63365000Y-37889721D01*
X64175000Y-37889721D01*
X64175000Y-38310279D01*
X64257047Y-38722756D01*
X64417988Y-39111302D01*
X64651637Y-39460983D01*
X64949017Y-39758363D01*
X65298698Y-39992012D01*
X65687244Y-40152953D01*
X66099721Y-40235000D01*
X66520279Y-40235000D01*
X66932756Y-40152953D01*
X67321302Y-39992012D01*
X67670983Y-39758363D01*
X67968363Y-39460983D01*
X68202012Y-39111302D01*
X68362953Y-38722756D01*
X68445000Y-38310279D01*
X68445000Y-37889721D01*
X68362953Y-37477244D01*
X68202012Y-37088698D01*
X67968363Y-36739017D01*
X67670983Y-36441637D01*
X67321302Y-36207988D01*
X66932756Y-36047047D01*
X66520279Y-35965000D01*
X66099721Y-35965000D01*
X65687244Y-36047047D01*
X65298698Y-36207988D01*
X64949017Y-36441637D01*
X64651637Y-36739017D01*
X64417988Y-37088698D01*
X64257047Y-37477244D01*
X64175000Y-37889721D01*
X63365000Y-37889721D01*
X63311977Y-37623155D01*
X63493139Y-37441993D01*
X63536448Y-37406450D01*
X63678283Y-37233624D01*
X63783675Y-37036448D01*
X63848576Y-36822500D01*
X63864999Y-36655753D01*
X63864999Y-36655752D01*
X63870490Y-36600001D01*
X63864999Y-36544250D01*
X63864999Y-36108130D01*
X66792248Y-33180881D01*
X71138724Y-33180881D01*
X71498912Y-33670548D01*
X72162882Y-34030849D01*
X72884385Y-34254694D01*
X73635695Y-34333480D01*
X74387938Y-34264178D01*
X75112208Y-34049452D01*
X75780670Y-33697555D01*
X75821088Y-33670548D01*
X76181276Y-33180881D01*
X73660000Y-30659605D01*
X71138724Y-33180881D01*
X66792248Y-33180881D01*
X69840386Y-30132743D01*
X69806520Y-30455695D01*
X69875822Y-31207938D01*
X70090548Y-31932208D01*
X70442445Y-32600670D01*
X70469452Y-32641088D01*
X70959119Y-33001276D01*
X73480395Y-30480000D01*
X73839605Y-30480000D01*
X76360881Y-33001276D01*
X76850548Y-32641088D01*
X77210849Y-31977118D01*
X77434694Y-31255615D01*
X77513480Y-30504305D01*
X77444178Y-29752062D01*
X77365683Y-29487298D01*
X90706903Y-29487298D01*
X91520000Y-30300395D01*
X92333097Y-29487298D01*
X92261514Y-29243329D01*
X92006004Y-29122429D01*
X91731816Y-29053700D01*
X91449488Y-29039783D01*
X91169870Y-29081213D01*
X90903708Y-29176397D01*
X90778486Y-29243329D01*
X90706903Y-29487298D01*
X77365683Y-29487298D01*
X77229452Y-29027792D01*
X76877555Y-28359330D01*
X76850548Y-28318912D01*
X76360881Y-27958724D01*
X73839605Y-30480000D01*
X73480395Y-30480000D01*
X73466253Y-30465858D01*
X73645858Y-30286253D01*
X73660000Y-30300395D01*
X76181276Y-27779119D01*
X76134111Y-27714999D01*
X97229868Y-27714999D01*
X98766857Y-29251990D01*
X98766868Y-29251999D01*
X98902150Y-29387282D01*
X98950147Y-29628574D01*
X99058320Y-29889727D01*
X99215363Y-30124759D01*
X99415241Y-30324637D01*
X99650273Y-30481680D01*
X99911426Y-30589853D01*
X100188665Y-30645000D01*
X100471335Y-30645000D01*
X100748574Y-30589853D01*
X101009727Y-30481680D01*
X101244759Y-30324637D01*
X101366694Y-30202702D01*
X104516903Y-30202702D01*
X104588486Y-30446671D01*
X104843996Y-30567571D01*
X105118184Y-30636300D01*
X105400512Y-30650217D01*
X105680130Y-30608787D01*
X105946292Y-30513603D01*
X106071514Y-30446671D01*
X106143097Y-30202702D01*
X105330000Y-29389605D01*
X104516903Y-30202702D01*
X101366694Y-30202702D01*
X101444637Y-30124759D01*
X101601680Y-29889727D01*
X101709853Y-29628574D01*
X101765000Y-29351335D01*
X101765000Y-29280512D01*
X103889783Y-29280512D01*
X103931213Y-29560130D01*
X104026397Y-29826292D01*
X104093329Y-29951514D01*
X104337298Y-30023097D01*
X105150395Y-29210000D01*
X105509605Y-29210000D01*
X106322702Y-30023097D01*
X106566671Y-29951514D01*
X106687571Y-29696004D01*
X106756300Y-29421816D01*
X106770217Y-29139488D01*
X106728787Y-28859870D01*
X106633603Y-28593708D01*
X106566671Y-28468486D01*
X106322702Y-28396903D01*
X105509605Y-29210000D01*
X105150395Y-29210000D01*
X104337298Y-28396903D01*
X104093329Y-28468486D01*
X103972429Y-28723996D01*
X103903700Y-28998184D01*
X103889783Y-29280512D01*
X101765000Y-29280512D01*
X101765000Y-29068665D01*
X101709853Y-28791426D01*
X101601680Y-28530273D01*
X101444637Y-28295241D01*
X101366694Y-28217298D01*
X104516903Y-28217298D01*
X105330000Y-29030395D01*
X106143097Y-28217298D01*
X106071514Y-27973329D01*
X105816004Y-27852429D01*
X105541816Y-27783700D01*
X105259488Y-27769783D01*
X104979870Y-27811213D01*
X104713708Y-27906397D01*
X104588486Y-27973329D01*
X104516903Y-28217298D01*
X101366694Y-28217298D01*
X101244759Y-28095363D01*
X101009727Y-27938320D01*
X100748574Y-27830147D01*
X100507282Y-27782150D01*
X100371999Y-27646868D01*
X100371990Y-27646857D01*
X98541994Y-25816863D01*
X98506448Y-25773550D01*
X98333622Y-25631715D01*
X98136446Y-25526323D01*
X97922498Y-25461422D01*
X97755751Y-25444999D01*
X97755750Y-25444999D01*
X97699999Y-25439508D01*
X97644248Y-25444999D01*
X71843740Y-25444999D01*
X71787998Y-25439509D01*
X71732256Y-25444999D01*
X71732247Y-25444999D01*
X71565500Y-25461422D01*
X71351552Y-25526323D01*
X71154376Y-25631715D01*
X70981550Y-25773550D01*
X70946008Y-25816858D01*
X61966859Y-34796008D01*
X61923551Y-34831550D01*
X61781716Y-35004376D01*
X61676323Y-35201552D01*
X61611422Y-35415500D01*
X61604929Y-35481424D01*
X61589508Y-35637999D01*
X61594999Y-35693750D01*
X61594999Y-35995776D01*
X61440279Y-35965000D01*
X61019721Y-35965000D01*
X60607244Y-36047047D01*
X60218698Y-36207988D01*
X59869017Y-36441637D01*
X59571637Y-36739017D01*
X59337988Y-37088698D01*
X59177047Y-37477244D01*
X59095000Y-37889721D01*
X58288072Y-37889721D01*
X58288072Y-36600000D01*
X58275812Y-36475518D01*
X58239502Y-36355820D01*
X58180537Y-36245506D01*
X58101185Y-36148815D01*
X58004494Y-36069463D01*
X57894180Y-36010498D01*
X57774482Y-35974188D01*
X57650000Y-35961928D01*
X54650000Y-35961928D01*
X54525518Y-35974188D01*
X54405820Y-36010498D01*
X54295506Y-36069463D01*
X54198815Y-36148815D01*
X54119463Y-36245506D01*
X54060498Y-36355820D01*
X54024188Y-36475518D01*
X54011928Y-36600000D01*
X47204789Y-36600000D01*
X56470239Y-29636349D01*
X80122842Y-22310808D01*
X98575622Y-22310808D01*
X122228224Y-29636350D01*
M02*
