G04 #@! TF.GenerationSoftware,KiCad,Pcbnew,(5.1.2)-1*
G04 #@! TF.CreationDate,2019-05-15T23:48:02+02:00*
G04 #@! TF.ProjectId,ADClock,4144436c-6f63-46b2-9e6b-696361645f70,rev?*
G04 #@! TF.SameCoordinates,Original*
G04 #@! TF.FileFunction,Copper,L2,Bot*
G04 #@! TF.FilePolarity,Positive*
%FSLAX46Y46*%
G04 Gerber Fmt 4.6, Leading zero omitted, Abs format (unit mm)*
G04 Created by KiCad (PCBNEW (5.1.2)-1) date 2019-05-15 23:48:02*
%MOMM*%
%LPD*%
G04 APERTURE LIST*
%ADD10C,1.600000*%
%ADD11O,1.320800X2.641600*%
%ADD12R,3.000000X3.000000*%
%ADD13C,3.000000*%
%ADD14R,1.700000X1.700000*%
%ADD15O,1.700000X1.700000*%
%ADD16C,1.500000*%
%ADD17C,6.400000*%
%ADD18C,1.000000*%
%ADD19C,0.500000*%
%ADD20C,0.254000*%
G04 APERTURE END LIST*
D10*
X168830000Y-118110000D03*
X163830000Y-118110000D03*
X168910000Y-121920000D03*
X163910000Y-121920000D03*
X160020000Y-94060000D03*
X160020000Y-99060000D03*
X160020000Y-115570000D03*
X160020000Y-120570000D03*
X165100000Y-93980000D03*
X165100000Y-98980000D03*
X160020000Y-82550000D03*
X160020000Y-77550000D03*
X163910000Y-80010000D03*
X168910000Y-80010000D03*
X163830000Y-83820000D03*
X168830000Y-83820000D03*
X160020000Y-60880000D03*
X160020000Y-55880000D03*
X165100000Y-60880000D03*
X165100000Y-55880000D03*
D11*
X143510000Y-104140000D03*
X146050000Y-104140000D03*
X148590000Y-104140000D03*
X151130000Y-104140000D03*
X153670000Y-104140000D03*
X156210000Y-104140000D03*
X158750000Y-104140000D03*
X161290000Y-104140000D03*
X163830000Y-104140000D03*
X166370000Y-104140000D03*
X168910000Y-104140000D03*
X171450000Y-104140000D03*
X173990000Y-104140000D03*
X176530000Y-104140000D03*
X176530000Y-111760000D03*
X173990000Y-111760000D03*
X171450000Y-111760000D03*
X168910000Y-111760000D03*
X166370000Y-111760000D03*
X163830000Y-111760000D03*
X161290000Y-111760000D03*
X158750000Y-111760000D03*
X156210000Y-111760000D03*
X153670000Y-111760000D03*
X151130000Y-111760000D03*
X148590000Y-111760000D03*
X146050000Y-111760000D03*
X143510000Y-111760000D03*
X143510000Y-73660000D03*
X146050000Y-73660000D03*
X148590000Y-73660000D03*
X151130000Y-73660000D03*
X153670000Y-73660000D03*
X156210000Y-73660000D03*
X158750000Y-73660000D03*
X161290000Y-73660000D03*
X163830000Y-73660000D03*
X166370000Y-73660000D03*
X168910000Y-73660000D03*
X171450000Y-73660000D03*
X173990000Y-73660000D03*
X176530000Y-73660000D03*
X176530000Y-66040000D03*
X173990000Y-66040000D03*
X171450000Y-66040000D03*
X168910000Y-66040000D03*
X166370000Y-66040000D03*
X163830000Y-66040000D03*
X161290000Y-66040000D03*
X158750000Y-66040000D03*
X156210000Y-66040000D03*
X153670000Y-66040000D03*
X151130000Y-66040000D03*
X148590000Y-66040000D03*
X146050000Y-66040000D03*
X143510000Y-66040000D03*
D12*
X135890000Y-41910000D03*
D13*
X135890000Y-36830000D03*
X135890000Y-31750000D03*
X135890000Y-49530000D03*
X135890000Y-54610000D03*
D12*
X135890000Y-59690000D03*
D14*
X133350000Y-147320000D03*
D15*
X133350000Y-144780000D03*
X133350000Y-142240000D03*
X133350000Y-139700000D03*
X133350000Y-137160000D03*
X133350000Y-134620000D03*
X184150000Y-30480000D03*
X184150000Y-33020000D03*
X184150000Y-35560000D03*
X184150000Y-38100000D03*
X184150000Y-40640000D03*
D14*
X184150000Y-43180000D03*
X161290000Y-29210000D03*
D15*
X158750000Y-29210000D03*
X156210000Y-29210000D03*
X156210000Y-44450000D03*
X158750000Y-44450000D03*
D14*
X161290000Y-44450000D03*
X171450000Y-143510000D03*
D15*
X173990000Y-143510000D03*
X176530000Y-143510000D03*
X179070000Y-143510000D03*
X181610000Y-143510000D03*
X184150000Y-143510000D03*
D16*
X173990000Y-118310000D03*
X173990000Y-123190000D03*
X173990000Y-80010000D03*
X173990000Y-84890000D03*
D14*
X182880000Y-54610000D03*
D15*
X180340000Y-54610000D03*
X177800000Y-54610000D03*
X175260000Y-54610000D03*
X172720000Y-54610000D03*
X170180000Y-54610000D03*
D17*
X158750000Y-36830000D03*
X184150000Y-86360000D03*
X158750000Y-143510000D03*
X137160000Y-85090000D03*
D18*
X162560000Y-120570000D02*
X163910000Y-121920000D01*
X160020000Y-120570000D02*
X162560000Y-120570000D01*
D19*
X166370000Y-119380000D02*
X166370000Y-111760000D01*
X168910000Y-121920000D02*
X166370000Y-119380000D01*
X153670000Y-114300000D02*
X133350000Y-134620000D01*
X153670000Y-111760000D02*
X153670000Y-114300000D01*
X132500001Y-141390001D02*
X133350000Y-142240000D01*
X130649979Y-139539979D02*
X132500001Y-141390001D01*
X130649979Y-113779302D02*
X130649979Y-139539979D01*
X143460122Y-100969170D02*
X130649979Y-113779302D01*
X174019570Y-100969170D02*
X143460122Y-100969170D01*
X176530000Y-103479600D02*
X174019570Y-100969170D01*
X176530000Y-104140000D02*
X176530000Y-103479600D01*
X132500001Y-138850001D02*
X133350000Y-139700000D01*
X131349989Y-114069255D02*
X131349989Y-137699989D01*
X143750064Y-101669180D02*
X131349989Y-114069255D01*
X131349989Y-137699989D02*
X132500001Y-138850001D01*
X172179580Y-101669180D02*
X143750064Y-101669180D01*
X173990000Y-103479600D02*
X172179580Y-101669180D01*
X173990000Y-104140000D02*
X173990000Y-103479600D01*
X132500001Y-136310001D02*
X133350000Y-137160000D01*
X139729206Y-106680000D02*
X132049999Y-114359207D01*
X143200756Y-106680000D02*
X139729206Y-106680000D01*
X132049999Y-114359207D02*
X132049999Y-135859999D01*
X171450000Y-103479600D02*
X170339590Y-102369190D01*
X171450000Y-104140000D02*
X171450000Y-103479600D01*
X132049999Y-135859999D02*
X132500001Y-136310001D01*
X170339590Y-102369190D02*
X145590054Y-102369190D01*
X145590054Y-102369190D02*
X144620410Y-103338834D01*
X144620410Y-103338834D02*
X144620410Y-105260346D01*
X144620410Y-105260346D02*
X143200756Y-106680000D01*
D18*
X135890000Y-41910000D02*
X135890000Y-36830000D01*
X135890000Y-36830000D02*
X135890000Y-31750000D01*
X159739999Y-27659999D02*
X161290000Y-29210000D01*
X139980001Y-27659999D02*
X159739999Y-27659999D01*
X135890000Y-31750000D02*
X139980001Y-27659999D01*
X164300001Y-60080001D02*
X165100000Y-60880000D01*
X163599999Y-59379999D02*
X164300001Y-60080001D01*
X163599999Y-48609999D02*
X163599999Y-59379999D01*
X161290000Y-46300000D02*
X163599999Y-48609999D01*
X161290000Y-44450000D02*
X161290000Y-46300000D01*
X158750000Y-72999600D02*
X158750000Y-73660000D01*
X163830000Y-67919600D02*
X158750000Y-72999600D01*
X163830000Y-66040000D02*
X163830000Y-67919600D01*
X164300001Y-98180001D02*
X165100000Y-98980000D01*
X161520001Y-95400001D02*
X164300001Y-98180001D01*
X160020000Y-77550000D02*
X161520001Y-79050001D01*
X158750000Y-111099600D02*
X158750000Y-111760000D01*
X163830000Y-104140000D02*
X163830000Y-106019600D01*
X163830000Y-106019600D02*
X158750000Y-111099600D01*
X169029998Y-43180000D02*
X184150000Y-43180000D01*
X163599999Y-48609999D02*
X169029998Y-43180000D01*
X135890000Y-44410000D02*
X139700000Y-48220000D01*
X135890000Y-41910000D02*
X135890000Y-44410000D01*
X157665691Y-90400001D02*
X161520001Y-90400001D01*
X139700000Y-72434310D02*
X157665691Y-90400001D01*
X139700000Y-48220000D02*
X139700000Y-72434310D01*
X161520001Y-79050001D02*
X161520001Y-90400001D01*
X161520001Y-90400001D02*
X161520001Y-95400001D01*
D19*
X153670000Y-72999600D02*
X153670000Y-73660000D01*
X154830400Y-43905598D02*
X154830400Y-71839200D01*
X154830400Y-71839200D02*
X153670000Y-72999600D01*
X155585999Y-43149999D02*
X154830400Y-43905598D01*
X157832003Y-43149999D02*
X155585999Y-43149999D01*
X168255998Y-32726004D02*
X157832003Y-43149999D01*
X168255998Y-30480000D02*
X168255998Y-32726004D01*
X184150000Y-30480000D02*
X168255998Y-30480000D01*
X184999999Y-38949999D02*
X184150000Y-38100000D01*
X185450001Y-39400001D02*
X184999999Y-38949999D01*
X185450001Y-56459599D02*
X185450001Y-39400001D01*
X176530000Y-65379600D02*
X185450001Y-56459599D01*
X176530000Y-66040000D02*
X176530000Y-65379600D01*
X184999999Y-36409999D02*
X184150000Y-35560000D01*
X186150011Y-37560011D02*
X184999999Y-36409999D01*
X176989946Y-67810810D02*
X186150011Y-58650745D01*
X173990000Y-66700400D02*
X175100410Y-67810810D01*
X186150011Y-58650745D02*
X186150011Y-37560011D01*
X175100410Y-67810810D02*
X176989946Y-67810810D01*
X173990000Y-66040000D02*
X173990000Y-66700400D01*
X186850021Y-35720021D02*
X184999999Y-33869999D01*
X186850021Y-58940698D02*
X186850021Y-35720021D01*
X177279899Y-68510820D02*
X186850021Y-58940698D01*
X173260420Y-68510820D02*
X177279899Y-68510820D01*
X171450000Y-66700400D02*
X173260420Y-68510820D01*
X184999999Y-33869999D02*
X184150000Y-33020000D01*
X171450000Y-66040000D02*
X171450000Y-66700400D01*
X172961556Y-105960800D02*
X167530400Y-105960800D01*
X185450001Y-118449245D02*
X172961556Y-105960800D01*
X185450001Y-144134001D02*
X185450001Y-118449245D01*
X184774001Y-144810001D02*
X185450001Y-144134001D01*
X166370000Y-104800400D02*
X166370000Y-104140000D01*
X167530400Y-105960800D02*
X166370000Y-104800400D01*
X177830001Y-144810001D02*
X184774001Y-144810001D01*
X176530000Y-143510000D02*
X177830001Y-144810001D01*
X156210000Y-120650000D02*
X156210000Y-111760000D01*
X179070000Y-143510000D02*
X156210000Y-120650000D01*
X175260000Y-55812081D02*
X175260000Y-54610000D01*
X175260000Y-59999244D02*
X175260000Y-55812081D01*
X168910000Y-66349244D02*
X175260000Y-59999244D01*
X168910000Y-66040000D02*
X168910000Y-66349244D01*
X172720000Y-55812081D02*
X172720000Y-54610000D01*
X172720000Y-59029600D02*
X172720000Y-55812081D01*
X166370000Y-65379600D02*
X172720000Y-59029600D01*
X166370000Y-66040000D02*
X166370000Y-65379600D01*
X170180000Y-55812081D02*
X170180000Y-54610000D01*
X170180000Y-57650002D02*
X170180000Y-55812081D01*
X165700001Y-62130001D02*
X170180000Y-57650002D01*
X165509243Y-62130001D02*
X165700001Y-62130001D01*
X162560000Y-65079244D02*
X165509243Y-62130001D01*
X162560000Y-67000756D02*
X162560000Y-65079244D01*
X156210000Y-73350756D02*
X162560000Y-67000756D01*
X156210000Y-73660000D02*
X156210000Y-73350756D01*
D20*
G36*
X189840001Y-151740000D02*
G01*
X127660000Y-151740000D01*
X127660000Y-148170000D01*
X131861928Y-148170000D01*
X131874188Y-148294482D01*
X131910498Y-148414180D01*
X131969463Y-148524494D01*
X132048815Y-148621185D01*
X132145506Y-148700537D01*
X132255820Y-148759502D01*
X132375518Y-148795812D01*
X132500000Y-148808072D01*
X133064250Y-148805000D01*
X133223000Y-148646250D01*
X133223000Y-147447000D01*
X133477000Y-147447000D01*
X133477000Y-148646250D01*
X133635750Y-148805000D01*
X134200000Y-148808072D01*
X134324482Y-148795812D01*
X134444180Y-148759502D01*
X134554494Y-148700537D01*
X134651185Y-148621185D01*
X134730537Y-148524494D01*
X134789502Y-148414180D01*
X134825812Y-148294482D01*
X134838072Y-148170000D01*
X134835000Y-147605750D01*
X134676250Y-147447000D01*
X133477000Y-147447000D01*
X133223000Y-147447000D01*
X132023750Y-147447000D01*
X131865000Y-147605750D01*
X131861928Y-148170000D01*
X127660000Y-148170000D01*
X127660000Y-113779302D01*
X129760698Y-113779302D01*
X129764979Y-113822771D01*
X129764980Y-139496500D01*
X129760698Y-139539979D01*
X129777784Y-139713469D01*
X129828391Y-139880292D01*
X129910569Y-140034038D01*
X129993447Y-140135025D01*
X129993450Y-140135028D01*
X130021163Y-140168796D01*
X130054930Y-140196508D01*
X131879388Y-142020967D01*
X131857815Y-142240000D01*
X131886487Y-142531111D01*
X131971401Y-142811034D01*
X132109294Y-143069014D01*
X132294866Y-143295134D01*
X132520986Y-143480706D01*
X132575791Y-143510000D01*
X132520986Y-143539294D01*
X132294866Y-143724866D01*
X132109294Y-143950986D01*
X131971401Y-144208966D01*
X131886487Y-144488889D01*
X131857815Y-144780000D01*
X131886487Y-145071111D01*
X131971401Y-145351034D01*
X132109294Y-145609014D01*
X132294866Y-145835134D01*
X132324687Y-145859607D01*
X132255820Y-145880498D01*
X132145506Y-145939463D01*
X132048815Y-146018815D01*
X131969463Y-146115506D01*
X131910498Y-146225820D01*
X131874188Y-146345518D01*
X131861928Y-146470000D01*
X131865000Y-147034250D01*
X132023750Y-147193000D01*
X133223000Y-147193000D01*
X133223000Y-147173000D01*
X133477000Y-147173000D01*
X133477000Y-147193000D01*
X134676250Y-147193000D01*
X134835000Y-147034250D01*
X134838072Y-146470000D01*
X134825812Y-146345518D01*
X134789502Y-146225820D01*
X134730537Y-146115506D01*
X134651185Y-146018815D01*
X134554494Y-145939463D01*
X134444180Y-145880498D01*
X134375313Y-145859607D01*
X134405134Y-145835134D01*
X134590706Y-145609014D01*
X134728599Y-145351034D01*
X134813513Y-145071111D01*
X134842185Y-144780000D01*
X134813513Y-144488889D01*
X134728599Y-144208966D01*
X134590706Y-143950986D01*
X134405134Y-143724866D01*
X134179014Y-143539294D01*
X134124209Y-143510000D01*
X134179014Y-143480706D01*
X134405134Y-143295134D01*
X134538780Y-143132285D01*
X154915000Y-143132285D01*
X154915000Y-143887715D01*
X155062377Y-144628628D01*
X155351467Y-145326554D01*
X155771161Y-145954670D01*
X156305330Y-146488839D01*
X156933446Y-146908533D01*
X157631372Y-147197623D01*
X158372285Y-147345000D01*
X159127715Y-147345000D01*
X159868628Y-147197623D01*
X160566554Y-146908533D01*
X161194670Y-146488839D01*
X161728839Y-145954670D01*
X162148533Y-145326554D01*
X162437623Y-144628628D01*
X162585000Y-143887715D01*
X162585000Y-143132285D01*
X162437623Y-142391372D01*
X162148533Y-141693446D01*
X161728839Y-141065330D01*
X161194670Y-140531161D01*
X160566554Y-140111467D01*
X159868628Y-139822377D01*
X159127715Y-139675000D01*
X158372285Y-139675000D01*
X157631372Y-139822377D01*
X156933446Y-140111467D01*
X156305330Y-140531161D01*
X155771161Y-141065330D01*
X155351467Y-141693446D01*
X155062377Y-142391372D01*
X154915000Y-143132285D01*
X134538780Y-143132285D01*
X134590706Y-143069014D01*
X134728599Y-142811034D01*
X134813513Y-142531111D01*
X134842185Y-142240000D01*
X134813513Y-141948889D01*
X134728599Y-141668966D01*
X134590706Y-141410986D01*
X134405134Y-141184866D01*
X134179014Y-140999294D01*
X134124209Y-140970000D01*
X134179014Y-140940706D01*
X134405134Y-140755134D01*
X134590706Y-140529014D01*
X134728599Y-140271034D01*
X134813513Y-139991111D01*
X134842185Y-139700000D01*
X134813513Y-139408889D01*
X134728599Y-139128966D01*
X134590706Y-138870986D01*
X134405134Y-138644866D01*
X134179014Y-138459294D01*
X134124209Y-138430000D01*
X134179014Y-138400706D01*
X134405134Y-138215134D01*
X134590706Y-137989014D01*
X134728599Y-137731034D01*
X134813513Y-137451111D01*
X134842185Y-137160000D01*
X134813513Y-136868889D01*
X134728599Y-136588966D01*
X134590706Y-136330986D01*
X134405134Y-136104866D01*
X134179014Y-135919294D01*
X134124209Y-135890000D01*
X134179014Y-135860706D01*
X134405134Y-135675134D01*
X134590706Y-135449014D01*
X134728599Y-135191034D01*
X134813513Y-134911111D01*
X134842185Y-134620000D01*
X134820612Y-134400966D01*
X154265049Y-114956530D01*
X154298817Y-114928817D01*
X154409411Y-114794059D01*
X154476479Y-114668583D01*
X154491589Y-114640314D01*
X154542195Y-114473490D01*
X154545904Y-114435834D01*
X154555000Y-114343477D01*
X154555000Y-114343469D01*
X154559281Y-114300000D01*
X154555000Y-114256531D01*
X154555000Y-113369885D01*
X154590418Y-113340818D01*
X154752297Y-113143567D01*
X154872583Y-112918526D01*
X154940000Y-112696285D01*
X155007417Y-112918526D01*
X155127704Y-113143567D01*
X155289583Y-113340818D01*
X155325001Y-113369885D01*
X155325000Y-120606531D01*
X155320719Y-120650000D01*
X155325000Y-120693469D01*
X155325000Y-120693476D01*
X155337805Y-120823489D01*
X155388411Y-120990312D01*
X155470589Y-121144058D01*
X155581183Y-121278817D01*
X155614956Y-121306534D01*
X176344506Y-142036085D01*
X176238889Y-142046487D01*
X175958966Y-142131401D01*
X175700986Y-142269294D01*
X175474866Y-142454866D01*
X175289294Y-142680986D01*
X175260000Y-142735791D01*
X175230706Y-142680986D01*
X175045134Y-142454866D01*
X174819014Y-142269294D01*
X174561034Y-142131401D01*
X174281111Y-142046487D01*
X174062950Y-142025000D01*
X173917050Y-142025000D01*
X173698889Y-142046487D01*
X173418966Y-142131401D01*
X173160986Y-142269294D01*
X172934866Y-142454866D01*
X172910393Y-142484687D01*
X172889502Y-142415820D01*
X172830537Y-142305506D01*
X172751185Y-142208815D01*
X172654494Y-142129463D01*
X172544180Y-142070498D01*
X172424482Y-142034188D01*
X172300000Y-142021928D01*
X170600000Y-142021928D01*
X170475518Y-142034188D01*
X170355820Y-142070498D01*
X170245506Y-142129463D01*
X170148815Y-142208815D01*
X170069463Y-142305506D01*
X170010498Y-142415820D01*
X169974188Y-142535518D01*
X169961928Y-142660000D01*
X169961928Y-144360000D01*
X169974188Y-144484482D01*
X170010498Y-144604180D01*
X170069463Y-144714494D01*
X170148815Y-144811185D01*
X170245506Y-144890537D01*
X170355820Y-144949502D01*
X170475518Y-144985812D01*
X170600000Y-144998072D01*
X172300000Y-144998072D01*
X172424482Y-144985812D01*
X172544180Y-144949502D01*
X172654494Y-144890537D01*
X172751185Y-144811185D01*
X172830537Y-144714494D01*
X172889502Y-144604180D01*
X172910393Y-144535313D01*
X172934866Y-144565134D01*
X173160986Y-144750706D01*
X173418966Y-144888599D01*
X173698889Y-144973513D01*
X173917050Y-144995000D01*
X174062950Y-144995000D01*
X174281111Y-144973513D01*
X174561034Y-144888599D01*
X174819014Y-144750706D01*
X175045134Y-144565134D01*
X175230706Y-144339014D01*
X175260000Y-144284209D01*
X175289294Y-144339014D01*
X175474866Y-144565134D01*
X175700986Y-144750706D01*
X175958966Y-144888599D01*
X176238889Y-144973513D01*
X176457050Y-144995000D01*
X176602950Y-144995000D01*
X176749033Y-144980612D01*
X177173471Y-145405050D01*
X177201184Y-145438818D01*
X177234952Y-145466531D01*
X177234954Y-145466533D01*
X177306453Y-145525211D01*
X177335942Y-145549412D01*
X177489688Y-145631590D01*
X177656511Y-145682196D01*
X177786524Y-145695001D01*
X177786534Y-145695001D01*
X177830000Y-145699282D01*
X177873467Y-145695001D01*
X184730532Y-145695001D01*
X184774001Y-145699282D01*
X184817470Y-145695001D01*
X184817478Y-145695001D01*
X184947491Y-145682196D01*
X185114314Y-145631590D01*
X185268060Y-145549412D01*
X185402818Y-145438818D01*
X185430535Y-145405045D01*
X186045051Y-144790530D01*
X186078818Y-144762818D01*
X186189412Y-144628060D01*
X186271590Y-144474314D01*
X186322196Y-144307491D01*
X186335001Y-144177478D01*
X186335001Y-144177468D01*
X186339282Y-144134002D01*
X186335001Y-144090536D01*
X186335001Y-118492710D01*
X186339282Y-118449244D01*
X186335001Y-118405778D01*
X186335001Y-118405768D01*
X186322196Y-118275755D01*
X186271590Y-118108932D01*
X186189412Y-117955186D01*
X186078818Y-117820428D01*
X186045050Y-117792715D01*
X174309503Y-106057168D01*
X174488126Y-106002983D01*
X174713167Y-105882697D01*
X174910418Y-105720818D01*
X175072297Y-105523567D01*
X175192583Y-105298526D01*
X175260000Y-105076285D01*
X175327417Y-105298526D01*
X175447704Y-105523567D01*
X175609583Y-105720818D01*
X175806834Y-105882697D01*
X176031875Y-106002983D01*
X176276058Y-106077056D01*
X176530000Y-106102067D01*
X176783943Y-106077056D01*
X177028126Y-106002983D01*
X177253167Y-105882697D01*
X177450418Y-105720818D01*
X177612297Y-105523567D01*
X177732583Y-105298526D01*
X177806656Y-105054343D01*
X177825400Y-104864030D01*
X177825400Y-103415970D01*
X177806656Y-103225657D01*
X177732583Y-102981474D01*
X177612297Y-102756433D01*
X177450418Y-102559182D01*
X177253166Y-102397303D01*
X177028125Y-102277017D01*
X176783942Y-102202944D01*
X176530000Y-102177933D01*
X176484403Y-102182424D01*
X174676104Y-100374126D01*
X174648387Y-100340353D01*
X174513629Y-100229759D01*
X174359883Y-100147581D01*
X174193060Y-100096975D01*
X174063047Y-100084170D01*
X174063039Y-100084170D01*
X174019570Y-100079889D01*
X173976101Y-100084170D01*
X165880391Y-100084170D01*
X165913097Y-99972702D01*
X165100000Y-99159605D01*
X164286903Y-99972702D01*
X164319609Y-100084170D01*
X161025226Y-100084170D01*
X161134637Y-99974759D01*
X161291680Y-99739727D01*
X161399853Y-99478574D01*
X161455000Y-99201335D01*
X161455000Y-99050512D01*
X163659783Y-99050512D01*
X163701213Y-99330130D01*
X163796397Y-99596292D01*
X163863329Y-99721514D01*
X164107298Y-99793097D01*
X164920395Y-98980000D01*
X165279605Y-98980000D01*
X166092702Y-99793097D01*
X166336671Y-99721514D01*
X166457571Y-99466004D01*
X166526300Y-99191816D01*
X166540217Y-98909488D01*
X166498787Y-98629870D01*
X166403603Y-98363708D01*
X166336671Y-98238486D01*
X166092702Y-98166903D01*
X165279605Y-98980000D01*
X164920395Y-98980000D01*
X164107298Y-98166903D01*
X163863329Y-98238486D01*
X163742429Y-98493996D01*
X163673700Y-98768184D01*
X163659783Y-99050512D01*
X161455000Y-99050512D01*
X161455000Y-98918665D01*
X161399853Y-98641426D01*
X161291680Y-98380273D01*
X161134637Y-98145241D01*
X160976694Y-97987298D01*
X164286903Y-97987298D01*
X165100000Y-98800395D01*
X165913097Y-97987298D01*
X165841514Y-97743329D01*
X165586004Y-97622429D01*
X165311816Y-97553700D01*
X165029488Y-97539783D01*
X164749870Y-97581213D01*
X164483708Y-97676397D01*
X164358486Y-97743329D01*
X164286903Y-97987298D01*
X160976694Y-97987298D01*
X160934759Y-97945363D01*
X160699727Y-97788320D01*
X160438574Y-97680147D01*
X160161335Y-97625000D01*
X159878665Y-97625000D01*
X159601426Y-97680147D01*
X159340273Y-97788320D01*
X159105241Y-97945363D01*
X158905363Y-98145241D01*
X158748320Y-98380273D01*
X158640147Y-98641426D01*
X158585000Y-98918665D01*
X158585000Y-99201335D01*
X158640147Y-99478574D01*
X158748320Y-99739727D01*
X158905363Y-99974759D01*
X159014774Y-100084170D01*
X143503588Y-100084170D01*
X143460122Y-100079889D01*
X143416656Y-100084170D01*
X143416645Y-100084170D01*
X143286632Y-100096975D01*
X143119809Y-100147581D01*
X142990549Y-100216671D01*
X142966063Y-100229759D01*
X142865075Y-100312638D01*
X142865073Y-100312640D01*
X142831305Y-100340353D01*
X142803593Y-100374120D01*
X130054935Y-113122768D01*
X130021162Y-113150485D01*
X129910568Y-113285244D01*
X129828390Y-113438990D01*
X129777784Y-113605813D01*
X129764979Y-113735826D01*
X129764979Y-113735836D01*
X129760698Y-113779302D01*
X127660000Y-113779302D01*
X127660000Y-93918665D01*
X158585000Y-93918665D01*
X158585000Y-94201335D01*
X158640147Y-94478574D01*
X158748320Y-94739727D01*
X158905363Y-94974759D01*
X159105241Y-95174637D01*
X159340273Y-95331680D01*
X159601426Y-95439853D01*
X159878665Y-95495000D01*
X160161335Y-95495000D01*
X160438574Y-95439853D01*
X160699727Y-95331680D01*
X160934759Y-95174637D01*
X161134637Y-94974759D01*
X161291680Y-94739727D01*
X161399853Y-94478574D01*
X161455000Y-94201335D01*
X161455000Y-93918665D01*
X161439087Y-93838665D01*
X163665000Y-93838665D01*
X163665000Y-94121335D01*
X163720147Y-94398574D01*
X163828320Y-94659727D01*
X163985363Y-94894759D01*
X164185241Y-95094637D01*
X164420273Y-95251680D01*
X164681426Y-95359853D01*
X164958665Y-95415000D01*
X165241335Y-95415000D01*
X165518574Y-95359853D01*
X165779727Y-95251680D01*
X166014759Y-95094637D01*
X166214637Y-94894759D01*
X166371680Y-94659727D01*
X166479853Y-94398574D01*
X166535000Y-94121335D01*
X166535000Y-93838665D01*
X166479853Y-93561426D01*
X166371680Y-93300273D01*
X166214637Y-93065241D01*
X166014759Y-92865363D01*
X165779727Y-92708320D01*
X165518574Y-92600147D01*
X165241335Y-92545000D01*
X164958665Y-92545000D01*
X164681426Y-92600147D01*
X164420273Y-92708320D01*
X164185241Y-92865363D01*
X163985363Y-93065241D01*
X163828320Y-93300273D01*
X163720147Y-93561426D01*
X163665000Y-93838665D01*
X161439087Y-93838665D01*
X161399853Y-93641426D01*
X161291680Y-93380273D01*
X161134637Y-93145241D01*
X160934759Y-92945363D01*
X160699727Y-92788320D01*
X160438574Y-92680147D01*
X160161335Y-92625000D01*
X159878665Y-92625000D01*
X159601426Y-92680147D01*
X159340273Y-92788320D01*
X159105241Y-92945363D01*
X158905363Y-93145241D01*
X158748320Y-93380273D01*
X158640147Y-93641426D01*
X158585000Y-93918665D01*
X127660000Y-93918665D01*
X127660000Y-84712285D01*
X133325000Y-84712285D01*
X133325000Y-85467715D01*
X133472377Y-86208628D01*
X133761467Y-86906554D01*
X134181161Y-87534670D01*
X134715330Y-88068839D01*
X135343446Y-88488533D01*
X136041372Y-88777623D01*
X136782285Y-88925000D01*
X137537715Y-88925000D01*
X138278628Y-88777623D01*
X138976554Y-88488533D01*
X139604670Y-88068839D01*
X140138839Y-87534670D01*
X140558533Y-86906554D01*
X140847623Y-86208628D01*
X140995000Y-85467715D01*
X140995000Y-84712285D01*
X140847623Y-83971372D01*
X140558533Y-83273446D01*
X140138839Y-82645330D01*
X139902174Y-82408665D01*
X158585000Y-82408665D01*
X158585000Y-82691335D01*
X158640147Y-82968574D01*
X158748320Y-83229727D01*
X158905363Y-83464759D01*
X159105241Y-83664637D01*
X159340273Y-83821680D01*
X159601426Y-83929853D01*
X159878665Y-83985000D01*
X160161335Y-83985000D01*
X160438574Y-83929853D01*
X160699727Y-83821680D01*
X160913764Y-83678665D01*
X162395000Y-83678665D01*
X162395000Y-83961335D01*
X162450147Y-84238574D01*
X162558320Y-84499727D01*
X162715363Y-84734759D01*
X162915241Y-84934637D01*
X163150273Y-85091680D01*
X163411426Y-85199853D01*
X163688665Y-85255000D01*
X163971335Y-85255000D01*
X164248574Y-85199853D01*
X164509727Y-85091680D01*
X164744759Y-84934637D01*
X164944637Y-84734759D01*
X165101680Y-84499727D01*
X165209853Y-84238574D01*
X165265000Y-83961335D01*
X165265000Y-83678665D01*
X167395000Y-83678665D01*
X167395000Y-83961335D01*
X167450147Y-84238574D01*
X167558320Y-84499727D01*
X167715363Y-84734759D01*
X167915241Y-84934637D01*
X168150273Y-85091680D01*
X168411426Y-85199853D01*
X168688665Y-85255000D01*
X168971335Y-85255000D01*
X169248574Y-85199853D01*
X169509727Y-85091680D01*
X169744759Y-84934637D01*
X169925807Y-84753589D01*
X172605000Y-84753589D01*
X172605000Y-85026411D01*
X172658225Y-85293989D01*
X172762629Y-85546043D01*
X172914201Y-85772886D01*
X173107114Y-85965799D01*
X173333957Y-86117371D01*
X173586011Y-86221775D01*
X173853589Y-86275000D01*
X174126411Y-86275000D01*
X174393989Y-86221775D01*
X174646043Y-86117371D01*
X174848213Y-85982285D01*
X180315000Y-85982285D01*
X180315000Y-86737715D01*
X180462377Y-87478628D01*
X180751467Y-88176554D01*
X181171161Y-88804670D01*
X181705330Y-89338839D01*
X182333446Y-89758533D01*
X183031372Y-90047623D01*
X183772285Y-90195000D01*
X184527715Y-90195000D01*
X185268628Y-90047623D01*
X185966554Y-89758533D01*
X186594670Y-89338839D01*
X187128839Y-88804670D01*
X187548533Y-88176554D01*
X187837623Y-87478628D01*
X187985000Y-86737715D01*
X187985000Y-85982285D01*
X187837623Y-85241372D01*
X187548533Y-84543446D01*
X187128839Y-83915330D01*
X186594670Y-83381161D01*
X185966554Y-82961467D01*
X185268628Y-82672377D01*
X184527715Y-82525000D01*
X183772285Y-82525000D01*
X183031372Y-82672377D01*
X182333446Y-82961467D01*
X181705330Y-83381161D01*
X181171161Y-83915330D01*
X180751467Y-84543446D01*
X180462377Y-85241372D01*
X180315000Y-85982285D01*
X174848213Y-85982285D01*
X174872886Y-85965799D01*
X175065799Y-85772886D01*
X175217371Y-85546043D01*
X175321775Y-85293989D01*
X175375000Y-85026411D01*
X175375000Y-84753589D01*
X175321775Y-84486011D01*
X175217371Y-84233957D01*
X175065799Y-84007114D01*
X174872886Y-83814201D01*
X174646043Y-83662629D01*
X174393989Y-83558225D01*
X174126411Y-83505000D01*
X173853589Y-83505000D01*
X173586011Y-83558225D01*
X173333957Y-83662629D01*
X173107114Y-83814201D01*
X172914201Y-84007114D01*
X172762629Y-84233957D01*
X172658225Y-84486011D01*
X172605000Y-84753589D01*
X169925807Y-84753589D01*
X169944637Y-84734759D01*
X170101680Y-84499727D01*
X170209853Y-84238574D01*
X170265000Y-83961335D01*
X170265000Y-83678665D01*
X170209853Y-83401426D01*
X170101680Y-83140273D01*
X169944637Y-82905241D01*
X169744759Y-82705363D01*
X169509727Y-82548320D01*
X169248574Y-82440147D01*
X168971335Y-82385000D01*
X168688665Y-82385000D01*
X168411426Y-82440147D01*
X168150273Y-82548320D01*
X167915241Y-82705363D01*
X167715363Y-82905241D01*
X167558320Y-83140273D01*
X167450147Y-83401426D01*
X167395000Y-83678665D01*
X165265000Y-83678665D01*
X165209853Y-83401426D01*
X165101680Y-83140273D01*
X164944637Y-82905241D01*
X164744759Y-82705363D01*
X164509727Y-82548320D01*
X164248574Y-82440147D01*
X163971335Y-82385000D01*
X163688665Y-82385000D01*
X163411426Y-82440147D01*
X163150273Y-82548320D01*
X162915241Y-82705363D01*
X162715363Y-82905241D01*
X162558320Y-83140273D01*
X162450147Y-83401426D01*
X162395000Y-83678665D01*
X160913764Y-83678665D01*
X160934759Y-83664637D01*
X161134637Y-83464759D01*
X161291680Y-83229727D01*
X161399853Y-82968574D01*
X161455000Y-82691335D01*
X161455000Y-82408665D01*
X161399853Y-82131426D01*
X161291680Y-81870273D01*
X161134637Y-81635241D01*
X160934759Y-81435363D01*
X160699727Y-81278320D01*
X160438574Y-81170147D01*
X160161335Y-81115000D01*
X159878665Y-81115000D01*
X159601426Y-81170147D01*
X159340273Y-81278320D01*
X159105241Y-81435363D01*
X158905363Y-81635241D01*
X158748320Y-81870273D01*
X158640147Y-82131426D01*
X158585000Y-82408665D01*
X139902174Y-82408665D01*
X139604670Y-82111161D01*
X138976554Y-81691467D01*
X138278628Y-81402377D01*
X137537715Y-81255000D01*
X136782285Y-81255000D01*
X136041372Y-81402377D01*
X135343446Y-81691467D01*
X134715330Y-82111161D01*
X134181161Y-82645330D01*
X133761467Y-83273446D01*
X133472377Y-83971372D01*
X133325000Y-84712285D01*
X127660000Y-84712285D01*
X127660000Y-79868665D01*
X162475000Y-79868665D01*
X162475000Y-80151335D01*
X162530147Y-80428574D01*
X162638320Y-80689727D01*
X162795363Y-80924759D01*
X162995241Y-81124637D01*
X163230273Y-81281680D01*
X163491426Y-81389853D01*
X163768665Y-81445000D01*
X164051335Y-81445000D01*
X164328574Y-81389853D01*
X164589727Y-81281680D01*
X164824759Y-81124637D01*
X165024637Y-80924759D01*
X165181680Y-80689727D01*
X165289853Y-80428574D01*
X165345000Y-80151335D01*
X165345000Y-79868665D01*
X167475000Y-79868665D01*
X167475000Y-80151335D01*
X167530147Y-80428574D01*
X167638320Y-80689727D01*
X167795363Y-80924759D01*
X167995241Y-81124637D01*
X168230273Y-81281680D01*
X168491426Y-81389853D01*
X168768665Y-81445000D01*
X169051335Y-81445000D01*
X169328574Y-81389853D01*
X169589727Y-81281680D01*
X169824759Y-81124637D01*
X170024637Y-80924759D01*
X170181680Y-80689727D01*
X170289853Y-80428574D01*
X170345000Y-80151335D01*
X170345000Y-79873589D01*
X172605000Y-79873589D01*
X172605000Y-80146411D01*
X172658225Y-80413989D01*
X172762629Y-80666043D01*
X172914201Y-80892886D01*
X173107114Y-81085799D01*
X173333957Y-81237371D01*
X173586011Y-81341775D01*
X173853589Y-81395000D01*
X174126411Y-81395000D01*
X174393989Y-81341775D01*
X174646043Y-81237371D01*
X174872886Y-81085799D01*
X175065799Y-80892886D01*
X175217371Y-80666043D01*
X175321775Y-80413989D01*
X175375000Y-80146411D01*
X175375000Y-79873589D01*
X175321775Y-79606011D01*
X175217371Y-79353957D01*
X175065799Y-79127114D01*
X174872886Y-78934201D01*
X174646043Y-78782629D01*
X174393989Y-78678225D01*
X174126411Y-78625000D01*
X173853589Y-78625000D01*
X173586011Y-78678225D01*
X173333957Y-78782629D01*
X173107114Y-78934201D01*
X172914201Y-79127114D01*
X172762629Y-79353957D01*
X172658225Y-79606011D01*
X172605000Y-79873589D01*
X170345000Y-79873589D01*
X170345000Y-79868665D01*
X170289853Y-79591426D01*
X170181680Y-79330273D01*
X170024637Y-79095241D01*
X169824759Y-78895363D01*
X169589727Y-78738320D01*
X169328574Y-78630147D01*
X169051335Y-78575000D01*
X168768665Y-78575000D01*
X168491426Y-78630147D01*
X168230273Y-78738320D01*
X167995241Y-78895363D01*
X167795363Y-79095241D01*
X167638320Y-79330273D01*
X167530147Y-79591426D01*
X167475000Y-79868665D01*
X165345000Y-79868665D01*
X165289853Y-79591426D01*
X165181680Y-79330273D01*
X165024637Y-79095241D01*
X164824759Y-78895363D01*
X164589727Y-78738320D01*
X164328574Y-78630147D01*
X164051335Y-78575000D01*
X163768665Y-78575000D01*
X163491426Y-78630147D01*
X163230273Y-78738320D01*
X162995241Y-78895363D01*
X162795363Y-79095241D01*
X162638320Y-79330273D01*
X162530147Y-79591426D01*
X162475000Y-79868665D01*
X127660000Y-79868665D01*
X127660000Y-78542702D01*
X159206903Y-78542702D01*
X159278486Y-78786671D01*
X159533996Y-78907571D01*
X159808184Y-78976300D01*
X160090512Y-78990217D01*
X160370130Y-78948787D01*
X160636292Y-78853603D01*
X160761514Y-78786671D01*
X160833097Y-78542702D01*
X160020000Y-77729605D01*
X159206903Y-78542702D01*
X127660000Y-78542702D01*
X127660000Y-77620512D01*
X158579783Y-77620512D01*
X158621213Y-77900130D01*
X158716397Y-78166292D01*
X158783329Y-78291514D01*
X159027298Y-78363097D01*
X159840395Y-77550000D01*
X160199605Y-77550000D01*
X161012702Y-78363097D01*
X161256671Y-78291514D01*
X161377571Y-78036004D01*
X161446300Y-77761816D01*
X161460217Y-77479488D01*
X161418787Y-77199870D01*
X161323603Y-76933708D01*
X161256671Y-76808486D01*
X161012702Y-76736903D01*
X160199605Y-77550000D01*
X159840395Y-77550000D01*
X159027298Y-76736903D01*
X158783329Y-76808486D01*
X158662429Y-77063996D01*
X158593700Y-77338184D01*
X158579783Y-77620512D01*
X127660000Y-77620512D01*
X127660000Y-76557298D01*
X159206903Y-76557298D01*
X160020000Y-77370395D01*
X160833097Y-76557298D01*
X160761514Y-76313329D01*
X160506004Y-76192429D01*
X160231816Y-76123700D01*
X159949488Y-76109783D01*
X159669870Y-76151213D01*
X159403708Y-76246397D01*
X159278486Y-76313329D01*
X159206903Y-76557298D01*
X127660000Y-76557298D01*
X127660000Y-65315971D01*
X142214600Y-65315971D01*
X142214600Y-66764030D01*
X142233344Y-66954343D01*
X142307417Y-67198526D01*
X142427704Y-67423567D01*
X142589583Y-67620818D01*
X142786834Y-67782697D01*
X143011875Y-67902983D01*
X143256058Y-67977056D01*
X143510000Y-68002067D01*
X143763943Y-67977056D01*
X144008126Y-67902983D01*
X144233167Y-67782697D01*
X144430418Y-67620818D01*
X144592297Y-67423567D01*
X144712583Y-67198526D01*
X144780000Y-66976285D01*
X144847417Y-67198526D01*
X144967704Y-67423567D01*
X145129583Y-67620818D01*
X145326834Y-67782697D01*
X145551875Y-67902983D01*
X145796058Y-67977056D01*
X146050000Y-68002067D01*
X146303943Y-67977056D01*
X146548126Y-67902983D01*
X146773167Y-67782697D01*
X146970418Y-67620818D01*
X147132297Y-67423567D01*
X147252583Y-67198526D01*
X147320000Y-66976285D01*
X147387417Y-67198526D01*
X147507704Y-67423567D01*
X147669583Y-67620818D01*
X147866834Y-67782697D01*
X148091875Y-67902983D01*
X148336058Y-67977056D01*
X148590000Y-68002067D01*
X148843943Y-67977056D01*
X149088126Y-67902983D01*
X149313167Y-67782697D01*
X149510418Y-67620818D01*
X149672297Y-67423567D01*
X149792583Y-67198526D01*
X149860000Y-66976285D01*
X149927417Y-67198526D01*
X150047704Y-67423567D01*
X150209583Y-67620818D01*
X150406834Y-67782697D01*
X150631875Y-67902983D01*
X150876058Y-67977056D01*
X151130000Y-68002067D01*
X151383943Y-67977056D01*
X151628126Y-67902983D01*
X151853167Y-67782697D01*
X152050418Y-67620818D01*
X152212297Y-67423567D01*
X152332583Y-67198526D01*
X152400000Y-66976285D01*
X152467417Y-67198526D01*
X152587704Y-67423567D01*
X152749583Y-67620818D01*
X152946834Y-67782697D01*
X153171875Y-67902983D01*
X153416058Y-67977056D01*
X153670000Y-68002067D01*
X153923943Y-67977056D01*
X153945401Y-67970547D01*
X153945401Y-71472620D01*
X153715597Y-71702424D01*
X153670000Y-71697933D01*
X153416057Y-71722944D01*
X153171874Y-71797017D01*
X152946833Y-71917303D01*
X152749582Y-72079182D01*
X152587703Y-72276434D01*
X152467417Y-72501475D01*
X152400000Y-72723716D01*
X152332583Y-72501474D01*
X152212297Y-72276433D01*
X152050418Y-72079182D01*
X151853166Y-71917303D01*
X151628125Y-71797017D01*
X151383942Y-71722944D01*
X151130000Y-71697933D01*
X150876057Y-71722944D01*
X150631874Y-71797017D01*
X150406833Y-71917303D01*
X150209582Y-72079182D01*
X150047703Y-72276434D01*
X149927417Y-72501475D01*
X149860000Y-72723716D01*
X149792583Y-72501474D01*
X149672297Y-72276433D01*
X149510418Y-72079182D01*
X149313166Y-71917303D01*
X149088125Y-71797017D01*
X148843942Y-71722944D01*
X148590000Y-71697933D01*
X148336057Y-71722944D01*
X148091874Y-71797017D01*
X147866833Y-71917303D01*
X147669582Y-72079182D01*
X147507703Y-72276434D01*
X147387417Y-72501475D01*
X147320000Y-72723716D01*
X147252583Y-72501474D01*
X147132297Y-72276433D01*
X146970418Y-72079182D01*
X146773166Y-71917303D01*
X146548125Y-71797017D01*
X146303942Y-71722944D01*
X146050000Y-71697933D01*
X145796057Y-71722944D01*
X145551874Y-71797017D01*
X145326833Y-71917303D01*
X145129582Y-72079182D01*
X144967703Y-72276434D01*
X144847417Y-72501475D01*
X144780000Y-72723716D01*
X144712583Y-72501474D01*
X144592297Y-72276433D01*
X144430418Y-72079182D01*
X144233166Y-71917303D01*
X144008125Y-71797017D01*
X143763942Y-71722944D01*
X143510000Y-71697933D01*
X143256057Y-71722944D01*
X143011874Y-71797017D01*
X142786833Y-71917303D01*
X142589582Y-72079182D01*
X142427703Y-72276434D01*
X142307417Y-72501475D01*
X142233344Y-72745658D01*
X142214600Y-72935971D01*
X142214600Y-74384030D01*
X142233344Y-74574343D01*
X142307417Y-74818526D01*
X142427704Y-75043567D01*
X142589583Y-75240818D01*
X142786834Y-75402697D01*
X143011875Y-75522983D01*
X143256058Y-75597056D01*
X143510000Y-75622067D01*
X143763943Y-75597056D01*
X144008126Y-75522983D01*
X144233167Y-75402697D01*
X144430418Y-75240818D01*
X144592297Y-75043567D01*
X144712583Y-74818526D01*
X144780000Y-74596285D01*
X144847417Y-74818526D01*
X144967704Y-75043567D01*
X145129583Y-75240818D01*
X145326834Y-75402697D01*
X145551875Y-75522983D01*
X145796058Y-75597056D01*
X146050000Y-75622067D01*
X146303943Y-75597056D01*
X146548126Y-75522983D01*
X146773167Y-75402697D01*
X146970418Y-75240818D01*
X147132297Y-75043567D01*
X147252583Y-74818526D01*
X147320000Y-74596285D01*
X147387417Y-74818526D01*
X147507704Y-75043567D01*
X147669583Y-75240818D01*
X147866834Y-75402697D01*
X148091875Y-75522983D01*
X148336058Y-75597056D01*
X148590000Y-75622067D01*
X148843943Y-75597056D01*
X149088126Y-75522983D01*
X149313167Y-75402697D01*
X149510418Y-75240818D01*
X149672297Y-75043567D01*
X149792583Y-74818526D01*
X149860000Y-74596285D01*
X149927417Y-74818526D01*
X150047704Y-75043567D01*
X150209583Y-75240818D01*
X150406834Y-75402697D01*
X150631875Y-75522983D01*
X150876058Y-75597056D01*
X151130000Y-75622067D01*
X151383943Y-75597056D01*
X151628126Y-75522983D01*
X151853167Y-75402697D01*
X152050418Y-75240818D01*
X152212297Y-75043567D01*
X152332583Y-74818526D01*
X152400000Y-74596285D01*
X152467417Y-74818526D01*
X152587704Y-75043567D01*
X152749583Y-75240818D01*
X152946834Y-75402697D01*
X153171875Y-75522983D01*
X153416058Y-75597056D01*
X153670000Y-75622067D01*
X153923943Y-75597056D01*
X154168126Y-75522983D01*
X154393167Y-75402697D01*
X154590418Y-75240818D01*
X154752297Y-75043567D01*
X154872583Y-74818526D01*
X154940000Y-74596285D01*
X155007417Y-74818526D01*
X155127704Y-75043567D01*
X155289583Y-75240818D01*
X155486834Y-75402697D01*
X155711875Y-75522983D01*
X155956058Y-75597056D01*
X156210000Y-75622067D01*
X156463943Y-75597056D01*
X156708126Y-75522983D01*
X156933167Y-75402697D01*
X157130418Y-75240818D01*
X157292297Y-75043567D01*
X157412583Y-74818526D01*
X157482506Y-74588023D01*
X157504267Y-74697680D01*
X157601807Y-74933461D01*
X157743471Y-75145683D01*
X157923816Y-75326189D01*
X158135911Y-75468044D01*
X158371605Y-75565795D01*
X158422895Y-75573820D01*
X158623000Y-75449933D01*
X158623000Y-73787000D01*
X158603000Y-73787000D01*
X158603000Y-73533000D01*
X158623000Y-73533000D01*
X158623000Y-73513000D01*
X158877000Y-73513000D01*
X158877000Y-73533000D01*
X158897000Y-73533000D01*
X158897000Y-73787000D01*
X158877000Y-73787000D01*
X158877000Y-75449933D01*
X159077105Y-75573820D01*
X159128395Y-75565795D01*
X159364089Y-75468044D01*
X159576184Y-75326189D01*
X159756529Y-75145683D01*
X159898193Y-74933461D01*
X159995733Y-74697680D01*
X160017494Y-74588023D01*
X160087417Y-74818526D01*
X160207704Y-75043567D01*
X160369583Y-75240818D01*
X160566834Y-75402697D01*
X160791875Y-75522983D01*
X161036058Y-75597056D01*
X161290000Y-75622067D01*
X161543943Y-75597056D01*
X161788126Y-75522983D01*
X162013167Y-75402697D01*
X162210418Y-75240818D01*
X162372297Y-75043567D01*
X162492583Y-74818526D01*
X162560000Y-74596285D01*
X162627417Y-74818526D01*
X162747704Y-75043567D01*
X162909583Y-75240818D01*
X163106834Y-75402697D01*
X163331875Y-75522983D01*
X163576058Y-75597056D01*
X163830000Y-75622067D01*
X164083943Y-75597056D01*
X164328126Y-75522983D01*
X164553167Y-75402697D01*
X164750418Y-75240818D01*
X164912297Y-75043567D01*
X165032583Y-74818526D01*
X165100000Y-74596285D01*
X165167417Y-74818526D01*
X165287704Y-75043567D01*
X165449583Y-75240818D01*
X165646834Y-75402697D01*
X165871875Y-75522983D01*
X166116058Y-75597056D01*
X166370000Y-75622067D01*
X166623943Y-75597056D01*
X166868126Y-75522983D01*
X167093167Y-75402697D01*
X167290418Y-75240818D01*
X167452297Y-75043567D01*
X167572583Y-74818526D01*
X167640000Y-74596285D01*
X167707417Y-74818526D01*
X167827704Y-75043567D01*
X167989583Y-75240818D01*
X168186834Y-75402697D01*
X168411875Y-75522983D01*
X168656058Y-75597056D01*
X168910000Y-75622067D01*
X169163943Y-75597056D01*
X169408126Y-75522983D01*
X169633167Y-75402697D01*
X169830418Y-75240818D01*
X169992297Y-75043567D01*
X170112583Y-74818526D01*
X170180000Y-74596285D01*
X170247417Y-74818526D01*
X170367704Y-75043567D01*
X170529583Y-75240818D01*
X170726834Y-75402697D01*
X170951875Y-75522983D01*
X171196058Y-75597056D01*
X171450000Y-75622067D01*
X171703943Y-75597056D01*
X171948126Y-75522983D01*
X172173167Y-75402697D01*
X172370418Y-75240818D01*
X172532297Y-75043567D01*
X172652583Y-74818526D01*
X172720000Y-74596285D01*
X172787417Y-74818526D01*
X172907704Y-75043567D01*
X173069583Y-75240818D01*
X173266834Y-75402697D01*
X173491875Y-75522983D01*
X173736058Y-75597056D01*
X173990000Y-75622067D01*
X174243943Y-75597056D01*
X174488126Y-75522983D01*
X174713167Y-75402697D01*
X174910418Y-75240818D01*
X175072297Y-75043567D01*
X175192583Y-74818526D01*
X175260000Y-74596285D01*
X175327417Y-74818526D01*
X175447704Y-75043567D01*
X175609583Y-75240818D01*
X175806834Y-75402697D01*
X176031875Y-75522983D01*
X176276058Y-75597056D01*
X176530000Y-75622067D01*
X176783943Y-75597056D01*
X177028126Y-75522983D01*
X177253167Y-75402697D01*
X177450418Y-75240818D01*
X177612297Y-75043567D01*
X177732583Y-74818526D01*
X177806656Y-74574343D01*
X177825400Y-74384030D01*
X177825400Y-72935970D01*
X177806656Y-72745657D01*
X177732583Y-72501474D01*
X177612297Y-72276433D01*
X177450418Y-72079182D01*
X177253166Y-71917303D01*
X177028125Y-71797017D01*
X176783942Y-71722944D01*
X176530000Y-71697933D01*
X176276057Y-71722944D01*
X176031874Y-71797017D01*
X175806833Y-71917303D01*
X175609582Y-72079182D01*
X175447703Y-72276434D01*
X175327417Y-72501475D01*
X175260000Y-72723716D01*
X175192583Y-72501474D01*
X175072297Y-72276433D01*
X174910418Y-72079182D01*
X174713166Y-71917303D01*
X174488125Y-71797017D01*
X174243942Y-71722944D01*
X173990000Y-71697933D01*
X173736057Y-71722944D01*
X173491874Y-71797017D01*
X173266833Y-71917303D01*
X173069582Y-72079182D01*
X172907703Y-72276434D01*
X172787417Y-72501475D01*
X172720000Y-72723716D01*
X172652583Y-72501474D01*
X172532297Y-72276433D01*
X172370418Y-72079182D01*
X172173166Y-71917303D01*
X171948125Y-71797017D01*
X171703942Y-71722944D01*
X171450000Y-71697933D01*
X171196057Y-71722944D01*
X170951874Y-71797017D01*
X170726833Y-71917303D01*
X170529582Y-72079182D01*
X170367703Y-72276434D01*
X170247417Y-72501475D01*
X170180000Y-72723716D01*
X170112583Y-72501474D01*
X169992297Y-72276433D01*
X169830418Y-72079182D01*
X169633166Y-71917303D01*
X169408125Y-71797017D01*
X169163942Y-71722944D01*
X168910000Y-71697933D01*
X168656057Y-71722944D01*
X168411874Y-71797017D01*
X168186833Y-71917303D01*
X167989582Y-72079182D01*
X167827703Y-72276434D01*
X167707417Y-72501475D01*
X167640000Y-72723716D01*
X167572583Y-72501474D01*
X167452297Y-72276433D01*
X167290418Y-72079182D01*
X167093166Y-71917303D01*
X166868125Y-71797017D01*
X166623942Y-71722944D01*
X166370000Y-71697933D01*
X166116057Y-71722944D01*
X165871874Y-71797017D01*
X165646833Y-71917303D01*
X165449582Y-72079182D01*
X165287703Y-72276434D01*
X165167417Y-72501475D01*
X165100000Y-72723716D01*
X165032583Y-72501474D01*
X164912297Y-72276433D01*
X164750418Y-72079182D01*
X164553166Y-71917303D01*
X164328125Y-71797017D01*
X164083942Y-71722944D01*
X163830000Y-71697933D01*
X163576057Y-71722944D01*
X163331874Y-71797017D01*
X163106833Y-71917303D01*
X162909582Y-72079182D01*
X162747703Y-72276434D01*
X162627417Y-72501475D01*
X162560000Y-72723716D01*
X162492583Y-72501474D01*
X162372297Y-72276433D01*
X162210418Y-72079182D01*
X162013166Y-71917303D01*
X161788125Y-71797017D01*
X161543942Y-71722944D01*
X161290000Y-71697933D01*
X161036057Y-71722944D01*
X160791874Y-71797017D01*
X160566833Y-71917303D01*
X160369582Y-72079182D01*
X160207703Y-72276434D01*
X160087417Y-72501475D01*
X160017494Y-72731977D01*
X159995733Y-72622320D01*
X159898193Y-72386539D01*
X159756529Y-72174317D01*
X159576184Y-71993811D01*
X159364089Y-71851956D01*
X159128395Y-71754205D01*
X159077105Y-71746180D01*
X159048355Y-71763980D01*
X163065134Y-67747200D01*
X163215911Y-67848044D01*
X163451605Y-67945795D01*
X163502895Y-67953820D01*
X163703000Y-67829933D01*
X163703000Y-66167000D01*
X163683000Y-66167000D01*
X163683000Y-65913000D01*
X163703000Y-65913000D01*
X163703000Y-65893000D01*
X163957000Y-65893000D01*
X163957000Y-65913000D01*
X163977000Y-65913000D01*
X163977000Y-66167000D01*
X163957000Y-66167000D01*
X163957000Y-67829933D01*
X164157105Y-67953820D01*
X164208395Y-67945795D01*
X164444089Y-67848044D01*
X164656184Y-67706189D01*
X164836529Y-67525683D01*
X164978193Y-67313461D01*
X165075733Y-67077680D01*
X165097494Y-66968023D01*
X165167417Y-67198526D01*
X165287704Y-67423567D01*
X165449583Y-67620818D01*
X165646834Y-67782697D01*
X165871875Y-67902983D01*
X166116058Y-67977056D01*
X166370000Y-68002067D01*
X166623943Y-67977056D01*
X166868126Y-67902983D01*
X167093167Y-67782697D01*
X167290418Y-67620818D01*
X167452297Y-67423567D01*
X167572583Y-67198526D01*
X167640000Y-66976285D01*
X167707417Y-67198526D01*
X167827704Y-67423567D01*
X167989583Y-67620818D01*
X168186834Y-67782697D01*
X168411875Y-67902983D01*
X168656058Y-67977056D01*
X168910000Y-68002067D01*
X169163943Y-67977056D01*
X169408126Y-67902983D01*
X169633167Y-67782697D01*
X169830418Y-67620818D01*
X169992297Y-67423567D01*
X170112583Y-67198526D01*
X170180000Y-66976285D01*
X170247417Y-67198526D01*
X170367704Y-67423567D01*
X170529583Y-67620818D01*
X170726834Y-67782697D01*
X170951875Y-67902983D01*
X171196058Y-67977056D01*
X171450000Y-68002067D01*
X171495598Y-67997576D01*
X172603890Y-69105869D01*
X172631603Y-69139637D01*
X172665371Y-69167350D01*
X172665373Y-69167352D01*
X172766361Y-69250231D01*
X172920106Y-69332409D01*
X173086930Y-69383015D01*
X173216943Y-69395820D01*
X173216951Y-69395820D01*
X173260420Y-69400101D01*
X173303889Y-69395820D01*
X177236430Y-69395820D01*
X177279899Y-69400101D01*
X177323368Y-69395820D01*
X177323376Y-69395820D01*
X177453389Y-69383015D01*
X177620212Y-69332409D01*
X177773958Y-69250231D01*
X177908716Y-69139637D01*
X177936433Y-69105864D01*
X187445072Y-59597226D01*
X187478838Y-59569515D01*
X187516472Y-59523659D01*
X187589431Y-59434758D01*
X187589432Y-59434757D01*
X187671610Y-59281011D01*
X187722216Y-59114188D01*
X187735021Y-58984175D01*
X187735021Y-58984165D01*
X187739302Y-58940699D01*
X187735021Y-58897233D01*
X187735021Y-35763486D01*
X187739302Y-35720020D01*
X187735021Y-35676554D01*
X187735021Y-35676544D01*
X187722216Y-35546531D01*
X187671610Y-35379708D01*
X187589432Y-35225962D01*
X187478838Y-35091204D01*
X187445070Y-35063491D01*
X185656535Y-33274957D01*
X185656531Y-33274952D01*
X185620612Y-33239033D01*
X185642185Y-33020000D01*
X185613513Y-32728889D01*
X185528599Y-32448966D01*
X185390706Y-32190986D01*
X185205134Y-31964866D01*
X184979014Y-31779294D01*
X184924209Y-31750000D01*
X184979014Y-31720706D01*
X185205134Y-31535134D01*
X185390706Y-31309014D01*
X185528599Y-31051034D01*
X185613513Y-30771111D01*
X185642185Y-30480000D01*
X185613513Y-30188889D01*
X185528599Y-29908966D01*
X185390706Y-29650986D01*
X185205134Y-29424866D01*
X184979014Y-29239294D01*
X184721034Y-29101401D01*
X184441111Y-29016487D01*
X184222950Y-28995000D01*
X184077050Y-28995000D01*
X183858889Y-29016487D01*
X183578966Y-29101401D01*
X183320986Y-29239294D01*
X183094866Y-29424866D01*
X182955241Y-29595000D01*
X168299474Y-29595000D01*
X168255998Y-29590718D01*
X168212521Y-29595000D01*
X168082508Y-29607805D01*
X167915685Y-29658411D01*
X167761939Y-29740589D01*
X167627181Y-29851183D01*
X167516587Y-29985941D01*
X167434409Y-30139687D01*
X167383803Y-30306510D01*
X167366716Y-30480000D01*
X167370998Y-30523477D01*
X167370999Y-32359424D01*
X162585000Y-37145423D01*
X162585000Y-36452285D01*
X162437623Y-35711372D01*
X162148533Y-35013446D01*
X161728839Y-34385330D01*
X161194670Y-33851161D01*
X160566554Y-33431467D01*
X159868628Y-33142377D01*
X159127715Y-32995000D01*
X158372285Y-32995000D01*
X157631372Y-33142377D01*
X156933446Y-33431467D01*
X156305330Y-33851161D01*
X155771161Y-34385330D01*
X155351467Y-35013446D01*
X155062377Y-35711372D01*
X154915000Y-36452285D01*
X154915000Y-37207715D01*
X155062377Y-37948628D01*
X155351467Y-38646554D01*
X155771161Y-39274670D01*
X156305330Y-39808839D01*
X156933446Y-40228533D01*
X157631372Y-40517623D01*
X158372285Y-40665000D01*
X159065424Y-40665000D01*
X157465425Y-42264999D01*
X155629464Y-42264999D01*
X155585998Y-42260718D01*
X155542532Y-42264999D01*
X155542522Y-42264999D01*
X155412509Y-42277804D01*
X155245686Y-42328410D01*
X155091940Y-42410588D01*
X155091938Y-42410589D01*
X155091939Y-42410589D01*
X154990952Y-42493467D01*
X154990950Y-42493469D01*
X154957182Y-42521182D01*
X154929469Y-42554950D01*
X154235356Y-43249064D01*
X154201583Y-43276781D01*
X154090989Y-43411540D01*
X154008811Y-43565286D01*
X153958205Y-43732109D01*
X153945400Y-43862122D01*
X153945400Y-43862129D01*
X153941119Y-43905598D01*
X153945400Y-43949067D01*
X153945401Y-64109454D01*
X153923942Y-64102944D01*
X153670000Y-64077933D01*
X153416057Y-64102944D01*
X153171874Y-64177017D01*
X152946833Y-64297303D01*
X152749582Y-64459182D01*
X152587703Y-64656434D01*
X152467417Y-64881475D01*
X152400000Y-65103716D01*
X152332583Y-64881474D01*
X152212297Y-64656433D01*
X152050418Y-64459182D01*
X151853166Y-64297303D01*
X151628125Y-64177017D01*
X151383942Y-64102944D01*
X151130000Y-64077933D01*
X150876057Y-64102944D01*
X150631874Y-64177017D01*
X150406833Y-64297303D01*
X150209582Y-64459182D01*
X150047703Y-64656434D01*
X149927417Y-64881475D01*
X149860000Y-65103716D01*
X149792583Y-64881474D01*
X149672297Y-64656433D01*
X149510418Y-64459182D01*
X149313166Y-64297303D01*
X149088125Y-64177017D01*
X148843942Y-64102944D01*
X148590000Y-64077933D01*
X148336057Y-64102944D01*
X148091874Y-64177017D01*
X147866833Y-64297303D01*
X147669582Y-64459182D01*
X147507703Y-64656434D01*
X147387417Y-64881475D01*
X147320000Y-65103716D01*
X147252583Y-64881474D01*
X147132297Y-64656433D01*
X146970418Y-64459182D01*
X146773166Y-64297303D01*
X146548125Y-64177017D01*
X146303942Y-64102944D01*
X146050000Y-64077933D01*
X145796057Y-64102944D01*
X145551874Y-64177017D01*
X145326833Y-64297303D01*
X145129582Y-64459182D01*
X144967703Y-64656434D01*
X144847417Y-64881475D01*
X144780000Y-65103716D01*
X144712583Y-64881474D01*
X144592297Y-64656433D01*
X144430418Y-64459182D01*
X144233166Y-64297303D01*
X144008125Y-64177017D01*
X143763942Y-64102944D01*
X143510000Y-64077933D01*
X143256057Y-64102944D01*
X143011874Y-64177017D01*
X142786833Y-64297303D01*
X142589582Y-64459182D01*
X142427703Y-64656434D01*
X142307417Y-64881475D01*
X142233344Y-65125658D01*
X142214600Y-65315971D01*
X127660000Y-65315971D01*
X127660000Y-58190000D01*
X133751928Y-58190000D01*
X133751928Y-61190000D01*
X133764188Y-61314482D01*
X133800498Y-61434180D01*
X133859463Y-61544494D01*
X133938815Y-61641185D01*
X134035506Y-61720537D01*
X134145820Y-61779502D01*
X134265518Y-61815812D01*
X134390000Y-61828072D01*
X137390000Y-61828072D01*
X137514482Y-61815812D01*
X137634180Y-61779502D01*
X137744494Y-61720537D01*
X137841185Y-61641185D01*
X137920537Y-61544494D01*
X137979502Y-61434180D01*
X138015812Y-61314482D01*
X138028072Y-61190000D01*
X138028072Y-58190000D01*
X138015812Y-58065518D01*
X137979502Y-57945820D01*
X137920537Y-57835506D01*
X137841185Y-57738815D01*
X137744494Y-57659463D01*
X137634180Y-57600498D01*
X137514482Y-57564188D01*
X137390000Y-57551928D01*
X134390000Y-57551928D01*
X134265518Y-57564188D01*
X134145820Y-57600498D01*
X134035506Y-57659463D01*
X133938815Y-57738815D01*
X133859463Y-57835506D01*
X133800498Y-57945820D01*
X133764188Y-58065518D01*
X133751928Y-58190000D01*
X127660000Y-58190000D01*
X127660000Y-54399721D01*
X133755000Y-54399721D01*
X133755000Y-54820279D01*
X133837047Y-55232756D01*
X133997988Y-55621302D01*
X134231637Y-55970983D01*
X134529017Y-56268363D01*
X134878698Y-56502012D01*
X135267244Y-56662953D01*
X135679721Y-56745000D01*
X136100279Y-56745000D01*
X136512756Y-56662953D01*
X136901302Y-56502012D01*
X137250983Y-56268363D01*
X137548363Y-55970983D01*
X137782012Y-55621302D01*
X137942953Y-55232756D01*
X138025000Y-54820279D01*
X138025000Y-54399721D01*
X137942953Y-53987244D01*
X137782012Y-53598698D01*
X137548363Y-53249017D01*
X137250983Y-52951637D01*
X136901302Y-52717988D01*
X136512756Y-52557047D01*
X136100279Y-52475000D01*
X135679721Y-52475000D01*
X135267244Y-52557047D01*
X134878698Y-52717988D01*
X134529017Y-52951637D01*
X134231637Y-53249017D01*
X133997988Y-53598698D01*
X133837047Y-53987244D01*
X133755000Y-54399721D01*
X127660000Y-54399721D01*
X127660000Y-49319721D01*
X133755000Y-49319721D01*
X133755000Y-49740279D01*
X133837047Y-50152756D01*
X133997988Y-50541302D01*
X134231637Y-50890983D01*
X134529017Y-51188363D01*
X134878698Y-51422012D01*
X135267244Y-51582953D01*
X135679721Y-51665000D01*
X136100279Y-51665000D01*
X136512756Y-51582953D01*
X136901302Y-51422012D01*
X137250983Y-51188363D01*
X137548363Y-50890983D01*
X137782012Y-50541302D01*
X137942953Y-50152756D01*
X138025000Y-49740279D01*
X138025000Y-49319721D01*
X137942953Y-48907244D01*
X137782012Y-48518698D01*
X137548363Y-48169017D01*
X137250983Y-47871637D01*
X136901302Y-47637988D01*
X136512756Y-47477047D01*
X136100279Y-47395000D01*
X135679721Y-47395000D01*
X135267244Y-47477047D01*
X134878698Y-47637988D01*
X134529017Y-47871637D01*
X134231637Y-48169017D01*
X133997988Y-48518698D01*
X133837047Y-48907244D01*
X133755000Y-49319721D01*
X127660000Y-49319721D01*
X127660000Y-43410000D01*
X133751928Y-43410000D01*
X133764188Y-43534482D01*
X133800498Y-43654180D01*
X133859463Y-43764494D01*
X133938815Y-43861185D01*
X134035506Y-43940537D01*
X134145820Y-43999502D01*
X134265518Y-44035812D01*
X134390000Y-44048072D01*
X135604250Y-44045000D01*
X135763000Y-43886250D01*
X135763000Y-42037000D01*
X136017000Y-42037000D01*
X136017000Y-43886250D01*
X136175750Y-44045000D01*
X137390000Y-44048072D01*
X137514482Y-44035812D01*
X137634180Y-43999502D01*
X137744494Y-43940537D01*
X137841185Y-43861185D01*
X137920537Y-43764494D01*
X137979502Y-43654180D01*
X138015812Y-43534482D01*
X138028072Y-43410000D01*
X138025000Y-42195750D01*
X137866250Y-42037000D01*
X136017000Y-42037000D01*
X135763000Y-42037000D01*
X133913750Y-42037000D01*
X133755000Y-42195750D01*
X133751928Y-43410000D01*
X127660000Y-43410000D01*
X127660000Y-40410000D01*
X133751928Y-40410000D01*
X133755000Y-41624250D01*
X133913750Y-41783000D01*
X135763000Y-41783000D01*
X135763000Y-39933750D01*
X136017000Y-39933750D01*
X136017000Y-41783000D01*
X137866250Y-41783000D01*
X138025000Y-41624250D01*
X138028072Y-40410000D01*
X138015812Y-40285518D01*
X137979502Y-40165820D01*
X137920537Y-40055506D01*
X137841185Y-39958815D01*
X137744494Y-39879463D01*
X137634180Y-39820498D01*
X137514482Y-39784188D01*
X137390000Y-39771928D01*
X136175750Y-39775000D01*
X136017000Y-39933750D01*
X135763000Y-39933750D01*
X135604250Y-39775000D01*
X134390000Y-39771928D01*
X134265518Y-39784188D01*
X134145820Y-39820498D01*
X134035506Y-39879463D01*
X133938815Y-39958815D01*
X133859463Y-40055506D01*
X133800498Y-40165820D01*
X133764188Y-40285518D01*
X133751928Y-40410000D01*
X127660000Y-40410000D01*
X127660000Y-38321653D01*
X134577952Y-38321653D01*
X134733962Y-38637214D01*
X135108745Y-38828020D01*
X135513551Y-38942044D01*
X135932824Y-38974902D01*
X136350451Y-38925334D01*
X136750383Y-38795243D01*
X137046038Y-38637214D01*
X137202048Y-38321653D01*
X135890000Y-37009605D01*
X134577952Y-38321653D01*
X127660000Y-38321653D01*
X127660000Y-36872824D01*
X133745098Y-36872824D01*
X133794666Y-37290451D01*
X133924757Y-37690383D01*
X134082786Y-37986038D01*
X134398347Y-38142048D01*
X135710395Y-36830000D01*
X136069605Y-36830000D01*
X137381653Y-38142048D01*
X137697214Y-37986038D01*
X137888020Y-37611255D01*
X138002044Y-37206449D01*
X138034902Y-36787176D01*
X137985334Y-36369549D01*
X137855243Y-35969617D01*
X137697214Y-35673962D01*
X137381653Y-35517952D01*
X136069605Y-36830000D01*
X135710395Y-36830000D01*
X134398347Y-35517952D01*
X134082786Y-35673962D01*
X133891980Y-36048745D01*
X133777956Y-36453551D01*
X133745098Y-36872824D01*
X127660000Y-36872824D01*
X127660000Y-35338347D01*
X134577952Y-35338347D01*
X135890000Y-36650395D01*
X137202048Y-35338347D01*
X137046038Y-35022786D01*
X136671255Y-34831980D01*
X136266449Y-34717956D01*
X135847176Y-34685098D01*
X135429549Y-34734666D01*
X135029617Y-34864757D01*
X134733962Y-35022786D01*
X134577952Y-35338347D01*
X127660000Y-35338347D01*
X127660000Y-33241653D01*
X134577952Y-33241653D01*
X134733962Y-33557214D01*
X135108745Y-33748020D01*
X135513551Y-33862044D01*
X135932824Y-33894902D01*
X136350451Y-33845334D01*
X136750383Y-33715243D01*
X137046038Y-33557214D01*
X137202048Y-33241653D01*
X135890000Y-31929605D01*
X134577952Y-33241653D01*
X127660000Y-33241653D01*
X127660000Y-31792824D01*
X133745098Y-31792824D01*
X133794666Y-32210451D01*
X133924757Y-32610383D01*
X134082786Y-32906038D01*
X134398347Y-33062048D01*
X135710395Y-31750000D01*
X136069605Y-31750000D01*
X137381653Y-33062048D01*
X137697214Y-32906038D01*
X137888020Y-32531255D01*
X138002044Y-32126449D01*
X138034902Y-31707176D01*
X137985334Y-31289549D01*
X137855243Y-30889617D01*
X137697214Y-30593962D01*
X137381653Y-30437952D01*
X136069605Y-31750000D01*
X135710395Y-31750000D01*
X134398347Y-30437952D01*
X134082786Y-30593962D01*
X133891980Y-30968745D01*
X133777956Y-31373551D01*
X133745098Y-31792824D01*
X127660000Y-31792824D01*
X127660000Y-30258347D01*
X134577952Y-30258347D01*
X135890000Y-31570395D01*
X137202048Y-30258347D01*
X137046038Y-29942786D01*
X136671255Y-29751980D01*
X136266449Y-29637956D01*
X135847176Y-29605098D01*
X135429549Y-29654666D01*
X135029617Y-29784757D01*
X134733962Y-29942786D01*
X134577952Y-30258347D01*
X127660000Y-30258347D01*
X127660000Y-29210000D01*
X154717815Y-29210000D01*
X154746487Y-29501111D01*
X154831401Y-29781034D01*
X154969294Y-30039014D01*
X155154866Y-30265134D01*
X155380986Y-30450706D01*
X155638966Y-30588599D01*
X155918889Y-30673513D01*
X156137050Y-30695000D01*
X156282950Y-30695000D01*
X156501111Y-30673513D01*
X156781034Y-30588599D01*
X157039014Y-30450706D01*
X157265134Y-30265134D01*
X157450706Y-30039014D01*
X157480000Y-29984209D01*
X157509294Y-30039014D01*
X157694866Y-30265134D01*
X157920986Y-30450706D01*
X158178966Y-30588599D01*
X158458889Y-30673513D01*
X158677050Y-30695000D01*
X158822950Y-30695000D01*
X159041111Y-30673513D01*
X159321034Y-30588599D01*
X159579014Y-30450706D01*
X159805134Y-30265134D01*
X159829607Y-30235313D01*
X159850498Y-30304180D01*
X159909463Y-30414494D01*
X159988815Y-30511185D01*
X160085506Y-30590537D01*
X160195820Y-30649502D01*
X160315518Y-30685812D01*
X160440000Y-30698072D01*
X161004250Y-30695000D01*
X161163000Y-30536250D01*
X161163000Y-29337000D01*
X161417000Y-29337000D01*
X161417000Y-30536250D01*
X161575750Y-30695000D01*
X162140000Y-30698072D01*
X162264482Y-30685812D01*
X162384180Y-30649502D01*
X162494494Y-30590537D01*
X162591185Y-30511185D01*
X162670537Y-30414494D01*
X162729502Y-30304180D01*
X162765812Y-30184482D01*
X162778072Y-30060000D01*
X162775000Y-29495750D01*
X162616250Y-29337000D01*
X161417000Y-29337000D01*
X161163000Y-29337000D01*
X161143000Y-29337000D01*
X161143000Y-29083000D01*
X161163000Y-29083000D01*
X161163000Y-27883750D01*
X161417000Y-27883750D01*
X161417000Y-29083000D01*
X162616250Y-29083000D01*
X162775000Y-28924250D01*
X162778072Y-28360000D01*
X162765812Y-28235518D01*
X162729502Y-28115820D01*
X162670537Y-28005506D01*
X162591185Y-27908815D01*
X162494494Y-27829463D01*
X162384180Y-27770498D01*
X162264482Y-27734188D01*
X162140000Y-27721928D01*
X161575750Y-27725000D01*
X161417000Y-27883750D01*
X161163000Y-27883750D01*
X161004250Y-27725000D01*
X160440000Y-27721928D01*
X160315518Y-27734188D01*
X160195820Y-27770498D01*
X160085506Y-27829463D01*
X159988815Y-27908815D01*
X159909463Y-28005506D01*
X159850498Y-28115820D01*
X159829607Y-28184687D01*
X159805134Y-28154866D01*
X159579014Y-27969294D01*
X159321034Y-27831401D01*
X159041111Y-27746487D01*
X158822950Y-27725000D01*
X158677050Y-27725000D01*
X158458889Y-27746487D01*
X158178966Y-27831401D01*
X157920986Y-27969294D01*
X157694866Y-28154866D01*
X157509294Y-28380986D01*
X157480000Y-28435791D01*
X157450706Y-28380986D01*
X157265134Y-28154866D01*
X157039014Y-27969294D01*
X156781034Y-27831401D01*
X156501111Y-27746487D01*
X156282950Y-27725000D01*
X156137050Y-27725000D01*
X155918889Y-27746487D01*
X155638966Y-27831401D01*
X155380986Y-27969294D01*
X155154866Y-28154866D01*
X154969294Y-28380986D01*
X154831401Y-28638966D01*
X154746487Y-28918889D01*
X154717815Y-29210000D01*
X127660000Y-29210000D01*
X127660000Y-26060000D01*
X189840000Y-26060000D01*
X189840001Y-151740000D01*
X189840001Y-151740000D01*
G37*
X189840001Y-151740000D02*
X127660000Y-151740000D01*
X127660000Y-148170000D01*
X131861928Y-148170000D01*
X131874188Y-148294482D01*
X131910498Y-148414180D01*
X131969463Y-148524494D01*
X132048815Y-148621185D01*
X132145506Y-148700537D01*
X132255820Y-148759502D01*
X132375518Y-148795812D01*
X132500000Y-148808072D01*
X133064250Y-148805000D01*
X133223000Y-148646250D01*
X133223000Y-147447000D01*
X133477000Y-147447000D01*
X133477000Y-148646250D01*
X133635750Y-148805000D01*
X134200000Y-148808072D01*
X134324482Y-148795812D01*
X134444180Y-148759502D01*
X134554494Y-148700537D01*
X134651185Y-148621185D01*
X134730537Y-148524494D01*
X134789502Y-148414180D01*
X134825812Y-148294482D01*
X134838072Y-148170000D01*
X134835000Y-147605750D01*
X134676250Y-147447000D01*
X133477000Y-147447000D01*
X133223000Y-147447000D01*
X132023750Y-147447000D01*
X131865000Y-147605750D01*
X131861928Y-148170000D01*
X127660000Y-148170000D01*
X127660000Y-113779302D01*
X129760698Y-113779302D01*
X129764979Y-113822771D01*
X129764980Y-139496500D01*
X129760698Y-139539979D01*
X129777784Y-139713469D01*
X129828391Y-139880292D01*
X129910569Y-140034038D01*
X129993447Y-140135025D01*
X129993450Y-140135028D01*
X130021163Y-140168796D01*
X130054930Y-140196508D01*
X131879388Y-142020967D01*
X131857815Y-142240000D01*
X131886487Y-142531111D01*
X131971401Y-142811034D01*
X132109294Y-143069014D01*
X132294866Y-143295134D01*
X132520986Y-143480706D01*
X132575791Y-143510000D01*
X132520986Y-143539294D01*
X132294866Y-143724866D01*
X132109294Y-143950986D01*
X131971401Y-144208966D01*
X131886487Y-144488889D01*
X131857815Y-144780000D01*
X131886487Y-145071111D01*
X131971401Y-145351034D01*
X132109294Y-145609014D01*
X132294866Y-145835134D01*
X132324687Y-145859607D01*
X132255820Y-145880498D01*
X132145506Y-145939463D01*
X132048815Y-146018815D01*
X131969463Y-146115506D01*
X131910498Y-146225820D01*
X131874188Y-146345518D01*
X131861928Y-146470000D01*
X131865000Y-147034250D01*
X132023750Y-147193000D01*
X133223000Y-147193000D01*
X133223000Y-147173000D01*
X133477000Y-147173000D01*
X133477000Y-147193000D01*
X134676250Y-147193000D01*
X134835000Y-147034250D01*
X134838072Y-146470000D01*
X134825812Y-146345518D01*
X134789502Y-146225820D01*
X134730537Y-146115506D01*
X134651185Y-146018815D01*
X134554494Y-145939463D01*
X134444180Y-145880498D01*
X134375313Y-145859607D01*
X134405134Y-145835134D01*
X134590706Y-145609014D01*
X134728599Y-145351034D01*
X134813513Y-145071111D01*
X134842185Y-144780000D01*
X134813513Y-144488889D01*
X134728599Y-144208966D01*
X134590706Y-143950986D01*
X134405134Y-143724866D01*
X134179014Y-143539294D01*
X134124209Y-143510000D01*
X134179014Y-143480706D01*
X134405134Y-143295134D01*
X134538780Y-143132285D01*
X154915000Y-143132285D01*
X154915000Y-143887715D01*
X155062377Y-144628628D01*
X155351467Y-145326554D01*
X155771161Y-145954670D01*
X156305330Y-146488839D01*
X156933446Y-146908533D01*
X157631372Y-147197623D01*
X158372285Y-147345000D01*
X159127715Y-147345000D01*
X159868628Y-147197623D01*
X160566554Y-146908533D01*
X161194670Y-146488839D01*
X161728839Y-145954670D01*
X162148533Y-145326554D01*
X162437623Y-144628628D01*
X162585000Y-143887715D01*
X162585000Y-143132285D01*
X162437623Y-142391372D01*
X162148533Y-141693446D01*
X161728839Y-141065330D01*
X161194670Y-140531161D01*
X160566554Y-140111467D01*
X159868628Y-139822377D01*
X159127715Y-139675000D01*
X158372285Y-139675000D01*
X157631372Y-139822377D01*
X156933446Y-140111467D01*
X156305330Y-140531161D01*
X155771161Y-141065330D01*
X155351467Y-141693446D01*
X155062377Y-142391372D01*
X154915000Y-143132285D01*
X134538780Y-143132285D01*
X134590706Y-143069014D01*
X134728599Y-142811034D01*
X134813513Y-142531111D01*
X134842185Y-142240000D01*
X134813513Y-141948889D01*
X134728599Y-141668966D01*
X134590706Y-141410986D01*
X134405134Y-141184866D01*
X134179014Y-140999294D01*
X134124209Y-140970000D01*
X134179014Y-140940706D01*
X134405134Y-140755134D01*
X134590706Y-140529014D01*
X134728599Y-140271034D01*
X134813513Y-139991111D01*
X134842185Y-139700000D01*
X134813513Y-139408889D01*
X134728599Y-139128966D01*
X134590706Y-138870986D01*
X134405134Y-138644866D01*
X134179014Y-138459294D01*
X134124209Y-138430000D01*
X134179014Y-138400706D01*
X134405134Y-138215134D01*
X134590706Y-137989014D01*
X134728599Y-137731034D01*
X134813513Y-137451111D01*
X134842185Y-137160000D01*
X134813513Y-136868889D01*
X134728599Y-136588966D01*
X134590706Y-136330986D01*
X134405134Y-136104866D01*
X134179014Y-135919294D01*
X134124209Y-135890000D01*
X134179014Y-135860706D01*
X134405134Y-135675134D01*
X134590706Y-135449014D01*
X134728599Y-135191034D01*
X134813513Y-134911111D01*
X134842185Y-134620000D01*
X134820612Y-134400966D01*
X154265049Y-114956530D01*
X154298817Y-114928817D01*
X154409411Y-114794059D01*
X154476479Y-114668583D01*
X154491589Y-114640314D01*
X154542195Y-114473490D01*
X154545904Y-114435834D01*
X154555000Y-114343477D01*
X154555000Y-114343469D01*
X154559281Y-114300000D01*
X154555000Y-114256531D01*
X154555000Y-113369885D01*
X154590418Y-113340818D01*
X154752297Y-113143567D01*
X154872583Y-112918526D01*
X154940000Y-112696285D01*
X155007417Y-112918526D01*
X155127704Y-113143567D01*
X155289583Y-113340818D01*
X155325001Y-113369885D01*
X155325000Y-120606531D01*
X155320719Y-120650000D01*
X155325000Y-120693469D01*
X155325000Y-120693476D01*
X155337805Y-120823489D01*
X155388411Y-120990312D01*
X155470589Y-121144058D01*
X155581183Y-121278817D01*
X155614956Y-121306534D01*
X176344506Y-142036085D01*
X176238889Y-142046487D01*
X175958966Y-142131401D01*
X175700986Y-142269294D01*
X175474866Y-142454866D01*
X175289294Y-142680986D01*
X175260000Y-142735791D01*
X175230706Y-142680986D01*
X175045134Y-142454866D01*
X174819014Y-142269294D01*
X174561034Y-142131401D01*
X174281111Y-142046487D01*
X174062950Y-142025000D01*
X173917050Y-142025000D01*
X173698889Y-142046487D01*
X173418966Y-142131401D01*
X173160986Y-142269294D01*
X172934866Y-142454866D01*
X172910393Y-142484687D01*
X172889502Y-142415820D01*
X172830537Y-142305506D01*
X172751185Y-142208815D01*
X172654494Y-142129463D01*
X172544180Y-142070498D01*
X172424482Y-142034188D01*
X172300000Y-142021928D01*
X170600000Y-142021928D01*
X170475518Y-142034188D01*
X170355820Y-142070498D01*
X170245506Y-142129463D01*
X170148815Y-142208815D01*
X170069463Y-142305506D01*
X170010498Y-142415820D01*
X169974188Y-142535518D01*
X169961928Y-142660000D01*
X169961928Y-144360000D01*
X169974188Y-144484482D01*
X170010498Y-144604180D01*
X170069463Y-144714494D01*
X170148815Y-144811185D01*
X170245506Y-144890537D01*
X170355820Y-144949502D01*
X170475518Y-144985812D01*
X170600000Y-144998072D01*
X172300000Y-144998072D01*
X172424482Y-144985812D01*
X172544180Y-144949502D01*
X172654494Y-144890537D01*
X172751185Y-144811185D01*
X172830537Y-144714494D01*
X172889502Y-144604180D01*
X172910393Y-144535313D01*
X172934866Y-144565134D01*
X173160986Y-144750706D01*
X173418966Y-144888599D01*
X173698889Y-144973513D01*
X173917050Y-144995000D01*
X174062950Y-144995000D01*
X174281111Y-144973513D01*
X174561034Y-144888599D01*
X174819014Y-144750706D01*
X175045134Y-144565134D01*
X175230706Y-144339014D01*
X175260000Y-144284209D01*
X175289294Y-144339014D01*
X175474866Y-144565134D01*
X175700986Y-144750706D01*
X175958966Y-144888599D01*
X176238889Y-144973513D01*
X176457050Y-144995000D01*
X176602950Y-144995000D01*
X176749033Y-144980612D01*
X177173471Y-145405050D01*
X177201184Y-145438818D01*
X177234952Y-145466531D01*
X177234954Y-145466533D01*
X177306453Y-145525211D01*
X177335942Y-145549412D01*
X177489688Y-145631590D01*
X177656511Y-145682196D01*
X177786524Y-145695001D01*
X177786534Y-145695001D01*
X177830000Y-145699282D01*
X177873467Y-145695001D01*
X184730532Y-145695001D01*
X184774001Y-145699282D01*
X184817470Y-145695001D01*
X184817478Y-145695001D01*
X184947491Y-145682196D01*
X185114314Y-145631590D01*
X185268060Y-145549412D01*
X185402818Y-145438818D01*
X185430535Y-145405045D01*
X186045051Y-144790530D01*
X186078818Y-144762818D01*
X186189412Y-144628060D01*
X186271590Y-144474314D01*
X186322196Y-144307491D01*
X186335001Y-144177478D01*
X186335001Y-144177468D01*
X186339282Y-144134002D01*
X186335001Y-144090536D01*
X186335001Y-118492710D01*
X186339282Y-118449244D01*
X186335001Y-118405778D01*
X186335001Y-118405768D01*
X186322196Y-118275755D01*
X186271590Y-118108932D01*
X186189412Y-117955186D01*
X186078818Y-117820428D01*
X186045050Y-117792715D01*
X174309503Y-106057168D01*
X174488126Y-106002983D01*
X174713167Y-105882697D01*
X174910418Y-105720818D01*
X175072297Y-105523567D01*
X175192583Y-105298526D01*
X175260000Y-105076285D01*
X175327417Y-105298526D01*
X175447704Y-105523567D01*
X175609583Y-105720818D01*
X175806834Y-105882697D01*
X176031875Y-106002983D01*
X176276058Y-106077056D01*
X176530000Y-106102067D01*
X176783943Y-106077056D01*
X177028126Y-106002983D01*
X177253167Y-105882697D01*
X177450418Y-105720818D01*
X177612297Y-105523567D01*
X177732583Y-105298526D01*
X177806656Y-105054343D01*
X177825400Y-104864030D01*
X177825400Y-103415970D01*
X177806656Y-103225657D01*
X177732583Y-102981474D01*
X177612297Y-102756433D01*
X177450418Y-102559182D01*
X177253166Y-102397303D01*
X177028125Y-102277017D01*
X176783942Y-102202944D01*
X176530000Y-102177933D01*
X176484403Y-102182424D01*
X174676104Y-100374126D01*
X174648387Y-100340353D01*
X174513629Y-100229759D01*
X174359883Y-100147581D01*
X174193060Y-100096975D01*
X174063047Y-100084170D01*
X174063039Y-100084170D01*
X174019570Y-100079889D01*
X173976101Y-100084170D01*
X165880391Y-100084170D01*
X165913097Y-99972702D01*
X165100000Y-99159605D01*
X164286903Y-99972702D01*
X164319609Y-100084170D01*
X161025226Y-100084170D01*
X161134637Y-99974759D01*
X161291680Y-99739727D01*
X161399853Y-99478574D01*
X161455000Y-99201335D01*
X161455000Y-99050512D01*
X163659783Y-99050512D01*
X163701213Y-99330130D01*
X163796397Y-99596292D01*
X163863329Y-99721514D01*
X164107298Y-99793097D01*
X164920395Y-98980000D01*
X165279605Y-98980000D01*
X166092702Y-99793097D01*
X166336671Y-99721514D01*
X166457571Y-99466004D01*
X166526300Y-99191816D01*
X166540217Y-98909488D01*
X166498787Y-98629870D01*
X166403603Y-98363708D01*
X166336671Y-98238486D01*
X166092702Y-98166903D01*
X165279605Y-98980000D01*
X164920395Y-98980000D01*
X164107298Y-98166903D01*
X163863329Y-98238486D01*
X163742429Y-98493996D01*
X163673700Y-98768184D01*
X163659783Y-99050512D01*
X161455000Y-99050512D01*
X161455000Y-98918665D01*
X161399853Y-98641426D01*
X161291680Y-98380273D01*
X161134637Y-98145241D01*
X160976694Y-97987298D01*
X164286903Y-97987298D01*
X165100000Y-98800395D01*
X165913097Y-97987298D01*
X165841514Y-97743329D01*
X165586004Y-97622429D01*
X165311816Y-97553700D01*
X165029488Y-97539783D01*
X164749870Y-97581213D01*
X164483708Y-97676397D01*
X164358486Y-97743329D01*
X164286903Y-97987298D01*
X160976694Y-97987298D01*
X160934759Y-97945363D01*
X160699727Y-97788320D01*
X160438574Y-97680147D01*
X160161335Y-97625000D01*
X159878665Y-97625000D01*
X159601426Y-97680147D01*
X159340273Y-97788320D01*
X159105241Y-97945363D01*
X158905363Y-98145241D01*
X158748320Y-98380273D01*
X158640147Y-98641426D01*
X158585000Y-98918665D01*
X158585000Y-99201335D01*
X158640147Y-99478574D01*
X158748320Y-99739727D01*
X158905363Y-99974759D01*
X159014774Y-100084170D01*
X143503588Y-100084170D01*
X143460122Y-100079889D01*
X143416656Y-100084170D01*
X143416645Y-100084170D01*
X143286632Y-100096975D01*
X143119809Y-100147581D01*
X142990549Y-100216671D01*
X142966063Y-100229759D01*
X142865075Y-100312638D01*
X142865073Y-100312640D01*
X142831305Y-100340353D01*
X142803593Y-100374120D01*
X130054935Y-113122768D01*
X130021162Y-113150485D01*
X129910568Y-113285244D01*
X129828390Y-113438990D01*
X129777784Y-113605813D01*
X129764979Y-113735826D01*
X129764979Y-113735836D01*
X129760698Y-113779302D01*
X127660000Y-113779302D01*
X127660000Y-93918665D01*
X158585000Y-93918665D01*
X158585000Y-94201335D01*
X158640147Y-94478574D01*
X158748320Y-94739727D01*
X158905363Y-94974759D01*
X159105241Y-95174637D01*
X159340273Y-95331680D01*
X159601426Y-95439853D01*
X159878665Y-95495000D01*
X160161335Y-95495000D01*
X160438574Y-95439853D01*
X160699727Y-95331680D01*
X160934759Y-95174637D01*
X161134637Y-94974759D01*
X161291680Y-94739727D01*
X161399853Y-94478574D01*
X161455000Y-94201335D01*
X161455000Y-93918665D01*
X161439087Y-93838665D01*
X163665000Y-93838665D01*
X163665000Y-94121335D01*
X163720147Y-94398574D01*
X163828320Y-94659727D01*
X163985363Y-94894759D01*
X164185241Y-95094637D01*
X164420273Y-95251680D01*
X164681426Y-95359853D01*
X164958665Y-95415000D01*
X165241335Y-95415000D01*
X165518574Y-95359853D01*
X165779727Y-95251680D01*
X166014759Y-95094637D01*
X166214637Y-94894759D01*
X166371680Y-94659727D01*
X166479853Y-94398574D01*
X166535000Y-94121335D01*
X166535000Y-93838665D01*
X166479853Y-93561426D01*
X166371680Y-93300273D01*
X166214637Y-93065241D01*
X166014759Y-92865363D01*
X165779727Y-92708320D01*
X165518574Y-92600147D01*
X165241335Y-92545000D01*
X164958665Y-92545000D01*
X164681426Y-92600147D01*
X164420273Y-92708320D01*
X164185241Y-92865363D01*
X163985363Y-93065241D01*
X163828320Y-93300273D01*
X163720147Y-93561426D01*
X163665000Y-93838665D01*
X161439087Y-93838665D01*
X161399853Y-93641426D01*
X161291680Y-93380273D01*
X161134637Y-93145241D01*
X160934759Y-92945363D01*
X160699727Y-92788320D01*
X160438574Y-92680147D01*
X160161335Y-92625000D01*
X159878665Y-92625000D01*
X159601426Y-92680147D01*
X159340273Y-92788320D01*
X159105241Y-92945363D01*
X158905363Y-93145241D01*
X158748320Y-93380273D01*
X158640147Y-93641426D01*
X158585000Y-93918665D01*
X127660000Y-93918665D01*
X127660000Y-84712285D01*
X133325000Y-84712285D01*
X133325000Y-85467715D01*
X133472377Y-86208628D01*
X133761467Y-86906554D01*
X134181161Y-87534670D01*
X134715330Y-88068839D01*
X135343446Y-88488533D01*
X136041372Y-88777623D01*
X136782285Y-88925000D01*
X137537715Y-88925000D01*
X138278628Y-88777623D01*
X138976554Y-88488533D01*
X139604670Y-88068839D01*
X140138839Y-87534670D01*
X140558533Y-86906554D01*
X140847623Y-86208628D01*
X140995000Y-85467715D01*
X140995000Y-84712285D01*
X140847623Y-83971372D01*
X140558533Y-83273446D01*
X140138839Y-82645330D01*
X139902174Y-82408665D01*
X158585000Y-82408665D01*
X158585000Y-82691335D01*
X158640147Y-82968574D01*
X158748320Y-83229727D01*
X158905363Y-83464759D01*
X159105241Y-83664637D01*
X159340273Y-83821680D01*
X159601426Y-83929853D01*
X159878665Y-83985000D01*
X160161335Y-83985000D01*
X160438574Y-83929853D01*
X160699727Y-83821680D01*
X160913764Y-83678665D01*
X162395000Y-83678665D01*
X162395000Y-83961335D01*
X162450147Y-84238574D01*
X162558320Y-84499727D01*
X162715363Y-84734759D01*
X162915241Y-84934637D01*
X163150273Y-85091680D01*
X163411426Y-85199853D01*
X163688665Y-85255000D01*
X163971335Y-85255000D01*
X164248574Y-85199853D01*
X164509727Y-85091680D01*
X164744759Y-84934637D01*
X164944637Y-84734759D01*
X165101680Y-84499727D01*
X165209853Y-84238574D01*
X165265000Y-83961335D01*
X165265000Y-83678665D01*
X167395000Y-83678665D01*
X167395000Y-83961335D01*
X167450147Y-84238574D01*
X167558320Y-84499727D01*
X167715363Y-84734759D01*
X167915241Y-84934637D01*
X168150273Y-85091680D01*
X168411426Y-85199853D01*
X168688665Y-85255000D01*
X168971335Y-85255000D01*
X169248574Y-85199853D01*
X169509727Y-85091680D01*
X169744759Y-84934637D01*
X169925807Y-84753589D01*
X172605000Y-84753589D01*
X172605000Y-85026411D01*
X172658225Y-85293989D01*
X172762629Y-85546043D01*
X172914201Y-85772886D01*
X173107114Y-85965799D01*
X173333957Y-86117371D01*
X173586011Y-86221775D01*
X173853589Y-86275000D01*
X174126411Y-86275000D01*
X174393989Y-86221775D01*
X174646043Y-86117371D01*
X174848213Y-85982285D01*
X180315000Y-85982285D01*
X180315000Y-86737715D01*
X180462377Y-87478628D01*
X180751467Y-88176554D01*
X181171161Y-88804670D01*
X181705330Y-89338839D01*
X182333446Y-89758533D01*
X183031372Y-90047623D01*
X183772285Y-90195000D01*
X184527715Y-90195000D01*
X185268628Y-90047623D01*
X185966554Y-89758533D01*
X186594670Y-89338839D01*
X187128839Y-88804670D01*
X187548533Y-88176554D01*
X187837623Y-87478628D01*
X187985000Y-86737715D01*
X187985000Y-85982285D01*
X187837623Y-85241372D01*
X187548533Y-84543446D01*
X187128839Y-83915330D01*
X186594670Y-83381161D01*
X185966554Y-82961467D01*
X185268628Y-82672377D01*
X184527715Y-82525000D01*
X183772285Y-82525000D01*
X183031372Y-82672377D01*
X182333446Y-82961467D01*
X181705330Y-83381161D01*
X181171161Y-83915330D01*
X180751467Y-84543446D01*
X180462377Y-85241372D01*
X180315000Y-85982285D01*
X174848213Y-85982285D01*
X174872886Y-85965799D01*
X175065799Y-85772886D01*
X175217371Y-85546043D01*
X175321775Y-85293989D01*
X175375000Y-85026411D01*
X175375000Y-84753589D01*
X175321775Y-84486011D01*
X175217371Y-84233957D01*
X175065799Y-84007114D01*
X174872886Y-83814201D01*
X174646043Y-83662629D01*
X174393989Y-83558225D01*
X174126411Y-83505000D01*
X173853589Y-83505000D01*
X173586011Y-83558225D01*
X173333957Y-83662629D01*
X173107114Y-83814201D01*
X172914201Y-84007114D01*
X172762629Y-84233957D01*
X172658225Y-84486011D01*
X172605000Y-84753589D01*
X169925807Y-84753589D01*
X169944637Y-84734759D01*
X170101680Y-84499727D01*
X170209853Y-84238574D01*
X170265000Y-83961335D01*
X170265000Y-83678665D01*
X170209853Y-83401426D01*
X170101680Y-83140273D01*
X169944637Y-82905241D01*
X169744759Y-82705363D01*
X169509727Y-82548320D01*
X169248574Y-82440147D01*
X168971335Y-82385000D01*
X168688665Y-82385000D01*
X168411426Y-82440147D01*
X168150273Y-82548320D01*
X167915241Y-82705363D01*
X167715363Y-82905241D01*
X167558320Y-83140273D01*
X167450147Y-83401426D01*
X167395000Y-83678665D01*
X165265000Y-83678665D01*
X165209853Y-83401426D01*
X165101680Y-83140273D01*
X164944637Y-82905241D01*
X164744759Y-82705363D01*
X164509727Y-82548320D01*
X164248574Y-82440147D01*
X163971335Y-82385000D01*
X163688665Y-82385000D01*
X163411426Y-82440147D01*
X163150273Y-82548320D01*
X162915241Y-82705363D01*
X162715363Y-82905241D01*
X162558320Y-83140273D01*
X162450147Y-83401426D01*
X162395000Y-83678665D01*
X160913764Y-83678665D01*
X160934759Y-83664637D01*
X161134637Y-83464759D01*
X161291680Y-83229727D01*
X161399853Y-82968574D01*
X161455000Y-82691335D01*
X161455000Y-82408665D01*
X161399853Y-82131426D01*
X161291680Y-81870273D01*
X161134637Y-81635241D01*
X160934759Y-81435363D01*
X160699727Y-81278320D01*
X160438574Y-81170147D01*
X160161335Y-81115000D01*
X159878665Y-81115000D01*
X159601426Y-81170147D01*
X159340273Y-81278320D01*
X159105241Y-81435363D01*
X158905363Y-81635241D01*
X158748320Y-81870273D01*
X158640147Y-82131426D01*
X158585000Y-82408665D01*
X139902174Y-82408665D01*
X139604670Y-82111161D01*
X138976554Y-81691467D01*
X138278628Y-81402377D01*
X137537715Y-81255000D01*
X136782285Y-81255000D01*
X136041372Y-81402377D01*
X135343446Y-81691467D01*
X134715330Y-82111161D01*
X134181161Y-82645330D01*
X133761467Y-83273446D01*
X133472377Y-83971372D01*
X133325000Y-84712285D01*
X127660000Y-84712285D01*
X127660000Y-79868665D01*
X162475000Y-79868665D01*
X162475000Y-80151335D01*
X162530147Y-80428574D01*
X162638320Y-80689727D01*
X162795363Y-80924759D01*
X162995241Y-81124637D01*
X163230273Y-81281680D01*
X163491426Y-81389853D01*
X163768665Y-81445000D01*
X164051335Y-81445000D01*
X164328574Y-81389853D01*
X164589727Y-81281680D01*
X164824759Y-81124637D01*
X165024637Y-80924759D01*
X165181680Y-80689727D01*
X165289853Y-80428574D01*
X165345000Y-80151335D01*
X165345000Y-79868665D01*
X167475000Y-79868665D01*
X167475000Y-80151335D01*
X167530147Y-80428574D01*
X167638320Y-80689727D01*
X167795363Y-80924759D01*
X167995241Y-81124637D01*
X168230273Y-81281680D01*
X168491426Y-81389853D01*
X168768665Y-81445000D01*
X169051335Y-81445000D01*
X169328574Y-81389853D01*
X169589727Y-81281680D01*
X169824759Y-81124637D01*
X170024637Y-80924759D01*
X170181680Y-80689727D01*
X170289853Y-80428574D01*
X170345000Y-80151335D01*
X170345000Y-79873589D01*
X172605000Y-79873589D01*
X172605000Y-80146411D01*
X172658225Y-80413989D01*
X172762629Y-80666043D01*
X172914201Y-80892886D01*
X173107114Y-81085799D01*
X173333957Y-81237371D01*
X173586011Y-81341775D01*
X173853589Y-81395000D01*
X174126411Y-81395000D01*
X174393989Y-81341775D01*
X174646043Y-81237371D01*
X174872886Y-81085799D01*
X175065799Y-80892886D01*
X175217371Y-80666043D01*
X175321775Y-80413989D01*
X175375000Y-80146411D01*
X175375000Y-79873589D01*
X175321775Y-79606011D01*
X175217371Y-79353957D01*
X175065799Y-79127114D01*
X174872886Y-78934201D01*
X174646043Y-78782629D01*
X174393989Y-78678225D01*
X174126411Y-78625000D01*
X173853589Y-78625000D01*
X173586011Y-78678225D01*
X173333957Y-78782629D01*
X173107114Y-78934201D01*
X172914201Y-79127114D01*
X172762629Y-79353957D01*
X172658225Y-79606011D01*
X172605000Y-79873589D01*
X170345000Y-79873589D01*
X170345000Y-79868665D01*
X170289853Y-79591426D01*
X170181680Y-79330273D01*
X170024637Y-79095241D01*
X169824759Y-78895363D01*
X169589727Y-78738320D01*
X169328574Y-78630147D01*
X169051335Y-78575000D01*
X168768665Y-78575000D01*
X168491426Y-78630147D01*
X168230273Y-78738320D01*
X167995241Y-78895363D01*
X167795363Y-79095241D01*
X167638320Y-79330273D01*
X167530147Y-79591426D01*
X167475000Y-79868665D01*
X165345000Y-79868665D01*
X165289853Y-79591426D01*
X165181680Y-79330273D01*
X165024637Y-79095241D01*
X164824759Y-78895363D01*
X164589727Y-78738320D01*
X164328574Y-78630147D01*
X164051335Y-78575000D01*
X163768665Y-78575000D01*
X163491426Y-78630147D01*
X163230273Y-78738320D01*
X162995241Y-78895363D01*
X162795363Y-79095241D01*
X162638320Y-79330273D01*
X162530147Y-79591426D01*
X162475000Y-79868665D01*
X127660000Y-79868665D01*
X127660000Y-78542702D01*
X159206903Y-78542702D01*
X159278486Y-78786671D01*
X159533996Y-78907571D01*
X159808184Y-78976300D01*
X160090512Y-78990217D01*
X160370130Y-78948787D01*
X160636292Y-78853603D01*
X160761514Y-78786671D01*
X160833097Y-78542702D01*
X160020000Y-77729605D01*
X159206903Y-78542702D01*
X127660000Y-78542702D01*
X127660000Y-77620512D01*
X158579783Y-77620512D01*
X158621213Y-77900130D01*
X158716397Y-78166292D01*
X158783329Y-78291514D01*
X159027298Y-78363097D01*
X159840395Y-77550000D01*
X160199605Y-77550000D01*
X161012702Y-78363097D01*
X161256671Y-78291514D01*
X161377571Y-78036004D01*
X161446300Y-77761816D01*
X161460217Y-77479488D01*
X161418787Y-77199870D01*
X161323603Y-76933708D01*
X161256671Y-76808486D01*
X161012702Y-76736903D01*
X160199605Y-77550000D01*
X159840395Y-77550000D01*
X159027298Y-76736903D01*
X158783329Y-76808486D01*
X158662429Y-77063996D01*
X158593700Y-77338184D01*
X158579783Y-77620512D01*
X127660000Y-77620512D01*
X127660000Y-76557298D01*
X159206903Y-76557298D01*
X160020000Y-77370395D01*
X160833097Y-76557298D01*
X160761514Y-76313329D01*
X160506004Y-76192429D01*
X160231816Y-76123700D01*
X159949488Y-76109783D01*
X159669870Y-76151213D01*
X159403708Y-76246397D01*
X159278486Y-76313329D01*
X159206903Y-76557298D01*
X127660000Y-76557298D01*
X127660000Y-65315971D01*
X142214600Y-65315971D01*
X142214600Y-66764030D01*
X142233344Y-66954343D01*
X142307417Y-67198526D01*
X142427704Y-67423567D01*
X142589583Y-67620818D01*
X142786834Y-67782697D01*
X143011875Y-67902983D01*
X143256058Y-67977056D01*
X143510000Y-68002067D01*
X143763943Y-67977056D01*
X144008126Y-67902983D01*
X144233167Y-67782697D01*
X144430418Y-67620818D01*
X144592297Y-67423567D01*
X144712583Y-67198526D01*
X144780000Y-66976285D01*
X144847417Y-67198526D01*
X144967704Y-67423567D01*
X145129583Y-67620818D01*
X145326834Y-67782697D01*
X145551875Y-67902983D01*
X145796058Y-67977056D01*
X146050000Y-68002067D01*
X146303943Y-67977056D01*
X146548126Y-67902983D01*
X146773167Y-67782697D01*
X146970418Y-67620818D01*
X147132297Y-67423567D01*
X147252583Y-67198526D01*
X147320000Y-66976285D01*
X147387417Y-67198526D01*
X147507704Y-67423567D01*
X147669583Y-67620818D01*
X147866834Y-67782697D01*
X148091875Y-67902983D01*
X148336058Y-67977056D01*
X148590000Y-68002067D01*
X148843943Y-67977056D01*
X149088126Y-67902983D01*
X149313167Y-67782697D01*
X149510418Y-67620818D01*
X149672297Y-67423567D01*
X149792583Y-67198526D01*
X149860000Y-66976285D01*
X149927417Y-67198526D01*
X150047704Y-67423567D01*
X150209583Y-67620818D01*
X150406834Y-67782697D01*
X150631875Y-67902983D01*
X150876058Y-67977056D01*
X151130000Y-68002067D01*
X151383943Y-67977056D01*
X151628126Y-67902983D01*
X151853167Y-67782697D01*
X152050418Y-67620818D01*
X152212297Y-67423567D01*
X152332583Y-67198526D01*
X152400000Y-66976285D01*
X152467417Y-67198526D01*
X152587704Y-67423567D01*
X152749583Y-67620818D01*
X152946834Y-67782697D01*
X153171875Y-67902983D01*
X153416058Y-67977056D01*
X153670000Y-68002067D01*
X153923943Y-67977056D01*
X153945401Y-67970547D01*
X153945401Y-71472620D01*
X153715597Y-71702424D01*
X153670000Y-71697933D01*
X153416057Y-71722944D01*
X153171874Y-71797017D01*
X152946833Y-71917303D01*
X152749582Y-72079182D01*
X152587703Y-72276434D01*
X152467417Y-72501475D01*
X152400000Y-72723716D01*
X152332583Y-72501474D01*
X152212297Y-72276433D01*
X152050418Y-72079182D01*
X151853166Y-71917303D01*
X151628125Y-71797017D01*
X151383942Y-71722944D01*
X151130000Y-71697933D01*
X150876057Y-71722944D01*
X150631874Y-71797017D01*
X150406833Y-71917303D01*
X150209582Y-72079182D01*
X150047703Y-72276434D01*
X149927417Y-72501475D01*
X149860000Y-72723716D01*
X149792583Y-72501474D01*
X149672297Y-72276433D01*
X149510418Y-72079182D01*
X149313166Y-71917303D01*
X149088125Y-71797017D01*
X148843942Y-71722944D01*
X148590000Y-71697933D01*
X148336057Y-71722944D01*
X148091874Y-71797017D01*
X147866833Y-71917303D01*
X147669582Y-72079182D01*
X147507703Y-72276434D01*
X147387417Y-72501475D01*
X147320000Y-72723716D01*
X147252583Y-72501474D01*
X147132297Y-72276433D01*
X146970418Y-72079182D01*
X146773166Y-71917303D01*
X146548125Y-71797017D01*
X146303942Y-71722944D01*
X146050000Y-71697933D01*
X145796057Y-71722944D01*
X145551874Y-71797017D01*
X145326833Y-71917303D01*
X145129582Y-72079182D01*
X144967703Y-72276434D01*
X144847417Y-72501475D01*
X144780000Y-72723716D01*
X144712583Y-72501474D01*
X144592297Y-72276433D01*
X144430418Y-72079182D01*
X144233166Y-71917303D01*
X144008125Y-71797017D01*
X143763942Y-71722944D01*
X143510000Y-71697933D01*
X143256057Y-71722944D01*
X143011874Y-71797017D01*
X142786833Y-71917303D01*
X142589582Y-72079182D01*
X142427703Y-72276434D01*
X142307417Y-72501475D01*
X142233344Y-72745658D01*
X142214600Y-72935971D01*
X142214600Y-74384030D01*
X142233344Y-74574343D01*
X142307417Y-74818526D01*
X142427704Y-75043567D01*
X142589583Y-75240818D01*
X142786834Y-75402697D01*
X143011875Y-75522983D01*
X143256058Y-75597056D01*
X143510000Y-75622067D01*
X143763943Y-75597056D01*
X144008126Y-75522983D01*
X144233167Y-75402697D01*
X144430418Y-75240818D01*
X144592297Y-75043567D01*
X144712583Y-74818526D01*
X144780000Y-74596285D01*
X144847417Y-74818526D01*
X144967704Y-75043567D01*
X145129583Y-75240818D01*
X145326834Y-75402697D01*
X145551875Y-75522983D01*
X145796058Y-75597056D01*
X146050000Y-75622067D01*
X146303943Y-75597056D01*
X146548126Y-75522983D01*
X146773167Y-75402697D01*
X146970418Y-75240818D01*
X147132297Y-75043567D01*
X147252583Y-74818526D01*
X147320000Y-74596285D01*
X147387417Y-74818526D01*
X147507704Y-75043567D01*
X147669583Y-75240818D01*
X147866834Y-75402697D01*
X148091875Y-75522983D01*
X148336058Y-75597056D01*
X148590000Y-75622067D01*
X148843943Y-75597056D01*
X149088126Y-75522983D01*
X149313167Y-75402697D01*
X149510418Y-75240818D01*
X149672297Y-75043567D01*
X149792583Y-74818526D01*
X149860000Y-74596285D01*
X149927417Y-74818526D01*
X150047704Y-75043567D01*
X150209583Y-75240818D01*
X150406834Y-75402697D01*
X150631875Y-75522983D01*
X150876058Y-75597056D01*
X151130000Y-75622067D01*
X151383943Y-75597056D01*
X151628126Y-75522983D01*
X151853167Y-75402697D01*
X152050418Y-75240818D01*
X152212297Y-75043567D01*
X152332583Y-74818526D01*
X152400000Y-74596285D01*
X152467417Y-74818526D01*
X152587704Y-75043567D01*
X152749583Y-75240818D01*
X152946834Y-75402697D01*
X153171875Y-75522983D01*
X153416058Y-75597056D01*
X153670000Y-75622067D01*
X153923943Y-75597056D01*
X154168126Y-75522983D01*
X154393167Y-75402697D01*
X154590418Y-75240818D01*
X154752297Y-75043567D01*
X154872583Y-74818526D01*
X154940000Y-74596285D01*
X155007417Y-74818526D01*
X155127704Y-75043567D01*
X155289583Y-75240818D01*
X155486834Y-75402697D01*
X155711875Y-75522983D01*
X155956058Y-75597056D01*
X156210000Y-75622067D01*
X156463943Y-75597056D01*
X156708126Y-75522983D01*
X156933167Y-75402697D01*
X157130418Y-75240818D01*
X157292297Y-75043567D01*
X157412583Y-74818526D01*
X157482506Y-74588023D01*
X157504267Y-74697680D01*
X157601807Y-74933461D01*
X157743471Y-75145683D01*
X157923816Y-75326189D01*
X158135911Y-75468044D01*
X158371605Y-75565795D01*
X158422895Y-75573820D01*
X158623000Y-75449933D01*
X158623000Y-73787000D01*
X158603000Y-73787000D01*
X158603000Y-73533000D01*
X158623000Y-73533000D01*
X158623000Y-73513000D01*
X158877000Y-73513000D01*
X158877000Y-73533000D01*
X158897000Y-73533000D01*
X158897000Y-73787000D01*
X158877000Y-73787000D01*
X158877000Y-75449933D01*
X159077105Y-75573820D01*
X159128395Y-75565795D01*
X159364089Y-75468044D01*
X159576184Y-75326189D01*
X159756529Y-75145683D01*
X159898193Y-74933461D01*
X159995733Y-74697680D01*
X160017494Y-74588023D01*
X160087417Y-74818526D01*
X160207704Y-75043567D01*
X160369583Y-75240818D01*
X160566834Y-75402697D01*
X160791875Y-75522983D01*
X161036058Y-75597056D01*
X161290000Y-75622067D01*
X161543943Y-75597056D01*
X161788126Y-75522983D01*
X162013167Y-75402697D01*
X162210418Y-75240818D01*
X162372297Y-75043567D01*
X162492583Y-74818526D01*
X162560000Y-74596285D01*
X162627417Y-74818526D01*
X162747704Y-75043567D01*
X162909583Y-75240818D01*
X163106834Y-75402697D01*
X163331875Y-75522983D01*
X163576058Y-75597056D01*
X163830000Y-75622067D01*
X164083943Y-75597056D01*
X164328126Y-75522983D01*
X164553167Y-75402697D01*
X164750418Y-75240818D01*
X164912297Y-75043567D01*
X165032583Y-74818526D01*
X165100000Y-74596285D01*
X165167417Y-74818526D01*
X165287704Y-75043567D01*
X165449583Y-75240818D01*
X165646834Y-75402697D01*
X165871875Y-75522983D01*
X166116058Y-75597056D01*
X166370000Y-75622067D01*
X166623943Y-75597056D01*
X166868126Y-75522983D01*
X167093167Y-75402697D01*
X167290418Y-75240818D01*
X167452297Y-75043567D01*
X167572583Y-74818526D01*
X167640000Y-74596285D01*
X167707417Y-74818526D01*
X167827704Y-75043567D01*
X167989583Y-75240818D01*
X168186834Y-75402697D01*
X168411875Y-75522983D01*
X168656058Y-75597056D01*
X168910000Y-75622067D01*
X169163943Y-75597056D01*
X169408126Y-75522983D01*
X169633167Y-75402697D01*
X169830418Y-75240818D01*
X169992297Y-75043567D01*
X170112583Y-74818526D01*
X170180000Y-74596285D01*
X170247417Y-74818526D01*
X170367704Y-75043567D01*
X170529583Y-75240818D01*
X170726834Y-75402697D01*
X170951875Y-75522983D01*
X171196058Y-75597056D01*
X171450000Y-75622067D01*
X171703943Y-75597056D01*
X171948126Y-75522983D01*
X172173167Y-75402697D01*
X172370418Y-75240818D01*
X172532297Y-75043567D01*
X172652583Y-74818526D01*
X172720000Y-74596285D01*
X172787417Y-74818526D01*
X172907704Y-75043567D01*
X173069583Y-75240818D01*
X173266834Y-75402697D01*
X173491875Y-75522983D01*
X173736058Y-75597056D01*
X173990000Y-75622067D01*
X174243943Y-75597056D01*
X174488126Y-75522983D01*
X174713167Y-75402697D01*
X174910418Y-75240818D01*
X175072297Y-75043567D01*
X175192583Y-74818526D01*
X175260000Y-74596285D01*
X175327417Y-74818526D01*
X175447704Y-75043567D01*
X175609583Y-75240818D01*
X175806834Y-75402697D01*
X176031875Y-75522983D01*
X176276058Y-75597056D01*
X176530000Y-75622067D01*
X176783943Y-75597056D01*
X177028126Y-75522983D01*
X177253167Y-75402697D01*
X177450418Y-75240818D01*
X177612297Y-75043567D01*
X177732583Y-74818526D01*
X177806656Y-74574343D01*
X177825400Y-74384030D01*
X177825400Y-72935970D01*
X177806656Y-72745657D01*
X177732583Y-72501474D01*
X177612297Y-72276433D01*
X177450418Y-72079182D01*
X177253166Y-71917303D01*
X177028125Y-71797017D01*
X176783942Y-71722944D01*
X176530000Y-71697933D01*
X176276057Y-71722944D01*
X176031874Y-71797017D01*
X175806833Y-71917303D01*
X175609582Y-72079182D01*
X175447703Y-72276434D01*
X175327417Y-72501475D01*
X175260000Y-72723716D01*
X175192583Y-72501474D01*
X175072297Y-72276433D01*
X174910418Y-72079182D01*
X174713166Y-71917303D01*
X174488125Y-71797017D01*
X174243942Y-71722944D01*
X173990000Y-71697933D01*
X173736057Y-71722944D01*
X173491874Y-71797017D01*
X173266833Y-71917303D01*
X173069582Y-72079182D01*
X172907703Y-72276434D01*
X172787417Y-72501475D01*
X172720000Y-72723716D01*
X172652583Y-72501474D01*
X172532297Y-72276433D01*
X172370418Y-72079182D01*
X172173166Y-71917303D01*
X171948125Y-71797017D01*
X171703942Y-71722944D01*
X171450000Y-71697933D01*
X171196057Y-71722944D01*
X170951874Y-71797017D01*
X170726833Y-71917303D01*
X170529582Y-72079182D01*
X170367703Y-72276434D01*
X170247417Y-72501475D01*
X170180000Y-72723716D01*
X170112583Y-72501474D01*
X169992297Y-72276433D01*
X169830418Y-72079182D01*
X169633166Y-71917303D01*
X169408125Y-71797017D01*
X169163942Y-71722944D01*
X168910000Y-71697933D01*
X168656057Y-71722944D01*
X168411874Y-71797017D01*
X168186833Y-71917303D01*
X167989582Y-72079182D01*
X167827703Y-72276434D01*
X167707417Y-72501475D01*
X167640000Y-72723716D01*
X167572583Y-72501474D01*
X167452297Y-72276433D01*
X167290418Y-72079182D01*
X167093166Y-71917303D01*
X166868125Y-71797017D01*
X166623942Y-71722944D01*
X166370000Y-71697933D01*
X166116057Y-71722944D01*
X165871874Y-71797017D01*
X165646833Y-71917303D01*
X165449582Y-72079182D01*
X165287703Y-72276434D01*
X165167417Y-72501475D01*
X165100000Y-72723716D01*
X165032583Y-72501474D01*
X164912297Y-72276433D01*
X164750418Y-72079182D01*
X164553166Y-71917303D01*
X164328125Y-71797017D01*
X164083942Y-71722944D01*
X163830000Y-71697933D01*
X163576057Y-71722944D01*
X163331874Y-71797017D01*
X163106833Y-71917303D01*
X162909582Y-72079182D01*
X162747703Y-72276434D01*
X162627417Y-72501475D01*
X162560000Y-72723716D01*
X162492583Y-72501474D01*
X162372297Y-72276433D01*
X162210418Y-72079182D01*
X162013166Y-71917303D01*
X161788125Y-71797017D01*
X161543942Y-71722944D01*
X161290000Y-71697933D01*
X161036057Y-71722944D01*
X160791874Y-71797017D01*
X160566833Y-71917303D01*
X160369582Y-72079182D01*
X160207703Y-72276434D01*
X160087417Y-72501475D01*
X160017494Y-72731977D01*
X159995733Y-72622320D01*
X159898193Y-72386539D01*
X159756529Y-72174317D01*
X159576184Y-71993811D01*
X159364089Y-71851956D01*
X159128395Y-71754205D01*
X159077105Y-71746180D01*
X159048355Y-71763980D01*
X163065134Y-67747200D01*
X163215911Y-67848044D01*
X163451605Y-67945795D01*
X163502895Y-67953820D01*
X163703000Y-67829933D01*
X163703000Y-66167000D01*
X163683000Y-66167000D01*
X163683000Y-65913000D01*
X163703000Y-65913000D01*
X163703000Y-65893000D01*
X163957000Y-65893000D01*
X163957000Y-65913000D01*
X163977000Y-65913000D01*
X163977000Y-66167000D01*
X163957000Y-66167000D01*
X163957000Y-67829933D01*
X164157105Y-67953820D01*
X164208395Y-67945795D01*
X164444089Y-67848044D01*
X164656184Y-67706189D01*
X164836529Y-67525683D01*
X164978193Y-67313461D01*
X165075733Y-67077680D01*
X165097494Y-66968023D01*
X165167417Y-67198526D01*
X165287704Y-67423567D01*
X165449583Y-67620818D01*
X165646834Y-67782697D01*
X165871875Y-67902983D01*
X166116058Y-67977056D01*
X166370000Y-68002067D01*
X166623943Y-67977056D01*
X166868126Y-67902983D01*
X167093167Y-67782697D01*
X167290418Y-67620818D01*
X167452297Y-67423567D01*
X167572583Y-67198526D01*
X167640000Y-66976285D01*
X167707417Y-67198526D01*
X167827704Y-67423567D01*
X167989583Y-67620818D01*
X168186834Y-67782697D01*
X168411875Y-67902983D01*
X168656058Y-67977056D01*
X168910000Y-68002067D01*
X169163943Y-67977056D01*
X169408126Y-67902983D01*
X169633167Y-67782697D01*
X169830418Y-67620818D01*
X169992297Y-67423567D01*
X170112583Y-67198526D01*
X170180000Y-66976285D01*
X170247417Y-67198526D01*
X170367704Y-67423567D01*
X170529583Y-67620818D01*
X170726834Y-67782697D01*
X170951875Y-67902983D01*
X171196058Y-67977056D01*
X171450000Y-68002067D01*
X171495598Y-67997576D01*
X172603890Y-69105869D01*
X172631603Y-69139637D01*
X172665371Y-69167350D01*
X172665373Y-69167352D01*
X172766361Y-69250231D01*
X172920106Y-69332409D01*
X173086930Y-69383015D01*
X173216943Y-69395820D01*
X173216951Y-69395820D01*
X173260420Y-69400101D01*
X173303889Y-69395820D01*
X177236430Y-69395820D01*
X177279899Y-69400101D01*
X177323368Y-69395820D01*
X177323376Y-69395820D01*
X177453389Y-69383015D01*
X177620212Y-69332409D01*
X177773958Y-69250231D01*
X177908716Y-69139637D01*
X177936433Y-69105864D01*
X187445072Y-59597226D01*
X187478838Y-59569515D01*
X187516472Y-59523659D01*
X187589431Y-59434758D01*
X187589432Y-59434757D01*
X187671610Y-59281011D01*
X187722216Y-59114188D01*
X187735021Y-58984175D01*
X187735021Y-58984165D01*
X187739302Y-58940699D01*
X187735021Y-58897233D01*
X187735021Y-35763486D01*
X187739302Y-35720020D01*
X187735021Y-35676554D01*
X187735021Y-35676544D01*
X187722216Y-35546531D01*
X187671610Y-35379708D01*
X187589432Y-35225962D01*
X187478838Y-35091204D01*
X187445070Y-35063491D01*
X185656535Y-33274957D01*
X185656531Y-33274952D01*
X185620612Y-33239033D01*
X185642185Y-33020000D01*
X185613513Y-32728889D01*
X185528599Y-32448966D01*
X185390706Y-32190986D01*
X185205134Y-31964866D01*
X184979014Y-31779294D01*
X184924209Y-31750000D01*
X184979014Y-31720706D01*
X185205134Y-31535134D01*
X185390706Y-31309014D01*
X185528599Y-31051034D01*
X185613513Y-30771111D01*
X185642185Y-30480000D01*
X185613513Y-30188889D01*
X185528599Y-29908966D01*
X185390706Y-29650986D01*
X185205134Y-29424866D01*
X184979014Y-29239294D01*
X184721034Y-29101401D01*
X184441111Y-29016487D01*
X184222950Y-28995000D01*
X184077050Y-28995000D01*
X183858889Y-29016487D01*
X183578966Y-29101401D01*
X183320986Y-29239294D01*
X183094866Y-29424866D01*
X182955241Y-29595000D01*
X168299474Y-29595000D01*
X168255998Y-29590718D01*
X168212521Y-29595000D01*
X168082508Y-29607805D01*
X167915685Y-29658411D01*
X167761939Y-29740589D01*
X167627181Y-29851183D01*
X167516587Y-29985941D01*
X167434409Y-30139687D01*
X167383803Y-30306510D01*
X167366716Y-30480000D01*
X167370998Y-30523477D01*
X167370999Y-32359424D01*
X162585000Y-37145423D01*
X162585000Y-36452285D01*
X162437623Y-35711372D01*
X162148533Y-35013446D01*
X161728839Y-34385330D01*
X161194670Y-33851161D01*
X160566554Y-33431467D01*
X159868628Y-33142377D01*
X159127715Y-32995000D01*
X158372285Y-32995000D01*
X157631372Y-33142377D01*
X156933446Y-33431467D01*
X156305330Y-33851161D01*
X155771161Y-34385330D01*
X155351467Y-35013446D01*
X155062377Y-35711372D01*
X154915000Y-36452285D01*
X154915000Y-37207715D01*
X155062377Y-37948628D01*
X155351467Y-38646554D01*
X155771161Y-39274670D01*
X156305330Y-39808839D01*
X156933446Y-40228533D01*
X157631372Y-40517623D01*
X158372285Y-40665000D01*
X159065424Y-40665000D01*
X157465425Y-42264999D01*
X155629464Y-42264999D01*
X155585998Y-42260718D01*
X155542532Y-42264999D01*
X155542522Y-42264999D01*
X155412509Y-42277804D01*
X155245686Y-42328410D01*
X155091940Y-42410588D01*
X155091938Y-42410589D01*
X155091939Y-42410589D01*
X154990952Y-42493467D01*
X154990950Y-42493469D01*
X154957182Y-42521182D01*
X154929469Y-42554950D01*
X154235356Y-43249064D01*
X154201583Y-43276781D01*
X154090989Y-43411540D01*
X154008811Y-43565286D01*
X153958205Y-43732109D01*
X153945400Y-43862122D01*
X153945400Y-43862129D01*
X153941119Y-43905598D01*
X153945400Y-43949067D01*
X153945401Y-64109454D01*
X153923942Y-64102944D01*
X153670000Y-64077933D01*
X153416057Y-64102944D01*
X153171874Y-64177017D01*
X152946833Y-64297303D01*
X152749582Y-64459182D01*
X152587703Y-64656434D01*
X152467417Y-64881475D01*
X152400000Y-65103716D01*
X152332583Y-64881474D01*
X152212297Y-64656433D01*
X152050418Y-64459182D01*
X151853166Y-64297303D01*
X151628125Y-64177017D01*
X151383942Y-64102944D01*
X151130000Y-64077933D01*
X150876057Y-64102944D01*
X150631874Y-64177017D01*
X150406833Y-64297303D01*
X150209582Y-64459182D01*
X150047703Y-64656434D01*
X149927417Y-64881475D01*
X149860000Y-65103716D01*
X149792583Y-64881474D01*
X149672297Y-64656433D01*
X149510418Y-64459182D01*
X149313166Y-64297303D01*
X149088125Y-64177017D01*
X148843942Y-64102944D01*
X148590000Y-64077933D01*
X148336057Y-64102944D01*
X148091874Y-64177017D01*
X147866833Y-64297303D01*
X147669582Y-64459182D01*
X147507703Y-64656434D01*
X147387417Y-64881475D01*
X147320000Y-65103716D01*
X147252583Y-64881474D01*
X147132297Y-64656433D01*
X146970418Y-64459182D01*
X146773166Y-64297303D01*
X146548125Y-64177017D01*
X146303942Y-64102944D01*
X146050000Y-64077933D01*
X145796057Y-64102944D01*
X145551874Y-64177017D01*
X145326833Y-64297303D01*
X145129582Y-64459182D01*
X144967703Y-64656434D01*
X144847417Y-64881475D01*
X144780000Y-65103716D01*
X144712583Y-64881474D01*
X144592297Y-64656433D01*
X144430418Y-64459182D01*
X144233166Y-64297303D01*
X144008125Y-64177017D01*
X143763942Y-64102944D01*
X143510000Y-64077933D01*
X143256057Y-64102944D01*
X143011874Y-64177017D01*
X142786833Y-64297303D01*
X142589582Y-64459182D01*
X142427703Y-64656434D01*
X142307417Y-64881475D01*
X142233344Y-65125658D01*
X142214600Y-65315971D01*
X127660000Y-65315971D01*
X127660000Y-58190000D01*
X133751928Y-58190000D01*
X133751928Y-61190000D01*
X133764188Y-61314482D01*
X133800498Y-61434180D01*
X133859463Y-61544494D01*
X133938815Y-61641185D01*
X134035506Y-61720537D01*
X134145820Y-61779502D01*
X134265518Y-61815812D01*
X134390000Y-61828072D01*
X137390000Y-61828072D01*
X137514482Y-61815812D01*
X137634180Y-61779502D01*
X137744494Y-61720537D01*
X137841185Y-61641185D01*
X137920537Y-61544494D01*
X137979502Y-61434180D01*
X138015812Y-61314482D01*
X138028072Y-61190000D01*
X138028072Y-58190000D01*
X138015812Y-58065518D01*
X137979502Y-57945820D01*
X137920537Y-57835506D01*
X137841185Y-57738815D01*
X137744494Y-57659463D01*
X137634180Y-57600498D01*
X137514482Y-57564188D01*
X137390000Y-57551928D01*
X134390000Y-57551928D01*
X134265518Y-57564188D01*
X134145820Y-57600498D01*
X134035506Y-57659463D01*
X133938815Y-57738815D01*
X133859463Y-57835506D01*
X133800498Y-57945820D01*
X133764188Y-58065518D01*
X133751928Y-58190000D01*
X127660000Y-58190000D01*
X127660000Y-54399721D01*
X133755000Y-54399721D01*
X133755000Y-54820279D01*
X133837047Y-55232756D01*
X133997988Y-55621302D01*
X134231637Y-55970983D01*
X134529017Y-56268363D01*
X134878698Y-56502012D01*
X135267244Y-56662953D01*
X135679721Y-56745000D01*
X136100279Y-56745000D01*
X136512756Y-56662953D01*
X136901302Y-56502012D01*
X137250983Y-56268363D01*
X137548363Y-55970983D01*
X137782012Y-55621302D01*
X137942953Y-55232756D01*
X138025000Y-54820279D01*
X138025000Y-54399721D01*
X137942953Y-53987244D01*
X137782012Y-53598698D01*
X137548363Y-53249017D01*
X137250983Y-52951637D01*
X136901302Y-52717988D01*
X136512756Y-52557047D01*
X136100279Y-52475000D01*
X135679721Y-52475000D01*
X135267244Y-52557047D01*
X134878698Y-52717988D01*
X134529017Y-52951637D01*
X134231637Y-53249017D01*
X133997988Y-53598698D01*
X133837047Y-53987244D01*
X133755000Y-54399721D01*
X127660000Y-54399721D01*
X127660000Y-49319721D01*
X133755000Y-49319721D01*
X133755000Y-49740279D01*
X133837047Y-50152756D01*
X133997988Y-50541302D01*
X134231637Y-50890983D01*
X134529017Y-51188363D01*
X134878698Y-51422012D01*
X135267244Y-51582953D01*
X135679721Y-51665000D01*
X136100279Y-51665000D01*
X136512756Y-51582953D01*
X136901302Y-51422012D01*
X137250983Y-51188363D01*
X137548363Y-50890983D01*
X137782012Y-50541302D01*
X137942953Y-50152756D01*
X138025000Y-49740279D01*
X138025000Y-49319721D01*
X137942953Y-48907244D01*
X137782012Y-48518698D01*
X137548363Y-48169017D01*
X137250983Y-47871637D01*
X136901302Y-47637988D01*
X136512756Y-47477047D01*
X136100279Y-47395000D01*
X135679721Y-47395000D01*
X135267244Y-47477047D01*
X134878698Y-47637988D01*
X134529017Y-47871637D01*
X134231637Y-48169017D01*
X133997988Y-48518698D01*
X133837047Y-48907244D01*
X133755000Y-49319721D01*
X127660000Y-49319721D01*
X127660000Y-43410000D01*
X133751928Y-43410000D01*
X133764188Y-43534482D01*
X133800498Y-43654180D01*
X133859463Y-43764494D01*
X133938815Y-43861185D01*
X134035506Y-43940537D01*
X134145820Y-43999502D01*
X134265518Y-44035812D01*
X134390000Y-44048072D01*
X135604250Y-44045000D01*
X135763000Y-43886250D01*
X135763000Y-42037000D01*
X136017000Y-42037000D01*
X136017000Y-43886250D01*
X136175750Y-44045000D01*
X137390000Y-44048072D01*
X137514482Y-44035812D01*
X137634180Y-43999502D01*
X137744494Y-43940537D01*
X137841185Y-43861185D01*
X137920537Y-43764494D01*
X137979502Y-43654180D01*
X138015812Y-43534482D01*
X138028072Y-43410000D01*
X138025000Y-42195750D01*
X137866250Y-42037000D01*
X136017000Y-42037000D01*
X135763000Y-42037000D01*
X133913750Y-42037000D01*
X133755000Y-42195750D01*
X133751928Y-43410000D01*
X127660000Y-43410000D01*
X127660000Y-40410000D01*
X133751928Y-40410000D01*
X133755000Y-41624250D01*
X133913750Y-41783000D01*
X135763000Y-41783000D01*
X135763000Y-39933750D01*
X136017000Y-39933750D01*
X136017000Y-41783000D01*
X137866250Y-41783000D01*
X138025000Y-41624250D01*
X138028072Y-40410000D01*
X138015812Y-40285518D01*
X137979502Y-40165820D01*
X137920537Y-40055506D01*
X137841185Y-39958815D01*
X137744494Y-39879463D01*
X137634180Y-39820498D01*
X137514482Y-39784188D01*
X137390000Y-39771928D01*
X136175750Y-39775000D01*
X136017000Y-39933750D01*
X135763000Y-39933750D01*
X135604250Y-39775000D01*
X134390000Y-39771928D01*
X134265518Y-39784188D01*
X134145820Y-39820498D01*
X134035506Y-39879463D01*
X133938815Y-39958815D01*
X133859463Y-40055506D01*
X133800498Y-40165820D01*
X133764188Y-40285518D01*
X133751928Y-40410000D01*
X127660000Y-40410000D01*
X127660000Y-38321653D01*
X134577952Y-38321653D01*
X134733962Y-38637214D01*
X135108745Y-38828020D01*
X135513551Y-38942044D01*
X135932824Y-38974902D01*
X136350451Y-38925334D01*
X136750383Y-38795243D01*
X137046038Y-38637214D01*
X137202048Y-38321653D01*
X135890000Y-37009605D01*
X134577952Y-38321653D01*
X127660000Y-38321653D01*
X127660000Y-36872824D01*
X133745098Y-36872824D01*
X133794666Y-37290451D01*
X133924757Y-37690383D01*
X134082786Y-37986038D01*
X134398347Y-38142048D01*
X135710395Y-36830000D01*
X136069605Y-36830000D01*
X137381653Y-38142048D01*
X137697214Y-37986038D01*
X137888020Y-37611255D01*
X138002044Y-37206449D01*
X138034902Y-36787176D01*
X137985334Y-36369549D01*
X137855243Y-35969617D01*
X137697214Y-35673962D01*
X137381653Y-35517952D01*
X136069605Y-36830000D01*
X135710395Y-36830000D01*
X134398347Y-35517952D01*
X134082786Y-35673962D01*
X133891980Y-36048745D01*
X133777956Y-36453551D01*
X133745098Y-36872824D01*
X127660000Y-36872824D01*
X127660000Y-35338347D01*
X134577952Y-35338347D01*
X135890000Y-36650395D01*
X137202048Y-35338347D01*
X137046038Y-35022786D01*
X136671255Y-34831980D01*
X136266449Y-34717956D01*
X135847176Y-34685098D01*
X135429549Y-34734666D01*
X135029617Y-34864757D01*
X134733962Y-35022786D01*
X134577952Y-35338347D01*
X127660000Y-35338347D01*
X127660000Y-33241653D01*
X134577952Y-33241653D01*
X134733962Y-33557214D01*
X135108745Y-33748020D01*
X135513551Y-33862044D01*
X135932824Y-33894902D01*
X136350451Y-33845334D01*
X136750383Y-33715243D01*
X137046038Y-33557214D01*
X137202048Y-33241653D01*
X135890000Y-31929605D01*
X134577952Y-33241653D01*
X127660000Y-33241653D01*
X127660000Y-31792824D01*
X133745098Y-31792824D01*
X133794666Y-32210451D01*
X133924757Y-32610383D01*
X134082786Y-32906038D01*
X134398347Y-33062048D01*
X135710395Y-31750000D01*
X136069605Y-31750000D01*
X137381653Y-33062048D01*
X137697214Y-32906038D01*
X137888020Y-32531255D01*
X138002044Y-32126449D01*
X138034902Y-31707176D01*
X137985334Y-31289549D01*
X137855243Y-30889617D01*
X137697214Y-30593962D01*
X137381653Y-30437952D01*
X136069605Y-31750000D01*
X135710395Y-31750000D01*
X134398347Y-30437952D01*
X134082786Y-30593962D01*
X133891980Y-30968745D01*
X133777956Y-31373551D01*
X133745098Y-31792824D01*
X127660000Y-31792824D01*
X127660000Y-30258347D01*
X134577952Y-30258347D01*
X135890000Y-31570395D01*
X137202048Y-30258347D01*
X137046038Y-29942786D01*
X136671255Y-29751980D01*
X136266449Y-29637956D01*
X135847176Y-29605098D01*
X135429549Y-29654666D01*
X135029617Y-29784757D01*
X134733962Y-29942786D01*
X134577952Y-30258347D01*
X127660000Y-30258347D01*
X127660000Y-29210000D01*
X154717815Y-29210000D01*
X154746487Y-29501111D01*
X154831401Y-29781034D01*
X154969294Y-30039014D01*
X155154866Y-30265134D01*
X155380986Y-30450706D01*
X155638966Y-30588599D01*
X155918889Y-30673513D01*
X156137050Y-30695000D01*
X156282950Y-30695000D01*
X156501111Y-30673513D01*
X156781034Y-30588599D01*
X157039014Y-30450706D01*
X157265134Y-30265134D01*
X157450706Y-30039014D01*
X157480000Y-29984209D01*
X157509294Y-30039014D01*
X157694866Y-30265134D01*
X157920986Y-30450706D01*
X158178966Y-30588599D01*
X158458889Y-30673513D01*
X158677050Y-30695000D01*
X158822950Y-30695000D01*
X159041111Y-30673513D01*
X159321034Y-30588599D01*
X159579014Y-30450706D01*
X159805134Y-30265134D01*
X159829607Y-30235313D01*
X159850498Y-30304180D01*
X159909463Y-30414494D01*
X159988815Y-30511185D01*
X160085506Y-30590537D01*
X160195820Y-30649502D01*
X160315518Y-30685812D01*
X160440000Y-30698072D01*
X161004250Y-30695000D01*
X161163000Y-30536250D01*
X161163000Y-29337000D01*
X161417000Y-29337000D01*
X161417000Y-30536250D01*
X161575750Y-30695000D01*
X162140000Y-30698072D01*
X162264482Y-30685812D01*
X162384180Y-30649502D01*
X162494494Y-30590537D01*
X162591185Y-30511185D01*
X162670537Y-30414494D01*
X162729502Y-30304180D01*
X162765812Y-30184482D01*
X162778072Y-30060000D01*
X162775000Y-29495750D01*
X162616250Y-29337000D01*
X161417000Y-29337000D01*
X161163000Y-29337000D01*
X161143000Y-29337000D01*
X161143000Y-29083000D01*
X161163000Y-29083000D01*
X161163000Y-27883750D01*
X161417000Y-27883750D01*
X161417000Y-29083000D01*
X162616250Y-29083000D01*
X162775000Y-28924250D01*
X162778072Y-28360000D01*
X162765812Y-28235518D01*
X162729502Y-28115820D01*
X162670537Y-28005506D01*
X162591185Y-27908815D01*
X162494494Y-27829463D01*
X162384180Y-27770498D01*
X162264482Y-27734188D01*
X162140000Y-27721928D01*
X161575750Y-27725000D01*
X161417000Y-27883750D01*
X161163000Y-27883750D01*
X161004250Y-27725000D01*
X160440000Y-27721928D01*
X160315518Y-27734188D01*
X160195820Y-27770498D01*
X160085506Y-27829463D01*
X159988815Y-27908815D01*
X159909463Y-28005506D01*
X159850498Y-28115820D01*
X159829607Y-28184687D01*
X159805134Y-28154866D01*
X159579014Y-27969294D01*
X159321034Y-27831401D01*
X159041111Y-27746487D01*
X158822950Y-27725000D01*
X158677050Y-27725000D01*
X158458889Y-27746487D01*
X158178966Y-27831401D01*
X157920986Y-27969294D01*
X157694866Y-28154866D01*
X157509294Y-28380986D01*
X157480000Y-28435791D01*
X157450706Y-28380986D01*
X157265134Y-28154866D01*
X157039014Y-27969294D01*
X156781034Y-27831401D01*
X156501111Y-27746487D01*
X156282950Y-27725000D01*
X156137050Y-27725000D01*
X155918889Y-27746487D01*
X155638966Y-27831401D01*
X155380986Y-27969294D01*
X155154866Y-28154866D01*
X154969294Y-28380986D01*
X154831401Y-28638966D01*
X154746487Y-28918889D01*
X154717815Y-29210000D01*
X127660000Y-29210000D01*
X127660000Y-26060000D01*
X189840000Y-26060000D01*
X189840001Y-151740000D01*
G36*
X163957000Y-104013000D02*
G01*
X163977000Y-104013000D01*
X163977000Y-104267000D01*
X163957000Y-104267000D01*
X163957000Y-105929933D01*
X164157105Y-106053820D01*
X164208395Y-106045795D01*
X164444089Y-105948044D01*
X164656184Y-105806189D01*
X164836529Y-105625683D01*
X164978193Y-105413461D01*
X165075733Y-105177680D01*
X165097494Y-105068023D01*
X165167417Y-105298526D01*
X165287704Y-105523567D01*
X165449583Y-105720818D01*
X165646834Y-105882697D01*
X165871875Y-106002983D01*
X166116058Y-106077056D01*
X166370000Y-106102067D01*
X166415597Y-106097576D01*
X166873870Y-106555849D01*
X166901583Y-106589617D01*
X166935351Y-106617330D01*
X166935353Y-106617332D01*
X167006852Y-106676010D01*
X167036341Y-106700211D01*
X167190087Y-106782389D01*
X167356910Y-106832995D01*
X167486923Y-106845800D01*
X167486933Y-106845800D01*
X167530399Y-106850081D01*
X167573865Y-106845800D01*
X172594978Y-106845800D01*
X175784670Y-110035492D01*
X175609582Y-110179182D01*
X175447703Y-110376434D01*
X175327417Y-110601475D01*
X175260000Y-110823716D01*
X175192583Y-110601474D01*
X175072297Y-110376433D01*
X174910418Y-110179182D01*
X174713166Y-110017303D01*
X174488125Y-109897017D01*
X174243942Y-109822944D01*
X173990000Y-109797933D01*
X173736057Y-109822944D01*
X173491874Y-109897017D01*
X173266833Y-110017303D01*
X173069582Y-110179182D01*
X172907703Y-110376434D01*
X172787417Y-110601475D01*
X172720000Y-110823716D01*
X172652583Y-110601474D01*
X172532297Y-110376433D01*
X172370418Y-110179182D01*
X172173166Y-110017303D01*
X171948125Y-109897017D01*
X171703942Y-109822944D01*
X171450000Y-109797933D01*
X171196057Y-109822944D01*
X170951874Y-109897017D01*
X170726833Y-110017303D01*
X170529582Y-110179182D01*
X170367703Y-110376434D01*
X170247417Y-110601475D01*
X170180000Y-110823716D01*
X170112583Y-110601474D01*
X169992297Y-110376433D01*
X169830418Y-110179182D01*
X169633166Y-110017303D01*
X169408125Y-109897017D01*
X169163942Y-109822944D01*
X168910000Y-109797933D01*
X168656057Y-109822944D01*
X168411874Y-109897017D01*
X168186833Y-110017303D01*
X167989582Y-110179182D01*
X167827703Y-110376434D01*
X167707417Y-110601475D01*
X167640000Y-110823716D01*
X167572583Y-110601474D01*
X167452297Y-110376433D01*
X167290418Y-110179182D01*
X167093166Y-110017303D01*
X166868125Y-109897017D01*
X166623942Y-109822944D01*
X166370000Y-109797933D01*
X166116057Y-109822944D01*
X165871874Y-109897017D01*
X165646833Y-110017303D01*
X165449582Y-110179182D01*
X165287703Y-110376434D01*
X165167417Y-110601475D01*
X165100000Y-110823716D01*
X165032583Y-110601474D01*
X164912297Y-110376433D01*
X164750418Y-110179182D01*
X164553166Y-110017303D01*
X164328125Y-109897017D01*
X164083942Y-109822944D01*
X163830000Y-109797933D01*
X163576057Y-109822944D01*
X163331874Y-109897017D01*
X163106833Y-110017303D01*
X162909582Y-110179182D01*
X162747703Y-110376434D01*
X162627417Y-110601475D01*
X162560000Y-110823716D01*
X162492583Y-110601474D01*
X162372297Y-110376433D01*
X162210418Y-110179182D01*
X162013166Y-110017303D01*
X161788125Y-109897017D01*
X161543942Y-109822944D01*
X161290000Y-109797933D01*
X161036057Y-109822944D01*
X160791874Y-109897017D01*
X160566833Y-110017303D01*
X160369582Y-110179182D01*
X160207703Y-110376434D01*
X160087417Y-110601475D01*
X160017494Y-110831977D01*
X159995733Y-110722320D01*
X159898193Y-110486539D01*
X159756529Y-110274317D01*
X159576184Y-110093811D01*
X159364089Y-109951956D01*
X159128395Y-109854205D01*
X159077105Y-109846180D01*
X158877000Y-109970067D01*
X158877000Y-111633000D01*
X158897000Y-111633000D01*
X158897000Y-111887000D01*
X158877000Y-111887000D01*
X158877000Y-113549933D01*
X159077105Y-113673820D01*
X159128395Y-113665795D01*
X159364089Y-113568044D01*
X159576184Y-113426189D01*
X159756529Y-113245683D01*
X159898193Y-113033461D01*
X159995733Y-112797680D01*
X160017494Y-112688023D01*
X160087417Y-112918526D01*
X160207704Y-113143567D01*
X160369583Y-113340818D01*
X160566834Y-113502697D01*
X160791875Y-113622983D01*
X161036058Y-113697056D01*
X161290000Y-113722067D01*
X161543943Y-113697056D01*
X161788126Y-113622983D01*
X162013167Y-113502697D01*
X162210418Y-113340818D01*
X162372297Y-113143567D01*
X162492583Y-112918526D01*
X162560000Y-112696285D01*
X162627417Y-112918526D01*
X162747704Y-113143567D01*
X162909583Y-113340818D01*
X163106834Y-113502697D01*
X163331875Y-113622983D01*
X163576058Y-113697056D01*
X163830000Y-113722067D01*
X164083943Y-113697056D01*
X164328126Y-113622983D01*
X164553167Y-113502697D01*
X164750418Y-113340818D01*
X164912297Y-113143567D01*
X165032583Y-112918526D01*
X165100000Y-112696285D01*
X165167417Y-112918526D01*
X165287704Y-113143567D01*
X165449583Y-113340818D01*
X165485001Y-113369884D01*
X165485000Y-119336531D01*
X165480719Y-119380000D01*
X165485000Y-119423469D01*
X165485000Y-119423476D01*
X165497805Y-119553489D01*
X165548411Y-119720312D01*
X165630589Y-119874058D01*
X165741183Y-120008817D01*
X165774956Y-120036534D01*
X167481983Y-121743561D01*
X167475000Y-121778665D01*
X167475000Y-122061335D01*
X167530147Y-122338574D01*
X167638320Y-122599727D01*
X167795363Y-122834759D01*
X167995241Y-123034637D01*
X168230273Y-123191680D01*
X168491426Y-123299853D01*
X168768665Y-123355000D01*
X169051335Y-123355000D01*
X169328574Y-123299853D01*
X169589727Y-123191680D01*
X169796395Y-123053589D01*
X172605000Y-123053589D01*
X172605000Y-123326411D01*
X172658225Y-123593989D01*
X172762629Y-123846043D01*
X172914201Y-124072886D01*
X173107114Y-124265799D01*
X173333957Y-124417371D01*
X173586011Y-124521775D01*
X173853589Y-124575000D01*
X174126411Y-124575000D01*
X174393989Y-124521775D01*
X174646043Y-124417371D01*
X174872886Y-124265799D01*
X175065799Y-124072886D01*
X175217371Y-123846043D01*
X175321775Y-123593989D01*
X175375000Y-123326411D01*
X175375000Y-123053589D01*
X175321775Y-122786011D01*
X175217371Y-122533957D01*
X175065799Y-122307114D01*
X174872886Y-122114201D01*
X174646043Y-121962629D01*
X174393989Y-121858225D01*
X174126411Y-121805000D01*
X173853589Y-121805000D01*
X173586011Y-121858225D01*
X173333957Y-121962629D01*
X173107114Y-122114201D01*
X172914201Y-122307114D01*
X172762629Y-122533957D01*
X172658225Y-122786011D01*
X172605000Y-123053589D01*
X169796395Y-123053589D01*
X169824759Y-123034637D01*
X170024637Y-122834759D01*
X170181680Y-122599727D01*
X170289853Y-122338574D01*
X170345000Y-122061335D01*
X170345000Y-121778665D01*
X170289853Y-121501426D01*
X170181680Y-121240273D01*
X170024637Y-121005241D01*
X169824759Y-120805363D01*
X169589727Y-120648320D01*
X169328574Y-120540147D01*
X169051335Y-120485000D01*
X168768665Y-120485000D01*
X168733561Y-120491983D01*
X167255000Y-119013422D01*
X167255000Y-117968665D01*
X167395000Y-117968665D01*
X167395000Y-118251335D01*
X167450147Y-118528574D01*
X167558320Y-118789727D01*
X167715363Y-119024759D01*
X167915241Y-119224637D01*
X168150273Y-119381680D01*
X168411426Y-119489853D01*
X168688665Y-119545000D01*
X168971335Y-119545000D01*
X169248574Y-119489853D01*
X169509727Y-119381680D01*
X169744759Y-119224637D01*
X169944637Y-119024759D01*
X170101680Y-118789727D01*
X170209853Y-118528574D01*
X170265000Y-118251335D01*
X170265000Y-118173589D01*
X172605000Y-118173589D01*
X172605000Y-118446411D01*
X172658225Y-118713989D01*
X172762629Y-118966043D01*
X172914201Y-119192886D01*
X173107114Y-119385799D01*
X173333957Y-119537371D01*
X173586011Y-119641775D01*
X173853589Y-119695000D01*
X174126411Y-119695000D01*
X174393989Y-119641775D01*
X174646043Y-119537371D01*
X174872886Y-119385799D01*
X175065799Y-119192886D01*
X175217371Y-118966043D01*
X175321775Y-118713989D01*
X175375000Y-118446411D01*
X175375000Y-118173589D01*
X175321775Y-117906011D01*
X175217371Y-117653957D01*
X175065799Y-117427114D01*
X174872886Y-117234201D01*
X174646043Y-117082629D01*
X174393989Y-116978225D01*
X174126411Y-116925000D01*
X173853589Y-116925000D01*
X173586011Y-116978225D01*
X173333957Y-117082629D01*
X173107114Y-117234201D01*
X172914201Y-117427114D01*
X172762629Y-117653957D01*
X172658225Y-117906011D01*
X172605000Y-118173589D01*
X170265000Y-118173589D01*
X170265000Y-117968665D01*
X170209853Y-117691426D01*
X170101680Y-117430273D01*
X169944637Y-117195241D01*
X169744759Y-116995363D01*
X169509727Y-116838320D01*
X169248574Y-116730147D01*
X168971335Y-116675000D01*
X168688665Y-116675000D01*
X168411426Y-116730147D01*
X168150273Y-116838320D01*
X167915241Y-116995363D01*
X167715363Y-117195241D01*
X167558320Y-117430273D01*
X167450147Y-117691426D01*
X167395000Y-117968665D01*
X167255000Y-117968665D01*
X167255000Y-113369885D01*
X167290418Y-113340818D01*
X167452297Y-113143567D01*
X167572583Y-112918526D01*
X167640000Y-112696285D01*
X167707417Y-112918526D01*
X167827704Y-113143567D01*
X167989583Y-113340818D01*
X168186834Y-113502697D01*
X168411875Y-113622983D01*
X168656058Y-113697056D01*
X168910000Y-113722067D01*
X169163943Y-113697056D01*
X169408126Y-113622983D01*
X169633167Y-113502697D01*
X169830418Y-113340818D01*
X169992297Y-113143567D01*
X170112583Y-112918526D01*
X170180000Y-112696285D01*
X170247417Y-112918526D01*
X170367704Y-113143567D01*
X170529583Y-113340818D01*
X170726834Y-113502697D01*
X170951875Y-113622983D01*
X171196058Y-113697056D01*
X171450000Y-113722067D01*
X171703943Y-113697056D01*
X171948126Y-113622983D01*
X172173167Y-113502697D01*
X172370418Y-113340818D01*
X172532297Y-113143567D01*
X172652583Y-112918526D01*
X172720000Y-112696285D01*
X172787417Y-112918526D01*
X172907704Y-113143567D01*
X173069583Y-113340818D01*
X173266834Y-113502697D01*
X173491875Y-113622983D01*
X173736058Y-113697056D01*
X173990000Y-113722067D01*
X174243943Y-113697056D01*
X174488126Y-113622983D01*
X174713167Y-113502697D01*
X174910418Y-113340818D01*
X175072297Y-113143567D01*
X175192583Y-112918526D01*
X175260000Y-112696285D01*
X175327417Y-112918526D01*
X175447704Y-113143567D01*
X175609583Y-113340818D01*
X175806834Y-113502697D01*
X176031875Y-113622983D01*
X176276058Y-113697056D01*
X176530000Y-113722067D01*
X176783943Y-113697056D01*
X177028126Y-113622983D01*
X177253167Y-113502697D01*
X177450418Y-113340818D01*
X177612297Y-113143567D01*
X177732583Y-112918526D01*
X177806656Y-112674343D01*
X177825400Y-112484030D01*
X177825400Y-112076222D01*
X184565002Y-118815825D01*
X184565001Y-142084069D01*
X184441111Y-142046487D01*
X184222950Y-142025000D01*
X184077050Y-142025000D01*
X183858889Y-142046487D01*
X183578966Y-142131401D01*
X183320986Y-142269294D01*
X183094866Y-142454866D01*
X182909294Y-142680986D01*
X182880000Y-142735791D01*
X182850706Y-142680986D01*
X182665134Y-142454866D01*
X182439014Y-142269294D01*
X182181034Y-142131401D01*
X181901111Y-142046487D01*
X181682950Y-142025000D01*
X181537050Y-142025000D01*
X181318889Y-142046487D01*
X181038966Y-142131401D01*
X180780986Y-142269294D01*
X180554866Y-142454866D01*
X180369294Y-142680986D01*
X180340000Y-142735791D01*
X180310706Y-142680986D01*
X180125134Y-142454866D01*
X179899014Y-142269294D01*
X179641034Y-142131401D01*
X179361111Y-142046487D01*
X179142950Y-142025000D01*
X178997050Y-142025000D01*
X178850967Y-142039388D01*
X157240244Y-120428665D01*
X158585000Y-120428665D01*
X158585000Y-120711335D01*
X158640147Y-120988574D01*
X158748320Y-121249727D01*
X158905363Y-121484759D01*
X159105241Y-121684637D01*
X159340273Y-121841680D01*
X159601426Y-121949853D01*
X159878665Y-122005000D01*
X160161335Y-122005000D01*
X160438574Y-121949853D01*
X160699727Y-121841680D01*
X160904284Y-121705000D01*
X162089869Y-121705000D01*
X162482150Y-122097282D01*
X162530147Y-122338574D01*
X162638320Y-122599727D01*
X162795363Y-122834759D01*
X162995241Y-123034637D01*
X163230273Y-123191680D01*
X163491426Y-123299853D01*
X163768665Y-123355000D01*
X164051335Y-123355000D01*
X164328574Y-123299853D01*
X164589727Y-123191680D01*
X164824759Y-123034637D01*
X165024637Y-122834759D01*
X165181680Y-122599727D01*
X165289853Y-122338574D01*
X165345000Y-122061335D01*
X165345000Y-121778665D01*
X165289853Y-121501426D01*
X165181680Y-121240273D01*
X165024637Y-121005241D01*
X164824759Y-120805363D01*
X164589727Y-120648320D01*
X164328574Y-120540147D01*
X164087282Y-120492150D01*
X163401996Y-119806865D01*
X163366449Y-119763551D01*
X163193623Y-119621716D01*
X162996447Y-119516324D01*
X162782499Y-119451423D01*
X162615752Y-119435000D01*
X162615751Y-119435000D01*
X162560000Y-119429509D01*
X162504249Y-119435000D01*
X160904284Y-119435000D01*
X160699727Y-119298320D01*
X160438574Y-119190147D01*
X160161335Y-119135000D01*
X159878665Y-119135000D01*
X159601426Y-119190147D01*
X159340273Y-119298320D01*
X159105241Y-119455363D01*
X158905363Y-119655241D01*
X158748320Y-119890273D01*
X158640147Y-120151426D01*
X158585000Y-120428665D01*
X157240244Y-120428665D01*
X157095000Y-120283422D01*
X157095000Y-117968665D01*
X162395000Y-117968665D01*
X162395000Y-118251335D01*
X162450147Y-118528574D01*
X162558320Y-118789727D01*
X162715363Y-119024759D01*
X162915241Y-119224637D01*
X163150273Y-119381680D01*
X163411426Y-119489853D01*
X163688665Y-119545000D01*
X163971335Y-119545000D01*
X164248574Y-119489853D01*
X164509727Y-119381680D01*
X164744759Y-119224637D01*
X164944637Y-119024759D01*
X165101680Y-118789727D01*
X165209853Y-118528574D01*
X165265000Y-118251335D01*
X165265000Y-117968665D01*
X165209853Y-117691426D01*
X165101680Y-117430273D01*
X164944637Y-117195241D01*
X164744759Y-116995363D01*
X164509727Y-116838320D01*
X164248574Y-116730147D01*
X163971335Y-116675000D01*
X163688665Y-116675000D01*
X163411426Y-116730147D01*
X163150273Y-116838320D01*
X162915241Y-116995363D01*
X162715363Y-117195241D01*
X162558320Y-117430273D01*
X162450147Y-117691426D01*
X162395000Y-117968665D01*
X157095000Y-117968665D01*
X157095000Y-116562702D01*
X159206903Y-116562702D01*
X159278486Y-116806671D01*
X159533996Y-116927571D01*
X159808184Y-116996300D01*
X160090512Y-117010217D01*
X160370130Y-116968787D01*
X160636292Y-116873603D01*
X160761514Y-116806671D01*
X160833097Y-116562702D01*
X160020000Y-115749605D01*
X159206903Y-116562702D01*
X157095000Y-116562702D01*
X157095000Y-115640512D01*
X158579783Y-115640512D01*
X158621213Y-115920130D01*
X158716397Y-116186292D01*
X158783329Y-116311514D01*
X159027298Y-116383097D01*
X159840395Y-115570000D01*
X160199605Y-115570000D01*
X161012702Y-116383097D01*
X161256671Y-116311514D01*
X161377571Y-116056004D01*
X161446300Y-115781816D01*
X161460217Y-115499488D01*
X161418787Y-115219870D01*
X161323603Y-114953708D01*
X161256671Y-114828486D01*
X161012702Y-114756903D01*
X160199605Y-115570000D01*
X159840395Y-115570000D01*
X159027298Y-114756903D01*
X158783329Y-114828486D01*
X158662429Y-115083996D01*
X158593700Y-115358184D01*
X158579783Y-115640512D01*
X157095000Y-115640512D01*
X157095000Y-114577298D01*
X159206903Y-114577298D01*
X160020000Y-115390395D01*
X160833097Y-114577298D01*
X160761514Y-114333329D01*
X160506004Y-114212429D01*
X160231816Y-114143700D01*
X159949488Y-114129783D01*
X159669870Y-114171213D01*
X159403708Y-114266397D01*
X159278486Y-114333329D01*
X159206903Y-114577298D01*
X157095000Y-114577298D01*
X157095000Y-113369885D01*
X157130418Y-113340818D01*
X157292297Y-113143567D01*
X157412583Y-112918526D01*
X157482506Y-112688023D01*
X157504267Y-112797680D01*
X157601807Y-113033461D01*
X157743471Y-113245683D01*
X157923816Y-113426189D01*
X158135911Y-113568044D01*
X158371605Y-113665795D01*
X158422895Y-113673820D01*
X158623000Y-113549933D01*
X158623000Y-111887000D01*
X158603000Y-111887000D01*
X158603000Y-111633000D01*
X158623000Y-111633000D01*
X158623000Y-109970067D01*
X158422895Y-109846180D01*
X158371605Y-109854205D01*
X158135911Y-109951956D01*
X157923816Y-110093811D01*
X157743471Y-110274317D01*
X157601807Y-110486539D01*
X157504267Y-110722320D01*
X157482506Y-110831977D01*
X157412583Y-110601474D01*
X157292297Y-110376433D01*
X157130418Y-110179182D01*
X156933166Y-110017303D01*
X156708125Y-109897017D01*
X156463942Y-109822944D01*
X156210000Y-109797933D01*
X155956057Y-109822944D01*
X155711874Y-109897017D01*
X155486833Y-110017303D01*
X155289582Y-110179182D01*
X155127703Y-110376434D01*
X155007417Y-110601475D01*
X154940000Y-110823716D01*
X154872583Y-110601474D01*
X154752297Y-110376433D01*
X154590418Y-110179182D01*
X154393166Y-110017303D01*
X154168125Y-109897017D01*
X153923942Y-109822944D01*
X153670000Y-109797933D01*
X153416057Y-109822944D01*
X153171874Y-109897017D01*
X152946833Y-110017303D01*
X152749582Y-110179182D01*
X152587703Y-110376434D01*
X152467417Y-110601475D01*
X152400000Y-110823716D01*
X152332583Y-110601474D01*
X152212297Y-110376433D01*
X152050418Y-110179182D01*
X151853166Y-110017303D01*
X151628125Y-109897017D01*
X151383942Y-109822944D01*
X151130000Y-109797933D01*
X150876057Y-109822944D01*
X150631874Y-109897017D01*
X150406833Y-110017303D01*
X150209582Y-110179182D01*
X150047703Y-110376434D01*
X149927417Y-110601475D01*
X149860000Y-110823716D01*
X149792583Y-110601474D01*
X149672297Y-110376433D01*
X149510418Y-110179182D01*
X149313166Y-110017303D01*
X149088125Y-109897017D01*
X148843942Y-109822944D01*
X148590000Y-109797933D01*
X148336057Y-109822944D01*
X148091874Y-109897017D01*
X147866833Y-110017303D01*
X147669582Y-110179182D01*
X147507703Y-110376434D01*
X147387417Y-110601475D01*
X147320000Y-110823716D01*
X147252583Y-110601474D01*
X147132297Y-110376433D01*
X146970418Y-110179182D01*
X146773166Y-110017303D01*
X146548125Y-109897017D01*
X146303942Y-109822944D01*
X146050000Y-109797933D01*
X145796057Y-109822944D01*
X145551874Y-109897017D01*
X145326833Y-110017303D01*
X145129582Y-110179182D01*
X144967703Y-110376434D01*
X144847417Y-110601475D01*
X144780000Y-110823716D01*
X144712583Y-110601474D01*
X144592297Y-110376433D01*
X144430418Y-110179182D01*
X144233166Y-110017303D01*
X144008125Y-109897017D01*
X143763942Y-109822944D01*
X143510000Y-109797933D01*
X143256057Y-109822944D01*
X143011874Y-109897017D01*
X142786833Y-110017303D01*
X142589582Y-110179182D01*
X142427703Y-110376434D01*
X142307417Y-110601475D01*
X142233344Y-110845658D01*
X142214600Y-111035971D01*
X142214600Y-112484030D01*
X142233344Y-112674343D01*
X142307417Y-112918526D01*
X142427704Y-113143567D01*
X142589583Y-113340818D01*
X142786834Y-113502697D01*
X143011875Y-113622983D01*
X143256058Y-113697056D01*
X143510000Y-113722067D01*
X143763943Y-113697056D01*
X144008126Y-113622983D01*
X144233167Y-113502697D01*
X144430418Y-113340818D01*
X144592297Y-113143567D01*
X144712583Y-112918526D01*
X144780000Y-112696285D01*
X144847417Y-112918526D01*
X144967704Y-113143567D01*
X145129583Y-113340818D01*
X145326834Y-113502697D01*
X145551875Y-113622983D01*
X145796058Y-113697056D01*
X146050000Y-113722067D01*
X146303943Y-113697056D01*
X146548126Y-113622983D01*
X146773167Y-113502697D01*
X146970418Y-113340818D01*
X147132297Y-113143567D01*
X147252583Y-112918526D01*
X147320000Y-112696285D01*
X147387417Y-112918526D01*
X147507704Y-113143567D01*
X147669583Y-113340818D01*
X147866834Y-113502697D01*
X148091875Y-113622983D01*
X148336058Y-113697056D01*
X148590000Y-113722067D01*
X148843943Y-113697056D01*
X149088126Y-113622983D01*
X149313167Y-113502697D01*
X149510418Y-113340818D01*
X149672297Y-113143567D01*
X149792583Y-112918526D01*
X149860000Y-112696285D01*
X149927417Y-112918526D01*
X150047704Y-113143567D01*
X150209583Y-113340818D01*
X150406834Y-113502697D01*
X150631875Y-113622983D01*
X150876058Y-113697056D01*
X151130000Y-113722067D01*
X151383943Y-113697056D01*
X151628126Y-113622983D01*
X151853167Y-113502697D01*
X152050418Y-113340818D01*
X152212297Y-113143567D01*
X152332583Y-112918526D01*
X152400000Y-112696285D01*
X152467417Y-112918526D01*
X152587704Y-113143567D01*
X152749583Y-113340818D01*
X152785001Y-113369884D01*
X152785001Y-113933420D01*
X133569034Y-133149388D01*
X133422950Y-133135000D01*
X133277050Y-133135000D01*
X133058889Y-133156487D01*
X132934999Y-133194069D01*
X132934999Y-114725785D01*
X140095785Y-107565000D01*
X143157287Y-107565000D01*
X143200756Y-107569281D01*
X143244225Y-107565000D01*
X143244233Y-107565000D01*
X143374246Y-107552195D01*
X143541069Y-107501589D01*
X143694815Y-107419411D01*
X143829573Y-107308817D01*
X143857290Y-107275044D01*
X145215459Y-105916876D01*
X145249227Y-105889163D01*
X145283631Y-105847242D01*
X145326834Y-105882697D01*
X145551875Y-106002983D01*
X145796058Y-106077056D01*
X146050000Y-106102067D01*
X146303943Y-106077056D01*
X146548126Y-106002983D01*
X146773167Y-105882697D01*
X146970418Y-105720818D01*
X147132297Y-105523567D01*
X147252583Y-105298526D01*
X147320000Y-105076285D01*
X147387417Y-105298526D01*
X147507704Y-105523567D01*
X147669583Y-105720818D01*
X147866834Y-105882697D01*
X148091875Y-106002983D01*
X148336058Y-106077056D01*
X148590000Y-106102067D01*
X148843943Y-106077056D01*
X149088126Y-106002983D01*
X149313167Y-105882697D01*
X149510418Y-105720818D01*
X149672297Y-105523567D01*
X149792583Y-105298526D01*
X149860000Y-105076285D01*
X149927417Y-105298526D01*
X150047704Y-105523567D01*
X150209583Y-105720818D01*
X150406834Y-105882697D01*
X150631875Y-106002983D01*
X150876058Y-106077056D01*
X151130000Y-106102067D01*
X151383943Y-106077056D01*
X151628126Y-106002983D01*
X151853167Y-105882697D01*
X152050418Y-105720818D01*
X152212297Y-105523567D01*
X152332583Y-105298526D01*
X152400000Y-105076285D01*
X152467417Y-105298526D01*
X152587704Y-105523567D01*
X152749583Y-105720818D01*
X152946834Y-105882697D01*
X153171875Y-106002983D01*
X153416058Y-106077056D01*
X153670000Y-106102067D01*
X153923943Y-106077056D01*
X154168126Y-106002983D01*
X154393167Y-105882697D01*
X154590418Y-105720818D01*
X154752297Y-105523567D01*
X154872583Y-105298526D01*
X154940000Y-105076285D01*
X155007417Y-105298526D01*
X155127704Y-105523567D01*
X155289583Y-105720818D01*
X155486834Y-105882697D01*
X155711875Y-106002983D01*
X155956058Y-106077056D01*
X156210000Y-106102067D01*
X156463943Y-106077056D01*
X156708126Y-106002983D01*
X156933167Y-105882697D01*
X157130418Y-105720818D01*
X157292297Y-105523567D01*
X157412583Y-105298526D01*
X157480000Y-105076285D01*
X157547417Y-105298526D01*
X157667704Y-105523567D01*
X157829583Y-105720818D01*
X158026834Y-105882697D01*
X158251875Y-106002983D01*
X158496058Y-106077056D01*
X158750000Y-106102067D01*
X159003943Y-106077056D01*
X159248126Y-106002983D01*
X159473167Y-105882697D01*
X159670418Y-105720818D01*
X159832297Y-105523567D01*
X159952583Y-105298526D01*
X160020000Y-105076285D01*
X160087417Y-105298526D01*
X160207704Y-105523567D01*
X160369583Y-105720818D01*
X160566834Y-105882697D01*
X160791875Y-106002983D01*
X161036058Y-106077056D01*
X161290000Y-106102067D01*
X161543943Y-106077056D01*
X161788126Y-106002983D01*
X162013167Y-105882697D01*
X162210418Y-105720818D01*
X162372297Y-105523567D01*
X162492583Y-105298526D01*
X162562506Y-105068023D01*
X162584267Y-105177680D01*
X162681807Y-105413461D01*
X162823471Y-105625683D01*
X163003816Y-105806189D01*
X163215911Y-105948044D01*
X163451605Y-106045795D01*
X163502895Y-106053820D01*
X163703000Y-105929933D01*
X163703000Y-104267000D01*
X163683000Y-104267000D01*
X163683000Y-104013000D01*
X163703000Y-104013000D01*
X163703000Y-103993000D01*
X163957000Y-103993000D01*
X163957000Y-104013000D01*
X163957000Y-104013000D01*
G37*
X163957000Y-104013000D02*
X163977000Y-104013000D01*
X163977000Y-104267000D01*
X163957000Y-104267000D01*
X163957000Y-105929933D01*
X164157105Y-106053820D01*
X164208395Y-106045795D01*
X164444089Y-105948044D01*
X164656184Y-105806189D01*
X164836529Y-105625683D01*
X164978193Y-105413461D01*
X165075733Y-105177680D01*
X165097494Y-105068023D01*
X165167417Y-105298526D01*
X165287704Y-105523567D01*
X165449583Y-105720818D01*
X165646834Y-105882697D01*
X165871875Y-106002983D01*
X166116058Y-106077056D01*
X166370000Y-106102067D01*
X166415597Y-106097576D01*
X166873870Y-106555849D01*
X166901583Y-106589617D01*
X166935351Y-106617330D01*
X166935353Y-106617332D01*
X167006852Y-106676010D01*
X167036341Y-106700211D01*
X167190087Y-106782389D01*
X167356910Y-106832995D01*
X167486923Y-106845800D01*
X167486933Y-106845800D01*
X167530399Y-106850081D01*
X167573865Y-106845800D01*
X172594978Y-106845800D01*
X175784670Y-110035492D01*
X175609582Y-110179182D01*
X175447703Y-110376434D01*
X175327417Y-110601475D01*
X175260000Y-110823716D01*
X175192583Y-110601474D01*
X175072297Y-110376433D01*
X174910418Y-110179182D01*
X174713166Y-110017303D01*
X174488125Y-109897017D01*
X174243942Y-109822944D01*
X173990000Y-109797933D01*
X173736057Y-109822944D01*
X173491874Y-109897017D01*
X173266833Y-110017303D01*
X173069582Y-110179182D01*
X172907703Y-110376434D01*
X172787417Y-110601475D01*
X172720000Y-110823716D01*
X172652583Y-110601474D01*
X172532297Y-110376433D01*
X172370418Y-110179182D01*
X172173166Y-110017303D01*
X171948125Y-109897017D01*
X171703942Y-109822944D01*
X171450000Y-109797933D01*
X171196057Y-109822944D01*
X170951874Y-109897017D01*
X170726833Y-110017303D01*
X170529582Y-110179182D01*
X170367703Y-110376434D01*
X170247417Y-110601475D01*
X170180000Y-110823716D01*
X170112583Y-110601474D01*
X169992297Y-110376433D01*
X169830418Y-110179182D01*
X169633166Y-110017303D01*
X169408125Y-109897017D01*
X169163942Y-109822944D01*
X168910000Y-109797933D01*
X168656057Y-109822944D01*
X168411874Y-109897017D01*
X168186833Y-110017303D01*
X167989582Y-110179182D01*
X167827703Y-110376434D01*
X167707417Y-110601475D01*
X167640000Y-110823716D01*
X167572583Y-110601474D01*
X167452297Y-110376433D01*
X167290418Y-110179182D01*
X167093166Y-110017303D01*
X166868125Y-109897017D01*
X166623942Y-109822944D01*
X166370000Y-109797933D01*
X166116057Y-109822944D01*
X165871874Y-109897017D01*
X165646833Y-110017303D01*
X165449582Y-110179182D01*
X165287703Y-110376434D01*
X165167417Y-110601475D01*
X165100000Y-110823716D01*
X165032583Y-110601474D01*
X164912297Y-110376433D01*
X164750418Y-110179182D01*
X164553166Y-110017303D01*
X164328125Y-109897017D01*
X164083942Y-109822944D01*
X163830000Y-109797933D01*
X163576057Y-109822944D01*
X163331874Y-109897017D01*
X163106833Y-110017303D01*
X162909582Y-110179182D01*
X162747703Y-110376434D01*
X162627417Y-110601475D01*
X162560000Y-110823716D01*
X162492583Y-110601474D01*
X162372297Y-110376433D01*
X162210418Y-110179182D01*
X162013166Y-110017303D01*
X161788125Y-109897017D01*
X161543942Y-109822944D01*
X161290000Y-109797933D01*
X161036057Y-109822944D01*
X160791874Y-109897017D01*
X160566833Y-110017303D01*
X160369582Y-110179182D01*
X160207703Y-110376434D01*
X160087417Y-110601475D01*
X160017494Y-110831977D01*
X159995733Y-110722320D01*
X159898193Y-110486539D01*
X159756529Y-110274317D01*
X159576184Y-110093811D01*
X159364089Y-109951956D01*
X159128395Y-109854205D01*
X159077105Y-109846180D01*
X158877000Y-109970067D01*
X158877000Y-111633000D01*
X158897000Y-111633000D01*
X158897000Y-111887000D01*
X158877000Y-111887000D01*
X158877000Y-113549933D01*
X159077105Y-113673820D01*
X159128395Y-113665795D01*
X159364089Y-113568044D01*
X159576184Y-113426189D01*
X159756529Y-113245683D01*
X159898193Y-113033461D01*
X159995733Y-112797680D01*
X160017494Y-112688023D01*
X160087417Y-112918526D01*
X160207704Y-113143567D01*
X160369583Y-113340818D01*
X160566834Y-113502697D01*
X160791875Y-113622983D01*
X161036058Y-113697056D01*
X161290000Y-113722067D01*
X161543943Y-113697056D01*
X161788126Y-113622983D01*
X162013167Y-113502697D01*
X162210418Y-113340818D01*
X162372297Y-113143567D01*
X162492583Y-112918526D01*
X162560000Y-112696285D01*
X162627417Y-112918526D01*
X162747704Y-113143567D01*
X162909583Y-113340818D01*
X163106834Y-113502697D01*
X163331875Y-113622983D01*
X163576058Y-113697056D01*
X163830000Y-113722067D01*
X164083943Y-113697056D01*
X164328126Y-113622983D01*
X164553167Y-113502697D01*
X164750418Y-113340818D01*
X164912297Y-113143567D01*
X165032583Y-112918526D01*
X165100000Y-112696285D01*
X165167417Y-112918526D01*
X165287704Y-113143567D01*
X165449583Y-113340818D01*
X165485001Y-113369884D01*
X165485000Y-119336531D01*
X165480719Y-119380000D01*
X165485000Y-119423469D01*
X165485000Y-119423476D01*
X165497805Y-119553489D01*
X165548411Y-119720312D01*
X165630589Y-119874058D01*
X165741183Y-120008817D01*
X165774956Y-120036534D01*
X167481983Y-121743561D01*
X167475000Y-121778665D01*
X167475000Y-122061335D01*
X167530147Y-122338574D01*
X167638320Y-122599727D01*
X167795363Y-122834759D01*
X167995241Y-123034637D01*
X168230273Y-123191680D01*
X168491426Y-123299853D01*
X168768665Y-123355000D01*
X169051335Y-123355000D01*
X169328574Y-123299853D01*
X169589727Y-123191680D01*
X169796395Y-123053589D01*
X172605000Y-123053589D01*
X172605000Y-123326411D01*
X172658225Y-123593989D01*
X172762629Y-123846043D01*
X172914201Y-124072886D01*
X173107114Y-124265799D01*
X173333957Y-124417371D01*
X173586011Y-124521775D01*
X173853589Y-124575000D01*
X174126411Y-124575000D01*
X174393989Y-124521775D01*
X174646043Y-124417371D01*
X174872886Y-124265799D01*
X175065799Y-124072886D01*
X175217371Y-123846043D01*
X175321775Y-123593989D01*
X175375000Y-123326411D01*
X175375000Y-123053589D01*
X175321775Y-122786011D01*
X175217371Y-122533957D01*
X175065799Y-122307114D01*
X174872886Y-122114201D01*
X174646043Y-121962629D01*
X174393989Y-121858225D01*
X174126411Y-121805000D01*
X173853589Y-121805000D01*
X173586011Y-121858225D01*
X173333957Y-121962629D01*
X173107114Y-122114201D01*
X172914201Y-122307114D01*
X172762629Y-122533957D01*
X172658225Y-122786011D01*
X172605000Y-123053589D01*
X169796395Y-123053589D01*
X169824759Y-123034637D01*
X170024637Y-122834759D01*
X170181680Y-122599727D01*
X170289853Y-122338574D01*
X170345000Y-122061335D01*
X170345000Y-121778665D01*
X170289853Y-121501426D01*
X170181680Y-121240273D01*
X170024637Y-121005241D01*
X169824759Y-120805363D01*
X169589727Y-120648320D01*
X169328574Y-120540147D01*
X169051335Y-120485000D01*
X168768665Y-120485000D01*
X168733561Y-120491983D01*
X167255000Y-119013422D01*
X167255000Y-117968665D01*
X167395000Y-117968665D01*
X167395000Y-118251335D01*
X167450147Y-118528574D01*
X167558320Y-118789727D01*
X167715363Y-119024759D01*
X167915241Y-119224637D01*
X168150273Y-119381680D01*
X168411426Y-119489853D01*
X168688665Y-119545000D01*
X168971335Y-119545000D01*
X169248574Y-119489853D01*
X169509727Y-119381680D01*
X169744759Y-119224637D01*
X169944637Y-119024759D01*
X170101680Y-118789727D01*
X170209853Y-118528574D01*
X170265000Y-118251335D01*
X170265000Y-118173589D01*
X172605000Y-118173589D01*
X172605000Y-118446411D01*
X172658225Y-118713989D01*
X172762629Y-118966043D01*
X172914201Y-119192886D01*
X173107114Y-119385799D01*
X173333957Y-119537371D01*
X173586011Y-119641775D01*
X173853589Y-119695000D01*
X174126411Y-119695000D01*
X174393989Y-119641775D01*
X174646043Y-119537371D01*
X174872886Y-119385799D01*
X175065799Y-119192886D01*
X175217371Y-118966043D01*
X175321775Y-118713989D01*
X175375000Y-118446411D01*
X175375000Y-118173589D01*
X175321775Y-117906011D01*
X175217371Y-117653957D01*
X175065799Y-117427114D01*
X174872886Y-117234201D01*
X174646043Y-117082629D01*
X174393989Y-116978225D01*
X174126411Y-116925000D01*
X173853589Y-116925000D01*
X173586011Y-116978225D01*
X173333957Y-117082629D01*
X173107114Y-117234201D01*
X172914201Y-117427114D01*
X172762629Y-117653957D01*
X172658225Y-117906011D01*
X172605000Y-118173589D01*
X170265000Y-118173589D01*
X170265000Y-117968665D01*
X170209853Y-117691426D01*
X170101680Y-117430273D01*
X169944637Y-117195241D01*
X169744759Y-116995363D01*
X169509727Y-116838320D01*
X169248574Y-116730147D01*
X168971335Y-116675000D01*
X168688665Y-116675000D01*
X168411426Y-116730147D01*
X168150273Y-116838320D01*
X167915241Y-116995363D01*
X167715363Y-117195241D01*
X167558320Y-117430273D01*
X167450147Y-117691426D01*
X167395000Y-117968665D01*
X167255000Y-117968665D01*
X167255000Y-113369885D01*
X167290418Y-113340818D01*
X167452297Y-113143567D01*
X167572583Y-112918526D01*
X167640000Y-112696285D01*
X167707417Y-112918526D01*
X167827704Y-113143567D01*
X167989583Y-113340818D01*
X168186834Y-113502697D01*
X168411875Y-113622983D01*
X168656058Y-113697056D01*
X168910000Y-113722067D01*
X169163943Y-113697056D01*
X169408126Y-113622983D01*
X169633167Y-113502697D01*
X169830418Y-113340818D01*
X169992297Y-113143567D01*
X170112583Y-112918526D01*
X170180000Y-112696285D01*
X170247417Y-112918526D01*
X170367704Y-113143567D01*
X170529583Y-113340818D01*
X170726834Y-113502697D01*
X170951875Y-113622983D01*
X171196058Y-113697056D01*
X171450000Y-113722067D01*
X171703943Y-113697056D01*
X171948126Y-113622983D01*
X172173167Y-113502697D01*
X172370418Y-113340818D01*
X172532297Y-113143567D01*
X172652583Y-112918526D01*
X172720000Y-112696285D01*
X172787417Y-112918526D01*
X172907704Y-113143567D01*
X173069583Y-113340818D01*
X173266834Y-113502697D01*
X173491875Y-113622983D01*
X173736058Y-113697056D01*
X173990000Y-113722067D01*
X174243943Y-113697056D01*
X174488126Y-113622983D01*
X174713167Y-113502697D01*
X174910418Y-113340818D01*
X175072297Y-113143567D01*
X175192583Y-112918526D01*
X175260000Y-112696285D01*
X175327417Y-112918526D01*
X175447704Y-113143567D01*
X175609583Y-113340818D01*
X175806834Y-113502697D01*
X176031875Y-113622983D01*
X176276058Y-113697056D01*
X176530000Y-113722067D01*
X176783943Y-113697056D01*
X177028126Y-113622983D01*
X177253167Y-113502697D01*
X177450418Y-113340818D01*
X177612297Y-113143567D01*
X177732583Y-112918526D01*
X177806656Y-112674343D01*
X177825400Y-112484030D01*
X177825400Y-112076222D01*
X184565002Y-118815825D01*
X184565001Y-142084069D01*
X184441111Y-142046487D01*
X184222950Y-142025000D01*
X184077050Y-142025000D01*
X183858889Y-142046487D01*
X183578966Y-142131401D01*
X183320986Y-142269294D01*
X183094866Y-142454866D01*
X182909294Y-142680986D01*
X182880000Y-142735791D01*
X182850706Y-142680986D01*
X182665134Y-142454866D01*
X182439014Y-142269294D01*
X182181034Y-142131401D01*
X181901111Y-142046487D01*
X181682950Y-142025000D01*
X181537050Y-142025000D01*
X181318889Y-142046487D01*
X181038966Y-142131401D01*
X180780986Y-142269294D01*
X180554866Y-142454866D01*
X180369294Y-142680986D01*
X180340000Y-142735791D01*
X180310706Y-142680986D01*
X180125134Y-142454866D01*
X179899014Y-142269294D01*
X179641034Y-142131401D01*
X179361111Y-142046487D01*
X179142950Y-142025000D01*
X178997050Y-142025000D01*
X178850967Y-142039388D01*
X157240244Y-120428665D01*
X158585000Y-120428665D01*
X158585000Y-120711335D01*
X158640147Y-120988574D01*
X158748320Y-121249727D01*
X158905363Y-121484759D01*
X159105241Y-121684637D01*
X159340273Y-121841680D01*
X159601426Y-121949853D01*
X159878665Y-122005000D01*
X160161335Y-122005000D01*
X160438574Y-121949853D01*
X160699727Y-121841680D01*
X160904284Y-121705000D01*
X162089869Y-121705000D01*
X162482150Y-122097282D01*
X162530147Y-122338574D01*
X162638320Y-122599727D01*
X162795363Y-122834759D01*
X162995241Y-123034637D01*
X163230273Y-123191680D01*
X163491426Y-123299853D01*
X163768665Y-123355000D01*
X164051335Y-123355000D01*
X164328574Y-123299853D01*
X164589727Y-123191680D01*
X164824759Y-123034637D01*
X165024637Y-122834759D01*
X165181680Y-122599727D01*
X165289853Y-122338574D01*
X165345000Y-122061335D01*
X165345000Y-121778665D01*
X165289853Y-121501426D01*
X165181680Y-121240273D01*
X165024637Y-121005241D01*
X164824759Y-120805363D01*
X164589727Y-120648320D01*
X164328574Y-120540147D01*
X164087282Y-120492150D01*
X163401996Y-119806865D01*
X163366449Y-119763551D01*
X163193623Y-119621716D01*
X162996447Y-119516324D01*
X162782499Y-119451423D01*
X162615752Y-119435000D01*
X162615751Y-119435000D01*
X162560000Y-119429509D01*
X162504249Y-119435000D01*
X160904284Y-119435000D01*
X160699727Y-119298320D01*
X160438574Y-119190147D01*
X160161335Y-119135000D01*
X159878665Y-119135000D01*
X159601426Y-119190147D01*
X159340273Y-119298320D01*
X159105241Y-119455363D01*
X158905363Y-119655241D01*
X158748320Y-119890273D01*
X158640147Y-120151426D01*
X158585000Y-120428665D01*
X157240244Y-120428665D01*
X157095000Y-120283422D01*
X157095000Y-117968665D01*
X162395000Y-117968665D01*
X162395000Y-118251335D01*
X162450147Y-118528574D01*
X162558320Y-118789727D01*
X162715363Y-119024759D01*
X162915241Y-119224637D01*
X163150273Y-119381680D01*
X163411426Y-119489853D01*
X163688665Y-119545000D01*
X163971335Y-119545000D01*
X164248574Y-119489853D01*
X164509727Y-119381680D01*
X164744759Y-119224637D01*
X164944637Y-119024759D01*
X165101680Y-118789727D01*
X165209853Y-118528574D01*
X165265000Y-118251335D01*
X165265000Y-117968665D01*
X165209853Y-117691426D01*
X165101680Y-117430273D01*
X164944637Y-117195241D01*
X164744759Y-116995363D01*
X164509727Y-116838320D01*
X164248574Y-116730147D01*
X163971335Y-116675000D01*
X163688665Y-116675000D01*
X163411426Y-116730147D01*
X163150273Y-116838320D01*
X162915241Y-116995363D01*
X162715363Y-117195241D01*
X162558320Y-117430273D01*
X162450147Y-117691426D01*
X162395000Y-117968665D01*
X157095000Y-117968665D01*
X157095000Y-116562702D01*
X159206903Y-116562702D01*
X159278486Y-116806671D01*
X159533996Y-116927571D01*
X159808184Y-116996300D01*
X160090512Y-117010217D01*
X160370130Y-116968787D01*
X160636292Y-116873603D01*
X160761514Y-116806671D01*
X160833097Y-116562702D01*
X160020000Y-115749605D01*
X159206903Y-116562702D01*
X157095000Y-116562702D01*
X157095000Y-115640512D01*
X158579783Y-115640512D01*
X158621213Y-115920130D01*
X158716397Y-116186292D01*
X158783329Y-116311514D01*
X159027298Y-116383097D01*
X159840395Y-115570000D01*
X160199605Y-115570000D01*
X161012702Y-116383097D01*
X161256671Y-116311514D01*
X161377571Y-116056004D01*
X161446300Y-115781816D01*
X161460217Y-115499488D01*
X161418787Y-115219870D01*
X161323603Y-114953708D01*
X161256671Y-114828486D01*
X161012702Y-114756903D01*
X160199605Y-115570000D01*
X159840395Y-115570000D01*
X159027298Y-114756903D01*
X158783329Y-114828486D01*
X158662429Y-115083996D01*
X158593700Y-115358184D01*
X158579783Y-115640512D01*
X157095000Y-115640512D01*
X157095000Y-114577298D01*
X159206903Y-114577298D01*
X160020000Y-115390395D01*
X160833097Y-114577298D01*
X160761514Y-114333329D01*
X160506004Y-114212429D01*
X160231816Y-114143700D01*
X159949488Y-114129783D01*
X159669870Y-114171213D01*
X159403708Y-114266397D01*
X159278486Y-114333329D01*
X159206903Y-114577298D01*
X157095000Y-114577298D01*
X157095000Y-113369885D01*
X157130418Y-113340818D01*
X157292297Y-113143567D01*
X157412583Y-112918526D01*
X157482506Y-112688023D01*
X157504267Y-112797680D01*
X157601807Y-113033461D01*
X157743471Y-113245683D01*
X157923816Y-113426189D01*
X158135911Y-113568044D01*
X158371605Y-113665795D01*
X158422895Y-113673820D01*
X158623000Y-113549933D01*
X158623000Y-111887000D01*
X158603000Y-111887000D01*
X158603000Y-111633000D01*
X158623000Y-111633000D01*
X158623000Y-109970067D01*
X158422895Y-109846180D01*
X158371605Y-109854205D01*
X158135911Y-109951956D01*
X157923816Y-110093811D01*
X157743471Y-110274317D01*
X157601807Y-110486539D01*
X157504267Y-110722320D01*
X157482506Y-110831977D01*
X157412583Y-110601474D01*
X157292297Y-110376433D01*
X157130418Y-110179182D01*
X156933166Y-110017303D01*
X156708125Y-109897017D01*
X156463942Y-109822944D01*
X156210000Y-109797933D01*
X155956057Y-109822944D01*
X155711874Y-109897017D01*
X155486833Y-110017303D01*
X155289582Y-110179182D01*
X155127703Y-110376434D01*
X155007417Y-110601475D01*
X154940000Y-110823716D01*
X154872583Y-110601474D01*
X154752297Y-110376433D01*
X154590418Y-110179182D01*
X154393166Y-110017303D01*
X154168125Y-109897017D01*
X153923942Y-109822944D01*
X153670000Y-109797933D01*
X153416057Y-109822944D01*
X153171874Y-109897017D01*
X152946833Y-110017303D01*
X152749582Y-110179182D01*
X152587703Y-110376434D01*
X152467417Y-110601475D01*
X152400000Y-110823716D01*
X152332583Y-110601474D01*
X152212297Y-110376433D01*
X152050418Y-110179182D01*
X151853166Y-110017303D01*
X151628125Y-109897017D01*
X151383942Y-109822944D01*
X151130000Y-109797933D01*
X150876057Y-109822944D01*
X150631874Y-109897017D01*
X150406833Y-110017303D01*
X150209582Y-110179182D01*
X150047703Y-110376434D01*
X149927417Y-110601475D01*
X149860000Y-110823716D01*
X149792583Y-110601474D01*
X149672297Y-110376433D01*
X149510418Y-110179182D01*
X149313166Y-110017303D01*
X149088125Y-109897017D01*
X148843942Y-109822944D01*
X148590000Y-109797933D01*
X148336057Y-109822944D01*
X148091874Y-109897017D01*
X147866833Y-110017303D01*
X147669582Y-110179182D01*
X147507703Y-110376434D01*
X147387417Y-110601475D01*
X147320000Y-110823716D01*
X147252583Y-110601474D01*
X147132297Y-110376433D01*
X146970418Y-110179182D01*
X146773166Y-110017303D01*
X146548125Y-109897017D01*
X146303942Y-109822944D01*
X146050000Y-109797933D01*
X145796057Y-109822944D01*
X145551874Y-109897017D01*
X145326833Y-110017303D01*
X145129582Y-110179182D01*
X144967703Y-110376434D01*
X144847417Y-110601475D01*
X144780000Y-110823716D01*
X144712583Y-110601474D01*
X144592297Y-110376433D01*
X144430418Y-110179182D01*
X144233166Y-110017303D01*
X144008125Y-109897017D01*
X143763942Y-109822944D01*
X143510000Y-109797933D01*
X143256057Y-109822944D01*
X143011874Y-109897017D01*
X142786833Y-110017303D01*
X142589582Y-110179182D01*
X142427703Y-110376434D01*
X142307417Y-110601475D01*
X142233344Y-110845658D01*
X142214600Y-111035971D01*
X142214600Y-112484030D01*
X142233344Y-112674343D01*
X142307417Y-112918526D01*
X142427704Y-113143567D01*
X142589583Y-113340818D01*
X142786834Y-113502697D01*
X143011875Y-113622983D01*
X143256058Y-113697056D01*
X143510000Y-113722067D01*
X143763943Y-113697056D01*
X144008126Y-113622983D01*
X144233167Y-113502697D01*
X144430418Y-113340818D01*
X144592297Y-113143567D01*
X144712583Y-112918526D01*
X144780000Y-112696285D01*
X144847417Y-112918526D01*
X144967704Y-113143567D01*
X145129583Y-113340818D01*
X145326834Y-113502697D01*
X145551875Y-113622983D01*
X145796058Y-113697056D01*
X146050000Y-113722067D01*
X146303943Y-113697056D01*
X146548126Y-113622983D01*
X146773167Y-113502697D01*
X146970418Y-113340818D01*
X147132297Y-113143567D01*
X147252583Y-112918526D01*
X147320000Y-112696285D01*
X147387417Y-112918526D01*
X147507704Y-113143567D01*
X147669583Y-113340818D01*
X147866834Y-113502697D01*
X148091875Y-113622983D01*
X148336058Y-113697056D01*
X148590000Y-113722067D01*
X148843943Y-113697056D01*
X149088126Y-113622983D01*
X149313167Y-113502697D01*
X149510418Y-113340818D01*
X149672297Y-113143567D01*
X149792583Y-112918526D01*
X149860000Y-112696285D01*
X149927417Y-112918526D01*
X150047704Y-113143567D01*
X150209583Y-113340818D01*
X150406834Y-113502697D01*
X150631875Y-113622983D01*
X150876058Y-113697056D01*
X151130000Y-113722067D01*
X151383943Y-113697056D01*
X151628126Y-113622983D01*
X151853167Y-113502697D01*
X152050418Y-113340818D01*
X152212297Y-113143567D01*
X152332583Y-112918526D01*
X152400000Y-112696285D01*
X152467417Y-112918526D01*
X152587704Y-113143567D01*
X152749583Y-113340818D01*
X152785001Y-113369884D01*
X152785001Y-113933420D01*
X133569034Y-133149388D01*
X133422950Y-133135000D01*
X133277050Y-133135000D01*
X133058889Y-133156487D01*
X132934999Y-133194069D01*
X132934999Y-114725785D01*
X140095785Y-107565000D01*
X143157287Y-107565000D01*
X143200756Y-107569281D01*
X143244225Y-107565000D01*
X143244233Y-107565000D01*
X143374246Y-107552195D01*
X143541069Y-107501589D01*
X143694815Y-107419411D01*
X143829573Y-107308817D01*
X143857290Y-107275044D01*
X145215459Y-105916876D01*
X145249227Y-105889163D01*
X145283631Y-105847242D01*
X145326834Y-105882697D01*
X145551875Y-106002983D01*
X145796058Y-106077056D01*
X146050000Y-106102067D01*
X146303943Y-106077056D01*
X146548126Y-106002983D01*
X146773167Y-105882697D01*
X146970418Y-105720818D01*
X147132297Y-105523567D01*
X147252583Y-105298526D01*
X147320000Y-105076285D01*
X147387417Y-105298526D01*
X147507704Y-105523567D01*
X147669583Y-105720818D01*
X147866834Y-105882697D01*
X148091875Y-106002983D01*
X148336058Y-106077056D01*
X148590000Y-106102067D01*
X148843943Y-106077056D01*
X149088126Y-106002983D01*
X149313167Y-105882697D01*
X149510418Y-105720818D01*
X149672297Y-105523567D01*
X149792583Y-105298526D01*
X149860000Y-105076285D01*
X149927417Y-105298526D01*
X150047704Y-105523567D01*
X150209583Y-105720818D01*
X150406834Y-105882697D01*
X150631875Y-106002983D01*
X150876058Y-106077056D01*
X151130000Y-106102067D01*
X151383943Y-106077056D01*
X151628126Y-106002983D01*
X151853167Y-105882697D01*
X152050418Y-105720818D01*
X152212297Y-105523567D01*
X152332583Y-105298526D01*
X152400000Y-105076285D01*
X152467417Y-105298526D01*
X152587704Y-105523567D01*
X152749583Y-105720818D01*
X152946834Y-105882697D01*
X153171875Y-106002983D01*
X153416058Y-106077056D01*
X153670000Y-106102067D01*
X153923943Y-106077056D01*
X154168126Y-106002983D01*
X154393167Y-105882697D01*
X154590418Y-105720818D01*
X154752297Y-105523567D01*
X154872583Y-105298526D01*
X154940000Y-105076285D01*
X155007417Y-105298526D01*
X155127704Y-105523567D01*
X155289583Y-105720818D01*
X155486834Y-105882697D01*
X155711875Y-106002983D01*
X155956058Y-106077056D01*
X156210000Y-106102067D01*
X156463943Y-106077056D01*
X156708126Y-106002983D01*
X156933167Y-105882697D01*
X157130418Y-105720818D01*
X157292297Y-105523567D01*
X157412583Y-105298526D01*
X157480000Y-105076285D01*
X157547417Y-105298526D01*
X157667704Y-105523567D01*
X157829583Y-105720818D01*
X158026834Y-105882697D01*
X158251875Y-106002983D01*
X158496058Y-106077056D01*
X158750000Y-106102067D01*
X159003943Y-106077056D01*
X159248126Y-106002983D01*
X159473167Y-105882697D01*
X159670418Y-105720818D01*
X159832297Y-105523567D01*
X159952583Y-105298526D01*
X160020000Y-105076285D01*
X160087417Y-105298526D01*
X160207704Y-105523567D01*
X160369583Y-105720818D01*
X160566834Y-105882697D01*
X160791875Y-106002983D01*
X161036058Y-106077056D01*
X161290000Y-106102067D01*
X161543943Y-106077056D01*
X161788126Y-106002983D01*
X162013167Y-105882697D01*
X162210418Y-105720818D01*
X162372297Y-105523567D01*
X162492583Y-105298526D01*
X162562506Y-105068023D01*
X162584267Y-105177680D01*
X162681807Y-105413461D01*
X162823471Y-105625683D01*
X163003816Y-105806189D01*
X163215911Y-105948044D01*
X163451605Y-106045795D01*
X163502895Y-106053820D01*
X163703000Y-105929933D01*
X163703000Y-104267000D01*
X163683000Y-104267000D01*
X163683000Y-104013000D01*
X163703000Y-104013000D01*
X163703000Y-103993000D01*
X163957000Y-103993000D01*
X163957000Y-104013000D01*
G36*
X183094866Y-31535134D02*
G01*
X183320986Y-31720706D01*
X183375791Y-31750000D01*
X183320986Y-31779294D01*
X183094866Y-31964866D01*
X182909294Y-32190986D01*
X182771401Y-32448966D01*
X182686487Y-32728889D01*
X182657815Y-33020000D01*
X182686487Y-33311111D01*
X182771401Y-33591034D01*
X182909294Y-33849014D01*
X183094866Y-34075134D01*
X183320986Y-34260706D01*
X183375791Y-34290000D01*
X183320986Y-34319294D01*
X183094866Y-34504866D01*
X182909294Y-34730986D01*
X182771401Y-34988966D01*
X182686487Y-35268889D01*
X182657815Y-35560000D01*
X182686487Y-35851111D01*
X182771401Y-36131034D01*
X182909294Y-36389014D01*
X183094866Y-36615134D01*
X183320986Y-36800706D01*
X183375791Y-36830000D01*
X183320986Y-36859294D01*
X183094866Y-37044866D01*
X182909294Y-37270986D01*
X182771401Y-37528966D01*
X182686487Y-37808889D01*
X182657815Y-38100000D01*
X182686487Y-38391111D01*
X182771401Y-38671034D01*
X182909294Y-38929014D01*
X183094866Y-39155134D01*
X183320986Y-39340706D01*
X183375791Y-39370000D01*
X183320986Y-39399294D01*
X183094866Y-39584866D01*
X182909294Y-39810986D01*
X182771401Y-40068966D01*
X182686487Y-40348889D01*
X182657815Y-40640000D01*
X182686487Y-40931111D01*
X182771401Y-41211034D01*
X182909294Y-41469014D01*
X183094866Y-41695134D01*
X183124687Y-41719607D01*
X183055820Y-41740498D01*
X182945506Y-41799463D01*
X182848815Y-41878815D01*
X182769463Y-41975506D01*
X182710498Y-42085820D01*
X182674188Y-42205518D01*
X182661928Y-42330000D01*
X182665000Y-42894250D01*
X182823750Y-43053000D01*
X184023000Y-43053000D01*
X184023000Y-43033000D01*
X184277000Y-43033000D01*
X184277000Y-43053000D01*
X184297000Y-43053000D01*
X184297000Y-43307000D01*
X184277000Y-43307000D01*
X184277000Y-44506250D01*
X184435750Y-44665000D01*
X184565002Y-44665704D01*
X184565001Y-56093020D01*
X176575598Y-64082424D01*
X176530000Y-64077933D01*
X176276057Y-64102944D01*
X176031874Y-64177017D01*
X175806833Y-64297303D01*
X175609582Y-64459182D01*
X175447703Y-64656434D01*
X175327417Y-64881475D01*
X175260000Y-65103716D01*
X175192583Y-64881474D01*
X175072297Y-64656433D01*
X174910418Y-64459182D01*
X174713166Y-64297303D01*
X174488125Y-64177017D01*
X174243942Y-64102944D01*
X173990000Y-64077933D01*
X173736057Y-64102944D01*
X173491874Y-64177017D01*
X173266833Y-64297303D01*
X173069582Y-64459182D01*
X172907703Y-64656434D01*
X172787417Y-64881475D01*
X172720000Y-65103716D01*
X172652583Y-64881474D01*
X172532297Y-64656433D01*
X172370418Y-64459182D01*
X172195330Y-64315492D01*
X175855051Y-60655772D01*
X175888817Y-60628061D01*
X175999411Y-60493303D01*
X176081589Y-60339557D01*
X176132195Y-60172734D01*
X176145000Y-60042721D01*
X176145000Y-60042711D01*
X176149281Y-59999245D01*
X176145000Y-59955779D01*
X176145000Y-55804759D01*
X176315134Y-55665134D01*
X176500706Y-55439014D01*
X176530000Y-55384209D01*
X176559294Y-55439014D01*
X176744866Y-55665134D01*
X176970986Y-55850706D01*
X177228966Y-55988599D01*
X177508889Y-56073513D01*
X177727050Y-56095000D01*
X177872950Y-56095000D01*
X178091111Y-56073513D01*
X178371034Y-55988599D01*
X178629014Y-55850706D01*
X178855134Y-55665134D01*
X179040706Y-55439014D01*
X179070000Y-55384209D01*
X179099294Y-55439014D01*
X179284866Y-55665134D01*
X179510986Y-55850706D01*
X179768966Y-55988599D01*
X180048889Y-56073513D01*
X180267050Y-56095000D01*
X180412950Y-56095000D01*
X180631111Y-56073513D01*
X180911034Y-55988599D01*
X181169014Y-55850706D01*
X181395134Y-55665134D01*
X181419607Y-55635313D01*
X181440498Y-55704180D01*
X181499463Y-55814494D01*
X181578815Y-55911185D01*
X181675506Y-55990537D01*
X181785820Y-56049502D01*
X181905518Y-56085812D01*
X182030000Y-56098072D01*
X183730000Y-56098072D01*
X183854482Y-56085812D01*
X183974180Y-56049502D01*
X184084494Y-55990537D01*
X184181185Y-55911185D01*
X184260537Y-55814494D01*
X184319502Y-55704180D01*
X184355812Y-55584482D01*
X184368072Y-55460000D01*
X184368072Y-53760000D01*
X184355812Y-53635518D01*
X184319502Y-53515820D01*
X184260537Y-53405506D01*
X184181185Y-53308815D01*
X184084494Y-53229463D01*
X183974180Y-53170498D01*
X183854482Y-53134188D01*
X183730000Y-53121928D01*
X182030000Y-53121928D01*
X181905518Y-53134188D01*
X181785820Y-53170498D01*
X181675506Y-53229463D01*
X181578815Y-53308815D01*
X181499463Y-53405506D01*
X181440498Y-53515820D01*
X181419607Y-53584687D01*
X181395134Y-53554866D01*
X181169014Y-53369294D01*
X180911034Y-53231401D01*
X180631111Y-53146487D01*
X180412950Y-53125000D01*
X180267050Y-53125000D01*
X180048889Y-53146487D01*
X179768966Y-53231401D01*
X179510986Y-53369294D01*
X179284866Y-53554866D01*
X179099294Y-53780986D01*
X179070000Y-53835791D01*
X179040706Y-53780986D01*
X178855134Y-53554866D01*
X178629014Y-53369294D01*
X178371034Y-53231401D01*
X178091111Y-53146487D01*
X177872950Y-53125000D01*
X177727050Y-53125000D01*
X177508889Y-53146487D01*
X177228966Y-53231401D01*
X176970986Y-53369294D01*
X176744866Y-53554866D01*
X176559294Y-53780986D01*
X176530000Y-53835791D01*
X176500706Y-53780986D01*
X176315134Y-53554866D01*
X176089014Y-53369294D01*
X175831034Y-53231401D01*
X175551111Y-53146487D01*
X175332950Y-53125000D01*
X175187050Y-53125000D01*
X174968889Y-53146487D01*
X174688966Y-53231401D01*
X174430986Y-53369294D01*
X174204866Y-53554866D01*
X174019294Y-53780986D01*
X173990000Y-53835791D01*
X173960706Y-53780986D01*
X173775134Y-53554866D01*
X173549014Y-53369294D01*
X173291034Y-53231401D01*
X173011111Y-53146487D01*
X172792950Y-53125000D01*
X172647050Y-53125000D01*
X172428889Y-53146487D01*
X172148966Y-53231401D01*
X171890986Y-53369294D01*
X171664866Y-53554866D01*
X171479294Y-53780986D01*
X171450000Y-53835791D01*
X171420706Y-53780986D01*
X171235134Y-53554866D01*
X171009014Y-53369294D01*
X170751034Y-53231401D01*
X170471111Y-53146487D01*
X170252950Y-53125000D01*
X170107050Y-53125000D01*
X169888889Y-53146487D01*
X169608966Y-53231401D01*
X169350986Y-53369294D01*
X169124866Y-53554866D01*
X168939294Y-53780986D01*
X168801401Y-54038966D01*
X168716487Y-54318889D01*
X168687815Y-54610000D01*
X168716487Y-54901111D01*
X168801401Y-55181034D01*
X168939294Y-55439014D01*
X169124866Y-55665134D01*
X169295000Y-55804759D01*
X169295000Y-55855557D01*
X169295001Y-55855567D01*
X169295000Y-57283423D01*
X166372641Y-60205782D01*
X166336671Y-60138486D01*
X166092702Y-60066903D01*
X165279605Y-60880000D01*
X165293748Y-60894143D01*
X165114143Y-61073748D01*
X165100000Y-61059605D01*
X164286903Y-61872702D01*
X164338638Y-62049027D01*
X162055566Y-64332100D01*
X162013166Y-64297303D01*
X161788125Y-64177017D01*
X161543942Y-64102944D01*
X161290000Y-64077933D01*
X161036057Y-64102944D01*
X160791874Y-64177017D01*
X160566833Y-64297303D01*
X160369582Y-64459182D01*
X160207703Y-64656434D01*
X160087417Y-64881475D01*
X160020000Y-65103716D01*
X159952583Y-64881474D01*
X159832297Y-64656433D01*
X159670418Y-64459182D01*
X159473166Y-64297303D01*
X159248125Y-64177017D01*
X159003942Y-64102944D01*
X158750000Y-64077933D01*
X158496057Y-64102944D01*
X158251874Y-64177017D01*
X158026833Y-64297303D01*
X157829582Y-64459182D01*
X157667703Y-64656434D01*
X157547417Y-64881475D01*
X157480000Y-65103716D01*
X157412583Y-64881474D01*
X157292297Y-64656433D01*
X157130418Y-64459182D01*
X156933166Y-64297303D01*
X156708125Y-64177017D01*
X156463942Y-64102944D01*
X156210000Y-64077933D01*
X155956057Y-64102944D01*
X155715400Y-64175947D01*
X155715400Y-60738665D01*
X158585000Y-60738665D01*
X158585000Y-61021335D01*
X158640147Y-61298574D01*
X158748320Y-61559727D01*
X158905363Y-61794759D01*
X159105241Y-61994637D01*
X159340273Y-62151680D01*
X159601426Y-62259853D01*
X159878665Y-62315000D01*
X160161335Y-62315000D01*
X160438574Y-62259853D01*
X160699727Y-62151680D01*
X160934759Y-61994637D01*
X161134637Y-61794759D01*
X161291680Y-61559727D01*
X161399853Y-61298574D01*
X161455000Y-61021335D01*
X161455000Y-60950512D01*
X163659783Y-60950512D01*
X163701213Y-61230130D01*
X163796397Y-61496292D01*
X163863329Y-61621514D01*
X164107298Y-61693097D01*
X164920395Y-60880000D01*
X164107298Y-60066903D01*
X163863329Y-60138486D01*
X163742429Y-60393996D01*
X163673700Y-60668184D01*
X163659783Y-60950512D01*
X161455000Y-60950512D01*
X161455000Y-60738665D01*
X161399853Y-60461426D01*
X161291680Y-60200273D01*
X161134637Y-59965241D01*
X161056694Y-59887298D01*
X164286903Y-59887298D01*
X165100000Y-60700395D01*
X165913097Y-59887298D01*
X165841514Y-59643329D01*
X165586004Y-59522429D01*
X165311816Y-59453700D01*
X165029488Y-59439783D01*
X164749870Y-59481213D01*
X164483708Y-59576397D01*
X164358486Y-59643329D01*
X164286903Y-59887298D01*
X161056694Y-59887298D01*
X160934759Y-59765363D01*
X160699727Y-59608320D01*
X160438574Y-59500147D01*
X160161335Y-59445000D01*
X159878665Y-59445000D01*
X159601426Y-59500147D01*
X159340273Y-59608320D01*
X159105241Y-59765363D01*
X158905363Y-59965241D01*
X158748320Y-60200273D01*
X158640147Y-60461426D01*
X158585000Y-60738665D01*
X155715400Y-60738665D01*
X155715400Y-55738665D01*
X158585000Y-55738665D01*
X158585000Y-56021335D01*
X158640147Y-56298574D01*
X158748320Y-56559727D01*
X158905363Y-56794759D01*
X159105241Y-56994637D01*
X159340273Y-57151680D01*
X159601426Y-57259853D01*
X159878665Y-57315000D01*
X160161335Y-57315000D01*
X160438574Y-57259853D01*
X160699727Y-57151680D01*
X160934759Y-56994637D01*
X161134637Y-56794759D01*
X161291680Y-56559727D01*
X161399853Y-56298574D01*
X161455000Y-56021335D01*
X161455000Y-55738665D01*
X163665000Y-55738665D01*
X163665000Y-56021335D01*
X163720147Y-56298574D01*
X163828320Y-56559727D01*
X163985363Y-56794759D01*
X164185241Y-56994637D01*
X164420273Y-57151680D01*
X164681426Y-57259853D01*
X164958665Y-57315000D01*
X165241335Y-57315000D01*
X165518574Y-57259853D01*
X165779727Y-57151680D01*
X166014759Y-56994637D01*
X166214637Y-56794759D01*
X166371680Y-56559727D01*
X166479853Y-56298574D01*
X166535000Y-56021335D01*
X166535000Y-55738665D01*
X166479853Y-55461426D01*
X166371680Y-55200273D01*
X166214637Y-54965241D01*
X166014759Y-54765363D01*
X165779727Y-54608320D01*
X165518574Y-54500147D01*
X165241335Y-54445000D01*
X164958665Y-54445000D01*
X164681426Y-54500147D01*
X164420273Y-54608320D01*
X164185241Y-54765363D01*
X163985363Y-54965241D01*
X163828320Y-55200273D01*
X163720147Y-55461426D01*
X163665000Y-55738665D01*
X161455000Y-55738665D01*
X161399853Y-55461426D01*
X161291680Y-55200273D01*
X161134637Y-54965241D01*
X160934759Y-54765363D01*
X160699727Y-54608320D01*
X160438574Y-54500147D01*
X160161335Y-54445000D01*
X159878665Y-54445000D01*
X159601426Y-54500147D01*
X159340273Y-54608320D01*
X159105241Y-54765363D01*
X158905363Y-54965241D01*
X158748320Y-55200273D01*
X158640147Y-55461426D01*
X158585000Y-55738665D01*
X155715400Y-55738665D01*
X155715400Y-45851785D01*
X155918889Y-45913513D01*
X156137050Y-45935000D01*
X156282950Y-45935000D01*
X156501111Y-45913513D01*
X156781034Y-45828599D01*
X157039014Y-45690706D01*
X157265134Y-45505134D01*
X157450706Y-45279014D01*
X157480000Y-45224209D01*
X157509294Y-45279014D01*
X157694866Y-45505134D01*
X157920986Y-45690706D01*
X158178966Y-45828599D01*
X158458889Y-45913513D01*
X158677050Y-45935000D01*
X158822950Y-45935000D01*
X159041111Y-45913513D01*
X159321034Y-45828599D01*
X159579014Y-45690706D01*
X159805134Y-45505134D01*
X159829607Y-45475313D01*
X159850498Y-45544180D01*
X159909463Y-45654494D01*
X159988815Y-45751185D01*
X160085506Y-45830537D01*
X160195820Y-45889502D01*
X160315518Y-45925812D01*
X160440000Y-45938072D01*
X161004250Y-45935000D01*
X161163000Y-45776250D01*
X161163000Y-44577000D01*
X161417000Y-44577000D01*
X161417000Y-45776250D01*
X161575750Y-45935000D01*
X162140000Y-45938072D01*
X162264482Y-45925812D01*
X162384180Y-45889502D01*
X162494494Y-45830537D01*
X162591185Y-45751185D01*
X162670537Y-45654494D01*
X162729502Y-45544180D01*
X162765812Y-45424482D01*
X162778072Y-45300000D01*
X162775000Y-44735750D01*
X162616250Y-44577000D01*
X161417000Y-44577000D01*
X161163000Y-44577000D01*
X161143000Y-44577000D01*
X161143000Y-44323000D01*
X161163000Y-44323000D01*
X161163000Y-43123750D01*
X161417000Y-43123750D01*
X161417000Y-44323000D01*
X162616250Y-44323000D01*
X162775000Y-44164250D01*
X162775730Y-44030000D01*
X182661928Y-44030000D01*
X182674188Y-44154482D01*
X182710498Y-44274180D01*
X182769463Y-44384494D01*
X182848815Y-44481185D01*
X182945506Y-44560537D01*
X183055820Y-44619502D01*
X183175518Y-44655812D01*
X183300000Y-44668072D01*
X183864250Y-44665000D01*
X184023000Y-44506250D01*
X184023000Y-43307000D01*
X182823750Y-43307000D01*
X182665000Y-43465750D01*
X182661928Y-44030000D01*
X162775730Y-44030000D01*
X162778072Y-43600000D01*
X162765812Y-43475518D01*
X162729502Y-43355820D01*
X162670537Y-43245506D01*
X162591185Y-43148815D01*
X162494494Y-43069463D01*
X162384180Y-43010498D01*
X162264482Y-42974188D01*
X162140000Y-42961928D01*
X161575750Y-42965000D01*
X161417000Y-43123750D01*
X161163000Y-43123750D01*
X161004250Y-42965000D01*
X160440000Y-42961928D01*
X160315518Y-42974188D01*
X160195820Y-43010498D01*
X160085506Y-43069463D01*
X159988815Y-43148815D01*
X159909463Y-43245506D01*
X159850498Y-43355820D01*
X159829607Y-43424687D01*
X159805134Y-43394866D01*
X159579014Y-43209294D01*
X159321034Y-43071401D01*
X159199152Y-43034428D01*
X168851047Y-33382534D01*
X168884815Y-33354821D01*
X168920688Y-33311111D01*
X168995408Y-33220064D01*
X168995409Y-33220063D01*
X169077587Y-33066317D01*
X169128193Y-32899494D01*
X169140998Y-32769481D01*
X169140998Y-32769471D01*
X169145279Y-32726005D01*
X169140998Y-32682539D01*
X169140998Y-31365000D01*
X182955241Y-31365000D01*
X183094866Y-31535134D01*
X183094866Y-31535134D01*
G37*
X183094866Y-31535134D02*
X183320986Y-31720706D01*
X183375791Y-31750000D01*
X183320986Y-31779294D01*
X183094866Y-31964866D01*
X182909294Y-32190986D01*
X182771401Y-32448966D01*
X182686487Y-32728889D01*
X182657815Y-33020000D01*
X182686487Y-33311111D01*
X182771401Y-33591034D01*
X182909294Y-33849014D01*
X183094866Y-34075134D01*
X183320986Y-34260706D01*
X183375791Y-34290000D01*
X183320986Y-34319294D01*
X183094866Y-34504866D01*
X182909294Y-34730986D01*
X182771401Y-34988966D01*
X182686487Y-35268889D01*
X182657815Y-35560000D01*
X182686487Y-35851111D01*
X182771401Y-36131034D01*
X182909294Y-36389014D01*
X183094866Y-36615134D01*
X183320986Y-36800706D01*
X183375791Y-36830000D01*
X183320986Y-36859294D01*
X183094866Y-37044866D01*
X182909294Y-37270986D01*
X182771401Y-37528966D01*
X182686487Y-37808889D01*
X182657815Y-38100000D01*
X182686487Y-38391111D01*
X182771401Y-38671034D01*
X182909294Y-38929014D01*
X183094866Y-39155134D01*
X183320986Y-39340706D01*
X183375791Y-39370000D01*
X183320986Y-39399294D01*
X183094866Y-39584866D01*
X182909294Y-39810986D01*
X182771401Y-40068966D01*
X182686487Y-40348889D01*
X182657815Y-40640000D01*
X182686487Y-40931111D01*
X182771401Y-41211034D01*
X182909294Y-41469014D01*
X183094866Y-41695134D01*
X183124687Y-41719607D01*
X183055820Y-41740498D01*
X182945506Y-41799463D01*
X182848815Y-41878815D01*
X182769463Y-41975506D01*
X182710498Y-42085820D01*
X182674188Y-42205518D01*
X182661928Y-42330000D01*
X182665000Y-42894250D01*
X182823750Y-43053000D01*
X184023000Y-43053000D01*
X184023000Y-43033000D01*
X184277000Y-43033000D01*
X184277000Y-43053000D01*
X184297000Y-43053000D01*
X184297000Y-43307000D01*
X184277000Y-43307000D01*
X184277000Y-44506250D01*
X184435750Y-44665000D01*
X184565002Y-44665704D01*
X184565001Y-56093020D01*
X176575598Y-64082424D01*
X176530000Y-64077933D01*
X176276057Y-64102944D01*
X176031874Y-64177017D01*
X175806833Y-64297303D01*
X175609582Y-64459182D01*
X175447703Y-64656434D01*
X175327417Y-64881475D01*
X175260000Y-65103716D01*
X175192583Y-64881474D01*
X175072297Y-64656433D01*
X174910418Y-64459182D01*
X174713166Y-64297303D01*
X174488125Y-64177017D01*
X174243942Y-64102944D01*
X173990000Y-64077933D01*
X173736057Y-64102944D01*
X173491874Y-64177017D01*
X173266833Y-64297303D01*
X173069582Y-64459182D01*
X172907703Y-64656434D01*
X172787417Y-64881475D01*
X172720000Y-65103716D01*
X172652583Y-64881474D01*
X172532297Y-64656433D01*
X172370418Y-64459182D01*
X172195330Y-64315492D01*
X175855051Y-60655772D01*
X175888817Y-60628061D01*
X175999411Y-60493303D01*
X176081589Y-60339557D01*
X176132195Y-60172734D01*
X176145000Y-60042721D01*
X176145000Y-60042711D01*
X176149281Y-59999245D01*
X176145000Y-59955779D01*
X176145000Y-55804759D01*
X176315134Y-55665134D01*
X176500706Y-55439014D01*
X176530000Y-55384209D01*
X176559294Y-55439014D01*
X176744866Y-55665134D01*
X176970986Y-55850706D01*
X177228966Y-55988599D01*
X177508889Y-56073513D01*
X177727050Y-56095000D01*
X177872950Y-56095000D01*
X178091111Y-56073513D01*
X178371034Y-55988599D01*
X178629014Y-55850706D01*
X178855134Y-55665134D01*
X179040706Y-55439014D01*
X179070000Y-55384209D01*
X179099294Y-55439014D01*
X179284866Y-55665134D01*
X179510986Y-55850706D01*
X179768966Y-55988599D01*
X180048889Y-56073513D01*
X180267050Y-56095000D01*
X180412950Y-56095000D01*
X180631111Y-56073513D01*
X180911034Y-55988599D01*
X181169014Y-55850706D01*
X181395134Y-55665134D01*
X181419607Y-55635313D01*
X181440498Y-55704180D01*
X181499463Y-55814494D01*
X181578815Y-55911185D01*
X181675506Y-55990537D01*
X181785820Y-56049502D01*
X181905518Y-56085812D01*
X182030000Y-56098072D01*
X183730000Y-56098072D01*
X183854482Y-56085812D01*
X183974180Y-56049502D01*
X184084494Y-55990537D01*
X184181185Y-55911185D01*
X184260537Y-55814494D01*
X184319502Y-55704180D01*
X184355812Y-55584482D01*
X184368072Y-55460000D01*
X184368072Y-53760000D01*
X184355812Y-53635518D01*
X184319502Y-53515820D01*
X184260537Y-53405506D01*
X184181185Y-53308815D01*
X184084494Y-53229463D01*
X183974180Y-53170498D01*
X183854482Y-53134188D01*
X183730000Y-53121928D01*
X182030000Y-53121928D01*
X181905518Y-53134188D01*
X181785820Y-53170498D01*
X181675506Y-53229463D01*
X181578815Y-53308815D01*
X181499463Y-53405506D01*
X181440498Y-53515820D01*
X181419607Y-53584687D01*
X181395134Y-53554866D01*
X181169014Y-53369294D01*
X180911034Y-53231401D01*
X180631111Y-53146487D01*
X180412950Y-53125000D01*
X180267050Y-53125000D01*
X180048889Y-53146487D01*
X179768966Y-53231401D01*
X179510986Y-53369294D01*
X179284866Y-53554866D01*
X179099294Y-53780986D01*
X179070000Y-53835791D01*
X179040706Y-53780986D01*
X178855134Y-53554866D01*
X178629014Y-53369294D01*
X178371034Y-53231401D01*
X178091111Y-53146487D01*
X177872950Y-53125000D01*
X177727050Y-53125000D01*
X177508889Y-53146487D01*
X177228966Y-53231401D01*
X176970986Y-53369294D01*
X176744866Y-53554866D01*
X176559294Y-53780986D01*
X176530000Y-53835791D01*
X176500706Y-53780986D01*
X176315134Y-53554866D01*
X176089014Y-53369294D01*
X175831034Y-53231401D01*
X175551111Y-53146487D01*
X175332950Y-53125000D01*
X175187050Y-53125000D01*
X174968889Y-53146487D01*
X174688966Y-53231401D01*
X174430986Y-53369294D01*
X174204866Y-53554866D01*
X174019294Y-53780986D01*
X173990000Y-53835791D01*
X173960706Y-53780986D01*
X173775134Y-53554866D01*
X173549014Y-53369294D01*
X173291034Y-53231401D01*
X173011111Y-53146487D01*
X172792950Y-53125000D01*
X172647050Y-53125000D01*
X172428889Y-53146487D01*
X172148966Y-53231401D01*
X171890986Y-53369294D01*
X171664866Y-53554866D01*
X171479294Y-53780986D01*
X171450000Y-53835791D01*
X171420706Y-53780986D01*
X171235134Y-53554866D01*
X171009014Y-53369294D01*
X170751034Y-53231401D01*
X170471111Y-53146487D01*
X170252950Y-53125000D01*
X170107050Y-53125000D01*
X169888889Y-53146487D01*
X169608966Y-53231401D01*
X169350986Y-53369294D01*
X169124866Y-53554866D01*
X168939294Y-53780986D01*
X168801401Y-54038966D01*
X168716487Y-54318889D01*
X168687815Y-54610000D01*
X168716487Y-54901111D01*
X168801401Y-55181034D01*
X168939294Y-55439014D01*
X169124866Y-55665134D01*
X169295000Y-55804759D01*
X169295000Y-55855557D01*
X169295001Y-55855567D01*
X169295000Y-57283423D01*
X166372641Y-60205782D01*
X166336671Y-60138486D01*
X166092702Y-60066903D01*
X165279605Y-60880000D01*
X165293748Y-60894143D01*
X165114143Y-61073748D01*
X165100000Y-61059605D01*
X164286903Y-61872702D01*
X164338638Y-62049027D01*
X162055566Y-64332100D01*
X162013166Y-64297303D01*
X161788125Y-64177017D01*
X161543942Y-64102944D01*
X161290000Y-64077933D01*
X161036057Y-64102944D01*
X160791874Y-64177017D01*
X160566833Y-64297303D01*
X160369582Y-64459182D01*
X160207703Y-64656434D01*
X160087417Y-64881475D01*
X160020000Y-65103716D01*
X159952583Y-64881474D01*
X159832297Y-64656433D01*
X159670418Y-64459182D01*
X159473166Y-64297303D01*
X159248125Y-64177017D01*
X159003942Y-64102944D01*
X158750000Y-64077933D01*
X158496057Y-64102944D01*
X158251874Y-64177017D01*
X158026833Y-64297303D01*
X157829582Y-64459182D01*
X157667703Y-64656434D01*
X157547417Y-64881475D01*
X157480000Y-65103716D01*
X157412583Y-64881474D01*
X157292297Y-64656433D01*
X157130418Y-64459182D01*
X156933166Y-64297303D01*
X156708125Y-64177017D01*
X156463942Y-64102944D01*
X156210000Y-64077933D01*
X155956057Y-64102944D01*
X155715400Y-64175947D01*
X155715400Y-60738665D01*
X158585000Y-60738665D01*
X158585000Y-61021335D01*
X158640147Y-61298574D01*
X158748320Y-61559727D01*
X158905363Y-61794759D01*
X159105241Y-61994637D01*
X159340273Y-62151680D01*
X159601426Y-62259853D01*
X159878665Y-62315000D01*
X160161335Y-62315000D01*
X160438574Y-62259853D01*
X160699727Y-62151680D01*
X160934759Y-61994637D01*
X161134637Y-61794759D01*
X161291680Y-61559727D01*
X161399853Y-61298574D01*
X161455000Y-61021335D01*
X161455000Y-60950512D01*
X163659783Y-60950512D01*
X163701213Y-61230130D01*
X163796397Y-61496292D01*
X163863329Y-61621514D01*
X164107298Y-61693097D01*
X164920395Y-60880000D01*
X164107298Y-60066903D01*
X163863329Y-60138486D01*
X163742429Y-60393996D01*
X163673700Y-60668184D01*
X163659783Y-60950512D01*
X161455000Y-60950512D01*
X161455000Y-60738665D01*
X161399853Y-60461426D01*
X161291680Y-60200273D01*
X161134637Y-59965241D01*
X161056694Y-59887298D01*
X164286903Y-59887298D01*
X165100000Y-60700395D01*
X165913097Y-59887298D01*
X165841514Y-59643329D01*
X165586004Y-59522429D01*
X165311816Y-59453700D01*
X165029488Y-59439783D01*
X164749870Y-59481213D01*
X164483708Y-59576397D01*
X164358486Y-59643329D01*
X164286903Y-59887298D01*
X161056694Y-59887298D01*
X160934759Y-59765363D01*
X160699727Y-59608320D01*
X160438574Y-59500147D01*
X160161335Y-59445000D01*
X159878665Y-59445000D01*
X159601426Y-59500147D01*
X159340273Y-59608320D01*
X159105241Y-59765363D01*
X158905363Y-59965241D01*
X158748320Y-60200273D01*
X158640147Y-60461426D01*
X158585000Y-60738665D01*
X155715400Y-60738665D01*
X155715400Y-55738665D01*
X158585000Y-55738665D01*
X158585000Y-56021335D01*
X158640147Y-56298574D01*
X158748320Y-56559727D01*
X158905363Y-56794759D01*
X159105241Y-56994637D01*
X159340273Y-57151680D01*
X159601426Y-57259853D01*
X159878665Y-57315000D01*
X160161335Y-57315000D01*
X160438574Y-57259853D01*
X160699727Y-57151680D01*
X160934759Y-56994637D01*
X161134637Y-56794759D01*
X161291680Y-56559727D01*
X161399853Y-56298574D01*
X161455000Y-56021335D01*
X161455000Y-55738665D01*
X163665000Y-55738665D01*
X163665000Y-56021335D01*
X163720147Y-56298574D01*
X163828320Y-56559727D01*
X163985363Y-56794759D01*
X164185241Y-56994637D01*
X164420273Y-57151680D01*
X164681426Y-57259853D01*
X164958665Y-57315000D01*
X165241335Y-57315000D01*
X165518574Y-57259853D01*
X165779727Y-57151680D01*
X166014759Y-56994637D01*
X166214637Y-56794759D01*
X166371680Y-56559727D01*
X166479853Y-56298574D01*
X166535000Y-56021335D01*
X166535000Y-55738665D01*
X166479853Y-55461426D01*
X166371680Y-55200273D01*
X166214637Y-54965241D01*
X166014759Y-54765363D01*
X165779727Y-54608320D01*
X165518574Y-54500147D01*
X165241335Y-54445000D01*
X164958665Y-54445000D01*
X164681426Y-54500147D01*
X164420273Y-54608320D01*
X164185241Y-54765363D01*
X163985363Y-54965241D01*
X163828320Y-55200273D01*
X163720147Y-55461426D01*
X163665000Y-55738665D01*
X161455000Y-55738665D01*
X161399853Y-55461426D01*
X161291680Y-55200273D01*
X161134637Y-54965241D01*
X160934759Y-54765363D01*
X160699727Y-54608320D01*
X160438574Y-54500147D01*
X160161335Y-54445000D01*
X159878665Y-54445000D01*
X159601426Y-54500147D01*
X159340273Y-54608320D01*
X159105241Y-54765363D01*
X158905363Y-54965241D01*
X158748320Y-55200273D01*
X158640147Y-55461426D01*
X158585000Y-55738665D01*
X155715400Y-55738665D01*
X155715400Y-45851785D01*
X155918889Y-45913513D01*
X156137050Y-45935000D01*
X156282950Y-45935000D01*
X156501111Y-45913513D01*
X156781034Y-45828599D01*
X157039014Y-45690706D01*
X157265134Y-45505134D01*
X157450706Y-45279014D01*
X157480000Y-45224209D01*
X157509294Y-45279014D01*
X157694866Y-45505134D01*
X157920986Y-45690706D01*
X158178966Y-45828599D01*
X158458889Y-45913513D01*
X158677050Y-45935000D01*
X158822950Y-45935000D01*
X159041111Y-45913513D01*
X159321034Y-45828599D01*
X159579014Y-45690706D01*
X159805134Y-45505134D01*
X159829607Y-45475313D01*
X159850498Y-45544180D01*
X159909463Y-45654494D01*
X159988815Y-45751185D01*
X160085506Y-45830537D01*
X160195820Y-45889502D01*
X160315518Y-45925812D01*
X160440000Y-45938072D01*
X161004250Y-45935000D01*
X161163000Y-45776250D01*
X161163000Y-44577000D01*
X161417000Y-44577000D01*
X161417000Y-45776250D01*
X161575750Y-45935000D01*
X162140000Y-45938072D01*
X162264482Y-45925812D01*
X162384180Y-45889502D01*
X162494494Y-45830537D01*
X162591185Y-45751185D01*
X162670537Y-45654494D01*
X162729502Y-45544180D01*
X162765812Y-45424482D01*
X162778072Y-45300000D01*
X162775000Y-44735750D01*
X162616250Y-44577000D01*
X161417000Y-44577000D01*
X161163000Y-44577000D01*
X161143000Y-44577000D01*
X161143000Y-44323000D01*
X161163000Y-44323000D01*
X161163000Y-43123750D01*
X161417000Y-43123750D01*
X161417000Y-44323000D01*
X162616250Y-44323000D01*
X162775000Y-44164250D01*
X162775730Y-44030000D01*
X182661928Y-44030000D01*
X182674188Y-44154482D01*
X182710498Y-44274180D01*
X182769463Y-44384494D01*
X182848815Y-44481185D01*
X182945506Y-44560537D01*
X183055820Y-44619502D01*
X183175518Y-44655812D01*
X183300000Y-44668072D01*
X183864250Y-44665000D01*
X184023000Y-44506250D01*
X184023000Y-43307000D01*
X182823750Y-43307000D01*
X182665000Y-43465750D01*
X182661928Y-44030000D01*
X162775730Y-44030000D01*
X162778072Y-43600000D01*
X162765812Y-43475518D01*
X162729502Y-43355820D01*
X162670537Y-43245506D01*
X162591185Y-43148815D01*
X162494494Y-43069463D01*
X162384180Y-43010498D01*
X162264482Y-42974188D01*
X162140000Y-42961928D01*
X161575750Y-42965000D01*
X161417000Y-43123750D01*
X161163000Y-43123750D01*
X161004250Y-42965000D01*
X160440000Y-42961928D01*
X160315518Y-42974188D01*
X160195820Y-43010498D01*
X160085506Y-43069463D01*
X159988815Y-43148815D01*
X159909463Y-43245506D01*
X159850498Y-43355820D01*
X159829607Y-43424687D01*
X159805134Y-43394866D01*
X159579014Y-43209294D01*
X159321034Y-43071401D01*
X159199152Y-43034428D01*
X168851047Y-33382534D01*
X168884815Y-33354821D01*
X168920688Y-33311111D01*
X168995408Y-33220064D01*
X168995409Y-33220063D01*
X169077587Y-33066317D01*
X169128193Y-32899494D01*
X169140998Y-32769481D01*
X169140998Y-32769471D01*
X169145279Y-32726005D01*
X169140998Y-32682539D01*
X169140998Y-31365000D01*
X182955241Y-31365000D01*
X183094866Y-31535134D01*
M02*
