M48
; DRILL file {KiCad (5.1.2)-1} date 05/15/19 23:48:05
; FORMAT={-:-/ absolute / inch / decimal}
; #@! TF.CreationDate,2019-05-15T23:48:05+02:00
; #@! TF.GenerationSoftware,Kicad,Pcbnew,(5.1.2)-1
; #@! TF.FileFunction,Plated,1,2,PTH
FMAT,2
INCH
T1C0.0315
T2C0.0320
T3C0.0394
T4C0.0598
T5C0.1260
%
G90
G05
T1
X6.6469Y-4.65
X6.3Y-4.55
X6.3Y-4.7469
X6.85Y-4.6579
X6.85Y-4.85
X6.3Y-3.0531
X6.3Y-3.25
X6.5Y-3.7
X6.5Y-3.8969
X6.4531Y-3.15
X6.65Y-3.15
X6.45Y-4.65
X6.5Y-2.2
X6.5Y-2.3969
X6.45Y-3.3
X6.6469Y-3.3
X6.85Y-3.15
X6.85Y-3.3421
X6.4531Y-4.8
X6.65Y-4.8
X6.3Y-2.2
X6.3Y-2.3969
X6.3Y-3.7031
X6.3Y-3.9
T2
X5.65Y-4.1
X5.65Y-4.4
X5.75Y-4.1
X5.75Y-4.4
X5.85Y-4.1
X5.85Y-4.4
X5.95Y-4.1
X5.95Y-4.4
X6.05Y-4.1
X6.05Y-4.4
X6.15Y-4.1
X6.15Y-4.4
X6.25Y-4.1
X6.25Y-4.4
X6.35Y-4.1
X6.35Y-4.4
X6.45Y-4.1
X6.45Y-4.4
X6.55Y-4.1
X6.55Y-4.4
X6.65Y-4.1
X6.65Y-4.4
X6.75Y-4.1
X6.75Y-4.4
X6.85Y-4.1
X6.85Y-4.4
X6.95Y-4.1
X6.95Y-4.4
X5.65Y-2.6
X5.65Y-2.9
X5.75Y-2.6
X5.75Y-2.9
X5.85Y-2.6
X5.85Y-2.9
X5.95Y-2.6
X5.95Y-2.9
X6.05Y-2.6
X6.05Y-2.9
X6.15Y-2.6
X6.15Y-2.9
X6.25Y-2.6
X6.25Y-2.9
X6.35Y-2.6
X6.35Y-2.9
X6.45Y-2.6
X6.45Y-2.9
X6.55Y-2.6
X6.55Y-2.9
X6.65Y-2.6
X6.65Y-2.9
X6.75Y-2.6
X6.75Y-2.9
X6.85Y-2.6
X6.85Y-2.9
X6.95Y-2.6
X6.95Y-2.9
T3
X5.25Y-5.3
X5.25Y-5.4
X5.25Y-5.5
X5.25Y-5.6
X5.25Y-5.7
X5.25Y-5.8
X6.75Y-5.65
X6.85Y-5.65
X6.95Y-5.65
X7.05Y-5.65
X7.15Y-5.65
X7.25Y-5.65
X6.7Y-2.15
X6.8Y-2.15
X6.9Y-2.15
X7.0Y-2.15
X7.1Y-2.15
X7.2Y-2.15
X7.25Y-1.2
X7.25Y-1.3
X7.25Y-1.4
X7.25Y-1.5
X7.25Y-1.6
X7.25Y-1.7
X6.15Y-1.15
X6.25Y-1.15
X6.35Y-1.15
X6.15Y-1.75
X6.25Y-1.75
X6.35Y-1.75
T4
X5.35Y-1.95
X5.35Y-2.15
X5.35Y-2.35
X5.35Y-1.25
X5.35Y-1.45
X5.35Y-1.65
T5
X6.25Y-5.65
X7.25Y-3.4
X5.4Y-3.35
X6.25Y-1.45
T0
M30
