G04 #@! TF.GenerationSoftware,KiCad,Pcbnew,(5.1.2)-1*
G04 #@! TF.CreationDate,2019-05-22T15:10:38+02:00*
G04 #@! TF.ProjectId,ADClock1,4144436c-6f63-46b3-912e-6b696361645f,rev?*
G04 #@! TF.SameCoordinates,Original*
G04 #@! TF.FileFunction,Legend,Top*
G04 #@! TF.FilePolarity,Positive*
%FSLAX46Y46*%
G04 Gerber Fmt 4.6, Leading zero omitted, Abs format (unit mm)*
G04 Created by KiCad (PCBNEW (5.1.2)-1) date 2019-05-22 15:10:38*
%MOMM*%
%LPD*%
G04 APERTURE LIST*
%ADD10C,0.250000*%
%ADD11C,0.300000*%
%ADD12C,0.120000*%
%ADD13C,0.150000*%
%ADD14C,0.127000*%
%ADD15C,0.200000*%
%ADD16C,0.050000*%
G04 APERTURE END LIST*
D10*
X102870000Y-55880000D02*
X102870000Y-63500000D01*
X115570000Y-55880000D02*
X102870000Y-55880000D01*
X115570000Y-63500000D02*
X115570000Y-55880000D01*
X102870000Y-63500000D02*
X115570000Y-63500000D01*
D11*
X103648571Y-58373333D02*
X104600952Y-58373333D01*
X103458095Y-58944761D02*
X104124761Y-56944761D01*
X104791428Y-58944761D01*
X105458095Y-58944761D02*
X105458095Y-56944761D01*
X105934285Y-56944761D01*
X106220000Y-57040000D01*
X106410476Y-57230476D01*
X106505714Y-57420952D01*
X106600952Y-57801904D01*
X106600952Y-58087619D01*
X106505714Y-58468571D01*
X106410476Y-58659047D01*
X106220000Y-58849523D01*
X105934285Y-58944761D01*
X105458095Y-58944761D01*
X108600952Y-58754285D02*
X108505714Y-58849523D01*
X108220000Y-58944761D01*
X108029523Y-58944761D01*
X107743809Y-58849523D01*
X107553333Y-58659047D01*
X107458095Y-58468571D01*
X107362857Y-58087619D01*
X107362857Y-57801904D01*
X107458095Y-57420952D01*
X107553333Y-57230476D01*
X107743809Y-57040000D01*
X108029523Y-56944761D01*
X108220000Y-56944761D01*
X108505714Y-57040000D01*
X108600952Y-57135238D01*
X109743809Y-58944761D02*
X109553333Y-58849523D01*
X109458095Y-58659047D01*
X109458095Y-56944761D01*
X110791428Y-58944761D02*
X110600952Y-58849523D01*
X110505714Y-58754285D01*
X110410476Y-58563809D01*
X110410476Y-57992380D01*
X110505714Y-57801904D01*
X110600952Y-57706666D01*
X110791428Y-57611428D01*
X111077142Y-57611428D01*
X111267619Y-57706666D01*
X111362857Y-57801904D01*
X111458095Y-57992380D01*
X111458095Y-58563809D01*
X111362857Y-58754285D01*
X111267619Y-58849523D01*
X111077142Y-58944761D01*
X110791428Y-58944761D01*
X113172380Y-58849523D02*
X112981904Y-58944761D01*
X112600952Y-58944761D01*
X112410476Y-58849523D01*
X112315238Y-58754285D01*
X112220000Y-58563809D01*
X112220000Y-57992380D01*
X112315238Y-57801904D01*
X112410476Y-57706666D01*
X112600952Y-57611428D01*
X112981904Y-57611428D01*
X113172380Y-57706666D01*
X114029523Y-58944761D02*
X114029523Y-56944761D01*
X114220000Y-58182857D02*
X114791428Y-58944761D01*
X114791428Y-57611428D02*
X114029523Y-58373333D01*
X104220000Y-62244761D02*
X104220000Y-60244761D01*
X104981904Y-60244761D01*
X105172380Y-60340000D01*
X105267619Y-60435238D01*
X105362857Y-60625714D01*
X105362857Y-60911428D01*
X105267619Y-61101904D01*
X105172380Y-61197142D01*
X104981904Y-61292380D01*
X104220000Y-61292380D01*
X107362857Y-62054285D02*
X107267619Y-62149523D01*
X106981904Y-62244761D01*
X106791428Y-62244761D01*
X106505714Y-62149523D01*
X106315238Y-61959047D01*
X106220000Y-61768571D01*
X106124761Y-61387619D01*
X106124761Y-61101904D01*
X106220000Y-60720952D01*
X106315238Y-60530476D01*
X106505714Y-60340000D01*
X106791428Y-60244761D01*
X106981904Y-60244761D01*
X107267619Y-60340000D01*
X107362857Y-60435238D01*
X108886666Y-61197142D02*
X109172380Y-61292380D01*
X109267619Y-61387619D01*
X109362857Y-61578095D01*
X109362857Y-61863809D01*
X109267619Y-62054285D01*
X109172380Y-62149523D01*
X108981904Y-62244761D01*
X108220000Y-62244761D01*
X108220000Y-60244761D01*
X108886666Y-60244761D01*
X109077142Y-60340000D01*
X109172380Y-60435238D01*
X109267619Y-60625714D01*
X109267619Y-60816190D01*
X109172380Y-61006666D01*
X109077142Y-61101904D01*
X108886666Y-61197142D01*
X108220000Y-61197142D01*
X111553333Y-60911428D02*
X112029523Y-62244761D01*
X112505714Y-60911428D01*
X113172380Y-60435238D02*
X113267619Y-60340000D01*
X113458095Y-60244761D01*
X113934285Y-60244761D01*
X114124761Y-60340000D01*
X114220000Y-60435238D01*
X114315238Y-60625714D01*
X114315238Y-60816190D01*
X114220000Y-61101904D01*
X113077142Y-62244761D01*
X114315238Y-62244761D01*
D12*
X92951428Y-30151428D02*
X93008571Y-30151428D01*
X93065714Y-30180000D01*
X93094285Y-30208571D01*
X93122857Y-30265714D01*
X93151428Y-30380000D01*
X93151428Y-30522857D01*
X93122857Y-30637142D01*
X93094285Y-30694285D01*
X93065714Y-30722857D01*
X93008571Y-30751428D01*
X92951428Y-30751428D01*
X92894285Y-30722857D01*
X92865714Y-30694285D01*
X92837142Y-30637142D01*
X92808571Y-30522857D01*
X92808571Y-30380000D01*
X92837142Y-30265714D01*
X92865714Y-30208571D01*
X92894285Y-30180000D01*
X92951428Y-30151428D01*
X93408571Y-30694285D02*
X93437142Y-30722857D01*
X93408571Y-30751428D01*
X93380000Y-30722857D01*
X93408571Y-30694285D01*
X93408571Y-30751428D01*
X94008571Y-30751428D02*
X93665714Y-30751428D01*
X93837142Y-30751428D02*
X93837142Y-30151428D01*
X93780000Y-30237142D01*
X93722857Y-30294285D01*
X93665714Y-30322857D01*
X94265714Y-30351428D02*
X94265714Y-30951428D01*
X94551428Y-30665714D02*
X94580000Y-30722857D01*
X94637142Y-30751428D01*
X94265714Y-30665714D02*
X94294285Y-30722857D01*
X94351428Y-30751428D01*
X94465714Y-30751428D01*
X94522857Y-30722857D01*
X94551428Y-30665714D01*
X94551428Y-30351428D01*
X95094285Y-30437142D02*
X94894285Y-30437142D01*
X94894285Y-30751428D02*
X94894285Y-30151428D01*
X95180000Y-30151428D01*
X95491428Y-45391428D02*
X95548571Y-45391428D01*
X95605714Y-45420000D01*
X95634285Y-45448571D01*
X95662857Y-45505714D01*
X95691428Y-45620000D01*
X95691428Y-45762857D01*
X95662857Y-45877142D01*
X95634285Y-45934285D01*
X95605714Y-45962857D01*
X95548571Y-45991428D01*
X95491428Y-45991428D01*
X95434285Y-45962857D01*
X95405714Y-45934285D01*
X95377142Y-45877142D01*
X95348571Y-45762857D01*
X95348571Y-45620000D01*
X95377142Y-45505714D01*
X95405714Y-45448571D01*
X95434285Y-45420000D01*
X95491428Y-45391428D01*
X95948571Y-45934285D02*
X95977142Y-45962857D01*
X95948571Y-45991428D01*
X95920000Y-45962857D01*
X95948571Y-45934285D01*
X95948571Y-45991428D01*
X96548571Y-45991428D02*
X96205714Y-45991428D01*
X96377142Y-45991428D02*
X96377142Y-45391428D01*
X96320000Y-45477142D01*
X96262857Y-45534285D01*
X96205714Y-45562857D01*
X96805714Y-45591428D02*
X96805714Y-46191428D01*
X97091428Y-45905714D02*
X97120000Y-45962857D01*
X97177142Y-45991428D01*
X96805714Y-45905714D02*
X96834285Y-45962857D01*
X96891428Y-45991428D01*
X97005714Y-45991428D01*
X97062857Y-45962857D01*
X97091428Y-45905714D01*
X97091428Y-45591428D01*
X97634285Y-45677142D02*
X97434285Y-45677142D01*
X97434285Y-45991428D02*
X97434285Y-45391428D01*
X97720000Y-45391428D01*
X110445714Y-51708095D02*
X110483809Y-51670000D01*
X110560000Y-51631904D01*
X110750476Y-51631904D01*
X110826666Y-51670000D01*
X110864761Y-51708095D01*
X110902857Y-51784285D01*
X110902857Y-51860476D01*
X110864761Y-51974761D01*
X110407619Y-52431904D01*
X110902857Y-52431904D01*
X111207619Y-51708095D02*
X111245714Y-51670000D01*
X111321904Y-51631904D01*
X111512380Y-51631904D01*
X111588571Y-51670000D01*
X111626666Y-51708095D01*
X111664761Y-51784285D01*
X111664761Y-51860476D01*
X111626666Y-51974761D01*
X111169523Y-52431904D01*
X111664761Y-52431904D01*
X112007619Y-51898571D02*
X112007619Y-52698571D01*
X112007619Y-51936666D02*
X112083809Y-51898571D01*
X112236190Y-51898571D01*
X112312380Y-51936666D01*
X112350476Y-51974761D01*
X112388571Y-52050952D01*
X112388571Y-52279523D01*
X112350476Y-52355714D01*
X112312380Y-52393809D01*
X112236190Y-52431904D01*
X112083809Y-52431904D01*
X112007619Y-52393809D01*
X112998095Y-52012857D02*
X112731428Y-52012857D01*
X112731428Y-52431904D02*
X112731428Y-51631904D01*
X113112380Y-51631904D01*
X101555714Y-51708095D02*
X101593809Y-51670000D01*
X101670000Y-51631904D01*
X101860476Y-51631904D01*
X101936666Y-51670000D01*
X101974761Y-51708095D01*
X102012857Y-51784285D01*
X102012857Y-51860476D01*
X101974761Y-51974761D01*
X101517619Y-52431904D01*
X102012857Y-52431904D01*
X102317619Y-51708095D02*
X102355714Y-51670000D01*
X102431904Y-51631904D01*
X102622380Y-51631904D01*
X102698571Y-51670000D01*
X102736666Y-51708095D01*
X102774761Y-51784285D01*
X102774761Y-51860476D01*
X102736666Y-51974761D01*
X102279523Y-52431904D01*
X102774761Y-52431904D01*
X103117619Y-51898571D02*
X103117619Y-52698571D01*
X103117619Y-51936666D02*
X103193809Y-51898571D01*
X103346190Y-51898571D01*
X103422380Y-51936666D01*
X103460476Y-51974761D01*
X103498571Y-52050952D01*
X103498571Y-52279523D01*
X103460476Y-52355714D01*
X103422380Y-52393809D01*
X103346190Y-52431904D01*
X103193809Y-52431904D01*
X103117619Y-52393809D01*
X104108095Y-52012857D02*
X103841428Y-52012857D01*
X103841428Y-52431904D02*
X103841428Y-51631904D01*
X104222380Y-51631904D01*
D13*
X75033333Y-60142380D02*
X74461904Y-60142380D01*
X74747619Y-60142380D02*
X74747619Y-59142380D01*
X74652380Y-59285238D01*
X74557142Y-59380476D01*
X74461904Y-59428095D01*
X75652380Y-59142380D02*
X75747619Y-59142380D01*
X75842857Y-59190000D01*
X75890476Y-59237619D01*
X75938095Y-59332857D01*
X75985714Y-59523333D01*
X75985714Y-59761428D01*
X75938095Y-59951904D01*
X75890476Y-60047142D01*
X75842857Y-60094761D01*
X75747619Y-60142380D01*
X75652380Y-60142380D01*
X75557142Y-60094761D01*
X75509523Y-60047142D01*
X75461904Y-59951904D01*
X75414285Y-59761428D01*
X75414285Y-59523333D01*
X75461904Y-59332857D01*
X75509523Y-59237619D01*
X75557142Y-59190000D01*
X75652380Y-59142380D01*
X76414285Y-60142380D02*
X76414285Y-59142380D01*
X76509523Y-59761428D02*
X76795238Y-60142380D01*
X76795238Y-59475714D02*
X76414285Y-59856666D01*
X77176190Y-60142380D02*
X77414285Y-60142380D01*
X77414285Y-59951904D01*
X77319047Y-59904285D01*
X77223809Y-59809047D01*
X77176190Y-59666190D01*
X77176190Y-59428095D01*
X77223809Y-59285238D01*
X77319047Y-59190000D01*
X77461904Y-59142380D01*
X77652380Y-59142380D01*
X77795238Y-59190000D01*
X77890476Y-59285238D01*
X77938095Y-59428095D01*
X77938095Y-59666190D01*
X77890476Y-59809047D01*
X77795238Y-59904285D01*
X77700000Y-59951904D01*
X77700000Y-60142380D01*
X77938095Y-60142380D01*
X134285595Y-58872380D02*
X134285595Y-57872380D01*
X134523690Y-57872380D01*
X134666547Y-57920000D01*
X134761785Y-58015238D01*
X134809404Y-58110476D01*
X134857023Y-58300952D01*
X134857023Y-58443809D01*
X134809404Y-58634285D01*
X134761785Y-58729523D01*
X134666547Y-58824761D01*
X134523690Y-58872380D01*
X134285595Y-58872380D01*
X135809404Y-58872380D02*
X135237976Y-58872380D01*
X135523690Y-58872380D02*
X135523690Y-57872380D01*
X135428452Y-58015238D01*
X135333214Y-58110476D01*
X135237976Y-58158095D01*
X136142738Y-57872380D02*
X136761785Y-57872380D01*
X136428452Y-58253333D01*
X136571309Y-58253333D01*
X136666547Y-58300952D01*
X136714166Y-58348571D01*
X136761785Y-58443809D01*
X136761785Y-58681904D01*
X136714166Y-58777142D01*
X136666547Y-58824761D01*
X136571309Y-58872380D01*
X136285595Y-58872380D01*
X136190357Y-58824761D01*
X136142738Y-58777142D01*
X134285595Y-56332380D02*
X134285595Y-55332380D01*
X134523690Y-55332380D01*
X134666547Y-55380000D01*
X134761785Y-55475238D01*
X134809404Y-55570476D01*
X134857023Y-55760952D01*
X134857023Y-55903809D01*
X134809404Y-56094285D01*
X134761785Y-56189523D01*
X134666547Y-56284761D01*
X134523690Y-56332380D01*
X134285595Y-56332380D01*
X135809404Y-56332380D02*
X135237976Y-56332380D01*
X135523690Y-56332380D02*
X135523690Y-55332380D01*
X135428452Y-55475238D01*
X135333214Y-55570476D01*
X135237976Y-55618095D01*
X136190357Y-55427619D02*
X136237976Y-55380000D01*
X136333214Y-55332380D01*
X136571309Y-55332380D01*
X136666547Y-55380000D01*
X136714166Y-55427619D01*
X136761785Y-55522857D01*
X136761785Y-55618095D01*
X136714166Y-55760952D01*
X136142738Y-56332380D01*
X136761785Y-56332380D01*
X134285595Y-53792380D02*
X134285595Y-52792380D01*
X134523690Y-52792380D01*
X134666547Y-52840000D01*
X134761785Y-52935238D01*
X134809404Y-53030476D01*
X134857023Y-53220952D01*
X134857023Y-53363809D01*
X134809404Y-53554285D01*
X134761785Y-53649523D01*
X134666547Y-53744761D01*
X134523690Y-53792380D01*
X134285595Y-53792380D01*
X135809404Y-53792380D02*
X135237976Y-53792380D01*
X135523690Y-53792380D02*
X135523690Y-52792380D01*
X135428452Y-52935238D01*
X135333214Y-53030476D01*
X135237976Y-53078095D01*
X136761785Y-53792380D02*
X136190357Y-53792380D01*
X136476071Y-53792380D02*
X136476071Y-52792380D01*
X136380833Y-52935238D01*
X136285595Y-53030476D01*
X136190357Y-53078095D01*
X134285595Y-51252380D02*
X134285595Y-50252380D01*
X134523690Y-50252380D01*
X134666547Y-50300000D01*
X134761785Y-50395238D01*
X134809404Y-50490476D01*
X134857023Y-50680952D01*
X134857023Y-50823809D01*
X134809404Y-51014285D01*
X134761785Y-51109523D01*
X134666547Y-51204761D01*
X134523690Y-51252380D01*
X134285595Y-51252380D01*
X135809404Y-51252380D02*
X135237976Y-51252380D01*
X135523690Y-51252380D02*
X135523690Y-50252380D01*
X135428452Y-50395238D01*
X135333214Y-50490476D01*
X135237976Y-50538095D01*
X136428452Y-50252380D02*
X136523690Y-50252380D01*
X136618928Y-50300000D01*
X136666547Y-50347619D01*
X136714166Y-50442857D01*
X136761785Y-50633333D01*
X136761785Y-50871428D01*
X136714166Y-51061904D01*
X136666547Y-51157142D01*
X136618928Y-51204761D01*
X136523690Y-51252380D01*
X136428452Y-51252380D01*
X136333214Y-51204761D01*
X136285595Y-51157142D01*
X136237976Y-51061904D01*
X136190357Y-50871428D01*
X136190357Y-50633333D01*
X136237976Y-50442857D01*
X136285595Y-50347619D01*
X136333214Y-50300000D01*
X136428452Y-50252380D01*
X120511904Y-58872380D02*
X120511904Y-57872380D01*
X120750000Y-57872380D01*
X120892857Y-57920000D01*
X120988095Y-58015238D01*
X121035714Y-58110476D01*
X121083333Y-58300952D01*
X121083333Y-58443809D01*
X121035714Y-58634285D01*
X120988095Y-58729523D01*
X120892857Y-58824761D01*
X120750000Y-58872380D01*
X120511904Y-58872380D01*
X121940476Y-57872380D02*
X121750000Y-57872380D01*
X121654761Y-57920000D01*
X121607142Y-57967619D01*
X121511904Y-58110476D01*
X121464285Y-58300952D01*
X121464285Y-58681904D01*
X121511904Y-58777142D01*
X121559523Y-58824761D01*
X121654761Y-58872380D01*
X121845238Y-58872380D01*
X121940476Y-58824761D01*
X121988095Y-58777142D01*
X122035714Y-58681904D01*
X122035714Y-58443809D01*
X121988095Y-58348571D01*
X121940476Y-58300952D01*
X121845238Y-58253333D01*
X121654761Y-58253333D01*
X121559523Y-58300952D01*
X121511904Y-58348571D01*
X121464285Y-58443809D01*
X120511904Y-56332380D02*
X120511904Y-55332380D01*
X120750000Y-55332380D01*
X120892857Y-55380000D01*
X120988095Y-55475238D01*
X121035714Y-55570476D01*
X121083333Y-55760952D01*
X121083333Y-55903809D01*
X121035714Y-56094285D01*
X120988095Y-56189523D01*
X120892857Y-56284761D01*
X120750000Y-56332380D01*
X120511904Y-56332380D01*
X121416666Y-55332380D02*
X122083333Y-55332380D01*
X121654761Y-56332380D01*
X120511904Y-53792380D02*
X120511904Y-52792380D01*
X120750000Y-52792380D01*
X120892857Y-52840000D01*
X120988095Y-52935238D01*
X121035714Y-53030476D01*
X121083333Y-53220952D01*
X121083333Y-53363809D01*
X121035714Y-53554285D01*
X120988095Y-53649523D01*
X120892857Y-53744761D01*
X120750000Y-53792380D01*
X120511904Y-53792380D01*
X121654761Y-53220952D02*
X121559523Y-53173333D01*
X121511904Y-53125714D01*
X121464285Y-53030476D01*
X121464285Y-52982857D01*
X121511904Y-52887619D01*
X121559523Y-52840000D01*
X121654761Y-52792380D01*
X121845238Y-52792380D01*
X121940476Y-52840000D01*
X121988095Y-52887619D01*
X122035714Y-52982857D01*
X122035714Y-53030476D01*
X121988095Y-53125714D01*
X121940476Y-53173333D01*
X121845238Y-53220952D01*
X121654761Y-53220952D01*
X121559523Y-53268571D01*
X121511904Y-53316190D01*
X121464285Y-53411428D01*
X121464285Y-53601904D01*
X121511904Y-53697142D01*
X121559523Y-53744761D01*
X121654761Y-53792380D01*
X121845238Y-53792380D01*
X121940476Y-53744761D01*
X121988095Y-53697142D01*
X122035714Y-53601904D01*
X122035714Y-53411428D01*
X121988095Y-53316190D01*
X121940476Y-53268571D01*
X121845238Y-53220952D01*
X120511904Y-51252380D02*
X120511904Y-50252380D01*
X120750000Y-50252380D01*
X120892857Y-50300000D01*
X120988095Y-50395238D01*
X121035714Y-50490476D01*
X121083333Y-50680952D01*
X121083333Y-50823809D01*
X121035714Y-51014285D01*
X120988095Y-51109523D01*
X120892857Y-51204761D01*
X120750000Y-51252380D01*
X120511904Y-51252380D01*
X121559523Y-51252380D02*
X121750000Y-51252380D01*
X121845238Y-51204761D01*
X121892857Y-51157142D01*
X121988095Y-51014285D01*
X122035714Y-50823809D01*
X122035714Y-50442857D01*
X121988095Y-50347619D01*
X121940476Y-50300000D01*
X121845238Y-50252380D01*
X121654761Y-50252380D01*
X121559523Y-50300000D01*
X121511904Y-50347619D01*
X121464285Y-50442857D01*
X121464285Y-50680952D01*
X121511904Y-50776190D01*
X121559523Y-50823809D01*
X121654761Y-50871428D01*
X121845238Y-50871428D01*
X121940476Y-50823809D01*
X121988095Y-50776190D01*
X122035714Y-50680952D01*
X127508095Y-47760000D02*
X127412857Y-47712380D01*
X127270000Y-47712380D01*
X127127142Y-47760000D01*
X127031904Y-47855238D01*
X126984285Y-47950476D01*
X126936666Y-48140952D01*
X126936666Y-48283809D01*
X126984285Y-48474285D01*
X127031904Y-48569523D01*
X127127142Y-48664761D01*
X127270000Y-48712380D01*
X127365238Y-48712380D01*
X127508095Y-48664761D01*
X127555714Y-48617142D01*
X127555714Y-48283809D01*
X127365238Y-48283809D01*
X127984285Y-48712380D02*
X127984285Y-47712380D01*
X128555714Y-48712380D01*
X128555714Y-47712380D01*
X129031904Y-48712380D02*
X129031904Y-47712380D01*
X129270000Y-47712380D01*
X129412857Y-47760000D01*
X129508095Y-47855238D01*
X129555714Y-47950476D01*
X129603333Y-48140952D01*
X129603333Y-48283809D01*
X129555714Y-48474285D01*
X129508095Y-48569523D01*
X129412857Y-48664761D01*
X129270000Y-48712380D01*
X129031904Y-48712380D01*
X126936666Y-45172380D02*
X127270000Y-46172380D01*
X127603333Y-45172380D01*
X128508095Y-46077142D02*
X128460476Y-46124761D01*
X128317619Y-46172380D01*
X128222380Y-46172380D01*
X128079523Y-46124761D01*
X127984285Y-46029523D01*
X127936666Y-45934285D01*
X127889047Y-45743809D01*
X127889047Y-45600952D01*
X127936666Y-45410476D01*
X127984285Y-45315238D01*
X128079523Y-45220000D01*
X128222380Y-45172380D01*
X128317619Y-45172380D01*
X128460476Y-45220000D01*
X128508095Y-45267619D01*
X129508095Y-46077142D02*
X129460476Y-46124761D01*
X129317619Y-46172380D01*
X129222380Y-46172380D01*
X129079523Y-46124761D01*
X128984285Y-46029523D01*
X128936666Y-45934285D01*
X128889047Y-45743809D01*
X128889047Y-45600952D01*
X128936666Y-45410476D01*
X128984285Y-45315238D01*
X129079523Y-45220000D01*
X129222380Y-45172380D01*
X129317619Y-45172380D01*
X129460476Y-45220000D01*
X129508095Y-45267619D01*
X71286666Y-38026093D02*
X71286666Y-37549903D01*
X71572380Y-38121331D02*
X70572380Y-37787998D01*
X71572380Y-37454665D01*
X71572380Y-36597522D02*
X71572380Y-37168950D01*
X71572380Y-36883236D02*
X70572380Y-36883236D01*
X70715238Y-36978474D01*
X70810476Y-37073712D01*
X70858095Y-37168950D01*
X75464907Y-38026093D02*
X75464907Y-37549903D01*
X75750621Y-38121331D02*
X74750621Y-37787998D01*
X75750621Y-37454665D01*
X74750621Y-36930855D02*
X74750621Y-36835617D01*
X74798241Y-36740379D01*
X74845860Y-36692760D01*
X74941098Y-36645141D01*
X75131574Y-36597522D01*
X75369669Y-36597522D01*
X75560145Y-36645141D01*
X75655383Y-36692760D01*
X75703002Y-36740379D01*
X75750621Y-36835617D01*
X75750621Y-36930855D01*
X75703002Y-37026093D01*
X75655383Y-37073712D01*
X75560145Y-37121331D01*
X75369669Y-37168950D01*
X75131574Y-37168950D01*
X74941098Y-37121331D01*
X74845860Y-37073712D01*
X74798241Y-37026093D01*
X74750621Y-36930855D01*
X77095470Y-45574089D02*
X77428804Y-46574089D01*
X77762137Y-45574089D01*
X78666899Y-46478851D02*
X78619280Y-46526470D01*
X78476423Y-46574089D01*
X78381184Y-46574089D01*
X78238327Y-46526470D01*
X78143089Y-46431232D01*
X78095470Y-46335994D01*
X78047851Y-46145518D01*
X78047851Y-46002661D01*
X78095470Y-45812185D01*
X78143089Y-45716947D01*
X78238327Y-45621709D01*
X78381184Y-45574089D01*
X78476423Y-45574089D01*
X78619280Y-45621709D01*
X78666899Y-45669328D01*
X79666899Y-46478851D02*
X79619280Y-46526470D01*
X79476423Y-46574089D01*
X79381184Y-46574089D01*
X79238327Y-46526470D01*
X79143089Y-46431232D01*
X79095470Y-46335994D01*
X79047851Y-46145518D01*
X79047851Y-46002661D01*
X79095470Y-45812185D01*
X79143089Y-45716947D01*
X79238327Y-45621709D01*
X79381184Y-45574089D01*
X79476423Y-45574089D01*
X79619280Y-45621709D01*
X79666899Y-45669328D01*
X77639195Y-43599310D02*
X77543957Y-43551690D01*
X77401100Y-43551690D01*
X77258242Y-43599310D01*
X77163004Y-43694548D01*
X77115385Y-43789786D01*
X77067766Y-43980262D01*
X77067766Y-44123119D01*
X77115385Y-44313595D01*
X77163004Y-44408833D01*
X77258242Y-44504071D01*
X77401100Y-44551690D01*
X77496338Y-44551690D01*
X77639195Y-44504071D01*
X77686814Y-44456452D01*
X77686814Y-44123119D01*
X77496338Y-44123119D01*
X78115385Y-44551690D02*
X78115385Y-43551690D01*
X78686814Y-44551690D01*
X78686814Y-43551690D01*
X79163004Y-44551690D02*
X79163004Y-43551690D01*
X79401100Y-43551690D01*
X79543957Y-43599310D01*
X79639195Y-43694548D01*
X79686814Y-43789786D01*
X79734433Y-43980262D01*
X79734433Y-44123119D01*
X79686814Y-44313595D01*
X79639195Y-44408833D01*
X79543957Y-44504071D01*
X79401100Y-44551690D01*
X79163004Y-44551690D01*
X67148095Y-42680000D02*
X67052857Y-42632380D01*
X66910000Y-42632380D01*
X66767142Y-42680000D01*
X66671904Y-42775238D01*
X66624285Y-42870476D01*
X66576666Y-43060952D01*
X66576666Y-43203809D01*
X66624285Y-43394285D01*
X66671904Y-43489523D01*
X66767142Y-43584761D01*
X66910000Y-43632380D01*
X67005238Y-43632380D01*
X67148095Y-43584761D01*
X67195714Y-43537142D01*
X67195714Y-43203809D01*
X67005238Y-43203809D01*
X67624285Y-43632380D02*
X67624285Y-42632380D01*
X68195714Y-43632380D01*
X68195714Y-42632380D01*
X68671904Y-43632380D02*
X68671904Y-42632380D01*
X68910000Y-42632380D01*
X69052857Y-42680000D01*
X69148095Y-42775238D01*
X69195714Y-42870476D01*
X69243333Y-43060952D01*
X69243333Y-43203809D01*
X69195714Y-43394285D01*
X69148095Y-43489523D01*
X69052857Y-43584761D01*
X68910000Y-43632380D01*
X68671904Y-43632380D01*
X66576666Y-45172380D02*
X66910000Y-46172380D01*
X67243333Y-45172380D01*
X68148095Y-46077142D02*
X68100476Y-46124761D01*
X67957619Y-46172380D01*
X67862380Y-46172380D01*
X67719523Y-46124761D01*
X67624285Y-46029523D01*
X67576666Y-45934285D01*
X67529047Y-45743809D01*
X67529047Y-45600952D01*
X67576666Y-45410476D01*
X67624285Y-45315238D01*
X67719523Y-45220000D01*
X67862380Y-45172380D01*
X67957619Y-45172380D01*
X68100476Y-45220000D01*
X68148095Y-45267619D01*
X69148095Y-46077142D02*
X69100476Y-46124761D01*
X68957619Y-46172380D01*
X68862380Y-46172380D01*
X68719523Y-46124761D01*
X68624285Y-46029523D01*
X68576666Y-45934285D01*
X68529047Y-45743809D01*
X68529047Y-45600952D01*
X68576666Y-45410476D01*
X68624285Y-45315238D01*
X68719523Y-45220000D01*
X68862380Y-45172380D01*
X68957619Y-45172380D01*
X69100476Y-45220000D01*
X69148095Y-45267619D01*
X94797619Y-51031904D02*
X95797619Y-51031904D01*
X95797619Y-51270000D01*
X95750000Y-51412857D01*
X95654761Y-51508095D01*
X95559523Y-51555714D01*
X95369047Y-51603333D01*
X95226190Y-51603333D01*
X95035714Y-51555714D01*
X94940476Y-51508095D01*
X94845238Y-51412857D01*
X94797619Y-51270000D01*
X94797619Y-51031904D01*
X95797619Y-52508095D02*
X95797619Y-52031904D01*
X95321428Y-51984285D01*
X95369047Y-52031904D01*
X95416666Y-52127142D01*
X95416666Y-52365238D01*
X95369047Y-52460476D01*
X95321428Y-52508095D01*
X95226190Y-52555714D01*
X94988095Y-52555714D01*
X94892857Y-52508095D01*
X94845238Y-52460476D01*
X94797619Y-52365238D01*
X94797619Y-52127142D01*
X94845238Y-52031904D01*
X94892857Y-51984285D01*
X92257619Y-51031904D02*
X93257619Y-51031904D01*
X93257619Y-51270000D01*
X93210000Y-51412857D01*
X93114761Y-51508095D01*
X93019523Y-51555714D01*
X92829047Y-51603333D01*
X92686190Y-51603333D01*
X92495714Y-51555714D01*
X92400476Y-51508095D01*
X92305238Y-51412857D01*
X92257619Y-51270000D01*
X92257619Y-51031904D01*
X92924285Y-52460476D02*
X92257619Y-52460476D01*
X93305238Y-52222380D02*
X92590952Y-51984285D01*
X92590952Y-52603333D01*
X89717619Y-51031904D02*
X90717619Y-51031904D01*
X90717619Y-51270000D01*
X90670000Y-51412857D01*
X90574761Y-51508095D01*
X90479523Y-51555714D01*
X90289047Y-51603333D01*
X90146190Y-51603333D01*
X89955714Y-51555714D01*
X89860476Y-51508095D01*
X89765238Y-51412857D01*
X89717619Y-51270000D01*
X89717619Y-51031904D01*
X90717619Y-51936666D02*
X90717619Y-52555714D01*
X90336666Y-52222380D01*
X90336666Y-52365238D01*
X90289047Y-52460476D01*
X90241428Y-52508095D01*
X90146190Y-52555714D01*
X89908095Y-52555714D01*
X89812857Y-52508095D01*
X89765238Y-52460476D01*
X89717619Y-52365238D01*
X89717619Y-52079523D01*
X89765238Y-51984285D01*
X89812857Y-51936666D01*
X87177619Y-51031904D02*
X88177619Y-51031904D01*
X88177619Y-51270000D01*
X88130000Y-51412857D01*
X88034761Y-51508095D01*
X87939523Y-51555714D01*
X87749047Y-51603333D01*
X87606190Y-51603333D01*
X87415714Y-51555714D01*
X87320476Y-51508095D01*
X87225238Y-51412857D01*
X87177619Y-51270000D01*
X87177619Y-51031904D01*
X88082380Y-51984285D02*
X88130000Y-52031904D01*
X88177619Y-52127142D01*
X88177619Y-52365238D01*
X88130000Y-52460476D01*
X88082380Y-52508095D01*
X87987142Y-52555714D01*
X87891904Y-52555714D01*
X87749047Y-52508095D01*
X87177619Y-51936666D01*
X87177619Y-52555714D01*
X84637619Y-47653809D02*
X85637619Y-47653809D01*
X85637619Y-47891904D01*
X85590000Y-48034761D01*
X85494761Y-48130000D01*
X85399523Y-48177619D01*
X85209047Y-48225238D01*
X85066190Y-48225238D01*
X84875714Y-48177619D01*
X84780476Y-48130000D01*
X84685238Y-48034761D01*
X84637619Y-47891904D01*
X84637619Y-47653809D01*
X84637619Y-49177619D02*
X84637619Y-48606190D01*
X84637619Y-48891904D02*
X85637619Y-48891904D01*
X85494761Y-48796666D01*
X85399523Y-48701428D01*
X85351904Y-48606190D01*
X84256666Y-50653809D02*
X84304285Y-50606190D01*
X84447142Y-50510952D01*
X84542380Y-50463333D01*
X84685238Y-50415714D01*
X84923333Y-50368095D01*
X85113809Y-50368095D01*
X85351904Y-50415714D01*
X85494761Y-50463333D01*
X85590000Y-50510952D01*
X85732857Y-50606190D01*
X85780476Y-50653809D01*
X85304285Y-50891904D02*
X85304285Y-51272857D01*
X85637619Y-51034761D02*
X84780476Y-51034761D01*
X84685238Y-51082380D01*
X84637619Y-51177619D01*
X84637619Y-51272857D01*
X84637619Y-51510952D02*
X85304285Y-52034761D01*
X85304285Y-51510952D02*
X84637619Y-52034761D01*
X84256666Y-52320476D02*
X84304285Y-52368095D01*
X84447142Y-52463333D01*
X84542380Y-52510952D01*
X84685238Y-52558571D01*
X84923333Y-52606190D01*
X85113809Y-52606190D01*
X85351904Y-52558571D01*
X85494761Y-52510952D01*
X85590000Y-52463333D01*
X85732857Y-52368095D01*
X85780476Y-52320476D01*
X82097619Y-47630000D02*
X83097619Y-47630000D01*
X83097619Y-47868095D01*
X83050000Y-48010952D01*
X82954761Y-48106190D01*
X82859523Y-48153809D01*
X82669047Y-48201428D01*
X82526190Y-48201428D01*
X82335714Y-48153809D01*
X82240476Y-48106190D01*
X82145238Y-48010952D01*
X82097619Y-47868095D01*
X82097619Y-47630000D01*
X83097619Y-48820476D02*
X83097619Y-48915714D01*
X83050000Y-49010952D01*
X83002380Y-49058571D01*
X82907142Y-49106190D01*
X82716666Y-49153809D01*
X82478571Y-49153809D01*
X82288095Y-49106190D01*
X82192857Y-49058571D01*
X82145238Y-49010952D01*
X82097619Y-48915714D01*
X82097619Y-48820476D01*
X82145238Y-48725238D01*
X82192857Y-48677619D01*
X82288095Y-48630000D01*
X82478571Y-48582380D01*
X82716666Y-48582380D01*
X82907142Y-48630000D01*
X83002380Y-48677619D01*
X83050000Y-48725238D01*
X83097619Y-48820476D01*
X81716666Y-50630000D02*
X81764285Y-50582380D01*
X81907142Y-50487142D01*
X82002380Y-50439523D01*
X82145238Y-50391904D01*
X82383333Y-50344285D01*
X82573809Y-50344285D01*
X82811904Y-50391904D01*
X82954761Y-50439523D01*
X83050000Y-50487142D01*
X83192857Y-50582380D01*
X83240476Y-50630000D01*
X82097619Y-51010952D02*
X82764285Y-51010952D01*
X82573809Y-51010952D02*
X82669047Y-51058571D01*
X82716666Y-51106190D01*
X82764285Y-51201428D01*
X82764285Y-51296666D01*
X82097619Y-51534761D02*
X82764285Y-52058571D01*
X82764285Y-51534761D02*
X82097619Y-52058571D01*
X81716666Y-52344285D02*
X81764285Y-52391904D01*
X81907142Y-52487142D01*
X82002380Y-52534761D01*
X82145238Y-52582380D01*
X82383333Y-52630000D01*
X82573809Y-52630000D01*
X82811904Y-52582380D01*
X82954761Y-52534761D01*
X83050000Y-52487142D01*
X83192857Y-52391904D01*
X83240476Y-52344285D01*
X79843333Y-51055714D02*
X79843333Y-51531904D01*
X79557619Y-50960476D02*
X80557619Y-51293809D01*
X79557619Y-51627142D01*
X80557619Y-52436666D02*
X80557619Y-51960476D01*
X80081428Y-51912857D01*
X80129047Y-51960476D01*
X80176666Y-52055714D01*
X80176666Y-52293809D01*
X80129047Y-52389047D01*
X80081428Y-52436666D01*
X79986190Y-52484285D01*
X79748095Y-52484285D01*
X79652857Y-52436666D01*
X79605238Y-52389047D01*
X79557619Y-52293809D01*
X79557619Y-52055714D01*
X79605238Y-51960476D01*
X79652857Y-51912857D01*
X77303333Y-51055714D02*
X77303333Y-51531904D01*
X77017619Y-50960476D02*
X78017619Y-51293809D01*
X77017619Y-51627142D01*
X77684285Y-52389047D02*
X77017619Y-52389047D01*
X78065238Y-52150952D02*
X77350952Y-51912857D01*
X77350952Y-52531904D01*
X74763333Y-51055714D02*
X74763333Y-51531904D01*
X74477619Y-50960476D02*
X75477619Y-51293809D01*
X74477619Y-51627142D01*
X75477619Y-51865238D02*
X75477619Y-52484285D01*
X75096666Y-52150952D01*
X75096666Y-52293809D01*
X75049047Y-52389047D01*
X75001428Y-52436666D01*
X74906190Y-52484285D01*
X74668095Y-52484285D01*
X74572857Y-52436666D01*
X74525238Y-52389047D01*
X74477619Y-52293809D01*
X74477619Y-52008095D01*
X74525238Y-51912857D01*
X74572857Y-51865238D01*
X72223333Y-51055714D02*
X72223333Y-51531904D01*
X71937619Y-50960476D02*
X72937619Y-51293809D01*
X71937619Y-51627142D01*
X72842380Y-51912857D02*
X72890000Y-51960476D01*
X72937619Y-52055714D01*
X72937619Y-52293809D01*
X72890000Y-52389047D01*
X72842380Y-52436666D01*
X72747142Y-52484285D01*
X72651904Y-52484285D01*
X72509047Y-52436666D01*
X71937619Y-51865238D01*
X71937619Y-52484285D01*
X96734285Y-61134761D02*
X96067619Y-61372857D01*
X96734285Y-61610952D01*
X96115238Y-62420476D02*
X96067619Y-62325238D01*
X96067619Y-62134761D01*
X96115238Y-62039523D01*
X96162857Y-61991904D01*
X96258095Y-61944285D01*
X96543809Y-61944285D01*
X96639047Y-61991904D01*
X96686666Y-62039523D01*
X96734285Y-62134761D01*
X96734285Y-62325238D01*
X96686666Y-62420476D01*
X96115238Y-63277619D02*
X96067619Y-63182380D01*
X96067619Y-62991904D01*
X96115238Y-62896666D01*
X96162857Y-62849047D01*
X96258095Y-62801428D01*
X96543809Y-62801428D01*
X96639047Y-62849047D01*
X96686666Y-62896666D01*
X96734285Y-62991904D01*
X96734285Y-63182380D01*
X96686666Y-63277619D01*
X94194285Y-61539523D02*
X93384761Y-61539523D01*
X93289523Y-61491904D01*
X93241904Y-61444285D01*
X93194285Y-61349047D01*
X93194285Y-61206190D01*
X93241904Y-61110952D01*
X93575238Y-61539523D02*
X93527619Y-61444285D01*
X93527619Y-61253809D01*
X93575238Y-61158571D01*
X93622857Y-61110952D01*
X93718095Y-61063333D01*
X94003809Y-61063333D01*
X94099047Y-61110952D01*
X94146666Y-61158571D01*
X94194285Y-61253809D01*
X94194285Y-61444285D01*
X94146666Y-61539523D01*
X94194285Y-62015714D02*
X93527619Y-62015714D01*
X94099047Y-62015714D02*
X94146666Y-62063333D01*
X94194285Y-62158571D01*
X94194285Y-62301428D01*
X94146666Y-62396666D01*
X94051428Y-62444285D01*
X93527619Y-62444285D01*
X93527619Y-63349047D02*
X94527619Y-63349047D01*
X93575238Y-63349047D02*
X93527619Y-63253809D01*
X93527619Y-63063333D01*
X93575238Y-62968095D01*
X93622857Y-62920476D01*
X93718095Y-62872857D01*
X94003809Y-62872857D01*
X94099047Y-62920476D01*
X94146666Y-62968095D01*
X94194285Y-63063333D01*
X94194285Y-63253809D01*
X94146666Y-63349047D01*
X91654285Y-61634761D02*
X91654285Y-62015714D01*
X91987619Y-61777619D02*
X91130476Y-61777619D01*
X91035238Y-61825238D01*
X90987619Y-61920476D01*
X90987619Y-62015714D01*
X90987619Y-62253809D02*
X91654285Y-62777619D01*
X91654285Y-62253809D02*
X90987619Y-62777619D01*
X88447619Y-61753809D02*
X89114285Y-61753809D01*
X88923809Y-61753809D02*
X89019047Y-61801428D01*
X89066666Y-61849047D01*
X89114285Y-61944285D01*
X89114285Y-62039523D01*
X88447619Y-62277619D02*
X89114285Y-62801428D01*
X89114285Y-62277619D02*
X88447619Y-62801428D01*
X85907619Y-61468095D02*
X86574285Y-61468095D01*
X86383809Y-61468095D02*
X86479047Y-61515714D01*
X86526666Y-61563333D01*
X86574285Y-61658571D01*
X86574285Y-61753809D01*
X85955238Y-62039523D02*
X85907619Y-62134761D01*
X85907619Y-62325238D01*
X85955238Y-62420476D01*
X86050476Y-62468095D01*
X86098095Y-62468095D01*
X86193333Y-62420476D01*
X86240952Y-62325238D01*
X86240952Y-62182380D01*
X86288571Y-62087142D01*
X86383809Y-62039523D01*
X86431428Y-62039523D01*
X86526666Y-62087142D01*
X86574285Y-62182380D01*
X86574285Y-62325238D01*
X86526666Y-62420476D01*
X86574285Y-62753809D02*
X86574285Y-63134761D01*
X86907619Y-62896666D02*
X86050476Y-62896666D01*
X85955238Y-62944285D01*
X85907619Y-63039523D01*
X85907619Y-63134761D01*
D12*
X75200000Y-47050000D02*
X74538175Y-48671034D01*
X71390000Y-47050000D02*
X67091981Y-48964369D01*
X99210000Y-50700000D02*
X106450000Y-50700000D01*
X99210000Y-53440000D02*
X106450000Y-53440000D01*
X99210000Y-50700000D02*
X99210000Y-53440000D01*
X106450000Y-50700000D02*
X106450000Y-53440000D01*
X108100000Y-50700000D02*
X115340000Y-50700000D01*
X108100000Y-53440000D02*
X115340000Y-53440000D01*
X108100000Y-50700000D02*
X108100000Y-53440000D01*
X115340000Y-50700000D02*
X115340000Y-53440000D01*
X90400000Y-31850000D02*
X90400000Y-29110000D01*
X97640000Y-31850000D02*
X97640000Y-29110000D01*
X97640000Y-29110000D02*
X90400000Y-29110000D01*
X97640000Y-31850000D02*
X90400000Y-31850000D01*
X99210000Y-27840000D02*
X106450000Y-27840000D01*
X99210000Y-30580000D02*
X106450000Y-30580000D01*
X99210000Y-27840000D02*
X99210000Y-30580000D01*
X106450000Y-27840000D02*
X106450000Y-30580000D01*
X92940000Y-47090000D02*
X92940000Y-44350000D01*
X100180000Y-47090000D02*
X100180000Y-44350000D01*
X100180000Y-44350000D02*
X92940000Y-44350000D01*
X100180000Y-47090000D02*
X92940000Y-47090000D01*
X71060000Y-53280000D02*
X71060000Y-55940000D01*
X93980000Y-53280000D02*
X71060000Y-53280000D01*
X93980000Y-55940000D02*
X71060000Y-55940000D01*
X93980000Y-53280000D02*
X93980000Y-55940000D01*
X95250000Y-53280000D02*
X96580000Y-53280000D01*
X96580000Y-53280000D02*
X96580000Y-54610000D01*
X45220000Y-62230000D02*
X45220000Y-46990000D01*
X37600000Y-62230000D02*
X37600000Y-46990000D01*
X43950000Y-62230000D02*
X43950000Y-46990000D01*
X45220000Y-46990000D02*
X37600000Y-46990000D01*
X45220000Y-62230000D02*
X37600000Y-62230000D01*
X76530000Y-47050000D02*
X75200000Y-47050000D01*
X76530000Y-45720000D02*
X76530000Y-47050000D01*
X76530000Y-44450000D02*
X73870000Y-44450000D01*
X73870000Y-44450000D02*
X73870000Y-39310000D01*
X76530000Y-44450000D02*
X76530000Y-39310000D01*
X76530000Y-39310000D02*
X73870000Y-39310000D01*
X72720000Y-47050000D02*
X71390000Y-47050000D01*
X72720000Y-45720000D02*
X72720000Y-47050000D01*
X72720000Y-44450000D02*
X70060000Y-44450000D01*
X70060000Y-44450000D02*
X70060000Y-39310000D01*
X72720000Y-44450000D02*
X72720000Y-39310000D01*
X72720000Y-39310000D02*
X70060000Y-39310000D01*
D14*
X77978000Y-38735000D02*
X77978000Y-40894000D01*
X77978000Y-37465000D02*
G75*
G02X77978000Y-38735000I0J-635000D01*
G01*
X77978000Y-40894000D02*
X115062000Y-40894000D01*
X77978000Y-35306000D02*
X77978000Y-37465000D01*
X77978000Y-35306000D02*
X115062000Y-35306000D01*
X115062000Y-35306000D02*
X115062000Y-40894000D01*
D12*
X97850000Y-61020000D02*
X97850000Y-58360000D01*
X87630000Y-61020000D02*
X97850000Y-61020000D01*
X87630000Y-58360000D02*
X97850000Y-58360000D01*
X87630000Y-61020000D02*
X87630000Y-58360000D01*
X86360000Y-61020000D02*
X85030000Y-61020000D01*
X85030000Y-61020000D02*
X85030000Y-59690000D01*
X72930000Y-58650000D02*
X72930000Y-58320000D01*
X72930000Y-58320000D02*
X79470000Y-58320000D01*
X79470000Y-58320000D02*
X79470000Y-58650000D01*
X72930000Y-60730000D02*
X72930000Y-61060000D01*
X72930000Y-61060000D02*
X79470000Y-61060000D01*
X79470000Y-61060000D02*
X79470000Y-60730000D01*
X130750000Y-59750000D02*
X133410000Y-59750000D01*
X130750000Y-46990000D02*
X130750000Y-59750000D01*
X133410000Y-46990000D02*
X133410000Y-59750000D01*
X130750000Y-46990000D02*
X133410000Y-46990000D01*
X130750000Y-45720000D02*
X130750000Y-44390000D01*
X130750000Y-44390000D02*
X132080000Y-44390000D01*
X123130000Y-44390000D02*
X124460000Y-44390000D01*
X123130000Y-45720000D02*
X123130000Y-44390000D01*
X123130000Y-46990000D02*
X125790000Y-46990000D01*
X125790000Y-46990000D02*
X125790000Y-59750000D01*
X123130000Y-46990000D02*
X123130000Y-59750000D01*
X123130000Y-59750000D02*
X125790000Y-59750000D01*
X52760000Y-44720000D02*
X52760000Y-40220000D01*
X48760000Y-45970000D02*
X50260000Y-45970000D01*
X46260000Y-40220000D02*
X46260000Y-44720000D01*
X50260000Y-38970000D02*
X48760000Y-38970000D01*
X53610000Y-41910000D02*
X53610000Y-34290000D01*
X68850000Y-41910000D02*
X68850000Y-34290000D01*
X53610000Y-40640000D02*
X68850000Y-40640000D01*
X53610000Y-34290000D02*
X68850000Y-34290000D01*
X53610000Y-41910000D02*
X68850000Y-41910000D01*
X109980000Y-49515000D02*
X103580000Y-49515000D01*
X109980000Y-44465000D02*
X103580000Y-44465000D01*
X109980000Y-44465000D02*
G75*
G02X109980000Y-49515000I0J-2525000D01*
G01*
X103580000Y-44465000D02*
G75*
G03X103580000Y-49515000I0J-2525000D01*
G01*
D13*
X102663333Y-54967142D02*
X102615714Y-55014761D01*
X102472857Y-55062380D01*
X102377619Y-55062380D01*
X102234761Y-55014761D01*
X102139523Y-54919523D01*
X102091904Y-54824285D01*
X102044285Y-54633809D01*
X102044285Y-54490952D01*
X102091904Y-54300476D01*
X102139523Y-54205238D01*
X102234761Y-54110000D01*
X102377619Y-54062380D01*
X102472857Y-54062380D01*
X102615714Y-54110000D01*
X102663333Y-54157619D01*
X103615714Y-55062380D02*
X103044285Y-55062380D01*
X103330000Y-55062380D02*
X103330000Y-54062380D01*
X103234761Y-54205238D01*
X103139523Y-54300476D01*
X103044285Y-54348095D01*
X111553333Y-54967142D02*
X111505714Y-55014761D01*
X111362857Y-55062380D01*
X111267619Y-55062380D01*
X111124761Y-55014761D01*
X111029523Y-54919523D01*
X110981904Y-54824285D01*
X110934285Y-54633809D01*
X110934285Y-54490952D01*
X110981904Y-54300476D01*
X111029523Y-54205238D01*
X111124761Y-54110000D01*
X111267619Y-54062380D01*
X111362857Y-54062380D01*
X111505714Y-54110000D01*
X111553333Y-54157619D01*
X111934285Y-54157619D02*
X111981904Y-54110000D01*
X112077142Y-54062380D01*
X112315238Y-54062380D01*
X112410476Y-54110000D01*
X112458095Y-54157619D01*
X112505714Y-54252857D01*
X112505714Y-54348095D01*
X112458095Y-54490952D01*
X111886666Y-55062380D01*
X112505714Y-55062380D01*
X93853333Y-28297142D02*
X93805714Y-28344761D01*
X93662857Y-28392380D01*
X93567619Y-28392380D01*
X93424761Y-28344761D01*
X93329523Y-28249523D01*
X93281904Y-28154285D01*
X93234285Y-27963809D01*
X93234285Y-27820952D01*
X93281904Y-27630476D01*
X93329523Y-27535238D01*
X93424761Y-27440000D01*
X93567619Y-27392380D01*
X93662857Y-27392380D01*
X93805714Y-27440000D01*
X93853333Y-27487619D01*
X94186666Y-27392380D02*
X94805714Y-27392380D01*
X94472380Y-27773333D01*
X94615238Y-27773333D01*
X94710476Y-27820952D01*
X94758095Y-27868571D01*
X94805714Y-27963809D01*
X94805714Y-28201904D01*
X94758095Y-28297142D01*
X94710476Y-28344761D01*
X94615238Y-28392380D01*
X94329523Y-28392380D01*
X94234285Y-28344761D01*
X94186666Y-28297142D01*
X102663333Y-27067142D02*
X102615714Y-27114761D01*
X102472857Y-27162380D01*
X102377619Y-27162380D01*
X102234761Y-27114761D01*
X102139523Y-27019523D01*
X102091904Y-26924285D01*
X102044285Y-26733809D01*
X102044285Y-26590952D01*
X102091904Y-26400476D01*
X102139523Y-26305238D01*
X102234761Y-26210000D01*
X102377619Y-26162380D01*
X102472857Y-26162380D01*
X102615714Y-26210000D01*
X102663333Y-26257619D01*
X103520476Y-26495714D02*
X103520476Y-27162380D01*
X103282380Y-26114761D02*
X103044285Y-26829047D01*
X103663333Y-26829047D01*
X96393333Y-48577142D02*
X96345714Y-48624761D01*
X96202857Y-48672380D01*
X96107619Y-48672380D01*
X95964761Y-48624761D01*
X95869523Y-48529523D01*
X95821904Y-48434285D01*
X95774285Y-48243809D01*
X95774285Y-48100952D01*
X95821904Y-47910476D01*
X95869523Y-47815238D01*
X95964761Y-47720000D01*
X96107619Y-47672380D01*
X96202857Y-47672380D01*
X96345714Y-47720000D01*
X96393333Y-47767619D01*
X97298095Y-47672380D02*
X96821904Y-47672380D01*
X96774285Y-48148571D01*
X96821904Y-48100952D01*
X96917142Y-48053333D01*
X97155238Y-48053333D01*
X97250476Y-48100952D01*
X97298095Y-48148571D01*
X97345714Y-48243809D01*
X97345714Y-48481904D01*
X97298095Y-48577142D01*
X97250476Y-48624761D01*
X97155238Y-48672380D01*
X96917142Y-48672380D01*
X96821904Y-48624761D01*
X96774285Y-48577142D01*
X97508571Y-55990952D02*
X97508571Y-55657619D01*
X98032380Y-55514761D02*
X98032380Y-55990952D01*
X97032380Y-55990952D01*
X97032380Y-55514761D01*
X98032380Y-55181428D02*
X97365714Y-54657619D01*
X97365714Y-55181428D02*
X98032380Y-54657619D01*
X97365714Y-54419523D02*
X97365714Y-54038571D01*
X97032380Y-54276666D02*
X97889523Y-54276666D01*
X97984761Y-54229047D01*
X98032380Y-54133809D01*
X98032380Y-54038571D01*
X98032380Y-53181428D02*
X98032380Y-53752857D01*
X98032380Y-53467142D02*
X97032380Y-53467142D01*
X97175238Y-53562380D01*
X97270476Y-53657619D01*
X97318095Y-53752857D01*
D15*
X46240000Y-55752857D02*
X46168571Y-55895714D01*
X46168571Y-56110000D01*
X46240000Y-56324285D01*
X46382857Y-56467142D01*
X46525714Y-56538571D01*
X46811428Y-56610000D01*
X47025714Y-56610000D01*
X47311428Y-56538571D01*
X47454285Y-56467142D01*
X47597142Y-56324285D01*
X47668571Y-56110000D01*
X47668571Y-55967142D01*
X47597142Y-55752857D01*
X47525714Y-55681428D01*
X47025714Y-55681428D01*
X47025714Y-55967142D01*
X47668571Y-55038571D02*
X46168571Y-55038571D01*
X47668571Y-54181428D01*
X46168571Y-54181428D01*
X47668571Y-53467142D02*
X46168571Y-53467142D01*
X46168571Y-53110000D01*
X46240000Y-52895714D01*
X46382857Y-52752857D01*
X46525714Y-52681428D01*
X46811428Y-52610000D01*
X47025714Y-52610000D01*
X47311428Y-52681428D01*
X47454285Y-52752857D01*
X47597142Y-52895714D01*
X47668571Y-53110000D01*
X47668571Y-53467142D01*
D13*
X72898095Y-26732380D02*
X72898095Y-25732380D01*
X72898095Y-26208571D02*
X73469523Y-26208571D01*
X73469523Y-26732380D02*
X73469523Y-25732380D01*
X74469523Y-26732380D02*
X73898095Y-26732380D01*
X74183809Y-26732380D02*
X74183809Y-25732380D01*
X74088571Y-25875238D01*
X73993333Y-25970476D01*
X73898095Y-26018095D01*
X144018095Y-54672380D02*
X144018095Y-53672380D01*
X144018095Y-54148571D02*
X144589523Y-54148571D01*
X144589523Y-54672380D02*
X144589523Y-53672380D01*
X145018095Y-53767619D02*
X145065714Y-53720000D01*
X145160952Y-53672380D01*
X145399047Y-53672380D01*
X145494285Y-53720000D01*
X145541904Y-53767619D01*
X145589523Y-53862857D01*
X145589523Y-53958095D01*
X145541904Y-54100952D01*
X144970476Y-54672380D01*
X145589523Y-54672380D01*
X119888095Y-33082380D02*
X119888095Y-32082380D01*
X119888095Y-32558571D02*
X120459523Y-32558571D01*
X120459523Y-33082380D02*
X120459523Y-32082380D01*
X120840476Y-32082380D02*
X121459523Y-32082380D01*
X121126190Y-32463333D01*
X121269047Y-32463333D01*
X121364285Y-32510952D01*
X121411904Y-32558571D01*
X121459523Y-32653809D01*
X121459523Y-32891904D01*
X121411904Y-32987142D01*
X121364285Y-33034761D01*
X121269047Y-33082380D01*
X120983333Y-33082380D01*
X120888095Y-33034761D01*
X120840476Y-32987142D01*
X32258095Y-54672380D02*
X32258095Y-53672380D01*
X32258095Y-54148571D02*
X32829523Y-54148571D01*
X32829523Y-54672380D02*
X32829523Y-53672380D01*
X33734285Y-54005714D02*
X33734285Y-54672380D01*
X33496190Y-53624761D02*
X33258095Y-54339047D01*
X33877142Y-54339047D01*
X73208095Y-49982380D02*
X73208095Y-48982380D01*
X73208095Y-49458571D02*
X73779523Y-49458571D01*
X73779523Y-49982380D02*
X73779523Y-48982380D01*
X74684285Y-49982380D02*
X74684285Y-49458571D01*
X74636666Y-49363333D01*
X74541428Y-49315714D01*
X74350952Y-49315714D01*
X74255714Y-49363333D01*
X74684285Y-49934761D02*
X74589047Y-49982380D01*
X74350952Y-49982380D01*
X74255714Y-49934761D01*
X74208095Y-49839523D01*
X74208095Y-49744285D01*
X74255714Y-49649047D01*
X74350952Y-49601428D01*
X74589047Y-49601428D01*
X74684285Y-49553809D01*
X75303333Y-49982380D02*
X75208095Y-49934761D01*
X75160476Y-49839523D01*
X75160476Y-48982380D01*
X75827142Y-49982380D02*
X75731904Y-49934761D01*
X75684285Y-49839523D01*
X75684285Y-48982380D01*
X76160476Y-49934761D02*
X76303333Y-49982380D01*
X76541428Y-49982380D01*
X76636666Y-49934761D01*
X76684285Y-49887142D01*
X76731904Y-49791904D01*
X76731904Y-49696666D01*
X76684285Y-49601428D01*
X76636666Y-49553809D01*
X76541428Y-49506190D01*
X76350952Y-49458571D01*
X76255714Y-49410952D01*
X76208095Y-49363333D01*
X76160476Y-49268095D01*
X76160476Y-49172857D01*
X76208095Y-49077619D01*
X76255714Y-49030000D01*
X76350952Y-48982380D01*
X76589047Y-48982380D01*
X76731904Y-49030000D01*
X77541428Y-49934761D02*
X77446190Y-49982380D01*
X77255714Y-49982380D01*
X77160476Y-49934761D01*
X77112857Y-49839523D01*
X77112857Y-49458571D01*
X77160476Y-49363333D01*
X77255714Y-49315714D01*
X77446190Y-49315714D01*
X77541428Y-49363333D01*
X77589047Y-49458571D01*
X77589047Y-49553809D01*
X77112857Y-49649047D01*
X78017619Y-49315714D02*
X78017619Y-49982380D01*
X78017619Y-49410952D02*
X78065238Y-49363333D01*
X78160476Y-49315714D01*
X78303333Y-49315714D01*
X78398571Y-49363333D01*
X78446190Y-49458571D01*
X78446190Y-49982380D01*
X78874761Y-49934761D02*
X78970000Y-49982380D01*
X79160476Y-49982380D01*
X79255714Y-49934761D01*
X79303333Y-49839523D01*
X79303333Y-49791904D01*
X79255714Y-49696666D01*
X79160476Y-49649047D01*
X79017619Y-49649047D01*
X78922380Y-49601428D01*
X78874761Y-49506190D01*
X78874761Y-49458571D01*
X78922380Y-49363333D01*
X79017619Y-49315714D01*
X79160476Y-49315714D01*
X79255714Y-49363333D01*
X79874761Y-49982380D02*
X79779523Y-49934761D01*
X79731904Y-49887142D01*
X79684285Y-49791904D01*
X79684285Y-49506190D01*
X79731904Y-49410952D01*
X79779523Y-49363333D01*
X79874761Y-49315714D01*
X80017619Y-49315714D01*
X80112857Y-49363333D01*
X80160476Y-49410952D01*
X80208095Y-49506190D01*
X80208095Y-49791904D01*
X80160476Y-49887142D01*
X80112857Y-49934761D01*
X80017619Y-49982380D01*
X79874761Y-49982380D01*
X80636666Y-49982380D02*
X80636666Y-49315714D01*
X80636666Y-49506190D02*
X80684285Y-49410952D01*
X80731904Y-49363333D01*
X80827142Y-49315714D01*
X80922380Y-49315714D01*
X81779523Y-49982380D02*
X81208095Y-49982380D01*
X81493809Y-49982380D02*
X81493809Y-48982380D01*
X81398571Y-49125238D01*
X81303333Y-49220476D01*
X81208095Y-49268095D01*
X63048095Y-49982380D02*
X63048095Y-48982380D01*
X63048095Y-49458571D02*
X63619523Y-49458571D01*
X63619523Y-49982380D02*
X63619523Y-48982380D01*
X64524285Y-49982380D02*
X64524285Y-49458571D01*
X64476666Y-49363333D01*
X64381428Y-49315714D01*
X64190952Y-49315714D01*
X64095714Y-49363333D01*
X64524285Y-49934761D02*
X64429047Y-49982380D01*
X64190952Y-49982380D01*
X64095714Y-49934761D01*
X64048095Y-49839523D01*
X64048095Y-49744285D01*
X64095714Y-49649047D01*
X64190952Y-49601428D01*
X64429047Y-49601428D01*
X64524285Y-49553809D01*
X65143333Y-49982380D02*
X65048095Y-49934761D01*
X65000476Y-49839523D01*
X65000476Y-48982380D01*
X65667142Y-49982380D02*
X65571904Y-49934761D01*
X65524285Y-49839523D01*
X65524285Y-48982380D01*
X66000476Y-49934761D02*
X66143333Y-49982380D01*
X66381428Y-49982380D01*
X66476666Y-49934761D01*
X66524285Y-49887142D01*
X66571904Y-49791904D01*
X66571904Y-49696666D01*
X66524285Y-49601428D01*
X66476666Y-49553809D01*
X66381428Y-49506190D01*
X66190952Y-49458571D01*
X66095714Y-49410952D01*
X66048095Y-49363333D01*
X66000476Y-49268095D01*
X66000476Y-49172857D01*
X66048095Y-49077619D01*
X66095714Y-49030000D01*
X66190952Y-48982380D01*
X66429047Y-48982380D01*
X66571904Y-49030000D01*
X67381428Y-49934761D02*
X67286190Y-49982380D01*
X67095714Y-49982380D01*
X67000476Y-49934761D01*
X66952857Y-49839523D01*
X66952857Y-49458571D01*
X67000476Y-49363333D01*
X67095714Y-49315714D01*
X67286190Y-49315714D01*
X67381428Y-49363333D01*
X67429047Y-49458571D01*
X67429047Y-49553809D01*
X66952857Y-49649047D01*
X67857619Y-49315714D02*
X67857619Y-49982380D01*
X67857619Y-49410952D02*
X67905238Y-49363333D01*
X68000476Y-49315714D01*
X68143333Y-49315714D01*
X68238571Y-49363333D01*
X68286190Y-49458571D01*
X68286190Y-49982380D01*
X68714761Y-49934761D02*
X68810000Y-49982380D01*
X69000476Y-49982380D01*
X69095714Y-49934761D01*
X69143333Y-49839523D01*
X69143333Y-49791904D01*
X69095714Y-49696666D01*
X69000476Y-49649047D01*
X68857619Y-49649047D01*
X68762380Y-49601428D01*
X68714761Y-49506190D01*
X68714761Y-49458571D01*
X68762380Y-49363333D01*
X68857619Y-49315714D01*
X69000476Y-49315714D01*
X69095714Y-49363333D01*
X69714761Y-49982380D02*
X69619523Y-49934761D01*
X69571904Y-49887142D01*
X69524285Y-49791904D01*
X69524285Y-49506190D01*
X69571904Y-49410952D01*
X69619523Y-49363333D01*
X69714761Y-49315714D01*
X69857619Y-49315714D01*
X69952857Y-49363333D01*
X70000476Y-49410952D01*
X70048095Y-49506190D01*
X70048095Y-49791904D01*
X70000476Y-49887142D01*
X69952857Y-49934761D01*
X69857619Y-49982380D01*
X69714761Y-49982380D01*
X70476666Y-49982380D02*
X70476666Y-49315714D01*
X70476666Y-49506190D02*
X70524285Y-49410952D01*
X70571904Y-49363333D01*
X70667142Y-49315714D01*
X70762380Y-49315714D01*
X71048095Y-49077619D02*
X71095714Y-49030000D01*
X71190952Y-48982380D01*
X71429047Y-48982380D01*
X71524285Y-49030000D01*
X71571904Y-49077619D01*
X71619523Y-49172857D01*
X71619523Y-49268095D01*
X71571904Y-49410952D01*
X71000476Y-49982380D01*
X71619523Y-49982380D01*
D16*
X77743767Y-38725288D02*
X77103228Y-38725288D01*
X77682763Y-38054247D02*
X77713265Y-38084749D01*
X77743767Y-38176254D01*
X77743767Y-38237258D01*
X77713265Y-38328763D01*
X77652262Y-38389767D01*
X77591258Y-38420269D01*
X77469250Y-38450771D01*
X77377745Y-38450771D01*
X77255737Y-38420269D01*
X77194734Y-38389767D01*
X77133730Y-38328763D01*
X77103228Y-38237258D01*
X77103228Y-38176254D01*
X77133730Y-38084749D01*
X77164232Y-38054247D01*
X77743767Y-37444210D02*
X77743767Y-37810232D01*
X77743767Y-37627221D02*
X77103228Y-37627221D01*
X77194734Y-37688224D01*
X77255737Y-37749228D01*
X77286239Y-37810232D01*
D13*
X90877142Y-38266666D02*
X91353333Y-38266666D01*
X90781904Y-38552380D02*
X91115238Y-37552380D01*
X91448571Y-38552380D01*
X91639047Y-37552380D02*
X92210476Y-37552380D01*
X91924761Y-38552380D02*
X91924761Y-37552380D01*
X92543809Y-38552380D02*
X92543809Y-37552380D01*
X92877142Y-38266666D01*
X93210476Y-37552380D01*
X93210476Y-38552380D01*
X93686666Y-38028571D02*
X94020000Y-38028571D01*
X94162857Y-38552380D02*
X93686666Y-38552380D01*
X93686666Y-37552380D01*
X94162857Y-37552380D01*
X95115238Y-37600000D02*
X95020000Y-37552380D01*
X94877142Y-37552380D01*
X94734285Y-37600000D01*
X94639047Y-37695238D01*
X94591428Y-37790476D01*
X94543809Y-37980952D01*
X94543809Y-38123809D01*
X94591428Y-38314285D01*
X94639047Y-38409523D01*
X94734285Y-38504761D01*
X94877142Y-38552380D01*
X94972380Y-38552380D01*
X95115238Y-38504761D01*
X95162857Y-38457142D01*
X95162857Y-38123809D01*
X94972380Y-38123809D01*
X95543809Y-38266666D02*
X96020000Y-38266666D01*
X95448571Y-38552380D02*
X95781904Y-37552380D01*
X96115238Y-38552380D01*
X96353333Y-37552380D02*
X96972380Y-37552380D01*
X96639047Y-37933333D01*
X96781904Y-37933333D01*
X96877142Y-37980952D01*
X96924761Y-38028571D01*
X96972380Y-38123809D01*
X96972380Y-38361904D01*
X96924761Y-38457142D01*
X96877142Y-38504761D01*
X96781904Y-38552380D01*
X96496190Y-38552380D01*
X96400952Y-38504761D01*
X96353333Y-38457142D01*
X97353333Y-37647619D02*
X97400952Y-37600000D01*
X97496190Y-37552380D01*
X97734285Y-37552380D01*
X97829523Y-37600000D01*
X97877142Y-37647619D01*
X97924761Y-37742857D01*
X97924761Y-37838095D01*
X97877142Y-37980952D01*
X97305714Y-38552380D01*
X97924761Y-38552380D01*
X98496190Y-37980952D02*
X98400952Y-37933333D01*
X98353333Y-37885714D01*
X98305714Y-37790476D01*
X98305714Y-37742857D01*
X98353333Y-37647619D01*
X98400952Y-37600000D01*
X98496190Y-37552380D01*
X98686666Y-37552380D01*
X98781904Y-37600000D01*
X98829523Y-37647619D01*
X98877142Y-37742857D01*
X98877142Y-37790476D01*
X98829523Y-37885714D01*
X98781904Y-37933333D01*
X98686666Y-37980952D01*
X98496190Y-37980952D01*
X98400952Y-38028571D01*
X98353333Y-38076190D01*
X98305714Y-38171428D01*
X98305714Y-38361904D01*
X98353333Y-38457142D01*
X98400952Y-38504761D01*
X98496190Y-38552380D01*
X98686666Y-38552380D01*
X98781904Y-38504761D01*
X98829523Y-38457142D01*
X98877142Y-38361904D01*
X98877142Y-38171428D01*
X98829523Y-38076190D01*
X98781904Y-38028571D01*
X98686666Y-37980952D01*
X99305714Y-38171428D02*
X100067619Y-38171428D01*
X100543809Y-38552380D02*
X100543809Y-37552380D01*
X100924761Y-37552380D01*
X101020000Y-37600000D01*
X101067619Y-37647619D01*
X101115238Y-37742857D01*
X101115238Y-37885714D01*
X101067619Y-37980952D01*
X101020000Y-38028571D01*
X100924761Y-38076190D01*
X100543809Y-38076190D01*
X101543809Y-37552380D02*
X101543809Y-38361904D01*
X101591428Y-38457142D01*
X101639047Y-38504761D01*
X101734285Y-38552380D01*
X101924761Y-38552380D01*
X102020000Y-38504761D01*
X102067619Y-38457142D01*
X102115238Y-38361904D01*
X102115238Y-37552380D01*
X86654285Y-57602380D02*
X86654285Y-56602380D01*
X87035238Y-56602380D01*
X87130476Y-56650000D01*
X87178095Y-56697619D01*
X87225714Y-56792857D01*
X87225714Y-56935714D01*
X87178095Y-57030952D01*
X87130476Y-57078571D01*
X87035238Y-57126190D01*
X86654285Y-57126190D01*
X87654285Y-57602380D02*
X87654285Y-56935714D01*
X87654285Y-57126190D02*
X87701904Y-57030952D01*
X87749523Y-56983333D01*
X87844761Y-56935714D01*
X87940000Y-56935714D01*
X88416190Y-57602380D02*
X88320952Y-57554761D01*
X88273333Y-57507142D01*
X88225714Y-57411904D01*
X88225714Y-57126190D01*
X88273333Y-57030952D01*
X88320952Y-56983333D01*
X88416190Y-56935714D01*
X88559047Y-56935714D01*
X88654285Y-56983333D01*
X88701904Y-57030952D01*
X88749523Y-57126190D01*
X88749523Y-57411904D01*
X88701904Y-57507142D01*
X88654285Y-57554761D01*
X88559047Y-57602380D01*
X88416190Y-57602380D01*
X89606666Y-56935714D02*
X89606666Y-57745238D01*
X89559047Y-57840476D01*
X89511428Y-57888095D01*
X89416190Y-57935714D01*
X89273333Y-57935714D01*
X89178095Y-57888095D01*
X89606666Y-57554761D02*
X89511428Y-57602380D01*
X89320952Y-57602380D01*
X89225714Y-57554761D01*
X89178095Y-57507142D01*
X89130476Y-57411904D01*
X89130476Y-57126190D01*
X89178095Y-57030952D01*
X89225714Y-56983333D01*
X89320952Y-56935714D01*
X89511428Y-56935714D01*
X89606666Y-56983333D01*
X90082857Y-57602380D02*
X90082857Y-56602380D01*
X90559047Y-56935714D02*
X90559047Y-57602380D01*
X90559047Y-57030952D02*
X90606666Y-56983333D01*
X90701904Y-56935714D01*
X90844761Y-56935714D01*
X90940000Y-56983333D01*
X90987619Y-57078571D01*
X90987619Y-57602380D01*
X91320952Y-56935714D02*
X91701904Y-56935714D01*
X91463809Y-56602380D02*
X91463809Y-57459523D01*
X91511428Y-57554761D01*
X91606666Y-57602380D01*
X91701904Y-57602380D01*
X92416190Y-57554761D02*
X92320952Y-57602380D01*
X92130476Y-57602380D01*
X92035238Y-57554761D01*
X91987619Y-57459523D01*
X91987619Y-57078571D01*
X92035238Y-56983333D01*
X92130476Y-56935714D01*
X92320952Y-56935714D01*
X92416190Y-56983333D01*
X92463809Y-57078571D01*
X92463809Y-57173809D01*
X91987619Y-57269047D01*
X92892380Y-57602380D02*
X92892380Y-56935714D01*
X92892380Y-57126190D02*
X92940000Y-57030952D01*
X92987619Y-56983333D01*
X93082857Y-56935714D01*
X93178095Y-56935714D01*
X93368571Y-56935714D02*
X93749523Y-56935714D01*
X93511428Y-57602380D02*
X93511428Y-56745238D01*
X93559047Y-56650000D01*
X93654285Y-56602380D01*
X93749523Y-56602380D01*
X94511428Y-57602380D02*
X94511428Y-57078571D01*
X94463809Y-56983333D01*
X94368571Y-56935714D01*
X94178095Y-56935714D01*
X94082857Y-56983333D01*
X94511428Y-57554761D02*
X94416190Y-57602380D01*
X94178095Y-57602380D01*
X94082857Y-57554761D01*
X94035238Y-57459523D01*
X94035238Y-57364285D01*
X94082857Y-57269047D01*
X94178095Y-57221428D01*
X94416190Y-57221428D01*
X94511428Y-57173809D01*
X95416190Y-57554761D02*
X95320952Y-57602380D01*
X95130476Y-57602380D01*
X95035238Y-57554761D01*
X94987619Y-57507142D01*
X94940000Y-57411904D01*
X94940000Y-57126190D01*
X94987619Y-57030952D01*
X95035238Y-56983333D01*
X95130476Y-56935714D01*
X95320952Y-56935714D01*
X95416190Y-56983333D01*
X96225714Y-57554761D02*
X96130476Y-57602380D01*
X95940000Y-57602380D01*
X95844761Y-57554761D01*
X95797142Y-57459523D01*
X95797142Y-57078571D01*
X95844761Y-56983333D01*
X95940000Y-56935714D01*
X96130476Y-56935714D01*
X96225714Y-56983333D01*
X96273333Y-57078571D01*
X96273333Y-57173809D01*
X95797142Y-57269047D01*
X76033333Y-57772380D02*
X75700000Y-57296190D01*
X75461904Y-57772380D02*
X75461904Y-56772380D01*
X75842857Y-56772380D01*
X75938095Y-56820000D01*
X75985714Y-56867619D01*
X76033333Y-56962857D01*
X76033333Y-57105714D01*
X75985714Y-57200952D01*
X75938095Y-57248571D01*
X75842857Y-57296190D01*
X75461904Y-57296190D01*
X76985714Y-57772380D02*
X76414285Y-57772380D01*
X76700000Y-57772380D02*
X76700000Y-56772380D01*
X76604761Y-56915238D01*
X76509523Y-57010476D01*
X76414285Y-57058095D01*
X128960952Y-43394761D02*
X129103809Y-43442380D01*
X129341904Y-43442380D01*
X129437142Y-43394761D01*
X129484761Y-43347142D01*
X129532380Y-43251904D01*
X129532380Y-43156666D01*
X129484761Y-43061428D01*
X129437142Y-43013809D01*
X129341904Y-42966190D01*
X129151428Y-42918571D01*
X129056190Y-42870952D01*
X129008571Y-42823333D01*
X128960952Y-42728095D01*
X128960952Y-42632857D01*
X129008571Y-42537619D01*
X129056190Y-42490000D01*
X129151428Y-42442380D01*
X129389523Y-42442380D01*
X129532380Y-42490000D01*
X129818095Y-42775714D02*
X130199047Y-42775714D01*
X129960952Y-42442380D02*
X129960952Y-43299523D01*
X130008571Y-43394761D01*
X130103809Y-43442380D01*
X130199047Y-43442380D01*
X130913333Y-43394761D02*
X130818095Y-43442380D01*
X130627619Y-43442380D01*
X130532380Y-43394761D01*
X130484761Y-43299523D01*
X130484761Y-42918571D01*
X130532380Y-42823333D01*
X130627619Y-42775714D01*
X130818095Y-42775714D01*
X130913333Y-42823333D01*
X130960952Y-42918571D01*
X130960952Y-43013809D01*
X130484761Y-43109047D01*
X131389523Y-42775714D02*
X131389523Y-43775714D01*
X131389523Y-42823333D02*
X131484761Y-42775714D01*
X131675238Y-42775714D01*
X131770476Y-42823333D01*
X131818095Y-42870952D01*
X131865714Y-42966190D01*
X131865714Y-43251904D01*
X131818095Y-43347142D01*
X131770476Y-43394761D01*
X131675238Y-43442380D01*
X131484761Y-43442380D01*
X131389523Y-43394761D01*
X132294285Y-42775714D02*
X132294285Y-43775714D01*
X132294285Y-42823333D02*
X132389523Y-42775714D01*
X132580000Y-42775714D01*
X132675238Y-42823333D01*
X132722857Y-42870952D01*
X132770476Y-42966190D01*
X132770476Y-43251904D01*
X132722857Y-43347142D01*
X132675238Y-43394761D01*
X132580000Y-43442380D01*
X132389523Y-43442380D01*
X132294285Y-43394761D01*
X133580000Y-43394761D02*
X133484761Y-43442380D01*
X133294285Y-43442380D01*
X133199047Y-43394761D01*
X133151428Y-43299523D01*
X133151428Y-42918571D01*
X133199047Y-42823333D01*
X133294285Y-42775714D01*
X133484761Y-42775714D01*
X133580000Y-42823333D01*
X133627619Y-42918571D01*
X133627619Y-43013809D01*
X133151428Y-43109047D01*
X134056190Y-43442380D02*
X134056190Y-42775714D01*
X134056190Y-42966190D02*
X134103809Y-42870952D01*
X134151428Y-42823333D01*
X134246666Y-42775714D01*
X134341904Y-42775714D01*
X135199047Y-43442380D02*
X134627619Y-43442380D01*
X134913333Y-43442380D02*
X134913333Y-42442380D01*
X134818095Y-42585238D01*
X134722857Y-42680476D01*
X134627619Y-42728095D01*
X121340952Y-43394761D02*
X121483809Y-43442380D01*
X121721904Y-43442380D01*
X121817142Y-43394761D01*
X121864761Y-43347142D01*
X121912380Y-43251904D01*
X121912380Y-43156666D01*
X121864761Y-43061428D01*
X121817142Y-43013809D01*
X121721904Y-42966190D01*
X121531428Y-42918571D01*
X121436190Y-42870952D01*
X121388571Y-42823333D01*
X121340952Y-42728095D01*
X121340952Y-42632857D01*
X121388571Y-42537619D01*
X121436190Y-42490000D01*
X121531428Y-42442380D01*
X121769523Y-42442380D01*
X121912380Y-42490000D01*
X122198095Y-42775714D02*
X122579047Y-42775714D01*
X122340952Y-42442380D02*
X122340952Y-43299523D01*
X122388571Y-43394761D01*
X122483809Y-43442380D01*
X122579047Y-43442380D01*
X123293333Y-43394761D02*
X123198095Y-43442380D01*
X123007619Y-43442380D01*
X122912380Y-43394761D01*
X122864761Y-43299523D01*
X122864761Y-42918571D01*
X122912380Y-42823333D01*
X123007619Y-42775714D01*
X123198095Y-42775714D01*
X123293333Y-42823333D01*
X123340952Y-42918571D01*
X123340952Y-43013809D01*
X122864761Y-43109047D01*
X123769523Y-42775714D02*
X123769523Y-43775714D01*
X123769523Y-42823333D02*
X123864761Y-42775714D01*
X124055238Y-42775714D01*
X124150476Y-42823333D01*
X124198095Y-42870952D01*
X124245714Y-42966190D01*
X124245714Y-43251904D01*
X124198095Y-43347142D01*
X124150476Y-43394761D01*
X124055238Y-43442380D01*
X123864761Y-43442380D01*
X123769523Y-43394761D01*
X124674285Y-42775714D02*
X124674285Y-43775714D01*
X124674285Y-42823333D02*
X124769523Y-42775714D01*
X124960000Y-42775714D01*
X125055238Y-42823333D01*
X125102857Y-42870952D01*
X125150476Y-42966190D01*
X125150476Y-43251904D01*
X125102857Y-43347142D01*
X125055238Y-43394761D01*
X124960000Y-43442380D01*
X124769523Y-43442380D01*
X124674285Y-43394761D01*
X125960000Y-43394761D02*
X125864761Y-43442380D01*
X125674285Y-43442380D01*
X125579047Y-43394761D01*
X125531428Y-43299523D01*
X125531428Y-42918571D01*
X125579047Y-42823333D01*
X125674285Y-42775714D01*
X125864761Y-42775714D01*
X125960000Y-42823333D01*
X126007619Y-42918571D01*
X126007619Y-43013809D01*
X125531428Y-43109047D01*
X126436190Y-43442380D02*
X126436190Y-42775714D01*
X126436190Y-42966190D02*
X126483809Y-42870952D01*
X126531428Y-42823333D01*
X126626666Y-42775714D01*
X126721904Y-42775714D01*
X127007619Y-42537619D02*
X127055238Y-42490000D01*
X127150476Y-42442380D01*
X127388571Y-42442380D01*
X127483809Y-42490000D01*
X127531428Y-42537619D01*
X127579047Y-42632857D01*
X127579047Y-42728095D01*
X127531428Y-42870952D01*
X126960000Y-43442380D01*
X127579047Y-43442380D01*
X44902380Y-44946190D02*
X44426190Y-45279523D01*
X44902380Y-45517619D02*
X43902380Y-45517619D01*
X43902380Y-45136666D01*
X43950000Y-45041428D01*
X43997619Y-44993809D01*
X44092857Y-44946190D01*
X44235714Y-44946190D01*
X44330952Y-44993809D01*
X44378571Y-45041428D01*
X44426190Y-45136666D01*
X44426190Y-45517619D01*
X44854761Y-44136666D02*
X44902380Y-44231904D01*
X44902380Y-44422380D01*
X44854761Y-44517619D01*
X44759523Y-44565238D01*
X44378571Y-44565238D01*
X44283333Y-44517619D01*
X44235714Y-44422380D01*
X44235714Y-44231904D01*
X44283333Y-44136666D01*
X44378571Y-44089047D01*
X44473809Y-44089047D01*
X44569047Y-44565238D01*
X44854761Y-43708095D02*
X44902380Y-43612857D01*
X44902380Y-43422380D01*
X44854761Y-43327142D01*
X44759523Y-43279523D01*
X44711904Y-43279523D01*
X44616666Y-43327142D01*
X44569047Y-43422380D01*
X44569047Y-43565238D01*
X44521428Y-43660476D01*
X44426190Y-43708095D01*
X44378571Y-43708095D01*
X44283333Y-43660476D01*
X44235714Y-43565238D01*
X44235714Y-43422380D01*
X44283333Y-43327142D01*
X44854761Y-42470000D02*
X44902380Y-42565238D01*
X44902380Y-42755714D01*
X44854761Y-42850952D01*
X44759523Y-42898571D01*
X44378571Y-42898571D01*
X44283333Y-42850952D01*
X44235714Y-42755714D01*
X44235714Y-42565238D01*
X44283333Y-42470000D01*
X44378571Y-42422380D01*
X44473809Y-42422380D01*
X44569047Y-42898571D01*
X44235714Y-42136666D02*
X44235714Y-41755714D01*
X43902380Y-41993809D02*
X44759523Y-41993809D01*
X44854761Y-41946190D01*
X44902380Y-41850952D01*
X44902380Y-41755714D01*
X44378571Y-41089047D02*
X44426190Y-40946190D01*
X44473809Y-40898571D01*
X44569047Y-40850952D01*
X44711904Y-40850952D01*
X44807142Y-40898571D01*
X44854761Y-40946190D01*
X44902380Y-41041428D01*
X44902380Y-41422380D01*
X43902380Y-41422380D01*
X43902380Y-41089047D01*
X43950000Y-40993809D01*
X43997619Y-40946190D01*
X44092857Y-40898571D01*
X44188095Y-40898571D01*
X44283333Y-40946190D01*
X44330952Y-40993809D01*
X44378571Y-41089047D01*
X44378571Y-41422380D01*
X44235714Y-40565238D02*
X44235714Y-40184285D01*
X43902380Y-40422380D02*
X44759523Y-40422380D01*
X44854761Y-40374761D01*
X44902380Y-40279523D01*
X44902380Y-40184285D01*
X44235714Y-39850952D02*
X44902380Y-39850952D01*
X44330952Y-39850952D02*
X44283333Y-39803333D01*
X44235714Y-39708095D01*
X44235714Y-39565238D01*
X44283333Y-39470000D01*
X44378571Y-39422380D01*
X44902380Y-39422380D01*
D15*
X53904285Y-42858571D02*
X54404285Y-44358571D01*
X54904285Y-42858571D01*
X56261428Y-44215714D02*
X56189999Y-44287142D01*
X55975714Y-44358571D01*
X55832857Y-44358571D01*
X55618571Y-44287142D01*
X55475714Y-44144285D01*
X55404285Y-44001428D01*
X55332857Y-43715714D01*
X55332857Y-43501428D01*
X55404285Y-43215714D01*
X55475714Y-43072857D01*
X55618571Y-42930000D01*
X55832857Y-42858571D01*
X55975714Y-42858571D01*
X56189999Y-42930000D01*
X56261428Y-43001428D01*
X57761428Y-44215714D02*
X57689999Y-44287142D01*
X57475714Y-44358571D01*
X57332857Y-44358571D01*
X57118571Y-44287142D01*
X56975714Y-44144285D01*
X56904285Y-44001428D01*
X56832857Y-43715714D01*
X56832857Y-43501428D01*
X56904285Y-43215714D01*
X56975714Y-43072857D01*
X57118571Y-42930000D01*
X57332857Y-42858571D01*
X57475714Y-42858571D01*
X57689999Y-42930000D01*
X57761428Y-43001428D01*
X59975714Y-44930000D02*
X59904285Y-44858571D01*
X59761428Y-44644285D01*
X59689999Y-44501428D01*
X59618571Y-44287142D01*
X59547142Y-43930000D01*
X59547142Y-43644285D01*
X59618571Y-43287142D01*
X59689999Y-43072857D01*
X59761428Y-42930000D01*
X59904285Y-42715714D01*
X59975714Y-42644285D01*
X60547142Y-43787142D02*
X61689999Y-43787142D01*
X61118571Y-44358571D02*
X61118571Y-43215714D01*
X63118571Y-42858571D02*
X62404285Y-42858571D01*
X62332857Y-43572857D01*
X62404285Y-43501428D01*
X62547142Y-43430000D01*
X62904285Y-43430000D01*
X63047142Y-43501428D01*
X63118571Y-43572857D01*
X63190000Y-43715714D01*
X63190000Y-44072857D01*
X63118571Y-44215714D01*
X63047142Y-44287142D01*
X62904285Y-44358571D01*
X62547142Y-44358571D01*
X62404285Y-44287142D01*
X62332857Y-44215714D01*
X63690000Y-43358571D02*
X64047142Y-44358571D01*
X64404285Y-43358571D01*
X64832857Y-44930000D02*
X64904285Y-44858571D01*
X65047142Y-44644285D01*
X65118571Y-44501428D01*
X65190000Y-44287142D01*
X65261428Y-43930000D01*
X65261428Y-43644285D01*
X65190000Y-43287142D01*
X65118571Y-43072857D01*
X65047142Y-42930000D01*
X64904285Y-42715714D01*
X64832857Y-42644285D01*
D13*
X113823809Y-46966190D02*
X113823809Y-47442380D01*
X113490476Y-46442380D02*
X113823809Y-46966190D01*
X114157142Y-46442380D01*
X115014285Y-47442380D02*
X114442857Y-47442380D01*
X114728571Y-47442380D02*
X114728571Y-46442380D01*
X114633333Y-46585238D01*
X114538095Y-46680476D01*
X114442857Y-46728095D01*
M02*
