G04 #@! TF.GenerationSoftware,KiCad,Pcbnew,(5.1.2)-1*
G04 #@! TF.CreationDate,2019-05-22T15:10:38+02:00*
G04 #@! TF.ProjectId,ADClock1,4144436c-6f63-46b3-912e-6b696361645f,rev?*
G04 #@! TF.SameCoordinates,Original*
G04 #@! TF.FileFunction,Legend,Bot*
G04 #@! TF.FilePolarity,Positive*
%FSLAX46Y46*%
G04 Gerber Fmt 4.6, Leading zero omitted, Abs format (unit mm)*
G04 Created by KiCad (PCBNEW (5.1.2)-1) date 2019-05-22 15:10:38*
%MOMM*%
%LPD*%
G04 APERTURE LIST*
%ADD10C,1.500000*%
G04 APERTURE END LIST*
D10*
X113740952Y-57863809D02*
X113740952Y-47863809D01*
X109931428Y-47863809D01*
X108979047Y-48340000D01*
X108502857Y-48816190D01*
X108026666Y-49768571D01*
X108026666Y-51197142D01*
X108502857Y-52149523D01*
X108979047Y-52625714D01*
X109931428Y-53101904D01*
X113740952Y-53101904D01*
X98026666Y-56911428D02*
X98502857Y-57387619D01*
X99931428Y-57863809D01*
X100883809Y-57863809D01*
X102312380Y-57387619D01*
X103264761Y-56435238D01*
X103740952Y-55482857D01*
X104217142Y-53578095D01*
X104217142Y-52149523D01*
X103740952Y-50244761D01*
X103264761Y-49292380D01*
X102312380Y-48340000D01*
X100883809Y-47863809D01*
X99931428Y-47863809D01*
X98502857Y-48340000D01*
X98026666Y-48816190D01*
X90407619Y-52625714D02*
X88979047Y-53101904D01*
X88502857Y-53578095D01*
X88026666Y-54530476D01*
X88026666Y-55959047D01*
X88502857Y-56911428D01*
X88979047Y-57387619D01*
X89931428Y-57863809D01*
X93740952Y-57863809D01*
X93740952Y-47863809D01*
X90407619Y-47863809D01*
X89455238Y-48340000D01*
X88979047Y-48816190D01*
X88502857Y-49768571D01*
X88502857Y-50720952D01*
X88979047Y-51673333D01*
X89455238Y-52149523D01*
X90407619Y-52625714D01*
X93740952Y-52625714D01*
X77074285Y-51197142D02*
X74693333Y-57863809D01*
X72312380Y-51197142D01*
X68502857Y-56911428D02*
X68026666Y-57387619D01*
X68502857Y-57863809D01*
X68979047Y-57387619D01*
X68502857Y-56911428D01*
X68502857Y-57863809D01*
X64217142Y-48816190D02*
X63740952Y-48340000D01*
X62788571Y-47863809D01*
X60407619Y-47863809D01*
X59455238Y-48340000D01*
X58979047Y-48816190D01*
X58502857Y-49768571D01*
X58502857Y-50720952D01*
X58979047Y-52149523D01*
X64693333Y-57863809D01*
X58502857Y-57863809D01*
X114217142Y-37226666D02*
X109455238Y-37226666D01*
X115169523Y-40083809D02*
X111836190Y-30083809D01*
X108502857Y-40083809D01*
X105169523Y-40083809D02*
X105169523Y-30083809D01*
X102788571Y-30083809D01*
X101360000Y-30560000D01*
X100407619Y-31512380D01*
X99931428Y-32464761D01*
X99455238Y-34369523D01*
X99455238Y-35798095D01*
X99931428Y-37702857D01*
X100407619Y-38655238D01*
X101360000Y-39607619D01*
X102788571Y-40083809D01*
X105169523Y-40083809D01*
X89455238Y-39131428D02*
X89931428Y-39607619D01*
X91360000Y-40083809D01*
X92312380Y-40083809D01*
X93740952Y-39607619D01*
X94693333Y-38655238D01*
X95169523Y-37702857D01*
X95645714Y-35798095D01*
X95645714Y-34369523D01*
X95169523Y-32464761D01*
X94693333Y-31512380D01*
X93740952Y-30560000D01*
X92312380Y-30083809D01*
X91360000Y-30083809D01*
X89931428Y-30560000D01*
X89455238Y-31036190D01*
X83740952Y-40083809D02*
X84693333Y-39607619D01*
X85169523Y-38655238D01*
X85169523Y-30083809D01*
X78502857Y-40083809D02*
X79455238Y-39607619D01*
X79931428Y-39131428D01*
X80407619Y-38179047D01*
X80407619Y-35321904D01*
X79931428Y-34369523D01*
X79455238Y-33893333D01*
X78502857Y-33417142D01*
X77074285Y-33417142D01*
X76121904Y-33893333D01*
X75645714Y-34369523D01*
X75169523Y-35321904D01*
X75169523Y-38179047D01*
X75645714Y-39131428D01*
X76121904Y-39607619D01*
X77074285Y-40083809D01*
X78502857Y-40083809D01*
X66598095Y-39607619D02*
X67550476Y-40083809D01*
X69455238Y-40083809D01*
X70407619Y-39607619D01*
X70883809Y-39131428D01*
X71360000Y-38179047D01*
X71360000Y-35321904D01*
X70883809Y-34369523D01*
X70407619Y-33893333D01*
X69455238Y-33417142D01*
X67550476Y-33417142D01*
X66598095Y-33893333D01*
X62312380Y-40083809D02*
X62312380Y-30083809D01*
X61360000Y-36274285D02*
X58502857Y-40083809D01*
X58502857Y-33417142D02*
X62312380Y-37226666D01*
M02*
