G04 #@! TF.GenerationSoftware,KiCad,Pcbnew,(5.1.2)-1*
G04 #@! TF.CreationDate,2019-05-22T15:10:38+02:00*
G04 #@! TF.ProjectId,ADClock1,4144436c-6f63-46b3-912e-6b696361645f,rev?*
G04 #@! TF.SameCoordinates,Original*
G04 #@! TF.FileFunction,Soldermask,Top*
G04 #@! TF.FilePolarity,Negative*
%FSLAX46Y46*%
G04 Gerber Fmt 4.6, Leading zero omitted, Abs format (unit mm)*
G04 Created by KiCad (PCBNEW (5.1.2)-1) date 2019-05-22 15:10:38*
%MOMM*%
%LPD*%
G04 APERTURE LIST*
%ADD10C,0.100000*%
G04 APERTURE END LIST*
D10*
G36*
X145414239Y-55231467D02*
G01*
X145728282Y-55293934D01*
X146319926Y-55539001D01*
X146732598Y-55814740D01*
X146830267Y-55880000D01*
X146852392Y-55894784D01*
X147305216Y-56347608D01*
X147660999Y-56880074D01*
X147906066Y-57471718D01*
X147906066Y-57471719D01*
X148031000Y-58099803D01*
X148031000Y-58740197D01*
X147991809Y-58937221D01*
X147906066Y-59368282D01*
X147660999Y-59959926D01*
X147478883Y-60232481D01*
X147313480Y-60480025D01*
X147305216Y-60492392D01*
X146852392Y-60945216D01*
X146319926Y-61300999D01*
X145728282Y-61546066D01*
X145414239Y-61608533D01*
X145100197Y-61671000D01*
X144459803Y-61671000D01*
X144145761Y-61608533D01*
X143831718Y-61546066D01*
X143240074Y-61300999D01*
X142707608Y-60945216D01*
X142254784Y-60492392D01*
X142246521Y-60480025D01*
X142081117Y-60232481D01*
X141899001Y-59959926D01*
X141653934Y-59368282D01*
X141568191Y-58937221D01*
X141529000Y-58740197D01*
X141529000Y-58099803D01*
X141653934Y-57471719D01*
X141653934Y-57471718D01*
X141899001Y-56880074D01*
X142254784Y-56347608D01*
X142707608Y-55894784D01*
X142729734Y-55880000D01*
X142827402Y-55814740D01*
X143240074Y-55539001D01*
X143831718Y-55293934D01*
X144145761Y-55231467D01*
X144459803Y-55169000D01*
X145100197Y-55169000D01*
X145414239Y-55231467D01*
X145414239Y-55231467D01*
G37*
G36*
X33654239Y-55231467D02*
G01*
X33968282Y-55293934D01*
X34559926Y-55539001D01*
X34972598Y-55814740D01*
X35070267Y-55880000D01*
X35092392Y-55894784D01*
X35545216Y-56347608D01*
X35900999Y-56880074D01*
X36146066Y-57471718D01*
X36146066Y-57471719D01*
X36271000Y-58099803D01*
X36271000Y-58740197D01*
X36231809Y-58937221D01*
X36146066Y-59368282D01*
X35900999Y-59959926D01*
X35718883Y-60232481D01*
X35553480Y-60480025D01*
X35545216Y-60492392D01*
X35092392Y-60945216D01*
X34559926Y-61300999D01*
X33968282Y-61546066D01*
X33654239Y-61608533D01*
X33340197Y-61671000D01*
X32699803Y-61671000D01*
X32385761Y-61608533D01*
X32071718Y-61546066D01*
X31480074Y-61300999D01*
X30947608Y-60945216D01*
X30494784Y-60492392D01*
X30486521Y-60480025D01*
X30321117Y-60232481D01*
X30139001Y-59959926D01*
X29893934Y-59368282D01*
X29808191Y-58937221D01*
X29769000Y-58740197D01*
X29769000Y-58099803D01*
X29893934Y-57471719D01*
X29893934Y-57471718D01*
X30139001Y-56880074D01*
X30494784Y-56347608D01*
X30947608Y-55894784D01*
X30969734Y-55880000D01*
X31067402Y-55814740D01*
X31480074Y-55539001D01*
X32071718Y-55293934D01*
X32385761Y-55231467D01*
X32699803Y-55169000D01*
X33340197Y-55169000D01*
X33654239Y-55231467D01*
X33654239Y-55231467D01*
G37*
G36*
X42961000Y-61241000D02*
G01*
X39859000Y-61241000D01*
X39859000Y-58139000D01*
X42961000Y-58139000D01*
X42961000Y-61241000D01*
X42961000Y-61241000D01*
G37*
G36*
X91550442Y-58795518D02*
G01*
X91616627Y-58802037D01*
X91786466Y-58853557D01*
X91942991Y-58937222D01*
X91978729Y-58966552D01*
X92080186Y-59049814D01*
X92160369Y-59147519D01*
X92192778Y-59187009D01*
X92276443Y-59343534D01*
X92327963Y-59513373D01*
X92345359Y-59690000D01*
X92327963Y-59866627D01*
X92276443Y-60036466D01*
X92192778Y-60192991D01*
X92163448Y-60228729D01*
X92080186Y-60330186D01*
X91978729Y-60413448D01*
X91942991Y-60442778D01*
X91786466Y-60526443D01*
X91616627Y-60577963D01*
X91550443Y-60584481D01*
X91484260Y-60591000D01*
X91395740Y-60591000D01*
X91329557Y-60584481D01*
X91263373Y-60577963D01*
X91093534Y-60526443D01*
X90937009Y-60442778D01*
X90901271Y-60413448D01*
X90799814Y-60330186D01*
X90716552Y-60228729D01*
X90687222Y-60192991D01*
X90603557Y-60036466D01*
X90552037Y-59866627D01*
X90534641Y-59690000D01*
X90552037Y-59513373D01*
X90603557Y-59343534D01*
X90687222Y-59187009D01*
X90719631Y-59147519D01*
X90799814Y-59049814D01*
X90901271Y-58966552D01*
X90937009Y-58937222D01*
X91093534Y-58853557D01*
X91263373Y-58802037D01*
X91329558Y-58795518D01*
X91395740Y-58789000D01*
X91484260Y-58789000D01*
X91550442Y-58795518D01*
X91550442Y-58795518D01*
G37*
G36*
X94090442Y-58795518D02*
G01*
X94156627Y-58802037D01*
X94326466Y-58853557D01*
X94482991Y-58937222D01*
X94518729Y-58966552D01*
X94620186Y-59049814D01*
X94700369Y-59147519D01*
X94732778Y-59187009D01*
X94816443Y-59343534D01*
X94867963Y-59513373D01*
X94885359Y-59690000D01*
X94867963Y-59866627D01*
X94816443Y-60036466D01*
X94732778Y-60192991D01*
X94703448Y-60228729D01*
X94620186Y-60330186D01*
X94518729Y-60413448D01*
X94482991Y-60442778D01*
X94326466Y-60526443D01*
X94156627Y-60577963D01*
X94090443Y-60584481D01*
X94024260Y-60591000D01*
X93935740Y-60591000D01*
X93869557Y-60584481D01*
X93803373Y-60577963D01*
X93633534Y-60526443D01*
X93477009Y-60442778D01*
X93441271Y-60413448D01*
X93339814Y-60330186D01*
X93256552Y-60228729D01*
X93227222Y-60192991D01*
X93143557Y-60036466D01*
X93092037Y-59866627D01*
X93074641Y-59690000D01*
X93092037Y-59513373D01*
X93143557Y-59343534D01*
X93227222Y-59187009D01*
X93259631Y-59147519D01*
X93339814Y-59049814D01*
X93441271Y-58966552D01*
X93477009Y-58937222D01*
X93633534Y-58853557D01*
X93803373Y-58802037D01*
X93869558Y-58795518D01*
X93935740Y-58789000D01*
X94024260Y-58789000D01*
X94090442Y-58795518D01*
X94090442Y-58795518D01*
G37*
G36*
X96630442Y-58795518D02*
G01*
X96696627Y-58802037D01*
X96866466Y-58853557D01*
X97022991Y-58937222D01*
X97058729Y-58966552D01*
X97160186Y-59049814D01*
X97240369Y-59147519D01*
X97272778Y-59187009D01*
X97356443Y-59343534D01*
X97407963Y-59513373D01*
X97425359Y-59690000D01*
X97407963Y-59866627D01*
X97356443Y-60036466D01*
X97272778Y-60192991D01*
X97243448Y-60228729D01*
X97160186Y-60330186D01*
X97058729Y-60413448D01*
X97022991Y-60442778D01*
X96866466Y-60526443D01*
X96696627Y-60577963D01*
X96630443Y-60584481D01*
X96564260Y-60591000D01*
X96475740Y-60591000D01*
X96409557Y-60584481D01*
X96343373Y-60577963D01*
X96173534Y-60526443D01*
X96017009Y-60442778D01*
X95981271Y-60413448D01*
X95879814Y-60330186D01*
X95796552Y-60228729D01*
X95767222Y-60192991D01*
X95683557Y-60036466D01*
X95632037Y-59866627D01*
X95614641Y-59690000D01*
X95632037Y-59513373D01*
X95683557Y-59343534D01*
X95767222Y-59187009D01*
X95799631Y-59147519D01*
X95879814Y-59049814D01*
X95981271Y-58966552D01*
X96017009Y-58937222D01*
X96173534Y-58853557D01*
X96343373Y-58802037D01*
X96409558Y-58795518D01*
X96475740Y-58789000D01*
X96564260Y-58789000D01*
X96630442Y-58795518D01*
X96630442Y-58795518D01*
G37*
G36*
X89010442Y-58795518D02*
G01*
X89076627Y-58802037D01*
X89246466Y-58853557D01*
X89402991Y-58937222D01*
X89438729Y-58966552D01*
X89540186Y-59049814D01*
X89620369Y-59147519D01*
X89652778Y-59187009D01*
X89736443Y-59343534D01*
X89787963Y-59513373D01*
X89805359Y-59690000D01*
X89787963Y-59866627D01*
X89736443Y-60036466D01*
X89652778Y-60192991D01*
X89623448Y-60228729D01*
X89540186Y-60330186D01*
X89438729Y-60413448D01*
X89402991Y-60442778D01*
X89246466Y-60526443D01*
X89076627Y-60577963D01*
X89010443Y-60584481D01*
X88944260Y-60591000D01*
X88855740Y-60591000D01*
X88789557Y-60584481D01*
X88723373Y-60577963D01*
X88553534Y-60526443D01*
X88397009Y-60442778D01*
X88361271Y-60413448D01*
X88259814Y-60330186D01*
X88176552Y-60228729D01*
X88147222Y-60192991D01*
X88063557Y-60036466D01*
X88012037Y-59866627D01*
X87994641Y-59690000D01*
X88012037Y-59513373D01*
X88063557Y-59343534D01*
X88147222Y-59187009D01*
X88179631Y-59147519D01*
X88259814Y-59049814D01*
X88361271Y-58966552D01*
X88397009Y-58937222D01*
X88553534Y-58853557D01*
X88723373Y-58802037D01*
X88789558Y-58795518D01*
X88855740Y-58789000D01*
X88944260Y-58789000D01*
X89010442Y-58795518D01*
X89010442Y-58795518D01*
G37*
G36*
X87261000Y-60591000D02*
G01*
X85459000Y-60591000D01*
X85459000Y-58789000D01*
X87261000Y-58789000D01*
X87261000Y-60591000D01*
X87261000Y-60591000D01*
G37*
G36*
X72638228Y-58871703D02*
G01*
X72793100Y-58935853D01*
X72932481Y-59028985D01*
X73051015Y-59147519D01*
X73144147Y-59286900D01*
X73208297Y-59441772D01*
X73241000Y-59606184D01*
X73241000Y-59773816D01*
X73208297Y-59938228D01*
X73144147Y-60093100D01*
X73051015Y-60232481D01*
X72932481Y-60351015D01*
X72793100Y-60444147D01*
X72638228Y-60508297D01*
X72473816Y-60541000D01*
X72306184Y-60541000D01*
X72141772Y-60508297D01*
X71986900Y-60444147D01*
X71847519Y-60351015D01*
X71728985Y-60232481D01*
X71635853Y-60093100D01*
X71571703Y-59938228D01*
X71539000Y-59773816D01*
X71539000Y-59606184D01*
X71571703Y-59441772D01*
X71635853Y-59286900D01*
X71728985Y-59147519D01*
X71847519Y-59028985D01*
X71986900Y-58935853D01*
X72141772Y-58871703D01*
X72306184Y-58839000D01*
X72473816Y-58839000D01*
X72638228Y-58871703D01*
X72638228Y-58871703D01*
G37*
G36*
X80176823Y-58851313D02*
G01*
X80337242Y-58899976D01*
X80404361Y-58935852D01*
X80485078Y-58978996D01*
X80614659Y-59085341D01*
X80721004Y-59214922D01*
X80721005Y-59214924D01*
X80800024Y-59362758D01*
X80848687Y-59523177D01*
X80865117Y-59690000D01*
X80848687Y-59856823D01*
X80800024Y-60017242D01*
X80759477Y-60093100D01*
X80721004Y-60165078D01*
X80614659Y-60294659D01*
X80485078Y-60401004D01*
X80485076Y-60401005D01*
X80337242Y-60480024D01*
X80176823Y-60528687D01*
X80051804Y-60541000D01*
X79968196Y-60541000D01*
X79843177Y-60528687D01*
X79682758Y-60480024D01*
X79534924Y-60401005D01*
X79534922Y-60401004D01*
X79405341Y-60294659D01*
X79298996Y-60165078D01*
X79260523Y-60093100D01*
X79219976Y-60017242D01*
X79171313Y-59856823D01*
X79154883Y-59690000D01*
X79171313Y-59523177D01*
X79219976Y-59362758D01*
X79298995Y-59214924D01*
X79298996Y-59214922D01*
X79405341Y-59085341D01*
X79534922Y-58978996D01*
X79615639Y-58935852D01*
X79682758Y-58899976D01*
X79843177Y-58851313D01*
X79968196Y-58839000D01*
X80051804Y-58839000D01*
X80176823Y-58851313D01*
X80176823Y-58851313D01*
G37*
G36*
X132190443Y-57525519D02*
G01*
X132256627Y-57532037D01*
X132426466Y-57583557D01*
X132582991Y-57667222D01*
X132618729Y-57696552D01*
X132720186Y-57779814D01*
X132803448Y-57881271D01*
X132832778Y-57917009D01*
X132916443Y-58073534D01*
X132967963Y-58243373D01*
X132985359Y-58420000D01*
X132967963Y-58596627D01*
X132916443Y-58766466D01*
X132832778Y-58922991D01*
X132803448Y-58958729D01*
X132720186Y-59060186D01*
X132618729Y-59143448D01*
X132582991Y-59172778D01*
X132426466Y-59256443D01*
X132256627Y-59307963D01*
X132190442Y-59314482D01*
X132124260Y-59321000D01*
X132035740Y-59321000D01*
X131969558Y-59314482D01*
X131903373Y-59307963D01*
X131733534Y-59256443D01*
X131577009Y-59172778D01*
X131541271Y-59143448D01*
X131439814Y-59060186D01*
X131356552Y-58958729D01*
X131327222Y-58922991D01*
X131243557Y-58766466D01*
X131192037Y-58596627D01*
X131174641Y-58420000D01*
X131192037Y-58243373D01*
X131243557Y-58073534D01*
X131327222Y-57917009D01*
X131356552Y-57881271D01*
X131439814Y-57779814D01*
X131541271Y-57696552D01*
X131577009Y-57667222D01*
X131733534Y-57583557D01*
X131903373Y-57532037D01*
X131969557Y-57525519D01*
X132035740Y-57519000D01*
X132124260Y-57519000D01*
X132190443Y-57525519D01*
X132190443Y-57525519D01*
G37*
G36*
X124570443Y-57525519D02*
G01*
X124636627Y-57532037D01*
X124806466Y-57583557D01*
X124962991Y-57667222D01*
X124998729Y-57696552D01*
X125100186Y-57779814D01*
X125183448Y-57881271D01*
X125212778Y-57917009D01*
X125296443Y-58073534D01*
X125347963Y-58243373D01*
X125365359Y-58420000D01*
X125347963Y-58596627D01*
X125296443Y-58766466D01*
X125212778Y-58922991D01*
X125183448Y-58958729D01*
X125100186Y-59060186D01*
X124998729Y-59143448D01*
X124962991Y-59172778D01*
X124806466Y-59256443D01*
X124636627Y-59307963D01*
X124570442Y-59314482D01*
X124504260Y-59321000D01*
X124415740Y-59321000D01*
X124349558Y-59314482D01*
X124283373Y-59307963D01*
X124113534Y-59256443D01*
X123957009Y-59172778D01*
X123921271Y-59143448D01*
X123819814Y-59060186D01*
X123736552Y-58958729D01*
X123707222Y-58922991D01*
X123623557Y-58766466D01*
X123572037Y-58596627D01*
X123554641Y-58420000D01*
X123572037Y-58243373D01*
X123623557Y-58073534D01*
X123707222Y-57917009D01*
X123736552Y-57881271D01*
X123819814Y-57779814D01*
X123921271Y-57696552D01*
X123957009Y-57667222D01*
X124113534Y-57583557D01*
X124283373Y-57532037D01*
X124349557Y-57525519D01*
X124415740Y-57519000D01*
X124504260Y-57519000D01*
X124570443Y-57525519D01*
X124570443Y-57525519D01*
G37*
G36*
X132190443Y-54985519D02*
G01*
X132256627Y-54992037D01*
X132426466Y-55043557D01*
X132582991Y-55127222D01*
X132618729Y-55156552D01*
X132720186Y-55239814D01*
X132764600Y-55293934D01*
X132832778Y-55377009D01*
X132916443Y-55533534D01*
X132967963Y-55703373D01*
X132985359Y-55880000D01*
X132967963Y-56056627D01*
X132916443Y-56226466D01*
X132832778Y-56382991D01*
X132803448Y-56418729D01*
X132720186Y-56520186D01*
X132618729Y-56603448D01*
X132582991Y-56632778D01*
X132426466Y-56716443D01*
X132256627Y-56767963D01*
X132190443Y-56774481D01*
X132124260Y-56781000D01*
X132035740Y-56781000D01*
X131969557Y-56774481D01*
X131903373Y-56767963D01*
X131733534Y-56716443D01*
X131577009Y-56632778D01*
X131541271Y-56603448D01*
X131439814Y-56520186D01*
X131356552Y-56418729D01*
X131327222Y-56382991D01*
X131243557Y-56226466D01*
X131192037Y-56056627D01*
X131174641Y-55880000D01*
X131192037Y-55703373D01*
X131243557Y-55533534D01*
X131327222Y-55377009D01*
X131395400Y-55293934D01*
X131439814Y-55239814D01*
X131541271Y-55156552D01*
X131577009Y-55127222D01*
X131733534Y-55043557D01*
X131903373Y-54992037D01*
X131969557Y-54985519D01*
X132035740Y-54979000D01*
X132124260Y-54979000D01*
X132190443Y-54985519D01*
X132190443Y-54985519D01*
G37*
G36*
X124570443Y-54985519D02*
G01*
X124636627Y-54992037D01*
X124806466Y-55043557D01*
X124962991Y-55127222D01*
X124998729Y-55156552D01*
X125100186Y-55239814D01*
X125144600Y-55293934D01*
X125212778Y-55377009D01*
X125296443Y-55533534D01*
X125347963Y-55703373D01*
X125365359Y-55880000D01*
X125347963Y-56056627D01*
X125296443Y-56226466D01*
X125212778Y-56382991D01*
X125183448Y-56418729D01*
X125100186Y-56520186D01*
X124998729Y-56603448D01*
X124962991Y-56632778D01*
X124806466Y-56716443D01*
X124636627Y-56767963D01*
X124570443Y-56774481D01*
X124504260Y-56781000D01*
X124415740Y-56781000D01*
X124349557Y-56774481D01*
X124283373Y-56767963D01*
X124113534Y-56716443D01*
X123957009Y-56632778D01*
X123921271Y-56603448D01*
X123819814Y-56520186D01*
X123736552Y-56418729D01*
X123707222Y-56382991D01*
X123623557Y-56226466D01*
X123572037Y-56056627D01*
X123554641Y-55880000D01*
X123572037Y-55703373D01*
X123623557Y-55533534D01*
X123707222Y-55377009D01*
X123775400Y-55293934D01*
X123819814Y-55239814D01*
X123921271Y-55156552D01*
X123957009Y-55127222D01*
X124113534Y-55043557D01*
X124283373Y-54992037D01*
X124349557Y-54985519D01*
X124415740Y-54979000D01*
X124504260Y-54979000D01*
X124570443Y-54985519D01*
X124570443Y-54985519D01*
G37*
G36*
X41712585Y-53088802D02*
G01*
X41862410Y-53118604D01*
X42144674Y-53235521D01*
X42398705Y-53405259D01*
X42614741Y-53621295D01*
X42784479Y-53875326D01*
X42901396Y-54157590D01*
X42961000Y-54457240D01*
X42961000Y-54762760D01*
X42901396Y-55062410D01*
X42784479Y-55344674D01*
X42614741Y-55598705D01*
X42398705Y-55814741D01*
X42144674Y-55984479D01*
X41862410Y-56101396D01*
X41712585Y-56131198D01*
X41562761Y-56161000D01*
X41257239Y-56161000D01*
X41107415Y-56131198D01*
X40957590Y-56101396D01*
X40675326Y-55984479D01*
X40421295Y-55814741D01*
X40205259Y-55598705D01*
X40035521Y-55344674D01*
X39918604Y-55062410D01*
X39859000Y-54762760D01*
X39859000Y-54457240D01*
X39918604Y-54157590D01*
X40035521Y-53875326D01*
X40205259Y-53621295D01*
X40421295Y-53405259D01*
X40675326Y-53235521D01*
X40957590Y-53118604D01*
X41107415Y-53088802D01*
X41257239Y-53059000D01*
X41562761Y-53059000D01*
X41712585Y-53088802D01*
X41712585Y-53088802D01*
G37*
G36*
X96151000Y-55511000D02*
G01*
X94349000Y-55511000D01*
X94349000Y-53709000D01*
X96151000Y-53709000D01*
X96151000Y-55511000D01*
X96151000Y-55511000D01*
G37*
G36*
X90280442Y-53715518D02*
G01*
X90346627Y-53722037D01*
X90516466Y-53773557D01*
X90672991Y-53857222D01*
X90695053Y-53875328D01*
X90810186Y-53969814D01*
X90893448Y-54071271D01*
X90922778Y-54107009D01*
X91006443Y-54263534D01*
X91057963Y-54433373D01*
X91075359Y-54610000D01*
X91057963Y-54786627D01*
X91006443Y-54956466D01*
X90922778Y-55112991D01*
X90893448Y-55148729D01*
X90810186Y-55250186D01*
X90708729Y-55333448D01*
X90672991Y-55362778D01*
X90516466Y-55446443D01*
X90346627Y-55497963D01*
X90280442Y-55504482D01*
X90214260Y-55511000D01*
X90125740Y-55511000D01*
X90059558Y-55504482D01*
X89993373Y-55497963D01*
X89823534Y-55446443D01*
X89667009Y-55362778D01*
X89631271Y-55333448D01*
X89529814Y-55250186D01*
X89446552Y-55148729D01*
X89417222Y-55112991D01*
X89333557Y-54956466D01*
X89282037Y-54786627D01*
X89264641Y-54610000D01*
X89282037Y-54433373D01*
X89333557Y-54263534D01*
X89417222Y-54107009D01*
X89446552Y-54071271D01*
X89529814Y-53969814D01*
X89644947Y-53875328D01*
X89667009Y-53857222D01*
X89823534Y-53773557D01*
X89993373Y-53722037D01*
X90059558Y-53715518D01*
X90125740Y-53709000D01*
X90214260Y-53709000D01*
X90280442Y-53715518D01*
X90280442Y-53715518D01*
G37*
G36*
X72500442Y-53715518D02*
G01*
X72566627Y-53722037D01*
X72736466Y-53773557D01*
X72892991Y-53857222D01*
X72915053Y-53875328D01*
X73030186Y-53969814D01*
X73113448Y-54071271D01*
X73142778Y-54107009D01*
X73226443Y-54263534D01*
X73277963Y-54433373D01*
X73295359Y-54610000D01*
X73277963Y-54786627D01*
X73226443Y-54956466D01*
X73142778Y-55112991D01*
X73113448Y-55148729D01*
X73030186Y-55250186D01*
X72928729Y-55333448D01*
X72892991Y-55362778D01*
X72736466Y-55446443D01*
X72566627Y-55497963D01*
X72500442Y-55504482D01*
X72434260Y-55511000D01*
X72345740Y-55511000D01*
X72279558Y-55504482D01*
X72213373Y-55497963D01*
X72043534Y-55446443D01*
X71887009Y-55362778D01*
X71851271Y-55333448D01*
X71749814Y-55250186D01*
X71666552Y-55148729D01*
X71637222Y-55112991D01*
X71553557Y-54956466D01*
X71502037Y-54786627D01*
X71484641Y-54610000D01*
X71502037Y-54433373D01*
X71553557Y-54263534D01*
X71637222Y-54107009D01*
X71666552Y-54071271D01*
X71749814Y-53969814D01*
X71864947Y-53875328D01*
X71887009Y-53857222D01*
X72043534Y-53773557D01*
X72213373Y-53722037D01*
X72279558Y-53715518D01*
X72345740Y-53709000D01*
X72434260Y-53709000D01*
X72500442Y-53715518D01*
X72500442Y-53715518D01*
G37*
G36*
X75040442Y-53715518D02*
G01*
X75106627Y-53722037D01*
X75276466Y-53773557D01*
X75432991Y-53857222D01*
X75455053Y-53875328D01*
X75570186Y-53969814D01*
X75653448Y-54071271D01*
X75682778Y-54107009D01*
X75766443Y-54263534D01*
X75817963Y-54433373D01*
X75835359Y-54610000D01*
X75817963Y-54786627D01*
X75766443Y-54956466D01*
X75682778Y-55112991D01*
X75653448Y-55148729D01*
X75570186Y-55250186D01*
X75468729Y-55333448D01*
X75432991Y-55362778D01*
X75276466Y-55446443D01*
X75106627Y-55497963D01*
X75040442Y-55504482D01*
X74974260Y-55511000D01*
X74885740Y-55511000D01*
X74819558Y-55504482D01*
X74753373Y-55497963D01*
X74583534Y-55446443D01*
X74427009Y-55362778D01*
X74391271Y-55333448D01*
X74289814Y-55250186D01*
X74206552Y-55148729D01*
X74177222Y-55112991D01*
X74093557Y-54956466D01*
X74042037Y-54786627D01*
X74024641Y-54610000D01*
X74042037Y-54433373D01*
X74093557Y-54263534D01*
X74177222Y-54107009D01*
X74206552Y-54071271D01*
X74289814Y-53969814D01*
X74404947Y-53875328D01*
X74427009Y-53857222D01*
X74583534Y-53773557D01*
X74753373Y-53722037D01*
X74819558Y-53715518D01*
X74885740Y-53709000D01*
X74974260Y-53709000D01*
X75040442Y-53715518D01*
X75040442Y-53715518D01*
G37*
G36*
X77580442Y-53715518D02*
G01*
X77646627Y-53722037D01*
X77816466Y-53773557D01*
X77972991Y-53857222D01*
X77995053Y-53875328D01*
X78110186Y-53969814D01*
X78193448Y-54071271D01*
X78222778Y-54107009D01*
X78306443Y-54263534D01*
X78357963Y-54433373D01*
X78375359Y-54610000D01*
X78357963Y-54786627D01*
X78306443Y-54956466D01*
X78222778Y-55112991D01*
X78193448Y-55148729D01*
X78110186Y-55250186D01*
X78008729Y-55333448D01*
X77972991Y-55362778D01*
X77816466Y-55446443D01*
X77646627Y-55497963D01*
X77580442Y-55504482D01*
X77514260Y-55511000D01*
X77425740Y-55511000D01*
X77359558Y-55504482D01*
X77293373Y-55497963D01*
X77123534Y-55446443D01*
X76967009Y-55362778D01*
X76931271Y-55333448D01*
X76829814Y-55250186D01*
X76746552Y-55148729D01*
X76717222Y-55112991D01*
X76633557Y-54956466D01*
X76582037Y-54786627D01*
X76564641Y-54610000D01*
X76582037Y-54433373D01*
X76633557Y-54263534D01*
X76717222Y-54107009D01*
X76746552Y-54071271D01*
X76829814Y-53969814D01*
X76944947Y-53875328D01*
X76967009Y-53857222D01*
X77123534Y-53773557D01*
X77293373Y-53722037D01*
X77359558Y-53715518D01*
X77425740Y-53709000D01*
X77514260Y-53709000D01*
X77580442Y-53715518D01*
X77580442Y-53715518D01*
G37*
G36*
X82660442Y-53715518D02*
G01*
X82726627Y-53722037D01*
X82896466Y-53773557D01*
X83052991Y-53857222D01*
X83075053Y-53875328D01*
X83190186Y-53969814D01*
X83273448Y-54071271D01*
X83302778Y-54107009D01*
X83386443Y-54263534D01*
X83437963Y-54433373D01*
X83455359Y-54610000D01*
X83437963Y-54786627D01*
X83386443Y-54956466D01*
X83302778Y-55112991D01*
X83273448Y-55148729D01*
X83190186Y-55250186D01*
X83088729Y-55333448D01*
X83052991Y-55362778D01*
X82896466Y-55446443D01*
X82726627Y-55497963D01*
X82660442Y-55504482D01*
X82594260Y-55511000D01*
X82505740Y-55511000D01*
X82439558Y-55504482D01*
X82373373Y-55497963D01*
X82203534Y-55446443D01*
X82047009Y-55362778D01*
X82011271Y-55333448D01*
X81909814Y-55250186D01*
X81826552Y-55148729D01*
X81797222Y-55112991D01*
X81713557Y-54956466D01*
X81662037Y-54786627D01*
X81644641Y-54610000D01*
X81662037Y-54433373D01*
X81713557Y-54263534D01*
X81797222Y-54107009D01*
X81826552Y-54071271D01*
X81909814Y-53969814D01*
X82024947Y-53875328D01*
X82047009Y-53857222D01*
X82203534Y-53773557D01*
X82373373Y-53722037D01*
X82439558Y-53715518D01*
X82505740Y-53709000D01*
X82594260Y-53709000D01*
X82660442Y-53715518D01*
X82660442Y-53715518D01*
G37*
G36*
X85200442Y-53715518D02*
G01*
X85266627Y-53722037D01*
X85436466Y-53773557D01*
X85592991Y-53857222D01*
X85615053Y-53875328D01*
X85730186Y-53969814D01*
X85813448Y-54071271D01*
X85842778Y-54107009D01*
X85926443Y-54263534D01*
X85977963Y-54433373D01*
X85995359Y-54610000D01*
X85977963Y-54786627D01*
X85926443Y-54956466D01*
X85842778Y-55112991D01*
X85813448Y-55148729D01*
X85730186Y-55250186D01*
X85628729Y-55333448D01*
X85592991Y-55362778D01*
X85436466Y-55446443D01*
X85266627Y-55497963D01*
X85200442Y-55504482D01*
X85134260Y-55511000D01*
X85045740Y-55511000D01*
X84979558Y-55504482D01*
X84913373Y-55497963D01*
X84743534Y-55446443D01*
X84587009Y-55362778D01*
X84551271Y-55333448D01*
X84449814Y-55250186D01*
X84366552Y-55148729D01*
X84337222Y-55112991D01*
X84253557Y-54956466D01*
X84202037Y-54786627D01*
X84184641Y-54610000D01*
X84202037Y-54433373D01*
X84253557Y-54263534D01*
X84337222Y-54107009D01*
X84366552Y-54071271D01*
X84449814Y-53969814D01*
X84564947Y-53875328D01*
X84587009Y-53857222D01*
X84743534Y-53773557D01*
X84913373Y-53722037D01*
X84979558Y-53715518D01*
X85045740Y-53709000D01*
X85134260Y-53709000D01*
X85200442Y-53715518D01*
X85200442Y-53715518D01*
G37*
G36*
X87740442Y-53715518D02*
G01*
X87806627Y-53722037D01*
X87976466Y-53773557D01*
X88132991Y-53857222D01*
X88155053Y-53875328D01*
X88270186Y-53969814D01*
X88353448Y-54071271D01*
X88382778Y-54107009D01*
X88466443Y-54263534D01*
X88517963Y-54433373D01*
X88535359Y-54610000D01*
X88517963Y-54786627D01*
X88466443Y-54956466D01*
X88382778Y-55112991D01*
X88353448Y-55148729D01*
X88270186Y-55250186D01*
X88168729Y-55333448D01*
X88132991Y-55362778D01*
X87976466Y-55446443D01*
X87806627Y-55497963D01*
X87740442Y-55504482D01*
X87674260Y-55511000D01*
X87585740Y-55511000D01*
X87519558Y-55504482D01*
X87453373Y-55497963D01*
X87283534Y-55446443D01*
X87127009Y-55362778D01*
X87091271Y-55333448D01*
X86989814Y-55250186D01*
X86906552Y-55148729D01*
X86877222Y-55112991D01*
X86793557Y-54956466D01*
X86742037Y-54786627D01*
X86724641Y-54610000D01*
X86742037Y-54433373D01*
X86793557Y-54263534D01*
X86877222Y-54107009D01*
X86906552Y-54071271D01*
X86989814Y-53969814D01*
X87104947Y-53875328D01*
X87127009Y-53857222D01*
X87283534Y-53773557D01*
X87453373Y-53722037D01*
X87519558Y-53715518D01*
X87585740Y-53709000D01*
X87674260Y-53709000D01*
X87740442Y-53715518D01*
X87740442Y-53715518D01*
G37*
G36*
X92820442Y-53715518D02*
G01*
X92886627Y-53722037D01*
X93056466Y-53773557D01*
X93212991Y-53857222D01*
X93235053Y-53875328D01*
X93350186Y-53969814D01*
X93433448Y-54071271D01*
X93462778Y-54107009D01*
X93546443Y-54263534D01*
X93597963Y-54433373D01*
X93615359Y-54610000D01*
X93597963Y-54786627D01*
X93546443Y-54956466D01*
X93462778Y-55112991D01*
X93433448Y-55148729D01*
X93350186Y-55250186D01*
X93248729Y-55333448D01*
X93212991Y-55362778D01*
X93056466Y-55446443D01*
X92886627Y-55497963D01*
X92820442Y-55504482D01*
X92754260Y-55511000D01*
X92665740Y-55511000D01*
X92599558Y-55504482D01*
X92533373Y-55497963D01*
X92363534Y-55446443D01*
X92207009Y-55362778D01*
X92171271Y-55333448D01*
X92069814Y-55250186D01*
X91986552Y-55148729D01*
X91957222Y-55112991D01*
X91873557Y-54956466D01*
X91822037Y-54786627D01*
X91804641Y-54610000D01*
X91822037Y-54433373D01*
X91873557Y-54263534D01*
X91957222Y-54107009D01*
X91986552Y-54071271D01*
X92069814Y-53969814D01*
X92184947Y-53875328D01*
X92207009Y-53857222D01*
X92363534Y-53773557D01*
X92533373Y-53722037D01*
X92599558Y-53715518D01*
X92665740Y-53709000D01*
X92754260Y-53709000D01*
X92820442Y-53715518D01*
X92820442Y-53715518D01*
G37*
G36*
X80120442Y-53715518D02*
G01*
X80186627Y-53722037D01*
X80356466Y-53773557D01*
X80512991Y-53857222D01*
X80535053Y-53875328D01*
X80650186Y-53969814D01*
X80733448Y-54071271D01*
X80762778Y-54107009D01*
X80846443Y-54263534D01*
X80897963Y-54433373D01*
X80915359Y-54610000D01*
X80897963Y-54786627D01*
X80846443Y-54956466D01*
X80762778Y-55112991D01*
X80733448Y-55148729D01*
X80650186Y-55250186D01*
X80548729Y-55333448D01*
X80512991Y-55362778D01*
X80356466Y-55446443D01*
X80186627Y-55497963D01*
X80120442Y-55504482D01*
X80054260Y-55511000D01*
X79965740Y-55511000D01*
X79899558Y-55504482D01*
X79833373Y-55497963D01*
X79663534Y-55446443D01*
X79507009Y-55362778D01*
X79471271Y-55333448D01*
X79369814Y-55250186D01*
X79286552Y-55148729D01*
X79257222Y-55112991D01*
X79173557Y-54956466D01*
X79122037Y-54786627D01*
X79104641Y-54610000D01*
X79122037Y-54433373D01*
X79173557Y-54263534D01*
X79257222Y-54107009D01*
X79286552Y-54071271D01*
X79369814Y-53969814D01*
X79484947Y-53875328D01*
X79507009Y-53857222D01*
X79663534Y-53773557D01*
X79833373Y-53722037D01*
X79899558Y-53715518D01*
X79965740Y-53709000D01*
X80054260Y-53709000D01*
X80120442Y-53715518D01*
X80120442Y-53715518D01*
G37*
G36*
X124570443Y-52445519D02*
G01*
X124636627Y-52452037D01*
X124806466Y-52503557D01*
X124962991Y-52587222D01*
X124993768Y-52612480D01*
X125100186Y-52699814D01*
X125183448Y-52801271D01*
X125212778Y-52837009D01*
X125296443Y-52993534D01*
X125347963Y-53163373D01*
X125365359Y-53340000D01*
X125347963Y-53516627D01*
X125296443Y-53686466D01*
X125212778Y-53842991D01*
X125183448Y-53878729D01*
X125100186Y-53980186D01*
X124998729Y-54063448D01*
X124962991Y-54092778D01*
X124806466Y-54176443D01*
X124636627Y-54227963D01*
X124570442Y-54234482D01*
X124504260Y-54241000D01*
X124415740Y-54241000D01*
X124349558Y-54234482D01*
X124283373Y-54227963D01*
X124113534Y-54176443D01*
X123957009Y-54092778D01*
X123921271Y-54063448D01*
X123819814Y-53980186D01*
X123736552Y-53878729D01*
X123707222Y-53842991D01*
X123623557Y-53686466D01*
X123572037Y-53516627D01*
X123554641Y-53340000D01*
X123572037Y-53163373D01*
X123623557Y-52993534D01*
X123707222Y-52837009D01*
X123736552Y-52801271D01*
X123819814Y-52699814D01*
X123926232Y-52612480D01*
X123957009Y-52587222D01*
X124113534Y-52503557D01*
X124283373Y-52452037D01*
X124349558Y-52445518D01*
X124415740Y-52439000D01*
X124504260Y-52439000D01*
X124570443Y-52445519D01*
X124570443Y-52445519D01*
G37*
G36*
X132190443Y-52445519D02*
G01*
X132256627Y-52452037D01*
X132426466Y-52503557D01*
X132582991Y-52587222D01*
X132613768Y-52612480D01*
X132720186Y-52699814D01*
X132803448Y-52801271D01*
X132832778Y-52837009D01*
X132916443Y-52993534D01*
X132967963Y-53163373D01*
X132985359Y-53340000D01*
X132967963Y-53516627D01*
X132916443Y-53686466D01*
X132832778Y-53842991D01*
X132803448Y-53878729D01*
X132720186Y-53980186D01*
X132618729Y-54063448D01*
X132582991Y-54092778D01*
X132426466Y-54176443D01*
X132256627Y-54227963D01*
X132190442Y-54234482D01*
X132124260Y-54241000D01*
X132035740Y-54241000D01*
X131969558Y-54234482D01*
X131903373Y-54227963D01*
X131733534Y-54176443D01*
X131577009Y-54092778D01*
X131541271Y-54063448D01*
X131439814Y-53980186D01*
X131356552Y-53878729D01*
X131327222Y-53842991D01*
X131243557Y-53686466D01*
X131192037Y-53516627D01*
X131174641Y-53340000D01*
X131192037Y-53163373D01*
X131243557Y-52993534D01*
X131327222Y-52837009D01*
X131356552Y-52801271D01*
X131439814Y-52699814D01*
X131546232Y-52612480D01*
X131577009Y-52587222D01*
X131733534Y-52503557D01*
X131903373Y-52452037D01*
X131969558Y-52445518D01*
X132035740Y-52439000D01*
X132124260Y-52439000D01*
X132190443Y-52445519D01*
X132190443Y-52445519D01*
G37*
G36*
X114468228Y-51251703D02*
G01*
X114623100Y-51315853D01*
X114762481Y-51408985D01*
X114881015Y-51527519D01*
X114974147Y-51666900D01*
X115038297Y-51821772D01*
X115071000Y-51986184D01*
X115071000Y-52153816D01*
X115038297Y-52318228D01*
X114974147Y-52473100D01*
X114881015Y-52612481D01*
X114762481Y-52731015D01*
X114623100Y-52824147D01*
X114468228Y-52888297D01*
X114303816Y-52921000D01*
X114136184Y-52921000D01*
X113971772Y-52888297D01*
X113816900Y-52824147D01*
X113677519Y-52731015D01*
X113558985Y-52612481D01*
X113465853Y-52473100D01*
X113401703Y-52318228D01*
X113369000Y-52153816D01*
X113369000Y-51986184D01*
X113401703Y-51821772D01*
X113465853Y-51666900D01*
X113558985Y-51527519D01*
X113677519Y-51408985D01*
X113816900Y-51315853D01*
X113971772Y-51251703D01*
X114136184Y-51219000D01*
X114303816Y-51219000D01*
X114468228Y-51251703D01*
X114468228Y-51251703D01*
G37*
G36*
X109468228Y-51251703D02*
G01*
X109623100Y-51315853D01*
X109762481Y-51408985D01*
X109881015Y-51527519D01*
X109974147Y-51666900D01*
X110038297Y-51821772D01*
X110071000Y-51986184D01*
X110071000Y-52153816D01*
X110038297Y-52318228D01*
X109974147Y-52473100D01*
X109881015Y-52612481D01*
X109762481Y-52731015D01*
X109623100Y-52824147D01*
X109468228Y-52888297D01*
X109303816Y-52921000D01*
X109136184Y-52921000D01*
X108971772Y-52888297D01*
X108816900Y-52824147D01*
X108677519Y-52731015D01*
X108558985Y-52612481D01*
X108465853Y-52473100D01*
X108401703Y-52318228D01*
X108369000Y-52153816D01*
X108369000Y-51986184D01*
X108401703Y-51821772D01*
X108465853Y-51666900D01*
X108558985Y-51527519D01*
X108677519Y-51408985D01*
X108816900Y-51315853D01*
X108971772Y-51251703D01*
X109136184Y-51219000D01*
X109303816Y-51219000D01*
X109468228Y-51251703D01*
X109468228Y-51251703D01*
G37*
G36*
X105578228Y-51251703D02*
G01*
X105733100Y-51315853D01*
X105872481Y-51408985D01*
X105991015Y-51527519D01*
X106084147Y-51666900D01*
X106148297Y-51821772D01*
X106181000Y-51986184D01*
X106181000Y-52153816D01*
X106148297Y-52318228D01*
X106084147Y-52473100D01*
X105991015Y-52612481D01*
X105872481Y-52731015D01*
X105733100Y-52824147D01*
X105578228Y-52888297D01*
X105413816Y-52921000D01*
X105246184Y-52921000D01*
X105081772Y-52888297D01*
X104926900Y-52824147D01*
X104787519Y-52731015D01*
X104668985Y-52612481D01*
X104575853Y-52473100D01*
X104511703Y-52318228D01*
X104479000Y-52153816D01*
X104479000Y-51986184D01*
X104511703Y-51821772D01*
X104575853Y-51666900D01*
X104668985Y-51527519D01*
X104787519Y-51408985D01*
X104926900Y-51315853D01*
X105081772Y-51251703D01*
X105246184Y-51219000D01*
X105413816Y-51219000D01*
X105578228Y-51251703D01*
X105578228Y-51251703D01*
G37*
G36*
X100578228Y-51251703D02*
G01*
X100733100Y-51315853D01*
X100872481Y-51408985D01*
X100991015Y-51527519D01*
X101084147Y-51666900D01*
X101148297Y-51821772D01*
X101181000Y-51986184D01*
X101181000Y-52153816D01*
X101148297Y-52318228D01*
X101084147Y-52473100D01*
X100991015Y-52612481D01*
X100872481Y-52731015D01*
X100733100Y-52824147D01*
X100578228Y-52888297D01*
X100413816Y-52921000D01*
X100246184Y-52921000D01*
X100081772Y-52888297D01*
X99926900Y-52824147D01*
X99787519Y-52731015D01*
X99668985Y-52612481D01*
X99575853Y-52473100D01*
X99511703Y-52318228D01*
X99479000Y-52153816D01*
X99479000Y-51986184D01*
X99511703Y-51821772D01*
X99575853Y-51666900D01*
X99668985Y-51527519D01*
X99787519Y-51408985D01*
X99926900Y-51315853D01*
X100081772Y-51251703D01*
X100246184Y-51219000D01*
X100413816Y-51219000D01*
X100578228Y-51251703D01*
X100578228Y-51251703D01*
G37*
G36*
X124570442Y-49905518D02*
G01*
X124636627Y-49912037D01*
X124806466Y-49963557D01*
X124962991Y-50047222D01*
X124998729Y-50076552D01*
X125100186Y-50159814D01*
X125183448Y-50261271D01*
X125212778Y-50297009D01*
X125296443Y-50453534D01*
X125347963Y-50623373D01*
X125365359Y-50800000D01*
X125347963Y-50976627D01*
X125296443Y-51146466D01*
X125212778Y-51302991D01*
X125202223Y-51315852D01*
X125100186Y-51440186D01*
X124998729Y-51523448D01*
X124962991Y-51552778D01*
X124806466Y-51636443D01*
X124636627Y-51687963D01*
X124570442Y-51694482D01*
X124504260Y-51701000D01*
X124415740Y-51701000D01*
X124349558Y-51694482D01*
X124283373Y-51687963D01*
X124113534Y-51636443D01*
X123957009Y-51552778D01*
X123921271Y-51523448D01*
X123819814Y-51440186D01*
X123717777Y-51315852D01*
X123707222Y-51302991D01*
X123623557Y-51146466D01*
X123572037Y-50976627D01*
X123554641Y-50800000D01*
X123572037Y-50623373D01*
X123623557Y-50453534D01*
X123707222Y-50297009D01*
X123736552Y-50261271D01*
X123819814Y-50159814D01*
X123921271Y-50076552D01*
X123957009Y-50047222D01*
X124113534Y-49963557D01*
X124283373Y-49912037D01*
X124349557Y-49905519D01*
X124415740Y-49899000D01*
X124504260Y-49899000D01*
X124570442Y-49905518D01*
X124570442Y-49905518D01*
G37*
G36*
X132190442Y-49905518D02*
G01*
X132256627Y-49912037D01*
X132426466Y-49963557D01*
X132582991Y-50047222D01*
X132618729Y-50076552D01*
X132720186Y-50159814D01*
X132803448Y-50261271D01*
X132832778Y-50297009D01*
X132916443Y-50453534D01*
X132967963Y-50623373D01*
X132985359Y-50800000D01*
X132967963Y-50976627D01*
X132916443Y-51146466D01*
X132832778Y-51302991D01*
X132822223Y-51315852D01*
X132720186Y-51440186D01*
X132618729Y-51523448D01*
X132582991Y-51552778D01*
X132426466Y-51636443D01*
X132256627Y-51687963D01*
X132190442Y-51694482D01*
X132124260Y-51701000D01*
X132035740Y-51701000D01*
X131969558Y-51694482D01*
X131903373Y-51687963D01*
X131733534Y-51636443D01*
X131577009Y-51552778D01*
X131541271Y-51523448D01*
X131439814Y-51440186D01*
X131337777Y-51315852D01*
X131327222Y-51302991D01*
X131243557Y-51146466D01*
X131192037Y-50976627D01*
X131174641Y-50800000D01*
X131192037Y-50623373D01*
X131243557Y-50453534D01*
X131327222Y-50297009D01*
X131356552Y-50261271D01*
X131439814Y-50159814D01*
X131541271Y-50076552D01*
X131577009Y-50047222D01*
X131733534Y-49963557D01*
X131903373Y-49912037D01*
X131969557Y-49905519D01*
X132035740Y-49899000D01*
X132124260Y-49899000D01*
X132190442Y-49905518D01*
X132190442Y-49905518D01*
G37*
G36*
X41712585Y-48008802D02*
G01*
X41862410Y-48038604D01*
X42144674Y-48155521D01*
X42398705Y-48325259D01*
X42614741Y-48541295D01*
X42784479Y-48795326D01*
X42901396Y-49077590D01*
X42961000Y-49377240D01*
X42961000Y-49682760D01*
X42901396Y-49982410D01*
X42784479Y-50264674D01*
X42614741Y-50518705D01*
X42398705Y-50734741D01*
X42144674Y-50904479D01*
X41862410Y-51021396D01*
X41712585Y-51051198D01*
X41562761Y-51081000D01*
X41257239Y-51081000D01*
X41107415Y-51051198D01*
X40957590Y-51021396D01*
X40675326Y-50904479D01*
X40421295Y-50734741D01*
X40205259Y-50518705D01*
X40035521Y-50264674D01*
X39918604Y-49982410D01*
X39859000Y-49682760D01*
X39859000Y-49377240D01*
X39918604Y-49077590D01*
X40035521Y-48795326D01*
X40205259Y-48541295D01*
X40421295Y-48325259D01*
X40675326Y-48155521D01*
X40957590Y-48038604D01*
X41107415Y-48008802D01*
X41257239Y-47979000D01*
X41562761Y-47979000D01*
X41712585Y-48008802D01*
X41712585Y-48008802D01*
G37*
G36*
X132190443Y-47365519D02*
G01*
X132256627Y-47372037D01*
X132426466Y-47423557D01*
X132582991Y-47507222D01*
X132618729Y-47536552D01*
X132720186Y-47619814D01*
X132785858Y-47699837D01*
X132832778Y-47757009D01*
X132916443Y-47913534D01*
X132967963Y-48083373D01*
X132985359Y-48260000D01*
X132967963Y-48436627D01*
X132916443Y-48606466D01*
X132832778Y-48762991D01*
X132803448Y-48798729D01*
X132720186Y-48900186D01*
X132618729Y-48983448D01*
X132582991Y-49012778D01*
X132426466Y-49096443D01*
X132256627Y-49147963D01*
X132190443Y-49154481D01*
X132124260Y-49161000D01*
X132035740Y-49161000D01*
X131969557Y-49154481D01*
X131903373Y-49147963D01*
X131733534Y-49096443D01*
X131577009Y-49012778D01*
X131541271Y-48983448D01*
X131439814Y-48900186D01*
X131356552Y-48798729D01*
X131327222Y-48762991D01*
X131243557Y-48606466D01*
X131192037Y-48436627D01*
X131174641Y-48260000D01*
X131192037Y-48083373D01*
X131243557Y-47913534D01*
X131327222Y-47757009D01*
X131374142Y-47699837D01*
X131439814Y-47619814D01*
X131541271Y-47536552D01*
X131577009Y-47507222D01*
X131733534Y-47423557D01*
X131903373Y-47372037D01*
X131969557Y-47365519D01*
X132035740Y-47359000D01*
X132124260Y-47359000D01*
X132190443Y-47365519D01*
X132190443Y-47365519D01*
G37*
G36*
X124570443Y-47365519D02*
G01*
X124636627Y-47372037D01*
X124806466Y-47423557D01*
X124962991Y-47507222D01*
X124998729Y-47536552D01*
X125100186Y-47619814D01*
X125165858Y-47699837D01*
X125212778Y-47757009D01*
X125296443Y-47913534D01*
X125347963Y-48083373D01*
X125365359Y-48260000D01*
X125347963Y-48436627D01*
X125296443Y-48606466D01*
X125212778Y-48762991D01*
X125183448Y-48798729D01*
X125100186Y-48900186D01*
X124998729Y-48983448D01*
X124962991Y-49012778D01*
X124806466Y-49096443D01*
X124636627Y-49147963D01*
X124570443Y-49154481D01*
X124504260Y-49161000D01*
X124415740Y-49161000D01*
X124349557Y-49154481D01*
X124283373Y-49147963D01*
X124113534Y-49096443D01*
X123957009Y-49012778D01*
X123921271Y-48983448D01*
X123819814Y-48900186D01*
X123736552Y-48798729D01*
X123707222Y-48762991D01*
X123623557Y-48606466D01*
X123572037Y-48436627D01*
X123554641Y-48260000D01*
X123572037Y-48083373D01*
X123623557Y-47913534D01*
X123707222Y-47757009D01*
X123754142Y-47699837D01*
X123819814Y-47619814D01*
X123921271Y-47536552D01*
X123957009Y-47507222D01*
X124113534Y-47423557D01*
X124283373Y-47372037D01*
X124349557Y-47365519D01*
X124415740Y-47359000D01*
X124504260Y-47359000D01*
X124570443Y-47365519D01*
X124570443Y-47365519D01*
G37*
G36*
X104573642Y-46219781D02*
G01*
X104676728Y-46262481D01*
X104719416Y-46280163D01*
X104850608Y-46367822D01*
X104962178Y-46479392D01*
X105023388Y-46571000D01*
X105049838Y-46610586D01*
X105110219Y-46756358D01*
X105141000Y-46911107D01*
X105141000Y-47068893D01*
X105110219Y-47223642D01*
X105049838Y-47369414D01*
X105049837Y-47369416D01*
X104962178Y-47500608D01*
X104850608Y-47612178D01*
X104719416Y-47699837D01*
X104719415Y-47699838D01*
X104719414Y-47699838D01*
X104573642Y-47760219D01*
X104418893Y-47791000D01*
X104261107Y-47791000D01*
X104106358Y-47760219D01*
X103960586Y-47699838D01*
X103960585Y-47699838D01*
X103960584Y-47699837D01*
X103829392Y-47612178D01*
X103717822Y-47500608D01*
X103630163Y-47369416D01*
X103630162Y-47369414D01*
X103569781Y-47223642D01*
X103539000Y-47068893D01*
X103539000Y-46911107D01*
X103569781Y-46756358D01*
X103630162Y-46610586D01*
X103656612Y-46571000D01*
X103717822Y-46479392D01*
X103829392Y-46367822D01*
X103960584Y-46280163D01*
X104003272Y-46262481D01*
X104106358Y-46219781D01*
X104261107Y-46189000D01*
X104418893Y-46189000D01*
X104573642Y-46219781D01*
X104573642Y-46219781D01*
G37*
G36*
X109453642Y-46219781D02*
G01*
X109556728Y-46262481D01*
X109599416Y-46280163D01*
X109730608Y-46367822D01*
X109842178Y-46479392D01*
X109903388Y-46571000D01*
X109929838Y-46610586D01*
X109990219Y-46756358D01*
X110021000Y-46911107D01*
X110021000Y-47068893D01*
X109990219Y-47223642D01*
X109929838Y-47369414D01*
X109929837Y-47369416D01*
X109842178Y-47500608D01*
X109730608Y-47612178D01*
X109599416Y-47699837D01*
X109599415Y-47699838D01*
X109599414Y-47699838D01*
X109453642Y-47760219D01*
X109298893Y-47791000D01*
X109141107Y-47791000D01*
X108986358Y-47760219D01*
X108840586Y-47699838D01*
X108840585Y-47699838D01*
X108840584Y-47699837D01*
X108709392Y-47612178D01*
X108597822Y-47500608D01*
X108510163Y-47369416D01*
X108510162Y-47369414D01*
X108449781Y-47223642D01*
X108419000Y-47068893D01*
X108419000Y-46911107D01*
X108449781Y-46756358D01*
X108510162Y-46610586D01*
X108536612Y-46571000D01*
X108597822Y-46479392D01*
X108709392Y-46367822D01*
X108840584Y-46280163D01*
X108883272Y-46262481D01*
X108986358Y-46219781D01*
X109141107Y-46189000D01*
X109298893Y-46189000D01*
X109453642Y-46219781D01*
X109453642Y-46219781D01*
G37*
G36*
X47566564Y-44709389D02*
G01*
X47757833Y-44788615D01*
X47757835Y-44788616D01*
X47878138Y-44869000D01*
X47929973Y-44903635D01*
X48076365Y-45050027D01*
X48191385Y-45222167D01*
X48270611Y-45413436D01*
X48311000Y-45616484D01*
X48311000Y-45823516D01*
X48270611Y-46026564D01*
X48203328Y-46189000D01*
X48191384Y-46217835D01*
X48076365Y-46389973D01*
X47929973Y-46536365D01*
X47757835Y-46651384D01*
X47757834Y-46651385D01*
X47757833Y-46651385D01*
X47566564Y-46730611D01*
X47363516Y-46771000D01*
X47156484Y-46771000D01*
X46953436Y-46730611D01*
X46762167Y-46651385D01*
X46762166Y-46651385D01*
X46762165Y-46651384D01*
X46590027Y-46536365D01*
X46443635Y-46389973D01*
X46328616Y-46217835D01*
X46316672Y-46189000D01*
X46249389Y-46026564D01*
X46209000Y-45823516D01*
X46209000Y-45616484D01*
X46249389Y-45413436D01*
X46328615Y-45222167D01*
X46443635Y-45050027D01*
X46590027Y-44903635D01*
X46641862Y-44869000D01*
X46762165Y-44788616D01*
X46762167Y-44788615D01*
X46953436Y-44709389D01*
X47156484Y-44669000D01*
X47363516Y-44669000D01*
X47566564Y-44709389D01*
X47566564Y-44709389D01*
G37*
G36*
X52066564Y-44709389D02*
G01*
X52257833Y-44788615D01*
X52257835Y-44788616D01*
X52378138Y-44869000D01*
X52429973Y-44903635D01*
X52576365Y-45050027D01*
X52691385Y-45222167D01*
X52770611Y-45413436D01*
X52811000Y-45616484D01*
X52811000Y-45823516D01*
X52770611Y-46026564D01*
X52703328Y-46189000D01*
X52691384Y-46217835D01*
X52576365Y-46389973D01*
X52429973Y-46536365D01*
X52257835Y-46651384D01*
X52257834Y-46651385D01*
X52257833Y-46651385D01*
X52066564Y-46730611D01*
X51863516Y-46771000D01*
X51656484Y-46771000D01*
X51453436Y-46730611D01*
X51262167Y-46651385D01*
X51262166Y-46651385D01*
X51262165Y-46651384D01*
X51090027Y-46536365D01*
X50943635Y-46389973D01*
X50828616Y-46217835D01*
X50816672Y-46189000D01*
X50749389Y-46026564D01*
X50709000Y-45823516D01*
X50709000Y-45616484D01*
X50749389Y-45413436D01*
X50828615Y-45222167D01*
X50943635Y-45050027D01*
X51090027Y-44903635D01*
X51141862Y-44869000D01*
X51262165Y-44788616D01*
X51262167Y-44788615D01*
X51453436Y-44709389D01*
X51656484Y-44669000D01*
X51863516Y-44669000D01*
X52066564Y-44709389D01*
X52066564Y-44709389D01*
G37*
G36*
X132981000Y-46621000D02*
G01*
X131179000Y-46621000D01*
X131179000Y-44819000D01*
X132981000Y-44819000D01*
X132981000Y-46621000D01*
X132981000Y-46621000D01*
G37*
G36*
X76101000Y-46621000D02*
G01*
X74299000Y-46621000D01*
X74299000Y-44819000D01*
X76101000Y-44819000D01*
X76101000Y-46621000D01*
X76101000Y-46621000D01*
G37*
G36*
X72291000Y-46621000D02*
G01*
X70489000Y-46621000D01*
X70489000Y-44819000D01*
X72291000Y-44819000D01*
X72291000Y-46621000D01*
X72291000Y-46621000D01*
G37*
G36*
X125361000Y-46621000D02*
G01*
X123559000Y-46621000D01*
X123559000Y-44819000D01*
X125361000Y-44819000D01*
X125361000Y-46621000D01*
X125361000Y-46621000D01*
G37*
G36*
X99308228Y-44901703D02*
G01*
X99463100Y-44965853D01*
X99602481Y-45058985D01*
X99721015Y-45177519D01*
X99814147Y-45316900D01*
X99878297Y-45471772D01*
X99911000Y-45636184D01*
X99911000Y-45803816D01*
X99878297Y-45968228D01*
X99814147Y-46123100D01*
X99721015Y-46262481D01*
X99602481Y-46381015D01*
X99463100Y-46474147D01*
X99308228Y-46538297D01*
X99143816Y-46571000D01*
X98976184Y-46571000D01*
X98811772Y-46538297D01*
X98656900Y-46474147D01*
X98517519Y-46381015D01*
X98398985Y-46262481D01*
X98305853Y-46123100D01*
X98241703Y-45968228D01*
X98209000Y-45803816D01*
X98209000Y-45636184D01*
X98241703Y-45471772D01*
X98305853Y-45316900D01*
X98398985Y-45177519D01*
X98517519Y-45058985D01*
X98656900Y-44965853D01*
X98811772Y-44901703D01*
X98976184Y-44869000D01*
X99143816Y-44869000D01*
X99308228Y-44901703D01*
X99308228Y-44901703D01*
G37*
G36*
X94308228Y-44901703D02*
G01*
X94463100Y-44965853D01*
X94602481Y-45058985D01*
X94721015Y-45177519D01*
X94814147Y-45316900D01*
X94878297Y-45471772D01*
X94911000Y-45636184D01*
X94911000Y-45803816D01*
X94878297Y-45968228D01*
X94814147Y-46123100D01*
X94721015Y-46262481D01*
X94602481Y-46381015D01*
X94463100Y-46474147D01*
X94308228Y-46538297D01*
X94143816Y-46571000D01*
X93976184Y-46571000D01*
X93811772Y-46538297D01*
X93656900Y-46474147D01*
X93517519Y-46381015D01*
X93398985Y-46262481D01*
X93305853Y-46123100D01*
X93241703Y-45968228D01*
X93209000Y-45803816D01*
X93209000Y-45636184D01*
X93241703Y-45471772D01*
X93305853Y-45316900D01*
X93398985Y-45177519D01*
X93517519Y-45058985D01*
X93656900Y-44965853D01*
X93811772Y-44901703D01*
X93976184Y-44869000D01*
X94143816Y-44869000D01*
X94308228Y-44901703D01*
X94308228Y-44901703D01*
G37*
G36*
X75310442Y-42285518D02*
G01*
X75376627Y-42292037D01*
X75546466Y-42343557D01*
X75702991Y-42427222D01*
X75738729Y-42456552D01*
X75840186Y-42539814D01*
X75893968Y-42605349D01*
X75952778Y-42677009D01*
X76036443Y-42833534D01*
X76087963Y-43003373D01*
X76105359Y-43180000D01*
X76087963Y-43356627D01*
X76036443Y-43526466D01*
X75952778Y-43682991D01*
X75923448Y-43718729D01*
X75840186Y-43820186D01*
X75738729Y-43903448D01*
X75702991Y-43932778D01*
X75546466Y-44016443D01*
X75376627Y-44067963D01*
X75310443Y-44074481D01*
X75244260Y-44081000D01*
X75155740Y-44081000D01*
X75089557Y-44074481D01*
X75023373Y-44067963D01*
X74853534Y-44016443D01*
X74697009Y-43932778D01*
X74661271Y-43903448D01*
X74559814Y-43820186D01*
X74476552Y-43718729D01*
X74447222Y-43682991D01*
X74363557Y-43526466D01*
X74312037Y-43356627D01*
X74294641Y-43180000D01*
X74312037Y-43003373D01*
X74363557Y-42833534D01*
X74447222Y-42677009D01*
X74506032Y-42605349D01*
X74559814Y-42539814D01*
X74661271Y-42456552D01*
X74697009Y-42427222D01*
X74853534Y-42343557D01*
X75023373Y-42292037D01*
X75089558Y-42285518D01*
X75155740Y-42279000D01*
X75244260Y-42279000D01*
X75310442Y-42285518D01*
X75310442Y-42285518D01*
G37*
G36*
X71500442Y-42285518D02*
G01*
X71566627Y-42292037D01*
X71736466Y-42343557D01*
X71892991Y-42427222D01*
X71928729Y-42456552D01*
X72030186Y-42539814D01*
X72083968Y-42605349D01*
X72142778Y-42677009D01*
X72226443Y-42833534D01*
X72277963Y-43003373D01*
X72295359Y-43180000D01*
X72277963Y-43356627D01*
X72226443Y-43526466D01*
X72142778Y-43682991D01*
X72113448Y-43718729D01*
X72030186Y-43820186D01*
X71928729Y-43903448D01*
X71892991Y-43932778D01*
X71736466Y-44016443D01*
X71566627Y-44067963D01*
X71500443Y-44074481D01*
X71434260Y-44081000D01*
X71345740Y-44081000D01*
X71279557Y-44074481D01*
X71213373Y-44067963D01*
X71043534Y-44016443D01*
X70887009Y-43932778D01*
X70851271Y-43903448D01*
X70749814Y-43820186D01*
X70666552Y-43718729D01*
X70637222Y-43682991D01*
X70553557Y-43526466D01*
X70502037Y-43356627D01*
X70484641Y-43180000D01*
X70502037Y-43003373D01*
X70553557Y-42833534D01*
X70637222Y-42677009D01*
X70696032Y-42605349D01*
X70749814Y-42539814D01*
X70851271Y-42456552D01*
X70887009Y-42427222D01*
X71043534Y-42343557D01*
X71213373Y-42292037D01*
X71279558Y-42285518D01*
X71345740Y-42279000D01*
X71434260Y-42279000D01*
X71500442Y-42285518D01*
X71500442Y-42285518D01*
G37*
G36*
X103009458Y-40548493D02*
G01*
X103143557Y-40589172D01*
X103267144Y-40655231D01*
X103375469Y-40744130D01*
X103464369Y-40852455D01*
X103530428Y-40976042D01*
X103571107Y-41110141D01*
X103581400Y-41214651D01*
X103581400Y-42605349D01*
X103571107Y-42709859D01*
X103530428Y-42843958D01*
X103464369Y-42967545D01*
X103375470Y-43075870D01*
X103267145Y-43164769D01*
X103143558Y-43230828D01*
X103009459Y-43271507D01*
X102870000Y-43285242D01*
X102730542Y-43271507D01*
X102596443Y-43230828D01*
X102472856Y-43164769D01*
X102364531Y-43075870D01*
X102275632Y-42967545D01*
X102209573Y-42843958D01*
X102168894Y-42709859D01*
X102158601Y-42605349D01*
X102158600Y-41214652D01*
X102168893Y-41110142D01*
X102209572Y-40976043D01*
X102275631Y-40852456D01*
X102364530Y-40744131D01*
X102472855Y-40655231D01*
X102596442Y-40589172D01*
X102730541Y-40548493D01*
X102870000Y-40534758D01*
X103009458Y-40548493D01*
X103009458Y-40548493D01*
G37*
G36*
X113169458Y-40548493D02*
G01*
X113303557Y-40589172D01*
X113427144Y-40655231D01*
X113535469Y-40744130D01*
X113624369Y-40852455D01*
X113690428Y-40976042D01*
X113731107Y-41110141D01*
X113741400Y-41214651D01*
X113741400Y-42605349D01*
X113731107Y-42709859D01*
X113690428Y-42843958D01*
X113624369Y-42967545D01*
X113535470Y-43075870D01*
X113427145Y-43164769D01*
X113303558Y-43230828D01*
X113169459Y-43271507D01*
X113030000Y-43285242D01*
X112890542Y-43271507D01*
X112756443Y-43230828D01*
X112632856Y-43164769D01*
X112524531Y-43075870D01*
X112435632Y-42967545D01*
X112369573Y-42843958D01*
X112328894Y-42709859D01*
X112318601Y-42605349D01*
X112318600Y-41214652D01*
X112328893Y-41110142D01*
X112369572Y-40976043D01*
X112435631Y-40852456D01*
X112524530Y-40744131D01*
X112632855Y-40655231D01*
X112756442Y-40589172D01*
X112890541Y-40548493D01*
X113030000Y-40534758D01*
X113169458Y-40548493D01*
X113169458Y-40548493D01*
G37*
G36*
X110629458Y-40548493D02*
G01*
X110763557Y-40589172D01*
X110887144Y-40655231D01*
X110995469Y-40744130D01*
X111084369Y-40852455D01*
X111150428Y-40976042D01*
X111191107Y-41110141D01*
X111201400Y-41214651D01*
X111201400Y-42605349D01*
X111191107Y-42709859D01*
X111150428Y-42843958D01*
X111084369Y-42967545D01*
X110995470Y-43075870D01*
X110887145Y-43164769D01*
X110763558Y-43230828D01*
X110629459Y-43271507D01*
X110490000Y-43285242D01*
X110350542Y-43271507D01*
X110216443Y-43230828D01*
X110092856Y-43164769D01*
X109984531Y-43075870D01*
X109895632Y-42967545D01*
X109829573Y-42843958D01*
X109788894Y-42709859D01*
X109778601Y-42605349D01*
X109778600Y-41214652D01*
X109788893Y-41110142D01*
X109829572Y-40976043D01*
X109895631Y-40852456D01*
X109984530Y-40744131D01*
X110092855Y-40655231D01*
X110216442Y-40589172D01*
X110350541Y-40548493D01*
X110490000Y-40534758D01*
X110629458Y-40548493D01*
X110629458Y-40548493D01*
G37*
G36*
X108089458Y-40548493D02*
G01*
X108223557Y-40589172D01*
X108347144Y-40655231D01*
X108455469Y-40744130D01*
X108544369Y-40852455D01*
X108610428Y-40976042D01*
X108651107Y-41110141D01*
X108661400Y-41214651D01*
X108661400Y-42605349D01*
X108651107Y-42709859D01*
X108610428Y-42843958D01*
X108544369Y-42967545D01*
X108455470Y-43075870D01*
X108347145Y-43164769D01*
X108223558Y-43230828D01*
X108089459Y-43271507D01*
X107950000Y-43285242D01*
X107810542Y-43271507D01*
X107676443Y-43230828D01*
X107552856Y-43164769D01*
X107444531Y-43075870D01*
X107355632Y-42967545D01*
X107289573Y-42843958D01*
X107248894Y-42709859D01*
X107238601Y-42605349D01*
X107238600Y-41214652D01*
X107248893Y-41110142D01*
X107289572Y-40976043D01*
X107355631Y-40852456D01*
X107444530Y-40744131D01*
X107552855Y-40655231D01*
X107676442Y-40589172D01*
X107810541Y-40548493D01*
X107950000Y-40534758D01*
X108089458Y-40548493D01*
X108089458Y-40548493D01*
G37*
G36*
X105549458Y-40548493D02*
G01*
X105683557Y-40589172D01*
X105807144Y-40655231D01*
X105915469Y-40744130D01*
X106004369Y-40852455D01*
X106070428Y-40976042D01*
X106111107Y-41110141D01*
X106121400Y-41214651D01*
X106121400Y-42605349D01*
X106111107Y-42709859D01*
X106070428Y-42843958D01*
X106004369Y-42967545D01*
X105915470Y-43075870D01*
X105807145Y-43164769D01*
X105683558Y-43230828D01*
X105549459Y-43271507D01*
X105410000Y-43285242D01*
X105270542Y-43271507D01*
X105136443Y-43230828D01*
X105012856Y-43164769D01*
X104904531Y-43075870D01*
X104815632Y-42967545D01*
X104749573Y-42843958D01*
X104708894Y-42709859D01*
X104698601Y-42605349D01*
X104698600Y-41214652D01*
X104708893Y-41110142D01*
X104749572Y-40976043D01*
X104815631Y-40852456D01*
X104904530Y-40744131D01*
X105012855Y-40655231D01*
X105136442Y-40589172D01*
X105270541Y-40548493D01*
X105410000Y-40534758D01*
X105549458Y-40548493D01*
X105549458Y-40548493D01*
G37*
G36*
X100469458Y-40548493D02*
G01*
X100603557Y-40589172D01*
X100727144Y-40655231D01*
X100835469Y-40744130D01*
X100924369Y-40852455D01*
X100990428Y-40976042D01*
X101031107Y-41110141D01*
X101041400Y-41214651D01*
X101041400Y-42605349D01*
X101031107Y-42709859D01*
X100990428Y-42843958D01*
X100924369Y-42967545D01*
X100835470Y-43075870D01*
X100727145Y-43164769D01*
X100603558Y-43230828D01*
X100469459Y-43271507D01*
X100330000Y-43285242D01*
X100190542Y-43271507D01*
X100056443Y-43230828D01*
X99932856Y-43164769D01*
X99824531Y-43075870D01*
X99735632Y-42967545D01*
X99669573Y-42843958D01*
X99628894Y-42709859D01*
X99618601Y-42605349D01*
X99618600Y-41214652D01*
X99628893Y-41110142D01*
X99669572Y-40976043D01*
X99735631Y-40852456D01*
X99824530Y-40744131D01*
X99932855Y-40655231D01*
X100056442Y-40589172D01*
X100190541Y-40548493D01*
X100330000Y-40534758D01*
X100469458Y-40548493D01*
X100469458Y-40548493D01*
G37*
G36*
X97929458Y-40548493D02*
G01*
X98063557Y-40589172D01*
X98187144Y-40655231D01*
X98295469Y-40744130D01*
X98384369Y-40852455D01*
X98450428Y-40976042D01*
X98491107Y-41110141D01*
X98501400Y-41214651D01*
X98501400Y-42605349D01*
X98491107Y-42709859D01*
X98450428Y-42843958D01*
X98384369Y-42967545D01*
X98295470Y-43075870D01*
X98187145Y-43164769D01*
X98063558Y-43230828D01*
X97929459Y-43271507D01*
X97790000Y-43285242D01*
X97650542Y-43271507D01*
X97516443Y-43230828D01*
X97392856Y-43164769D01*
X97284531Y-43075870D01*
X97195632Y-42967545D01*
X97129573Y-42843958D01*
X97088894Y-42709859D01*
X97078601Y-42605349D01*
X97078600Y-41214652D01*
X97088893Y-41110142D01*
X97129572Y-40976043D01*
X97195631Y-40852456D01*
X97284530Y-40744131D01*
X97392855Y-40655231D01*
X97516442Y-40589172D01*
X97650541Y-40548493D01*
X97790000Y-40534758D01*
X97929458Y-40548493D01*
X97929458Y-40548493D01*
G37*
G36*
X95389458Y-40548493D02*
G01*
X95523557Y-40589172D01*
X95647144Y-40655231D01*
X95755469Y-40744130D01*
X95844369Y-40852455D01*
X95910428Y-40976042D01*
X95951107Y-41110141D01*
X95961400Y-41214651D01*
X95961400Y-42605349D01*
X95951107Y-42709859D01*
X95910428Y-42843958D01*
X95844369Y-42967545D01*
X95755470Y-43075870D01*
X95647145Y-43164769D01*
X95523558Y-43230828D01*
X95389459Y-43271507D01*
X95250000Y-43285242D01*
X95110542Y-43271507D01*
X94976443Y-43230828D01*
X94852856Y-43164769D01*
X94744531Y-43075870D01*
X94655632Y-42967545D01*
X94589573Y-42843958D01*
X94548894Y-42709859D01*
X94538601Y-42605349D01*
X94538600Y-41214652D01*
X94548893Y-41110142D01*
X94589572Y-40976043D01*
X94655631Y-40852456D01*
X94744530Y-40744131D01*
X94852855Y-40655231D01*
X94976442Y-40589172D01*
X95110541Y-40548493D01*
X95250000Y-40534758D01*
X95389458Y-40548493D01*
X95389458Y-40548493D01*
G37*
G36*
X90309458Y-40548493D02*
G01*
X90443557Y-40589172D01*
X90567144Y-40655231D01*
X90675469Y-40744130D01*
X90764369Y-40852455D01*
X90830428Y-40976042D01*
X90871107Y-41110141D01*
X90881400Y-41214651D01*
X90881400Y-42605349D01*
X90871107Y-42709859D01*
X90830428Y-42843958D01*
X90764369Y-42967545D01*
X90675470Y-43075870D01*
X90567145Y-43164769D01*
X90443558Y-43230828D01*
X90309459Y-43271507D01*
X90170000Y-43285242D01*
X90030542Y-43271507D01*
X89896443Y-43230828D01*
X89772856Y-43164769D01*
X89664531Y-43075870D01*
X89575632Y-42967545D01*
X89509573Y-42843958D01*
X89468894Y-42709859D01*
X89458601Y-42605349D01*
X89458600Y-41214652D01*
X89468893Y-41110142D01*
X89509572Y-40976043D01*
X89575631Y-40852456D01*
X89664530Y-40744131D01*
X89772855Y-40655231D01*
X89896442Y-40589172D01*
X90030541Y-40548493D01*
X90170000Y-40534758D01*
X90309458Y-40548493D01*
X90309458Y-40548493D01*
G37*
G36*
X87769458Y-40548493D02*
G01*
X87903557Y-40589172D01*
X88027144Y-40655231D01*
X88135469Y-40744130D01*
X88224369Y-40852455D01*
X88290428Y-40976042D01*
X88331107Y-41110141D01*
X88341400Y-41214651D01*
X88341400Y-42605349D01*
X88331107Y-42709859D01*
X88290428Y-42843958D01*
X88224369Y-42967545D01*
X88135470Y-43075870D01*
X88027145Y-43164769D01*
X87903558Y-43230828D01*
X87769459Y-43271507D01*
X87630000Y-43285242D01*
X87490542Y-43271507D01*
X87356443Y-43230828D01*
X87232856Y-43164769D01*
X87124531Y-43075870D01*
X87035632Y-42967545D01*
X86969573Y-42843958D01*
X86928894Y-42709859D01*
X86918601Y-42605349D01*
X86918600Y-41214652D01*
X86928893Y-41110142D01*
X86969572Y-40976043D01*
X87035631Y-40852456D01*
X87124530Y-40744131D01*
X87232855Y-40655231D01*
X87356442Y-40589172D01*
X87490541Y-40548493D01*
X87630000Y-40534758D01*
X87769458Y-40548493D01*
X87769458Y-40548493D01*
G37*
G36*
X85229458Y-40548493D02*
G01*
X85363557Y-40589172D01*
X85487144Y-40655231D01*
X85595469Y-40744130D01*
X85684369Y-40852455D01*
X85750428Y-40976042D01*
X85791107Y-41110141D01*
X85801400Y-41214651D01*
X85801400Y-42605349D01*
X85791107Y-42709859D01*
X85750428Y-42843958D01*
X85684369Y-42967545D01*
X85595470Y-43075870D01*
X85487145Y-43164769D01*
X85363558Y-43230828D01*
X85229459Y-43271507D01*
X85090000Y-43285242D01*
X84950542Y-43271507D01*
X84816443Y-43230828D01*
X84692856Y-43164769D01*
X84584531Y-43075870D01*
X84495632Y-42967545D01*
X84429573Y-42843958D01*
X84388894Y-42709859D01*
X84378601Y-42605349D01*
X84378600Y-41214652D01*
X84388893Y-41110142D01*
X84429572Y-40976043D01*
X84495631Y-40852456D01*
X84584530Y-40744131D01*
X84692855Y-40655231D01*
X84816442Y-40589172D01*
X84950541Y-40548493D01*
X85090000Y-40534758D01*
X85229458Y-40548493D01*
X85229458Y-40548493D01*
G37*
G36*
X82689458Y-40548493D02*
G01*
X82823557Y-40589172D01*
X82947144Y-40655231D01*
X83055469Y-40744130D01*
X83144369Y-40852455D01*
X83210428Y-40976042D01*
X83251107Y-41110141D01*
X83261400Y-41214651D01*
X83261400Y-42605349D01*
X83251107Y-42709859D01*
X83210428Y-42843958D01*
X83144369Y-42967545D01*
X83055470Y-43075870D01*
X82947145Y-43164769D01*
X82823558Y-43230828D01*
X82689459Y-43271507D01*
X82550000Y-43285242D01*
X82410542Y-43271507D01*
X82276443Y-43230828D01*
X82152856Y-43164769D01*
X82044531Y-43075870D01*
X81955632Y-42967545D01*
X81889573Y-42843958D01*
X81848894Y-42709859D01*
X81838601Y-42605349D01*
X81838600Y-41214652D01*
X81848893Y-41110142D01*
X81889572Y-40976043D01*
X81955631Y-40852456D01*
X82044530Y-40744131D01*
X82152855Y-40655231D01*
X82276442Y-40589172D01*
X82410541Y-40548493D01*
X82550000Y-40534758D01*
X82689458Y-40548493D01*
X82689458Y-40548493D01*
G37*
G36*
X80149458Y-40548493D02*
G01*
X80283557Y-40589172D01*
X80407144Y-40655231D01*
X80515469Y-40744130D01*
X80604369Y-40852455D01*
X80670428Y-40976042D01*
X80711107Y-41110141D01*
X80721400Y-41214651D01*
X80721400Y-42605349D01*
X80711107Y-42709859D01*
X80670428Y-42843958D01*
X80604369Y-42967545D01*
X80515470Y-43075870D01*
X80407145Y-43164769D01*
X80283558Y-43230828D01*
X80149459Y-43271507D01*
X80010000Y-43285242D01*
X79870542Y-43271507D01*
X79736443Y-43230828D01*
X79612856Y-43164769D01*
X79504531Y-43075870D01*
X79415632Y-42967545D01*
X79349573Y-42843958D01*
X79308894Y-42709859D01*
X79298601Y-42605349D01*
X79298600Y-41214652D01*
X79308893Y-41110142D01*
X79349572Y-40976043D01*
X79415631Y-40852456D01*
X79504530Y-40744131D01*
X79612855Y-40655231D01*
X79736442Y-40589172D01*
X79870541Y-40548493D01*
X80010000Y-40534758D01*
X80149458Y-40548493D01*
X80149458Y-40548493D01*
G37*
G36*
X92849458Y-40548493D02*
G01*
X92983557Y-40589172D01*
X93107144Y-40655231D01*
X93215469Y-40744130D01*
X93304369Y-40852455D01*
X93370428Y-40976042D01*
X93411107Y-41110141D01*
X93421400Y-41214651D01*
X93421400Y-42605349D01*
X93411107Y-42709859D01*
X93370428Y-42843958D01*
X93304369Y-42967545D01*
X93215470Y-43075870D01*
X93107145Y-43164769D01*
X92983558Y-43230828D01*
X92849459Y-43271507D01*
X92710000Y-43285242D01*
X92570542Y-43271507D01*
X92436443Y-43230828D01*
X92312856Y-43164769D01*
X92204531Y-43075870D01*
X92115632Y-42967545D01*
X92049573Y-42843958D01*
X92008894Y-42709859D01*
X91998601Y-42605349D01*
X91998600Y-41214652D01*
X92008893Y-41110142D01*
X92049572Y-40976043D01*
X92115631Y-40852456D01*
X92204530Y-40744131D01*
X92312855Y-40655231D01*
X92436442Y-40589172D01*
X92570541Y-40548493D01*
X92710000Y-40534758D01*
X92849458Y-40548493D01*
X92849458Y-40548493D01*
G37*
G36*
X71500442Y-39745518D02*
G01*
X71566627Y-39752037D01*
X71736466Y-39803557D01*
X71892991Y-39887222D01*
X71928729Y-39916552D01*
X72030186Y-39999814D01*
X72113448Y-40101271D01*
X72142778Y-40137009D01*
X72226443Y-40293534D01*
X72277963Y-40463373D01*
X72295359Y-40640000D01*
X72277963Y-40816627D01*
X72226443Y-40986466D01*
X72142778Y-41142991D01*
X72113448Y-41178729D01*
X72030186Y-41280186D01*
X71928729Y-41363448D01*
X71892991Y-41392778D01*
X71736466Y-41476443D01*
X71566627Y-41527963D01*
X71500442Y-41534482D01*
X71434260Y-41541000D01*
X71345740Y-41541000D01*
X71279558Y-41534482D01*
X71213373Y-41527963D01*
X71043534Y-41476443D01*
X70887009Y-41392778D01*
X70851271Y-41363448D01*
X70749814Y-41280186D01*
X70666552Y-41178729D01*
X70637222Y-41142991D01*
X70553557Y-40986466D01*
X70502037Y-40816627D01*
X70484641Y-40640000D01*
X70502037Y-40463373D01*
X70553557Y-40293534D01*
X70637222Y-40137009D01*
X70666552Y-40101271D01*
X70749814Y-39999814D01*
X70851271Y-39916552D01*
X70887009Y-39887222D01*
X71043534Y-39803557D01*
X71213373Y-39752037D01*
X71279558Y-39745518D01*
X71345740Y-39739000D01*
X71434260Y-39739000D01*
X71500442Y-39745518D01*
X71500442Y-39745518D01*
G37*
G36*
X75310442Y-39745518D02*
G01*
X75376627Y-39752037D01*
X75546466Y-39803557D01*
X75702991Y-39887222D01*
X75738729Y-39916552D01*
X75840186Y-39999814D01*
X75923448Y-40101271D01*
X75952778Y-40137009D01*
X76036443Y-40293534D01*
X76087963Y-40463373D01*
X76105359Y-40640000D01*
X76087963Y-40816627D01*
X76036443Y-40986466D01*
X75952778Y-41142991D01*
X75923448Y-41178729D01*
X75840186Y-41280186D01*
X75738729Y-41363448D01*
X75702991Y-41392778D01*
X75546466Y-41476443D01*
X75376627Y-41527963D01*
X75310442Y-41534482D01*
X75244260Y-41541000D01*
X75155740Y-41541000D01*
X75089558Y-41534482D01*
X75023373Y-41527963D01*
X74853534Y-41476443D01*
X74697009Y-41392778D01*
X74661271Y-41363448D01*
X74559814Y-41280186D01*
X74476552Y-41178729D01*
X74447222Y-41142991D01*
X74363557Y-40986466D01*
X74312037Y-40816627D01*
X74294641Y-40640000D01*
X74312037Y-40463373D01*
X74363557Y-40293534D01*
X74447222Y-40137009D01*
X74476552Y-40101271D01*
X74559814Y-39999814D01*
X74661271Y-39916552D01*
X74697009Y-39887222D01*
X74853534Y-39803557D01*
X75023373Y-39752037D01*
X75089558Y-39745518D01*
X75155740Y-39739000D01*
X75244260Y-39739000D01*
X75310442Y-39745518D01*
X75310442Y-39745518D01*
G37*
G36*
X52066564Y-38209389D02*
G01*
X52257833Y-38288615D01*
X52257835Y-38288616D01*
X52379521Y-38369924D01*
X52429973Y-38403635D01*
X52576365Y-38550027D01*
X52691385Y-38722167D01*
X52770611Y-38913436D01*
X52811000Y-39116484D01*
X52811000Y-39323516D01*
X52770611Y-39526564D01*
X52719068Y-39651000D01*
X52691384Y-39717835D01*
X52576365Y-39889973D01*
X52429973Y-40036365D01*
X52257835Y-40151384D01*
X52257834Y-40151385D01*
X52257833Y-40151385D01*
X52066564Y-40230611D01*
X51863516Y-40271000D01*
X51656484Y-40271000D01*
X51453436Y-40230611D01*
X51262167Y-40151385D01*
X51262166Y-40151385D01*
X51262165Y-40151384D01*
X51090027Y-40036365D01*
X50943635Y-39889973D01*
X50828616Y-39717835D01*
X50800932Y-39651000D01*
X50749389Y-39526564D01*
X50709000Y-39323516D01*
X50709000Y-39116484D01*
X50749389Y-38913436D01*
X50828615Y-38722167D01*
X50943635Y-38550027D01*
X51090027Y-38403635D01*
X51140479Y-38369924D01*
X51262165Y-38288616D01*
X51262167Y-38288615D01*
X51453436Y-38209389D01*
X51656484Y-38169000D01*
X51863516Y-38169000D01*
X52066564Y-38209389D01*
X52066564Y-38209389D01*
G37*
G36*
X47566564Y-38209389D02*
G01*
X47757833Y-38288615D01*
X47757835Y-38288616D01*
X47879521Y-38369924D01*
X47929973Y-38403635D01*
X48076365Y-38550027D01*
X48191385Y-38722167D01*
X48270611Y-38913436D01*
X48311000Y-39116484D01*
X48311000Y-39323516D01*
X48270611Y-39526564D01*
X48219068Y-39651000D01*
X48191384Y-39717835D01*
X48076365Y-39889973D01*
X47929973Y-40036365D01*
X47757835Y-40151384D01*
X47757834Y-40151385D01*
X47757833Y-40151385D01*
X47566564Y-40230611D01*
X47363516Y-40271000D01*
X47156484Y-40271000D01*
X46953436Y-40230611D01*
X46762167Y-40151385D01*
X46762166Y-40151385D01*
X46762165Y-40151384D01*
X46590027Y-40036365D01*
X46443635Y-39889973D01*
X46328616Y-39717835D01*
X46300932Y-39651000D01*
X46249389Y-39526564D01*
X46209000Y-39323516D01*
X46209000Y-39116484D01*
X46249389Y-38913436D01*
X46328615Y-38722167D01*
X46443635Y-38550027D01*
X46590027Y-38403635D01*
X46640479Y-38369924D01*
X46762165Y-38288616D01*
X46762167Y-38288615D01*
X46953436Y-38209389D01*
X47156484Y-38169000D01*
X47363516Y-38169000D01*
X47566564Y-38209389D01*
X47566564Y-38209389D01*
G37*
G36*
X121284239Y-33641467D02*
G01*
X121598282Y-33703934D01*
X122189926Y-33949001D01*
X122722392Y-34304784D01*
X123175216Y-34757608D01*
X123530999Y-35290074D01*
X123776066Y-35881718D01*
X123901000Y-36509804D01*
X123901000Y-37150196D01*
X123776066Y-37778282D01*
X123530999Y-38369926D01*
X123175216Y-38902392D01*
X122722392Y-39355216D01*
X122189926Y-39710999D01*
X121598282Y-39956066D01*
X121284239Y-40018533D01*
X120970197Y-40081000D01*
X120329803Y-40081000D01*
X120015761Y-40018533D01*
X119701718Y-39956066D01*
X119110074Y-39710999D01*
X118577608Y-39355216D01*
X118124784Y-38902392D01*
X117769001Y-38369926D01*
X117523934Y-37778282D01*
X117399000Y-37150196D01*
X117399000Y-36509804D01*
X117523934Y-35881718D01*
X117769001Y-35290074D01*
X118124784Y-34757608D01*
X118577608Y-34304784D01*
X119110074Y-33949001D01*
X119701718Y-33703934D01*
X120015761Y-33641467D01*
X120329803Y-33579000D01*
X120970197Y-33579000D01*
X121284239Y-33641467D01*
X121284239Y-33641467D01*
G37*
G36*
X57701000Y-39651000D02*
G01*
X54599000Y-39651000D01*
X54599000Y-36549000D01*
X57701000Y-36549000D01*
X57701000Y-39651000D01*
X57701000Y-39651000D01*
G37*
G36*
X66612585Y-36578802D02*
G01*
X66762410Y-36608604D01*
X67044674Y-36725521D01*
X67298705Y-36895259D01*
X67514741Y-37111295D01*
X67684479Y-37365326D01*
X67801396Y-37647590D01*
X67861000Y-37947240D01*
X67861000Y-38252760D01*
X67801396Y-38552410D01*
X67684479Y-38834674D01*
X67514741Y-39088705D01*
X67298705Y-39304741D01*
X67044674Y-39474479D01*
X66762410Y-39591396D01*
X66612585Y-39621198D01*
X66462761Y-39651000D01*
X66157239Y-39651000D01*
X66007415Y-39621198D01*
X65857590Y-39591396D01*
X65575326Y-39474479D01*
X65321295Y-39304741D01*
X65105259Y-39088705D01*
X64935521Y-38834674D01*
X64818604Y-38552410D01*
X64759000Y-38252760D01*
X64759000Y-37947240D01*
X64818604Y-37647590D01*
X64935521Y-37365326D01*
X65105259Y-37111295D01*
X65321295Y-36895259D01*
X65575326Y-36725521D01*
X65857590Y-36608604D01*
X66007415Y-36578802D01*
X66157239Y-36549000D01*
X66462761Y-36549000D01*
X66612585Y-36578802D01*
X66612585Y-36578802D01*
G37*
G36*
X61532585Y-36578802D02*
G01*
X61682410Y-36608604D01*
X61964674Y-36725521D01*
X62218705Y-36895259D01*
X62434741Y-37111295D01*
X62604479Y-37365326D01*
X62721396Y-37647590D01*
X62781000Y-37947240D01*
X62781000Y-38252760D01*
X62721396Y-38552410D01*
X62604479Y-38834674D01*
X62434741Y-39088705D01*
X62218705Y-39304741D01*
X61964674Y-39474479D01*
X61682410Y-39591396D01*
X61532585Y-39621198D01*
X61382761Y-39651000D01*
X61077239Y-39651000D01*
X60927415Y-39621198D01*
X60777590Y-39591396D01*
X60495326Y-39474479D01*
X60241295Y-39304741D01*
X60025259Y-39088705D01*
X59855521Y-38834674D01*
X59738604Y-38552410D01*
X59679000Y-38252760D01*
X59679000Y-37947240D01*
X59738604Y-37647590D01*
X59855521Y-37365326D01*
X60025259Y-37111295D01*
X60241295Y-36895259D01*
X60495326Y-36725521D01*
X60777590Y-36608604D01*
X60927415Y-36578802D01*
X61077239Y-36549000D01*
X61382761Y-36549000D01*
X61532585Y-36578802D01*
X61532585Y-36578802D01*
G37*
G36*
X113169458Y-32928493D02*
G01*
X113303557Y-32969172D01*
X113427144Y-33035231D01*
X113535469Y-33124130D01*
X113624369Y-33232455D01*
X113690428Y-33356042D01*
X113731107Y-33490141D01*
X113741400Y-33594651D01*
X113741400Y-34985349D01*
X113731107Y-35089859D01*
X113690428Y-35223958D01*
X113624369Y-35347545D01*
X113535470Y-35455870D01*
X113427145Y-35544769D01*
X113303558Y-35610828D01*
X113169459Y-35651507D01*
X113030000Y-35665242D01*
X112890542Y-35651507D01*
X112756443Y-35610828D01*
X112632856Y-35544769D01*
X112524531Y-35455870D01*
X112435632Y-35347545D01*
X112369573Y-35223958D01*
X112328894Y-35089859D01*
X112318601Y-34985349D01*
X112318600Y-33594652D01*
X112328893Y-33490142D01*
X112369572Y-33356043D01*
X112435631Y-33232456D01*
X112524530Y-33124131D01*
X112632855Y-33035231D01*
X112756442Y-32969172D01*
X112890541Y-32928493D01*
X113030000Y-32914758D01*
X113169458Y-32928493D01*
X113169458Y-32928493D01*
G37*
G36*
X110629458Y-32928493D02*
G01*
X110763557Y-32969172D01*
X110887144Y-33035231D01*
X110995469Y-33124130D01*
X111084369Y-33232455D01*
X111150428Y-33356042D01*
X111191107Y-33490141D01*
X111201400Y-33594651D01*
X111201400Y-34985349D01*
X111191107Y-35089859D01*
X111150428Y-35223958D01*
X111084369Y-35347545D01*
X110995470Y-35455870D01*
X110887145Y-35544769D01*
X110763558Y-35610828D01*
X110629459Y-35651507D01*
X110490000Y-35665242D01*
X110350542Y-35651507D01*
X110216443Y-35610828D01*
X110092856Y-35544769D01*
X109984531Y-35455870D01*
X109895632Y-35347545D01*
X109829573Y-35223958D01*
X109788894Y-35089859D01*
X109778601Y-34985349D01*
X109778600Y-33594652D01*
X109788893Y-33490142D01*
X109829572Y-33356043D01*
X109895631Y-33232456D01*
X109984530Y-33124131D01*
X110092855Y-33035231D01*
X110216442Y-32969172D01*
X110350541Y-32928493D01*
X110490000Y-32914758D01*
X110629458Y-32928493D01*
X110629458Y-32928493D01*
G37*
G36*
X108089458Y-32928493D02*
G01*
X108223557Y-32969172D01*
X108347144Y-33035231D01*
X108455469Y-33124130D01*
X108544369Y-33232455D01*
X108610428Y-33356042D01*
X108651107Y-33490141D01*
X108661400Y-33594651D01*
X108661400Y-34985349D01*
X108651107Y-35089859D01*
X108610428Y-35223958D01*
X108544369Y-35347545D01*
X108455470Y-35455870D01*
X108347145Y-35544769D01*
X108223558Y-35610828D01*
X108089459Y-35651507D01*
X107950000Y-35665242D01*
X107810542Y-35651507D01*
X107676443Y-35610828D01*
X107552856Y-35544769D01*
X107444531Y-35455870D01*
X107355632Y-35347545D01*
X107289573Y-35223958D01*
X107248894Y-35089859D01*
X107238601Y-34985349D01*
X107238600Y-33594652D01*
X107248893Y-33490142D01*
X107289572Y-33356043D01*
X107355631Y-33232456D01*
X107444530Y-33124131D01*
X107552855Y-33035231D01*
X107676442Y-32969172D01*
X107810541Y-32928493D01*
X107950000Y-32914758D01*
X108089458Y-32928493D01*
X108089458Y-32928493D01*
G37*
G36*
X105549458Y-32928493D02*
G01*
X105683557Y-32969172D01*
X105807144Y-33035231D01*
X105915469Y-33124130D01*
X106004369Y-33232455D01*
X106070428Y-33356042D01*
X106111107Y-33490141D01*
X106121400Y-33594651D01*
X106121400Y-34985349D01*
X106111107Y-35089859D01*
X106070428Y-35223958D01*
X106004369Y-35347545D01*
X105915470Y-35455870D01*
X105807145Y-35544769D01*
X105683558Y-35610828D01*
X105549459Y-35651507D01*
X105410000Y-35665242D01*
X105270542Y-35651507D01*
X105136443Y-35610828D01*
X105012856Y-35544769D01*
X104904531Y-35455870D01*
X104815632Y-35347545D01*
X104749573Y-35223958D01*
X104708894Y-35089859D01*
X104698601Y-34985349D01*
X104698600Y-33594652D01*
X104708893Y-33490142D01*
X104749572Y-33356043D01*
X104815631Y-33232456D01*
X104904530Y-33124131D01*
X105012855Y-33035231D01*
X105136442Y-32969172D01*
X105270541Y-32928493D01*
X105410000Y-32914758D01*
X105549458Y-32928493D01*
X105549458Y-32928493D01*
G37*
G36*
X103009458Y-32928493D02*
G01*
X103143557Y-32969172D01*
X103267144Y-33035231D01*
X103375469Y-33124130D01*
X103464369Y-33232455D01*
X103530428Y-33356042D01*
X103571107Y-33490141D01*
X103581400Y-33594651D01*
X103581400Y-34985349D01*
X103571107Y-35089859D01*
X103530428Y-35223958D01*
X103464369Y-35347545D01*
X103375470Y-35455870D01*
X103267145Y-35544769D01*
X103143558Y-35610828D01*
X103009459Y-35651507D01*
X102870000Y-35665242D01*
X102730542Y-35651507D01*
X102596443Y-35610828D01*
X102472856Y-35544769D01*
X102364531Y-35455870D01*
X102275632Y-35347545D01*
X102209573Y-35223958D01*
X102168894Y-35089859D01*
X102158601Y-34985349D01*
X102158600Y-33594652D01*
X102168893Y-33490142D01*
X102209572Y-33356043D01*
X102275631Y-33232456D01*
X102364530Y-33124131D01*
X102472855Y-33035231D01*
X102596442Y-32969172D01*
X102730541Y-32928493D01*
X102870000Y-32914758D01*
X103009458Y-32928493D01*
X103009458Y-32928493D01*
G37*
G36*
X100469458Y-32928493D02*
G01*
X100603557Y-32969172D01*
X100727144Y-33035231D01*
X100835469Y-33124130D01*
X100924369Y-33232455D01*
X100990428Y-33356042D01*
X101031107Y-33490141D01*
X101041400Y-33594651D01*
X101041400Y-34985349D01*
X101031107Y-35089859D01*
X100990428Y-35223958D01*
X100924369Y-35347545D01*
X100835470Y-35455870D01*
X100727145Y-35544769D01*
X100603558Y-35610828D01*
X100469459Y-35651507D01*
X100330000Y-35665242D01*
X100190542Y-35651507D01*
X100056443Y-35610828D01*
X99932856Y-35544769D01*
X99824531Y-35455870D01*
X99735632Y-35347545D01*
X99669573Y-35223958D01*
X99628894Y-35089859D01*
X99618601Y-34985349D01*
X99618600Y-33594652D01*
X99628893Y-33490142D01*
X99669572Y-33356043D01*
X99735631Y-33232456D01*
X99824530Y-33124131D01*
X99932855Y-33035231D01*
X100056442Y-32969172D01*
X100190541Y-32928493D01*
X100330000Y-32914758D01*
X100469458Y-32928493D01*
X100469458Y-32928493D01*
G37*
G36*
X97929458Y-32928493D02*
G01*
X98063557Y-32969172D01*
X98187144Y-33035231D01*
X98295469Y-33124130D01*
X98384369Y-33232455D01*
X98450428Y-33356042D01*
X98491107Y-33490141D01*
X98501400Y-33594651D01*
X98501400Y-34985349D01*
X98491107Y-35089859D01*
X98450428Y-35223958D01*
X98384369Y-35347545D01*
X98295470Y-35455870D01*
X98187145Y-35544769D01*
X98063558Y-35610828D01*
X97929459Y-35651507D01*
X97790000Y-35665242D01*
X97650542Y-35651507D01*
X97516443Y-35610828D01*
X97392856Y-35544769D01*
X97284531Y-35455870D01*
X97195632Y-35347545D01*
X97129573Y-35223958D01*
X97088894Y-35089859D01*
X97078601Y-34985349D01*
X97078600Y-33594652D01*
X97088893Y-33490142D01*
X97129572Y-33356043D01*
X97195631Y-33232456D01*
X97284530Y-33124131D01*
X97392855Y-33035231D01*
X97516442Y-32969172D01*
X97650541Y-32928493D01*
X97790000Y-32914758D01*
X97929458Y-32928493D01*
X97929458Y-32928493D01*
G37*
G36*
X95389458Y-32928493D02*
G01*
X95523557Y-32969172D01*
X95647144Y-33035231D01*
X95755469Y-33124130D01*
X95844369Y-33232455D01*
X95910428Y-33356042D01*
X95951107Y-33490141D01*
X95961400Y-33594651D01*
X95961400Y-34985349D01*
X95951107Y-35089859D01*
X95910428Y-35223958D01*
X95844369Y-35347545D01*
X95755470Y-35455870D01*
X95647145Y-35544769D01*
X95523558Y-35610828D01*
X95389459Y-35651507D01*
X95250000Y-35665242D01*
X95110542Y-35651507D01*
X94976443Y-35610828D01*
X94852856Y-35544769D01*
X94744531Y-35455870D01*
X94655632Y-35347545D01*
X94589573Y-35223958D01*
X94548894Y-35089859D01*
X94538601Y-34985349D01*
X94538600Y-33594652D01*
X94548893Y-33490142D01*
X94589572Y-33356043D01*
X94655631Y-33232456D01*
X94744530Y-33124131D01*
X94852855Y-33035231D01*
X94976442Y-32969172D01*
X95110541Y-32928493D01*
X95250000Y-32914758D01*
X95389458Y-32928493D01*
X95389458Y-32928493D01*
G37*
G36*
X92849458Y-32928493D02*
G01*
X92983557Y-32969172D01*
X93107144Y-33035231D01*
X93215469Y-33124130D01*
X93304369Y-33232455D01*
X93370428Y-33356042D01*
X93411107Y-33490141D01*
X93421400Y-33594651D01*
X93421400Y-34985349D01*
X93411107Y-35089859D01*
X93370428Y-35223958D01*
X93304369Y-35347545D01*
X93215470Y-35455870D01*
X93107145Y-35544769D01*
X92983558Y-35610828D01*
X92849459Y-35651507D01*
X92710000Y-35665242D01*
X92570542Y-35651507D01*
X92436443Y-35610828D01*
X92312856Y-35544769D01*
X92204531Y-35455870D01*
X92115632Y-35347545D01*
X92049573Y-35223958D01*
X92008894Y-35089859D01*
X91998601Y-34985349D01*
X91998600Y-33594652D01*
X92008893Y-33490142D01*
X92049572Y-33356043D01*
X92115631Y-33232456D01*
X92204530Y-33124131D01*
X92312855Y-33035231D01*
X92436442Y-32969172D01*
X92570541Y-32928493D01*
X92710000Y-32914758D01*
X92849458Y-32928493D01*
X92849458Y-32928493D01*
G37*
G36*
X90309458Y-32928493D02*
G01*
X90443557Y-32969172D01*
X90567144Y-33035231D01*
X90675469Y-33124130D01*
X90764369Y-33232455D01*
X90830428Y-33356042D01*
X90871107Y-33490141D01*
X90881400Y-33594651D01*
X90881400Y-34985349D01*
X90871107Y-35089859D01*
X90830428Y-35223958D01*
X90764369Y-35347545D01*
X90675470Y-35455870D01*
X90567145Y-35544769D01*
X90443558Y-35610828D01*
X90309459Y-35651507D01*
X90170000Y-35665242D01*
X90030542Y-35651507D01*
X89896443Y-35610828D01*
X89772856Y-35544769D01*
X89664531Y-35455870D01*
X89575632Y-35347545D01*
X89509573Y-35223958D01*
X89468894Y-35089859D01*
X89458601Y-34985349D01*
X89458600Y-33594652D01*
X89468893Y-33490142D01*
X89509572Y-33356043D01*
X89575631Y-33232456D01*
X89664530Y-33124131D01*
X89772855Y-33035231D01*
X89896442Y-32969172D01*
X90030541Y-32928493D01*
X90170000Y-32914758D01*
X90309458Y-32928493D01*
X90309458Y-32928493D01*
G37*
G36*
X87769458Y-32928493D02*
G01*
X87903557Y-32969172D01*
X88027144Y-33035231D01*
X88135469Y-33124130D01*
X88224369Y-33232455D01*
X88290428Y-33356042D01*
X88331107Y-33490141D01*
X88341400Y-33594651D01*
X88341400Y-34985349D01*
X88331107Y-35089859D01*
X88290428Y-35223958D01*
X88224369Y-35347545D01*
X88135470Y-35455870D01*
X88027145Y-35544769D01*
X87903558Y-35610828D01*
X87769459Y-35651507D01*
X87630000Y-35665242D01*
X87490542Y-35651507D01*
X87356443Y-35610828D01*
X87232856Y-35544769D01*
X87124531Y-35455870D01*
X87035632Y-35347545D01*
X86969573Y-35223958D01*
X86928894Y-35089859D01*
X86918601Y-34985349D01*
X86918600Y-33594652D01*
X86928893Y-33490142D01*
X86969572Y-33356043D01*
X87035631Y-33232456D01*
X87124530Y-33124131D01*
X87232855Y-33035231D01*
X87356442Y-32969172D01*
X87490541Y-32928493D01*
X87630000Y-32914758D01*
X87769458Y-32928493D01*
X87769458Y-32928493D01*
G37*
G36*
X85229458Y-32928493D02*
G01*
X85363557Y-32969172D01*
X85487144Y-33035231D01*
X85595469Y-33124130D01*
X85684369Y-33232455D01*
X85750428Y-33356042D01*
X85791107Y-33490141D01*
X85801400Y-33594651D01*
X85801400Y-34985349D01*
X85791107Y-35089859D01*
X85750428Y-35223958D01*
X85684369Y-35347545D01*
X85595470Y-35455870D01*
X85487145Y-35544769D01*
X85363558Y-35610828D01*
X85229459Y-35651507D01*
X85090000Y-35665242D01*
X84950542Y-35651507D01*
X84816443Y-35610828D01*
X84692856Y-35544769D01*
X84584531Y-35455870D01*
X84495632Y-35347545D01*
X84429573Y-35223958D01*
X84388894Y-35089859D01*
X84378601Y-34985349D01*
X84378600Y-33594652D01*
X84388893Y-33490142D01*
X84429572Y-33356043D01*
X84495631Y-33232456D01*
X84584530Y-33124131D01*
X84692855Y-33035231D01*
X84816442Y-32969172D01*
X84950541Y-32928493D01*
X85090000Y-32914758D01*
X85229458Y-32928493D01*
X85229458Y-32928493D01*
G37*
G36*
X82689458Y-32928493D02*
G01*
X82823557Y-32969172D01*
X82947144Y-33035231D01*
X83055469Y-33124130D01*
X83144369Y-33232455D01*
X83210428Y-33356042D01*
X83251107Y-33490141D01*
X83261400Y-33594651D01*
X83261400Y-34985349D01*
X83251107Y-35089859D01*
X83210428Y-35223958D01*
X83144369Y-35347545D01*
X83055470Y-35455870D01*
X82947145Y-35544769D01*
X82823558Y-35610828D01*
X82689459Y-35651507D01*
X82550000Y-35665242D01*
X82410542Y-35651507D01*
X82276443Y-35610828D01*
X82152856Y-35544769D01*
X82044531Y-35455870D01*
X81955632Y-35347545D01*
X81889573Y-35223958D01*
X81848894Y-35089859D01*
X81838601Y-34985349D01*
X81838600Y-33594652D01*
X81848893Y-33490142D01*
X81889572Y-33356043D01*
X81955631Y-33232456D01*
X82044530Y-33124131D01*
X82152855Y-33035231D01*
X82276442Y-32969172D01*
X82410541Y-32928493D01*
X82550000Y-32914758D01*
X82689458Y-32928493D01*
X82689458Y-32928493D01*
G37*
G36*
X80149458Y-32928493D02*
G01*
X80283557Y-32969172D01*
X80407144Y-33035231D01*
X80515469Y-33124130D01*
X80604369Y-33232455D01*
X80670428Y-33356042D01*
X80711107Y-33490141D01*
X80721400Y-33594651D01*
X80721400Y-34985349D01*
X80711107Y-35089859D01*
X80670428Y-35223958D01*
X80604369Y-35347545D01*
X80515470Y-35455870D01*
X80407145Y-35544769D01*
X80283558Y-35610828D01*
X80149459Y-35651507D01*
X80010000Y-35665242D01*
X79870542Y-35651507D01*
X79736443Y-35610828D01*
X79612856Y-35544769D01*
X79504531Y-35455870D01*
X79415632Y-35347545D01*
X79349573Y-35223958D01*
X79308894Y-35089859D01*
X79298601Y-34985349D01*
X79298600Y-33594652D01*
X79308893Y-33490142D01*
X79349572Y-33356043D01*
X79415631Y-33232456D01*
X79504530Y-33124131D01*
X79612855Y-33035231D01*
X79736442Y-32969172D01*
X79870541Y-32928493D01*
X80010000Y-32914758D01*
X80149458Y-32928493D01*
X80149458Y-32928493D01*
G37*
G36*
X74294239Y-27291467D02*
G01*
X74608282Y-27353934D01*
X75199926Y-27599001D01*
X75626477Y-27884014D01*
X75732391Y-27954783D01*
X76185217Y-28407609D01*
X76255986Y-28513523D01*
X76540999Y-28940074D01*
X76786066Y-29531718D01*
X76811922Y-29661705D01*
X76911000Y-30159803D01*
X76911000Y-30800197D01*
X76866785Y-31022480D01*
X76786066Y-31428282D01*
X76540999Y-32019926D01*
X76255986Y-32446477D01*
X76185217Y-32552391D01*
X75732391Y-33005217D01*
X75626477Y-33075986D01*
X75199926Y-33360999D01*
X74608282Y-33606066D01*
X74294239Y-33668533D01*
X73980197Y-33731000D01*
X73339803Y-33731000D01*
X73025761Y-33668533D01*
X72711718Y-33606066D01*
X72120074Y-33360999D01*
X71693523Y-33075986D01*
X71587609Y-33005217D01*
X71134783Y-32552391D01*
X71064014Y-32446477D01*
X70779001Y-32019926D01*
X70533934Y-31428282D01*
X70453215Y-31022480D01*
X70409000Y-30800197D01*
X70409000Y-30159803D01*
X70508078Y-29661705D01*
X70533934Y-29531718D01*
X70779001Y-28940074D01*
X71064014Y-28513523D01*
X71134783Y-28407609D01*
X71587609Y-27954783D01*
X71693523Y-27884014D01*
X72120074Y-27599001D01*
X72711718Y-27353934D01*
X73025761Y-27291467D01*
X73339803Y-27229000D01*
X73980197Y-27229000D01*
X74294239Y-27291467D01*
X74294239Y-27291467D01*
G37*
G36*
X96768228Y-29661703D02*
G01*
X96923100Y-29725853D01*
X97062481Y-29818985D01*
X97181015Y-29937519D01*
X97274147Y-30076900D01*
X97338297Y-30231772D01*
X97371000Y-30396184D01*
X97371000Y-30563816D01*
X97338297Y-30728228D01*
X97274147Y-30883100D01*
X97181015Y-31022481D01*
X97062481Y-31141015D01*
X96923100Y-31234147D01*
X96768228Y-31298297D01*
X96603816Y-31331000D01*
X96436184Y-31331000D01*
X96271772Y-31298297D01*
X96116900Y-31234147D01*
X95977519Y-31141015D01*
X95858985Y-31022481D01*
X95765853Y-30883100D01*
X95701703Y-30728228D01*
X95669000Y-30563816D01*
X95669000Y-30396184D01*
X95701703Y-30231772D01*
X95765853Y-30076900D01*
X95858985Y-29937519D01*
X95977519Y-29818985D01*
X96116900Y-29725853D01*
X96271772Y-29661703D01*
X96436184Y-29629000D01*
X96603816Y-29629000D01*
X96768228Y-29661703D01*
X96768228Y-29661703D01*
G37*
G36*
X91768228Y-29661703D02*
G01*
X91923100Y-29725853D01*
X92062481Y-29818985D01*
X92181015Y-29937519D01*
X92274147Y-30076900D01*
X92338297Y-30231772D01*
X92371000Y-30396184D01*
X92371000Y-30563816D01*
X92338297Y-30728228D01*
X92274147Y-30883100D01*
X92181015Y-31022481D01*
X92062481Y-31141015D01*
X91923100Y-31234147D01*
X91768228Y-31298297D01*
X91603816Y-31331000D01*
X91436184Y-31331000D01*
X91271772Y-31298297D01*
X91116900Y-31234147D01*
X90977519Y-31141015D01*
X90858985Y-31022481D01*
X90765853Y-30883100D01*
X90701703Y-30728228D01*
X90669000Y-30563816D01*
X90669000Y-30396184D01*
X90701703Y-30231772D01*
X90765853Y-30076900D01*
X90858985Y-29937519D01*
X90977519Y-29818985D01*
X91116900Y-29725853D01*
X91271772Y-29661703D01*
X91436184Y-29629000D01*
X91603816Y-29629000D01*
X91768228Y-29661703D01*
X91768228Y-29661703D01*
G37*
G36*
X105578228Y-28391703D02*
G01*
X105733100Y-28455853D01*
X105872481Y-28548985D01*
X105991015Y-28667519D01*
X106084147Y-28806900D01*
X106148297Y-28961772D01*
X106181000Y-29126184D01*
X106181000Y-29293816D01*
X106148297Y-29458228D01*
X106084147Y-29613100D01*
X105991015Y-29752481D01*
X105872481Y-29871015D01*
X105733100Y-29964147D01*
X105578228Y-30028297D01*
X105413816Y-30061000D01*
X105246184Y-30061000D01*
X105081772Y-30028297D01*
X104926900Y-29964147D01*
X104787519Y-29871015D01*
X104668985Y-29752481D01*
X104575853Y-29613100D01*
X104511703Y-29458228D01*
X104479000Y-29293816D01*
X104479000Y-29126184D01*
X104511703Y-28961772D01*
X104575853Y-28806900D01*
X104668985Y-28667519D01*
X104787519Y-28548985D01*
X104926900Y-28455853D01*
X105081772Y-28391703D01*
X105246184Y-28359000D01*
X105413816Y-28359000D01*
X105578228Y-28391703D01*
X105578228Y-28391703D01*
G37*
G36*
X100578228Y-28391703D02*
G01*
X100733100Y-28455853D01*
X100872481Y-28548985D01*
X100991015Y-28667519D01*
X101084147Y-28806900D01*
X101148297Y-28961772D01*
X101181000Y-29126184D01*
X101181000Y-29293816D01*
X101148297Y-29458228D01*
X101084147Y-29613100D01*
X100991015Y-29752481D01*
X100872481Y-29871015D01*
X100733100Y-29964147D01*
X100578228Y-30028297D01*
X100413816Y-30061000D01*
X100246184Y-30061000D01*
X100081772Y-30028297D01*
X99926900Y-29964147D01*
X99787519Y-29871015D01*
X99668985Y-29752481D01*
X99575853Y-29613100D01*
X99511703Y-29458228D01*
X99479000Y-29293816D01*
X99479000Y-29126184D01*
X99511703Y-28961772D01*
X99575853Y-28806900D01*
X99668985Y-28667519D01*
X99787519Y-28548985D01*
X99926900Y-28455853D01*
X100081772Y-28391703D01*
X100246184Y-28359000D01*
X100413816Y-28359000D01*
X100578228Y-28391703D01*
X100578228Y-28391703D01*
G37*
M02*
