M48
; DRILL file {KiCad (5.1.0)-1} date 05/19/19 02:09:06
; FORMAT={-:-/ absolute / inch / decimal}
; #@! TF.CreationDate,2019-05-19T02:09:06+02:00
; #@! TF.GenerationSoftware,Kicad,Pcbnew,(5.1.0)-1
; #@! TF.FileFunction,Plated,1,2,PTH
FMAT,2
INCH
T1C0.0315
T2C0.0320
T3C0.0394
T4C0.0598
T5C0.1260
%
G90
G05
T1
X6.6214Y-2.4608
X7.1998Y-2.3383
X7.1998Y-2.5352
X7.9871Y-2.6478
X7.7896Y-2.5198
X7.9865Y-2.5198
X6.5592Y-2.048
X6.7561Y-2.048
X6.5591Y-2.6892
X6.756Y-2.6892
X6.6214Y-2.2687
X8.0164Y-1.875
X8.0164Y-2.175
X8.2732Y-1.9062
X8.2732Y-2.2062
X7.7902Y-2.6478
X8.145Y-1.8924
X8.145Y-2.1924
T2
X7.3678Y-1.8358
X7.3678Y-1.9358
X7.3678Y-2.0358
X7.3678Y-2.1358
X7.3678Y-2.2358
X7.3678Y-2.3358
X7.3678Y-2.4358
X7.3678Y-2.5358
X7.3678Y-2.6358
X7.3678Y-2.7358
X7.3678Y-2.8358
X7.3678Y-2.9358
X7.3678Y-3.0358
X7.3678Y-3.1358
X7.6678Y-1.8358
X7.6678Y-1.9358
X7.6678Y-2.0358
X7.6678Y-2.1358
X7.6678Y-2.2358
X7.6678Y-2.3358
X7.6678Y-2.4358
X7.6678Y-2.5358
X7.6678Y-2.6358
X7.6678Y-2.7358
X7.6678Y-2.8358
X7.6678Y-2.9358
X7.6678Y-3.0358
X7.6678Y-3.1358
T3
X7.6028Y-3.3532
X7.6028Y-3.4532
X7.6028Y-3.5532
X8.1224Y-2.334
X8.1224Y-2.434
X8.1224Y-2.534
X8.1224Y-2.634
X8.1224Y-2.734
X8.1224Y-2.834
X6.9362Y-1.9502
X6.9362Y-2.0502
X6.9362Y-2.1502
X6.9362Y-2.2502
X6.9362Y-2.3502
X6.9362Y-2.4502
X7.2968Y-3.354
X7.2968Y-3.454
X7.2968Y-3.554
X7.8772Y-1.835
X7.8772Y-1.935
X7.8772Y-2.035
X7.8772Y-2.135
X7.8772Y-2.235
X7.205Y-2.6968
X7.205Y-2.7968
X7.205Y-2.8968
X7.205Y-2.9968
X7.205Y-3.0968
X7.205Y-3.1968
T4
X7.9202Y-3.022
X7.9202Y-3.222
X7.9202Y-3.422
X8.3132Y-2.4208
X8.5132Y-2.4208
X8.7132Y-2.4208
T5
X8.3058Y-3.03
X8.946Y-2.2022
X6.3276Y-2.2224
X6.9448Y-3.1288
T0
M30
