M48
; DRILL file {KiCad (5.1.2)-1} date 05/22/19 15:10:39
; FORMAT={-:-/ absolute / inch / decimal}
; #@! TF.CreationDate,2019-05-22T15:10:39+02:00
; #@! TF.GenerationSoftware,Kicad,Pcbnew,(5.1.2)-1
; #@! TF.FileFunction,Plated,1,2,PTH
FMAT,2
INCH
T1C0.0315
T2C0.0320
T3C0.0394
T4C0.0433
T5C0.0598
T6C0.1260
%
G90
G05
T1
X4.3Y-1.85
X3.7031Y-1.8
X3.95Y-1.15
X3.6031Y-1.2
X3.95Y-2.05
X4.1469Y-2.05
X4.3Y-2.05
X4.4969Y-2.05
X4.1079Y-1.85
X3.9Y-1.8
X4.1469Y-1.15
X2.85Y-2.35
X3.15Y-2.35
X3.8Y-1.2
T2
X3.15Y-1.35
X3.15Y-1.65
X3.25Y-1.35
X3.25Y-1.65
X3.35Y-1.35
X3.35Y-1.65
X3.45Y-1.35
X3.45Y-1.65
X3.55Y-1.35
X3.55Y-1.65
X3.65Y-1.35
X3.65Y-1.65
X3.75Y-1.35
X3.75Y-1.65
X3.85Y-1.35
X3.85Y-1.65
X3.95Y-1.35
X3.95Y-1.65
X4.05Y-1.35
X4.05Y-1.65
X4.15Y-1.35
X4.15Y-1.65
X4.25Y-1.35
X4.25Y-1.65
X4.35Y-1.35
X4.35Y-1.65
X4.45Y-1.35
X4.45Y-1.65
T3
X2.9606Y-1.6
X2.9606Y-1.7
X2.9606Y-1.8
X2.8106Y-1.6
X2.8106Y-1.7
X2.8106Y-1.8
X5.2Y-1.8
X5.2Y-1.9
X5.2Y-2.0
X5.2Y-2.1
X5.2Y-2.2
X5.2Y-2.3
X2.85Y-2.15
X2.95Y-2.15
X3.05Y-2.15
X3.15Y-2.15
X3.25Y-2.15
X3.35Y-2.15
X3.45Y-2.15
X3.55Y-2.15
X3.65Y-2.15
X3.75Y-2.15
X3.4Y-2.35
X3.5Y-2.35
X3.6Y-2.35
X3.7Y-2.35
X3.8Y-2.35
X4.9Y-1.8
X4.9Y-1.9
X4.9Y-2.0
X4.9Y-2.1
X4.9Y-2.2
X4.9Y-2.3
T4
X1.8606Y-1.5441
X1.8606Y-1.8
X2.0378Y-1.5441
X2.0378Y-1.8
T5
X2.2106Y-1.5
X2.4106Y-1.5
X2.6106Y-1.5
X1.6303Y-1.95
X1.6303Y-2.15
X1.6303Y-2.35
T6
X4.75Y-1.45
X2.9Y-1.2
X1.3Y-2.3
X5.7Y-2.3
T0
M30
