G04 #@! TF.GenerationSoftware,KiCad,Pcbnew,(5.1.2)-1*
G04 #@! TF.CreationDate,2019-05-22T15:10:38+02:00*
G04 #@! TF.ProjectId,ADClock1,4144436c-6f63-46b3-912e-6b696361645f,rev?*
G04 #@! TF.SameCoordinates,Original*
G04 #@! TF.FileFunction,Copper,L1,Top*
G04 #@! TF.FilePolarity,Positive*
%FSLAX46Y46*%
G04 Gerber Fmt 4.6, Leading zero omitted, Abs format (unit mm)*
G04 Created by KiCad (PCBNEW (5.1.2)-1) date 2019-05-22 15:10:38*
%MOMM*%
%LPD*%
G04 APERTURE LIST*
%ADD10C,1.600000*%
%ADD11R,1.700000X1.700000*%
%ADD12O,1.700000X1.700000*%
%ADD13C,3.000000*%
%ADD14R,3.000000X3.000000*%
%ADD15C,6.400000*%
%ADD16O,1.320800X2.641600*%
%ADD17O,1.600000X1.600000*%
%ADD18C,2.000000*%
%ADD19C,1.500000*%
%ADD20C,1.000000*%
%ADD21C,0.500000*%
%ADD22C,0.254000*%
G04 APERTURE END LIST*
D10*
X100330000Y-52070000D03*
X105330000Y-52070000D03*
X109220000Y-52070000D03*
X114220000Y-52070000D03*
X91520000Y-30480000D03*
X96520000Y-30480000D03*
X100330000Y-29210000D03*
X105330000Y-29210000D03*
X94060000Y-45720000D03*
X99060000Y-45720000D03*
D11*
X95250000Y-54610000D03*
D12*
X92710000Y-54610000D03*
X90170000Y-54610000D03*
X87630000Y-54610000D03*
X85090000Y-54610000D03*
X82550000Y-54610000D03*
X80010000Y-54610000D03*
X77470000Y-54610000D03*
X74930000Y-54610000D03*
X72390000Y-54610000D03*
D13*
X41410000Y-49530000D03*
X41410000Y-54610000D03*
D14*
X41410000Y-59690000D03*
D15*
X73660000Y-30480000D03*
X144780000Y-58420000D03*
X120650000Y-36830000D03*
X33020000Y-58420000D03*
D12*
X75200000Y-40640000D03*
X75200000Y-43180000D03*
D11*
X75200000Y-45720000D03*
D12*
X71390000Y-40640000D03*
X71390000Y-43180000D03*
D11*
X71390000Y-45720000D03*
D16*
X80010000Y-41910000D03*
X82550000Y-41910000D03*
X85090000Y-41910000D03*
X87630000Y-41910000D03*
X90170000Y-41910000D03*
X92710000Y-41910000D03*
X95250000Y-41910000D03*
X97790000Y-41910000D03*
X100330000Y-41910000D03*
X102870000Y-41910000D03*
X105410000Y-41910000D03*
X107950000Y-41910000D03*
X110490000Y-41910000D03*
X113030000Y-41910000D03*
X113030000Y-34290000D03*
X110490000Y-34290000D03*
X107950000Y-34290000D03*
X105410000Y-34290000D03*
X102870000Y-34290000D03*
X100330000Y-34290000D03*
X97790000Y-34290000D03*
X95250000Y-34290000D03*
X92710000Y-34290000D03*
X90170000Y-34290000D03*
X87630000Y-34290000D03*
X85090000Y-34290000D03*
X82550000Y-34290000D03*
X80010000Y-34290000D03*
D11*
X86360000Y-59690000D03*
D12*
X88900000Y-59690000D03*
X91440000Y-59690000D03*
X93980000Y-59690000D03*
X96520000Y-59690000D03*
D10*
X72390000Y-59690000D03*
D17*
X80010000Y-59690000D03*
D11*
X132080000Y-45720000D03*
D12*
X132080000Y-48260000D03*
X132080000Y-50800000D03*
X132080000Y-53340000D03*
X132080000Y-55880000D03*
X132080000Y-58420000D03*
X124460000Y-58420000D03*
X124460000Y-55880000D03*
X124460000Y-53340000D03*
X124460000Y-50800000D03*
X124460000Y-48260000D03*
D11*
X124460000Y-45720000D03*
D18*
X51760000Y-45720000D03*
X47260000Y-45720000D03*
X51760000Y-39220000D03*
X47260000Y-39220000D03*
D14*
X56150000Y-38100000D03*
D13*
X61230000Y-38100000D03*
X66310000Y-38100000D03*
D19*
X109220000Y-46990000D03*
X104340000Y-46990000D03*
D20*
X40140000Y-58420000D02*
X41410000Y-59690000D01*
X33020000Y-58420000D02*
X40140000Y-58420000D01*
X41410000Y-59690000D02*
X41410000Y-54610000D01*
X41410000Y-54610000D02*
X41410000Y-49530000D01*
X73660000Y-30480000D02*
X91520000Y-30480000D01*
X104530001Y-28410001D02*
X105330000Y-29210000D01*
X103829999Y-27709999D02*
X104530001Y-28410001D01*
X94290001Y-27709999D02*
X103829999Y-27709999D01*
X91520000Y-30480000D02*
X94290001Y-27709999D01*
X113030000Y-29210000D02*
X120650000Y-36830000D01*
X105330000Y-29210000D02*
X113030000Y-29210000D01*
X120650000Y-36830000D02*
X129540000Y-36830000D01*
X144780000Y-52070000D02*
X144780000Y-58420000D01*
X129540000Y-36830000D02*
X144780000Y-52070000D01*
X134620000Y-48260000D02*
X132080000Y-48260000D01*
X144780000Y-58420000D02*
X134620000Y-48260000D01*
X101129999Y-52869999D02*
X100330000Y-52070000D01*
X102870000Y-54610000D02*
X101129999Y-52869999D01*
X111680000Y-54610000D02*
X102870000Y-54610000D01*
X114220000Y-52070000D02*
X111680000Y-54610000D01*
X94829999Y-60539999D02*
X93980000Y-59690000D01*
X95530001Y-61240001D02*
X94829999Y-60539999D01*
X97264001Y-61240001D02*
X95530001Y-61240001D01*
X100330000Y-58174002D02*
X97264001Y-61240001D01*
X100330000Y-52070000D02*
X100330000Y-58174002D01*
X75200000Y-43180000D02*
X71390000Y-43180000D01*
D21*
X97790000Y-44450000D02*
X99060000Y-45720000D01*
X97790000Y-41910000D02*
X97790000Y-44450000D01*
X99060000Y-50800000D02*
X100330000Y-52070000D01*
X99060000Y-45720000D02*
X99060000Y-50800000D01*
D20*
X95250000Y-34210000D02*
X95250000Y-34290000D01*
X91520000Y-30480000D02*
X95250000Y-34210000D01*
X93130001Y-60539999D02*
X93980000Y-59690000D01*
X90489990Y-63180010D02*
X93130001Y-60539999D01*
X49980010Y-63180010D02*
X90489990Y-63180010D01*
X41410000Y-54610000D02*
X49980010Y-63180010D01*
X43450000Y-49530000D02*
X47260000Y-45720000D01*
X41410000Y-49530000D02*
X43450000Y-49530000D01*
X47260000Y-45720000D02*
X47260000Y-39220000D01*
D21*
X105330000Y-47980000D02*
X104340000Y-46990000D01*
X105330000Y-52070000D02*
X105330000Y-47980000D01*
X103590001Y-46240001D02*
X104340000Y-46990000D01*
X100330000Y-42980000D02*
X103590001Y-46240001D01*
X100330000Y-41910000D02*
X100330000Y-42980000D01*
X108159340Y-46990000D02*
X109220000Y-46990000D01*
X107289600Y-46990000D02*
X108159340Y-46990000D01*
X102870000Y-42570400D02*
X107289600Y-46990000D01*
X102870000Y-41910000D02*
X102870000Y-42570400D01*
X109220000Y-46990000D02*
X109220000Y-52070000D01*
D20*
X96520000Y-33020000D02*
X97790000Y-34290000D01*
X96520000Y-30480000D02*
X96520000Y-33020000D01*
D21*
X85010000Y-59690000D02*
X86360000Y-59690000D01*
X82470000Y-62230000D02*
X85010000Y-59690000D01*
X74930000Y-62230000D02*
X82470000Y-62230000D01*
X72390000Y-59690000D02*
X74930000Y-62230000D01*
X51760000Y-40634213D02*
X51760000Y-45720000D01*
X51760000Y-39220000D02*
X51760000Y-40634213D01*
X58420000Y-45720000D02*
X72390000Y-59690000D01*
X51760000Y-45720000D02*
X58420000Y-45720000D01*
X124460000Y-55880000D02*
X110490000Y-41910000D01*
X119169878Y-41209990D02*
X114789888Y-36830000D01*
X125429880Y-41209990D02*
X119169878Y-41209990D01*
X128970010Y-44750120D02*
X125429880Y-41209990D01*
X132080000Y-50800000D02*
X128970010Y-47690010D01*
X128970010Y-47690010D02*
X128970010Y-44750120D01*
X110490000Y-34950400D02*
X110490000Y-34290000D01*
X112369600Y-36830000D02*
X110490000Y-34950400D01*
X114789888Y-36830000D02*
X112369600Y-36830000D01*
X111099600Y-38100000D02*
X107950000Y-34950400D01*
X132080000Y-53340000D02*
X128270000Y-49530000D01*
X107950000Y-34950400D02*
X107950000Y-34290000D01*
X128270000Y-49530000D02*
X128270000Y-45040073D01*
X128270000Y-45040073D02*
X125139927Y-41910000D01*
X125139927Y-41910000D02*
X118879926Y-41910000D01*
X118879926Y-41910000D02*
X115069926Y-38100000D01*
X115069926Y-38100000D02*
X111099600Y-38100000D01*
X90170000Y-33629600D02*
X90170000Y-34290000D01*
X88309590Y-31769190D02*
X90170000Y-33629600D01*
X79310091Y-31769190D02*
X88309590Y-31769190D01*
X72239999Y-38839283D02*
X79310091Y-31769190D01*
X72239999Y-39790001D02*
X72239999Y-38839283D01*
X71390000Y-40640000D02*
X72239999Y-39790001D01*
D20*
X56150000Y-38100000D02*
X61230000Y-38100000D01*
X66310000Y-38100000D02*
X61230000Y-38100000D01*
X68850000Y-45720000D02*
X71390000Y-45720000D01*
X61230000Y-38100000D02*
X68850000Y-45720000D01*
X71390000Y-45720000D02*
X75200000Y-45720000D01*
X78878630Y-59690000D02*
X80010000Y-59690000D01*
X75175998Y-59690000D02*
X78878630Y-59690000D01*
X70839999Y-55354001D02*
X75175998Y-59690000D01*
X70839999Y-51930001D02*
X70839999Y-55354001D01*
X75200000Y-47570000D02*
X70839999Y-51930001D01*
X75200000Y-45720000D02*
X75200000Y-47570000D01*
X94859999Y-46519999D02*
X94060000Y-45720000D01*
X97790000Y-49450000D02*
X94859999Y-46519999D01*
X97790000Y-58420000D02*
X97790000Y-49450000D01*
X96520000Y-59690000D02*
X97790000Y-58420000D01*
X94060000Y-43100000D02*
X95250000Y-41910000D01*
X94060000Y-45720000D02*
X94060000Y-43100000D01*
X100330000Y-34950400D02*
X100330000Y-34290000D01*
X95250000Y-41910000D02*
X95250000Y-40030400D01*
X95250000Y-40030400D02*
X100330000Y-34950400D01*
X100330000Y-34290000D02*
X100330000Y-29210000D01*
D21*
X124460000Y-58420000D02*
X107950000Y-41910000D01*
X113030000Y-41910000D02*
X124460000Y-53340000D01*
X132080000Y-55880000D02*
X127000000Y-50800000D01*
X127000000Y-44760035D02*
X125419965Y-43180000D01*
X127000000Y-50800000D02*
X127000000Y-44760035D01*
X115349964Y-39370000D02*
X108279562Y-39370000D01*
X125419965Y-43180000D02*
X119159964Y-43180000D01*
X119159964Y-43180000D02*
X115349964Y-39370000D01*
X105410000Y-36500438D02*
X105410000Y-34290000D01*
X108279562Y-39370000D02*
X105410000Y-36500438D01*
X125670001Y-44419999D02*
X119410001Y-44419999D01*
X125760001Y-44509999D02*
X125670001Y-44419999D01*
X132080000Y-58420000D02*
X125760001Y-52100001D01*
X125760001Y-52100001D02*
X125760001Y-44509999D01*
X102870000Y-34950400D02*
X102870000Y-34290000D01*
X108058790Y-40139190D02*
X102870000Y-34950400D01*
X115129192Y-40139190D02*
X108058790Y-40139190D01*
X119410001Y-44419999D02*
X115129192Y-40139190D01*
X92710000Y-41910000D02*
X92710000Y-54610000D01*
X90170000Y-54610000D02*
X90170000Y-41910000D01*
X87630000Y-41910000D02*
X87630000Y-54610000D01*
X85090000Y-54610000D02*
X85090000Y-41910000D01*
X90590001Y-58840001D02*
X91440000Y-59690000D01*
X87660001Y-55910001D02*
X90590001Y-58840001D01*
X86390001Y-55910001D02*
X87660001Y-55910001D01*
X85090000Y-54610000D02*
X86390001Y-55910001D01*
X82550000Y-41910000D02*
X82550000Y-54610000D01*
X88050001Y-58840001D02*
X88900000Y-59690000D01*
X85120001Y-55910001D02*
X88050001Y-58840001D01*
X83850001Y-55910001D02*
X85120001Y-55910001D01*
X82550000Y-54610000D02*
X83850001Y-55910001D01*
X80010000Y-36110800D02*
X80010000Y-34290000D01*
X81120410Y-37221210D02*
X80010000Y-36110800D01*
X81120410Y-53499590D02*
X81120410Y-37221210D01*
X80010000Y-54610000D02*
X81120410Y-53499590D01*
X82550000Y-33629600D02*
X82550000Y-34290000D01*
X81389600Y-32469200D02*
X82550000Y-33629600D01*
X79600044Y-32469200D02*
X81389600Y-32469200D01*
X77470000Y-34599244D02*
X79600044Y-32469200D01*
X77470000Y-54610000D02*
X77470000Y-34599244D01*
D22*
G36*
X122228224Y-29636350D02*
G01*
X142008900Y-44502952D01*
X152015695Y-59705899D01*
X151700968Y-63080184D01*
X150091579Y-64139507D01*
X28606882Y-64139507D01*
X26997492Y-63080184D01*
X26814744Y-61120881D01*
X30498724Y-61120881D01*
X30858912Y-61610548D01*
X31522882Y-61970849D01*
X32244385Y-62194694D01*
X32995695Y-62273480D01*
X33747938Y-62204178D01*
X34472208Y-61989452D01*
X35140670Y-61637555D01*
X35181088Y-61610548D01*
X35490433Y-61190000D01*
X39271928Y-61190000D01*
X39284188Y-61314482D01*
X39320498Y-61434180D01*
X39379463Y-61544494D01*
X39458815Y-61641185D01*
X39555506Y-61720537D01*
X39665820Y-61779502D01*
X39785518Y-61815812D01*
X39910000Y-61828072D01*
X41124250Y-61825000D01*
X41283000Y-61666250D01*
X41283000Y-59817000D01*
X41537000Y-59817000D01*
X41537000Y-61666250D01*
X41695750Y-61825000D01*
X42910000Y-61828072D01*
X43034482Y-61815812D01*
X43154180Y-61779502D01*
X43264494Y-61720537D01*
X43361185Y-61641185D01*
X43440537Y-61544494D01*
X43499502Y-61434180D01*
X43535812Y-61314482D01*
X43548072Y-61190000D01*
X43545000Y-59975750D01*
X43386250Y-59817000D01*
X41537000Y-59817000D01*
X41283000Y-59817000D01*
X39433750Y-59817000D01*
X39275000Y-59975750D01*
X39271928Y-61190000D01*
X35490433Y-61190000D01*
X35541276Y-61120881D01*
X33020000Y-58599605D01*
X30498724Y-61120881D01*
X26814744Y-61120881D01*
X26682765Y-59705898D01*
X27545159Y-58395695D01*
X29166520Y-58395695D01*
X29235822Y-59147938D01*
X29450548Y-59872208D01*
X29802445Y-60540670D01*
X29829452Y-60581088D01*
X30319119Y-60941276D01*
X32840395Y-58420000D01*
X33199605Y-58420000D01*
X35720881Y-60941276D01*
X36210548Y-60581088D01*
X36570849Y-59917118D01*
X36794694Y-59195615D01*
X36873480Y-58444305D01*
X36850052Y-58190000D01*
X39271928Y-58190000D01*
X39275000Y-59404250D01*
X39433750Y-59563000D01*
X41283000Y-59563000D01*
X41283000Y-57713750D01*
X41537000Y-57713750D01*
X41537000Y-59563000D01*
X43386250Y-59563000D01*
X43545000Y-59404250D01*
X43548072Y-58190000D01*
X43535812Y-58065518D01*
X43499502Y-57945820D01*
X43440537Y-57835506D01*
X43361185Y-57738815D01*
X43264494Y-57659463D01*
X43154180Y-57600498D01*
X43034482Y-57564188D01*
X42910000Y-57551928D01*
X41695750Y-57555000D01*
X41537000Y-57713750D01*
X41283000Y-57713750D01*
X41124250Y-57555000D01*
X39910000Y-57551928D01*
X39785518Y-57564188D01*
X39665820Y-57600498D01*
X39555506Y-57659463D01*
X39458815Y-57738815D01*
X39379463Y-57835506D01*
X39320498Y-57945820D01*
X39284188Y-58065518D01*
X39271928Y-58190000D01*
X36850052Y-58190000D01*
X36804178Y-57692062D01*
X36589452Y-56967792D01*
X36237555Y-56299330D01*
X36210548Y-56258912D01*
X35996759Y-56101653D01*
X40097952Y-56101653D01*
X40253962Y-56417214D01*
X40628745Y-56608020D01*
X41033551Y-56722044D01*
X41452824Y-56754902D01*
X41870451Y-56705334D01*
X42270383Y-56575243D01*
X42566038Y-56417214D01*
X42722048Y-56101653D01*
X41410000Y-54789605D01*
X40097952Y-56101653D01*
X35996759Y-56101653D01*
X35720881Y-55898724D01*
X33199605Y-58420000D01*
X32840395Y-58420000D01*
X30319119Y-55898724D01*
X29829452Y-56258912D01*
X29469151Y-56922882D01*
X29245306Y-57644385D01*
X29166520Y-58395695D01*
X27545159Y-58395695D01*
X29306919Y-55719119D01*
X30498724Y-55719119D01*
X33020000Y-58240395D01*
X35541276Y-55719119D01*
X35181088Y-55229452D01*
X34517118Y-54869151D01*
X33819848Y-54652824D01*
X39265098Y-54652824D01*
X39314666Y-55070451D01*
X39444757Y-55470383D01*
X39602786Y-55766038D01*
X39918347Y-55922048D01*
X41230395Y-54610000D01*
X41589605Y-54610000D01*
X42901653Y-55922048D01*
X43217214Y-55766038D01*
X43408020Y-55391255D01*
X43522044Y-54986449D01*
X43554902Y-54567176D01*
X43505334Y-54149549D01*
X43375243Y-53749617D01*
X43217214Y-53453962D01*
X42901653Y-53297952D01*
X41589605Y-54610000D01*
X41230395Y-54610000D01*
X39918347Y-53297952D01*
X39602786Y-53453962D01*
X39411980Y-53828745D01*
X39297956Y-54233551D01*
X39265098Y-54652824D01*
X33819848Y-54652824D01*
X33795615Y-54645306D01*
X33044305Y-54566520D01*
X32292062Y-54635822D01*
X31567792Y-54850548D01*
X30899330Y-55202445D01*
X30858912Y-55229452D01*
X30498724Y-55719119D01*
X29306919Y-55719119D01*
X31018784Y-53118347D01*
X40097952Y-53118347D01*
X41410000Y-54430395D01*
X42722048Y-53118347D01*
X42566038Y-52802786D01*
X42191255Y-52611980D01*
X41786449Y-52497956D01*
X41367176Y-52465098D01*
X40949549Y-52514666D01*
X40549617Y-52644757D01*
X40253962Y-52802786D01*
X40097952Y-53118347D01*
X31018784Y-53118347D01*
X32398858Y-51021653D01*
X40097952Y-51021653D01*
X40253962Y-51337214D01*
X40628745Y-51528020D01*
X41033551Y-51642044D01*
X41452824Y-51674902D01*
X41870451Y-51625334D01*
X42270383Y-51495243D01*
X42566038Y-51337214D01*
X42722048Y-51021653D01*
X41410000Y-49709605D01*
X40097952Y-51021653D01*
X32398858Y-51021653D01*
X33352498Y-49572824D01*
X39265098Y-49572824D01*
X39314666Y-49990451D01*
X39444757Y-50390383D01*
X39602786Y-50686038D01*
X39918347Y-50842048D01*
X41230395Y-49530000D01*
X41589605Y-49530000D01*
X42901653Y-50842048D01*
X43217214Y-50686038D01*
X43408020Y-50311255D01*
X43522044Y-49906449D01*
X43554902Y-49487176D01*
X43505334Y-49069549D01*
X43375243Y-48669617D01*
X43217214Y-48373962D01*
X42901653Y-48217952D01*
X41589605Y-49530000D01*
X41230395Y-49530000D01*
X39918347Y-48217952D01*
X39602786Y-48373962D01*
X39411980Y-48748745D01*
X39297956Y-49153551D01*
X39265098Y-49572824D01*
X33352498Y-49572824D01*
X34362512Y-48038347D01*
X40097952Y-48038347D01*
X41410000Y-49350395D01*
X42722048Y-48038347D01*
X42566038Y-47722786D01*
X42191255Y-47531980D01*
X41786449Y-47417956D01*
X41367176Y-47385098D01*
X40949549Y-47434666D01*
X40549617Y-47564757D01*
X40253962Y-47722786D01*
X40097952Y-48038347D01*
X34362512Y-48038347D01*
X35141135Y-46855413D01*
X46304192Y-46855413D01*
X46399956Y-47119814D01*
X46689571Y-47260704D01*
X47001108Y-47342384D01*
X47322595Y-47361718D01*
X47641675Y-47317961D01*
X47946088Y-47212795D01*
X48120044Y-47119814D01*
X48215808Y-46855413D01*
X47260000Y-45899605D01*
X46304192Y-46855413D01*
X35141135Y-46855413D01*
X35847280Y-45782595D01*
X45618282Y-45782595D01*
X45662039Y-46101675D01*
X45767205Y-46406088D01*
X45860186Y-46580044D01*
X46124587Y-46675808D01*
X47080395Y-45720000D01*
X47439605Y-45720000D01*
X48395413Y-46675808D01*
X48659814Y-46580044D01*
X48800704Y-46290429D01*
X48882384Y-45978892D01*
X48901718Y-45657405D01*
X48857961Y-45338325D01*
X48752795Y-45033912D01*
X48659814Y-44859956D01*
X48395413Y-44764192D01*
X47439605Y-45720000D01*
X47080395Y-45720000D01*
X46124587Y-44764192D01*
X45860186Y-44859956D01*
X45719296Y-45149571D01*
X45637616Y-45461108D01*
X45618282Y-45782595D01*
X35847280Y-45782595D01*
X36635827Y-44584587D01*
X46304192Y-44584587D01*
X47260000Y-45540395D01*
X48215808Y-44584587D01*
X48120044Y-44320186D01*
X47830429Y-44179296D01*
X47518892Y-44097616D01*
X47197405Y-44078282D01*
X46878325Y-44122039D01*
X46573912Y-44227205D01*
X46399956Y-44320186D01*
X46304192Y-44584587D01*
X36635827Y-44584587D01*
X36689562Y-44502950D01*
X42208044Y-40355413D01*
X46304192Y-40355413D01*
X46399956Y-40619814D01*
X46689571Y-40760704D01*
X47001108Y-40842384D01*
X47322595Y-40861718D01*
X47641675Y-40817961D01*
X47946088Y-40712795D01*
X48120044Y-40619814D01*
X48215808Y-40355413D01*
X47260000Y-39399605D01*
X46304192Y-40355413D01*
X42208044Y-40355413D01*
X43635477Y-39282595D01*
X45618282Y-39282595D01*
X45662039Y-39601675D01*
X45767205Y-39906088D01*
X45860186Y-40080044D01*
X46124587Y-40175808D01*
X47080395Y-39220000D01*
X47439605Y-39220000D01*
X48395413Y-40175808D01*
X48659814Y-40080044D01*
X48800704Y-39790429D01*
X48882384Y-39478892D01*
X48901718Y-39157405D01*
X48888219Y-39058967D01*
X50125000Y-39058967D01*
X50125000Y-39381033D01*
X50187832Y-39696912D01*
X50311082Y-39994463D01*
X50490013Y-40262252D01*
X50717748Y-40489987D01*
X50875000Y-40595059D01*
X50875001Y-44344940D01*
X50717748Y-44450013D01*
X50490013Y-44677748D01*
X50311082Y-44945537D01*
X50187832Y-45243088D01*
X50125000Y-45558967D01*
X50125000Y-45881033D01*
X50187832Y-46196912D01*
X50311082Y-46494463D01*
X50490013Y-46762252D01*
X50717748Y-46989987D01*
X50985537Y-47168918D01*
X51283088Y-47292168D01*
X51598967Y-47355000D01*
X51921033Y-47355000D01*
X52236912Y-47292168D01*
X52534463Y-47168918D01*
X52802252Y-46989987D01*
X53029987Y-46762252D01*
X53135059Y-46605000D01*
X58053422Y-46605000D01*
X70961983Y-59513562D01*
X70955000Y-59548665D01*
X70955000Y-59831335D01*
X71010147Y-60108574D01*
X71118320Y-60369727D01*
X71275363Y-60604759D01*
X71475241Y-60804637D01*
X71710273Y-60961680D01*
X71971426Y-61069853D01*
X72248665Y-61125000D01*
X72531335Y-61125000D01*
X72566439Y-61118017D01*
X74273470Y-62825049D01*
X74301183Y-62858817D01*
X74334951Y-62886530D01*
X74334953Y-62886532D01*
X74337678Y-62888768D01*
X74435941Y-62969411D01*
X74589687Y-63051589D01*
X74756510Y-63102195D01*
X74886523Y-63115000D01*
X74886533Y-63115000D01*
X74929999Y-63119281D01*
X74973465Y-63115000D01*
X82426531Y-63115000D01*
X82470000Y-63119281D01*
X82513469Y-63115000D01*
X82513477Y-63115000D01*
X82643490Y-63102195D01*
X82810313Y-63051589D01*
X82964059Y-62969411D01*
X83098817Y-62858817D01*
X83126534Y-62825044D01*
X85014451Y-60937127D01*
X85058815Y-60991185D01*
X85155506Y-61070537D01*
X85265820Y-61129502D01*
X85385518Y-61165812D01*
X85510000Y-61178072D01*
X87210000Y-61178072D01*
X87334482Y-61165812D01*
X87454180Y-61129502D01*
X87564494Y-61070537D01*
X87661185Y-60991185D01*
X87740537Y-60894494D01*
X87799502Y-60784180D01*
X87820393Y-60715313D01*
X87844866Y-60745134D01*
X88070986Y-60930706D01*
X88328966Y-61068599D01*
X88608889Y-61153513D01*
X88827050Y-61175000D01*
X88972950Y-61175000D01*
X89191111Y-61153513D01*
X89471034Y-61068599D01*
X89729014Y-60930706D01*
X89955134Y-60745134D01*
X90140706Y-60519014D01*
X90170000Y-60464209D01*
X90199294Y-60519014D01*
X90384866Y-60745134D01*
X90610986Y-60930706D01*
X90868966Y-61068599D01*
X91148889Y-61153513D01*
X91367050Y-61175000D01*
X91512950Y-61175000D01*
X91731111Y-61153513D01*
X92011034Y-61068599D01*
X92269014Y-60930706D01*
X92495134Y-60745134D01*
X92680706Y-60519014D01*
X92715201Y-60454477D01*
X92784822Y-60571355D01*
X92979731Y-60787588D01*
X93213080Y-60961641D01*
X93475901Y-61086825D01*
X93623110Y-61131476D01*
X93853000Y-61010155D01*
X93853000Y-59817000D01*
X93833000Y-59817000D01*
X93833000Y-59563000D01*
X93853000Y-59563000D01*
X93853000Y-58369845D01*
X93623110Y-58248524D01*
X93475901Y-58293175D01*
X93213080Y-58418359D01*
X92979731Y-58592412D01*
X92784822Y-58808645D01*
X92715201Y-58925523D01*
X92680706Y-58860986D01*
X92495134Y-58634866D01*
X92269014Y-58449294D01*
X92011034Y-58311401D01*
X91731111Y-58226487D01*
X91512950Y-58205000D01*
X91367050Y-58205000D01*
X91220967Y-58219388D01*
X88675016Y-55673438D01*
X88685134Y-55665134D01*
X88870706Y-55439014D01*
X88900000Y-55384209D01*
X88929294Y-55439014D01*
X89114866Y-55665134D01*
X89340986Y-55850706D01*
X89598966Y-55988599D01*
X89878889Y-56073513D01*
X90097050Y-56095000D01*
X90242950Y-56095000D01*
X90461111Y-56073513D01*
X90741034Y-55988599D01*
X90999014Y-55850706D01*
X91225134Y-55665134D01*
X91410706Y-55439014D01*
X91440000Y-55384209D01*
X91469294Y-55439014D01*
X91654866Y-55665134D01*
X91880986Y-55850706D01*
X92138966Y-55988599D01*
X92418889Y-56073513D01*
X92637050Y-56095000D01*
X92782950Y-56095000D01*
X93001111Y-56073513D01*
X93281034Y-55988599D01*
X93539014Y-55850706D01*
X93765134Y-55665134D01*
X93789607Y-55635313D01*
X93810498Y-55704180D01*
X93869463Y-55814494D01*
X93948815Y-55911185D01*
X94045506Y-55990537D01*
X94155820Y-56049502D01*
X94275518Y-56085812D01*
X94400000Y-56098072D01*
X96100000Y-56098072D01*
X96224482Y-56085812D01*
X96344180Y-56049502D01*
X96454494Y-55990537D01*
X96551185Y-55911185D01*
X96630537Y-55814494D01*
X96655000Y-55768727D01*
X96655000Y-57949868D01*
X96394714Y-58210155D01*
X96228889Y-58226487D01*
X95948966Y-58311401D01*
X95690986Y-58449294D01*
X95464866Y-58634866D01*
X95279294Y-58860986D01*
X95244799Y-58925523D01*
X95175178Y-58808645D01*
X94980269Y-58592412D01*
X94746920Y-58418359D01*
X94484099Y-58293175D01*
X94336890Y-58248524D01*
X94107000Y-58369845D01*
X94107000Y-59563000D01*
X94127000Y-59563000D01*
X94127000Y-59817000D01*
X94107000Y-59817000D01*
X94107000Y-61010155D01*
X94336890Y-61131476D01*
X94484099Y-61086825D01*
X94746920Y-60961641D01*
X94980269Y-60787588D01*
X95175178Y-60571355D01*
X95244799Y-60454477D01*
X95279294Y-60519014D01*
X95464866Y-60745134D01*
X95690986Y-60930706D01*
X95948966Y-61068599D01*
X96228889Y-61153513D01*
X96447050Y-61175000D01*
X96592950Y-61175000D01*
X96811111Y-61153513D01*
X96918683Y-61120881D01*
X142258724Y-61120881D01*
X142618912Y-61610548D01*
X143282882Y-61970849D01*
X144004385Y-62194694D01*
X144755695Y-62273480D01*
X145507938Y-62204178D01*
X146232208Y-61989452D01*
X146900670Y-61637555D01*
X146941088Y-61610548D01*
X147301276Y-61120881D01*
X144780000Y-58599605D01*
X142258724Y-61120881D01*
X96918683Y-61120881D01*
X97091034Y-61068599D01*
X97349014Y-60930706D01*
X97575134Y-60745134D01*
X97760706Y-60519014D01*
X97898599Y-60261034D01*
X97983513Y-59981111D01*
X97999845Y-59815286D01*
X98553140Y-59261992D01*
X98596449Y-59226449D01*
X98738284Y-59053623D01*
X98843676Y-58856447D01*
X98908577Y-58642499D01*
X98925000Y-58475752D01*
X98925000Y-58475745D01*
X98930490Y-58420001D01*
X98925000Y-58364257D01*
X98925000Y-53062702D01*
X99516903Y-53062702D01*
X99588486Y-53306671D01*
X99843996Y-53427571D01*
X100118184Y-53496300D01*
X100400512Y-53510217D01*
X100680130Y-53468787D01*
X100946292Y-53373603D01*
X101071514Y-53306671D01*
X101143097Y-53062702D01*
X100330000Y-52249605D01*
X99516903Y-53062702D01*
X98925000Y-53062702D01*
X98925000Y-52378197D01*
X98931213Y-52420130D01*
X99026397Y-52686292D01*
X99093329Y-52811514D01*
X99337298Y-52883097D01*
X100150395Y-52070000D01*
X100509605Y-52070000D01*
X101322702Y-52883097D01*
X101566671Y-52811514D01*
X101687571Y-52556004D01*
X101756300Y-52281816D01*
X101770217Y-51999488D01*
X101728787Y-51719870D01*
X101633603Y-51453708D01*
X101566671Y-51328486D01*
X101322702Y-51256903D01*
X100509605Y-52070000D01*
X100150395Y-52070000D01*
X99337298Y-51256903D01*
X99093329Y-51328486D01*
X98972429Y-51583996D01*
X98925000Y-51773210D01*
X98925000Y-51077298D01*
X99516903Y-51077298D01*
X100330000Y-51890395D01*
X101143097Y-51077298D01*
X101071514Y-50833329D01*
X100816004Y-50712429D01*
X100541816Y-50643700D01*
X100259488Y-50629783D01*
X99979870Y-50671213D01*
X99713708Y-50766397D01*
X99588486Y-50833329D01*
X99516903Y-51077298D01*
X98925000Y-51077298D01*
X98925000Y-49505751D01*
X98930491Y-49449999D01*
X98908577Y-49227500D01*
X98850467Y-49035941D01*
X98843676Y-49013553D01*
X98738284Y-48816377D01*
X98596449Y-48643551D01*
X98553141Y-48608009D01*
X96657834Y-46712702D01*
X98246903Y-46712702D01*
X98318486Y-46956671D01*
X98573996Y-47077571D01*
X98848184Y-47146300D01*
X99130512Y-47160217D01*
X99410130Y-47118787D01*
X99676292Y-47023603D01*
X99801514Y-46956671D01*
X99873097Y-46712702D01*
X99060000Y-45899605D01*
X98246903Y-46712702D01*
X96657834Y-46712702D01*
X95735644Y-45790512D01*
X97619783Y-45790512D01*
X97661213Y-46070130D01*
X97756397Y-46336292D01*
X97823329Y-46461514D01*
X98067298Y-46533097D01*
X98880395Y-45720000D01*
X99239605Y-45720000D01*
X100052702Y-46533097D01*
X100296671Y-46461514D01*
X100417571Y-46206004D01*
X100486300Y-45931816D01*
X100500217Y-45649488D01*
X100458787Y-45369870D01*
X100363603Y-45103708D01*
X100296671Y-44978486D01*
X100052702Y-44906903D01*
X99239605Y-45720000D01*
X98880395Y-45720000D01*
X98067298Y-44906903D01*
X97823329Y-44978486D01*
X97702429Y-45233996D01*
X97633700Y-45508184D01*
X97619783Y-45790512D01*
X95735644Y-45790512D01*
X95701991Y-45756860D01*
X95701987Y-45756855D01*
X95487850Y-45542718D01*
X95439853Y-45301426D01*
X95331680Y-45040273D01*
X95195000Y-44835716D01*
X95195000Y-44727298D01*
X98246903Y-44727298D01*
X99060000Y-45540395D01*
X99873097Y-44727298D01*
X99801514Y-44483329D01*
X99546004Y-44362429D01*
X99271816Y-44293700D01*
X98989488Y-44279783D01*
X98709870Y-44321213D01*
X98443708Y-44416397D01*
X98318486Y-44483329D01*
X98246903Y-44727298D01*
X95195000Y-44727298D01*
X95195000Y-43866650D01*
X95250000Y-43872067D01*
X95503943Y-43847056D01*
X95748126Y-43772983D01*
X95973167Y-43652697D01*
X96170418Y-43490818D01*
X96332297Y-43293567D01*
X96452583Y-43068526D01*
X96522506Y-42838023D01*
X96544267Y-42947680D01*
X96641807Y-43183461D01*
X96783471Y-43395683D01*
X96963816Y-43576189D01*
X97175911Y-43718044D01*
X97411605Y-43815795D01*
X97462895Y-43823820D01*
X97663000Y-43699933D01*
X97663000Y-42037000D01*
X97643000Y-42037000D01*
X97643000Y-41783000D01*
X97663000Y-41783000D01*
X97663000Y-40120067D01*
X97462895Y-39996180D01*
X97411605Y-40004205D01*
X97175911Y-40101956D01*
X96963816Y-40243811D01*
X96783471Y-40424317D01*
X96641807Y-40636539D01*
X96544267Y-40872320D01*
X96522506Y-40981977D01*
X96452583Y-40751474D01*
X96385000Y-40625034D01*
X96385000Y-40500531D01*
X100690931Y-36194601D01*
X100828126Y-36152983D01*
X101053167Y-36032697D01*
X101250418Y-35870818D01*
X101412297Y-35673567D01*
X101532583Y-35448526D01*
X101600000Y-35226285D01*
X101667417Y-35448526D01*
X101787704Y-35673567D01*
X101949583Y-35870818D01*
X102146834Y-36032697D01*
X102371875Y-36152983D01*
X102616058Y-36227056D01*
X102870000Y-36252067D01*
X102915598Y-36247576D01*
X107014987Y-40346966D01*
X106867703Y-40526434D01*
X106747417Y-40751475D01*
X106680000Y-40973716D01*
X106612583Y-40751474D01*
X106492297Y-40526433D01*
X106330418Y-40329182D01*
X106133166Y-40167303D01*
X105908125Y-40047017D01*
X105663942Y-39972944D01*
X105410000Y-39947933D01*
X105156057Y-39972944D01*
X104911874Y-40047017D01*
X104686833Y-40167303D01*
X104489582Y-40329182D01*
X104327703Y-40526434D01*
X104207417Y-40751475D01*
X104140000Y-40973716D01*
X104072583Y-40751474D01*
X103952297Y-40526433D01*
X103790418Y-40329182D01*
X103593166Y-40167303D01*
X103368125Y-40047017D01*
X103123942Y-39972944D01*
X102870000Y-39947933D01*
X102616057Y-39972944D01*
X102371874Y-40047017D01*
X102146833Y-40167303D01*
X101949582Y-40329182D01*
X101787703Y-40526434D01*
X101667417Y-40751475D01*
X101600000Y-40973716D01*
X101532583Y-40751474D01*
X101412297Y-40526433D01*
X101250418Y-40329182D01*
X101053166Y-40167303D01*
X100828125Y-40047017D01*
X100583942Y-39972944D01*
X100330000Y-39947933D01*
X100076057Y-39972944D01*
X99831874Y-40047017D01*
X99606833Y-40167303D01*
X99409582Y-40329182D01*
X99247703Y-40526434D01*
X99127417Y-40751475D01*
X99057494Y-40981977D01*
X99035733Y-40872320D01*
X98938193Y-40636539D01*
X98796529Y-40424317D01*
X98616184Y-40243811D01*
X98404089Y-40101956D01*
X98168395Y-40004205D01*
X98117105Y-39996180D01*
X97917000Y-40120067D01*
X97917000Y-41783000D01*
X97937000Y-41783000D01*
X97937000Y-42037000D01*
X97917000Y-42037000D01*
X97917000Y-43699933D01*
X98117105Y-43823820D01*
X98168395Y-43815795D01*
X98404089Y-43718044D01*
X98616184Y-43576189D01*
X98796529Y-43395683D01*
X98938193Y-43183461D01*
X99035733Y-42947680D01*
X99057494Y-42838023D01*
X99127417Y-43068526D01*
X99247704Y-43293567D01*
X99409583Y-43490818D01*
X99606834Y-43652697D01*
X99831875Y-43772983D01*
X99888618Y-43790196D01*
X102955000Y-46856579D01*
X102955000Y-47126411D01*
X103008225Y-47393989D01*
X103112629Y-47646043D01*
X103264201Y-47872886D01*
X103457114Y-48065799D01*
X103683957Y-48217371D01*
X103936011Y-48321775D01*
X104203589Y-48375000D01*
X104445001Y-48375000D01*
X104445000Y-50935479D01*
X104415241Y-50955363D01*
X104215363Y-51155241D01*
X104058320Y-51390273D01*
X103950147Y-51651426D01*
X103895000Y-51928665D01*
X103895000Y-52211335D01*
X103950147Y-52488574D01*
X104058320Y-52749727D01*
X104215363Y-52984759D01*
X104415241Y-53184637D01*
X104650273Y-53341680D01*
X104911426Y-53449853D01*
X105188665Y-53505000D01*
X105471335Y-53505000D01*
X105748574Y-53449853D01*
X106009727Y-53341680D01*
X106244759Y-53184637D01*
X106444637Y-52984759D01*
X106601680Y-52749727D01*
X106709853Y-52488574D01*
X106765000Y-52211335D01*
X106765000Y-51928665D01*
X106709853Y-51651426D01*
X106601680Y-51390273D01*
X106444637Y-51155241D01*
X106244759Y-50955363D01*
X106215000Y-50935479D01*
X106215000Y-48023465D01*
X106219281Y-47979999D01*
X106215000Y-47936533D01*
X106215000Y-47936523D01*
X106202195Y-47806510D01*
X106151589Y-47639687D01*
X106069411Y-47485941D01*
X106013617Y-47417956D01*
X105986532Y-47384953D01*
X105986530Y-47384951D01*
X105958817Y-47351183D01*
X105925049Y-47323470D01*
X105725000Y-47123421D01*
X105725000Y-46853589D01*
X105681147Y-46633126D01*
X106633070Y-47585049D01*
X106660783Y-47618817D01*
X106694551Y-47646530D01*
X106694553Y-47646532D01*
X106711560Y-47660489D01*
X106795541Y-47729411D01*
X106949287Y-47811589D01*
X107116110Y-47862195D01*
X107246123Y-47875000D01*
X107246133Y-47875000D01*
X107289599Y-47879281D01*
X107333065Y-47875000D01*
X108146315Y-47875000D01*
X108335000Y-48063685D01*
X108335001Y-50935478D01*
X108305241Y-50955363D01*
X108105363Y-51155241D01*
X107948320Y-51390273D01*
X107840147Y-51651426D01*
X107785000Y-51928665D01*
X107785000Y-52211335D01*
X107840147Y-52488574D01*
X107948320Y-52749727D01*
X108105363Y-52984759D01*
X108305241Y-53184637D01*
X108540273Y-53341680D01*
X108801426Y-53449853D01*
X109078665Y-53505000D01*
X109361335Y-53505000D01*
X109638574Y-53449853D01*
X109899727Y-53341680D01*
X110134759Y-53184637D01*
X110256694Y-53062702D01*
X113406903Y-53062702D01*
X113478486Y-53306671D01*
X113733996Y-53427571D01*
X114008184Y-53496300D01*
X114290512Y-53510217D01*
X114570130Y-53468787D01*
X114836292Y-53373603D01*
X114961514Y-53306671D01*
X115033097Y-53062702D01*
X114220000Y-52249605D01*
X113406903Y-53062702D01*
X110256694Y-53062702D01*
X110334637Y-52984759D01*
X110491680Y-52749727D01*
X110599853Y-52488574D01*
X110655000Y-52211335D01*
X110655000Y-52140512D01*
X112779783Y-52140512D01*
X112821213Y-52420130D01*
X112916397Y-52686292D01*
X112983329Y-52811514D01*
X113227298Y-52883097D01*
X114040395Y-52070000D01*
X114399605Y-52070000D01*
X115212702Y-52883097D01*
X115456671Y-52811514D01*
X115577571Y-52556004D01*
X115646300Y-52281816D01*
X115660217Y-51999488D01*
X115618787Y-51719870D01*
X115523603Y-51453708D01*
X115456671Y-51328486D01*
X115212702Y-51256903D01*
X114399605Y-52070000D01*
X114040395Y-52070000D01*
X113227298Y-51256903D01*
X112983329Y-51328486D01*
X112862429Y-51583996D01*
X112793700Y-51858184D01*
X112779783Y-52140512D01*
X110655000Y-52140512D01*
X110655000Y-51928665D01*
X110599853Y-51651426D01*
X110491680Y-51390273D01*
X110334637Y-51155241D01*
X110256694Y-51077298D01*
X113406903Y-51077298D01*
X114220000Y-51890395D01*
X115033097Y-51077298D01*
X114961514Y-50833329D01*
X114706004Y-50712429D01*
X114431816Y-50643700D01*
X114149488Y-50629783D01*
X113869870Y-50671213D01*
X113603708Y-50766397D01*
X113478486Y-50833329D01*
X113406903Y-51077298D01*
X110256694Y-51077298D01*
X110134759Y-50955363D01*
X110105000Y-50935479D01*
X110105000Y-48063685D01*
X110295799Y-47872886D01*
X110447371Y-47646043D01*
X110551775Y-47393989D01*
X110605000Y-47126411D01*
X110605000Y-46853589D01*
X110551775Y-46586011D01*
X110447371Y-46333957D01*
X110295799Y-46107114D01*
X110102886Y-45914201D01*
X109876043Y-45762629D01*
X109623989Y-45658225D01*
X109356411Y-45605000D01*
X109083589Y-45605000D01*
X108816011Y-45658225D01*
X108563957Y-45762629D01*
X108337114Y-45914201D01*
X108146315Y-46105000D01*
X107656179Y-46105000D01*
X105422058Y-43870879D01*
X105663943Y-43847056D01*
X105908126Y-43772983D01*
X106133167Y-43652697D01*
X106330418Y-43490818D01*
X106492297Y-43293567D01*
X106612583Y-43068526D01*
X106680000Y-42846285D01*
X106747417Y-43068526D01*
X106867704Y-43293567D01*
X107029583Y-43490818D01*
X107226834Y-43652697D01*
X107451875Y-43772983D01*
X107696058Y-43847056D01*
X107950000Y-43872067D01*
X108203943Y-43847056D01*
X108448126Y-43772983D01*
X108521947Y-43733525D01*
X122989388Y-58200967D01*
X122967815Y-58420000D01*
X122996487Y-58711111D01*
X123081401Y-58991034D01*
X123219294Y-59249014D01*
X123404866Y-59475134D01*
X123630986Y-59660706D01*
X123888966Y-59798599D01*
X124168889Y-59883513D01*
X124387050Y-59905000D01*
X124532950Y-59905000D01*
X124751111Y-59883513D01*
X125031034Y-59798599D01*
X125289014Y-59660706D01*
X125515134Y-59475134D01*
X125700706Y-59249014D01*
X125838599Y-58991034D01*
X125923513Y-58711111D01*
X125952185Y-58420000D01*
X125923513Y-58128889D01*
X125838599Y-57848966D01*
X125700706Y-57590986D01*
X125515134Y-57364866D01*
X125289014Y-57179294D01*
X125234209Y-57150000D01*
X125289014Y-57120706D01*
X125515134Y-56935134D01*
X125700706Y-56709014D01*
X125838599Y-56451034D01*
X125923513Y-56171111D01*
X125952185Y-55880000D01*
X125923513Y-55588889D01*
X125838599Y-55308966D01*
X125700706Y-55050986D01*
X125515134Y-54824866D01*
X125289014Y-54639294D01*
X125234209Y-54610000D01*
X125289014Y-54580706D01*
X125515134Y-54395134D01*
X125700706Y-54169014D01*
X125838599Y-53911034D01*
X125923513Y-53631111D01*
X125933915Y-53525494D01*
X130609388Y-58200967D01*
X130587815Y-58420000D01*
X130616487Y-58711111D01*
X130701401Y-58991034D01*
X130839294Y-59249014D01*
X131024866Y-59475134D01*
X131250986Y-59660706D01*
X131508966Y-59798599D01*
X131788889Y-59883513D01*
X132007050Y-59905000D01*
X132152950Y-59905000D01*
X132371111Y-59883513D01*
X132651034Y-59798599D01*
X132909014Y-59660706D01*
X133135134Y-59475134D01*
X133320706Y-59249014D01*
X133458599Y-58991034D01*
X133543513Y-58711111D01*
X133572185Y-58420000D01*
X133569792Y-58395695D01*
X140926520Y-58395695D01*
X140995822Y-59147938D01*
X141210548Y-59872208D01*
X141562445Y-60540670D01*
X141589452Y-60581088D01*
X142079119Y-60941276D01*
X144600395Y-58420000D01*
X144959605Y-58420000D01*
X147480881Y-60941276D01*
X147970548Y-60581088D01*
X148330849Y-59917118D01*
X148554694Y-59195615D01*
X148633480Y-58444305D01*
X148564178Y-57692062D01*
X148349452Y-56967792D01*
X147997555Y-56299330D01*
X147970548Y-56258912D01*
X147480881Y-55898724D01*
X144959605Y-58420000D01*
X144600395Y-58420000D01*
X142079119Y-55898724D01*
X141589452Y-56258912D01*
X141229151Y-56922882D01*
X141005306Y-57644385D01*
X140926520Y-58395695D01*
X133569792Y-58395695D01*
X133543513Y-58128889D01*
X133458599Y-57848966D01*
X133320706Y-57590986D01*
X133135134Y-57364866D01*
X132909014Y-57179294D01*
X132854209Y-57150000D01*
X132909014Y-57120706D01*
X133135134Y-56935134D01*
X133320706Y-56709014D01*
X133458599Y-56451034D01*
X133543513Y-56171111D01*
X133572185Y-55880000D01*
X133556340Y-55719119D01*
X142258724Y-55719119D01*
X144780000Y-58240395D01*
X147301276Y-55719119D01*
X146941088Y-55229452D01*
X146277118Y-54869151D01*
X145555615Y-54645306D01*
X144804305Y-54566520D01*
X144052062Y-54635822D01*
X143327792Y-54850548D01*
X142659330Y-55202445D01*
X142618912Y-55229452D01*
X142258724Y-55719119D01*
X133556340Y-55719119D01*
X133543513Y-55588889D01*
X133458599Y-55308966D01*
X133320706Y-55050986D01*
X133135134Y-54824866D01*
X132909014Y-54639294D01*
X132854209Y-54610000D01*
X132909014Y-54580706D01*
X133135134Y-54395134D01*
X133320706Y-54169014D01*
X133458599Y-53911034D01*
X133543513Y-53631111D01*
X133572185Y-53340000D01*
X133543513Y-53048889D01*
X133458599Y-52768966D01*
X133320706Y-52510986D01*
X133135134Y-52284866D01*
X132909014Y-52099294D01*
X132854209Y-52070000D01*
X132909014Y-52040706D01*
X133135134Y-51855134D01*
X133320706Y-51629014D01*
X133458599Y-51371034D01*
X133543513Y-51091111D01*
X133572185Y-50800000D01*
X133543513Y-50508889D01*
X133458599Y-50228966D01*
X133320706Y-49970986D01*
X133135134Y-49744866D01*
X132909014Y-49559294D01*
X132844477Y-49524799D01*
X132961355Y-49455178D01*
X133177588Y-49260269D01*
X133351641Y-49026920D01*
X133476825Y-48764099D01*
X133521476Y-48616890D01*
X133400155Y-48387000D01*
X132207000Y-48387000D01*
X132207000Y-48407000D01*
X131953000Y-48407000D01*
X131953000Y-48387000D01*
X131933000Y-48387000D01*
X131933000Y-48133000D01*
X131953000Y-48133000D01*
X131953000Y-48113000D01*
X132207000Y-48113000D01*
X132207000Y-48133000D01*
X133400155Y-48133000D01*
X133521476Y-47903110D01*
X133476825Y-47755901D01*
X133351641Y-47493080D01*
X133177588Y-47259731D01*
X133093534Y-47183966D01*
X133174180Y-47159502D01*
X133284494Y-47100537D01*
X133381185Y-47021185D01*
X133460537Y-46924494D01*
X133519502Y-46814180D01*
X133555812Y-46694482D01*
X133568072Y-46570000D01*
X133568072Y-44870000D01*
X133555812Y-44745518D01*
X133519502Y-44625820D01*
X133460537Y-44515506D01*
X133381185Y-44418815D01*
X133284494Y-44339463D01*
X133174180Y-44280498D01*
X133054482Y-44244188D01*
X132930000Y-44231928D01*
X131230000Y-44231928D01*
X131105518Y-44244188D01*
X130985820Y-44280498D01*
X130875506Y-44339463D01*
X130778815Y-44418815D01*
X130699463Y-44515506D01*
X130640498Y-44625820D01*
X130604188Y-44745518D01*
X130591928Y-44870000D01*
X130591928Y-46570000D01*
X130604188Y-46694482D01*
X130640498Y-46814180D01*
X130699463Y-46924494D01*
X130778815Y-47021185D01*
X130875506Y-47100537D01*
X130985820Y-47159502D01*
X131066466Y-47183966D01*
X130982412Y-47259731D01*
X130808359Y-47493080D01*
X130683175Y-47755901D01*
X130638524Y-47903110D01*
X130759844Y-48132998D01*
X130664576Y-48132998D01*
X129855010Y-47323432D01*
X129855010Y-44793589D01*
X129859291Y-44750120D01*
X129855010Y-44706651D01*
X129855010Y-44706643D01*
X129842205Y-44576630D01*
X129791599Y-44409807D01*
X129709421Y-44256061D01*
X129685739Y-44227205D01*
X129626542Y-44155073D01*
X129626540Y-44155071D01*
X129598827Y-44121303D01*
X129565059Y-44093590D01*
X126086414Y-40614946D01*
X126058697Y-40581173D01*
X125923939Y-40470579D01*
X125770193Y-40388401D01*
X125603370Y-40337795D01*
X125473357Y-40324990D01*
X125473349Y-40324990D01*
X125429880Y-40320709D01*
X125386411Y-40324990D01*
X122243656Y-40324990D01*
X122770670Y-40047555D01*
X122811088Y-40020548D01*
X123171276Y-39530881D01*
X120650000Y-37009605D01*
X120635858Y-37023748D01*
X120456253Y-36844143D01*
X120470395Y-36830000D01*
X120829605Y-36830000D01*
X123350881Y-39351276D01*
X123840548Y-38991088D01*
X124200849Y-38327118D01*
X124424694Y-37605615D01*
X124503480Y-36854305D01*
X124434178Y-36102062D01*
X124219452Y-35377792D01*
X123867555Y-34709330D01*
X123840548Y-34668912D01*
X123350881Y-34308724D01*
X120829605Y-36830000D01*
X120470395Y-36830000D01*
X117949119Y-34308724D01*
X117459452Y-34668912D01*
X117099151Y-35332882D01*
X116875306Y-36054385D01*
X116796520Y-36805695D01*
X116865822Y-37557938D01*
X116906453Y-37694987D01*
X115446422Y-36234956D01*
X115418705Y-36201183D01*
X115283947Y-36090589D01*
X115130201Y-36008411D01*
X114963378Y-35957805D01*
X114833365Y-35945000D01*
X114833357Y-35945000D01*
X114789888Y-35940719D01*
X114746419Y-35945000D01*
X113860027Y-35945000D01*
X113950418Y-35870818D01*
X114112297Y-35673567D01*
X114232583Y-35448526D01*
X114306656Y-35204343D01*
X114325400Y-35014030D01*
X114325400Y-34129119D01*
X118128724Y-34129119D01*
X120650000Y-36650395D01*
X123171276Y-34129119D01*
X122811088Y-33639452D01*
X122147118Y-33279151D01*
X121425615Y-33055306D01*
X120674305Y-32976520D01*
X119922062Y-33045822D01*
X119197792Y-33260548D01*
X118529330Y-33612445D01*
X118488912Y-33639452D01*
X118128724Y-34129119D01*
X114325400Y-34129119D01*
X114325400Y-33565970D01*
X114306656Y-33375657D01*
X114232583Y-33131474D01*
X114112297Y-32906433D01*
X113950418Y-32709182D01*
X113753166Y-32547303D01*
X113528125Y-32427017D01*
X113283942Y-32352944D01*
X113030000Y-32327933D01*
X112776057Y-32352944D01*
X112531874Y-32427017D01*
X112306833Y-32547303D01*
X112109582Y-32709182D01*
X111947703Y-32906434D01*
X111827417Y-33131475D01*
X111760000Y-33353716D01*
X111692583Y-33131474D01*
X111572297Y-32906433D01*
X111410418Y-32709182D01*
X111213166Y-32547303D01*
X110988125Y-32427017D01*
X110743942Y-32352944D01*
X110490000Y-32327933D01*
X110236057Y-32352944D01*
X109991874Y-32427017D01*
X109766833Y-32547303D01*
X109569582Y-32709182D01*
X109407703Y-32906434D01*
X109287417Y-33131475D01*
X109220000Y-33353716D01*
X109152583Y-33131474D01*
X109032297Y-32906433D01*
X108870418Y-32709182D01*
X108673166Y-32547303D01*
X108448125Y-32427017D01*
X108203942Y-32352944D01*
X107950000Y-32327933D01*
X107696057Y-32352944D01*
X107451874Y-32427017D01*
X107226833Y-32547303D01*
X107029582Y-32709182D01*
X106867703Y-32906434D01*
X106747417Y-33131475D01*
X106680000Y-33353716D01*
X106612583Y-33131474D01*
X106492297Y-32906433D01*
X106330418Y-32709182D01*
X106133166Y-32547303D01*
X105908125Y-32427017D01*
X105663942Y-32352944D01*
X105410000Y-32327933D01*
X105156057Y-32352944D01*
X104911874Y-32427017D01*
X104686833Y-32547303D01*
X104489582Y-32709182D01*
X104327703Y-32906434D01*
X104207417Y-33131475D01*
X104140000Y-33353716D01*
X104072583Y-33131474D01*
X103952297Y-32906433D01*
X103790418Y-32709182D01*
X103593166Y-32547303D01*
X103368125Y-32427017D01*
X103123942Y-32352944D01*
X102870000Y-32327933D01*
X102616057Y-32352944D01*
X102371874Y-32427017D01*
X102146833Y-32547303D01*
X101949582Y-32709182D01*
X101787703Y-32906434D01*
X101667417Y-33131475D01*
X101600000Y-33353716D01*
X101532583Y-33131474D01*
X101465000Y-33005034D01*
X101465000Y-30202702D01*
X104516903Y-30202702D01*
X104588486Y-30446671D01*
X104843996Y-30567571D01*
X105118184Y-30636300D01*
X105400512Y-30650217D01*
X105680130Y-30608787D01*
X105946292Y-30513603D01*
X106071514Y-30446671D01*
X106143097Y-30202702D01*
X105330000Y-29389605D01*
X104516903Y-30202702D01*
X101465000Y-30202702D01*
X101465000Y-30094284D01*
X101601680Y-29889727D01*
X101709853Y-29628574D01*
X101765000Y-29351335D01*
X101765000Y-29280512D01*
X103889783Y-29280512D01*
X103931213Y-29560130D01*
X104026397Y-29826292D01*
X104093329Y-29951514D01*
X104337298Y-30023097D01*
X105150395Y-29210000D01*
X105509605Y-29210000D01*
X106322702Y-30023097D01*
X106566671Y-29951514D01*
X106687571Y-29696004D01*
X106756300Y-29421816D01*
X106770217Y-29139488D01*
X106728787Y-28859870D01*
X106633603Y-28593708D01*
X106566671Y-28468486D01*
X106322702Y-28396903D01*
X105509605Y-29210000D01*
X105150395Y-29210000D01*
X104337298Y-28396903D01*
X104093329Y-28468486D01*
X103972429Y-28723996D01*
X103903700Y-28998184D01*
X103889783Y-29280512D01*
X101765000Y-29280512D01*
X101765000Y-29068665D01*
X101709853Y-28791426D01*
X101601680Y-28530273D01*
X101444637Y-28295241D01*
X101366694Y-28217298D01*
X104516903Y-28217298D01*
X105330000Y-29030395D01*
X106143097Y-28217298D01*
X106071514Y-27973329D01*
X105816004Y-27852429D01*
X105541816Y-27783700D01*
X105259488Y-27769783D01*
X104979870Y-27811213D01*
X104713708Y-27906397D01*
X104588486Y-27973329D01*
X104516903Y-28217298D01*
X101366694Y-28217298D01*
X101244759Y-28095363D01*
X101009727Y-27938320D01*
X100748574Y-27830147D01*
X100471335Y-27775000D01*
X100188665Y-27775000D01*
X99911426Y-27830147D01*
X99650273Y-27938320D01*
X99415241Y-28095363D01*
X99215363Y-28295241D01*
X99058320Y-28530273D01*
X98950147Y-28791426D01*
X98895000Y-29068665D01*
X98895000Y-29351335D01*
X98950147Y-29628574D01*
X99058320Y-29889727D01*
X99195001Y-30094285D01*
X99195000Y-33005035D01*
X99127417Y-33131475D01*
X99060000Y-33353716D01*
X98992583Y-33131474D01*
X98872297Y-32906433D01*
X98710418Y-32709182D01*
X98513166Y-32547303D01*
X98288125Y-32427017D01*
X98043942Y-32352944D01*
X97790000Y-32327933D01*
X97655000Y-32341229D01*
X97655000Y-31364284D01*
X97791680Y-31159727D01*
X97899853Y-30898574D01*
X97955000Y-30621335D01*
X97955000Y-30338665D01*
X97899853Y-30061426D01*
X97791680Y-29800273D01*
X97634637Y-29565241D01*
X97434759Y-29365363D01*
X97199727Y-29208320D01*
X96938574Y-29100147D01*
X96661335Y-29045000D01*
X96378665Y-29045000D01*
X96101426Y-29100147D01*
X95840273Y-29208320D01*
X95605241Y-29365363D01*
X95405363Y-29565241D01*
X95248320Y-29800273D01*
X95140147Y-30061426D01*
X95085000Y-30338665D01*
X95085000Y-30621335D01*
X95140147Y-30898574D01*
X95248320Y-31159727D01*
X95385000Y-31364284D01*
X95385001Y-32495114D01*
X95377000Y-32500067D01*
X95377000Y-34163000D01*
X95397000Y-34163000D01*
X95397000Y-34417000D01*
X95377000Y-34417000D01*
X95377000Y-36079933D01*
X95577105Y-36203820D01*
X95628395Y-36195795D01*
X95864089Y-36098044D01*
X96076184Y-35956189D01*
X96256529Y-35775683D01*
X96398193Y-35563461D01*
X96495733Y-35327680D01*
X96517494Y-35218023D01*
X96587417Y-35448526D01*
X96707704Y-35673567D01*
X96869583Y-35870818D01*
X97066834Y-36032697D01*
X97291875Y-36152983D01*
X97468658Y-36206610D01*
X94486860Y-39188409D01*
X94443552Y-39223951D01*
X94301717Y-39396777D01*
X94245384Y-39502170D01*
X94196324Y-39593954D01*
X94131423Y-39807902D01*
X94109509Y-40030400D01*
X94115001Y-40086161D01*
X94115001Y-40625034D01*
X94047417Y-40751475D01*
X93980000Y-40973716D01*
X93912583Y-40751474D01*
X93792297Y-40526433D01*
X93630418Y-40329182D01*
X93433166Y-40167303D01*
X93208125Y-40047017D01*
X92963942Y-39972944D01*
X92710000Y-39947933D01*
X92456057Y-39972944D01*
X92211874Y-40047017D01*
X91986833Y-40167303D01*
X91789582Y-40329182D01*
X91627703Y-40526434D01*
X91507417Y-40751475D01*
X91440000Y-40973716D01*
X91372583Y-40751474D01*
X91252297Y-40526433D01*
X91090418Y-40329182D01*
X90893166Y-40167303D01*
X90668125Y-40047017D01*
X90423942Y-39972944D01*
X90170000Y-39947933D01*
X89916057Y-39972944D01*
X89671874Y-40047017D01*
X89446833Y-40167303D01*
X89249582Y-40329182D01*
X89087703Y-40526434D01*
X88967417Y-40751475D01*
X88900000Y-40973716D01*
X88832583Y-40751474D01*
X88712297Y-40526433D01*
X88550418Y-40329182D01*
X88353166Y-40167303D01*
X88128125Y-40047017D01*
X87883942Y-39972944D01*
X87630000Y-39947933D01*
X87376057Y-39972944D01*
X87131874Y-40047017D01*
X86906833Y-40167303D01*
X86709582Y-40329182D01*
X86547703Y-40526434D01*
X86427417Y-40751475D01*
X86360000Y-40973716D01*
X86292583Y-40751474D01*
X86172297Y-40526433D01*
X86010418Y-40329182D01*
X85813166Y-40167303D01*
X85588125Y-40047017D01*
X85343942Y-39972944D01*
X85090000Y-39947933D01*
X84836057Y-39972944D01*
X84591874Y-40047017D01*
X84366833Y-40167303D01*
X84169582Y-40329182D01*
X84007703Y-40526434D01*
X83887417Y-40751475D01*
X83820000Y-40973716D01*
X83752583Y-40751474D01*
X83632297Y-40526433D01*
X83470418Y-40329182D01*
X83273166Y-40167303D01*
X83048125Y-40047017D01*
X82803942Y-39972944D01*
X82550000Y-39947933D01*
X82296057Y-39972944D01*
X82051874Y-40047017D01*
X82005410Y-40071852D01*
X82005410Y-37264679D01*
X82009691Y-37221210D01*
X82005410Y-37177741D01*
X82005410Y-37177733D01*
X81992605Y-37047720D01*
X81941999Y-36880897D01*
X81859821Y-36727151D01*
X81801847Y-36656510D01*
X81776942Y-36626163D01*
X81776940Y-36626161D01*
X81749227Y-36592393D01*
X81715459Y-36564680D01*
X80971517Y-35820739D01*
X81092297Y-35673567D01*
X81212583Y-35448526D01*
X81280000Y-35226285D01*
X81347417Y-35448526D01*
X81467704Y-35673567D01*
X81629583Y-35870818D01*
X81826834Y-36032697D01*
X82051875Y-36152983D01*
X82296058Y-36227056D01*
X82550000Y-36252067D01*
X82803943Y-36227056D01*
X83048126Y-36152983D01*
X83273167Y-36032697D01*
X83470418Y-35870818D01*
X83632297Y-35673567D01*
X83752583Y-35448526D01*
X83820000Y-35226285D01*
X83887417Y-35448526D01*
X84007704Y-35673567D01*
X84169583Y-35870818D01*
X84366834Y-36032697D01*
X84591875Y-36152983D01*
X84836058Y-36227056D01*
X85090000Y-36252067D01*
X85343943Y-36227056D01*
X85588126Y-36152983D01*
X85813167Y-36032697D01*
X86010418Y-35870818D01*
X86172297Y-35673567D01*
X86292583Y-35448526D01*
X86360000Y-35226285D01*
X86427417Y-35448526D01*
X86547704Y-35673567D01*
X86709583Y-35870818D01*
X86906834Y-36032697D01*
X87131875Y-36152983D01*
X87376058Y-36227056D01*
X87630000Y-36252067D01*
X87883943Y-36227056D01*
X88128126Y-36152983D01*
X88353167Y-36032697D01*
X88550418Y-35870818D01*
X88712297Y-35673567D01*
X88832583Y-35448526D01*
X88900000Y-35226285D01*
X88967417Y-35448526D01*
X89087704Y-35673567D01*
X89249583Y-35870818D01*
X89446834Y-36032697D01*
X89671875Y-36152983D01*
X89916058Y-36227056D01*
X90170000Y-36252067D01*
X90423943Y-36227056D01*
X90668126Y-36152983D01*
X90893167Y-36032697D01*
X91090418Y-35870818D01*
X91252297Y-35673567D01*
X91372583Y-35448526D01*
X91440000Y-35226285D01*
X91507417Y-35448526D01*
X91627704Y-35673567D01*
X91789583Y-35870818D01*
X91986834Y-36032697D01*
X92211875Y-36152983D01*
X92456058Y-36227056D01*
X92710000Y-36252067D01*
X92963943Y-36227056D01*
X93208126Y-36152983D01*
X93433167Y-36032697D01*
X93630418Y-35870818D01*
X93792297Y-35673567D01*
X93912583Y-35448526D01*
X93982506Y-35218023D01*
X94004267Y-35327680D01*
X94101807Y-35563461D01*
X94243471Y-35775683D01*
X94423816Y-35956189D01*
X94635911Y-36098044D01*
X94871605Y-36195795D01*
X94922895Y-36203820D01*
X95123000Y-36079933D01*
X95123000Y-34417000D01*
X95103000Y-34417000D01*
X95103000Y-34163000D01*
X95123000Y-34163000D01*
X95123000Y-32500067D01*
X94922895Y-32376180D01*
X94871605Y-32384205D01*
X94635911Y-32481956D01*
X94423816Y-32623811D01*
X94243471Y-32804317D01*
X94101807Y-33016539D01*
X94004267Y-33252320D01*
X93982506Y-33361977D01*
X93912583Y-33131474D01*
X93792297Y-32906433D01*
X93630418Y-32709182D01*
X93433166Y-32547303D01*
X93208125Y-32427017D01*
X92963942Y-32352944D01*
X92710000Y-32327933D01*
X92456057Y-32352944D01*
X92211874Y-32427017D01*
X91986833Y-32547303D01*
X91789582Y-32709182D01*
X91627703Y-32906434D01*
X91507417Y-33131475D01*
X91440000Y-33353716D01*
X91372583Y-33131474D01*
X91252297Y-32906433D01*
X91090418Y-32709182D01*
X90893166Y-32547303D01*
X90668125Y-32427017D01*
X90423942Y-32352944D01*
X90170000Y-32327933D01*
X90124403Y-32332424D01*
X89264681Y-31472702D01*
X90706903Y-31472702D01*
X90778486Y-31716671D01*
X91033996Y-31837571D01*
X91308184Y-31906300D01*
X91590512Y-31920217D01*
X91870130Y-31878787D01*
X92136292Y-31783603D01*
X92261514Y-31716671D01*
X92333097Y-31472702D01*
X91520000Y-30659605D01*
X90706903Y-31472702D01*
X89264681Y-31472702D01*
X88966124Y-31174146D01*
X88938407Y-31140373D01*
X88803649Y-31029779D01*
X88649903Y-30947601D01*
X88483080Y-30896995D01*
X88353067Y-30884190D01*
X88353059Y-30884190D01*
X88309590Y-30879909D01*
X88266121Y-30884190D01*
X79353560Y-30884190D01*
X79310091Y-30879909D01*
X79266622Y-30884190D01*
X79266614Y-30884190D01*
X79136601Y-30896995D01*
X78969778Y-30947601D01*
X78816032Y-31029779D01*
X78715044Y-31112658D01*
X78715042Y-31112660D01*
X78681274Y-31140373D01*
X78653561Y-31174141D01*
X71644950Y-38182754D01*
X71611183Y-38210466D01*
X71583470Y-38244234D01*
X71583467Y-38244237D01*
X71559460Y-38273490D01*
X71500589Y-38345224D01*
X71446971Y-38445537D01*
X71418411Y-38498970D01*
X71367804Y-38665793D01*
X71350718Y-38839283D01*
X71355000Y-38882759D01*
X71355000Y-39155000D01*
X71317050Y-39155000D01*
X71098889Y-39176487D01*
X70818966Y-39261401D01*
X70560986Y-39399294D01*
X70334866Y-39584866D01*
X70149294Y-39810986D01*
X70011401Y-40068966D01*
X69926487Y-40348889D01*
X69897815Y-40640000D01*
X69926487Y-40931111D01*
X70011401Y-41211034D01*
X70149294Y-41469014D01*
X70334866Y-41695134D01*
X70560986Y-41880706D01*
X70625523Y-41915201D01*
X70508645Y-41984822D01*
X70292412Y-42179731D01*
X70118359Y-42413080D01*
X69993175Y-42675901D01*
X69948524Y-42823110D01*
X70069845Y-43053000D01*
X71263000Y-43053000D01*
X71263000Y-43033000D01*
X71517000Y-43033000D01*
X71517000Y-43053000D01*
X72710155Y-43053000D01*
X72831476Y-42823110D01*
X72786825Y-42675901D01*
X72661641Y-42413080D01*
X72487588Y-42179731D01*
X72271355Y-41984822D01*
X72154477Y-41915201D01*
X72219014Y-41880706D01*
X72445134Y-41695134D01*
X72630706Y-41469014D01*
X72768599Y-41211034D01*
X72853513Y-40931111D01*
X72882185Y-40640000D01*
X72861030Y-40425208D01*
X72868816Y-40418818D01*
X72935311Y-40337795D01*
X72979409Y-40284061D01*
X72979410Y-40284060D01*
X73061588Y-40130314D01*
X73112194Y-39963491D01*
X73124999Y-39833478D01*
X73124999Y-39833468D01*
X73129280Y-39790002D01*
X73124999Y-39746536D01*
X73124999Y-39205861D01*
X76585001Y-35745859D01*
X76585001Y-40090070D01*
X76578599Y-40068966D01*
X76440706Y-39810986D01*
X76255134Y-39584866D01*
X76029014Y-39399294D01*
X75771034Y-39261401D01*
X75491111Y-39176487D01*
X75272950Y-39155000D01*
X75127050Y-39155000D01*
X74908889Y-39176487D01*
X74628966Y-39261401D01*
X74370986Y-39399294D01*
X74144866Y-39584866D01*
X73959294Y-39810986D01*
X73821401Y-40068966D01*
X73736487Y-40348889D01*
X73707815Y-40640000D01*
X73736487Y-40931111D01*
X73821401Y-41211034D01*
X73959294Y-41469014D01*
X74144866Y-41695134D01*
X74370986Y-41880706D01*
X74435523Y-41915201D01*
X74318645Y-41984822D01*
X74102412Y-42179731D01*
X73928359Y-42413080D01*
X73803175Y-42675901D01*
X73758524Y-42823110D01*
X73879845Y-43053000D01*
X75073000Y-43053000D01*
X75073000Y-43033000D01*
X75327000Y-43033000D01*
X75327000Y-43053000D01*
X75347000Y-43053000D01*
X75347000Y-43307000D01*
X75327000Y-43307000D01*
X75327000Y-43327000D01*
X75073000Y-43327000D01*
X75073000Y-43307000D01*
X73879845Y-43307000D01*
X73758524Y-43536890D01*
X73803175Y-43684099D01*
X73928359Y-43946920D01*
X74102412Y-44180269D01*
X74186466Y-44256034D01*
X74105820Y-44280498D01*
X73995506Y-44339463D01*
X73898815Y-44418815D01*
X73819463Y-44515506D01*
X73782317Y-44585000D01*
X72807683Y-44585000D01*
X72770537Y-44515506D01*
X72691185Y-44418815D01*
X72594494Y-44339463D01*
X72484180Y-44280498D01*
X72403534Y-44256034D01*
X72487588Y-44180269D01*
X72661641Y-43946920D01*
X72786825Y-43684099D01*
X72831476Y-43536890D01*
X72710155Y-43307000D01*
X71517000Y-43307000D01*
X71517000Y-43327000D01*
X71263000Y-43327000D01*
X71263000Y-43307000D01*
X70069845Y-43307000D01*
X69948524Y-43536890D01*
X69993175Y-43684099D01*
X70118359Y-43946920D01*
X70292412Y-44180269D01*
X70376466Y-44256034D01*
X70295820Y-44280498D01*
X70185506Y-44339463D01*
X70088815Y-44418815D01*
X70009463Y-44515506D01*
X69972317Y-44585000D01*
X69320132Y-44585000D01*
X63970131Y-39235000D01*
X64500640Y-39235000D01*
X64651637Y-39460983D01*
X64949017Y-39758363D01*
X65298698Y-39992012D01*
X65687244Y-40152953D01*
X66099721Y-40235000D01*
X66520279Y-40235000D01*
X66932756Y-40152953D01*
X67321302Y-39992012D01*
X67670983Y-39758363D01*
X67968363Y-39460983D01*
X68202012Y-39111302D01*
X68362953Y-38722756D01*
X68445000Y-38310279D01*
X68445000Y-37889721D01*
X68362953Y-37477244D01*
X68202012Y-37088698D01*
X67968363Y-36739017D01*
X67670983Y-36441637D01*
X67321302Y-36207988D01*
X66932756Y-36047047D01*
X66520279Y-35965000D01*
X66099721Y-35965000D01*
X65687244Y-36047047D01*
X65298698Y-36207988D01*
X64949017Y-36441637D01*
X64651637Y-36739017D01*
X64500640Y-36965000D01*
X63039360Y-36965000D01*
X62888363Y-36739017D01*
X62590983Y-36441637D01*
X62241302Y-36207988D01*
X61852756Y-36047047D01*
X61440279Y-35965000D01*
X61019721Y-35965000D01*
X60607244Y-36047047D01*
X60218698Y-36207988D01*
X59869017Y-36441637D01*
X59571637Y-36739017D01*
X59420640Y-36965000D01*
X58288072Y-36965000D01*
X58288072Y-36600000D01*
X58275812Y-36475518D01*
X58239502Y-36355820D01*
X58180537Y-36245506D01*
X58101185Y-36148815D01*
X58004494Y-36069463D01*
X57894180Y-36010498D01*
X57774482Y-35974188D01*
X57650000Y-35961928D01*
X54650000Y-35961928D01*
X54525518Y-35974188D01*
X54405820Y-36010498D01*
X54295506Y-36069463D01*
X54198815Y-36148815D01*
X54119463Y-36245506D01*
X54060498Y-36355820D01*
X54024188Y-36475518D01*
X54011928Y-36600000D01*
X54011928Y-39600000D01*
X54024188Y-39724482D01*
X54060498Y-39844180D01*
X54119463Y-39954494D01*
X54198815Y-40051185D01*
X54295506Y-40130537D01*
X54405820Y-40189502D01*
X54525518Y-40225812D01*
X54650000Y-40238072D01*
X57650000Y-40238072D01*
X57774482Y-40225812D01*
X57894180Y-40189502D01*
X58004494Y-40130537D01*
X58101185Y-40051185D01*
X58180537Y-39954494D01*
X58239502Y-39844180D01*
X58275812Y-39724482D01*
X58288072Y-39600000D01*
X58288072Y-39235000D01*
X59420640Y-39235000D01*
X59571637Y-39460983D01*
X59869017Y-39758363D01*
X60218698Y-39992012D01*
X60607244Y-40152953D01*
X61019721Y-40235000D01*
X61440279Y-40235000D01*
X61706845Y-40181977D01*
X68008009Y-46483141D01*
X68043551Y-46526449D01*
X68216377Y-46668284D01*
X68413553Y-46773676D01*
X68627501Y-46838577D01*
X68794248Y-46855000D01*
X68794257Y-46855000D01*
X68849999Y-46860490D01*
X68905741Y-46855000D01*
X69972317Y-46855000D01*
X70009463Y-46924494D01*
X70088815Y-47021185D01*
X70185506Y-47100537D01*
X70295820Y-47159502D01*
X70415518Y-47195812D01*
X70540000Y-47208072D01*
X72240000Y-47208072D01*
X72364482Y-47195812D01*
X72484180Y-47159502D01*
X72594494Y-47100537D01*
X72691185Y-47021185D01*
X72770537Y-46924494D01*
X72807683Y-46855000D01*
X73782317Y-46855000D01*
X73819463Y-46924494D01*
X73898815Y-47021185D01*
X73995506Y-47100537D01*
X74040357Y-47124511D01*
X70076864Y-51088005D01*
X70033550Y-51123552D01*
X69891715Y-51296378D01*
X69786324Y-51493554D01*
X69786323Y-51493555D01*
X69721422Y-51707503D01*
X69699508Y-51930001D01*
X69704999Y-51985753D01*
X69705000Y-55298240D01*
X69699508Y-55354001D01*
X69721422Y-55576499D01*
X69786323Y-55790447D01*
X69818532Y-55850706D01*
X69837189Y-55885610D01*
X59076534Y-45124956D01*
X59048817Y-45091183D01*
X58914059Y-44980589D01*
X58760313Y-44898411D01*
X58593490Y-44847805D01*
X58463477Y-44835000D01*
X58463469Y-44835000D01*
X58420000Y-44830719D01*
X58376531Y-44835000D01*
X53135059Y-44835000D01*
X53029987Y-44677748D01*
X52802252Y-44450013D01*
X52645000Y-44344941D01*
X52645000Y-40595059D01*
X52802252Y-40489987D01*
X53029987Y-40262252D01*
X53208918Y-39994463D01*
X53332168Y-39696912D01*
X53395000Y-39381033D01*
X53395000Y-39058967D01*
X53332168Y-38743088D01*
X53208918Y-38445537D01*
X53029987Y-38177748D01*
X52802252Y-37950013D01*
X52534463Y-37771082D01*
X52236912Y-37647832D01*
X51921033Y-37585000D01*
X51598967Y-37585000D01*
X51283088Y-37647832D01*
X50985537Y-37771082D01*
X50717748Y-37950013D01*
X50490013Y-38177748D01*
X50311082Y-38445537D01*
X50187832Y-38743088D01*
X50125000Y-39058967D01*
X48888219Y-39058967D01*
X48857961Y-38838325D01*
X48752795Y-38533912D01*
X48659814Y-38359956D01*
X48395413Y-38264192D01*
X47439605Y-39220000D01*
X47080395Y-39220000D01*
X46124587Y-38264192D01*
X45860186Y-38359956D01*
X45719296Y-38649571D01*
X45637616Y-38961108D01*
X45618282Y-39282595D01*
X43635477Y-39282595D01*
X45229480Y-38084587D01*
X46304192Y-38084587D01*
X47260000Y-39040395D01*
X48215808Y-38084587D01*
X48120044Y-37820186D01*
X47830429Y-37679296D01*
X47518892Y-37597616D01*
X47197405Y-37578282D01*
X46878325Y-37622039D01*
X46573912Y-37727205D01*
X46399956Y-37820186D01*
X46304192Y-38084587D01*
X45229480Y-38084587D01*
X51754080Y-33180881D01*
X71138724Y-33180881D01*
X71498912Y-33670548D01*
X72162882Y-34030849D01*
X72884385Y-34254694D01*
X73635695Y-34333480D01*
X74387938Y-34264178D01*
X75112208Y-34049452D01*
X75780670Y-33697555D01*
X75821088Y-33670548D01*
X76181276Y-33180881D01*
X73660000Y-30659605D01*
X71138724Y-33180881D01*
X51754080Y-33180881D01*
X55380062Y-30455695D01*
X69806520Y-30455695D01*
X69875822Y-31207938D01*
X70090548Y-31932208D01*
X70442445Y-32600670D01*
X70469452Y-32641088D01*
X70959119Y-33001276D01*
X73480395Y-30480000D01*
X73839605Y-30480000D01*
X76360881Y-33001276D01*
X76850548Y-32641088D01*
X77210849Y-31977118D01*
X77434694Y-31255615D01*
X77508634Y-30550512D01*
X90079783Y-30550512D01*
X90121213Y-30830130D01*
X90216397Y-31096292D01*
X90283329Y-31221514D01*
X90527298Y-31293097D01*
X91340395Y-30480000D01*
X91699605Y-30480000D01*
X92512702Y-31293097D01*
X92756671Y-31221514D01*
X92877571Y-30966004D01*
X92946300Y-30691816D01*
X92960217Y-30409488D01*
X92918787Y-30129870D01*
X92823603Y-29863708D01*
X92756671Y-29738486D01*
X92512702Y-29666903D01*
X91699605Y-30480000D01*
X91340395Y-30480000D01*
X90527298Y-29666903D01*
X90283329Y-29738486D01*
X90162429Y-29993996D01*
X90093700Y-30268184D01*
X90079783Y-30550512D01*
X77508634Y-30550512D01*
X77513480Y-30504305D01*
X77444178Y-29752062D01*
X77365683Y-29487298D01*
X90706903Y-29487298D01*
X91520000Y-30300395D01*
X92333097Y-29487298D01*
X92261514Y-29243329D01*
X92006004Y-29122429D01*
X91731816Y-29053700D01*
X91449488Y-29039783D01*
X91169870Y-29081213D01*
X90903708Y-29176397D01*
X90778486Y-29243329D01*
X90706903Y-29487298D01*
X77365683Y-29487298D01*
X77229452Y-29027792D01*
X76877555Y-28359330D01*
X76850548Y-28318912D01*
X76360881Y-27958724D01*
X73839605Y-30480000D01*
X73480395Y-30480000D01*
X70959119Y-27958724D01*
X70469452Y-28318912D01*
X70109151Y-28982882D01*
X69885306Y-29704385D01*
X69806520Y-30455695D01*
X55380062Y-30455695D01*
X56470239Y-29636349D01*
X62466836Y-27779119D01*
X71138724Y-27779119D01*
X73660000Y-30300395D01*
X76181276Y-27779119D01*
X75821088Y-27289452D01*
X75157118Y-26929151D01*
X74435615Y-26705306D01*
X73684305Y-26626520D01*
X72932062Y-26695822D01*
X72207792Y-26910548D01*
X71539330Y-27262445D01*
X71498912Y-27289452D01*
X71138724Y-27779119D01*
X62466836Y-27779119D01*
X80122842Y-22310808D01*
X98575622Y-22310808D01*
X122228224Y-29636350D01*
X122228224Y-29636350D01*
G37*
X122228224Y-29636350D02*
X142008900Y-44502952D01*
X152015695Y-59705899D01*
X151700968Y-63080184D01*
X150091579Y-64139507D01*
X28606882Y-64139507D01*
X26997492Y-63080184D01*
X26814744Y-61120881D01*
X30498724Y-61120881D01*
X30858912Y-61610548D01*
X31522882Y-61970849D01*
X32244385Y-62194694D01*
X32995695Y-62273480D01*
X33747938Y-62204178D01*
X34472208Y-61989452D01*
X35140670Y-61637555D01*
X35181088Y-61610548D01*
X35490433Y-61190000D01*
X39271928Y-61190000D01*
X39284188Y-61314482D01*
X39320498Y-61434180D01*
X39379463Y-61544494D01*
X39458815Y-61641185D01*
X39555506Y-61720537D01*
X39665820Y-61779502D01*
X39785518Y-61815812D01*
X39910000Y-61828072D01*
X41124250Y-61825000D01*
X41283000Y-61666250D01*
X41283000Y-59817000D01*
X41537000Y-59817000D01*
X41537000Y-61666250D01*
X41695750Y-61825000D01*
X42910000Y-61828072D01*
X43034482Y-61815812D01*
X43154180Y-61779502D01*
X43264494Y-61720537D01*
X43361185Y-61641185D01*
X43440537Y-61544494D01*
X43499502Y-61434180D01*
X43535812Y-61314482D01*
X43548072Y-61190000D01*
X43545000Y-59975750D01*
X43386250Y-59817000D01*
X41537000Y-59817000D01*
X41283000Y-59817000D01*
X39433750Y-59817000D01*
X39275000Y-59975750D01*
X39271928Y-61190000D01*
X35490433Y-61190000D01*
X35541276Y-61120881D01*
X33020000Y-58599605D01*
X30498724Y-61120881D01*
X26814744Y-61120881D01*
X26682765Y-59705898D01*
X27545159Y-58395695D01*
X29166520Y-58395695D01*
X29235822Y-59147938D01*
X29450548Y-59872208D01*
X29802445Y-60540670D01*
X29829452Y-60581088D01*
X30319119Y-60941276D01*
X32840395Y-58420000D01*
X33199605Y-58420000D01*
X35720881Y-60941276D01*
X36210548Y-60581088D01*
X36570849Y-59917118D01*
X36794694Y-59195615D01*
X36873480Y-58444305D01*
X36850052Y-58190000D01*
X39271928Y-58190000D01*
X39275000Y-59404250D01*
X39433750Y-59563000D01*
X41283000Y-59563000D01*
X41283000Y-57713750D01*
X41537000Y-57713750D01*
X41537000Y-59563000D01*
X43386250Y-59563000D01*
X43545000Y-59404250D01*
X43548072Y-58190000D01*
X43535812Y-58065518D01*
X43499502Y-57945820D01*
X43440537Y-57835506D01*
X43361185Y-57738815D01*
X43264494Y-57659463D01*
X43154180Y-57600498D01*
X43034482Y-57564188D01*
X42910000Y-57551928D01*
X41695750Y-57555000D01*
X41537000Y-57713750D01*
X41283000Y-57713750D01*
X41124250Y-57555000D01*
X39910000Y-57551928D01*
X39785518Y-57564188D01*
X39665820Y-57600498D01*
X39555506Y-57659463D01*
X39458815Y-57738815D01*
X39379463Y-57835506D01*
X39320498Y-57945820D01*
X39284188Y-58065518D01*
X39271928Y-58190000D01*
X36850052Y-58190000D01*
X36804178Y-57692062D01*
X36589452Y-56967792D01*
X36237555Y-56299330D01*
X36210548Y-56258912D01*
X35996759Y-56101653D01*
X40097952Y-56101653D01*
X40253962Y-56417214D01*
X40628745Y-56608020D01*
X41033551Y-56722044D01*
X41452824Y-56754902D01*
X41870451Y-56705334D01*
X42270383Y-56575243D01*
X42566038Y-56417214D01*
X42722048Y-56101653D01*
X41410000Y-54789605D01*
X40097952Y-56101653D01*
X35996759Y-56101653D01*
X35720881Y-55898724D01*
X33199605Y-58420000D01*
X32840395Y-58420000D01*
X30319119Y-55898724D01*
X29829452Y-56258912D01*
X29469151Y-56922882D01*
X29245306Y-57644385D01*
X29166520Y-58395695D01*
X27545159Y-58395695D01*
X29306919Y-55719119D01*
X30498724Y-55719119D01*
X33020000Y-58240395D01*
X35541276Y-55719119D01*
X35181088Y-55229452D01*
X34517118Y-54869151D01*
X33819848Y-54652824D01*
X39265098Y-54652824D01*
X39314666Y-55070451D01*
X39444757Y-55470383D01*
X39602786Y-55766038D01*
X39918347Y-55922048D01*
X41230395Y-54610000D01*
X41589605Y-54610000D01*
X42901653Y-55922048D01*
X43217214Y-55766038D01*
X43408020Y-55391255D01*
X43522044Y-54986449D01*
X43554902Y-54567176D01*
X43505334Y-54149549D01*
X43375243Y-53749617D01*
X43217214Y-53453962D01*
X42901653Y-53297952D01*
X41589605Y-54610000D01*
X41230395Y-54610000D01*
X39918347Y-53297952D01*
X39602786Y-53453962D01*
X39411980Y-53828745D01*
X39297956Y-54233551D01*
X39265098Y-54652824D01*
X33819848Y-54652824D01*
X33795615Y-54645306D01*
X33044305Y-54566520D01*
X32292062Y-54635822D01*
X31567792Y-54850548D01*
X30899330Y-55202445D01*
X30858912Y-55229452D01*
X30498724Y-55719119D01*
X29306919Y-55719119D01*
X31018784Y-53118347D01*
X40097952Y-53118347D01*
X41410000Y-54430395D01*
X42722048Y-53118347D01*
X42566038Y-52802786D01*
X42191255Y-52611980D01*
X41786449Y-52497956D01*
X41367176Y-52465098D01*
X40949549Y-52514666D01*
X40549617Y-52644757D01*
X40253962Y-52802786D01*
X40097952Y-53118347D01*
X31018784Y-53118347D01*
X32398858Y-51021653D01*
X40097952Y-51021653D01*
X40253962Y-51337214D01*
X40628745Y-51528020D01*
X41033551Y-51642044D01*
X41452824Y-51674902D01*
X41870451Y-51625334D01*
X42270383Y-51495243D01*
X42566038Y-51337214D01*
X42722048Y-51021653D01*
X41410000Y-49709605D01*
X40097952Y-51021653D01*
X32398858Y-51021653D01*
X33352498Y-49572824D01*
X39265098Y-49572824D01*
X39314666Y-49990451D01*
X39444757Y-50390383D01*
X39602786Y-50686038D01*
X39918347Y-50842048D01*
X41230395Y-49530000D01*
X41589605Y-49530000D01*
X42901653Y-50842048D01*
X43217214Y-50686038D01*
X43408020Y-50311255D01*
X43522044Y-49906449D01*
X43554902Y-49487176D01*
X43505334Y-49069549D01*
X43375243Y-48669617D01*
X43217214Y-48373962D01*
X42901653Y-48217952D01*
X41589605Y-49530000D01*
X41230395Y-49530000D01*
X39918347Y-48217952D01*
X39602786Y-48373962D01*
X39411980Y-48748745D01*
X39297956Y-49153551D01*
X39265098Y-49572824D01*
X33352498Y-49572824D01*
X34362512Y-48038347D01*
X40097952Y-48038347D01*
X41410000Y-49350395D01*
X42722048Y-48038347D01*
X42566038Y-47722786D01*
X42191255Y-47531980D01*
X41786449Y-47417956D01*
X41367176Y-47385098D01*
X40949549Y-47434666D01*
X40549617Y-47564757D01*
X40253962Y-47722786D01*
X40097952Y-48038347D01*
X34362512Y-48038347D01*
X35141135Y-46855413D01*
X46304192Y-46855413D01*
X46399956Y-47119814D01*
X46689571Y-47260704D01*
X47001108Y-47342384D01*
X47322595Y-47361718D01*
X47641675Y-47317961D01*
X47946088Y-47212795D01*
X48120044Y-47119814D01*
X48215808Y-46855413D01*
X47260000Y-45899605D01*
X46304192Y-46855413D01*
X35141135Y-46855413D01*
X35847280Y-45782595D01*
X45618282Y-45782595D01*
X45662039Y-46101675D01*
X45767205Y-46406088D01*
X45860186Y-46580044D01*
X46124587Y-46675808D01*
X47080395Y-45720000D01*
X47439605Y-45720000D01*
X48395413Y-46675808D01*
X48659814Y-46580044D01*
X48800704Y-46290429D01*
X48882384Y-45978892D01*
X48901718Y-45657405D01*
X48857961Y-45338325D01*
X48752795Y-45033912D01*
X48659814Y-44859956D01*
X48395413Y-44764192D01*
X47439605Y-45720000D01*
X47080395Y-45720000D01*
X46124587Y-44764192D01*
X45860186Y-44859956D01*
X45719296Y-45149571D01*
X45637616Y-45461108D01*
X45618282Y-45782595D01*
X35847280Y-45782595D01*
X36635827Y-44584587D01*
X46304192Y-44584587D01*
X47260000Y-45540395D01*
X48215808Y-44584587D01*
X48120044Y-44320186D01*
X47830429Y-44179296D01*
X47518892Y-44097616D01*
X47197405Y-44078282D01*
X46878325Y-44122039D01*
X46573912Y-44227205D01*
X46399956Y-44320186D01*
X46304192Y-44584587D01*
X36635827Y-44584587D01*
X36689562Y-44502950D01*
X42208044Y-40355413D01*
X46304192Y-40355413D01*
X46399956Y-40619814D01*
X46689571Y-40760704D01*
X47001108Y-40842384D01*
X47322595Y-40861718D01*
X47641675Y-40817961D01*
X47946088Y-40712795D01*
X48120044Y-40619814D01*
X48215808Y-40355413D01*
X47260000Y-39399605D01*
X46304192Y-40355413D01*
X42208044Y-40355413D01*
X43635477Y-39282595D01*
X45618282Y-39282595D01*
X45662039Y-39601675D01*
X45767205Y-39906088D01*
X45860186Y-40080044D01*
X46124587Y-40175808D01*
X47080395Y-39220000D01*
X47439605Y-39220000D01*
X48395413Y-40175808D01*
X48659814Y-40080044D01*
X48800704Y-39790429D01*
X48882384Y-39478892D01*
X48901718Y-39157405D01*
X48888219Y-39058967D01*
X50125000Y-39058967D01*
X50125000Y-39381033D01*
X50187832Y-39696912D01*
X50311082Y-39994463D01*
X50490013Y-40262252D01*
X50717748Y-40489987D01*
X50875000Y-40595059D01*
X50875001Y-44344940D01*
X50717748Y-44450013D01*
X50490013Y-44677748D01*
X50311082Y-44945537D01*
X50187832Y-45243088D01*
X50125000Y-45558967D01*
X50125000Y-45881033D01*
X50187832Y-46196912D01*
X50311082Y-46494463D01*
X50490013Y-46762252D01*
X50717748Y-46989987D01*
X50985537Y-47168918D01*
X51283088Y-47292168D01*
X51598967Y-47355000D01*
X51921033Y-47355000D01*
X52236912Y-47292168D01*
X52534463Y-47168918D01*
X52802252Y-46989987D01*
X53029987Y-46762252D01*
X53135059Y-46605000D01*
X58053422Y-46605000D01*
X70961983Y-59513562D01*
X70955000Y-59548665D01*
X70955000Y-59831335D01*
X71010147Y-60108574D01*
X71118320Y-60369727D01*
X71275363Y-60604759D01*
X71475241Y-60804637D01*
X71710273Y-60961680D01*
X71971426Y-61069853D01*
X72248665Y-61125000D01*
X72531335Y-61125000D01*
X72566439Y-61118017D01*
X74273470Y-62825049D01*
X74301183Y-62858817D01*
X74334951Y-62886530D01*
X74334953Y-62886532D01*
X74337678Y-62888768D01*
X74435941Y-62969411D01*
X74589687Y-63051589D01*
X74756510Y-63102195D01*
X74886523Y-63115000D01*
X74886533Y-63115000D01*
X74929999Y-63119281D01*
X74973465Y-63115000D01*
X82426531Y-63115000D01*
X82470000Y-63119281D01*
X82513469Y-63115000D01*
X82513477Y-63115000D01*
X82643490Y-63102195D01*
X82810313Y-63051589D01*
X82964059Y-62969411D01*
X83098817Y-62858817D01*
X83126534Y-62825044D01*
X85014451Y-60937127D01*
X85058815Y-60991185D01*
X85155506Y-61070537D01*
X85265820Y-61129502D01*
X85385518Y-61165812D01*
X85510000Y-61178072D01*
X87210000Y-61178072D01*
X87334482Y-61165812D01*
X87454180Y-61129502D01*
X87564494Y-61070537D01*
X87661185Y-60991185D01*
X87740537Y-60894494D01*
X87799502Y-60784180D01*
X87820393Y-60715313D01*
X87844866Y-60745134D01*
X88070986Y-60930706D01*
X88328966Y-61068599D01*
X88608889Y-61153513D01*
X88827050Y-61175000D01*
X88972950Y-61175000D01*
X89191111Y-61153513D01*
X89471034Y-61068599D01*
X89729014Y-60930706D01*
X89955134Y-60745134D01*
X90140706Y-60519014D01*
X90170000Y-60464209D01*
X90199294Y-60519014D01*
X90384866Y-60745134D01*
X90610986Y-60930706D01*
X90868966Y-61068599D01*
X91148889Y-61153513D01*
X91367050Y-61175000D01*
X91512950Y-61175000D01*
X91731111Y-61153513D01*
X92011034Y-61068599D01*
X92269014Y-60930706D01*
X92495134Y-60745134D01*
X92680706Y-60519014D01*
X92715201Y-60454477D01*
X92784822Y-60571355D01*
X92979731Y-60787588D01*
X93213080Y-60961641D01*
X93475901Y-61086825D01*
X93623110Y-61131476D01*
X93853000Y-61010155D01*
X93853000Y-59817000D01*
X93833000Y-59817000D01*
X93833000Y-59563000D01*
X93853000Y-59563000D01*
X93853000Y-58369845D01*
X93623110Y-58248524D01*
X93475901Y-58293175D01*
X93213080Y-58418359D01*
X92979731Y-58592412D01*
X92784822Y-58808645D01*
X92715201Y-58925523D01*
X92680706Y-58860986D01*
X92495134Y-58634866D01*
X92269014Y-58449294D01*
X92011034Y-58311401D01*
X91731111Y-58226487D01*
X91512950Y-58205000D01*
X91367050Y-58205000D01*
X91220967Y-58219388D01*
X88675016Y-55673438D01*
X88685134Y-55665134D01*
X88870706Y-55439014D01*
X88900000Y-55384209D01*
X88929294Y-55439014D01*
X89114866Y-55665134D01*
X89340986Y-55850706D01*
X89598966Y-55988599D01*
X89878889Y-56073513D01*
X90097050Y-56095000D01*
X90242950Y-56095000D01*
X90461111Y-56073513D01*
X90741034Y-55988599D01*
X90999014Y-55850706D01*
X91225134Y-55665134D01*
X91410706Y-55439014D01*
X91440000Y-55384209D01*
X91469294Y-55439014D01*
X91654866Y-55665134D01*
X91880986Y-55850706D01*
X92138966Y-55988599D01*
X92418889Y-56073513D01*
X92637050Y-56095000D01*
X92782950Y-56095000D01*
X93001111Y-56073513D01*
X93281034Y-55988599D01*
X93539014Y-55850706D01*
X93765134Y-55665134D01*
X93789607Y-55635313D01*
X93810498Y-55704180D01*
X93869463Y-55814494D01*
X93948815Y-55911185D01*
X94045506Y-55990537D01*
X94155820Y-56049502D01*
X94275518Y-56085812D01*
X94400000Y-56098072D01*
X96100000Y-56098072D01*
X96224482Y-56085812D01*
X96344180Y-56049502D01*
X96454494Y-55990537D01*
X96551185Y-55911185D01*
X96630537Y-55814494D01*
X96655000Y-55768727D01*
X96655000Y-57949868D01*
X96394714Y-58210155D01*
X96228889Y-58226487D01*
X95948966Y-58311401D01*
X95690986Y-58449294D01*
X95464866Y-58634866D01*
X95279294Y-58860986D01*
X95244799Y-58925523D01*
X95175178Y-58808645D01*
X94980269Y-58592412D01*
X94746920Y-58418359D01*
X94484099Y-58293175D01*
X94336890Y-58248524D01*
X94107000Y-58369845D01*
X94107000Y-59563000D01*
X94127000Y-59563000D01*
X94127000Y-59817000D01*
X94107000Y-59817000D01*
X94107000Y-61010155D01*
X94336890Y-61131476D01*
X94484099Y-61086825D01*
X94746920Y-60961641D01*
X94980269Y-60787588D01*
X95175178Y-60571355D01*
X95244799Y-60454477D01*
X95279294Y-60519014D01*
X95464866Y-60745134D01*
X95690986Y-60930706D01*
X95948966Y-61068599D01*
X96228889Y-61153513D01*
X96447050Y-61175000D01*
X96592950Y-61175000D01*
X96811111Y-61153513D01*
X96918683Y-61120881D01*
X142258724Y-61120881D01*
X142618912Y-61610548D01*
X143282882Y-61970849D01*
X144004385Y-62194694D01*
X144755695Y-62273480D01*
X145507938Y-62204178D01*
X146232208Y-61989452D01*
X146900670Y-61637555D01*
X146941088Y-61610548D01*
X147301276Y-61120881D01*
X144780000Y-58599605D01*
X142258724Y-61120881D01*
X96918683Y-61120881D01*
X97091034Y-61068599D01*
X97349014Y-60930706D01*
X97575134Y-60745134D01*
X97760706Y-60519014D01*
X97898599Y-60261034D01*
X97983513Y-59981111D01*
X97999845Y-59815286D01*
X98553140Y-59261992D01*
X98596449Y-59226449D01*
X98738284Y-59053623D01*
X98843676Y-58856447D01*
X98908577Y-58642499D01*
X98925000Y-58475752D01*
X98925000Y-58475745D01*
X98930490Y-58420001D01*
X98925000Y-58364257D01*
X98925000Y-53062702D01*
X99516903Y-53062702D01*
X99588486Y-53306671D01*
X99843996Y-53427571D01*
X100118184Y-53496300D01*
X100400512Y-53510217D01*
X100680130Y-53468787D01*
X100946292Y-53373603D01*
X101071514Y-53306671D01*
X101143097Y-53062702D01*
X100330000Y-52249605D01*
X99516903Y-53062702D01*
X98925000Y-53062702D01*
X98925000Y-52378197D01*
X98931213Y-52420130D01*
X99026397Y-52686292D01*
X99093329Y-52811514D01*
X99337298Y-52883097D01*
X100150395Y-52070000D01*
X100509605Y-52070000D01*
X101322702Y-52883097D01*
X101566671Y-52811514D01*
X101687571Y-52556004D01*
X101756300Y-52281816D01*
X101770217Y-51999488D01*
X101728787Y-51719870D01*
X101633603Y-51453708D01*
X101566671Y-51328486D01*
X101322702Y-51256903D01*
X100509605Y-52070000D01*
X100150395Y-52070000D01*
X99337298Y-51256903D01*
X99093329Y-51328486D01*
X98972429Y-51583996D01*
X98925000Y-51773210D01*
X98925000Y-51077298D01*
X99516903Y-51077298D01*
X100330000Y-51890395D01*
X101143097Y-51077298D01*
X101071514Y-50833329D01*
X100816004Y-50712429D01*
X100541816Y-50643700D01*
X100259488Y-50629783D01*
X99979870Y-50671213D01*
X99713708Y-50766397D01*
X99588486Y-50833329D01*
X99516903Y-51077298D01*
X98925000Y-51077298D01*
X98925000Y-49505751D01*
X98930491Y-49449999D01*
X98908577Y-49227500D01*
X98850467Y-49035941D01*
X98843676Y-49013553D01*
X98738284Y-48816377D01*
X98596449Y-48643551D01*
X98553141Y-48608009D01*
X96657834Y-46712702D01*
X98246903Y-46712702D01*
X98318486Y-46956671D01*
X98573996Y-47077571D01*
X98848184Y-47146300D01*
X99130512Y-47160217D01*
X99410130Y-47118787D01*
X99676292Y-47023603D01*
X99801514Y-46956671D01*
X99873097Y-46712702D01*
X99060000Y-45899605D01*
X98246903Y-46712702D01*
X96657834Y-46712702D01*
X95735644Y-45790512D01*
X97619783Y-45790512D01*
X97661213Y-46070130D01*
X97756397Y-46336292D01*
X97823329Y-46461514D01*
X98067298Y-46533097D01*
X98880395Y-45720000D01*
X99239605Y-45720000D01*
X100052702Y-46533097D01*
X100296671Y-46461514D01*
X100417571Y-46206004D01*
X100486300Y-45931816D01*
X100500217Y-45649488D01*
X100458787Y-45369870D01*
X100363603Y-45103708D01*
X100296671Y-44978486D01*
X100052702Y-44906903D01*
X99239605Y-45720000D01*
X98880395Y-45720000D01*
X98067298Y-44906903D01*
X97823329Y-44978486D01*
X97702429Y-45233996D01*
X97633700Y-45508184D01*
X97619783Y-45790512D01*
X95735644Y-45790512D01*
X95701991Y-45756860D01*
X95701987Y-45756855D01*
X95487850Y-45542718D01*
X95439853Y-45301426D01*
X95331680Y-45040273D01*
X95195000Y-44835716D01*
X95195000Y-44727298D01*
X98246903Y-44727298D01*
X99060000Y-45540395D01*
X99873097Y-44727298D01*
X99801514Y-44483329D01*
X99546004Y-44362429D01*
X99271816Y-44293700D01*
X98989488Y-44279783D01*
X98709870Y-44321213D01*
X98443708Y-44416397D01*
X98318486Y-44483329D01*
X98246903Y-44727298D01*
X95195000Y-44727298D01*
X95195000Y-43866650D01*
X95250000Y-43872067D01*
X95503943Y-43847056D01*
X95748126Y-43772983D01*
X95973167Y-43652697D01*
X96170418Y-43490818D01*
X96332297Y-43293567D01*
X96452583Y-43068526D01*
X96522506Y-42838023D01*
X96544267Y-42947680D01*
X96641807Y-43183461D01*
X96783471Y-43395683D01*
X96963816Y-43576189D01*
X97175911Y-43718044D01*
X97411605Y-43815795D01*
X97462895Y-43823820D01*
X97663000Y-43699933D01*
X97663000Y-42037000D01*
X97643000Y-42037000D01*
X97643000Y-41783000D01*
X97663000Y-41783000D01*
X97663000Y-40120067D01*
X97462895Y-39996180D01*
X97411605Y-40004205D01*
X97175911Y-40101956D01*
X96963816Y-40243811D01*
X96783471Y-40424317D01*
X96641807Y-40636539D01*
X96544267Y-40872320D01*
X96522506Y-40981977D01*
X96452583Y-40751474D01*
X96385000Y-40625034D01*
X96385000Y-40500531D01*
X100690931Y-36194601D01*
X100828126Y-36152983D01*
X101053167Y-36032697D01*
X101250418Y-35870818D01*
X101412297Y-35673567D01*
X101532583Y-35448526D01*
X101600000Y-35226285D01*
X101667417Y-35448526D01*
X101787704Y-35673567D01*
X101949583Y-35870818D01*
X102146834Y-36032697D01*
X102371875Y-36152983D01*
X102616058Y-36227056D01*
X102870000Y-36252067D01*
X102915598Y-36247576D01*
X107014987Y-40346966D01*
X106867703Y-40526434D01*
X106747417Y-40751475D01*
X106680000Y-40973716D01*
X106612583Y-40751474D01*
X106492297Y-40526433D01*
X106330418Y-40329182D01*
X106133166Y-40167303D01*
X105908125Y-40047017D01*
X105663942Y-39972944D01*
X105410000Y-39947933D01*
X105156057Y-39972944D01*
X104911874Y-40047017D01*
X104686833Y-40167303D01*
X104489582Y-40329182D01*
X104327703Y-40526434D01*
X104207417Y-40751475D01*
X104140000Y-40973716D01*
X104072583Y-40751474D01*
X103952297Y-40526433D01*
X103790418Y-40329182D01*
X103593166Y-40167303D01*
X103368125Y-40047017D01*
X103123942Y-39972944D01*
X102870000Y-39947933D01*
X102616057Y-39972944D01*
X102371874Y-40047017D01*
X102146833Y-40167303D01*
X101949582Y-40329182D01*
X101787703Y-40526434D01*
X101667417Y-40751475D01*
X101600000Y-40973716D01*
X101532583Y-40751474D01*
X101412297Y-40526433D01*
X101250418Y-40329182D01*
X101053166Y-40167303D01*
X100828125Y-40047017D01*
X100583942Y-39972944D01*
X100330000Y-39947933D01*
X100076057Y-39972944D01*
X99831874Y-40047017D01*
X99606833Y-40167303D01*
X99409582Y-40329182D01*
X99247703Y-40526434D01*
X99127417Y-40751475D01*
X99057494Y-40981977D01*
X99035733Y-40872320D01*
X98938193Y-40636539D01*
X98796529Y-40424317D01*
X98616184Y-40243811D01*
X98404089Y-40101956D01*
X98168395Y-40004205D01*
X98117105Y-39996180D01*
X97917000Y-40120067D01*
X97917000Y-41783000D01*
X97937000Y-41783000D01*
X97937000Y-42037000D01*
X97917000Y-42037000D01*
X97917000Y-43699933D01*
X98117105Y-43823820D01*
X98168395Y-43815795D01*
X98404089Y-43718044D01*
X98616184Y-43576189D01*
X98796529Y-43395683D01*
X98938193Y-43183461D01*
X99035733Y-42947680D01*
X99057494Y-42838023D01*
X99127417Y-43068526D01*
X99247704Y-43293567D01*
X99409583Y-43490818D01*
X99606834Y-43652697D01*
X99831875Y-43772983D01*
X99888618Y-43790196D01*
X102955000Y-46856579D01*
X102955000Y-47126411D01*
X103008225Y-47393989D01*
X103112629Y-47646043D01*
X103264201Y-47872886D01*
X103457114Y-48065799D01*
X103683957Y-48217371D01*
X103936011Y-48321775D01*
X104203589Y-48375000D01*
X104445001Y-48375000D01*
X104445000Y-50935479D01*
X104415241Y-50955363D01*
X104215363Y-51155241D01*
X104058320Y-51390273D01*
X103950147Y-51651426D01*
X103895000Y-51928665D01*
X103895000Y-52211335D01*
X103950147Y-52488574D01*
X104058320Y-52749727D01*
X104215363Y-52984759D01*
X104415241Y-53184637D01*
X104650273Y-53341680D01*
X104911426Y-53449853D01*
X105188665Y-53505000D01*
X105471335Y-53505000D01*
X105748574Y-53449853D01*
X106009727Y-53341680D01*
X106244759Y-53184637D01*
X106444637Y-52984759D01*
X106601680Y-52749727D01*
X106709853Y-52488574D01*
X106765000Y-52211335D01*
X106765000Y-51928665D01*
X106709853Y-51651426D01*
X106601680Y-51390273D01*
X106444637Y-51155241D01*
X106244759Y-50955363D01*
X106215000Y-50935479D01*
X106215000Y-48023465D01*
X106219281Y-47979999D01*
X106215000Y-47936533D01*
X106215000Y-47936523D01*
X106202195Y-47806510D01*
X106151589Y-47639687D01*
X106069411Y-47485941D01*
X106013617Y-47417956D01*
X105986532Y-47384953D01*
X105986530Y-47384951D01*
X105958817Y-47351183D01*
X105925049Y-47323470D01*
X105725000Y-47123421D01*
X105725000Y-46853589D01*
X105681147Y-46633126D01*
X106633070Y-47585049D01*
X106660783Y-47618817D01*
X106694551Y-47646530D01*
X106694553Y-47646532D01*
X106711560Y-47660489D01*
X106795541Y-47729411D01*
X106949287Y-47811589D01*
X107116110Y-47862195D01*
X107246123Y-47875000D01*
X107246133Y-47875000D01*
X107289599Y-47879281D01*
X107333065Y-47875000D01*
X108146315Y-47875000D01*
X108335000Y-48063685D01*
X108335001Y-50935478D01*
X108305241Y-50955363D01*
X108105363Y-51155241D01*
X107948320Y-51390273D01*
X107840147Y-51651426D01*
X107785000Y-51928665D01*
X107785000Y-52211335D01*
X107840147Y-52488574D01*
X107948320Y-52749727D01*
X108105363Y-52984759D01*
X108305241Y-53184637D01*
X108540273Y-53341680D01*
X108801426Y-53449853D01*
X109078665Y-53505000D01*
X109361335Y-53505000D01*
X109638574Y-53449853D01*
X109899727Y-53341680D01*
X110134759Y-53184637D01*
X110256694Y-53062702D01*
X113406903Y-53062702D01*
X113478486Y-53306671D01*
X113733996Y-53427571D01*
X114008184Y-53496300D01*
X114290512Y-53510217D01*
X114570130Y-53468787D01*
X114836292Y-53373603D01*
X114961514Y-53306671D01*
X115033097Y-53062702D01*
X114220000Y-52249605D01*
X113406903Y-53062702D01*
X110256694Y-53062702D01*
X110334637Y-52984759D01*
X110491680Y-52749727D01*
X110599853Y-52488574D01*
X110655000Y-52211335D01*
X110655000Y-52140512D01*
X112779783Y-52140512D01*
X112821213Y-52420130D01*
X112916397Y-52686292D01*
X112983329Y-52811514D01*
X113227298Y-52883097D01*
X114040395Y-52070000D01*
X114399605Y-52070000D01*
X115212702Y-52883097D01*
X115456671Y-52811514D01*
X115577571Y-52556004D01*
X115646300Y-52281816D01*
X115660217Y-51999488D01*
X115618787Y-51719870D01*
X115523603Y-51453708D01*
X115456671Y-51328486D01*
X115212702Y-51256903D01*
X114399605Y-52070000D01*
X114040395Y-52070000D01*
X113227298Y-51256903D01*
X112983329Y-51328486D01*
X112862429Y-51583996D01*
X112793700Y-51858184D01*
X112779783Y-52140512D01*
X110655000Y-52140512D01*
X110655000Y-51928665D01*
X110599853Y-51651426D01*
X110491680Y-51390273D01*
X110334637Y-51155241D01*
X110256694Y-51077298D01*
X113406903Y-51077298D01*
X114220000Y-51890395D01*
X115033097Y-51077298D01*
X114961514Y-50833329D01*
X114706004Y-50712429D01*
X114431816Y-50643700D01*
X114149488Y-50629783D01*
X113869870Y-50671213D01*
X113603708Y-50766397D01*
X113478486Y-50833329D01*
X113406903Y-51077298D01*
X110256694Y-51077298D01*
X110134759Y-50955363D01*
X110105000Y-50935479D01*
X110105000Y-48063685D01*
X110295799Y-47872886D01*
X110447371Y-47646043D01*
X110551775Y-47393989D01*
X110605000Y-47126411D01*
X110605000Y-46853589D01*
X110551775Y-46586011D01*
X110447371Y-46333957D01*
X110295799Y-46107114D01*
X110102886Y-45914201D01*
X109876043Y-45762629D01*
X109623989Y-45658225D01*
X109356411Y-45605000D01*
X109083589Y-45605000D01*
X108816011Y-45658225D01*
X108563957Y-45762629D01*
X108337114Y-45914201D01*
X108146315Y-46105000D01*
X107656179Y-46105000D01*
X105422058Y-43870879D01*
X105663943Y-43847056D01*
X105908126Y-43772983D01*
X106133167Y-43652697D01*
X106330418Y-43490818D01*
X106492297Y-43293567D01*
X106612583Y-43068526D01*
X106680000Y-42846285D01*
X106747417Y-43068526D01*
X106867704Y-43293567D01*
X107029583Y-43490818D01*
X107226834Y-43652697D01*
X107451875Y-43772983D01*
X107696058Y-43847056D01*
X107950000Y-43872067D01*
X108203943Y-43847056D01*
X108448126Y-43772983D01*
X108521947Y-43733525D01*
X122989388Y-58200967D01*
X122967815Y-58420000D01*
X122996487Y-58711111D01*
X123081401Y-58991034D01*
X123219294Y-59249014D01*
X123404866Y-59475134D01*
X123630986Y-59660706D01*
X123888966Y-59798599D01*
X124168889Y-59883513D01*
X124387050Y-59905000D01*
X124532950Y-59905000D01*
X124751111Y-59883513D01*
X125031034Y-59798599D01*
X125289014Y-59660706D01*
X125515134Y-59475134D01*
X125700706Y-59249014D01*
X125838599Y-58991034D01*
X125923513Y-58711111D01*
X125952185Y-58420000D01*
X125923513Y-58128889D01*
X125838599Y-57848966D01*
X125700706Y-57590986D01*
X125515134Y-57364866D01*
X125289014Y-57179294D01*
X125234209Y-57150000D01*
X125289014Y-57120706D01*
X125515134Y-56935134D01*
X125700706Y-56709014D01*
X125838599Y-56451034D01*
X125923513Y-56171111D01*
X125952185Y-55880000D01*
X125923513Y-55588889D01*
X125838599Y-55308966D01*
X125700706Y-55050986D01*
X125515134Y-54824866D01*
X125289014Y-54639294D01*
X125234209Y-54610000D01*
X125289014Y-54580706D01*
X125515134Y-54395134D01*
X125700706Y-54169014D01*
X125838599Y-53911034D01*
X125923513Y-53631111D01*
X125933915Y-53525494D01*
X130609388Y-58200967D01*
X130587815Y-58420000D01*
X130616487Y-58711111D01*
X130701401Y-58991034D01*
X130839294Y-59249014D01*
X131024866Y-59475134D01*
X131250986Y-59660706D01*
X131508966Y-59798599D01*
X131788889Y-59883513D01*
X132007050Y-59905000D01*
X132152950Y-59905000D01*
X132371111Y-59883513D01*
X132651034Y-59798599D01*
X132909014Y-59660706D01*
X133135134Y-59475134D01*
X133320706Y-59249014D01*
X133458599Y-58991034D01*
X133543513Y-58711111D01*
X133572185Y-58420000D01*
X133569792Y-58395695D01*
X140926520Y-58395695D01*
X140995822Y-59147938D01*
X141210548Y-59872208D01*
X141562445Y-60540670D01*
X141589452Y-60581088D01*
X142079119Y-60941276D01*
X144600395Y-58420000D01*
X144959605Y-58420000D01*
X147480881Y-60941276D01*
X147970548Y-60581088D01*
X148330849Y-59917118D01*
X148554694Y-59195615D01*
X148633480Y-58444305D01*
X148564178Y-57692062D01*
X148349452Y-56967792D01*
X147997555Y-56299330D01*
X147970548Y-56258912D01*
X147480881Y-55898724D01*
X144959605Y-58420000D01*
X144600395Y-58420000D01*
X142079119Y-55898724D01*
X141589452Y-56258912D01*
X141229151Y-56922882D01*
X141005306Y-57644385D01*
X140926520Y-58395695D01*
X133569792Y-58395695D01*
X133543513Y-58128889D01*
X133458599Y-57848966D01*
X133320706Y-57590986D01*
X133135134Y-57364866D01*
X132909014Y-57179294D01*
X132854209Y-57150000D01*
X132909014Y-57120706D01*
X133135134Y-56935134D01*
X133320706Y-56709014D01*
X133458599Y-56451034D01*
X133543513Y-56171111D01*
X133572185Y-55880000D01*
X133556340Y-55719119D01*
X142258724Y-55719119D01*
X144780000Y-58240395D01*
X147301276Y-55719119D01*
X146941088Y-55229452D01*
X146277118Y-54869151D01*
X145555615Y-54645306D01*
X144804305Y-54566520D01*
X144052062Y-54635822D01*
X143327792Y-54850548D01*
X142659330Y-55202445D01*
X142618912Y-55229452D01*
X142258724Y-55719119D01*
X133556340Y-55719119D01*
X133543513Y-55588889D01*
X133458599Y-55308966D01*
X133320706Y-55050986D01*
X133135134Y-54824866D01*
X132909014Y-54639294D01*
X132854209Y-54610000D01*
X132909014Y-54580706D01*
X133135134Y-54395134D01*
X133320706Y-54169014D01*
X133458599Y-53911034D01*
X133543513Y-53631111D01*
X133572185Y-53340000D01*
X133543513Y-53048889D01*
X133458599Y-52768966D01*
X133320706Y-52510986D01*
X133135134Y-52284866D01*
X132909014Y-52099294D01*
X132854209Y-52070000D01*
X132909014Y-52040706D01*
X133135134Y-51855134D01*
X133320706Y-51629014D01*
X133458599Y-51371034D01*
X133543513Y-51091111D01*
X133572185Y-50800000D01*
X133543513Y-50508889D01*
X133458599Y-50228966D01*
X133320706Y-49970986D01*
X133135134Y-49744866D01*
X132909014Y-49559294D01*
X132844477Y-49524799D01*
X132961355Y-49455178D01*
X133177588Y-49260269D01*
X133351641Y-49026920D01*
X133476825Y-48764099D01*
X133521476Y-48616890D01*
X133400155Y-48387000D01*
X132207000Y-48387000D01*
X132207000Y-48407000D01*
X131953000Y-48407000D01*
X131953000Y-48387000D01*
X131933000Y-48387000D01*
X131933000Y-48133000D01*
X131953000Y-48133000D01*
X131953000Y-48113000D01*
X132207000Y-48113000D01*
X132207000Y-48133000D01*
X133400155Y-48133000D01*
X133521476Y-47903110D01*
X133476825Y-47755901D01*
X133351641Y-47493080D01*
X133177588Y-47259731D01*
X133093534Y-47183966D01*
X133174180Y-47159502D01*
X133284494Y-47100537D01*
X133381185Y-47021185D01*
X133460537Y-46924494D01*
X133519502Y-46814180D01*
X133555812Y-46694482D01*
X133568072Y-46570000D01*
X133568072Y-44870000D01*
X133555812Y-44745518D01*
X133519502Y-44625820D01*
X133460537Y-44515506D01*
X133381185Y-44418815D01*
X133284494Y-44339463D01*
X133174180Y-44280498D01*
X133054482Y-44244188D01*
X132930000Y-44231928D01*
X131230000Y-44231928D01*
X131105518Y-44244188D01*
X130985820Y-44280498D01*
X130875506Y-44339463D01*
X130778815Y-44418815D01*
X130699463Y-44515506D01*
X130640498Y-44625820D01*
X130604188Y-44745518D01*
X130591928Y-44870000D01*
X130591928Y-46570000D01*
X130604188Y-46694482D01*
X130640498Y-46814180D01*
X130699463Y-46924494D01*
X130778815Y-47021185D01*
X130875506Y-47100537D01*
X130985820Y-47159502D01*
X131066466Y-47183966D01*
X130982412Y-47259731D01*
X130808359Y-47493080D01*
X130683175Y-47755901D01*
X130638524Y-47903110D01*
X130759844Y-48132998D01*
X130664576Y-48132998D01*
X129855010Y-47323432D01*
X129855010Y-44793589D01*
X129859291Y-44750120D01*
X129855010Y-44706651D01*
X129855010Y-44706643D01*
X129842205Y-44576630D01*
X129791599Y-44409807D01*
X129709421Y-44256061D01*
X129685739Y-44227205D01*
X129626542Y-44155073D01*
X129626540Y-44155071D01*
X129598827Y-44121303D01*
X129565059Y-44093590D01*
X126086414Y-40614946D01*
X126058697Y-40581173D01*
X125923939Y-40470579D01*
X125770193Y-40388401D01*
X125603370Y-40337795D01*
X125473357Y-40324990D01*
X125473349Y-40324990D01*
X125429880Y-40320709D01*
X125386411Y-40324990D01*
X122243656Y-40324990D01*
X122770670Y-40047555D01*
X122811088Y-40020548D01*
X123171276Y-39530881D01*
X120650000Y-37009605D01*
X120635858Y-37023748D01*
X120456253Y-36844143D01*
X120470395Y-36830000D01*
X120829605Y-36830000D01*
X123350881Y-39351276D01*
X123840548Y-38991088D01*
X124200849Y-38327118D01*
X124424694Y-37605615D01*
X124503480Y-36854305D01*
X124434178Y-36102062D01*
X124219452Y-35377792D01*
X123867555Y-34709330D01*
X123840548Y-34668912D01*
X123350881Y-34308724D01*
X120829605Y-36830000D01*
X120470395Y-36830000D01*
X117949119Y-34308724D01*
X117459452Y-34668912D01*
X117099151Y-35332882D01*
X116875306Y-36054385D01*
X116796520Y-36805695D01*
X116865822Y-37557938D01*
X116906453Y-37694987D01*
X115446422Y-36234956D01*
X115418705Y-36201183D01*
X115283947Y-36090589D01*
X115130201Y-36008411D01*
X114963378Y-35957805D01*
X114833365Y-35945000D01*
X114833357Y-35945000D01*
X114789888Y-35940719D01*
X114746419Y-35945000D01*
X113860027Y-35945000D01*
X113950418Y-35870818D01*
X114112297Y-35673567D01*
X114232583Y-35448526D01*
X114306656Y-35204343D01*
X114325400Y-35014030D01*
X114325400Y-34129119D01*
X118128724Y-34129119D01*
X120650000Y-36650395D01*
X123171276Y-34129119D01*
X122811088Y-33639452D01*
X122147118Y-33279151D01*
X121425615Y-33055306D01*
X120674305Y-32976520D01*
X119922062Y-33045822D01*
X119197792Y-33260548D01*
X118529330Y-33612445D01*
X118488912Y-33639452D01*
X118128724Y-34129119D01*
X114325400Y-34129119D01*
X114325400Y-33565970D01*
X114306656Y-33375657D01*
X114232583Y-33131474D01*
X114112297Y-32906433D01*
X113950418Y-32709182D01*
X113753166Y-32547303D01*
X113528125Y-32427017D01*
X113283942Y-32352944D01*
X113030000Y-32327933D01*
X112776057Y-32352944D01*
X112531874Y-32427017D01*
X112306833Y-32547303D01*
X112109582Y-32709182D01*
X111947703Y-32906434D01*
X111827417Y-33131475D01*
X111760000Y-33353716D01*
X111692583Y-33131474D01*
X111572297Y-32906433D01*
X111410418Y-32709182D01*
X111213166Y-32547303D01*
X110988125Y-32427017D01*
X110743942Y-32352944D01*
X110490000Y-32327933D01*
X110236057Y-32352944D01*
X109991874Y-32427017D01*
X109766833Y-32547303D01*
X109569582Y-32709182D01*
X109407703Y-32906434D01*
X109287417Y-33131475D01*
X109220000Y-33353716D01*
X109152583Y-33131474D01*
X109032297Y-32906433D01*
X108870418Y-32709182D01*
X108673166Y-32547303D01*
X108448125Y-32427017D01*
X108203942Y-32352944D01*
X107950000Y-32327933D01*
X107696057Y-32352944D01*
X107451874Y-32427017D01*
X107226833Y-32547303D01*
X107029582Y-32709182D01*
X106867703Y-32906434D01*
X106747417Y-33131475D01*
X106680000Y-33353716D01*
X106612583Y-33131474D01*
X106492297Y-32906433D01*
X106330418Y-32709182D01*
X106133166Y-32547303D01*
X105908125Y-32427017D01*
X105663942Y-32352944D01*
X105410000Y-32327933D01*
X105156057Y-32352944D01*
X104911874Y-32427017D01*
X104686833Y-32547303D01*
X104489582Y-32709182D01*
X104327703Y-32906434D01*
X104207417Y-33131475D01*
X104140000Y-33353716D01*
X104072583Y-33131474D01*
X103952297Y-32906433D01*
X103790418Y-32709182D01*
X103593166Y-32547303D01*
X103368125Y-32427017D01*
X103123942Y-32352944D01*
X102870000Y-32327933D01*
X102616057Y-32352944D01*
X102371874Y-32427017D01*
X102146833Y-32547303D01*
X101949582Y-32709182D01*
X101787703Y-32906434D01*
X101667417Y-33131475D01*
X101600000Y-33353716D01*
X101532583Y-33131474D01*
X101465000Y-33005034D01*
X101465000Y-30202702D01*
X104516903Y-30202702D01*
X104588486Y-30446671D01*
X104843996Y-30567571D01*
X105118184Y-30636300D01*
X105400512Y-30650217D01*
X105680130Y-30608787D01*
X105946292Y-30513603D01*
X106071514Y-30446671D01*
X106143097Y-30202702D01*
X105330000Y-29389605D01*
X104516903Y-30202702D01*
X101465000Y-30202702D01*
X101465000Y-30094284D01*
X101601680Y-29889727D01*
X101709853Y-29628574D01*
X101765000Y-29351335D01*
X101765000Y-29280512D01*
X103889783Y-29280512D01*
X103931213Y-29560130D01*
X104026397Y-29826292D01*
X104093329Y-29951514D01*
X104337298Y-30023097D01*
X105150395Y-29210000D01*
X105509605Y-29210000D01*
X106322702Y-30023097D01*
X106566671Y-29951514D01*
X106687571Y-29696004D01*
X106756300Y-29421816D01*
X106770217Y-29139488D01*
X106728787Y-28859870D01*
X106633603Y-28593708D01*
X106566671Y-28468486D01*
X106322702Y-28396903D01*
X105509605Y-29210000D01*
X105150395Y-29210000D01*
X104337298Y-28396903D01*
X104093329Y-28468486D01*
X103972429Y-28723996D01*
X103903700Y-28998184D01*
X103889783Y-29280512D01*
X101765000Y-29280512D01*
X101765000Y-29068665D01*
X101709853Y-28791426D01*
X101601680Y-28530273D01*
X101444637Y-28295241D01*
X101366694Y-28217298D01*
X104516903Y-28217298D01*
X105330000Y-29030395D01*
X106143097Y-28217298D01*
X106071514Y-27973329D01*
X105816004Y-27852429D01*
X105541816Y-27783700D01*
X105259488Y-27769783D01*
X104979870Y-27811213D01*
X104713708Y-27906397D01*
X104588486Y-27973329D01*
X104516903Y-28217298D01*
X101366694Y-28217298D01*
X101244759Y-28095363D01*
X101009727Y-27938320D01*
X100748574Y-27830147D01*
X100471335Y-27775000D01*
X100188665Y-27775000D01*
X99911426Y-27830147D01*
X99650273Y-27938320D01*
X99415241Y-28095363D01*
X99215363Y-28295241D01*
X99058320Y-28530273D01*
X98950147Y-28791426D01*
X98895000Y-29068665D01*
X98895000Y-29351335D01*
X98950147Y-29628574D01*
X99058320Y-29889727D01*
X99195001Y-30094285D01*
X99195000Y-33005035D01*
X99127417Y-33131475D01*
X99060000Y-33353716D01*
X98992583Y-33131474D01*
X98872297Y-32906433D01*
X98710418Y-32709182D01*
X98513166Y-32547303D01*
X98288125Y-32427017D01*
X98043942Y-32352944D01*
X97790000Y-32327933D01*
X97655000Y-32341229D01*
X97655000Y-31364284D01*
X97791680Y-31159727D01*
X97899853Y-30898574D01*
X97955000Y-30621335D01*
X97955000Y-30338665D01*
X97899853Y-30061426D01*
X97791680Y-29800273D01*
X97634637Y-29565241D01*
X97434759Y-29365363D01*
X97199727Y-29208320D01*
X96938574Y-29100147D01*
X96661335Y-29045000D01*
X96378665Y-29045000D01*
X96101426Y-29100147D01*
X95840273Y-29208320D01*
X95605241Y-29365363D01*
X95405363Y-29565241D01*
X95248320Y-29800273D01*
X95140147Y-30061426D01*
X95085000Y-30338665D01*
X95085000Y-30621335D01*
X95140147Y-30898574D01*
X95248320Y-31159727D01*
X95385000Y-31364284D01*
X95385001Y-32495114D01*
X95377000Y-32500067D01*
X95377000Y-34163000D01*
X95397000Y-34163000D01*
X95397000Y-34417000D01*
X95377000Y-34417000D01*
X95377000Y-36079933D01*
X95577105Y-36203820D01*
X95628395Y-36195795D01*
X95864089Y-36098044D01*
X96076184Y-35956189D01*
X96256529Y-35775683D01*
X96398193Y-35563461D01*
X96495733Y-35327680D01*
X96517494Y-35218023D01*
X96587417Y-35448526D01*
X96707704Y-35673567D01*
X96869583Y-35870818D01*
X97066834Y-36032697D01*
X97291875Y-36152983D01*
X97468658Y-36206610D01*
X94486860Y-39188409D01*
X94443552Y-39223951D01*
X94301717Y-39396777D01*
X94245384Y-39502170D01*
X94196324Y-39593954D01*
X94131423Y-39807902D01*
X94109509Y-40030400D01*
X94115001Y-40086161D01*
X94115001Y-40625034D01*
X94047417Y-40751475D01*
X93980000Y-40973716D01*
X93912583Y-40751474D01*
X93792297Y-40526433D01*
X93630418Y-40329182D01*
X93433166Y-40167303D01*
X93208125Y-40047017D01*
X92963942Y-39972944D01*
X92710000Y-39947933D01*
X92456057Y-39972944D01*
X92211874Y-40047017D01*
X91986833Y-40167303D01*
X91789582Y-40329182D01*
X91627703Y-40526434D01*
X91507417Y-40751475D01*
X91440000Y-40973716D01*
X91372583Y-40751474D01*
X91252297Y-40526433D01*
X91090418Y-40329182D01*
X90893166Y-40167303D01*
X90668125Y-40047017D01*
X90423942Y-39972944D01*
X90170000Y-39947933D01*
X89916057Y-39972944D01*
X89671874Y-40047017D01*
X89446833Y-40167303D01*
X89249582Y-40329182D01*
X89087703Y-40526434D01*
X88967417Y-40751475D01*
X88900000Y-40973716D01*
X88832583Y-40751474D01*
X88712297Y-40526433D01*
X88550418Y-40329182D01*
X88353166Y-40167303D01*
X88128125Y-40047017D01*
X87883942Y-39972944D01*
X87630000Y-39947933D01*
X87376057Y-39972944D01*
X87131874Y-40047017D01*
X86906833Y-40167303D01*
X86709582Y-40329182D01*
X86547703Y-40526434D01*
X86427417Y-40751475D01*
X86360000Y-40973716D01*
X86292583Y-40751474D01*
X86172297Y-40526433D01*
X86010418Y-40329182D01*
X85813166Y-40167303D01*
X85588125Y-40047017D01*
X85343942Y-39972944D01*
X85090000Y-39947933D01*
X84836057Y-39972944D01*
X84591874Y-40047017D01*
X84366833Y-40167303D01*
X84169582Y-40329182D01*
X84007703Y-40526434D01*
X83887417Y-40751475D01*
X83820000Y-40973716D01*
X83752583Y-40751474D01*
X83632297Y-40526433D01*
X83470418Y-40329182D01*
X83273166Y-40167303D01*
X83048125Y-40047017D01*
X82803942Y-39972944D01*
X82550000Y-39947933D01*
X82296057Y-39972944D01*
X82051874Y-40047017D01*
X82005410Y-40071852D01*
X82005410Y-37264679D01*
X82009691Y-37221210D01*
X82005410Y-37177741D01*
X82005410Y-37177733D01*
X81992605Y-37047720D01*
X81941999Y-36880897D01*
X81859821Y-36727151D01*
X81801847Y-36656510D01*
X81776942Y-36626163D01*
X81776940Y-36626161D01*
X81749227Y-36592393D01*
X81715459Y-36564680D01*
X80971517Y-35820739D01*
X81092297Y-35673567D01*
X81212583Y-35448526D01*
X81280000Y-35226285D01*
X81347417Y-35448526D01*
X81467704Y-35673567D01*
X81629583Y-35870818D01*
X81826834Y-36032697D01*
X82051875Y-36152983D01*
X82296058Y-36227056D01*
X82550000Y-36252067D01*
X82803943Y-36227056D01*
X83048126Y-36152983D01*
X83273167Y-36032697D01*
X83470418Y-35870818D01*
X83632297Y-35673567D01*
X83752583Y-35448526D01*
X83820000Y-35226285D01*
X83887417Y-35448526D01*
X84007704Y-35673567D01*
X84169583Y-35870818D01*
X84366834Y-36032697D01*
X84591875Y-36152983D01*
X84836058Y-36227056D01*
X85090000Y-36252067D01*
X85343943Y-36227056D01*
X85588126Y-36152983D01*
X85813167Y-36032697D01*
X86010418Y-35870818D01*
X86172297Y-35673567D01*
X86292583Y-35448526D01*
X86360000Y-35226285D01*
X86427417Y-35448526D01*
X86547704Y-35673567D01*
X86709583Y-35870818D01*
X86906834Y-36032697D01*
X87131875Y-36152983D01*
X87376058Y-36227056D01*
X87630000Y-36252067D01*
X87883943Y-36227056D01*
X88128126Y-36152983D01*
X88353167Y-36032697D01*
X88550418Y-35870818D01*
X88712297Y-35673567D01*
X88832583Y-35448526D01*
X88900000Y-35226285D01*
X88967417Y-35448526D01*
X89087704Y-35673567D01*
X89249583Y-35870818D01*
X89446834Y-36032697D01*
X89671875Y-36152983D01*
X89916058Y-36227056D01*
X90170000Y-36252067D01*
X90423943Y-36227056D01*
X90668126Y-36152983D01*
X90893167Y-36032697D01*
X91090418Y-35870818D01*
X91252297Y-35673567D01*
X91372583Y-35448526D01*
X91440000Y-35226285D01*
X91507417Y-35448526D01*
X91627704Y-35673567D01*
X91789583Y-35870818D01*
X91986834Y-36032697D01*
X92211875Y-36152983D01*
X92456058Y-36227056D01*
X92710000Y-36252067D01*
X92963943Y-36227056D01*
X93208126Y-36152983D01*
X93433167Y-36032697D01*
X93630418Y-35870818D01*
X93792297Y-35673567D01*
X93912583Y-35448526D01*
X93982506Y-35218023D01*
X94004267Y-35327680D01*
X94101807Y-35563461D01*
X94243471Y-35775683D01*
X94423816Y-35956189D01*
X94635911Y-36098044D01*
X94871605Y-36195795D01*
X94922895Y-36203820D01*
X95123000Y-36079933D01*
X95123000Y-34417000D01*
X95103000Y-34417000D01*
X95103000Y-34163000D01*
X95123000Y-34163000D01*
X95123000Y-32500067D01*
X94922895Y-32376180D01*
X94871605Y-32384205D01*
X94635911Y-32481956D01*
X94423816Y-32623811D01*
X94243471Y-32804317D01*
X94101807Y-33016539D01*
X94004267Y-33252320D01*
X93982506Y-33361977D01*
X93912583Y-33131474D01*
X93792297Y-32906433D01*
X93630418Y-32709182D01*
X93433166Y-32547303D01*
X93208125Y-32427017D01*
X92963942Y-32352944D01*
X92710000Y-32327933D01*
X92456057Y-32352944D01*
X92211874Y-32427017D01*
X91986833Y-32547303D01*
X91789582Y-32709182D01*
X91627703Y-32906434D01*
X91507417Y-33131475D01*
X91440000Y-33353716D01*
X91372583Y-33131474D01*
X91252297Y-32906433D01*
X91090418Y-32709182D01*
X90893166Y-32547303D01*
X90668125Y-32427017D01*
X90423942Y-32352944D01*
X90170000Y-32327933D01*
X90124403Y-32332424D01*
X89264681Y-31472702D01*
X90706903Y-31472702D01*
X90778486Y-31716671D01*
X91033996Y-31837571D01*
X91308184Y-31906300D01*
X91590512Y-31920217D01*
X91870130Y-31878787D01*
X92136292Y-31783603D01*
X92261514Y-31716671D01*
X92333097Y-31472702D01*
X91520000Y-30659605D01*
X90706903Y-31472702D01*
X89264681Y-31472702D01*
X88966124Y-31174146D01*
X88938407Y-31140373D01*
X88803649Y-31029779D01*
X88649903Y-30947601D01*
X88483080Y-30896995D01*
X88353067Y-30884190D01*
X88353059Y-30884190D01*
X88309590Y-30879909D01*
X88266121Y-30884190D01*
X79353560Y-30884190D01*
X79310091Y-30879909D01*
X79266622Y-30884190D01*
X79266614Y-30884190D01*
X79136601Y-30896995D01*
X78969778Y-30947601D01*
X78816032Y-31029779D01*
X78715044Y-31112658D01*
X78715042Y-31112660D01*
X78681274Y-31140373D01*
X78653561Y-31174141D01*
X71644950Y-38182754D01*
X71611183Y-38210466D01*
X71583470Y-38244234D01*
X71583467Y-38244237D01*
X71559460Y-38273490D01*
X71500589Y-38345224D01*
X71446971Y-38445537D01*
X71418411Y-38498970D01*
X71367804Y-38665793D01*
X71350718Y-38839283D01*
X71355000Y-38882759D01*
X71355000Y-39155000D01*
X71317050Y-39155000D01*
X71098889Y-39176487D01*
X70818966Y-39261401D01*
X70560986Y-39399294D01*
X70334866Y-39584866D01*
X70149294Y-39810986D01*
X70011401Y-40068966D01*
X69926487Y-40348889D01*
X69897815Y-40640000D01*
X69926487Y-40931111D01*
X70011401Y-41211034D01*
X70149294Y-41469014D01*
X70334866Y-41695134D01*
X70560986Y-41880706D01*
X70625523Y-41915201D01*
X70508645Y-41984822D01*
X70292412Y-42179731D01*
X70118359Y-42413080D01*
X69993175Y-42675901D01*
X69948524Y-42823110D01*
X70069845Y-43053000D01*
X71263000Y-43053000D01*
X71263000Y-43033000D01*
X71517000Y-43033000D01*
X71517000Y-43053000D01*
X72710155Y-43053000D01*
X72831476Y-42823110D01*
X72786825Y-42675901D01*
X72661641Y-42413080D01*
X72487588Y-42179731D01*
X72271355Y-41984822D01*
X72154477Y-41915201D01*
X72219014Y-41880706D01*
X72445134Y-41695134D01*
X72630706Y-41469014D01*
X72768599Y-41211034D01*
X72853513Y-40931111D01*
X72882185Y-40640000D01*
X72861030Y-40425208D01*
X72868816Y-40418818D01*
X72935311Y-40337795D01*
X72979409Y-40284061D01*
X72979410Y-40284060D01*
X73061588Y-40130314D01*
X73112194Y-39963491D01*
X73124999Y-39833478D01*
X73124999Y-39833468D01*
X73129280Y-39790002D01*
X73124999Y-39746536D01*
X73124999Y-39205861D01*
X76585001Y-35745859D01*
X76585001Y-40090070D01*
X76578599Y-40068966D01*
X76440706Y-39810986D01*
X76255134Y-39584866D01*
X76029014Y-39399294D01*
X75771034Y-39261401D01*
X75491111Y-39176487D01*
X75272950Y-39155000D01*
X75127050Y-39155000D01*
X74908889Y-39176487D01*
X74628966Y-39261401D01*
X74370986Y-39399294D01*
X74144866Y-39584866D01*
X73959294Y-39810986D01*
X73821401Y-40068966D01*
X73736487Y-40348889D01*
X73707815Y-40640000D01*
X73736487Y-40931111D01*
X73821401Y-41211034D01*
X73959294Y-41469014D01*
X74144866Y-41695134D01*
X74370986Y-41880706D01*
X74435523Y-41915201D01*
X74318645Y-41984822D01*
X74102412Y-42179731D01*
X73928359Y-42413080D01*
X73803175Y-42675901D01*
X73758524Y-42823110D01*
X73879845Y-43053000D01*
X75073000Y-43053000D01*
X75073000Y-43033000D01*
X75327000Y-43033000D01*
X75327000Y-43053000D01*
X75347000Y-43053000D01*
X75347000Y-43307000D01*
X75327000Y-43307000D01*
X75327000Y-43327000D01*
X75073000Y-43327000D01*
X75073000Y-43307000D01*
X73879845Y-43307000D01*
X73758524Y-43536890D01*
X73803175Y-43684099D01*
X73928359Y-43946920D01*
X74102412Y-44180269D01*
X74186466Y-44256034D01*
X74105820Y-44280498D01*
X73995506Y-44339463D01*
X73898815Y-44418815D01*
X73819463Y-44515506D01*
X73782317Y-44585000D01*
X72807683Y-44585000D01*
X72770537Y-44515506D01*
X72691185Y-44418815D01*
X72594494Y-44339463D01*
X72484180Y-44280498D01*
X72403534Y-44256034D01*
X72487588Y-44180269D01*
X72661641Y-43946920D01*
X72786825Y-43684099D01*
X72831476Y-43536890D01*
X72710155Y-43307000D01*
X71517000Y-43307000D01*
X71517000Y-43327000D01*
X71263000Y-43327000D01*
X71263000Y-43307000D01*
X70069845Y-43307000D01*
X69948524Y-43536890D01*
X69993175Y-43684099D01*
X70118359Y-43946920D01*
X70292412Y-44180269D01*
X70376466Y-44256034D01*
X70295820Y-44280498D01*
X70185506Y-44339463D01*
X70088815Y-44418815D01*
X70009463Y-44515506D01*
X69972317Y-44585000D01*
X69320132Y-44585000D01*
X63970131Y-39235000D01*
X64500640Y-39235000D01*
X64651637Y-39460983D01*
X64949017Y-39758363D01*
X65298698Y-39992012D01*
X65687244Y-40152953D01*
X66099721Y-40235000D01*
X66520279Y-40235000D01*
X66932756Y-40152953D01*
X67321302Y-39992012D01*
X67670983Y-39758363D01*
X67968363Y-39460983D01*
X68202012Y-39111302D01*
X68362953Y-38722756D01*
X68445000Y-38310279D01*
X68445000Y-37889721D01*
X68362953Y-37477244D01*
X68202012Y-37088698D01*
X67968363Y-36739017D01*
X67670983Y-36441637D01*
X67321302Y-36207988D01*
X66932756Y-36047047D01*
X66520279Y-35965000D01*
X66099721Y-35965000D01*
X65687244Y-36047047D01*
X65298698Y-36207988D01*
X64949017Y-36441637D01*
X64651637Y-36739017D01*
X64500640Y-36965000D01*
X63039360Y-36965000D01*
X62888363Y-36739017D01*
X62590983Y-36441637D01*
X62241302Y-36207988D01*
X61852756Y-36047047D01*
X61440279Y-35965000D01*
X61019721Y-35965000D01*
X60607244Y-36047047D01*
X60218698Y-36207988D01*
X59869017Y-36441637D01*
X59571637Y-36739017D01*
X59420640Y-36965000D01*
X58288072Y-36965000D01*
X58288072Y-36600000D01*
X58275812Y-36475518D01*
X58239502Y-36355820D01*
X58180537Y-36245506D01*
X58101185Y-36148815D01*
X58004494Y-36069463D01*
X57894180Y-36010498D01*
X57774482Y-35974188D01*
X57650000Y-35961928D01*
X54650000Y-35961928D01*
X54525518Y-35974188D01*
X54405820Y-36010498D01*
X54295506Y-36069463D01*
X54198815Y-36148815D01*
X54119463Y-36245506D01*
X54060498Y-36355820D01*
X54024188Y-36475518D01*
X54011928Y-36600000D01*
X54011928Y-39600000D01*
X54024188Y-39724482D01*
X54060498Y-39844180D01*
X54119463Y-39954494D01*
X54198815Y-40051185D01*
X54295506Y-40130537D01*
X54405820Y-40189502D01*
X54525518Y-40225812D01*
X54650000Y-40238072D01*
X57650000Y-40238072D01*
X57774482Y-40225812D01*
X57894180Y-40189502D01*
X58004494Y-40130537D01*
X58101185Y-40051185D01*
X58180537Y-39954494D01*
X58239502Y-39844180D01*
X58275812Y-39724482D01*
X58288072Y-39600000D01*
X58288072Y-39235000D01*
X59420640Y-39235000D01*
X59571637Y-39460983D01*
X59869017Y-39758363D01*
X60218698Y-39992012D01*
X60607244Y-40152953D01*
X61019721Y-40235000D01*
X61440279Y-40235000D01*
X61706845Y-40181977D01*
X68008009Y-46483141D01*
X68043551Y-46526449D01*
X68216377Y-46668284D01*
X68413553Y-46773676D01*
X68627501Y-46838577D01*
X68794248Y-46855000D01*
X68794257Y-46855000D01*
X68849999Y-46860490D01*
X68905741Y-46855000D01*
X69972317Y-46855000D01*
X70009463Y-46924494D01*
X70088815Y-47021185D01*
X70185506Y-47100537D01*
X70295820Y-47159502D01*
X70415518Y-47195812D01*
X70540000Y-47208072D01*
X72240000Y-47208072D01*
X72364482Y-47195812D01*
X72484180Y-47159502D01*
X72594494Y-47100537D01*
X72691185Y-47021185D01*
X72770537Y-46924494D01*
X72807683Y-46855000D01*
X73782317Y-46855000D01*
X73819463Y-46924494D01*
X73898815Y-47021185D01*
X73995506Y-47100537D01*
X74040357Y-47124511D01*
X70076864Y-51088005D01*
X70033550Y-51123552D01*
X69891715Y-51296378D01*
X69786324Y-51493554D01*
X69786323Y-51493555D01*
X69721422Y-51707503D01*
X69699508Y-51930001D01*
X69704999Y-51985753D01*
X69705000Y-55298240D01*
X69699508Y-55354001D01*
X69721422Y-55576499D01*
X69786323Y-55790447D01*
X69818532Y-55850706D01*
X69837189Y-55885610D01*
X59076534Y-45124956D01*
X59048817Y-45091183D01*
X58914059Y-44980589D01*
X58760313Y-44898411D01*
X58593490Y-44847805D01*
X58463477Y-44835000D01*
X58463469Y-44835000D01*
X58420000Y-44830719D01*
X58376531Y-44835000D01*
X53135059Y-44835000D01*
X53029987Y-44677748D01*
X52802252Y-44450013D01*
X52645000Y-44344941D01*
X52645000Y-40595059D01*
X52802252Y-40489987D01*
X53029987Y-40262252D01*
X53208918Y-39994463D01*
X53332168Y-39696912D01*
X53395000Y-39381033D01*
X53395000Y-39058967D01*
X53332168Y-38743088D01*
X53208918Y-38445537D01*
X53029987Y-38177748D01*
X52802252Y-37950013D01*
X52534463Y-37771082D01*
X52236912Y-37647832D01*
X51921033Y-37585000D01*
X51598967Y-37585000D01*
X51283088Y-37647832D01*
X50985537Y-37771082D01*
X50717748Y-37950013D01*
X50490013Y-38177748D01*
X50311082Y-38445537D01*
X50187832Y-38743088D01*
X50125000Y-39058967D01*
X48888219Y-39058967D01*
X48857961Y-38838325D01*
X48752795Y-38533912D01*
X48659814Y-38359956D01*
X48395413Y-38264192D01*
X47439605Y-39220000D01*
X47080395Y-39220000D01*
X46124587Y-38264192D01*
X45860186Y-38359956D01*
X45719296Y-38649571D01*
X45637616Y-38961108D01*
X45618282Y-39282595D01*
X43635477Y-39282595D01*
X45229480Y-38084587D01*
X46304192Y-38084587D01*
X47260000Y-39040395D01*
X48215808Y-38084587D01*
X48120044Y-37820186D01*
X47830429Y-37679296D01*
X47518892Y-37597616D01*
X47197405Y-37578282D01*
X46878325Y-37622039D01*
X46573912Y-37727205D01*
X46399956Y-37820186D01*
X46304192Y-38084587D01*
X45229480Y-38084587D01*
X51754080Y-33180881D01*
X71138724Y-33180881D01*
X71498912Y-33670548D01*
X72162882Y-34030849D01*
X72884385Y-34254694D01*
X73635695Y-34333480D01*
X74387938Y-34264178D01*
X75112208Y-34049452D01*
X75780670Y-33697555D01*
X75821088Y-33670548D01*
X76181276Y-33180881D01*
X73660000Y-30659605D01*
X71138724Y-33180881D01*
X51754080Y-33180881D01*
X55380062Y-30455695D01*
X69806520Y-30455695D01*
X69875822Y-31207938D01*
X70090548Y-31932208D01*
X70442445Y-32600670D01*
X70469452Y-32641088D01*
X70959119Y-33001276D01*
X73480395Y-30480000D01*
X73839605Y-30480000D01*
X76360881Y-33001276D01*
X76850548Y-32641088D01*
X77210849Y-31977118D01*
X77434694Y-31255615D01*
X77508634Y-30550512D01*
X90079783Y-30550512D01*
X90121213Y-30830130D01*
X90216397Y-31096292D01*
X90283329Y-31221514D01*
X90527298Y-31293097D01*
X91340395Y-30480000D01*
X91699605Y-30480000D01*
X92512702Y-31293097D01*
X92756671Y-31221514D01*
X92877571Y-30966004D01*
X92946300Y-30691816D01*
X92960217Y-30409488D01*
X92918787Y-30129870D01*
X92823603Y-29863708D01*
X92756671Y-29738486D01*
X92512702Y-29666903D01*
X91699605Y-30480000D01*
X91340395Y-30480000D01*
X90527298Y-29666903D01*
X90283329Y-29738486D01*
X90162429Y-29993996D01*
X90093700Y-30268184D01*
X90079783Y-30550512D01*
X77508634Y-30550512D01*
X77513480Y-30504305D01*
X77444178Y-29752062D01*
X77365683Y-29487298D01*
X90706903Y-29487298D01*
X91520000Y-30300395D01*
X92333097Y-29487298D01*
X92261514Y-29243329D01*
X92006004Y-29122429D01*
X91731816Y-29053700D01*
X91449488Y-29039783D01*
X91169870Y-29081213D01*
X90903708Y-29176397D01*
X90778486Y-29243329D01*
X90706903Y-29487298D01*
X77365683Y-29487298D01*
X77229452Y-29027792D01*
X76877555Y-28359330D01*
X76850548Y-28318912D01*
X76360881Y-27958724D01*
X73839605Y-30480000D01*
X73480395Y-30480000D01*
X70959119Y-27958724D01*
X70469452Y-28318912D01*
X70109151Y-28982882D01*
X69885306Y-29704385D01*
X69806520Y-30455695D01*
X55380062Y-30455695D01*
X56470239Y-29636349D01*
X62466836Y-27779119D01*
X71138724Y-27779119D01*
X73660000Y-30300395D01*
X76181276Y-27779119D01*
X75821088Y-27289452D01*
X75157118Y-26929151D01*
X74435615Y-26705306D01*
X73684305Y-26626520D01*
X72932062Y-26695822D01*
X72207792Y-26910548D01*
X71539330Y-27262445D01*
X71498912Y-27289452D01*
X71138724Y-27779119D01*
X62466836Y-27779119D01*
X80122842Y-22310808D01*
X98575622Y-22310808D01*
X122228224Y-29636350D01*
G36*
X118753471Y-45015048D02*
G01*
X118781184Y-45048816D01*
X118814952Y-45076529D01*
X118814954Y-45076531D01*
X118886453Y-45135209D01*
X118915942Y-45159410D01*
X119069688Y-45241588D01*
X119236511Y-45292194D01*
X119366524Y-45304999D01*
X119366534Y-45304999D01*
X119410000Y-45309280D01*
X119453466Y-45304999D01*
X122971928Y-45304999D01*
X122971928Y-46570000D01*
X122984188Y-46694482D01*
X123020498Y-46814180D01*
X123079463Y-46924494D01*
X123158815Y-47021185D01*
X123255506Y-47100537D01*
X123365820Y-47159502D01*
X123446466Y-47183966D01*
X123362412Y-47259731D01*
X123188359Y-47493080D01*
X123063175Y-47755901D01*
X123018524Y-47903110D01*
X123139845Y-48133000D01*
X124333000Y-48133000D01*
X124333000Y-48113000D01*
X124587000Y-48113000D01*
X124587000Y-48133000D01*
X124607000Y-48133000D01*
X124607000Y-48387000D01*
X124587000Y-48387000D01*
X124587000Y-48407000D01*
X124333000Y-48407000D01*
X124333000Y-48387000D01*
X123139845Y-48387000D01*
X123018524Y-48616890D01*
X123063175Y-48764099D01*
X123188359Y-49026920D01*
X123362412Y-49260269D01*
X123578645Y-49455178D01*
X123695523Y-49524799D01*
X123630986Y-49559294D01*
X123404866Y-49744866D01*
X123219294Y-49970986D01*
X123081401Y-50228966D01*
X122996487Y-50508889D01*
X122986085Y-50614506D01*
X114325400Y-41953822D01*
X114325400Y-41185970D01*
X114309466Y-41024190D01*
X114762614Y-41024190D01*
X118753471Y-45015048D01*
X118753471Y-45015048D01*
G37*
X118753471Y-45015048D02*
X118781184Y-45048816D01*
X118814952Y-45076529D01*
X118814954Y-45076531D01*
X118886453Y-45135209D01*
X118915942Y-45159410D01*
X119069688Y-45241588D01*
X119236511Y-45292194D01*
X119366524Y-45304999D01*
X119366534Y-45304999D01*
X119410000Y-45309280D01*
X119453466Y-45304999D01*
X122971928Y-45304999D01*
X122971928Y-46570000D01*
X122984188Y-46694482D01*
X123020498Y-46814180D01*
X123079463Y-46924494D01*
X123158815Y-47021185D01*
X123255506Y-47100537D01*
X123365820Y-47159502D01*
X123446466Y-47183966D01*
X123362412Y-47259731D01*
X123188359Y-47493080D01*
X123063175Y-47755901D01*
X123018524Y-47903110D01*
X123139845Y-48133000D01*
X124333000Y-48133000D01*
X124333000Y-48113000D01*
X124587000Y-48113000D01*
X124587000Y-48133000D01*
X124607000Y-48133000D01*
X124607000Y-48387000D01*
X124587000Y-48387000D01*
X124587000Y-48407000D01*
X124333000Y-48407000D01*
X124333000Y-48387000D01*
X123139845Y-48387000D01*
X123018524Y-48616890D01*
X123063175Y-48764099D01*
X123188359Y-49026920D01*
X123362412Y-49260269D01*
X123578645Y-49455178D01*
X123695523Y-49524799D01*
X123630986Y-49559294D01*
X123404866Y-49744866D01*
X123219294Y-49970986D01*
X123081401Y-50228966D01*
X122996487Y-50508889D01*
X122986085Y-50614506D01*
X114325400Y-41953822D01*
X114325400Y-41185970D01*
X114309466Y-41024190D01*
X114762614Y-41024190D01*
X118753471Y-45015048D01*
M02*
