G04 #@! TF.GenerationSoftware,KiCad,Pcbnew,(5.1.2)-1*
G04 #@! TF.CreationDate,2019-05-15T23:48:02+02:00*
G04 #@! TF.ProjectId,ADClock,4144436c-6f63-46b2-9e6b-696361645f70,rev?*
G04 #@! TF.SameCoordinates,Original*
G04 #@! TF.FileFunction,Legend,Top*
G04 #@! TF.FilePolarity,Positive*
%FSLAX46Y46*%
G04 Gerber Fmt 4.6, Leading zero omitted, Abs format (unit mm)*
G04 Created by KiCad (PCBNEW (5.1.2)-1) date 2019-05-15 23:48:02*
%MOMM*%
%LPD*%
G04 APERTURE LIST*
%ADD10C,0.100000*%
%ADD11C,0.150000*%
%ADD12C,0.120000*%
%ADD13C,0.127000*%
%ADD14C,0.050000*%
G04 APERTURE END LIST*
D10*
X184310714Y-146293571D02*
X184096428Y-146865000D01*
X183882142Y-146293571D01*
X183810714Y-147222142D02*
X184560714Y-147222142D01*
X184560714Y-147400714D01*
X184525000Y-147507857D01*
X184453571Y-147579285D01*
X184382142Y-147615000D01*
X184239285Y-147650714D01*
X184132142Y-147650714D01*
X183989285Y-147615000D01*
X183917857Y-147579285D01*
X183846428Y-147507857D01*
X183810714Y-147400714D01*
X183810714Y-147222142D01*
X184560714Y-148293571D02*
X184560714Y-148150714D01*
X184525000Y-148079285D01*
X184489285Y-148043571D01*
X184382142Y-147972142D01*
X184239285Y-147936428D01*
X183953571Y-147936428D01*
X183882142Y-147972142D01*
X183846428Y-148007857D01*
X183810714Y-148079285D01*
X183810714Y-148222142D01*
X183846428Y-148293571D01*
X183882142Y-148329285D01*
X183953571Y-148365000D01*
X184132142Y-148365000D01*
X184203571Y-148329285D01*
X184239285Y-148293571D01*
X184275000Y-148222142D01*
X184275000Y-148079285D01*
X184239285Y-148007857D01*
X184203571Y-147972142D01*
X184132142Y-147936428D01*
X181770714Y-146293571D02*
X181556428Y-146865000D01*
X181342142Y-146293571D01*
X181270714Y-147222142D02*
X182020714Y-147222142D01*
X182020714Y-147400714D01*
X181985000Y-147507857D01*
X181913571Y-147579285D01*
X181842142Y-147615000D01*
X181699285Y-147650714D01*
X181592142Y-147650714D01*
X181449285Y-147615000D01*
X181377857Y-147579285D01*
X181306428Y-147507857D01*
X181270714Y-147400714D01*
X181270714Y-147222142D01*
X182020714Y-148329285D02*
X182020714Y-147972142D01*
X181663571Y-147936428D01*
X181699285Y-147972142D01*
X181735000Y-148043571D01*
X181735000Y-148222142D01*
X181699285Y-148293571D01*
X181663571Y-148329285D01*
X181592142Y-148365000D01*
X181413571Y-148365000D01*
X181342142Y-148329285D01*
X181306428Y-148293571D01*
X181270714Y-148222142D01*
X181270714Y-148043571D01*
X181306428Y-147972142D01*
X181342142Y-147936428D01*
X179230714Y-146293571D02*
X179016428Y-146865000D01*
X178802142Y-146293571D01*
X178730714Y-147222142D02*
X179480714Y-147222142D01*
X179480714Y-147400714D01*
X179445000Y-147507857D01*
X179373571Y-147579285D01*
X179302142Y-147615000D01*
X179159285Y-147650714D01*
X179052142Y-147650714D01*
X178909285Y-147615000D01*
X178837857Y-147579285D01*
X178766428Y-147507857D01*
X178730714Y-147400714D01*
X178730714Y-147222142D01*
X179230714Y-148293571D02*
X178730714Y-148293571D01*
X179516428Y-148115000D02*
X178980714Y-147936428D01*
X178980714Y-148400714D01*
X176690714Y-146293571D02*
X176476428Y-146865000D01*
X176262142Y-146293571D01*
X176190714Y-147222142D02*
X176940714Y-147222142D01*
X176940714Y-147400714D01*
X176905000Y-147507857D01*
X176833571Y-147579285D01*
X176762142Y-147615000D01*
X176619285Y-147650714D01*
X176512142Y-147650714D01*
X176369285Y-147615000D01*
X176297857Y-147579285D01*
X176226428Y-147507857D01*
X176190714Y-147400714D01*
X176190714Y-147222142D01*
X176190714Y-148365000D02*
X176190714Y-147936428D01*
X176190714Y-148150714D02*
X176940714Y-148150714D01*
X176833571Y-148079285D01*
X176762142Y-148007857D01*
X176726428Y-147936428D01*
X176940714Y-148615000D02*
X176940714Y-149079285D01*
X176655000Y-148829285D01*
X176655000Y-148936428D01*
X176619285Y-149007857D01*
X176583571Y-149043571D01*
X176512142Y-149079285D01*
X176333571Y-149079285D01*
X176262142Y-149043571D01*
X176226428Y-149007857D01*
X176190714Y-148936428D01*
X176190714Y-148722142D01*
X176226428Y-148650714D01*
X176262142Y-148615000D01*
X174150714Y-146293571D02*
X173936428Y-146865000D01*
X173722142Y-146293571D01*
X173650714Y-147222142D02*
X174400714Y-147222142D01*
X174400714Y-147400714D01*
X174365000Y-147507857D01*
X174293571Y-147579285D01*
X174222142Y-147615000D01*
X174079285Y-147650714D01*
X173972142Y-147650714D01*
X173829285Y-147615000D01*
X173757857Y-147579285D01*
X173686428Y-147507857D01*
X173650714Y-147400714D01*
X173650714Y-147222142D01*
X173650714Y-148365000D02*
X173650714Y-147936428D01*
X173650714Y-148150714D02*
X174400714Y-148150714D01*
X174293571Y-148079285D01*
X174222142Y-148007857D01*
X174186428Y-147936428D01*
X174329285Y-148650714D02*
X174365000Y-148686428D01*
X174400714Y-148757857D01*
X174400714Y-148936428D01*
X174365000Y-149007857D01*
X174329285Y-149043571D01*
X174257857Y-149079285D01*
X174186428Y-149079285D01*
X174079285Y-149043571D01*
X173650714Y-148615000D01*
X173650714Y-149079285D01*
X171610714Y-146293571D02*
X171396428Y-146865000D01*
X171182142Y-146293571D01*
X171110714Y-147222142D02*
X171860714Y-147222142D01*
X171860714Y-147400714D01*
X171825000Y-147507857D01*
X171753571Y-147579285D01*
X171682142Y-147615000D01*
X171539285Y-147650714D01*
X171432142Y-147650714D01*
X171289285Y-147615000D01*
X171217857Y-147579285D01*
X171146428Y-147507857D01*
X171110714Y-147400714D01*
X171110714Y-147222142D01*
X171539285Y-148079285D02*
X171575000Y-148007857D01*
X171610714Y-147972142D01*
X171682142Y-147936428D01*
X171717857Y-147936428D01*
X171789285Y-147972142D01*
X171825000Y-148007857D01*
X171860714Y-148079285D01*
X171860714Y-148222142D01*
X171825000Y-148293571D01*
X171789285Y-148329285D01*
X171717857Y-148365000D01*
X171682142Y-148365000D01*
X171610714Y-148329285D01*
X171575000Y-148293571D01*
X171539285Y-148222142D01*
X171539285Y-148079285D01*
X171503571Y-148007857D01*
X171467857Y-147972142D01*
X171396428Y-147936428D01*
X171253571Y-147936428D01*
X171182142Y-147972142D01*
X171146428Y-148007857D01*
X171110714Y-148079285D01*
X171110714Y-148222142D01*
X171146428Y-148293571D01*
X171182142Y-148329285D01*
X171253571Y-148365000D01*
X171396428Y-148365000D01*
X171467857Y-148329285D01*
X171503571Y-148293571D01*
X171539285Y-148222142D01*
X136133571Y-142079285D02*
X136705000Y-142293571D01*
X136133571Y-142507857D01*
X137062142Y-142579285D02*
X137062142Y-141829285D01*
X137240714Y-141829285D01*
X137347857Y-141865000D01*
X137419285Y-141936428D01*
X137455000Y-142007857D01*
X137490714Y-142150714D01*
X137490714Y-142257857D01*
X137455000Y-142400714D01*
X137419285Y-142472142D01*
X137347857Y-142543571D01*
X137240714Y-142579285D01*
X137062142Y-142579285D01*
X137847857Y-142579285D02*
X137990714Y-142579285D01*
X138062142Y-142543571D01*
X138097857Y-142507857D01*
X138169285Y-142400714D01*
X138205000Y-142257857D01*
X138205000Y-141972142D01*
X138169285Y-141900714D01*
X138133571Y-141865000D01*
X138062142Y-141829285D01*
X137919285Y-141829285D01*
X137847857Y-141865000D01*
X137812142Y-141900714D01*
X137776428Y-141972142D01*
X137776428Y-142150714D01*
X137812142Y-142222142D01*
X137847857Y-142257857D01*
X137919285Y-142293571D01*
X138062142Y-142293571D01*
X138133571Y-142257857D01*
X138169285Y-142222142D01*
X138205000Y-142150714D01*
X136133571Y-139539285D02*
X136705000Y-139753571D01*
X136133571Y-139967857D01*
X137062142Y-140039285D02*
X137062142Y-139289285D01*
X137240714Y-139289285D01*
X137347857Y-139325000D01*
X137419285Y-139396428D01*
X137455000Y-139467857D01*
X137490714Y-139610714D01*
X137490714Y-139717857D01*
X137455000Y-139860714D01*
X137419285Y-139932142D01*
X137347857Y-140003571D01*
X137240714Y-140039285D01*
X137062142Y-140039285D01*
X138205000Y-140039285D02*
X137776428Y-140039285D01*
X137990714Y-140039285D02*
X137990714Y-139289285D01*
X137919285Y-139396428D01*
X137847857Y-139467857D01*
X137776428Y-139503571D01*
X138669285Y-139289285D02*
X138740714Y-139289285D01*
X138812142Y-139325000D01*
X138847857Y-139360714D01*
X138883571Y-139432142D01*
X138919285Y-139575000D01*
X138919285Y-139753571D01*
X138883571Y-139896428D01*
X138847857Y-139967857D01*
X138812142Y-140003571D01*
X138740714Y-140039285D01*
X138669285Y-140039285D01*
X138597857Y-140003571D01*
X138562142Y-139967857D01*
X138526428Y-139896428D01*
X138490714Y-139753571D01*
X138490714Y-139575000D01*
X138526428Y-139432142D01*
X138562142Y-139360714D01*
X138597857Y-139325000D01*
X138669285Y-139289285D01*
X136133571Y-136999285D02*
X136705000Y-137213571D01*
X136133571Y-137427857D01*
X137062142Y-137499285D02*
X137062142Y-136749285D01*
X137240714Y-136749285D01*
X137347857Y-136785000D01*
X137419285Y-136856428D01*
X137455000Y-136927857D01*
X137490714Y-137070714D01*
X137490714Y-137177857D01*
X137455000Y-137320714D01*
X137419285Y-137392142D01*
X137347857Y-137463571D01*
X137240714Y-137499285D01*
X137062142Y-137499285D01*
X138205000Y-137499285D02*
X137776428Y-137499285D01*
X137990714Y-137499285D02*
X137990714Y-136749285D01*
X137919285Y-136856428D01*
X137847857Y-136927857D01*
X137776428Y-136963571D01*
X138919285Y-137499285D02*
X138490714Y-137499285D01*
X138705000Y-137499285D02*
X138705000Y-136749285D01*
X138633571Y-136856428D01*
X138562142Y-136927857D01*
X138490714Y-136963571D01*
X136133571Y-134459285D02*
X136705000Y-134673571D01*
X136133571Y-134887857D01*
X137062142Y-134959285D02*
X137062142Y-134209285D01*
X137240714Y-134209285D01*
X137347857Y-134245000D01*
X137419285Y-134316428D01*
X137455000Y-134387857D01*
X137490714Y-134530714D01*
X137490714Y-134637857D01*
X137455000Y-134780714D01*
X137419285Y-134852142D01*
X137347857Y-134923571D01*
X137240714Y-134959285D01*
X137062142Y-134959285D01*
X137740714Y-134209285D02*
X138205000Y-134209285D01*
X137955000Y-134495000D01*
X138062142Y-134495000D01*
X138133571Y-134530714D01*
X138169285Y-134566428D01*
X138205000Y-134637857D01*
X138205000Y-134816428D01*
X138169285Y-134887857D01*
X138133571Y-134923571D01*
X138062142Y-134959285D01*
X137847857Y-134959285D01*
X137776428Y-134923571D01*
X137740714Y-134887857D01*
X152607857Y-29335000D02*
X152965000Y-29335000D01*
X152536428Y-29549285D02*
X152786428Y-28799285D01*
X153036428Y-29549285D01*
X153429285Y-28799285D02*
X153500714Y-28799285D01*
X153572142Y-28835000D01*
X153607857Y-28870714D01*
X153643571Y-28942142D01*
X153679285Y-29085000D01*
X153679285Y-29263571D01*
X153643571Y-29406428D01*
X153607857Y-29477857D01*
X153572142Y-29513571D01*
X153500714Y-29549285D01*
X153429285Y-29549285D01*
X153357857Y-29513571D01*
X153322142Y-29477857D01*
X153286428Y-29406428D01*
X153250714Y-29263571D01*
X153250714Y-29085000D01*
X153286428Y-28942142D01*
X153322142Y-28870714D01*
X153357857Y-28835000D01*
X153429285Y-28799285D01*
X154572142Y-29049285D02*
X154000714Y-29263571D01*
X154572142Y-29477857D01*
X156049285Y-40396428D02*
X156263571Y-39825000D01*
X156477857Y-40396428D01*
X156335000Y-39503571D02*
X156335000Y-39146428D01*
X156549285Y-39575000D02*
X155799285Y-39325000D01*
X156549285Y-39075000D01*
X156549285Y-38432142D02*
X156549285Y-38860714D01*
X156549285Y-38646428D02*
X155799285Y-38646428D01*
X155906428Y-38717857D01*
X155977857Y-38789285D01*
X156013571Y-38860714D01*
X179313571Y-37939285D02*
X179885000Y-38153571D01*
X179313571Y-38367857D01*
X180242142Y-38439285D02*
X180242142Y-37689285D01*
X180420714Y-37689285D01*
X180527857Y-37725000D01*
X180599285Y-37796428D01*
X180635000Y-37867857D01*
X180670714Y-38010714D01*
X180670714Y-38117857D01*
X180635000Y-38260714D01*
X180599285Y-38332142D01*
X180527857Y-38403571D01*
X180420714Y-38439285D01*
X180242142Y-38439285D01*
X181027857Y-38439285D02*
X181170714Y-38439285D01*
X181242142Y-38403571D01*
X181277857Y-38367857D01*
X181349285Y-38260714D01*
X181385000Y-38117857D01*
X181385000Y-37832142D01*
X181349285Y-37760714D01*
X181313571Y-37725000D01*
X181242142Y-37689285D01*
X181099285Y-37689285D01*
X181027857Y-37725000D01*
X180992142Y-37760714D01*
X180956428Y-37832142D01*
X180956428Y-38010714D01*
X180992142Y-38082142D01*
X181027857Y-38117857D01*
X181099285Y-38153571D01*
X181242142Y-38153571D01*
X181313571Y-38117857D01*
X181349285Y-38082142D01*
X181385000Y-38010714D01*
X179313571Y-35399285D02*
X179885000Y-35613571D01*
X179313571Y-35827857D01*
X180242142Y-35899285D02*
X180242142Y-35149285D01*
X180420714Y-35149285D01*
X180527857Y-35185000D01*
X180599285Y-35256428D01*
X180635000Y-35327857D01*
X180670714Y-35470714D01*
X180670714Y-35577857D01*
X180635000Y-35720714D01*
X180599285Y-35792142D01*
X180527857Y-35863571D01*
X180420714Y-35899285D01*
X180242142Y-35899285D01*
X181385000Y-35899285D02*
X180956428Y-35899285D01*
X181170714Y-35899285D02*
X181170714Y-35149285D01*
X181099285Y-35256428D01*
X181027857Y-35327857D01*
X180956428Y-35363571D01*
X181849285Y-35149285D02*
X181920714Y-35149285D01*
X181992142Y-35185000D01*
X182027857Y-35220714D01*
X182063571Y-35292142D01*
X182099285Y-35435000D01*
X182099285Y-35613571D01*
X182063571Y-35756428D01*
X182027857Y-35827857D01*
X181992142Y-35863571D01*
X181920714Y-35899285D01*
X181849285Y-35899285D01*
X181777857Y-35863571D01*
X181742142Y-35827857D01*
X181706428Y-35756428D01*
X181670714Y-35613571D01*
X181670714Y-35435000D01*
X181706428Y-35292142D01*
X181742142Y-35220714D01*
X181777857Y-35185000D01*
X181849285Y-35149285D01*
X179313571Y-32859285D02*
X179885000Y-33073571D01*
X179313571Y-33287857D01*
X180242142Y-33359285D02*
X180242142Y-32609285D01*
X180420714Y-32609285D01*
X180527857Y-32645000D01*
X180599285Y-32716428D01*
X180635000Y-32787857D01*
X180670714Y-32930714D01*
X180670714Y-33037857D01*
X180635000Y-33180714D01*
X180599285Y-33252142D01*
X180527857Y-33323571D01*
X180420714Y-33359285D01*
X180242142Y-33359285D01*
X181385000Y-33359285D02*
X180956428Y-33359285D01*
X181170714Y-33359285D02*
X181170714Y-32609285D01*
X181099285Y-32716428D01*
X181027857Y-32787857D01*
X180956428Y-32823571D01*
X182099285Y-33359285D02*
X181670714Y-33359285D01*
X181885000Y-33359285D02*
X181885000Y-32609285D01*
X181813571Y-32716428D01*
X181742142Y-32787857D01*
X181670714Y-32823571D01*
X179313571Y-30319285D02*
X179885000Y-30533571D01*
X179313571Y-30747857D01*
X180242142Y-30819285D02*
X180242142Y-30069285D01*
X180420714Y-30069285D01*
X180527857Y-30105000D01*
X180599285Y-30176428D01*
X180635000Y-30247857D01*
X180670714Y-30390714D01*
X180670714Y-30497857D01*
X180635000Y-30640714D01*
X180599285Y-30712142D01*
X180527857Y-30783571D01*
X180420714Y-30819285D01*
X180242142Y-30819285D01*
X180920714Y-30069285D02*
X181385000Y-30069285D01*
X181135000Y-30355000D01*
X181242142Y-30355000D01*
X181313571Y-30390714D01*
X181349285Y-30426428D01*
X181385000Y-30497857D01*
X181385000Y-30676428D01*
X181349285Y-30747857D01*
X181313571Y-30783571D01*
X181242142Y-30819285D01*
X181027857Y-30819285D01*
X180956428Y-30783571D01*
X180920714Y-30747857D01*
X182719285Y-51826428D02*
X182933571Y-51255000D01*
X183147857Y-51826428D01*
X183219285Y-50897857D02*
X182469285Y-50897857D01*
X182469285Y-50719285D01*
X182505000Y-50612142D01*
X182576428Y-50540714D01*
X182647857Y-50505000D01*
X182790714Y-50469285D01*
X182897857Y-50469285D01*
X183040714Y-50505000D01*
X183112142Y-50540714D01*
X183183571Y-50612142D01*
X183219285Y-50719285D01*
X183219285Y-50897857D01*
X182469285Y-50219285D02*
X182469285Y-49719285D01*
X183219285Y-50040714D01*
X180179285Y-51826428D02*
X180393571Y-51255000D01*
X180607857Y-51826428D01*
X180679285Y-50897857D02*
X179929285Y-50897857D01*
X179929285Y-50719285D01*
X179965000Y-50612142D01*
X180036428Y-50540714D01*
X180107857Y-50505000D01*
X180250714Y-50469285D01*
X180357857Y-50469285D01*
X180500714Y-50505000D01*
X180572142Y-50540714D01*
X180643571Y-50612142D01*
X180679285Y-50719285D01*
X180679285Y-50897857D01*
X179929285Y-49826428D02*
X179929285Y-49969285D01*
X179965000Y-50040714D01*
X180000714Y-50076428D01*
X180107857Y-50147857D01*
X180250714Y-50183571D01*
X180536428Y-50183571D01*
X180607857Y-50147857D01*
X180643571Y-50112142D01*
X180679285Y-50040714D01*
X180679285Y-49897857D01*
X180643571Y-49826428D01*
X180607857Y-49790714D01*
X180536428Y-49755000D01*
X180357857Y-49755000D01*
X180286428Y-49790714D01*
X180250714Y-49826428D01*
X180215000Y-49897857D01*
X180215000Y-50040714D01*
X180250714Y-50112142D01*
X180286428Y-50147857D01*
X180357857Y-50183571D01*
X177639285Y-51826428D02*
X177853571Y-51255000D01*
X178067857Y-51826428D01*
X178139285Y-50897857D02*
X177389285Y-50897857D01*
X177389285Y-50719285D01*
X177425000Y-50612142D01*
X177496428Y-50540714D01*
X177567857Y-50505000D01*
X177710714Y-50469285D01*
X177817857Y-50469285D01*
X177960714Y-50505000D01*
X178032142Y-50540714D01*
X178103571Y-50612142D01*
X178139285Y-50719285D01*
X178139285Y-50897857D01*
X177389285Y-49790714D02*
X177389285Y-50147857D01*
X177746428Y-50183571D01*
X177710714Y-50147857D01*
X177675000Y-50076428D01*
X177675000Y-49897857D01*
X177710714Y-49826428D01*
X177746428Y-49790714D01*
X177817857Y-49755000D01*
X177996428Y-49755000D01*
X178067857Y-49790714D01*
X178103571Y-49826428D01*
X178139285Y-49897857D01*
X178139285Y-50076428D01*
X178103571Y-50147857D01*
X178067857Y-50183571D01*
X175099285Y-51826428D02*
X175313571Y-51255000D01*
X175527857Y-51826428D01*
X175599285Y-50897857D02*
X174849285Y-50897857D01*
X174849285Y-50719285D01*
X174885000Y-50612142D01*
X174956428Y-50540714D01*
X175027857Y-50505000D01*
X175170714Y-50469285D01*
X175277857Y-50469285D01*
X175420714Y-50505000D01*
X175492142Y-50540714D01*
X175563571Y-50612142D01*
X175599285Y-50719285D01*
X175599285Y-50897857D01*
X175599285Y-49755000D02*
X175599285Y-50183571D01*
X175599285Y-49969285D02*
X174849285Y-49969285D01*
X174956428Y-50040714D01*
X175027857Y-50112142D01*
X175063571Y-50183571D01*
X174920714Y-49469285D02*
X174885000Y-49433571D01*
X174849285Y-49362142D01*
X174849285Y-49183571D01*
X174885000Y-49112142D01*
X174920714Y-49076428D01*
X174992142Y-49040714D01*
X175063571Y-49040714D01*
X175170714Y-49076428D01*
X175599285Y-49505000D01*
X175599285Y-49040714D01*
X172559285Y-51826428D02*
X172773571Y-51255000D01*
X172987857Y-51826428D01*
X173059285Y-50897857D02*
X172309285Y-50897857D01*
X172309285Y-50719285D01*
X172345000Y-50612142D01*
X172416428Y-50540714D01*
X172487857Y-50505000D01*
X172630714Y-50469285D01*
X172737857Y-50469285D01*
X172880714Y-50505000D01*
X172952142Y-50540714D01*
X173023571Y-50612142D01*
X173059285Y-50719285D01*
X173059285Y-50897857D01*
X173059285Y-49755000D02*
X173059285Y-50183571D01*
X173059285Y-49969285D02*
X172309285Y-49969285D01*
X172416428Y-50040714D01*
X172487857Y-50112142D01*
X172523571Y-50183571D01*
X172309285Y-49505000D02*
X172309285Y-49040714D01*
X172595000Y-49290714D01*
X172595000Y-49183571D01*
X172630714Y-49112142D01*
X172666428Y-49076428D01*
X172737857Y-49040714D01*
X172916428Y-49040714D01*
X172987857Y-49076428D01*
X173023571Y-49112142D01*
X173059285Y-49183571D01*
X173059285Y-49397857D01*
X173023571Y-49469285D01*
X172987857Y-49505000D01*
X170019285Y-51826428D02*
X170233571Y-51255000D01*
X170447857Y-51826428D01*
X170519285Y-50897857D02*
X169769285Y-50897857D01*
X169769285Y-50719285D01*
X169805000Y-50612142D01*
X169876428Y-50540714D01*
X169947857Y-50505000D01*
X170090714Y-50469285D01*
X170197857Y-50469285D01*
X170340714Y-50505000D01*
X170412142Y-50540714D01*
X170483571Y-50612142D01*
X170519285Y-50719285D01*
X170519285Y-50897857D01*
X170019285Y-49826428D02*
X170519285Y-49826428D01*
X169733571Y-50005000D02*
X170269285Y-50183571D01*
X170269285Y-49719285D01*
X131149285Y-143115000D02*
X130399285Y-143115000D01*
X130399285Y-142936428D01*
X130435000Y-142829285D01*
X130506428Y-142757857D01*
X130577857Y-142722142D01*
X130720714Y-142686428D01*
X130827857Y-142686428D01*
X130970714Y-142722142D01*
X131042142Y-142757857D01*
X131113571Y-142829285D01*
X131149285Y-142936428D01*
X131149285Y-143115000D01*
X130935000Y-142400714D02*
X130935000Y-142043571D01*
X131149285Y-142472142D02*
X130399285Y-142222142D01*
X131149285Y-141972142D01*
X131149285Y-141329285D02*
X131149285Y-141757857D01*
X131149285Y-141543571D02*
X130399285Y-141543571D01*
X130506428Y-141615000D01*
X130577857Y-141686428D01*
X130613571Y-141757857D01*
X130435000Y-145351428D02*
X130399285Y-145422857D01*
X130399285Y-145530000D01*
X130435000Y-145637142D01*
X130506428Y-145708571D01*
X130577857Y-145744285D01*
X130720714Y-145780000D01*
X130827857Y-145780000D01*
X130970714Y-145744285D01*
X131042142Y-145708571D01*
X131113571Y-145637142D01*
X131149285Y-145530000D01*
X131149285Y-145458571D01*
X131113571Y-145351428D01*
X131077857Y-145315714D01*
X130827857Y-145315714D01*
X130827857Y-145458571D01*
X131149285Y-144994285D02*
X130399285Y-144994285D01*
X131149285Y-144565714D01*
X130399285Y-144565714D01*
X131149285Y-144208571D02*
X130399285Y-144208571D01*
X130399285Y-144030000D01*
X130435000Y-143922857D01*
X130506428Y-143851428D01*
X130577857Y-143815714D01*
X130720714Y-143780000D01*
X130827857Y-143780000D01*
X130970714Y-143815714D01*
X131042142Y-143851428D01*
X131113571Y-143922857D01*
X131149285Y-144030000D01*
X131149285Y-144208571D01*
X130863571Y-148248571D02*
X130863571Y-147677142D01*
X131149285Y-147962857D02*
X130577857Y-147962857D01*
X130399285Y-146962857D02*
X130399285Y-147320000D01*
X130756428Y-147355714D01*
X130720714Y-147320000D01*
X130685000Y-147248571D01*
X130685000Y-147070000D01*
X130720714Y-146998571D01*
X130756428Y-146962857D01*
X130827857Y-146927142D01*
X131006428Y-146927142D01*
X131077857Y-146962857D01*
X131113571Y-146998571D01*
X131149285Y-147070000D01*
X131149285Y-147248571D01*
X131113571Y-147320000D01*
X131077857Y-147355714D01*
X130649285Y-146677142D02*
X131149285Y-146498571D01*
X130649285Y-146320000D01*
X131149285Y-135495000D02*
X130399285Y-135495000D01*
X130399285Y-135316428D01*
X130435000Y-135209285D01*
X130506428Y-135137857D01*
X130577857Y-135102142D01*
X130720714Y-135066428D01*
X130827857Y-135066428D01*
X130970714Y-135102142D01*
X131042142Y-135137857D01*
X131113571Y-135209285D01*
X131149285Y-135316428D01*
X131149285Y-135495000D01*
X130935000Y-134780714D02*
X130935000Y-134423571D01*
X131149285Y-134852142D02*
X130399285Y-134602142D01*
X131149285Y-134352142D01*
X130649285Y-133780714D02*
X131149285Y-133780714D01*
X130363571Y-133959285D02*
X130899285Y-134137857D01*
X130899285Y-133673571D01*
X131149285Y-138035000D02*
X130399285Y-138035000D01*
X130399285Y-137856428D01*
X130435000Y-137749285D01*
X130506428Y-137677857D01*
X130577857Y-137642142D01*
X130720714Y-137606428D01*
X130827857Y-137606428D01*
X130970714Y-137642142D01*
X131042142Y-137677857D01*
X131113571Y-137749285D01*
X131149285Y-137856428D01*
X131149285Y-138035000D01*
X130935000Y-137320714D02*
X130935000Y-136963571D01*
X131149285Y-137392142D02*
X130399285Y-137142142D01*
X131149285Y-136892142D01*
X130399285Y-136713571D02*
X130399285Y-136249285D01*
X130685000Y-136499285D01*
X130685000Y-136392142D01*
X130720714Y-136320714D01*
X130756428Y-136285000D01*
X130827857Y-136249285D01*
X131006428Y-136249285D01*
X131077857Y-136285000D01*
X131113571Y-136320714D01*
X131149285Y-136392142D01*
X131149285Y-136606428D01*
X131113571Y-136677857D01*
X131077857Y-136713571D01*
X131149285Y-140575000D02*
X130399285Y-140575000D01*
X130399285Y-140396428D01*
X130435000Y-140289285D01*
X130506428Y-140217857D01*
X130577857Y-140182142D01*
X130720714Y-140146428D01*
X130827857Y-140146428D01*
X130970714Y-140182142D01*
X131042142Y-140217857D01*
X131113571Y-140289285D01*
X131149285Y-140396428D01*
X131149285Y-140575000D01*
X130935000Y-139860714D02*
X130935000Y-139503571D01*
X131149285Y-139932142D02*
X130399285Y-139682142D01*
X131149285Y-139432142D01*
X130470714Y-139217857D02*
X130435000Y-139182142D01*
X130399285Y-139110714D01*
X130399285Y-138932142D01*
X130435000Y-138860714D01*
X130470714Y-138825000D01*
X130542142Y-138789285D01*
X130613571Y-138789285D01*
X130720714Y-138825000D01*
X131149285Y-139253571D01*
X131149285Y-138789285D01*
X187029285Y-38975000D02*
X186279285Y-38975000D01*
X186279285Y-38796428D01*
X186315000Y-38689285D01*
X186386428Y-38617857D01*
X186457857Y-38582142D01*
X186600714Y-38546428D01*
X186707857Y-38546428D01*
X186850714Y-38582142D01*
X186922142Y-38617857D01*
X186993571Y-38689285D01*
X187029285Y-38796428D01*
X187029285Y-38975000D01*
X186815000Y-38260714D02*
X186815000Y-37903571D01*
X187029285Y-38332142D02*
X186279285Y-38082142D01*
X187029285Y-37832142D01*
X187029285Y-37189285D02*
X187029285Y-37617857D01*
X187029285Y-37403571D02*
X186279285Y-37403571D01*
X186386428Y-37475000D01*
X186457857Y-37546428D01*
X186493571Y-37617857D01*
X186315000Y-41211428D02*
X186279285Y-41282857D01*
X186279285Y-41390000D01*
X186315000Y-41497142D01*
X186386428Y-41568571D01*
X186457857Y-41604285D01*
X186600714Y-41640000D01*
X186707857Y-41640000D01*
X186850714Y-41604285D01*
X186922142Y-41568571D01*
X186993571Y-41497142D01*
X187029285Y-41390000D01*
X187029285Y-41318571D01*
X186993571Y-41211428D01*
X186957857Y-41175714D01*
X186707857Y-41175714D01*
X186707857Y-41318571D01*
X187029285Y-40854285D02*
X186279285Y-40854285D01*
X187029285Y-40425714D01*
X186279285Y-40425714D01*
X187029285Y-40068571D02*
X186279285Y-40068571D01*
X186279285Y-39890000D01*
X186315000Y-39782857D01*
X186386428Y-39711428D01*
X186457857Y-39675714D01*
X186600714Y-39640000D01*
X186707857Y-39640000D01*
X186850714Y-39675714D01*
X186922142Y-39711428D01*
X186993571Y-39782857D01*
X187029285Y-39890000D01*
X187029285Y-40068571D01*
X186743571Y-44108571D02*
X186743571Y-43537142D01*
X187029285Y-43822857D02*
X186457857Y-43822857D01*
X186279285Y-42822857D02*
X186279285Y-43180000D01*
X186636428Y-43215714D01*
X186600714Y-43180000D01*
X186565000Y-43108571D01*
X186565000Y-42930000D01*
X186600714Y-42858571D01*
X186636428Y-42822857D01*
X186707857Y-42787142D01*
X186886428Y-42787142D01*
X186957857Y-42822857D01*
X186993571Y-42858571D01*
X187029285Y-42930000D01*
X187029285Y-43108571D01*
X186993571Y-43180000D01*
X186957857Y-43215714D01*
X186529285Y-42537142D02*
X187029285Y-42358571D01*
X186529285Y-42180000D01*
X187029285Y-31355000D02*
X186279285Y-31355000D01*
X186279285Y-31176428D01*
X186315000Y-31069285D01*
X186386428Y-30997857D01*
X186457857Y-30962142D01*
X186600714Y-30926428D01*
X186707857Y-30926428D01*
X186850714Y-30962142D01*
X186922142Y-30997857D01*
X186993571Y-31069285D01*
X187029285Y-31176428D01*
X187029285Y-31355000D01*
X186815000Y-30640714D02*
X186815000Y-30283571D01*
X187029285Y-30712142D02*
X186279285Y-30462142D01*
X187029285Y-30212142D01*
X186529285Y-29640714D02*
X187029285Y-29640714D01*
X186243571Y-29819285D02*
X186779285Y-29997857D01*
X186779285Y-29533571D01*
X187029285Y-33895000D02*
X186279285Y-33895000D01*
X186279285Y-33716428D01*
X186315000Y-33609285D01*
X186386428Y-33537857D01*
X186457857Y-33502142D01*
X186600714Y-33466428D01*
X186707857Y-33466428D01*
X186850714Y-33502142D01*
X186922142Y-33537857D01*
X186993571Y-33609285D01*
X187029285Y-33716428D01*
X187029285Y-33895000D01*
X186815000Y-33180714D02*
X186815000Y-32823571D01*
X187029285Y-33252142D02*
X186279285Y-33002142D01*
X187029285Y-32752142D01*
X186279285Y-32573571D02*
X186279285Y-32109285D01*
X186565000Y-32359285D01*
X186565000Y-32252142D01*
X186600714Y-32180714D01*
X186636428Y-32145000D01*
X186707857Y-32109285D01*
X186886428Y-32109285D01*
X186957857Y-32145000D01*
X186993571Y-32180714D01*
X187029285Y-32252142D01*
X187029285Y-32466428D01*
X186993571Y-32537857D01*
X186957857Y-32573571D01*
X187029285Y-36435000D02*
X186279285Y-36435000D01*
X186279285Y-36256428D01*
X186315000Y-36149285D01*
X186386428Y-36077857D01*
X186457857Y-36042142D01*
X186600714Y-36006428D01*
X186707857Y-36006428D01*
X186850714Y-36042142D01*
X186922142Y-36077857D01*
X186993571Y-36149285D01*
X187029285Y-36256428D01*
X187029285Y-36435000D01*
X186815000Y-35720714D02*
X186815000Y-35363571D01*
X187029285Y-35792142D02*
X186279285Y-35542142D01*
X187029285Y-35292142D01*
X186350714Y-35077857D02*
X186315000Y-35042142D01*
X186279285Y-34970714D01*
X186279285Y-34792142D01*
X186315000Y-34720714D01*
X186350714Y-34685000D01*
X186422142Y-34649285D01*
X186493571Y-34649285D01*
X186600714Y-34685000D01*
X187029285Y-35113571D01*
X187029285Y-34649285D01*
X155085000Y-42249285D02*
X155085000Y-41499285D01*
X155263571Y-41499285D01*
X155370714Y-41535000D01*
X155442142Y-41606428D01*
X155477857Y-41677857D01*
X155513571Y-41820714D01*
X155513571Y-41927857D01*
X155477857Y-42070714D01*
X155442142Y-42142142D01*
X155370714Y-42213571D01*
X155263571Y-42249285D01*
X155085000Y-42249285D01*
X155799285Y-42035000D02*
X156156428Y-42035000D01*
X155727857Y-42249285D02*
X155977857Y-41499285D01*
X156227857Y-42249285D01*
X156370714Y-41499285D02*
X156799285Y-41499285D01*
X156585000Y-42249285D02*
X156585000Y-41499285D01*
X157013571Y-42035000D02*
X157370714Y-42035000D01*
X156942142Y-42249285D02*
X157192142Y-41499285D01*
X157442142Y-42249285D01*
X158178571Y-41535000D02*
X158107142Y-41499285D01*
X158000000Y-41499285D01*
X157892857Y-41535000D01*
X157821428Y-41606428D01*
X157785714Y-41677857D01*
X157750000Y-41820714D01*
X157750000Y-41927857D01*
X157785714Y-42070714D01*
X157821428Y-42142142D01*
X157892857Y-42213571D01*
X158000000Y-42249285D01*
X158071428Y-42249285D01*
X158178571Y-42213571D01*
X158214285Y-42177857D01*
X158214285Y-41927857D01*
X158071428Y-41927857D01*
X158535714Y-42249285D02*
X158535714Y-41499285D01*
X158964285Y-42249285D01*
X158964285Y-41499285D01*
X159321428Y-42249285D02*
X159321428Y-41499285D01*
X159500000Y-41499285D01*
X159607142Y-41535000D01*
X159678571Y-41606428D01*
X159714285Y-41677857D01*
X159750000Y-41820714D01*
X159750000Y-41927857D01*
X159714285Y-42070714D01*
X159678571Y-42142142D01*
X159607142Y-42213571D01*
X159500000Y-42249285D01*
X159321428Y-42249285D01*
X160361428Y-41963571D02*
X160932857Y-41963571D01*
X160647142Y-42249285D02*
X160647142Y-41677857D01*
X161647142Y-41499285D02*
X161290000Y-41499285D01*
X161254285Y-41856428D01*
X161290000Y-41820714D01*
X161361428Y-41785000D01*
X161540000Y-41785000D01*
X161611428Y-41820714D01*
X161647142Y-41856428D01*
X161682857Y-41927857D01*
X161682857Y-42106428D01*
X161647142Y-42177857D01*
X161611428Y-42213571D01*
X161540000Y-42249285D01*
X161361428Y-42249285D01*
X161290000Y-42213571D01*
X161254285Y-42177857D01*
X161932857Y-41749285D02*
X162111428Y-42249285D01*
X162290000Y-41749285D01*
X155085000Y-27009285D02*
X155085000Y-26259285D01*
X155263571Y-26259285D01*
X155370714Y-26295000D01*
X155442142Y-26366428D01*
X155477857Y-26437857D01*
X155513571Y-26580714D01*
X155513571Y-26687857D01*
X155477857Y-26830714D01*
X155442142Y-26902142D01*
X155370714Y-26973571D01*
X155263571Y-27009285D01*
X155085000Y-27009285D01*
X155799285Y-26795000D02*
X156156428Y-26795000D01*
X155727857Y-27009285D02*
X155977857Y-26259285D01*
X156227857Y-27009285D01*
X156370714Y-26259285D02*
X156799285Y-26259285D01*
X156585000Y-27009285D02*
X156585000Y-26259285D01*
X157013571Y-26795000D02*
X157370714Y-26795000D01*
X156942142Y-27009285D02*
X157192142Y-26259285D01*
X157442142Y-27009285D01*
X160361428Y-26723571D02*
X160932857Y-26723571D01*
X160647142Y-27009285D02*
X160647142Y-26437857D01*
X161647142Y-26259285D02*
X161290000Y-26259285D01*
X161254285Y-26616428D01*
X161290000Y-26580714D01*
X161361428Y-26545000D01*
X161540000Y-26545000D01*
X161611428Y-26580714D01*
X161647142Y-26616428D01*
X161682857Y-26687857D01*
X161682857Y-26866428D01*
X161647142Y-26937857D01*
X161611428Y-26973571D01*
X161540000Y-27009285D01*
X161361428Y-27009285D01*
X161290000Y-26973571D01*
X161254285Y-26937857D01*
X161932857Y-26509285D02*
X162111428Y-27009285D01*
X162290000Y-26509285D01*
X158178571Y-26295000D02*
X158107142Y-26259285D01*
X158000000Y-26259285D01*
X157892857Y-26295000D01*
X157821428Y-26366428D01*
X157785714Y-26437857D01*
X157750000Y-26580714D01*
X157750000Y-26687857D01*
X157785714Y-26830714D01*
X157821428Y-26902142D01*
X157892857Y-26973571D01*
X158000000Y-27009285D01*
X158071428Y-27009285D01*
X158178571Y-26973571D01*
X158214285Y-26937857D01*
X158214285Y-26687857D01*
X158071428Y-26687857D01*
X158535714Y-27009285D02*
X158535714Y-26259285D01*
X158964285Y-27009285D01*
X158964285Y-26259285D01*
X159321428Y-27009285D02*
X159321428Y-26259285D01*
X159500000Y-26259285D01*
X159607142Y-26295000D01*
X159678571Y-26366428D01*
X159714285Y-26437857D01*
X159750000Y-26580714D01*
X159750000Y-26687857D01*
X159714285Y-26830714D01*
X159678571Y-26902142D01*
X159607142Y-26973571D01*
X159500000Y-27009285D01*
X159321428Y-27009285D01*
D11*
X131717023Y-95607142D02*
X131669404Y-95654761D01*
X131526547Y-95702380D01*
X131431309Y-95702380D01*
X131288452Y-95654761D01*
X131193214Y-95559523D01*
X131145595Y-95464285D01*
X131097976Y-95273809D01*
X131097976Y-95130952D01*
X131145595Y-94940476D01*
X131193214Y-94845238D01*
X131288452Y-94750000D01*
X131431309Y-94702380D01*
X131526547Y-94702380D01*
X131669404Y-94750000D01*
X131717023Y-94797619D01*
X132050357Y-94702380D02*
X132669404Y-94702380D01*
X132336071Y-95083333D01*
X132478928Y-95083333D01*
X132574166Y-95130952D01*
X132621785Y-95178571D01*
X132669404Y-95273809D01*
X132669404Y-95511904D01*
X132621785Y-95607142D01*
X132574166Y-95654761D01*
X132478928Y-95702380D01*
X132193214Y-95702380D01*
X132097976Y-95654761D01*
X132050357Y-95607142D01*
X133145595Y-95654761D02*
X133145595Y-95702380D01*
X133097976Y-95797619D01*
X133050357Y-95845238D01*
X134907500Y-95607142D02*
X134859880Y-95654761D01*
X134717023Y-95702380D01*
X134621785Y-95702380D01*
X134478928Y-95654761D01*
X134383690Y-95559523D01*
X134336071Y-95464285D01*
X134288452Y-95273809D01*
X134288452Y-95130952D01*
X134336071Y-94940476D01*
X134383690Y-94845238D01*
X134478928Y-94750000D01*
X134621785Y-94702380D01*
X134717023Y-94702380D01*
X134859880Y-94750000D01*
X134907500Y-94797619D01*
X135764642Y-95035714D02*
X135764642Y-95702380D01*
X135526547Y-94654761D02*
X135288452Y-95369047D01*
X135907500Y-95369047D01*
X136336071Y-95654761D02*
X136336071Y-95702380D01*
X136288452Y-95797619D01*
X136240833Y-95845238D01*
X138097976Y-95607142D02*
X138050357Y-95654761D01*
X137907500Y-95702380D01*
X137812261Y-95702380D01*
X137669404Y-95654761D01*
X137574166Y-95559523D01*
X137526547Y-95464285D01*
X137478928Y-95273809D01*
X137478928Y-95130952D01*
X137526547Y-94940476D01*
X137574166Y-94845238D01*
X137669404Y-94750000D01*
X137812261Y-94702380D01*
X137907500Y-94702380D01*
X138050357Y-94750000D01*
X138097976Y-94797619D01*
X139002738Y-94702380D02*
X138526547Y-94702380D01*
X138478928Y-95178571D01*
X138526547Y-95130952D01*
X138621785Y-95083333D01*
X138859880Y-95083333D01*
X138955119Y-95130952D01*
X139002738Y-95178571D01*
X139050357Y-95273809D01*
X139050357Y-95511904D01*
X139002738Y-95607142D01*
X138955119Y-95654761D01*
X138859880Y-95702380D01*
X138621785Y-95702380D01*
X138526547Y-95654761D01*
X138478928Y-95607142D01*
X139526547Y-95654761D02*
X139526547Y-95702380D01*
X139478928Y-95797619D01*
X139431309Y-95845238D01*
X141288452Y-95607142D02*
X141240833Y-95654761D01*
X141097976Y-95702380D01*
X141002738Y-95702380D01*
X140859880Y-95654761D01*
X140764642Y-95559523D01*
X140717023Y-95464285D01*
X140669404Y-95273809D01*
X140669404Y-95130952D01*
X140717023Y-94940476D01*
X140764642Y-94845238D01*
X140859880Y-94750000D01*
X141002738Y-94702380D01*
X141097976Y-94702380D01*
X141240833Y-94750000D01*
X141288452Y-94797619D01*
X142145595Y-94702380D02*
X141955119Y-94702380D01*
X141859880Y-94750000D01*
X141812261Y-94797619D01*
X141717023Y-94940476D01*
X141669404Y-95130952D01*
X141669404Y-95511904D01*
X141717023Y-95607142D01*
X141764642Y-95654761D01*
X141859880Y-95702380D01*
X142050357Y-95702380D01*
X142145595Y-95654761D01*
X142193214Y-95607142D01*
X142240833Y-95511904D01*
X142240833Y-95273809D01*
X142193214Y-95178571D01*
X142145595Y-95130952D01*
X142050357Y-95083333D01*
X141859880Y-95083333D01*
X141764642Y-95130952D01*
X141717023Y-95178571D01*
X141669404Y-95273809D01*
X142717023Y-95654761D02*
X142717023Y-95702380D01*
X142669404Y-95797619D01*
X142621785Y-95845238D01*
X144478928Y-95607142D02*
X144431309Y-95654761D01*
X144288452Y-95702380D01*
X144193214Y-95702380D01*
X144050357Y-95654761D01*
X143955119Y-95559523D01*
X143907500Y-95464285D01*
X143859880Y-95273809D01*
X143859880Y-95130952D01*
X143907500Y-94940476D01*
X143955119Y-94845238D01*
X144050357Y-94750000D01*
X144193214Y-94702380D01*
X144288452Y-94702380D01*
X144431309Y-94750000D01*
X144478928Y-94797619D01*
X144955119Y-95702380D02*
X145145595Y-95702380D01*
X145240833Y-95654761D01*
X145288452Y-95607142D01*
X145383690Y-95464285D01*
X145431309Y-95273809D01*
X145431309Y-94892857D01*
X145383690Y-94797619D01*
X145336071Y-94750000D01*
X145240833Y-94702380D01*
X145050357Y-94702380D01*
X144955119Y-94750000D01*
X144907500Y-94797619D01*
X144859880Y-94892857D01*
X144859880Y-95130952D01*
X144907500Y-95226190D01*
X144955119Y-95273809D01*
X145050357Y-95321428D01*
X145240833Y-95321428D01*
X145336071Y-95273809D01*
X145383690Y-95226190D01*
X145431309Y-95130952D01*
X145907500Y-95654761D02*
X145907500Y-95702380D01*
X145859880Y-95797619D01*
X145812261Y-95845238D01*
X147669404Y-95607142D02*
X147621785Y-95654761D01*
X147478928Y-95702380D01*
X147383690Y-95702380D01*
X147240833Y-95654761D01*
X147145595Y-95559523D01*
X147097976Y-95464285D01*
X147050357Y-95273809D01*
X147050357Y-95130952D01*
X147097976Y-94940476D01*
X147145595Y-94845238D01*
X147240833Y-94750000D01*
X147383690Y-94702380D01*
X147478928Y-94702380D01*
X147621785Y-94750000D01*
X147669404Y-94797619D01*
X148621785Y-95702380D02*
X148050357Y-95702380D01*
X148336071Y-95702380D02*
X148336071Y-94702380D01*
X148240833Y-94845238D01*
X148145595Y-94940476D01*
X148050357Y-94988095D01*
X149240833Y-94702380D02*
X149336071Y-94702380D01*
X149431309Y-94750000D01*
X149478928Y-94797619D01*
X149526547Y-94892857D01*
X149574166Y-95083333D01*
X149574166Y-95321428D01*
X149526547Y-95511904D01*
X149478928Y-95607142D01*
X149431309Y-95654761D01*
X149336071Y-95702380D01*
X149240833Y-95702380D01*
X149145595Y-95654761D01*
X149097976Y-95607142D01*
X149050357Y-95511904D01*
X149002738Y-95321428D01*
X149002738Y-95083333D01*
X149050357Y-94892857D01*
X149097976Y-94797619D01*
X149145595Y-94750000D01*
X149240833Y-94702380D01*
X150764642Y-95178571D02*
X151526547Y-95178571D01*
X151526547Y-95464285D02*
X150764642Y-95464285D01*
X152955119Y-94702380D02*
X153050357Y-94702380D01*
X153145595Y-94750000D01*
X153193214Y-94797619D01*
X153240833Y-94892857D01*
X153288452Y-95083333D01*
X153288452Y-95321428D01*
X153240833Y-95511904D01*
X153193214Y-95607142D01*
X153145595Y-95654761D01*
X153050357Y-95702380D01*
X152955119Y-95702380D01*
X152859880Y-95654761D01*
X152812261Y-95607142D01*
X152764642Y-95511904D01*
X152717023Y-95321428D01*
X152717023Y-95083333D01*
X152764642Y-94892857D01*
X152812261Y-94797619D01*
X152859880Y-94750000D01*
X152955119Y-94702380D01*
X153717023Y-95607142D02*
X153764642Y-95654761D01*
X153717023Y-95702380D01*
X153669404Y-95654761D01*
X153717023Y-95607142D01*
X153717023Y-95702380D01*
X154717023Y-95702380D02*
X154145595Y-95702380D01*
X154431309Y-95702380D02*
X154431309Y-94702380D01*
X154336071Y-94845238D01*
X154240833Y-94940476D01*
X154145595Y-94988095D01*
X155145595Y-95035714D02*
X155145595Y-96035714D01*
X155621785Y-95559523D02*
X155669404Y-95654761D01*
X155764642Y-95702380D01*
X155145595Y-95559523D02*
X155193214Y-95654761D01*
X155288452Y-95702380D01*
X155478928Y-95702380D01*
X155574166Y-95654761D01*
X155621785Y-95559523D01*
X155621785Y-95035714D01*
X156526547Y-95178571D02*
X156193214Y-95178571D01*
X156193214Y-95702380D02*
X156193214Y-94702380D01*
X156669404Y-94702380D01*
X131717023Y-93067142D02*
X131669404Y-93114761D01*
X131526547Y-93162380D01*
X131431309Y-93162380D01*
X131288452Y-93114761D01*
X131193214Y-93019523D01*
X131145595Y-92924285D01*
X131097976Y-92733809D01*
X131097976Y-92590952D01*
X131145595Y-92400476D01*
X131193214Y-92305238D01*
X131288452Y-92210000D01*
X131431309Y-92162380D01*
X131526547Y-92162380D01*
X131669404Y-92210000D01*
X131717023Y-92257619D01*
X132669404Y-93162380D02*
X132097976Y-93162380D01*
X132383690Y-93162380D02*
X132383690Y-92162380D01*
X132288452Y-92305238D01*
X132193214Y-92400476D01*
X132097976Y-92448095D01*
X133145595Y-93114761D02*
X133145595Y-93162380D01*
X133097976Y-93257619D01*
X133050357Y-93305238D01*
X134907500Y-93067142D02*
X134859880Y-93114761D01*
X134717023Y-93162380D01*
X134621785Y-93162380D01*
X134478928Y-93114761D01*
X134383690Y-93019523D01*
X134336071Y-92924285D01*
X134288452Y-92733809D01*
X134288452Y-92590952D01*
X134336071Y-92400476D01*
X134383690Y-92305238D01*
X134478928Y-92210000D01*
X134621785Y-92162380D01*
X134717023Y-92162380D01*
X134859880Y-92210000D01*
X134907500Y-92257619D01*
X135288452Y-92257619D02*
X135336071Y-92210000D01*
X135431309Y-92162380D01*
X135669404Y-92162380D01*
X135764642Y-92210000D01*
X135812261Y-92257619D01*
X135859880Y-92352857D01*
X135859880Y-92448095D01*
X135812261Y-92590952D01*
X135240833Y-93162380D01*
X135859880Y-93162380D01*
X136336071Y-93114761D02*
X136336071Y-93162380D01*
X136288452Y-93257619D01*
X136240833Y-93305238D01*
X138097976Y-93067142D02*
X138050357Y-93114761D01*
X137907500Y-93162380D01*
X137812261Y-93162380D01*
X137669404Y-93114761D01*
X137574166Y-93019523D01*
X137526547Y-92924285D01*
X137478928Y-92733809D01*
X137478928Y-92590952D01*
X137526547Y-92400476D01*
X137574166Y-92305238D01*
X137669404Y-92210000D01*
X137812261Y-92162380D01*
X137907500Y-92162380D01*
X138050357Y-92210000D01*
X138097976Y-92257619D01*
X138431309Y-92162380D02*
X139097976Y-92162380D01*
X138669404Y-93162380D01*
X141050357Y-93162380D02*
X141002738Y-93162380D01*
X140907500Y-93114761D01*
X140764642Y-92971904D01*
X140526547Y-92686190D01*
X140431309Y-92543333D01*
X140383690Y-92400476D01*
X140383690Y-92305238D01*
X140431309Y-92210000D01*
X140526547Y-92162380D01*
X140574166Y-92162380D01*
X140669404Y-92210000D01*
X140717023Y-92305238D01*
X140717023Y-92352857D01*
X140669404Y-92448095D01*
X140621785Y-92495714D01*
X140336071Y-92686190D01*
X140288452Y-92733809D01*
X140240833Y-92829047D01*
X140240833Y-92971904D01*
X140288452Y-93067142D01*
X140336071Y-93114761D01*
X140431309Y-93162380D01*
X140574166Y-93162380D01*
X140669404Y-93114761D01*
X140717023Y-93067142D01*
X140859880Y-92876666D01*
X140907500Y-92733809D01*
X140907500Y-92638571D01*
X142812261Y-93067142D02*
X142764642Y-93114761D01*
X142621785Y-93162380D01*
X142526547Y-93162380D01*
X142383690Y-93114761D01*
X142288452Y-93019523D01*
X142240833Y-92924285D01*
X142193214Y-92733809D01*
X142193214Y-92590952D01*
X142240833Y-92400476D01*
X142288452Y-92305238D01*
X142383690Y-92210000D01*
X142526547Y-92162380D01*
X142621785Y-92162380D01*
X142764642Y-92210000D01*
X142812261Y-92257619D01*
X143383690Y-92590952D02*
X143288452Y-92543333D01*
X143240833Y-92495714D01*
X143193214Y-92400476D01*
X143193214Y-92352857D01*
X143240833Y-92257619D01*
X143288452Y-92210000D01*
X143383690Y-92162380D01*
X143574166Y-92162380D01*
X143669404Y-92210000D01*
X143717023Y-92257619D01*
X143764642Y-92352857D01*
X143764642Y-92400476D01*
X143717023Y-92495714D01*
X143669404Y-92543333D01*
X143574166Y-92590952D01*
X143383690Y-92590952D01*
X143288452Y-92638571D01*
X143240833Y-92686190D01*
X143193214Y-92781428D01*
X143193214Y-92971904D01*
X143240833Y-93067142D01*
X143288452Y-93114761D01*
X143383690Y-93162380D01*
X143574166Y-93162380D01*
X143669404Y-93114761D01*
X143717023Y-93067142D01*
X143764642Y-92971904D01*
X143764642Y-92781428D01*
X143717023Y-92686190D01*
X143669404Y-92638571D01*
X143574166Y-92590952D01*
X145717023Y-92638571D02*
X146478928Y-92638571D01*
X146478928Y-92924285D02*
X145717023Y-92924285D01*
X147669404Y-92257619D02*
X147717023Y-92210000D01*
X147812261Y-92162380D01*
X148050357Y-92162380D01*
X148145595Y-92210000D01*
X148193214Y-92257619D01*
X148240833Y-92352857D01*
X148240833Y-92448095D01*
X148193214Y-92590952D01*
X147621785Y-93162380D01*
X148240833Y-93162380D01*
X148621785Y-92257619D02*
X148669404Y-92210000D01*
X148764642Y-92162380D01*
X149002738Y-92162380D01*
X149097976Y-92210000D01*
X149145595Y-92257619D01*
X149193214Y-92352857D01*
X149193214Y-92448095D01*
X149145595Y-92590952D01*
X148574166Y-93162380D01*
X149193214Y-93162380D01*
X149621785Y-92495714D02*
X149621785Y-93495714D01*
X149621785Y-92543333D02*
X149717023Y-92495714D01*
X149907500Y-92495714D01*
X150002738Y-92543333D01*
X150050357Y-92590952D01*
X150097976Y-92686190D01*
X150097976Y-92971904D01*
X150050357Y-93067142D01*
X150002738Y-93114761D01*
X149907500Y-93162380D01*
X149717023Y-93162380D01*
X149621785Y-93114761D01*
X150859880Y-92638571D02*
X150526547Y-92638571D01*
X150526547Y-93162380D02*
X150526547Y-92162380D01*
X151002738Y-92162380D01*
D12*
X169950000Y-116740000D02*
X169950000Y-119480000D01*
X162710000Y-116740000D02*
X162710000Y-119480000D01*
X162710000Y-119480000D02*
X169950000Y-119480000D01*
X162710000Y-116740000D02*
X169950000Y-116740000D01*
X170030000Y-123290000D02*
X162790000Y-123290000D01*
X170030000Y-120550000D02*
X162790000Y-120550000D01*
X170030000Y-123290000D02*
X170030000Y-120550000D01*
X162790000Y-123290000D02*
X162790000Y-120550000D01*
X158650000Y-92940000D02*
X161390000Y-92940000D01*
X158650000Y-100180000D02*
X161390000Y-100180000D01*
X161390000Y-100180000D02*
X161390000Y-92940000D01*
X158650000Y-100180000D02*
X158650000Y-92940000D01*
X161390000Y-114450000D02*
X161390000Y-121690000D01*
X158650000Y-114450000D02*
X158650000Y-121690000D01*
X161390000Y-114450000D02*
X158650000Y-114450000D01*
X161390000Y-121690000D02*
X158650000Y-121690000D01*
X166470000Y-92860000D02*
X166470000Y-100100000D01*
X163730000Y-92860000D02*
X163730000Y-100100000D01*
X166470000Y-92860000D02*
X163730000Y-92860000D01*
X166470000Y-100100000D02*
X163730000Y-100100000D01*
X158650000Y-83670000D02*
X158650000Y-76430000D01*
X161390000Y-83670000D02*
X161390000Y-76430000D01*
X158650000Y-83670000D02*
X161390000Y-83670000D01*
X158650000Y-76430000D02*
X161390000Y-76430000D01*
X162790000Y-81380000D02*
X162790000Y-78640000D01*
X170030000Y-81380000D02*
X170030000Y-78640000D01*
X170030000Y-78640000D02*
X162790000Y-78640000D01*
X170030000Y-81380000D02*
X162790000Y-81380000D01*
X162710000Y-82450000D02*
X169950000Y-82450000D01*
X162710000Y-85190000D02*
X169950000Y-85190000D01*
X162710000Y-82450000D02*
X162710000Y-85190000D01*
X169950000Y-82450000D02*
X169950000Y-85190000D01*
X161390000Y-62000000D02*
X158650000Y-62000000D01*
X161390000Y-54760000D02*
X158650000Y-54760000D01*
X158650000Y-54760000D02*
X158650000Y-62000000D01*
X161390000Y-54760000D02*
X161390000Y-62000000D01*
X166470000Y-62000000D02*
X163730000Y-62000000D01*
X166470000Y-54760000D02*
X163730000Y-54760000D01*
X163730000Y-54760000D02*
X163730000Y-62000000D01*
X166470000Y-54760000D02*
X166470000Y-62000000D01*
D13*
X178562000Y-105156000D02*
X178562000Y-110744000D01*
X141478000Y-105156000D02*
X178562000Y-105156000D01*
X141478000Y-105156000D02*
X141478000Y-107315000D01*
X141478000Y-110744000D02*
X178562000Y-110744000D01*
X141478000Y-107315000D02*
G75*
G02X141478000Y-108585000I0J-635000D01*
G01*
X141478000Y-108585000D02*
X141478000Y-110744000D01*
X141478000Y-70485000D02*
X141478000Y-72644000D01*
X141478000Y-69215000D02*
G75*
G02X141478000Y-70485000I0J-635000D01*
G01*
X141478000Y-72644000D02*
X178562000Y-72644000D01*
X141478000Y-67056000D02*
X141478000Y-69215000D01*
X141478000Y-67056000D02*
X178562000Y-67056000D01*
X178562000Y-67056000D02*
X178562000Y-72644000D01*
D12*
X139700000Y-44450000D02*
X132080000Y-44450000D01*
X139700000Y-29210000D02*
X132080000Y-29210000D01*
X138430000Y-44450000D02*
X138430000Y-29210000D01*
X132080000Y-44450000D02*
X132080000Y-29210000D01*
X139700000Y-44450000D02*
X139700000Y-29210000D01*
X139700000Y-62230000D02*
X139700000Y-46990000D01*
X132080000Y-62230000D02*
X132080000Y-46990000D01*
X138430000Y-62230000D02*
X138430000Y-46990000D01*
X139700000Y-46990000D02*
X132080000Y-46990000D01*
X139700000Y-62230000D02*
X132080000Y-62230000D01*
X134680000Y-133290000D02*
X132020000Y-133290000D01*
X134680000Y-146050000D02*
X134680000Y-133290000D01*
X132020000Y-146050000D02*
X132020000Y-133290000D01*
X134680000Y-146050000D02*
X132020000Y-146050000D01*
X134680000Y-147320000D02*
X134680000Y-148650000D01*
X134680000Y-148650000D02*
X133350000Y-148650000D01*
X185480000Y-44510000D02*
X184150000Y-44510000D01*
X185480000Y-43180000D02*
X185480000Y-44510000D01*
X185480000Y-41910000D02*
X182820000Y-41910000D01*
X182820000Y-41910000D02*
X182820000Y-29150000D01*
X185480000Y-41910000D02*
X185480000Y-29150000D01*
X185480000Y-29150000D02*
X182820000Y-29150000D01*
X154880000Y-27880000D02*
X154880000Y-30540000D01*
X160020000Y-27880000D02*
X154880000Y-27880000D01*
X160020000Y-30540000D02*
X154880000Y-30540000D01*
X160020000Y-27880000D02*
X160020000Y-30540000D01*
X161290000Y-27880000D02*
X162620000Y-27880000D01*
X162620000Y-27880000D02*
X162620000Y-29210000D01*
X162620000Y-43120000D02*
X162620000Y-44450000D01*
X161290000Y-43120000D02*
X162620000Y-43120000D01*
X160020000Y-43120000D02*
X160020000Y-45780000D01*
X160020000Y-45780000D02*
X154880000Y-45780000D01*
X160020000Y-43120000D02*
X154880000Y-43120000D01*
X154880000Y-43120000D02*
X154880000Y-45780000D01*
X185480000Y-144840000D02*
X185480000Y-142180000D01*
X172720000Y-144840000D02*
X185480000Y-144840000D01*
X172720000Y-142180000D02*
X185480000Y-142180000D01*
X172720000Y-144840000D02*
X172720000Y-142180000D01*
X171450000Y-144840000D02*
X170120000Y-144840000D01*
X170120000Y-144840000D02*
X170120000Y-143510000D01*
X176515000Y-117550000D02*
G75*
G03X171465000Y-117550000I-2525000J0D01*
G01*
X176515000Y-123950000D02*
G75*
G02X171465000Y-123950000I-2525000J0D01*
G01*
X176515000Y-123950000D02*
X176515000Y-117550000D01*
X171465000Y-123950000D02*
X171465000Y-117550000D01*
X176515000Y-79250000D02*
X176515000Y-85650000D01*
X171465000Y-79250000D02*
X171465000Y-85650000D01*
X171465000Y-79250000D02*
G75*
G02X176515000Y-79250000I2525000J0D01*
G01*
X171465000Y-85650000D02*
G75*
G03X176515000Y-85650000I2525000J0D01*
G01*
X168850000Y-53280000D02*
X168850000Y-55940000D01*
X181610000Y-53280000D02*
X168850000Y-53280000D01*
X181610000Y-55940000D02*
X168850000Y-55940000D01*
X181610000Y-53280000D02*
X181610000Y-55940000D01*
X182880000Y-53280000D02*
X184210000Y-53280000D01*
X184210000Y-53280000D02*
X184210000Y-54610000D01*
D11*
X166163333Y-115967142D02*
X166115714Y-116014761D01*
X165972857Y-116062380D01*
X165877619Y-116062380D01*
X165734761Y-116014761D01*
X165639523Y-115919523D01*
X165591904Y-115824285D01*
X165544285Y-115633809D01*
X165544285Y-115490952D01*
X165591904Y-115300476D01*
X165639523Y-115205238D01*
X165734761Y-115110000D01*
X165877619Y-115062380D01*
X165972857Y-115062380D01*
X166115714Y-115110000D01*
X166163333Y-115157619D01*
X167115714Y-116062380D02*
X166544285Y-116062380D01*
X166830000Y-116062380D02*
X166830000Y-115062380D01*
X166734761Y-115205238D01*
X166639523Y-115300476D01*
X166544285Y-115348095D01*
X166243333Y-124777142D02*
X166195714Y-124824761D01*
X166052857Y-124872380D01*
X165957619Y-124872380D01*
X165814761Y-124824761D01*
X165719523Y-124729523D01*
X165671904Y-124634285D01*
X165624285Y-124443809D01*
X165624285Y-124300952D01*
X165671904Y-124110476D01*
X165719523Y-124015238D01*
X165814761Y-123920000D01*
X165957619Y-123872380D01*
X166052857Y-123872380D01*
X166195714Y-123920000D01*
X166243333Y-123967619D01*
X166624285Y-123967619D02*
X166671904Y-123920000D01*
X166767142Y-123872380D01*
X167005238Y-123872380D01*
X167100476Y-123920000D01*
X167148095Y-123967619D01*
X167195714Y-124062857D01*
X167195714Y-124158095D01*
X167148095Y-124300952D01*
X166576666Y-124872380D01*
X167195714Y-124872380D01*
X162917142Y-96726666D02*
X162964761Y-96774285D01*
X163012380Y-96917142D01*
X163012380Y-97012380D01*
X162964761Y-97155238D01*
X162869523Y-97250476D01*
X162774285Y-97298095D01*
X162583809Y-97345714D01*
X162440952Y-97345714D01*
X162250476Y-97298095D01*
X162155238Y-97250476D01*
X162060000Y-97155238D01*
X162012380Y-97012380D01*
X162012380Y-96917142D01*
X162060000Y-96774285D01*
X162107619Y-96726666D01*
X162012380Y-96393333D02*
X162012380Y-95774285D01*
X162393333Y-96107619D01*
X162393333Y-95964761D01*
X162440952Y-95869523D01*
X162488571Y-95821904D01*
X162583809Y-95774285D01*
X162821904Y-95774285D01*
X162917142Y-95821904D01*
X162964761Y-95869523D01*
X163012380Y-95964761D01*
X163012380Y-96250476D01*
X162964761Y-96345714D01*
X162917142Y-96393333D01*
X157837142Y-118236666D02*
X157884761Y-118284285D01*
X157932380Y-118427142D01*
X157932380Y-118522380D01*
X157884761Y-118665238D01*
X157789523Y-118760476D01*
X157694285Y-118808095D01*
X157503809Y-118855714D01*
X157360952Y-118855714D01*
X157170476Y-118808095D01*
X157075238Y-118760476D01*
X156980000Y-118665238D01*
X156932380Y-118522380D01*
X156932380Y-118427142D01*
X156980000Y-118284285D01*
X157027619Y-118236666D01*
X157265714Y-117379523D02*
X157932380Y-117379523D01*
X156884761Y-117617619D02*
X157599047Y-117855714D01*
X157599047Y-117236666D01*
X167957142Y-96646666D02*
X168004761Y-96694285D01*
X168052380Y-96837142D01*
X168052380Y-96932380D01*
X168004761Y-97075238D01*
X167909523Y-97170476D01*
X167814285Y-97218095D01*
X167623809Y-97265714D01*
X167480952Y-97265714D01*
X167290476Y-97218095D01*
X167195238Y-97170476D01*
X167100000Y-97075238D01*
X167052380Y-96932380D01*
X167052380Y-96837142D01*
X167100000Y-96694285D01*
X167147619Y-96646666D01*
X167052380Y-95741904D02*
X167052380Y-96218095D01*
X167528571Y-96265714D01*
X167480952Y-96218095D01*
X167433333Y-96122857D01*
X167433333Y-95884761D01*
X167480952Y-95789523D01*
X167528571Y-95741904D01*
X167623809Y-95694285D01*
X167861904Y-95694285D01*
X167957142Y-95741904D01*
X168004761Y-95789523D01*
X168052380Y-95884761D01*
X168052380Y-96122857D01*
X168004761Y-96218095D01*
X167957142Y-96265714D01*
X157877142Y-80216666D02*
X157924761Y-80264285D01*
X157972380Y-80407142D01*
X157972380Y-80502380D01*
X157924761Y-80645238D01*
X157829523Y-80740476D01*
X157734285Y-80788095D01*
X157543809Y-80835714D01*
X157400952Y-80835714D01*
X157210476Y-80788095D01*
X157115238Y-80740476D01*
X157020000Y-80645238D01*
X156972380Y-80502380D01*
X156972380Y-80407142D01*
X157020000Y-80264285D01*
X157067619Y-80216666D01*
X156972380Y-79359523D02*
X156972380Y-79550000D01*
X157020000Y-79645238D01*
X157067619Y-79692857D01*
X157210476Y-79788095D01*
X157400952Y-79835714D01*
X157781904Y-79835714D01*
X157877142Y-79788095D01*
X157924761Y-79740476D01*
X157972380Y-79645238D01*
X157972380Y-79454761D01*
X157924761Y-79359523D01*
X157877142Y-79311904D01*
X157781904Y-79264285D01*
X157543809Y-79264285D01*
X157448571Y-79311904D01*
X157400952Y-79359523D01*
X157353333Y-79454761D01*
X157353333Y-79645238D01*
X157400952Y-79740476D01*
X157448571Y-79788095D01*
X157543809Y-79835714D01*
X166203333Y-77827142D02*
X166155714Y-77874761D01*
X166012857Y-77922380D01*
X165917619Y-77922380D01*
X165774761Y-77874761D01*
X165679523Y-77779523D01*
X165631904Y-77684285D01*
X165584285Y-77493809D01*
X165584285Y-77350952D01*
X165631904Y-77160476D01*
X165679523Y-77065238D01*
X165774761Y-76970000D01*
X165917619Y-76922380D01*
X166012857Y-76922380D01*
X166155714Y-76970000D01*
X166203333Y-77017619D01*
X166536666Y-76922380D02*
X167203333Y-76922380D01*
X166774761Y-77922380D01*
X166203333Y-86717142D02*
X166155714Y-86764761D01*
X166012857Y-86812380D01*
X165917619Y-86812380D01*
X165774761Y-86764761D01*
X165679523Y-86669523D01*
X165631904Y-86574285D01*
X165584285Y-86383809D01*
X165584285Y-86240952D01*
X165631904Y-86050476D01*
X165679523Y-85955238D01*
X165774761Y-85860000D01*
X165917619Y-85812380D01*
X166012857Y-85812380D01*
X166155714Y-85860000D01*
X166203333Y-85907619D01*
X166774761Y-86240952D02*
X166679523Y-86193333D01*
X166631904Y-86145714D01*
X166584285Y-86050476D01*
X166584285Y-86002857D01*
X166631904Y-85907619D01*
X166679523Y-85860000D01*
X166774761Y-85812380D01*
X166965238Y-85812380D01*
X167060476Y-85860000D01*
X167108095Y-85907619D01*
X167155714Y-86002857D01*
X167155714Y-86050476D01*
X167108095Y-86145714D01*
X167060476Y-86193333D01*
X166965238Y-86240952D01*
X166774761Y-86240952D01*
X166679523Y-86288571D01*
X166631904Y-86336190D01*
X166584285Y-86431428D01*
X166584285Y-86621904D01*
X166631904Y-86717142D01*
X166679523Y-86764761D01*
X166774761Y-86812380D01*
X166965238Y-86812380D01*
X167060476Y-86764761D01*
X167108095Y-86717142D01*
X167155714Y-86621904D01*
X167155714Y-86431428D01*
X167108095Y-86336190D01*
X167060476Y-86288571D01*
X166965238Y-86240952D01*
X162877142Y-58546666D02*
X162924761Y-58594285D01*
X162972380Y-58737142D01*
X162972380Y-58832380D01*
X162924761Y-58975238D01*
X162829523Y-59070476D01*
X162734285Y-59118095D01*
X162543809Y-59165714D01*
X162400952Y-59165714D01*
X162210476Y-59118095D01*
X162115238Y-59070476D01*
X162020000Y-58975238D01*
X161972380Y-58832380D01*
X161972380Y-58737142D01*
X162020000Y-58594285D01*
X162067619Y-58546666D01*
X162972380Y-58070476D02*
X162972380Y-57880000D01*
X162924761Y-57784761D01*
X162877142Y-57737142D01*
X162734285Y-57641904D01*
X162543809Y-57594285D01*
X162162857Y-57594285D01*
X162067619Y-57641904D01*
X162020000Y-57689523D01*
X161972380Y-57784761D01*
X161972380Y-57975238D01*
X162020000Y-58070476D01*
X162067619Y-58118095D01*
X162162857Y-58165714D01*
X162400952Y-58165714D01*
X162496190Y-58118095D01*
X162543809Y-58070476D01*
X162591428Y-57975238D01*
X162591428Y-57784761D01*
X162543809Y-57689523D01*
X162496190Y-57641904D01*
X162400952Y-57594285D01*
X167957142Y-59022857D02*
X168004761Y-59070476D01*
X168052380Y-59213333D01*
X168052380Y-59308571D01*
X168004761Y-59451428D01*
X167909523Y-59546666D01*
X167814285Y-59594285D01*
X167623809Y-59641904D01*
X167480952Y-59641904D01*
X167290476Y-59594285D01*
X167195238Y-59546666D01*
X167100000Y-59451428D01*
X167052380Y-59308571D01*
X167052380Y-59213333D01*
X167100000Y-59070476D01*
X167147619Y-59022857D01*
X168052380Y-58070476D02*
X168052380Y-58641904D01*
X168052380Y-58356190D02*
X167052380Y-58356190D01*
X167195238Y-58451428D01*
X167290476Y-58546666D01*
X167338095Y-58641904D01*
X167052380Y-57451428D02*
X167052380Y-57356190D01*
X167100000Y-57260952D01*
X167147619Y-57213333D01*
X167242857Y-57165714D01*
X167433333Y-57118095D01*
X167671428Y-57118095D01*
X167861904Y-57165714D01*
X167957142Y-57213333D01*
X168004761Y-57260952D01*
X168052380Y-57356190D01*
X168052380Y-57451428D01*
X168004761Y-57546666D01*
X167957142Y-57594285D01*
X167861904Y-57641904D01*
X167671428Y-57689523D01*
X167433333Y-57689523D01*
X167242857Y-57641904D01*
X167147619Y-57594285D01*
X167100000Y-57546666D01*
X167052380Y-57451428D01*
D14*
X141243767Y-108575288D02*
X140603228Y-108575288D01*
X141182763Y-107904247D02*
X141213265Y-107934749D01*
X141243767Y-108026254D01*
X141243767Y-108087258D01*
X141213265Y-108178763D01*
X141152262Y-108239767D01*
X141091258Y-108270269D01*
X140969250Y-108300771D01*
X140877745Y-108300771D01*
X140755737Y-108270269D01*
X140694734Y-108239767D01*
X140633730Y-108178763D01*
X140603228Y-108087258D01*
X140603228Y-108026254D01*
X140633730Y-107934749D01*
X140664232Y-107904247D01*
X141243767Y-107294210D02*
X141243767Y-107660232D01*
X141243767Y-107477221D02*
X140603228Y-107477221D01*
X140694734Y-107538224D01*
X140755737Y-107599228D01*
X140786239Y-107660232D01*
D11*
X154377142Y-108116666D02*
X154853333Y-108116666D01*
X154281904Y-108402380D02*
X154615238Y-107402380D01*
X154948571Y-108402380D01*
X155139047Y-107402380D02*
X155710476Y-107402380D01*
X155424761Y-108402380D02*
X155424761Y-107402380D01*
X156043809Y-108402380D02*
X156043809Y-107402380D01*
X156377142Y-108116666D01*
X156710476Y-107402380D01*
X156710476Y-108402380D01*
X157186666Y-107878571D02*
X157520000Y-107878571D01*
X157662857Y-108402380D02*
X157186666Y-108402380D01*
X157186666Y-107402380D01*
X157662857Y-107402380D01*
X158615238Y-107450000D02*
X158520000Y-107402380D01*
X158377142Y-107402380D01*
X158234285Y-107450000D01*
X158139047Y-107545238D01*
X158091428Y-107640476D01*
X158043809Y-107830952D01*
X158043809Y-107973809D01*
X158091428Y-108164285D01*
X158139047Y-108259523D01*
X158234285Y-108354761D01*
X158377142Y-108402380D01*
X158472380Y-108402380D01*
X158615238Y-108354761D01*
X158662857Y-108307142D01*
X158662857Y-107973809D01*
X158472380Y-107973809D01*
X159043809Y-108116666D02*
X159520000Y-108116666D01*
X158948571Y-108402380D02*
X159281904Y-107402380D01*
X159615238Y-108402380D01*
X159853333Y-107402380D02*
X160472380Y-107402380D01*
X160139047Y-107783333D01*
X160281904Y-107783333D01*
X160377142Y-107830952D01*
X160424761Y-107878571D01*
X160472380Y-107973809D01*
X160472380Y-108211904D01*
X160424761Y-108307142D01*
X160377142Y-108354761D01*
X160281904Y-108402380D01*
X159996190Y-108402380D01*
X159900952Y-108354761D01*
X159853333Y-108307142D01*
X160853333Y-107497619D02*
X160900952Y-107450000D01*
X160996190Y-107402380D01*
X161234285Y-107402380D01*
X161329523Y-107450000D01*
X161377142Y-107497619D01*
X161424761Y-107592857D01*
X161424761Y-107688095D01*
X161377142Y-107830952D01*
X160805714Y-108402380D01*
X161424761Y-108402380D01*
X161996190Y-107830952D02*
X161900952Y-107783333D01*
X161853333Y-107735714D01*
X161805714Y-107640476D01*
X161805714Y-107592857D01*
X161853333Y-107497619D01*
X161900952Y-107450000D01*
X161996190Y-107402380D01*
X162186666Y-107402380D01*
X162281904Y-107450000D01*
X162329523Y-107497619D01*
X162377142Y-107592857D01*
X162377142Y-107640476D01*
X162329523Y-107735714D01*
X162281904Y-107783333D01*
X162186666Y-107830952D01*
X161996190Y-107830952D01*
X161900952Y-107878571D01*
X161853333Y-107926190D01*
X161805714Y-108021428D01*
X161805714Y-108211904D01*
X161853333Y-108307142D01*
X161900952Y-108354761D01*
X161996190Y-108402380D01*
X162186666Y-108402380D01*
X162281904Y-108354761D01*
X162329523Y-108307142D01*
X162377142Y-108211904D01*
X162377142Y-108021428D01*
X162329523Y-107926190D01*
X162281904Y-107878571D01*
X162186666Y-107830952D01*
X162805714Y-108021428D02*
X163567619Y-108021428D01*
X164043809Y-108402380D02*
X164043809Y-107402380D01*
X164424761Y-107402380D01*
X164520000Y-107450000D01*
X164567619Y-107497619D01*
X164615238Y-107592857D01*
X164615238Y-107735714D01*
X164567619Y-107830952D01*
X164520000Y-107878571D01*
X164424761Y-107926190D01*
X164043809Y-107926190D01*
X165043809Y-107402380D02*
X165043809Y-108211904D01*
X165091428Y-108307142D01*
X165139047Y-108354761D01*
X165234285Y-108402380D01*
X165424761Y-108402380D01*
X165520000Y-108354761D01*
X165567619Y-108307142D01*
X165615238Y-108211904D01*
X165615238Y-107402380D01*
D14*
X141243767Y-70475288D02*
X140603228Y-70475288D01*
X141182763Y-69804247D02*
X141213265Y-69834749D01*
X141243767Y-69926254D01*
X141243767Y-69987258D01*
X141213265Y-70078763D01*
X141152262Y-70139767D01*
X141091258Y-70170269D01*
X140969250Y-70200771D01*
X140877745Y-70200771D01*
X140755737Y-70170269D01*
X140694734Y-70139767D01*
X140633730Y-70078763D01*
X140603228Y-69987258D01*
X140603228Y-69926254D01*
X140633730Y-69834749D01*
X140664232Y-69804247D01*
X140664232Y-69560232D02*
X140633730Y-69529730D01*
X140603228Y-69468726D01*
X140603228Y-69316217D01*
X140633730Y-69255213D01*
X140664232Y-69224711D01*
X140725236Y-69194210D01*
X140786239Y-69194210D01*
X140877745Y-69224711D01*
X141243767Y-69590734D01*
X141243767Y-69194210D01*
D11*
X154377142Y-70016666D02*
X154853333Y-70016666D01*
X154281904Y-70302380D02*
X154615238Y-69302380D01*
X154948571Y-70302380D01*
X155139047Y-69302380D02*
X155710476Y-69302380D01*
X155424761Y-70302380D02*
X155424761Y-69302380D01*
X156043809Y-70302380D02*
X156043809Y-69302380D01*
X156377142Y-70016666D01*
X156710476Y-69302380D01*
X156710476Y-70302380D01*
X157186666Y-69778571D02*
X157520000Y-69778571D01*
X157662857Y-70302380D02*
X157186666Y-70302380D01*
X157186666Y-69302380D01*
X157662857Y-69302380D01*
X158615238Y-69350000D02*
X158520000Y-69302380D01*
X158377142Y-69302380D01*
X158234285Y-69350000D01*
X158139047Y-69445238D01*
X158091428Y-69540476D01*
X158043809Y-69730952D01*
X158043809Y-69873809D01*
X158091428Y-70064285D01*
X158139047Y-70159523D01*
X158234285Y-70254761D01*
X158377142Y-70302380D01*
X158472380Y-70302380D01*
X158615238Y-70254761D01*
X158662857Y-70207142D01*
X158662857Y-69873809D01*
X158472380Y-69873809D01*
X159043809Y-70016666D02*
X159520000Y-70016666D01*
X158948571Y-70302380D02*
X159281904Y-69302380D01*
X159615238Y-70302380D01*
X159853333Y-69302380D02*
X160472380Y-69302380D01*
X160139047Y-69683333D01*
X160281904Y-69683333D01*
X160377142Y-69730952D01*
X160424761Y-69778571D01*
X160472380Y-69873809D01*
X160472380Y-70111904D01*
X160424761Y-70207142D01*
X160377142Y-70254761D01*
X160281904Y-70302380D01*
X159996190Y-70302380D01*
X159900952Y-70254761D01*
X159853333Y-70207142D01*
X160853333Y-69397619D02*
X160900952Y-69350000D01*
X160996190Y-69302380D01*
X161234285Y-69302380D01*
X161329523Y-69350000D01*
X161377142Y-69397619D01*
X161424761Y-69492857D01*
X161424761Y-69588095D01*
X161377142Y-69730952D01*
X160805714Y-70302380D01*
X161424761Y-70302380D01*
X161996190Y-69730952D02*
X161900952Y-69683333D01*
X161853333Y-69635714D01*
X161805714Y-69540476D01*
X161805714Y-69492857D01*
X161853333Y-69397619D01*
X161900952Y-69350000D01*
X161996190Y-69302380D01*
X162186666Y-69302380D01*
X162281904Y-69350000D01*
X162329523Y-69397619D01*
X162377142Y-69492857D01*
X162377142Y-69540476D01*
X162329523Y-69635714D01*
X162281904Y-69683333D01*
X162186666Y-69730952D01*
X161996190Y-69730952D01*
X161900952Y-69778571D01*
X161853333Y-69826190D01*
X161805714Y-69921428D01*
X161805714Y-70111904D01*
X161853333Y-70207142D01*
X161900952Y-70254761D01*
X161996190Y-70302380D01*
X162186666Y-70302380D01*
X162281904Y-70254761D01*
X162329523Y-70207142D01*
X162377142Y-70111904D01*
X162377142Y-69921428D01*
X162329523Y-69826190D01*
X162281904Y-69778571D01*
X162186666Y-69730952D01*
X162805714Y-69921428D02*
X163567619Y-69921428D01*
X164043809Y-70302380D02*
X164043809Y-69302380D01*
X164424761Y-69302380D01*
X164520000Y-69350000D01*
X164567619Y-69397619D01*
X164615238Y-69492857D01*
X164615238Y-69635714D01*
X164567619Y-69730952D01*
X164520000Y-69778571D01*
X164424761Y-69826190D01*
X164043809Y-69826190D01*
X165043809Y-69302380D02*
X165043809Y-70111904D01*
X165091428Y-70207142D01*
X165139047Y-70254761D01*
X165234285Y-70302380D01*
X165424761Y-70302380D01*
X165520000Y-70254761D01*
X165567619Y-70207142D01*
X165615238Y-70111904D01*
X165615238Y-69302380D01*
X130692380Y-40193333D02*
X131692380Y-39860000D01*
X130692380Y-39526666D01*
X131597142Y-38621904D02*
X131644761Y-38669523D01*
X131692380Y-38812380D01*
X131692380Y-38907619D01*
X131644761Y-39050476D01*
X131549523Y-39145714D01*
X131454285Y-39193333D01*
X131263809Y-39240952D01*
X131120952Y-39240952D01*
X130930476Y-39193333D01*
X130835238Y-39145714D01*
X130740000Y-39050476D01*
X130692380Y-38907619D01*
X130692380Y-38812380D01*
X130740000Y-38669523D01*
X130787619Y-38621904D01*
X131597142Y-37621904D02*
X131644761Y-37669523D01*
X131692380Y-37812380D01*
X131692380Y-37907619D01*
X131644761Y-38050476D01*
X131549523Y-38145714D01*
X131454285Y-38193333D01*
X131263809Y-38240952D01*
X131120952Y-38240952D01*
X130930476Y-38193333D01*
X130835238Y-38145714D01*
X130740000Y-38050476D01*
X130692380Y-37907619D01*
X130692380Y-37812380D01*
X130740000Y-37669523D01*
X130787619Y-37621904D01*
X132073333Y-36907619D02*
X132025714Y-36955238D01*
X131882857Y-37050476D01*
X131787619Y-37098095D01*
X131644761Y-37145714D01*
X131406666Y-37193333D01*
X131216190Y-37193333D01*
X130978095Y-37145714D01*
X130835238Y-37098095D01*
X130740000Y-37050476D01*
X130597142Y-36955238D01*
X130549523Y-36907619D01*
X130692380Y-36050476D02*
X130692380Y-36526666D01*
X131168571Y-36574285D01*
X131120952Y-36526666D01*
X131073333Y-36431428D01*
X131073333Y-36193333D01*
X131120952Y-36098095D01*
X131168571Y-36050476D01*
X131263809Y-36002857D01*
X131501904Y-36002857D01*
X131597142Y-36050476D01*
X131644761Y-36098095D01*
X131692380Y-36193333D01*
X131692380Y-36431428D01*
X131644761Y-36526666D01*
X131597142Y-36574285D01*
X131025714Y-35669523D02*
X131692380Y-35431428D01*
X131025714Y-35193333D01*
X132073333Y-34907619D02*
X132025714Y-34860000D01*
X131882857Y-34764761D01*
X131787619Y-34717142D01*
X131644761Y-34669523D01*
X131406666Y-34621904D01*
X131216190Y-34621904D01*
X130978095Y-34669523D01*
X130835238Y-34717142D01*
X130740000Y-34764761D01*
X130597142Y-34860000D01*
X130549523Y-34907619D01*
X131692380Y-33621904D02*
X131692380Y-34193333D01*
X131692380Y-33907619D02*
X130692380Y-33907619D01*
X130835238Y-34002857D01*
X130930476Y-34098095D01*
X130978095Y-34193333D01*
X130740000Y-55878095D02*
X130692380Y-55973333D01*
X130692380Y-56116190D01*
X130740000Y-56259047D01*
X130835238Y-56354285D01*
X130930476Y-56401904D01*
X131120952Y-56449523D01*
X131263809Y-56449523D01*
X131454285Y-56401904D01*
X131549523Y-56354285D01*
X131644761Y-56259047D01*
X131692380Y-56116190D01*
X131692380Y-56020952D01*
X131644761Y-55878095D01*
X131597142Y-55830476D01*
X131263809Y-55830476D01*
X131263809Y-56020952D01*
X131692380Y-55401904D02*
X130692380Y-55401904D01*
X131692380Y-54830476D01*
X130692380Y-54830476D01*
X131692380Y-54354285D02*
X130692380Y-54354285D01*
X130692380Y-54116190D01*
X130740000Y-53973333D01*
X130835238Y-53878095D01*
X130930476Y-53830476D01*
X131120952Y-53782857D01*
X131263809Y-53782857D01*
X131454285Y-53830476D01*
X131549523Y-53878095D01*
X131644761Y-53973333D01*
X131692380Y-54116190D01*
X131692380Y-54354285D01*
X131692380Y-52830476D02*
X131692380Y-53401904D01*
X131692380Y-53116190D02*
X130692380Y-53116190D01*
X130835238Y-53211428D01*
X130930476Y-53306666D01*
X130978095Y-53401904D01*
X129944761Y-144089047D02*
X129992380Y-143946190D01*
X129992380Y-143708095D01*
X129944761Y-143612857D01*
X129897142Y-143565238D01*
X129801904Y-143517619D01*
X129706666Y-143517619D01*
X129611428Y-143565238D01*
X129563809Y-143612857D01*
X129516190Y-143708095D01*
X129468571Y-143898571D01*
X129420952Y-143993809D01*
X129373333Y-144041428D01*
X129278095Y-144089047D01*
X129182857Y-144089047D01*
X129087619Y-144041428D01*
X129040000Y-143993809D01*
X128992380Y-143898571D01*
X128992380Y-143660476D01*
X129040000Y-143517619D01*
X129325714Y-143231904D02*
X129325714Y-142850952D01*
X128992380Y-143089047D02*
X129849523Y-143089047D01*
X129944761Y-143041428D01*
X129992380Y-142946190D01*
X129992380Y-142850952D01*
X129944761Y-142136666D02*
X129992380Y-142231904D01*
X129992380Y-142422380D01*
X129944761Y-142517619D01*
X129849523Y-142565238D01*
X129468571Y-142565238D01*
X129373333Y-142517619D01*
X129325714Y-142422380D01*
X129325714Y-142231904D01*
X129373333Y-142136666D01*
X129468571Y-142089047D01*
X129563809Y-142089047D01*
X129659047Y-142565238D01*
X129325714Y-141660476D02*
X130325714Y-141660476D01*
X129373333Y-141660476D02*
X129325714Y-141565238D01*
X129325714Y-141374761D01*
X129373333Y-141279523D01*
X129420952Y-141231904D01*
X129516190Y-141184285D01*
X129801904Y-141184285D01*
X129897142Y-141231904D01*
X129944761Y-141279523D01*
X129992380Y-141374761D01*
X129992380Y-141565238D01*
X129944761Y-141660476D01*
X129325714Y-140755714D02*
X130325714Y-140755714D01*
X129373333Y-140755714D02*
X129325714Y-140660476D01*
X129325714Y-140470000D01*
X129373333Y-140374761D01*
X129420952Y-140327142D01*
X129516190Y-140279523D01*
X129801904Y-140279523D01*
X129897142Y-140327142D01*
X129944761Y-140374761D01*
X129992380Y-140470000D01*
X129992380Y-140660476D01*
X129944761Y-140755714D01*
X129944761Y-139470000D02*
X129992380Y-139565238D01*
X129992380Y-139755714D01*
X129944761Y-139850952D01*
X129849523Y-139898571D01*
X129468571Y-139898571D01*
X129373333Y-139850952D01*
X129325714Y-139755714D01*
X129325714Y-139565238D01*
X129373333Y-139470000D01*
X129468571Y-139422380D01*
X129563809Y-139422380D01*
X129659047Y-139898571D01*
X129992380Y-138993809D02*
X129325714Y-138993809D01*
X129516190Y-138993809D02*
X129420952Y-138946190D01*
X129373333Y-138898571D01*
X129325714Y-138803333D01*
X129325714Y-138708095D01*
X129992380Y-137850952D02*
X129992380Y-138422380D01*
X129992380Y-138136666D02*
X128992380Y-138136666D01*
X129135238Y-138231904D01*
X129230476Y-138327142D01*
X129278095Y-138422380D01*
X188364761Y-38679047D02*
X188412380Y-38536190D01*
X188412380Y-38298095D01*
X188364761Y-38202857D01*
X188317142Y-38155238D01*
X188221904Y-38107619D01*
X188126666Y-38107619D01*
X188031428Y-38155238D01*
X187983809Y-38202857D01*
X187936190Y-38298095D01*
X187888571Y-38488571D01*
X187840952Y-38583809D01*
X187793333Y-38631428D01*
X187698095Y-38679047D01*
X187602857Y-38679047D01*
X187507619Y-38631428D01*
X187460000Y-38583809D01*
X187412380Y-38488571D01*
X187412380Y-38250476D01*
X187460000Y-38107619D01*
X187745714Y-37821904D02*
X187745714Y-37440952D01*
X187412380Y-37679047D02*
X188269523Y-37679047D01*
X188364761Y-37631428D01*
X188412380Y-37536190D01*
X188412380Y-37440952D01*
X188364761Y-36726666D02*
X188412380Y-36821904D01*
X188412380Y-37012380D01*
X188364761Y-37107619D01*
X188269523Y-37155238D01*
X187888571Y-37155238D01*
X187793333Y-37107619D01*
X187745714Y-37012380D01*
X187745714Y-36821904D01*
X187793333Y-36726666D01*
X187888571Y-36679047D01*
X187983809Y-36679047D01*
X188079047Y-37155238D01*
X187745714Y-36250476D02*
X188745714Y-36250476D01*
X187793333Y-36250476D02*
X187745714Y-36155238D01*
X187745714Y-35964761D01*
X187793333Y-35869523D01*
X187840952Y-35821904D01*
X187936190Y-35774285D01*
X188221904Y-35774285D01*
X188317142Y-35821904D01*
X188364761Y-35869523D01*
X188412380Y-35964761D01*
X188412380Y-36155238D01*
X188364761Y-36250476D01*
X187745714Y-35345714D02*
X188745714Y-35345714D01*
X187793333Y-35345714D02*
X187745714Y-35250476D01*
X187745714Y-35060000D01*
X187793333Y-34964761D01*
X187840952Y-34917142D01*
X187936190Y-34869523D01*
X188221904Y-34869523D01*
X188317142Y-34917142D01*
X188364761Y-34964761D01*
X188412380Y-35060000D01*
X188412380Y-35250476D01*
X188364761Y-35345714D01*
X188364761Y-34060000D02*
X188412380Y-34155238D01*
X188412380Y-34345714D01*
X188364761Y-34440952D01*
X188269523Y-34488571D01*
X187888571Y-34488571D01*
X187793333Y-34440952D01*
X187745714Y-34345714D01*
X187745714Y-34155238D01*
X187793333Y-34060000D01*
X187888571Y-34012380D01*
X187983809Y-34012380D01*
X188079047Y-34488571D01*
X188412380Y-33583809D02*
X187745714Y-33583809D01*
X187936190Y-33583809D02*
X187840952Y-33536190D01*
X187793333Y-33488571D01*
X187745714Y-33393333D01*
X187745714Y-33298095D01*
X187507619Y-33012380D02*
X187460000Y-32964761D01*
X187412380Y-32869523D01*
X187412380Y-32631428D01*
X187460000Y-32536190D01*
X187507619Y-32488571D01*
X187602857Y-32440952D01*
X187698095Y-32440952D01*
X187840952Y-32488571D01*
X188412380Y-33060000D01*
X188412380Y-32440952D01*
X154488095Y-32202380D02*
X154488095Y-31202380D01*
X154488095Y-31678571D02*
X155059523Y-31678571D01*
X155059523Y-32202380D02*
X155059523Y-31202380D01*
X155964285Y-32202380D02*
X155964285Y-31678571D01*
X155916666Y-31583333D01*
X155821428Y-31535714D01*
X155630952Y-31535714D01*
X155535714Y-31583333D01*
X155964285Y-32154761D02*
X155869047Y-32202380D01*
X155630952Y-32202380D01*
X155535714Y-32154761D01*
X155488095Y-32059523D01*
X155488095Y-31964285D01*
X155535714Y-31869047D01*
X155630952Y-31821428D01*
X155869047Y-31821428D01*
X155964285Y-31773809D01*
X156583333Y-32202380D02*
X156488095Y-32154761D01*
X156440476Y-32059523D01*
X156440476Y-31202380D01*
X157107142Y-32202380D02*
X157011904Y-32154761D01*
X156964285Y-32059523D01*
X156964285Y-31202380D01*
X157440476Y-32154761D02*
X157583333Y-32202380D01*
X157821428Y-32202380D01*
X157916666Y-32154761D01*
X157964285Y-32107142D01*
X158011904Y-32011904D01*
X158011904Y-31916666D01*
X157964285Y-31821428D01*
X157916666Y-31773809D01*
X157821428Y-31726190D01*
X157630952Y-31678571D01*
X157535714Y-31630952D01*
X157488095Y-31583333D01*
X157440476Y-31488095D01*
X157440476Y-31392857D01*
X157488095Y-31297619D01*
X157535714Y-31250000D01*
X157630952Y-31202380D01*
X157869047Y-31202380D01*
X158011904Y-31250000D01*
X158821428Y-32154761D02*
X158726190Y-32202380D01*
X158535714Y-32202380D01*
X158440476Y-32154761D01*
X158392857Y-32059523D01*
X158392857Y-31678571D01*
X158440476Y-31583333D01*
X158535714Y-31535714D01*
X158726190Y-31535714D01*
X158821428Y-31583333D01*
X158869047Y-31678571D01*
X158869047Y-31773809D01*
X158392857Y-31869047D01*
X159297619Y-31535714D02*
X159297619Y-32202380D01*
X159297619Y-31630952D02*
X159345238Y-31583333D01*
X159440476Y-31535714D01*
X159583333Y-31535714D01*
X159678571Y-31583333D01*
X159726190Y-31678571D01*
X159726190Y-32202380D01*
X160154761Y-32154761D02*
X160250000Y-32202380D01*
X160440476Y-32202380D01*
X160535714Y-32154761D01*
X160583333Y-32059523D01*
X160583333Y-32011904D01*
X160535714Y-31916666D01*
X160440476Y-31869047D01*
X160297619Y-31869047D01*
X160202380Y-31821428D01*
X160154761Y-31726190D01*
X160154761Y-31678571D01*
X160202380Y-31583333D01*
X160297619Y-31535714D01*
X160440476Y-31535714D01*
X160535714Y-31583333D01*
X161154761Y-32202380D02*
X161059523Y-32154761D01*
X161011904Y-32107142D01*
X160964285Y-32011904D01*
X160964285Y-31726190D01*
X161011904Y-31630952D01*
X161059523Y-31583333D01*
X161154761Y-31535714D01*
X161297619Y-31535714D01*
X161392857Y-31583333D01*
X161440476Y-31630952D01*
X161488095Y-31726190D01*
X161488095Y-32011904D01*
X161440476Y-32107142D01*
X161392857Y-32154761D01*
X161297619Y-32202380D01*
X161154761Y-32202380D01*
X161916666Y-32202380D02*
X161916666Y-31535714D01*
X161916666Y-31726190D02*
X161964285Y-31630952D01*
X162011904Y-31583333D01*
X162107142Y-31535714D01*
X162202380Y-31535714D01*
X163059523Y-32202380D02*
X162488095Y-32202380D01*
X162773809Y-32202380D02*
X162773809Y-31202380D01*
X162678571Y-31345238D01*
X162583333Y-31440476D01*
X162488095Y-31488095D01*
X154488095Y-47442380D02*
X154488095Y-46442380D01*
X154488095Y-46918571D02*
X155059523Y-46918571D01*
X155059523Y-47442380D02*
X155059523Y-46442380D01*
X155964285Y-47442380D02*
X155964285Y-46918571D01*
X155916666Y-46823333D01*
X155821428Y-46775714D01*
X155630952Y-46775714D01*
X155535714Y-46823333D01*
X155964285Y-47394761D02*
X155869047Y-47442380D01*
X155630952Y-47442380D01*
X155535714Y-47394761D01*
X155488095Y-47299523D01*
X155488095Y-47204285D01*
X155535714Y-47109047D01*
X155630952Y-47061428D01*
X155869047Y-47061428D01*
X155964285Y-47013809D01*
X156583333Y-47442380D02*
X156488095Y-47394761D01*
X156440476Y-47299523D01*
X156440476Y-46442380D01*
X157107142Y-47442380D02*
X157011904Y-47394761D01*
X156964285Y-47299523D01*
X156964285Y-46442380D01*
X157440476Y-47394761D02*
X157583333Y-47442380D01*
X157821428Y-47442380D01*
X157916666Y-47394761D01*
X157964285Y-47347142D01*
X158011904Y-47251904D01*
X158011904Y-47156666D01*
X157964285Y-47061428D01*
X157916666Y-47013809D01*
X157821428Y-46966190D01*
X157630952Y-46918571D01*
X157535714Y-46870952D01*
X157488095Y-46823333D01*
X157440476Y-46728095D01*
X157440476Y-46632857D01*
X157488095Y-46537619D01*
X157535714Y-46490000D01*
X157630952Y-46442380D01*
X157869047Y-46442380D01*
X158011904Y-46490000D01*
X158821428Y-47394761D02*
X158726190Y-47442380D01*
X158535714Y-47442380D01*
X158440476Y-47394761D01*
X158392857Y-47299523D01*
X158392857Y-46918571D01*
X158440476Y-46823333D01*
X158535714Y-46775714D01*
X158726190Y-46775714D01*
X158821428Y-46823333D01*
X158869047Y-46918571D01*
X158869047Y-47013809D01*
X158392857Y-47109047D01*
X159297619Y-46775714D02*
X159297619Y-47442380D01*
X159297619Y-46870952D02*
X159345238Y-46823333D01*
X159440476Y-46775714D01*
X159583333Y-46775714D01*
X159678571Y-46823333D01*
X159726190Y-46918571D01*
X159726190Y-47442380D01*
X160154761Y-47394761D02*
X160250000Y-47442380D01*
X160440476Y-47442380D01*
X160535714Y-47394761D01*
X160583333Y-47299523D01*
X160583333Y-47251904D01*
X160535714Y-47156666D01*
X160440476Y-47109047D01*
X160297619Y-47109047D01*
X160202380Y-47061428D01*
X160154761Y-46966190D01*
X160154761Y-46918571D01*
X160202380Y-46823333D01*
X160297619Y-46775714D01*
X160440476Y-46775714D01*
X160535714Y-46823333D01*
X161154761Y-47442380D02*
X161059523Y-47394761D01*
X161011904Y-47347142D01*
X160964285Y-47251904D01*
X160964285Y-46966190D01*
X161011904Y-46870952D01*
X161059523Y-46823333D01*
X161154761Y-46775714D01*
X161297619Y-46775714D01*
X161392857Y-46823333D01*
X161440476Y-46870952D01*
X161488095Y-46966190D01*
X161488095Y-47251904D01*
X161440476Y-47347142D01*
X161392857Y-47394761D01*
X161297619Y-47442380D01*
X161154761Y-47442380D01*
X161916666Y-47442380D02*
X161916666Y-46775714D01*
X161916666Y-46966190D02*
X161964285Y-46870952D01*
X162011904Y-46823333D01*
X162107142Y-46775714D01*
X162202380Y-46775714D01*
X162488095Y-46537619D02*
X162535714Y-46490000D01*
X162630952Y-46442380D01*
X162869047Y-46442380D01*
X162964285Y-46490000D01*
X163011904Y-46537619D01*
X163059523Y-46632857D01*
X163059523Y-46728095D01*
X163011904Y-46870952D01*
X162440476Y-47442380D01*
X163059523Y-47442380D01*
X173990476Y-140898571D02*
X174323809Y-140898571D01*
X174466666Y-141422380D02*
X173990476Y-141422380D01*
X173990476Y-140422380D01*
X174466666Y-140422380D01*
X174800000Y-141422380D02*
X175323809Y-140755714D01*
X174800000Y-140755714D02*
X175323809Y-141422380D01*
X175561904Y-140755714D02*
X175942857Y-140755714D01*
X175704761Y-140422380D02*
X175704761Y-141279523D01*
X175752380Y-141374761D01*
X175847619Y-141422380D01*
X175942857Y-141422380D01*
X176276190Y-141422380D02*
X176276190Y-140422380D01*
X176514285Y-140422380D01*
X176657142Y-140470000D01*
X176752380Y-140565238D01*
X176800000Y-140660476D01*
X176847619Y-140850952D01*
X176847619Y-140993809D01*
X176800000Y-141184285D01*
X176752380Y-141279523D01*
X176657142Y-141374761D01*
X176514285Y-141422380D01*
X176276190Y-141422380D01*
X177276190Y-141422380D02*
X177276190Y-140755714D01*
X177276190Y-140422380D02*
X177228571Y-140470000D01*
X177276190Y-140517619D01*
X177323809Y-140470000D01*
X177276190Y-140422380D01*
X177276190Y-140517619D01*
X178180952Y-140755714D02*
X178180952Y-141565238D01*
X178133333Y-141660476D01*
X178085714Y-141708095D01*
X177990476Y-141755714D01*
X177847619Y-141755714D01*
X177752380Y-141708095D01*
X178180952Y-141374761D02*
X178085714Y-141422380D01*
X177895238Y-141422380D01*
X177800000Y-141374761D01*
X177752380Y-141327142D01*
X177704761Y-141231904D01*
X177704761Y-140946190D01*
X177752380Y-140850952D01*
X177800000Y-140803333D01*
X177895238Y-140755714D01*
X178085714Y-140755714D01*
X178180952Y-140803333D01*
X178657142Y-141422380D02*
X178657142Y-140755714D01*
X178657142Y-140422380D02*
X178609523Y-140470000D01*
X178657142Y-140517619D01*
X178704761Y-140470000D01*
X178657142Y-140422380D01*
X178657142Y-140517619D01*
X178990476Y-140755714D02*
X179371428Y-140755714D01*
X179133333Y-140422380D02*
X179133333Y-141279523D01*
X179180952Y-141374761D01*
X179276190Y-141422380D01*
X179371428Y-141422380D01*
X180133333Y-141422380D02*
X180133333Y-140898571D01*
X180085714Y-140803333D01*
X179990476Y-140755714D01*
X179800000Y-140755714D01*
X179704761Y-140803333D01*
X180133333Y-141374761D02*
X180038095Y-141422380D01*
X179800000Y-141422380D01*
X179704761Y-141374761D01*
X179657142Y-141279523D01*
X179657142Y-141184285D01*
X179704761Y-141089047D01*
X179800000Y-141041428D01*
X180038095Y-141041428D01*
X180133333Y-140993809D01*
X180752380Y-141422380D02*
X180657142Y-141374761D01*
X180609523Y-141279523D01*
X180609523Y-140422380D01*
X181657142Y-141422380D02*
X181085714Y-141422380D01*
X181371428Y-141422380D02*
X181371428Y-140422380D01*
X181276190Y-140565238D01*
X181180952Y-140660476D01*
X181085714Y-140708095D01*
X177776190Y-121126190D02*
X178252380Y-121126190D01*
X177252380Y-121459523D02*
X177776190Y-121126190D01*
X177252380Y-120792857D01*
X178252380Y-119935714D02*
X178252380Y-120507142D01*
X178252380Y-120221428D02*
X177252380Y-120221428D01*
X177395238Y-120316666D01*
X177490476Y-120411904D01*
X177538095Y-120507142D01*
X177491190Y-82926190D02*
X177967380Y-82926190D01*
X176967380Y-83259523D02*
X177491190Y-82926190D01*
X176967380Y-82592857D01*
X177062619Y-82307142D02*
X177015000Y-82259523D01*
X176967380Y-82164285D01*
X176967380Y-81926190D01*
X177015000Y-81830952D01*
X177062619Y-81783333D01*
X177157857Y-81735714D01*
X177253095Y-81735714D01*
X177395952Y-81783333D01*
X177967380Y-82354761D01*
X177967380Y-81735714D01*
X172720476Y-57078571D02*
X173053809Y-57078571D01*
X173196666Y-57602380D02*
X172720476Y-57602380D01*
X172720476Y-56602380D01*
X173196666Y-56602380D01*
X173530000Y-57602380D02*
X174053809Y-56935714D01*
X173530000Y-56935714D02*
X174053809Y-57602380D01*
X174291904Y-56935714D02*
X174672857Y-56935714D01*
X174434761Y-56602380D02*
X174434761Y-57459523D01*
X174482380Y-57554761D01*
X174577619Y-57602380D01*
X174672857Y-57602380D01*
X175006190Y-57602380D02*
X175006190Y-56602380D01*
X175244285Y-56602380D01*
X175387142Y-56650000D01*
X175482380Y-56745238D01*
X175530000Y-56840476D01*
X175577619Y-57030952D01*
X175577619Y-57173809D01*
X175530000Y-57364285D01*
X175482380Y-57459523D01*
X175387142Y-57554761D01*
X175244285Y-57602380D01*
X175006190Y-57602380D01*
X176006190Y-57602380D02*
X176006190Y-56935714D01*
X176006190Y-56602380D02*
X175958571Y-56650000D01*
X176006190Y-56697619D01*
X176053809Y-56650000D01*
X176006190Y-56602380D01*
X176006190Y-56697619D01*
X176910952Y-56935714D02*
X176910952Y-57745238D01*
X176863333Y-57840476D01*
X176815714Y-57888095D01*
X176720476Y-57935714D01*
X176577619Y-57935714D01*
X176482380Y-57888095D01*
X176910952Y-57554761D02*
X176815714Y-57602380D01*
X176625238Y-57602380D01*
X176530000Y-57554761D01*
X176482380Y-57507142D01*
X176434761Y-57411904D01*
X176434761Y-57126190D01*
X176482380Y-57030952D01*
X176530000Y-56983333D01*
X176625238Y-56935714D01*
X176815714Y-56935714D01*
X176910952Y-56983333D01*
X177387142Y-57602380D02*
X177387142Y-56935714D01*
X177387142Y-56602380D02*
X177339523Y-56650000D01*
X177387142Y-56697619D01*
X177434761Y-56650000D01*
X177387142Y-56602380D01*
X177387142Y-56697619D01*
X177720476Y-56935714D02*
X178101428Y-56935714D01*
X177863333Y-56602380D02*
X177863333Y-57459523D01*
X177910952Y-57554761D01*
X178006190Y-57602380D01*
X178101428Y-57602380D01*
X178863333Y-57602380D02*
X178863333Y-57078571D01*
X178815714Y-56983333D01*
X178720476Y-56935714D01*
X178530000Y-56935714D01*
X178434761Y-56983333D01*
X178863333Y-57554761D02*
X178768095Y-57602380D01*
X178530000Y-57602380D01*
X178434761Y-57554761D01*
X178387142Y-57459523D01*
X178387142Y-57364285D01*
X178434761Y-57269047D01*
X178530000Y-57221428D01*
X178768095Y-57221428D01*
X178863333Y-57173809D01*
X179482380Y-57602380D02*
X179387142Y-57554761D01*
X179339523Y-57459523D01*
X179339523Y-56602380D01*
X179815714Y-56697619D02*
X179863333Y-56650000D01*
X179958571Y-56602380D01*
X180196666Y-56602380D01*
X180291904Y-56650000D01*
X180339523Y-56697619D01*
X180387142Y-56792857D01*
X180387142Y-56888095D01*
X180339523Y-57030952D01*
X179768095Y-57602380D01*
X180387142Y-57602380D01*
X157988095Y-33082380D02*
X157988095Y-32082380D01*
X157988095Y-32558571D02*
X158559523Y-32558571D01*
X158559523Y-33082380D02*
X158559523Y-32082380D01*
X159559523Y-33082380D02*
X158988095Y-33082380D01*
X159273809Y-33082380D02*
X159273809Y-32082380D01*
X159178571Y-32225238D01*
X159083333Y-32320476D01*
X158988095Y-32368095D01*
X183388095Y-82612380D02*
X183388095Y-81612380D01*
X183388095Y-82088571D02*
X183959523Y-82088571D01*
X183959523Y-82612380D02*
X183959523Y-81612380D01*
X184388095Y-81707619D02*
X184435714Y-81660000D01*
X184530952Y-81612380D01*
X184769047Y-81612380D01*
X184864285Y-81660000D01*
X184911904Y-81707619D01*
X184959523Y-81802857D01*
X184959523Y-81898095D01*
X184911904Y-82040952D01*
X184340476Y-82612380D01*
X184959523Y-82612380D01*
X157988095Y-139762380D02*
X157988095Y-138762380D01*
X157988095Y-139238571D02*
X158559523Y-139238571D01*
X158559523Y-139762380D02*
X158559523Y-138762380D01*
X158940476Y-138762380D02*
X159559523Y-138762380D01*
X159226190Y-139143333D01*
X159369047Y-139143333D01*
X159464285Y-139190952D01*
X159511904Y-139238571D01*
X159559523Y-139333809D01*
X159559523Y-139571904D01*
X159511904Y-139667142D01*
X159464285Y-139714761D01*
X159369047Y-139762380D01*
X159083333Y-139762380D01*
X158988095Y-139714761D01*
X158940476Y-139667142D01*
X136398095Y-81342380D02*
X136398095Y-80342380D01*
X136398095Y-80818571D02*
X136969523Y-80818571D01*
X136969523Y-81342380D02*
X136969523Y-80342380D01*
X137874285Y-80675714D02*
X137874285Y-81342380D01*
X137636190Y-80294761D02*
X137398095Y-81009047D01*
X138017142Y-81009047D01*
M02*
