G04 #@! TF.GenerationSoftware,KiCad,Pcbnew,(5.1.0)-1*
G04 #@! TF.CreationDate,2019-05-19T02:09:04+02:00*
G04 #@! TF.ProjectId,ADClock,4144436c-6f63-46b2-9e6b-696361645f70,rev?*
G04 #@! TF.SameCoordinates,Original*
G04 #@! TF.FileFunction,Copper,L2,Bot*
G04 #@! TF.FilePolarity,Positive*
%FSLAX46Y46*%
G04 Gerber Fmt 4.6, Leading zero omitted, Abs format (unit mm)*
G04 Created by KiCad (PCBNEW (5.1.0)-1) date 2019-05-19 02:09:04*
%MOMM*%
%LPD*%
G04 APERTURE LIST*
%ADD10C,1.600000*%
%ADD11R,1.700000X1.700000*%
%ADD12O,1.700000X1.700000*%
%ADD13C,3.000000*%
%ADD14R,3.000000X3.000000*%
%ADD15C,6.400000*%
%ADD16O,2.641600X1.320800*%
%ADD17O,1.600000X1.600000*%
%ADD18C,1.500000*%
%ADD19C,1.000000*%
%ADD20C,0.500000*%
%ADD21C,0.254000*%
G04 APERTURE END LIST*
D10*
X166603680Y-52019200D03*
X171603680Y-52019200D03*
X166602400Y-68305680D03*
X171602400Y-68305680D03*
X197855840Y-64002920D03*
X202855840Y-64002920D03*
X202871080Y-67254120D03*
X197871080Y-67254120D03*
X182874920Y-64394080D03*
X182874920Y-59394080D03*
D11*
X176179480Y-49535080D03*
D12*
X176179480Y-52075080D03*
X176179480Y-54615080D03*
X176179480Y-57155080D03*
X176179480Y-59695080D03*
X176179480Y-62235080D03*
D13*
X221315280Y-61488320D03*
X216235280Y-61488320D03*
D14*
X211155280Y-61488320D03*
D15*
X227228400Y-55935880D03*
X160721040Y-56448960D03*
X210967320Y-76962000D03*
X176397920Y-79471520D03*
D12*
X185338720Y-85191600D03*
X185338720Y-87731600D03*
D11*
X185338720Y-90271600D03*
X193111120Y-90251280D03*
D12*
X193111120Y-87711280D03*
X193111120Y-85171280D03*
D16*
X187142120Y-46629320D03*
X187142120Y-49169320D03*
X187142120Y-51709320D03*
X187142120Y-54249320D03*
X187142120Y-56789320D03*
X187142120Y-59329320D03*
X187142120Y-61869320D03*
X187142120Y-64409320D03*
X187142120Y-66949320D03*
X187142120Y-69489320D03*
X187142120Y-72029320D03*
X187142120Y-74569320D03*
X187142120Y-77109320D03*
X187142120Y-79649320D03*
X194762120Y-79649320D03*
X194762120Y-77109320D03*
X194762120Y-74569320D03*
X194762120Y-72029320D03*
X194762120Y-69489320D03*
X194762120Y-66949320D03*
X194762120Y-64409320D03*
X194762120Y-61869320D03*
X194762120Y-59329320D03*
X194762120Y-56789320D03*
X194762120Y-54249320D03*
X194762120Y-51709320D03*
X194762120Y-49169320D03*
X194762120Y-46629320D03*
D11*
X200080880Y-46609000D03*
D12*
X200080880Y-49149000D03*
X200080880Y-51689000D03*
X200080880Y-54229000D03*
X200080880Y-56769000D03*
D10*
X203616560Y-47625000D03*
D17*
X203616560Y-55245000D03*
D10*
X206883000Y-55686960D03*
D17*
X206883000Y-48066960D03*
X210139280Y-48417480D03*
D10*
X210139280Y-56037480D03*
D11*
X206308960Y-71983600D03*
D12*
X206308960Y-69443600D03*
X206308960Y-66903600D03*
X206308960Y-64363600D03*
X206308960Y-61823600D03*
X206308960Y-59283600D03*
X183007000Y-68498720D03*
X183007000Y-71038720D03*
X183007000Y-73578720D03*
X183007000Y-76118720D03*
X183007000Y-78658720D03*
D11*
X183007000Y-81198720D03*
D14*
X201173080Y-86918800D03*
D13*
X201173080Y-81838800D03*
X201173080Y-76758800D03*
D18*
X168183560Y-62504320D03*
X168183560Y-57624320D03*
D19*
X187126880Y-64394080D02*
X187142120Y-64409320D01*
X182874920Y-64394080D02*
X187126880Y-64394080D01*
X177078640Y-79471520D02*
X176397920Y-79471520D01*
X185338720Y-87731600D02*
X177078640Y-79471520D01*
X211155280Y-58988320D02*
X211155280Y-61488320D01*
X211537681Y-58605919D02*
X211155280Y-58988320D01*
X211537681Y-54550399D02*
X211537681Y-58605919D01*
X210732281Y-53744999D02*
X211537681Y-54550399D01*
X200923810Y-54229000D02*
X201407811Y-53744999D01*
X201407811Y-53744999D02*
X210732281Y-53744999D01*
X200080880Y-54229000D02*
X200923810Y-54229000D01*
X207767321Y-80161999D02*
X210967320Y-76962000D01*
X203890519Y-84038801D02*
X207767321Y-80161999D01*
X197985680Y-84038801D02*
X203890519Y-84038801D01*
X194313201Y-87711280D02*
X197985680Y-84038801D01*
X193111120Y-87711280D02*
X194313201Y-87711280D01*
D20*
X168933559Y-58374319D02*
X168183560Y-57624320D01*
X176203321Y-65644081D02*
X168933559Y-58374319D01*
X183626443Y-65644081D02*
X176203321Y-65644081D01*
X184931682Y-66949320D02*
X183626443Y-65644081D01*
X187142120Y-66949320D02*
X184931682Y-66949320D01*
X168183560Y-64886840D02*
X171602400Y-68305680D01*
X168183560Y-62504320D02*
X168183560Y-64886840D01*
X186481720Y-69489320D02*
X187142120Y-69489320D01*
X184191119Y-67198719D02*
X186481720Y-69489320D01*
X182382999Y-67198719D02*
X184191119Y-67198719D01*
X181276038Y-68305680D02*
X182382999Y-67198719D01*
X171602400Y-68305680D02*
X181276038Y-68305680D01*
X196103240Y-77109320D02*
X194762120Y-77109320D01*
X206308960Y-66903600D02*
X196103240Y-77109320D01*
X196582920Y-74569320D02*
X194762120Y-74569320D01*
X197405882Y-74569320D02*
X196582920Y-74569320D01*
X205008959Y-66966243D02*
X197405882Y-74569320D01*
X205008959Y-65663601D02*
X205008959Y-66966243D01*
X206308960Y-64363600D02*
X205008959Y-65663601D01*
X194101720Y-59329320D02*
X194762120Y-59329320D01*
X188912930Y-64518110D02*
X194101720Y-59329320D01*
X188912930Y-81617390D02*
X188912930Y-64518110D01*
X185338720Y-85191600D02*
X188912930Y-81617390D01*
X196582920Y-57949720D02*
X195422520Y-56789320D01*
X195882466Y-62979730D02*
X196582920Y-62279276D01*
X193641774Y-62979730D02*
X195882466Y-62979730D01*
X196582920Y-62279276D02*
X196582920Y-57949720D01*
X192991310Y-63630194D02*
X193641774Y-62979730D01*
X192991310Y-80109266D02*
X192991310Y-63630194D01*
X195422520Y-56789320D02*
X194762120Y-56789320D01*
X193111120Y-80229076D02*
X192991310Y-80109266D01*
X193111120Y-85171280D02*
X193111120Y-80229076D01*
D19*
X187142120Y-61869320D02*
X187186430Y-61869320D01*
X200080880Y-65044320D02*
X200080880Y-56769000D01*
X197871080Y-67254120D02*
X200080880Y-65044320D01*
X195986020Y-45268910D02*
X198530879Y-47813769D01*
X185918220Y-45268910D02*
X195986020Y-45268910D01*
X185918220Y-60689730D02*
X185121310Y-59892820D01*
X186749930Y-60689730D02*
X185918220Y-60689730D01*
X187142120Y-61081920D02*
X186749930Y-60689730D01*
X185121310Y-46065820D02*
X185918220Y-45268910D01*
X187142120Y-61869320D02*
X187142120Y-61081920D01*
X174795308Y-47959250D02*
X185121310Y-47959250D01*
X174629479Y-48125079D02*
X174795308Y-47959250D01*
X174629479Y-51331079D02*
X174629479Y-48125079D01*
X170142677Y-53519201D02*
X172441357Y-53519201D01*
X166733559Y-56928319D02*
X170142677Y-53519201D01*
X172441357Y-53519201D02*
X174629479Y-51331079D01*
X166733559Y-65656841D02*
X166733559Y-56928319D01*
X180297921Y-77599519D02*
X172504083Y-69805681D01*
X180297921Y-78243643D02*
X180297921Y-77599519D01*
X172504083Y-69805681D02*
X170882399Y-69805681D01*
X183007000Y-80952722D02*
X180297921Y-78243643D01*
X183007000Y-81198720D02*
X183007000Y-80952722D01*
X185121310Y-47959250D02*
X185121310Y-46065820D01*
X170882399Y-69805681D02*
X166733559Y-65656841D01*
X185121310Y-59892820D02*
X185121310Y-47959250D01*
X198530879Y-55218999D02*
X200080880Y-56769000D01*
X198530879Y-47813769D02*
X198530879Y-55218999D01*
X202092560Y-56769000D02*
X203616560Y-55245000D01*
X200080880Y-56769000D02*
X202092560Y-56769000D01*
X206441040Y-55245000D02*
X206883000Y-55686960D01*
X203616560Y-55245000D02*
X206441040Y-55245000D01*
X209788760Y-55686960D02*
X210139280Y-56037480D01*
X206883000Y-55686960D02*
X209788760Y-55686960D01*
D20*
X186481720Y-79649320D02*
X187142120Y-79649320D01*
X185321320Y-78488920D02*
X186481720Y-79649320D01*
X185321320Y-75893040D02*
X185321320Y-78488920D01*
X183007000Y-73578720D02*
X185321320Y-75893040D01*
X201621079Y-66654119D02*
X201621079Y-68509839D01*
X202271079Y-66004119D02*
X201621079Y-66654119D01*
X202744439Y-66004119D02*
X202271079Y-66004119D01*
X206308960Y-61823600D02*
X206308960Y-62439598D01*
X206308960Y-62439598D02*
X202744439Y-66004119D01*
X198101598Y-72029320D02*
X194762120Y-72029320D01*
X201621079Y-68509839D02*
X198101598Y-72029320D01*
X204875159Y-60133599D02*
X201442320Y-63566438D01*
X206308960Y-59283600D02*
X205458961Y-60133599D01*
X205458961Y-60133599D02*
X204875159Y-60133599D01*
X196582920Y-69489320D02*
X194762120Y-69489320D01*
X197795916Y-69489320D02*
X196582920Y-69489320D01*
X201442320Y-65842916D02*
X197795916Y-69489320D01*
X201442320Y-63566438D02*
X201442320Y-65842916D01*
D21*
G36*
X209499009Y-47132582D02*
G01*
X209338179Y-47218548D01*
X209119672Y-47397872D01*
X208940348Y-47616379D01*
X208807098Y-47865672D01*
X208725044Y-48136171D01*
X208697337Y-48417480D01*
X208725044Y-48698789D01*
X208807098Y-48969288D01*
X208940348Y-49218581D01*
X209119672Y-49437088D01*
X209338179Y-49616412D01*
X209587472Y-49749662D01*
X209857971Y-49831716D01*
X210068788Y-49852480D01*
X210209772Y-49852480D01*
X210420589Y-49831716D01*
X210691088Y-49749662D01*
X210940381Y-49616412D01*
X211158888Y-49437088D01*
X211338212Y-49218581D01*
X211471462Y-48969288D01*
X211553516Y-48698789D01*
X211581223Y-48417480D01*
X211553516Y-48136171D01*
X211471462Y-47865672D01*
X211397307Y-47726937D01*
X226001721Y-52299565D01*
X225776192Y-52366428D01*
X225107730Y-52718325D01*
X225067312Y-52745332D01*
X224707124Y-53234999D01*
X227228400Y-55756275D01*
X227242543Y-55742133D01*
X227422148Y-55921738D01*
X227408005Y-55935880D01*
X227422148Y-55950023D01*
X227242543Y-56129628D01*
X227228400Y-56115485D01*
X224707124Y-58636761D01*
X225067312Y-59126428D01*
X225731282Y-59486729D01*
X226452785Y-59710574D01*
X227204095Y-59789360D01*
X227956338Y-59720058D01*
X228324025Y-59611049D01*
X214799074Y-77193486D01*
X214820800Y-76986305D01*
X214751498Y-76234062D01*
X214536772Y-75509792D01*
X214184875Y-74841330D01*
X214157868Y-74800912D01*
X213668201Y-74440724D01*
X211146925Y-76962000D01*
X211161068Y-76976143D01*
X210981463Y-77155748D01*
X210967320Y-77141605D01*
X208446044Y-79662881D01*
X208806232Y-80152548D01*
X209470202Y-80512849D01*
X210191705Y-80736694D01*
X210943015Y-80815480D01*
X211695258Y-80746178D01*
X212175832Y-80603701D01*
X202531050Y-93141918D01*
X182200571Y-93141918D01*
X179503341Y-89421600D01*
X183850648Y-89421600D01*
X183850648Y-91121600D01*
X183862908Y-91246082D01*
X183899218Y-91365780D01*
X183958183Y-91476094D01*
X184037535Y-91572785D01*
X184134226Y-91652137D01*
X184244540Y-91711102D01*
X184364238Y-91747412D01*
X184488720Y-91759672D01*
X186188720Y-91759672D01*
X186313202Y-91747412D01*
X186432900Y-91711102D01*
X186543214Y-91652137D01*
X186639905Y-91572785D01*
X186719257Y-91476094D01*
X186778222Y-91365780D01*
X186814532Y-91246082D01*
X186826792Y-91121600D01*
X186826792Y-89421600D01*
X186824791Y-89401280D01*
X191623048Y-89401280D01*
X191623048Y-91101280D01*
X191635308Y-91225762D01*
X191671618Y-91345460D01*
X191730583Y-91455774D01*
X191809935Y-91552465D01*
X191906626Y-91631817D01*
X192016940Y-91690782D01*
X192136638Y-91727092D01*
X192261120Y-91739352D01*
X193961120Y-91739352D01*
X194085602Y-91727092D01*
X194205300Y-91690782D01*
X194315614Y-91631817D01*
X194412305Y-91552465D01*
X194491657Y-91455774D01*
X194550622Y-91345460D01*
X194586932Y-91225762D01*
X194599192Y-91101280D01*
X194599192Y-89401280D01*
X194586932Y-89276798D01*
X194550622Y-89157100D01*
X194491657Y-89046786D01*
X194412305Y-88950095D01*
X194315614Y-88870743D01*
X194205300Y-88811778D01*
X194124654Y-88787314D01*
X194208708Y-88711549D01*
X194382761Y-88478200D01*
X194507945Y-88215379D01*
X194552596Y-88068170D01*
X194431275Y-87838280D01*
X193238120Y-87838280D01*
X193238120Y-87858280D01*
X192984120Y-87858280D01*
X192984120Y-87838280D01*
X191790965Y-87838280D01*
X191669644Y-88068170D01*
X191714295Y-88215379D01*
X191839479Y-88478200D01*
X192013532Y-88711549D01*
X192097586Y-88787314D01*
X192016940Y-88811778D01*
X191906626Y-88870743D01*
X191809935Y-88950095D01*
X191730583Y-89046786D01*
X191671618Y-89157100D01*
X191635308Y-89276798D01*
X191623048Y-89401280D01*
X186824791Y-89401280D01*
X186814532Y-89297118D01*
X186778222Y-89177420D01*
X186719257Y-89067106D01*
X186639905Y-88970415D01*
X186543214Y-88891063D01*
X186432900Y-88832098D01*
X186352254Y-88807634D01*
X186436308Y-88731869D01*
X186610361Y-88498520D01*
X186735545Y-88235699D01*
X186780196Y-88088490D01*
X186658875Y-87858600D01*
X185465720Y-87858600D01*
X185465720Y-87878600D01*
X185211720Y-87878600D01*
X185211720Y-87858600D01*
X184018565Y-87858600D01*
X183897244Y-88088490D01*
X183941895Y-88235699D01*
X184067079Y-88498520D01*
X184241132Y-88731869D01*
X184325186Y-88807634D01*
X184244540Y-88832098D01*
X184134226Y-88891063D01*
X184037535Y-88970415D01*
X183958183Y-89067106D01*
X183899218Y-89177420D01*
X183862908Y-89297118D01*
X183850648Y-89421600D01*
X179503341Y-89421600D01*
X174839962Y-82989355D01*
X174900802Y-83022369D01*
X175622305Y-83246214D01*
X176373615Y-83325000D01*
X177125858Y-83255698D01*
X177850128Y-83040972D01*
X178518590Y-82689075D01*
X178559008Y-82662068D01*
X178919196Y-82172401D01*
X176397920Y-79651125D01*
X176383778Y-79665268D01*
X176204173Y-79485663D01*
X176218315Y-79471520D01*
X173697039Y-76950244D01*
X173207372Y-77310432D01*
X172847071Y-77974402D01*
X172623226Y-78695905D01*
X172544440Y-79447215D01*
X172584112Y-79877837D01*
X164914008Y-69298382D01*
X165789303Y-69298382D01*
X165860886Y-69542351D01*
X166116396Y-69663251D01*
X166390584Y-69731980D01*
X166672912Y-69745897D01*
X166952530Y-69704467D01*
X167218692Y-69609283D01*
X167343914Y-69542351D01*
X167415497Y-69298382D01*
X166602400Y-68485285D01*
X165789303Y-69298382D01*
X164914008Y-69298382D01*
X164245420Y-68376192D01*
X165162183Y-68376192D01*
X165203613Y-68655810D01*
X165298797Y-68921972D01*
X165365729Y-69047194D01*
X165609698Y-69118777D01*
X166422795Y-68305680D01*
X165609698Y-67492583D01*
X165365729Y-67564166D01*
X165244829Y-67819676D01*
X165176100Y-68093864D01*
X165162183Y-68376192D01*
X164245420Y-68376192D01*
X157556316Y-59149841D01*
X158199764Y-59149841D01*
X158559952Y-59639508D01*
X159223922Y-59999809D01*
X159945425Y-60223654D01*
X160696735Y-60302440D01*
X161448978Y-60233138D01*
X162173248Y-60018412D01*
X162841710Y-59666515D01*
X162882128Y-59639508D01*
X163242316Y-59149841D01*
X160721040Y-56628565D01*
X158199764Y-59149841D01*
X157556316Y-59149841D01*
X155580556Y-56424655D01*
X156867560Y-56424655D01*
X156936862Y-57176898D01*
X157151588Y-57901168D01*
X157503485Y-58569630D01*
X157530492Y-58610048D01*
X158020159Y-58970236D01*
X160541435Y-56448960D01*
X160900645Y-56448960D01*
X163421921Y-58970236D01*
X163911588Y-58610048D01*
X164271889Y-57946078D01*
X164495734Y-57224575D01*
X164574520Y-56473265D01*
X164505218Y-55721022D01*
X164290492Y-54996752D01*
X163938595Y-54328290D01*
X163911588Y-54287872D01*
X163421921Y-53927684D01*
X160900645Y-56448960D01*
X160541435Y-56448960D01*
X158020159Y-53927684D01*
X157530492Y-54287872D01*
X157170191Y-54951842D01*
X156946346Y-55673345D01*
X156867560Y-56424655D01*
X155580556Y-56424655D01*
X153795929Y-53963101D01*
X154523069Y-53748079D01*
X158199764Y-53748079D01*
X160721040Y-56269355D01*
X163242316Y-53748079D01*
X162882128Y-53258412D01*
X162427855Y-53011902D01*
X165790583Y-53011902D01*
X165862166Y-53255871D01*
X166117676Y-53376771D01*
X166391864Y-53445500D01*
X166674192Y-53459417D01*
X166953810Y-53417987D01*
X167219972Y-53322803D01*
X167345194Y-53255871D01*
X167416777Y-53011902D01*
X166603680Y-52198805D01*
X165790583Y-53011902D01*
X162427855Y-53011902D01*
X162218158Y-52898111D01*
X161496655Y-52674266D01*
X160745345Y-52595480D01*
X159993102Y-52664782D01*
X159268832Y-52879508D01*
X158600370Y-53231405D01*
X158559952Y-53258412D01*
X158199764Y-53748079D01*
X154523069Y-53748079D01*
X160131172Y-52089712D01*
X165163463Y-52089712D01*
X165204893Y-52369330D01*
X165300077Y-52635492D01*
X165367009Y-52760714D01*
X165610978Y-52832297D01*
X166424075Y-52019200D01*
X166783285Y-52019200D01*
X167596382Y-52832297D01*
X167840351Y-52760714D01*
X167961251Y-52505204D01*
X168029980Y-52231016D01*
X168043897Y-51948688D01*
X168002467Y-51669070D01*
X167907283Y-51402908D01*
X167840351Y-51277686D01*
X167596382Y-51206103D01*
X166783285Y-52019200D01*
X166424075Y-52019200D01*
X165610978Y-51206103D01*
X165367009Y-51277686D01*
X165246109Y-51533196D01*
X165177380Y-51807384D01*
X165163463Y-52089712D01*
X160131172Y-52089712D01*
X163726645Y-51026498D01*
X165790583Y-51026498D01*
X166603680Y-51839595D01*
X167416777Y-51026498D01*
X167345194Y-50782529D01*
X167089684Y-50661629D01*
X166815496Y-50592900D01*
X166533168Y-50578983D01*
X166253550Y-50620413D01*
X165987388Y-50715597D01*
X165862166Y-50782529D01*
X165790583Y-51026498D01*
X163726645Y-51026498D01*
X173490386Y-48139272D01*
X173494480Y-48180840D01*
X173494479Y-50860947D01*
X172916539Y-51438888D01*
X172875360Y-51339473D01*
X172718317Y-51104441D01*
X172518439Y-50904563D01*
X172283407Y-50747520D01*
X172022254Y-50639347D01*
X171745015Y-50584200D01*
X171462345Y-50584200D01*
X171185106Y-50639347D01*
X170923953Y-50747520D01*
X170688921Y-50904563D01*
X170489043Y-51104441D01*
X170332000Y-51339473D01*
X170223827Y-51600626D01*
X170168680Y-51877865D01*
X170168680Y-52160535D01*
X170213171Y-52384201D01*
X170198428Y-52384201D01*
X170142677Y-52378710D01*
X170086925Y-52384201D01*
X169920178Y-52400624D01*
X169706230Y-52465525D01*
X169509054Y-52570917D01*
X169336228Y-52712752D01*
X169300688Y-52756058D01*
X165970419Y-56086328D01*
X165927111Y-56121870D01*
X165785276Y-56294696D01*
X165750643Y-56359490D01*
X165679883Y-56491873D01*
X165614982Y-56705821D01*
X165593068Y-56928319D01*
X165598560Y-56984080D01*
X165598559Y-65601089D01*
X165593068Y-65656841D01*
X165598559Y-65712592D01*
X165614982Y-65879339D01*
X165679883Y-66093287D01*
X165785275Y-66290464D01*
X165927110Y-66463290D01*
X165970424Y-66498837D01*
X166362193Y-66890606D01*
X166252270Y-66906893D01*
X165986108Y-67002077D01*
X165860886Y-67069009D01*
X165789303Y-67312978D01*
X166602400Y-68126075D01*
X166616543Y-68111933D01*
X166796148Y-68291538D01*
X166782005Y-68305680D01*
X167595102Y-69118777D01*
X167839071Y-69047194D01*
X167959971Y-68791684D01*
X168020760Y-68549173D01*
X170040408Y-70568822D01*
X170075950Y-70612130D01*
X170224351Y-70733920D01*
X170248776Y-70753965D01*
X170445952Y-70859357D01*
X170659900Y-70924258D01*
X170882399Y-70946172D01*
X170938151Y-70940681D01*
X172033952Y-70940681D01*
X176745177Y-75651906D01*
X176422225Y-75618040D01*
X175669982Y-75687342D01*
X174945712Y-75902068D01*
X174277250Y-76253965D01*
X174236832Y-76280972D01*
X173876644Y-76770639D01*
X176397920Y-79291915D01*
X176412063Y-79277773D01*
X176591668Y-79457378D01*
X176577525Y-79471520D01*
X179098801Y-81992796D01*
X179588468Y-81632608D01*
X179948769Y-80968638D01*
X180172614Y-80247135D01*
X180222316Y-79773170D01*
X181518928Y-81069782D01*
X181518928Y-82048720D01*
X181531188Y-82173202D01*
X181567498Y-82292900D01*
X181626463Y-82403214D01*
X181705815Y-82499905D01*
X181802506Y-82579257D01*
X181912820Y-82638222D01*
X182032518Y-82674532D01*
X182157000Y-82686792D01*
X183857000Y-82686792D01*
X183981482Y-82674532D01*
X184101180Y-82638222D01*
X184211494Y-82579257D01*
X184308185Y-82499905D01*
X184387537Y-82403214D01*
X184446502Y-82292900D01*
X184482812Y-82173202D01*
X184495072Y-82048720D01*
X184495072Y-80348720D01*
X184482812Y-80224238D01*
X184446502Y-80104540D01*
X184387537Y-79994226D01*
X184308185Y-79897535D01*
X184211494Y-79818183D01*
X184101180Y-79759218D01*
X184020534Y-79734754D01*
X184104588Y-79658989D01*
X184278641Y-79425640D01*
X184403825Y-79162819D01*
X184448476Y-79015610D01*
X184327156Y-78785722D01*
X184486533Y-78785722D01*
X184499732Y-78829233D01*
X184581910Y-78982979D01*
X184664788Y-79083966D01*
X184664791Y-79083969D01*
X184692504Y-79117737D01*
X184726271Y-79145449D01*
X185184544Y-79603722D01*
X185180053Y-79649320D01*
X185205064Y-79903263D01*
X185279137Y-80147446D01*
X185399423Y-80372487D01*
X185561302Y-80569738D01*
X185758553Y-80731617D01*
X185983594Y-80851903D01*
X186227777Y-80925976D01*
X186418090Y-80944720D01*
X187866150Y-80944720D01*
X188027930Y-80928786D01*
X188027930Y-81250811D01*
X185557754Y-83720988D01*
X185411670Y-83706600D01*
X185265770Y-83706600D01*
X185047609Y-83728087D01*
X184767686Y-83813001D01*
X184509706Y-83950894D01*
X184283586Y-84136466D01*
X184098014Y-84362586D01*
X183960121Y-84620566D01*
X183875207Y-84900489D01*
X183846535Y-85191600D01*
X183875207Y-85482711D01*
X183960121Y-85762634D01*
X184098014Y-86020614D01*
X184283586Y-86246734D01*
X184509706Y-86432306D01*
X184574243Y-86466801D01*
X184457365Y-86536422D01*
X184241132Y-86731331D01*
X184067079Y-86964680D01*
X183941895Y-87227501D01*
X183897244Y-87374710D01*
X184018565Y-87604600D01*
X185211720Y-87604600D01*
X185211720Y-87584600D01*
X185465720Y-87584600D01*
X185465720Y-87604600D01*
X186658875Y-87604600D01*
X186780196Y-87374710D01*
X186735545Y-87227501D01*
X186610361Y-86964680D01*
X186436308Y-86731331D01*
X186220075Y-86536422D01*
X186103197Y-86466801D01*
X186167734Y-86432306D01*
X186393854Y-86246734D01*
X186579426Y-86020614D01*
X186717319Y-85762634D01*
X186802233Y-85482711D01*
X186830905Y-85191600D01*
X186809332Y-84972566D01*
X189507980Y-82273919D01*
X189541747Y-82246207D01*
X189652341Y-82111449D01*
X189734519Y-81957703D01*
X189785125Y-81790880D01*
X189797930Y-81660867D01*
X189797930Y-81660857D01*
X189802211Y-81617391D01*
X189797930Y-81573925D01*
X189797930Y-64884688D01*
X192806320Y-61876299D01*
X192806320Y-61996322D01*
X192972186Y-61996322D01*
X192848300Y-62196425D01*
X192856325Y-62247715D01*
X192934271Y-62435655D01*
X192396261Y-62973665D01*
X192362494Y-63001377D01*
X192334781Y-63035145D01*
X192334778Y-63035148D01*
X192251900Y-63136135D01*
X192169722Y-63289881D01*
X192119115Y-63456704D01*
X192102029Y-63630194D01*
X192106311Y-63673673D01*
X192106310Y-80065797D01*
X192102029Y-80109266D01*
X192106310Y-80152735D01*
X192106310Y-80152742D01*
X192109938Y-80189578D01*
X192119115Y-80282756D01*
X192130140Y-80319098D01*
X192169721Y-80449578D01*
X192226121Y-80555096D01*
X192226120Y-83976520D01*
X192055986Y-84116146D01*
X191870414Y-84342266D01*
X191732521Y-84600246D01*
X191647607Y-84880169D01*
X191618935Y-85171280D01*
X191647607Y-85462391D01*
X191732521Y-85742314D01*
X191870414Y-86000294D01*
X192055986Y-86226414D01*
X192282106Y-86411986D01*
X192346643Y-86446481D01*
X192229765Y-86516102D01*
X192013532Y-86711011D01*
X191839479Y-86944360D01*
X191714295Y-87207181D01*
X191669644Y-87354390D01*
X191790965Y-87584280D01*
X192984120Y-87584280D01*
X192984120Y-87564280D01*
X193238120Y-87564280D01*
X193238120Y-87584280D01*
X194431275Y-87584280D01*
X194552596Y-87354390D01*
X194507945Y-87207181D01*
X194382761Y-86944360D01*
X194208708Y-86711011D01*
X193992475Y-86516102D01*
X193875597Y-86446481D01*
X193940134Y-86411986D01*
X194166254Y-86226414D01*
X194351826Y-86000294D01*
X194489719Y-85742314D01*
X194574633Y-85462391D01*
X194578926Y-85418800D01*
X199035008Y-85418800D01*
X199035008Y-88418800D01*
X199047268Y-88543282D01*
X199083578Y-88662980D01*
X199142543Y-88773294D01*
X199221895Y-88869985D01*
X199318586Y-88949337D01*
X199428900Y-89008302D01*
X199548598Y-89044612D01*
X199673080Y-89056872D01*
X202673080Y-89056872D01*
X202797562Y-89044612D01*
X202917260Y-89008302D01*
X203027574Y-88949337D01*
X203124265Y-88869985D01*
X203203617Y-88773294D01*
X203262582Y-88662980D01*
X203298892Y-88543282D01*
X203311152Y-88418800D01*
X203311152Y-85418800D01*
X203298892Y-85294318D01*
X203262582Y-85174620D01*
X203203617Y-85064306D01*
X203124265Y-84967615D01*
X203027574Y-84888263D01*
X202917260Y-84829298D01*
X202797562Y-84792988D01*
X202673080Y-84780728D01*
X199673080Y-84780728D01*
X199548598Y-84792988D01*
X199428900Y-84829298D01*
X199318586Y-84888263D01*
X199221895Y-84967615D01*
X199142543Y-85064306D01*
X199083578Y-85174620D01*
X199047268Y-85294318D01*
X199035008Y-85418800D01*
X194578926Y-85418800D01*
X194603305Y-85171280D01*
X194574633Y-84880169D01*
X194489719Y-84600246D01*
X194351826Y-84342266D01*
X194166254Y-84116146D01*
X193996120Y-83976521D01*
X193996120Y-81628521D01*
X199038080Y-81628521D01*
X199038080Y-82049079D01*
X199120127Y-82461556D01*
X199281068Y-82850102D01*
X199514717Y-83199783D01*
X199812097Y-83497163D01*
X200161778Y-83730812D01*
X200550324Y-83891753D01*
X200962801Y-83973800D01*
X201383359Y-83973800D01*
X201795836Y-83891753D01*
X202184382Y-83730812D01*
X202534063Y-83497163D01*
X202831443Y-83199783D01*
X203065092Y-82850102D01*
X203226033Y-82461556D01*
X203308080Y-82049079D01*
X203308080Y-81628521D01*
X203226033Y-81216044D01*
X203065092Y-80827498D01*
X202831443Y-80477817D01*
X202534063Y-80180437D01*
X202184382Y-79946788D01*
X201795836Y-79785847D01*
X201383359Y-79703800D01*
X200962801Y-79703800D01*
X200550324Y-79785847D01*
X200161778Y-79946788D01*
X199812097Y-80180437D01*
X199514717Y-80477817D01*
X199281068Y-80827498D01*
X199120127Y-81216044D01*
X199038080Y-81628521D01*
X193996120Y-81628521D01*
X193996120Y-80940586D01*
X194038090Y-80944720D01*
X195486150Y-80944720D01*
X195676463Y-80925976D01*
X195920646Y-80851903D01*
X196145687Y-80731617D01*
X196342938Y-80569738D01*
X196504817Y-80372487D01*
X196625103Y-80147446D01*
X196699176Y-79903263D01*
X196724187Y-79649320D01*
X196699176Y-79395377D01*
X196625103Y-79151194D01*
X196504817Y-78926153D01*
X196342938Y-78728902D01*
X196145687Y-78567023D01*
X195920646Y-78446737D01*
X195698405Y-78379320D01*
X195920646Y-78311903D01*
X196145687Y-78191617D01*
X196342938Y-78029738D01*
X196417578Y-77938789D01*
X196443553Y-77930909D01*
X196597299Y-77848731D01*
X196732057Y-77738137D01*
X196759774Y-77704364D01*
X197915617Y-76548521D01*
X199038080Y-76548521D01*
X199038080Y-76969079D01*
X199120127Y-77381556D01*
X199281068Y-77770102D01*
X199514717Y-78119783D01*
X199812097Y-78417163D01*
X200161778Y-78650812D01*
X200550324Y-78811753D01*
X200962801Y-78893800D01*
X201383359Y-78893800D01*
X201795836Y-78811753D01*
X202184382Y-78650812D01*
X202534063Y-78417163D01*
X202831443Y-78119783D01*
X203065092Y-77770102D01*
X203226033Y-77381556D01*
X203308080Y-76969079D01*
X203308080Y-76937695D01*
X207113840Y-76937695D01*
X207183142Y-77689938D01*
X207397868Y-78414208D01*
X207749765Y-79082670D01*
X207776772Y-79123088D01*
X208266439Y-79483276D01*
X210787715Y-76962000D01*
X208266439Y-74440724D01*
X207776772Y-74800912D01*
X207416471Y-75464882D01*
X207192626Y-76186385D01*
X207113840Y-76937695D01*
X203308080Y-76937695D01*
X203308080Y-76548521D01*
X203226033Y-76136044D01*
X203065092Y-75747498D01*
X202831443Y-75397817D01*
X202534063Y-75100437D01*
X202184382Y-74866788D01*
X201795836Y-74705847D01*
X201383359Y-74623800D01*
X200962801Y-74623800D01*
X200550324Y-74705847D01*
X200161778Y-74866788D01*
X199812097Y-75100437D01*
X199514717Y-75397817D01*
X199281068Y-75747498D01*
X199120127Y-76136044D01*
X199038080Y-76548521D01*
X197915617Y-76548521D01*
X200203019Y-74261119D01*
X208446044Y-74261119D01*
X210967320Y-76782395D01*
X213488596Y-74261119D01*
X213128408Y-73771452D01*
X212464438Y-73411151D01*
X211742935Y-73187306D01*
X210991625Y-73108520D01*
X210239382Y-73177822D01*
X209515112Y-73392548D01*
X208846650Y-73744445D01*
X208806232Y-73771452D01*
X208446044Y-74261119D01*
X200203019Y-74261119D01*
X204893537Y-69570602D01*
X204988804Y-69570602D01*
X204867484Y-69800490D01*
X204912135Y-69947699D01*
X205037319Y-70210520D01*
X205211372Y-70443869D01*
X205295426Y-70519634D01*
X205214780Y-70544098D01*
X205104466Y-70603063D01*
X205007775Y-70682415D01*
X204928423Y-70779106D01*
X204869458Y-70889420D01*
X204833148Y-71009118D01*
X204820888Y-71133600D01*
X204820888Y-72833600D01*
X204833148Y-72958082D01*
X204869458Y-73077780D01*
X204928423Y-73188094D01*
X205007775Y-73284785D01*
X205104466Y-73364137D01*
X205214780Y-73423102D01*
X205334478Y-73459412D01*
X205458960Y-73471672D01*
X207158960Y-73471672D01*
X207283442Y-73459412D01*
X207403140Y-73423102D01*
X207513454Y-73364137D01*
X207610145Y-73284785D01*
X207689497Y-73188094D01*
X207748462Y-73077780D01*
X207784772Y-72958082D01*
X207797032Y-72833600D01*
X207797032Y-71133600D01*
X207784772Y-71009118D01*
X207748462Y-70889420D01*
X207689497Y-70779106D01*
X207610145Y-70682415D01*
X207513454Y-70603063D01*
X207403140Y-70544098D01*
X207322494Y-70519634D01*
X207406548Y-70443869D01*
X207580601Y-70210520D01*
X207705785Y-69947699D01*
X207750436Y-69800490D01*
X207629115Y-69570600D01*
X206435960Y-69570600D01*
X206435960Y-69590600D01*
X206181960Y-69590600D01*
X206181960Y-69570600D01*
X206161960Y-69570600D01*
X206161960Y-69316600D01*
X206181960Y-69316600D01*
X206181960Y-69296600D01*
X206435960Y-69296600D01*
X206435960Y-69316600D01*
X207629115Y-69316600D01*
X207750436Y-69086710D01*
X207705785Y-68939501D01*
X207580601Y-68676680D01*
X207406548Y-68443331D01*
X207190315Y-68248422D01*
X207073437Y-68178801D01*
X207137974Y-68144306D01*
X207364094Y-67958734D01*
X207549666Y-67732614D01*
X207687559Y-67474634D01*
X207772473Y-67194711D01*
X207801145Y-66903600D01*
X207772473Y-66612489D01*
X207687559Y-66332566D01*
X207549666Y-66074586D01*
X207364094Y-65848466D01*
X207137974Y-65662894D01*
X207083169Y-65633600D01*
X207137974Y-65604306D01*
X207364094Y-65418734D01*
X207549666Y-65192614D01*
X207687559Y-64934634D01*
X207772473Y-64654711D01*
X207801145Y-64363600D01*
X207772473Y-64072489D01*
X207687559Y-63792566D01*
X207549666Y-63534586D01*
X207364094Y-63308466D01*
X207137974Y-63122894D01*
X207083169Y-63093600D01*
X207137974Y-63064306D01*
X207230563Y-62988320D01*
X209017208Y-62988320D01*
X209029468Y-63112802D01*
X209065778Y-63232500D01*
X209124743Y-63342814D01*
X209204095Y-63439505D01*
X209300786Y-63518857D01*
X209411100Y-63577822D01*
X209530798Y-63614132D01*
X209655280Y-63626392D01*
X210869530Y-63623320D01*
X211028280Y-63464570D01*
X211028280Y-61615320D01*
X211282280Y-61615320D01*
X211282280Y-63464570D01*
X211441030Y-63623320D01*
X212655280Y-63626392D01*
X212779762Y-63614132D01*
X212899460Y-63577822D01*
X213009774Y-63518857D01*
X213106465Y-63439505D01*
X213185817Y-63342814D01*
X213244782Y-63232500D01*
X213281092Y-63112802D01*
X213293352Y-62988320D01*
X213293331Y-62979973D01*
X214923232Y-62979973D01*
X215079242Y-63295534D01*
X215454025Y-63486340D01*
X215858831Y-63600364D01*
X216278104Y-63633222D01*
X216695731Y-63583654D01*
X217095663Y-63453563D01*
X217391318Y-63295534D01*
X217547328Y-62979973D01*
X220003232Y-62979973D01*
X220159242Y-63295534D01*
X220534025Y-63486340D01*
X220938831Y-63600364D01*
X221358104Y-63633222D01*
X221775731Y-63583654D01*
X222175663Y-63453563D01*
X222471318Y-63295534D01*
X222627328Y-62979973D01*
X221315280Y-61667925D01*
X220003232Y-62979973D01*
X217547328Y-62979973D01*
X216235280Y-61667925D01*
X214923232Y-62979973D01*
X213293331Y-62979973D01*
X213290280Y-61774070D01*
X213131530Y-61615320D01*
X211282280Y-61615320D01*
X211028280Y-61615320D01*
X209179030Y-61615320D01*
X209020280Y-61774070D01*
X209017208Y-62988320D01*
X207230563Y-62988320D01*
X207364094Y-62878734D01*
X207549666Y-62652614D01*
X207687559Y-62394634D01*
X207772473Y-62114711D01*
X207801145Y-61823600D01*
X207772473Y-61532489D01*
X207772065Y-61531144D01*
X214090378Y-61531144D01*
X214139946Y-61948771D01*
X214270037Y-62348703D01*
X214428066Y-62644358D01*
X214743627Y-62800368D01*
X216055675Y-61488320D01*
X216414885Y-61488320D01*
X217726933Y-62800368D01*
X218042494Y-62644358D01*
X218233300Y-62269575D01*
X218347324Y-61864769D01*
X218373469Y-61531144D01*
X219170378Y-61531144D01*
X219219946Y-61948771D01*
X219350037Y-62348703D01*
X219508066Y-62644358D01*
X219823627Y-62800368D01*
X221135675Y-61488320D01*
X221494885Y-61488320D01*
X222806933Y-62800368D01*
X223122494Y-62644358D01*
X223313300Y-62269575D01*
X223427324Y-61864769D01*
X223460182Y-61445496D01*
X223410614Y-61027869D01*
X223280523Y-60627937D01*
X223122494Y-60332282D01*
X222806933Y-60176272D01*
X221494885Y-61488320D01*
X221135675Y-61488320D01*
X219823627Y-60176272D01*
X219508066Y-60332282D01*
X219317260Y-60707065D01*
X219203236Y-61111871D01*
X219170378Y-61531144D01*
X218373469Y-61531144D01*
X218380182Y-61445496D01*
X218330614Y-61027869D01*
X218200523Y-60627937D01*
X218042494Y-60332282D01*
X217726933Y-60176272D01*
X216414885Y-61488320D01*
X216055675Y-61488320D01*
X214743627Y-60176272D01*
X214428066Y-60332282D01*
X214237260Y-60707065D01*
X214123236Y-61111871D01*
X214090378Y-61531144D01*
X207772065Y-61531144D01*
X207687559Y-61252566D01*
X207549666Y-60994586D01*
X207364094Y-60768466D01*
X207137974Y-60582894D01*
X207083169Y-60553600D01*
X207137974Y-60524306D01*
X207364094Y-60338734D01*
X207549666Y-60112614D01*
X207616102Y-59988320D01*
X209017208Y-59988320D01*
X209020280Y-61202570D01*
X209179030Y-61361320D01*
X211028280Y-61361320D01*
X211028280Y-59512070D01*
X211282280Y-59512070D01*
X211282280Y-61361320D01*
X213131530Y-61361320D01*
X213290280Y-61202570D01*
X213293330Y-59996667D01*
X214923232Y-59996667D01*
X216235280Y-61308715D01*
X217547328Y-59996667D01*
X220003232Y-59996667D01*
X221315280Y-61308715D01*
X222627328Y-59996667D01*
X222471318Y-59681106D01*
X222096535Y-59490300D01*
X221691729Y-59376276D01*
X221272456Y-59343418D01*
X220854829Y-59392986D01*
X220454897Y-59523077D01*
X220159242Y-59681106D01*
X220003232Y-59996667D01*
X217547328Y-59996667D01*
X217391318Y-59681106D01*
X217016535Y-59490300D01*
X216611729Y-59376276D01*
X216192456Y-59343418D01*
X215774829Y-59392986D01*
X215374897Y-59523077D01*
X215079242Y-59681106D01*
X214923232Y-59996667D01*
X213293330Y-59996667D01*
X213293352Y-59988320D01*
X213281092Y-59863838D01*
X213244782Y-59744140D01*
X213185817Y-59633826D01*
X213106465Y-59537135D01*
X213009774Y-59457783D01*
X212899460Y-59398818D01*
X212779762Y-59362508D01*
X212655280Y-59350248D01*
X211441030Y-59353320D01*
X211282280Y-59512070D01*
X211028280Y-59512070D01*
X210869530Y-59353320D01*
X209655280Y-59350248D01*
X209530798Y-59362508D01*
X209411100Y-59398818D01*
X209300786Y-59457783D01*
X209204095Y-59537135D01*
X209124743Y-59633826D01*
X209065778Y-59744140D01*
X209029468Y-59863838D01*
X209017208Y-59988320D01*
X207616102Y-59988320D01*
X207687559Y-59854634D01*
X207772473Y-59574711D01*
X207801145Y-59283600D01*
X207772473Y-58992489D01*
X207687559Y-58712566D01*
X207549666Y-58454586D01*
X207364094Y-58228466D01*
X207137974Y-58042894D01*
X206879994Y-57905001D01*
X206600071Y-57820087D01*
X206381910Y-57798600D01*
X206236010Y-57798600D01*
X206017849Y-57820087D01*
X205737926Y-57905001D01*
X205479946Y-58042894D01*
X205253826Y-58228466D01*
X205068254Y-58454586D01*
X204930361Y-58712566D01*
X204845447Y-58992489D01*
X204820110Y-59249739D01*
X204701669Y-59261404D01*
X204534846Y-59312010D01*
X204381100Y-59394188D01*
X204369182Y-59403969D01*
X204280112Y-59477067D01*
X204280110Y-59477069D01*
X204246342Y-59504782D01*
X204218629Y-59538550D01*
X201215880Y-62541300D01*
X201215880Y-57904000D01*
X202036809Y-57904000D01*
X202092560Y-57909491D01*
X202148311Y-57904000D01*
X202148312Y-57904000D01*
X202315059Y-57887577D01*
X202529007Y-57822676D01*
X202726183Y-57717284D01*
X202899009Y-57575449D01*
X202934556Y-57532135D01*
X203797578Y-56669114D01*
X203897869Y-56659236D01*
X204168368Y-56577182D01*
X204417661Y-56443932D01*
X204495562Y-56380000D01*
X205620215Y-56380000D01*
X205768363Y-56601719D01*
X205968241Y-56801597D01*
X206203273Y-56958640D01*
X206464426Y-57066813D01*
X206741665Y-57121960D01*
X207024335Y-57121960D01*
X207301574Y-57066813D01*
X207562727Y-56958640D01*
X207767284Y-56821960D01*
X208937594Y-56821960D01*
X209024643Y-56952239D01*
X209224521Y-57152117D01*
X209459553Y-57309160D01*
X209720706Y-57417333D01*
X209997945Y-57472480D01*
X210280615Y-57472480D01*
X210557854Y-57417333D01*
X210819007Y-57309160D01*
X211054039Y-57152117D01*
X211253917Y-56952239D01*
X211410960Y-56717207D01*
X211519133Y-56456054D01*
X211574280Y-56178815D01*
X211574280Y-55911575D01*
X223374920Y-55911575D01*
X223444222Y-56663818D01*
X223658948Y-57388088D01*
X224010845Y-58056550D01*
X224037852Y-58096968D01*
X224527519Y-58457156D01*
X227048795Y-55935880D01*
X224527519Y-53414604D01*
X224037852Y-53774792D01*
X223677551Y-54438762D01*
X223453706Y-55160265D01*
X223374920Y-55911575D01*
X211574280Y-55911575D01*
X211574280Y-55896145D01*
X211519133Y-55618906D01*
X211410960Y-55357753D01*
X211253917Y-55122721D01*
X211054039Y-54922843D01*
X210819007Y-54765800D01*
X210557854Y-54657627D01*
X210280615Y-54602480D01*
X210123661Y-54602480D01*
X210011259Y-54568383D01*
X209844512Y-54551960D01*
X209844511Y-54551960D01*
X209788760Y-54546469D01*
X209733009Y-54551960D01*
X207767284Y-54551960D01*
X207562727Y-54415280D01*
X207301574Y-54307107D01*
X207024335Y-54251960D01*
X206990930Y-54251960D01*
X206877487Y-54191324D01*
X206663539Y-54126423D01*
X206496792Y-54110000D01*
X206496791Y-54110000D01*
X206441040Y-54104509D01*
X206385289Y-54110000D01*
X204495562Y-54110000D01*
X204417661Y-54046068D01*
X204168368Y-53912818D01*
X203897869Y-53830764D01*
X203687052Y-53810000D01*
X203546068Y-53810000D01*
X203335251Y-53830764D01*
X203064752Y-53912818D01*
X202815459Y-54046068D01*
X202596952Y-54225392D01*
X202417628Y-54443899D01*
X202284378Y-54693192D01*
X202202324Y-54963691D01*
X202192446Y-55063982D01*
X201622429Y-55634000D01*
X201038697Y-55634000D01*
X200909894Y-55528294D01*
X200845357Y-55493799D01*
X200962235Y-55424178D01*
X201178468Y-55229269D01*
X201352521Y-54995920D01*
X201477705Y-54733099D01*
X201522356Y-54585890D01*
X201401035Y-54356000D01*
X200207880Y-54356000D01*
X200207880Y-54376000D01*
X199953880Y-54376000D01*
X199953880Y-54356000D01*
X199933880Y-54356000D01*
X199933880Y-54102000D01*
X199953880Y-54102000D01*
X199953880Y-54082000D01*
X200207880Y-54082000D01*
X200207880Y-54102000D01*
X201401035Y-54102000D01*
X201522356Y-53872110D01*
X201477705Y-53724901D01*
X201352521Y-53462080D01*
X201178468Y-53228731D01*
X200962235Y-53033822D01*
X200845357Y-52964201D01*
X200909894Y-52929706D01*
X201136014Y-52744134D01*
X201321586Y-52518014D01*
X201459479Y-52260034D01*
X201544393Y-51980111D01*
X201573065Y-51689000D01*
X201544393Y-51397889D01*
X201459479Y-51117966D01*
X201321586Y-50859986D01*
X201136014Y-50633866D01*
X200909894Y-50448294D01*
X200855089Y-50419000D01*
X200909894Y-50389706D01*
X201136014Y-50204134D01*
X201321586Y-49978014D01*
X201459479Y-49720034D01*
X201544393Y-49440111D01*
X201573065Y-49149000D01*
X201544393Y-48857889D01*
X201459479Y-48577966D01*
X201321586Y-48319986D01*
X201136014Y-48093866D01*
X201106193Y-48069393D01*
X201175060Y-48048502D01*
X201285374Y-47989537D01*
X201382065Y-47910185D01*
X201461417Y-47813494D01*
X201520382Y-47703180D01*
X201556692Y-47583482D01*
X201566522Y-47483665D01*
X202181560Y-47483665D01*
X202181560Y-47766335D01*
X202236707Y-48043574D01*
X202344880Y-48304727D01*
X202501923Y-48539759D01*
X202701801Y-48739637D01*
X202936833Y-48896680D01*
X203197986Y-49004853D01*
X203475225Y-49060000D01*
X203757895Y-49060000D01*
X204035134Y-49004853D01*
X204296287Y-48896680D01*
X204531319Y-48739637D01*
X204731197Y-48539759D01*
X204888240Y-48304727D01*
X204986726Y-48066960D01*
X205441057Y-48066960D01*
X205468764Y-48348269D01*
X205550818Y-48618768D01*
X205684068Y-48868061D01*
X205863392Y-49086568D01*
X206081899Y-49265892D01*
X206331192Y-49399142D01*
X206601691Y-49481196D01*
X206812508Y-49501960D01*
X206953492Y-49501960D01*
X207164309Y-49481196D01*
X207434808Y-49399142D01*
X207684101Y-49265892D01*
X207902608Y-49086568D01*
X208081932Y-48868061D01*
X208215182Y-48618768D01*
X208297236Y-48348269D01*
X208324943Y-48066960D01*
X208297236Y-47785651D01*
X208215182Y-47515152D01*
X208081932Y-47265859D01*
X207902608Y-47047352D01*
X207684101Y-46868028D01*
X207434808Y-46734778D01*
X207164309Y-46652724D01*
X206953492Y-46631960D01*
X206812508Y-46631960D01*
X206601691Y-46652724D01*
X206331192Y-46734778D01*
X206081899Y-46868028D01*
X205863392Y-47047352D01*
X205684068Y-47265859D01*
X205550818Y-47515152D01*
X205468764Y-47785651D01*
X205441057Y-48066960D01*
X204986726Y-48066960D01*
X204996413Y-48043574D01*
X205051560Y-47766335D01*
X205051560Y-47483665D01*
X204996413Y-47206426D01*
X204888240Y-46945273D01*
X204731197Y-46710241D01*
X204531319Y-46510363D01*
X204296287Y-46353320D01*
X204035134Y-46245147D01*
X203757895Y-46190000D01*
X203475225Y-46190000D01*
X203197986Y-46245147D01*
X202936833Y-46353320D01*
X202701801Y-46510363D01*
X202501923Y-46710241D01*
X202344880Y-46945273D01*
X202236707Y-47206426D01*
X202181560Y-47483665D01*
X201566522Y-47483665D01*
X201568952Y-47459000D01*
X201568952Y-45759000D01*
X201556692Y-45634518D01*
X201520382Y-45514820D01*
X201461417Y-45404506D01*
X201382065Y-45307815D01*
X201285374Y-45228463D01*
X201175060Y-45169498D01*
X201055362Y-45133188D01*
X200930880Y-45120928D01*
X199230880Y-45120928D01*
X199106398Y-45133188D01*
X198986700Y-45169498D01*
X198876386Y-45228463D01*
X198779695Y-45307815D01*
X198700343Y-45404506D01*
X198641378Y-45514820D01*
X198605068Y-45634518D01*
X198592808Y-45759000D01*
X198592808Y-46270566D01*
X196828016Y-44505775D01*
X196792469Y-44462461D01*
X196619643Y-44320626D01*
X196422467Y-44215234D01*
X196208519Y-44150333D01*
X196041772Y-44133910D01*
X196041771Y-44133910D01*
X195986020Y-44128419D01*
X195930269Y-44133910D01*
X187035326Y-44133910D01*
X193662512Y-42174191D01*
X209499009Y-47132582D01*
X209499009Y-47132582D01*
G37*
X209499009Y-47132582D02*
X209338179Y-47218548D01*
X209119672Y-47397872D01*
X208940348Y-47616379D01*
X208807098Y-47865672D01*
X208725044Y-48136171D01*
X208697337Y-48417480D01*
X208725044Y-48698789D01*
X208807098Y-48969288D01*
X208940348Y-49218581D01*
X209119672Y-49437088D01*
X209338179Y-49616412D01*
X209587472Y-49749662D01*
X209857971Y-49831716D01*
X210068788Y-49852480D01*
X210209772Y-49852480D01*
X210420589Y-49831716D01*
X210691088Y-49749662D01*
X210940381Y-49616412D01*
X211158888Y-49437088D01*
X211338212Y-49218581D01*
X211471462Y-48969288D01*
X211553516Y-48698789D01*
X211581223Y-48417480D01*
X211553516Y-48136171D01*
X211471462Y-47865672D01*
X211397307Y-47726937D01*
X226001721Y-52299565D01*
X225776192Y-52366428D01*
X225107730Y-52718325D01*
X225067312Y-52745332D01*
X224707124Y-53234999D01*
X227228400Y-55756275D01*
X227242543Y-55742133D01*
X227422148Y-55921738D01*
X227408005Y-55935880D01*
X227422148Y-55950023D01*
X227242543Y-56129628D01*
X227228400Y-56115485D01*
X224707124Y-58636761D01*
X225067312Y-59126428D01*
X225731282Y-59486729D01*
X226452785Y-59710574D01*
X227204095Y-59789360D01*
X227956338Y-59720058D01*
X228324025Y-59611049D01*
X214799074Y-77193486D01*
X214820800Y-76986305D01*
X214751498Y-76234062D01*
X214536772Y-75509792D01*
X214184875Y-74841330D01*
X214157868Y-74800912D01*
X213668201Y-74440724D01*
X211146925Y-76962000D01*
X211161068Y-76976143D01*
X210981463Y-77155748D01*
X210967320Y-77141605D01*
X208446044Y-79662881D01*
X208806232Y-80152548D01*
X209470202Y-80512849D01*
X210191705Y-80736694D01*
X210943015Y-80815480D01*
X211695258Y-80746178D01*
X212175832Y-80603701D01*
X202531050Y-93141918D01*
X182200571Y-93141918D01*
X179503341Y-89421600D01*
X183850648Y-89421600D01*
X183850648Y-91121600D01*
X183862908Y-91246082D01*
X183899218Y-91365780D01*
X183958183Y-91476094D01*
X184037535Y-91572785D01*
X184134226Y-91652137D01*
X184244540Y-91711102D01*
X184364238Y-91747412D01*
X184488720Y-91759672D01*
X186188720Y-91759672D01*
X186313202Y-91747412D01*
X186432900Y-91711102D01*
X186543214Y-91652137D01*
X186639905Y-91572785D01*
X186719257Y-91476094D01*
X186778222Y-91365780D01*
X186814532Y-91246082D01*
X186826792Y-91121600D01*
X186826792Y-89421600D01*
X186824791Y-89401280D01*
X191623048Y-89401280D01*
X191623048Y-91101280D01*
X191635308Y-91225762D01*
X191671618Y-91345460D01*
X191730583Y-91455774D01*
X191809935Y-91552465D01*
X191906626Y-91631817D01*
X192016940Y-91690782D01*
X192136638Y-91727092D01*
X192261120Y-91739352D01*
X193961120Y-91739352D01*
X194085602Y-91727092D01*
X194205300Y-91690782D01*
X194315614Y-91631817D01*
X194412305Y-91552465D01*
X194491657Y-91455774D01*
X194550622Y-91345460D01*
X194586932Y-91225762D01*
X194599192Y-91101280D01*
X194599192Y-89401280D01*
X194586932Y-89276798D01*
X194550622Y-89157100D01*
X194491657Y-89046786D01*
X194412305Y-88950095D01*
X194315614Y-88870743D01*
X194205300Y-88811778D01*
X194124654Y-88787314D01*
X194208708Y-88711549D01*
X194382761Y-88478200D01*
X194507945Y-88215379D01*
X194552596Y-88068170D01*
X194431275Y-87838280D01*
X193238120Y-87838280D01*
X193238120Y-87858280D01*
X192984120Y-87858280D01*
X192984120Y-87838280D01*
X191790965Y-87838280D01*
X191669644Y-88068170D01*
X191714295Y-88215379D01*
X191839479Y-88478200D01*
X192013532Y-88711549D01*
X192097586Y-88787314D01*
X192016940Y-88811778D01*
X191906626Y-88870743D01*
X191809935Y-88950095D01*
X191730583Y-89046786D01*
X191671618Y-89157100D01*
X191635308Y-89276798D01*
X191623048Y-89401280D01*
X186824791Y-89401280D01*
X186814532Y-89297118D01*
X186778222Y-89177420D01*
X186719257Y-89067106D01*
X186639905Y-88970415D01*
X186543214Y-88891063D01*
X186432900Y-88832098D01*
X186352254Y-88807634D01*
X186436308Y-88731869D01*
X186610361Y-88498520D01*
X186735545Y-88235699D01*
X186780196Y-88088490D01*
X186658875Y-87858600D01*
X185465720Y-87858600D01*
X185465720Y-87878600D01*
X185211720Y-87878600D01*
X185211720Y-87858600D01*
X184018565Y-87858600D01*
X183897244Y-88088490D01*
X183941895Y-88235699D01*
X184067079Y-88498520D01*
X184241132Y-88731869D01*
X184325186Y-88807634D01*
X184244540Y-88832098D01*
X184134226Y-88891063D01*
X184037535Y-88970415D01*
X183958183Y-89067106D01*
X183899218Y-89177420D01*
X183862908Y-89297118D01*
X183850648Y-89421600D01*
X179503341Y-89421600D01*
X174839962Y-82989355D01*
X174900802Y-83022369D01*
X175622305Y-83246214D01*
X176373615Y-83325000D01*
X177125858Y-83255698D01*
X177850128Y-83040972D01*
X178518590Y-82689075D01*
X178559008Y-82662068D01*
X178919196Y-82172401D01*
X176397920Y-79651125D01*
X176383778Y-79665268D01*
X176204173Y-79485663D01*
X176218315Y-79471520D01*
X173697039Y-76950244D01*
X173207372Y-77310432D01*
X172847071Y-77974402D01*
X172623226Y-78695905D01*
X172544440Y-79447215D01*
X172584112Y-79877837D01*
X164914008Y-69298382D01*
X165789303Y-69298382D01*
X165860886Y-69542351D01*
X166116396Y-69663251D01*
X166390584Y-69731980D01*
X166672912Y-69745897D01*
X166952530Y-69704467D01*
X167218692Y-69609283D01*
X167343914Y-69542351D01*
X167415497Y-69298382D01*
X166602400Y-68485285D01*
X165789303Y-69298382D01*
X164914008Y-69298382D01*
X164245420Y-68376192D01*
X165162183Y-68376192D01*
X165203613Y-68655810D01*
X165298797Y-68921972D01*
X165365729Y-69047194D01*
X165609698Y-69118777D01*
X166422795Y-68305680D01*
X165609698Y-67492583D01*
X165365729Y-67564166D01*
X165244829Y-67819676D01*
X165176100Y-68093864D01*
X165162183Y-68376192D01*
X164245420Y-68376192D01*
X157556316Y-59149841D01*
X158199764Y-59149841D01*
X158559952Y-59639508D01*
X159223922Y-59999809D01*
X159945425Y-60223654D01*
X160696735Y-60302440D01*
X161448978Y-60233138D01*
X162173248Y-60018412D01*
X162841710Y-59666515D01*
X162882128Y-59639508D01*
X163242316Y-59149841D01*
X160721040Y-56628565D01*
X158199764Y-59149841D01*
X157556316Y-59149841D01*
X155580556Y-56424655D01*
X156867560Y-56424655D01*
X156936862Y-57176898D01*
X157151588Y-57901168D01*
X157503485Y-58569630D01*
X157530492Y-58610048D01*
X158020159Y-58970236D01*
X160541435Y-56448960D01*
X160900645Y-56448960D01*
X163421921Y-58970236D01*
X163911588Y-58610048D01*
X164271889Y-57946078D01*
X164495734Y-57224575D01*
X164574520Y-56473265D01*
X164505218Y-55721022D01*
X164290492Y-54996752D01*
X163938595Y-54328290D01*
X163911588Y-54287872D01*
X163421921Y-53927684D01*
X160900645Y-56448960D01*
X160541435Y-56448960D01*
X158020159Y-53927684D01*
X157530492Y-54287872D01*
X157170191Y-54951842D01*
X156946346Y-55673345D01*
X156867560Y-56424655D01*
X155580556Y-56424655D01*
X153795929Y-53963101D01*
X154523069Y-53748079D01*
X158199764Y-53748079D01*
X160721040Y-56269355D01*
X163242316Y-53748079D01*
X162882128Y-53258412D01*
X162427855Y-53011902D01*
X165790583Y-53011902D01*
X165862166Y-53255871D01*
X166117676Y-53376771D01*
X166391864Y-53445500D01*
X166674192Y-53459417D01*
X166953810Y-53417987D01*
X167219972Y-53322803D01*
X167345194Y-53255871D01*
X167416777Y-53011902D01*
X166603680Y-52198805D01*
X165790583Y-53011902D01*
X162427855Y-53011902D01*
X162218158Y-52898111D01*
X161496655Y-52674266D01*
X160745345Y-52595480D01*
X159993102Y-52664782D01*
X159268832Y-52879508D01*
X158600370Y-53231405D01*
X158559952Y-53258412D01*
X158199764Y-53748079D01*
X154523069Y-53748079D01*
X160131172Y-52089712D01*
X165163463Y-52089712D01*
X165204893Y-52369330D01*
X165300077Y-52635492D01*
X165367009Y-52760714D01*
X165610978Y-52832297D01*
X166424075Y-52019200D01*
X166783285Y-52019200D01*
X167596382Y-52832297D01*
X167840351Y-52760714D01*
X167961251Y-52505204D01*
X168029980Y-52231016D01*
X168043897Y-51948688D01*
X168002467Y-51669070D01*
X167907283Y-51402908D01*
X167840351Y-51277686D01*
X167596382Y-51206103D01*
X166783285Y-52019200D01*
X166424075Y-52019200D01*
X165610978Y-51206103D01*
X165367009Y-51277686D01*
X165246109Y-51533196D01*
X165177380Y-51807384D01*
X165163463Y-52089712D01*
X160131172Y-52089712D01*
X163726645Y-51026498D01*
X165790583Y-51026498D01*
X166603680Y-51839595D01*
X167416777Y-51026498D01*
X167345194Y-50782529D01*
X167089684Y-50661629D01*
X166815496Y-50592900D01*
X166533168Y-50578983D01*
X166253550Y-50620413D01*
X165987388Y-50715597D01*
X165862166Y-50782529D01*
X165790583Y-51026498D01*
X163726645Y-51026498D01*
X173490386Y-48139272D01*
X173494480Y-48180840D01*
X173494479Y-50860947D01*
X172916539Y-51438888D01*
X172875360Y-51339473D01*
X172718317Y-51104441D01*
X172518439Y-50904563D01*
X172283407Y-50747520D01*
X172022254Y-50639347D01*
X171745015Y-50584200D01*
X171462345Y-50584200D01*
X171185106Y-50639347D01*
X170923953Y-50747520D01*
X170688921Y-50904563D01*
X170489043Y-51104441D01*
X170332000Y-51339473D01*
X170223827Y-51600626D01*
X170168680Y-51877865D01*
X170168680Y-52160535D01*
X170213171Y-52384201D01*
X170198428Y-52384201D01*
X170142677Y-52378710D01*
X170086925Y-52384201D01*
X169920178Y-52400624D01*
X169706230Y-52465525D01*
X169509054Y-52570917D01*
X169336228Y-52712752D01*
X169300688Y-52756058D01*
X165970419Y-56086328D01*
X165927111Y-56121870D01*
X165785276Y-56294696D01*
X165750643Y-56359490D01*
X165679883Y-56491873D01*
X165614982Y-56705821D01*
X165593068Y-56928319D01*
X165598560Y-56984080D01*
X165598559Y-65601089D01*
X165593068Y-65656841D01*
X165598559Y-65712592D01*
X165614982Y-65879339D01*
X165679883Y-66093287D01*
X165785275Y-66290464D01*
X165927110Y-66463290D01*
X165970424Y-66498837D01*
X166362193Y-66890606D01*
X166252270Y-66906893D01*
X165986108Y-67002077D01*
X165860886Y-67069009D01*
X165789303Y-67312978D01*
X166602400Y-68126075D01*
X166616543Y-68111933D01*
X166796148Y-68291538D01*
X166782005Y-68305680D01*
X167595102Y-69118777D01*
X167839071Y-69047194D01*
X167959971Y-68791684D01*
X168020760Y-68549173D01*
X170040408Y-70568822D01*
X170075950Y-70612130D01*
X170224351Y-70733920D01*
X170248776Y-70753965D01*
X170445952Y-70859357D01*
X170659900Y-70924258D01*
X170882399Y-70946172D01*
X170938151Y-70940681D01*
X172033952Y-70940681D01*
X176745177Y-75651906D01*
X176422225Y-75618040D01*
X175669982Y-75687342D01*
X174945712Y-75902068D01*
X174277250Y-76253965D01*
X174236832Y-76280972D01*
X173876644Y-76770639D01*
X176397920Y-79291915D01*
X176412063Y-79277773D01*
X176591668Y-79457378D01*
X176577525Y-79471520D01*
X179098801Y-81992796D01*
X179588468Y-81632608D01*
X179948769Y-80968638D01*
X180172614Y-80247135D01*
X180222316Y-79773170D01*
X181518928Y-81069782D01*
X181518928Y-82048720D01*
X181531188Y-82173202D01*
X181567498Y-82292900D01*
X181626463Y-82403214D01*
X181705815Y-82499905D01*
X181802506Y-82579257D01*
X181912820Y-82638222D01*
X182032518Y-82674532D01*
X182157000Y-82686792D01*
X183857000Y-82686792D01*
X183981482Y-82674532D01*
X184101180Y-82638222D01*
X184211494Y-82579257D01*
X184308185Y-82499905D01*
X184387537Y-82403214D01*
X184446502Y-82292900D01*
X184482812Y-82173202D01*
X184495072Y-82048720D01*
X184495072Y-80348720D01*
X184482812Y-80224238D01*
X184446502Y-80104540D01*
X184387537Y-79994226D01*
X184308185Y-79897535D01*
X184211494Y-79818183D01*
X184101180Y-79759218D01*
X184020534Y-79734754D01*
X184104588Y-79658989D01*
X184278641Y-79425640D01*
X184403825Y-79162819D01*
X184448476Y-79015610D01*
X184327156Y-78785722D01*
X184486533Y-78785722D01*
X184499732Y-78829233D01*
X184581910Y-78982979D01*
X184664788Y-79083966D01*
X184664791Y-79083969D01*
X184692504Y-79117737D01*
X184726271Y-79145449D01*
X185184544Y-79603722D01*
X185180053Y-79649320D01*
X185205064Y-79903263D01*
X185279137Y-80147446D01*
X185399423Y-80372487D01*
X185561302Y-80569738D01*
X185758553Y-80731617D01*
X185983594Y-80851903D01*
X186227777Y-80925976D01*
X186418090Y-80944720D01*
X187866150Y-80944720D01*
X188027930Y-80928786D01*
X188027930Y-81250811D01*
X185557754Y-83720988D01*
X185411670Y-83706600D01*
X185265770Y-83706600D01*
X185047609Y-83728087D01*
X184767686Y-83813001D01*
X184509706Y-83950894D01*
X184283586Y-84136466D01*
X184098014Y-84362586D01*
X183960121Y-84620566D01*
X183875207Y-84900489D01*
X183846535Y-85191600D01*
X183875207Y-85482711D01*
X183960121Y-85762634D01*
X184098014Y-86020614D01*
X184283586Y-86246734D01*
X184509706Y-86432306D01*
X184574243Y-86466801D01*
X184457365Y-86536422D01*
X184241132Y-86731331D01*
X184067079Y-86964680D01*
X183941895Y-87227501D01*
X183897244Y-87374710D01*
X184018565Y-87604600D01*
X185211720Y-87604600D01*
X185211720Y-87584600D01*
X185465720Y-87584600D01*
X185465720Y-87604600D01*
X186658875Y-87604600D01*
X186780196Y-87374710D01*
X186735545Y-87227501D01*
X186610361Y-86964680D01*
X186436308Y-86731331D01*
X186220075Y-86536422D01*
X186103197Y-86466801D01*
X186167734Y-86432306D01*
X186393854Y-86246734D01*
X186579426Y-86020614D01*
X186717319Y-85762634D01*
X186802233Y-85482711D01*
X186830905Y-85191600D01*
X186809332Y-84972566D01*
X189507980Y-82273919D01*
X189541747Y-82246207D01*
X189652341Y-82111449D01*
X189734519Y-81957703D01*
X189785125Y-81790880D01*
X189797930Y-81660867D01*
X189797930Y-81660857D01*
X189802211Y-81617391D01*
X189797930Y-81573925D01*
X189797930Y-64884688D01*
X192806320Y-61876299D01*
X192806320Y-61996322D01*
X192972186Y-61996322D01*
X192848300Y-62196425D01*
X192856325Y-62247715D01*
X192934271Y-62435655D01*
X192396261Y-62973665D01*
X192362494Y-63001377D01*
X192334781Y-63035145D01*
X192334778Y-63035148D01*
X192251900Y-63136135D01*
X192169722Y-63289881D01*
X192119115Y-63456704D01*
X192102029Y-63630194D01*
X192106311Y-63673673D01*
X192106310Y-80065797D01*
X192102029Y-80109266D01*
X192106310Y-80152735D01*
X192106310Y-80152742D01*
X192109938Y-80189578D01*
X192119115Y-80282756D01*
X192130140Y-80319098D01*
X192169721Y-80449578D01*
X192226121Y-80555096D01*
X192226120Y-83976520D01*
X192055986Y-84116146D01*
X191870414Y-84342266D01*
X191732521Y-84600246D01*
X191647607Y-84880169D01*
X191618935Y-85171280D01*
X191647607Y-85462391D01*
X191732521Y-85742314D01*
X191870414Y-86000294D01*
X192055986Y-86226414D01*
X192282106Y-86411986D01*
X192346643Y-86446481D01*
X192229765Y-86516102D01*
X192013532Y-86711011D01*
X191839479Y-86944360D01*
X191714295Y-87207181D01*
X191669644Y-87354390D01*
X191790965Y-87584280D01*
X192984120Y-87584280D01*
X192984120Y-87564280D01*
X193238120Y-87564280D01*
X193238120Y-87584280D01*
X194431275Y-87584280D01*
X194552596Y-87354390D01*
X194507945Y-87207181D01*
X194382761Y-86944360D01*
X194208708Y-86711011D01*
X193992475Y-86516102D01*
X193875597Y-86446481D01*
X193940134Y-86411986D01*
X194166254Y-86226414D01*
X194351826Y-86000294D01*
X194489719Y-85742314D01*
X194574633Y-85462391D01*
X194578926Y-85418800D01*
X199035008Y-85418800D01*
X199035008Y-88418800D01*
X199047268Y-88543282D01*
X199083578Y-88662980D01*
X199142543Y-88773294D01*
X199221895Y-88869985D01*
X199318586Y-88949337D01*
X199428900Y-89008302D01*
X199548598Y-89044612D01*
X199673080Y-89056872D01*
X202673080Y-89056872D01*
X202797562Y-89044612D01*
X202917260Y-89008302D01*
X203027574Y-88949337D01*
X203124265Y-88869985D01*
X203203617Y-88773294D01*
X203262582Y-88662980D01*
X203298892Y-88543282D01*
X203311152Y-88418800D01*
X203311152Y-85418800D01*
X203298892Y-85294318D01*
X203262582Y-85174620D01*
X203203617Y-85064306D01*
X203124265Y-84967615D01*
X203027574Y-84888263D01*
X202917260Y-84829298D01*
X202797562Y-84792988D01*
X202673080Y-84780728D01*
X199673080Y-84780728D01*
X199548598Y-84792988D01*
X199428900Y-84829298D01*
X199318586Y-84888263D01*
X199221895Y-84967615D01*
X199142543Y-85064306D01*
X199083578Y-85174620D01*
X199047268Y-85294318D01*
X199035008Y-85418800D01*
X194578926Y-85418800D01*
X194603305Y-85171280D01*
X194574633Y-84880169D01*
X194489719Y-84600246D01*
X194351826Y-84342266D01*
X194166254Y-84116146D01*
X193996120Y-83976521D01*
X193996120Y-81628521D01*
X199038080Y-81628521D01*
X199038080Y-82049079D01*
X199120127Y-82461556D01*
X199281068Y-82850102D01*
X199514717Y-83199783D01*
X199812097Y-83497163D01*
X200161778Y-83730812D01*
X200550324Y-83891753D01*
X200962801Y-83973800D01*
X201383359Y-83973800D01*
X201795836Y-83891753D01*
X202184382Y-83730812D01*
X202534063Y-83497163D01*
X202831443Y-83199783D01*
X203065092Y-82850102D01*
X203226033Y-82461556D01*
X203308080Y-82049079D01*
X203308080Y-81628521D01*
X203226033Y-81216044D01*
X203065092Y-80827498D01*
X202831443Y-80477817D01*
X202534063Y-80180437D01*
X202184382Y-79946788D01*
X201795836Y-79785847D01*
X201383359Y-79703800D01*
X200962801Y-79703800D01*
X200550324Y-79785847D01*
X200161778Y-79946788D01*
X199812097Y-80180437D01*
X199514717Y-80477817D01*
X199281068Y-80827498D01*
X199120127Y-81216044D01*
X199038080Y-81628521D01*
X193996120Y-81628521D01*
X193996120Y-80940586D01*
X194038090Y-80944720D01*
X195486150Y-80944720D01*
X195676463Y-80925976D01*
X195920646Y-80851903D01*
X196145687Y-80731617D01*
X196342938Y-80569738D01*
X196504817Y-80372487D01*
X196625103Y-80147446D01*
X196699176Y-79903263D01*
X196724187Y-79649320D01*
X196699176Y-79395377D01*
X196625103Y-79151194D01*
X196504817Y-78926153D01*
X196342938Y-78728902D01*
X196145687Y-78567023D01*
X195920646Y-78446737D01*
X195698405Y-78379320D01*
X195920646Y-78311903D01*
X196145687Y-78191617D01*
X196342938Y-78029738D01*
X196417578Y-77938789D01*
X196443553Y-77930909D01*
X196597299Y-77848731D01*
X196732057Y-77738137D01*
X196759774Y-77704364D01*
X197915617Y-76548521D01*
X199038080Y-76548521D01*
X199038080Y-76969079D01*
X199120127Y-77381556D01*
X199281068Y-77770102D01*
X199514717Y-78119783D01*
X199812097Y-78417163D01*
X200161778Y-78650812D01*
X200550324Y-78811753D01*
X200962801Y-78893800D01*
X201383359Y-78893800D01*
X201795836Y-78811753D01*
X202184382Y-78650812D01*
X202534063Y-78417163D01*
X202831443Y-78119783D01*
X203065092Y-77770102D01*
X203226033Y-77381556D01*
X203308080Y-76969079D01*
X203308080Y-76937695D01*
X207113840Y-76937695D01*
X207183142Y-77689938D01*
X207397868Y-78414208D01*
X207749765Y-79082670D01*
X207776772Y-79123088D01*
X208266439Y-79483276D01*
X210787715Y-76962000D01*
X208266439Y-74440724D01*
X207776772Y-74800912D01*
X207416471Y-75464882D01*
X207192626Y-76186385D01*
X207113840Y-76937695D01*
X203308080Y-76937695D01*
X203308080Y-76548521D01*
X203226033Y-76136044D01*
X203065092Y-75747498D01*
X202831443Y-75397817D01*
X202534063Y-75100437D01*
X202184382Y-74866788D01*
X201795836Y-74705847D01*
X201383359Y-74623800D01*
X200962801Y-74623800D01*
X200550324Y-74705847D01*
X200161778Y-74866788D01*
X199812097Y-75100437D01*
X199514717Y-75397817D01*
X199281068Y-75747498D01*
X199120127Y-76136044D01*
X199038080Y-76548521D01*
X197915617Y-76548521D01*
X200203019Y-74261119D01*
X208446044Y-74261119D01*
X210967320Y-76782395D01*
X213488596Y-74261119D01*
X213128408Y-73771452D01*
X212464438Y-73411151D01*
X211742935Y-73187306D01*
X210991625Y-73108520D01*
X210239382Y-73177822D01*
X209515112Y-73392548D01*
X208846650Y-73744445D01*
X208806232Y-73771452D01*
X208446044Y-74261119D01*
X200203019Y-74261119D01*
X204893537Y-69570602D01*
X204988804Y-69570602D01*
X204867484Y-69800490D01*
X204912135Y-69947699D01*
X205037319Y-70210520D01*
X205211372Y-70443869D01*
X205295426Y-70519634D01*
X205214780Y-70544098D01*
X205104466Y-70603063D01*
X205007775Y-70682415D01*
X204928423Y-70779106D01*
X204869458Y-70889420D01*
X204833148Y-71009118D01*
X204820888Y-71133600D01*
X204820888Y-72833600D01*
X204833148Y-72958082D01*
X204869458Y-73077780D01*
X204928423Y-73188094D01*
X205007775Y-73284785D01*
X205104466Y-73364137D01*
X205214780Y-73423102D01*
X205334478Y-73459412D01*
X205458960Y-73471672D01*
X207158960Y-73471672D01*
X207283442Y-73459412D01*
X207403140Y-73423102D01*
X207513454Y-73364137D01*
X207610145Y-73284785D01*
X207689497Y-73188094D01*
X207748462Y-73077780D01*
X207784772Y-72958082D01*
X207797032Y-72833600D01*
X207797032Y-71133600D01*
X207784772Y-71009118D01*
X207748462Y-70889420D01*
X207689497Y-70779106D01*
X207610145Y-70682415D01*
X207513454Y-70603063D01*
X207403140Y-70544098D01*
X207322494Y-70519634D01*
X207406548Y-70443869D01*
X207580601Y-70210520D01*
X207705785Y-69947699D01*
X207750436Y-69800490D01*
X207629115Y-69570600D01*
X206435960Y-69570600D01*
X206435960Y-69590600D01*
X206181960Y-69590600D01*
X206181960Y-69570600D01*
X206161960Y-69570600D01*
X206161960Y-69316600D01*
X206181960Y-69316600D01*
X206181960Y-69296600D01*
X206435960Y-69296600D01*
X206435960Y-69316600D01*
X207629115Y-69316600D01*
X207750436Y-69086710D01*
X207705785Y-68939501D01*
X207580601Y-68676680D01*
X207406548Y-68443331D01*
X207190315Y-68248422D01*
X207073437Y-68178801D01*
X207137974Y-68144306D01*
X207364094Y-67958734D01*
X207549666Y-67732614D01*
X207687559Y-67474634D01*
X207772473Y-67194711D01*
X207801145Y-66903600D01*
X207772473Y-66612489D01*
X207687559Y-66332566D01*
X207549666Y-66074586D01*
X207364094Y-65848466D01*
X207137974Y-65662894D01*
X207083169Y-65633600D01*
X207137974Y-65604306D01*
X207364094Y-65418734D01*
X207549666Y-65192614D01*
X207687559Y-64934634D01*
X207772473Y-64654711D01*
X207801145Y-64363600D01*
X207772473Y-64072489D01*
X207687559Y-63792566D01*
X207549666Y-63534586D01*
X207364094Y-63308466D01*
X207137974Y-63122894D01*
X207083169Y-63093600D01*
X207137974Y-63064306D01*
X207230563Y-62988320D01*
X209017208Y-62988320D01*
X209029468Y-63112802D01*
X209065778Y-63232500D01*
X209124743Y-63342814D01*
X209204095Y-63439505D01*
X209300786Y-63518857D01*
X209411100Y-63577822D01*
X209530798Y-63614132D01*
X209655280Y-63626392D01*
X210869530Y-63623320D01*
X211028280Y-63464570D01*
X211028280Y-61615320D01*
X211282280Y-61615320D01*
X211282280Y-63464570D01*
X211441030Y-63623320D01*
X212655280Y-63626392D01*
X212779762Y-63614132D01*
X212899460Y-63577822D01*
X213009774Y-63518857D01*
X213106465Y-63439505D01*
X213185817Y-63342814D01*
X213244782Y-63232500D01*
X213281092Y-63112802D01*
X213293352Y-62988320D01*
X213293331Y-62979973D01*
X214923232Y-62979973D01*
X215079242Y-63295534D01*
X215454025Y-63486340D01*
X215858831Y-63600364D01*
X216278104Y-63633222D01*
X216695731Y-63583654D01*
X217095663Y-63453563D01*
X217391318Y-63295534D01*
X217547328Y-62979973D01*
X220003232Y-62979973D01*
X220159242Y-63295534D01*
X220534025Y-63486340D01*
X220938831Y-63600364D01*
X221358104Y-63633222D01*
X221775731Y-63583654D01*
X222175663Y-63453563D01*
X222471318Y-63295534D01*
X222627328Y-62979973D01*
X221315280Y-61667925D01*
X220003232Y-62979973D01*
X217547328Y-62979973D01*
X216235280Y-61667925D01*
X214923232Y-62979973D01*
X213293331Y-62979973D01*
X213290280Y-61774070D01*
X213131530Y-61615320D01*
X211282280Y-61615320D01*
X211028280Y-61615320D01*
X209179030Y-61615320D01*
X209020280Y-61774070D01*
X209017208Y-62988320D01*
X207230563Y-62988320D01*
X207364094Y-62878734D01*
X207549666Y-62652614D01*
X207687559Y-62394634D01*
X207772473Y-62114711D01*
X207801145Y-61823600D01*
X207772473Y-61532489D01*
X207772065Y-61531144D01*
X214090378Y-61531144D01*
X214139946Y-61948771D01*
X214270037Y-62348703D01*
X214428066Y-62644358D01*
X214743627Y-62800368D01*
X216055675Y-61488320D01*
X216414885Y-61488320D01*
X217726933Y-62800368D01*
X218042494Y-62644358D01*
X218233300Y-62269575D01*
X218347324Y-61864769D01*
X218373469Y-61531144D01*
X219170378Y-61531144D01*
X219219946Y-61948771D01*
X219350037Y-62348703D01*
X219508066Y-62644358D01*
X219823627Y-62800368D01*
X221135675Y-61488320D01*
X221494885Y-61488320D01*
X222806933Y-62800368D01*
X223122494Y-62644358D01*
X223313300Y-62269575D01*
X223427324Y-61864769D01*
X223460182Y-61445496D01*
X223410614Y-61027869D01*
X223280523Y-60627937D01*
X223122494Y-60332282D01*
X222806933Y-60176272D01*
X221494885Y-61488320D01*
X221135675Y-61488320D01*
X219823627Y-60176272D01*
X219508066Y-60332282D01*
X219317260Y-60707065D01*
X219203236Y-61111871D01*
X219170378Y-61531144D01*
X218373469Y-61531144D01*
X218380182Y-61445496D01*
X218330614Y-61027869D01*
X218200523Y-60627937D01*
X218042494Y-60332282D01*
X217726933Y-60176272D01*
X216414885Y-61488320D01*
X216055675Y-61488320D01*
X214743627Y-60176272D01*
X214428066Y-60332282D01*
X214237260Y-60707065D01*
X214123236Y-61111871D01*
X214090378Y-61531144D01*
X207772065Y-61531144D01*
X207687559Y-61252566D01*
X207549666Y-60994586D01*
X207364094Y-60768466D01*
X207137974Y-60582894D01*
X207083169Y-60553600D01*
X207137974Y-60524306D01*
X207364094Y-60338734D01*
X207549666Y-60112614D01*
X207616102Y-59988320D01*
X209017208Y-59988320D01*
X209020280Y-61202570D01*
X209179030Y-61361320D01*
X211028280Y-61361320D01*
X211028280Y-59512070D01*
X211282280Y-59512070D01*
X211282280Y-61361320D01*
X213131530Y-61361320D01*
X213290280Y-61202570D01*
X213293330Y-59996667D01*
X214923232Y-59996667D01*
X216235280Y-61308715D01*
X217547328Y-59996667D01*
X220003232Y-59996667D01*
X221315280Y-61308715D01*
X222627328Y-59996667D01*
X222471318Y-59681106D01*
X222096535Y-59490300D01*
X221691729Y-59376276D01*
X221272456Y-59343418D01*
X220854829Y-59392986D01*
X220454897Y-59523077D01*
X220159242Y-59681106D01*
X220003232Y-59996667D01*
X217547328Y-59996667D01*
X217391318Y-59681106D01*
X217016535Y-59490300D01*
X216611729Y-59376276D01*
X216192456Y-59343418D01*
X215774829Y-59392986D01*
X215374897Y-59523077D01*
X215079242Y-59681106D01*
X214923232Y-59996667D01*
X213293330Y-59996667D01*
X213293352Y-59988320D01*
X213281092Y-59863838D01*
X213244782Y-59744140D01*
X213185817Y-59633826D01*
X213106465Y-59537135D01*
X213009774Y-59457783D01*
X212899460Y-59398818D01*
X212779762Y-59362508D01*
X212655280Y-59350248D01*
X211441030Y-59353320D01*
X211282280Y-59512070D01*
X211028280Y-59512070D01*
X210869530Y-59353320D01*
X209655280Y-59350248D01*
X209530798Y-59362508D01*
X209411100Y-59398818D01*
X209300786Y-59457783D01*
X209204095Y-59537135D01*
X209124743Y-59633826D01*
X209065778Y-59744140D01*
X209029468Y-59863838D01*
X209017208Y-59988320D01*
X207616102Y-59988320D01*
X207687559Y-59854634D01*
X207772473Y-59574711D01*
X207801145Y-59283600D01*
X207772473Y-58992489D01*
X207687559Y-58712566D01*
X207549666Y-58454586D01*
X207364094Y-58228466D01*
X207137974Y-58042894D01*
X206879994Y-57905001D01*
X206600071Y-57820087D01*
X206381910Y-57798600D01*
X206236010Y-57798600D01*
X206017849Y-57820087D01*
X205737926Y-57905001D01*
X205479946Y-58042894D01*
X205253826Y-58228466D01*
X205068254Y-58454586D01*
X204930361Y-58712566D01*
X204845447Y-58992489D01*
X204820110Y-59249739D01*
X204701669Y-59261404D01*
X204534846Y-59312010D01*
X204381100Y-59394188D01*
X204369182Y-59403969D01*
X204280112Y-59477067D01*
X204280110Y-59477069D01*
X204246342Y-59504782D01*
X204218629Y-59538550D01*
X201215880Y-62541300D01*
X201215880Y-57904000D01*
X202036809Y-57904000D01*
X202092560Y-57909491D01*
X202148311Y-57904000D01*
X202148312Y-57904000D01*
X202315059Y-57887577D01*
X202529007Y-57822676D01*
X202726183Y-57717284D01*
X202899009Y-57575449D01*
X202934556Y-57532135D01*
X203797578Y-56669114D01*
X203897869Y-56659236D01*
X204168368Y-56577182D01*
X204417661Y-56443932D01*
X204495562Y-56380000D01*
X205620215Y-56380000D01*
X205768363Y-56601719D01*
X205968241Y-56801597D01*
X206203273Y-56958640D01*
X206464426Y-57066813D01*
X206741665Y-57121960D01*
X207024335Y-57121960D01*
X207301574Y-57066813D01*
X207562727Y-56958640D01*
X207767284Y-56821960D01*
X208937594Y-56821960D01*
X209024643Y-56952239D01*
X209224521Y-57152117D01*
X209459553Y-57309160D01*
X209720706Y-57417333D01*
X209997945Y-57472480D01*
X210280615Y-57472480D01*
X210557854Y-57417333D01*
X210819007Y-57309160D01*
X211054039Y-57152117D01*
X211253917Y-56952239D01*
X211410960Y-56717207D01*
X211519133Y-56456054D01*
X211574280Y-56178815D01*
X211574280Y-55911575D01*
X223374920Y-55911575D01*
X223444222Y-56663818D01*
X223658948Y-57388088D01*
X224010845Y-58056550D01*
X224037852Y-58096968D01*
X224527519Y-58457156D01*
X227048795Y-55935880D01*
X224527519Y-53414604D01*
X224037852Y-53774792D01*
X223677551Y-54438762D01*
X223453706Y-55160265D01*
X223374920Y-55911575D01*
X211574280Y-55911575D01*
X211574280Y-55896145D01*
X211519133Y-55618906D01*
X211410960Y-55357753D01*
X211253917Y-55122721D01*
X211054039Y-54922843D01*
X210819007Y-54765800D01*
X210557854Y-54657627D01*
X210280615Y-54602480D01*
X210123661Y-54602480D01*
X210011259Y-54568383D01*
X209844512Y-54551960D01*
X209844511Y-54551960D01*
X209788760Y-54546469D01*
X209733009Y-54551960D01*
X207767284Y-54551960D01*
X207562727Y-54415280D01*
X207301574Y-54307107D01*
X207024335Y-54251960D01*
X206990930Y-54251960D01*
X206877487Y-54191324D01*
X206663539Y-54126423D01*
X206496792Y-54110000D01*
X206496791Y-54110000D01*
X206441040Y-54104509D01*
X206385289Y-54110000D01*
X204495562Y-54110000D01*
X204417661Y-54046068D01*
X204168368Y-53912818D01*
X203897869Y-53830764D01*
X203687052Y-53810000D01*
X203546068Y-53810000D01*
X203335251Y-53830764D01*
X203064752Y-53912818D01*
X202815459Y-54046068D01*
X202596952Y-54225392D01*
X202417628Y-54443899D01*
X202284378Y-54693192D01*
X202202324Y-54963691D01*
X202192446Y-55063982D01*
X201622429Y-55634000D01*
X201038697Y-55634000D01*
X200909894Y-55528294D01*
X200845357Y-55493799D01*
X200962235Y-55424178D01*
X201178468Y-55229269D01*
X201352521Y-54995920D01*
X201477705Y-54733099D01*
X201522356Y-54585890D01*
X201401035Y-54356000D01*
X200207880Y-54356000D01*
X200207880Y-54376000D01*
X199953880Y-54376000D01*
X199953880Y-54356000D01*
X199933880Y-54356000D01*
X199933880Y-54102000D01*
X199953880Y-54102000D01*
X199953880Y-54082000D01*
X200207880Y-54082000D01*
X200207880Y-54102000D01*
X201401035Y-54102000D01*
X201522356Y-53872110D01*
X201477705Y-53724901D01*
X201352521Y-53462080D01*
X201178468Y-53228731D01*
X200962235Y-53033822D01*
X200845357Y-52964201D01*
X200909894Y-52929706D01*
X201136014Y-52744134D01*
X201321586Y-52518014D01*
X201459479Y-52260034D01*
X201544393Y-51980111D01*
X201573065Y-51689000D01*
X201544393Y-51397889D01*
X201459479Y-51117966D01*
X201321586Y-50859986D01*
X201136014Y-50633866D01*
X200909894Y-50448294D01*
X200855089Y-50419000D01*
X200909894Y-50389706D01*
X201136014Y-50204134D01*
X201321586Y-49978014D01*
X201459479Y-49720034D01*
X201544393Y-49440111D01*
X201573065Y-49149000D01*
X201544393Y-48857889D01*
X201459479Y-48577966D01*
X201321586Y-48319986D01*
X201136014Y-48093866D01*
X201106193Y-48069393D01*
X201175060Y-48048502D01*
X201285374Y-47989537D01*
X201382065Y-47910185D01*
X201461417Y-47813494D01*
X201520382Y-47703180D01*
X201556692Y-47583482D01*
X201566522Y-47483665D01*
X202181560Y-47483665D01*
X202181560Y-47766335D01*
X202236707Y-48043574D01*
X202344880Y-48304727D01*
X202501923Y-48539759D01*
X202701801Y-48739637D01*
X202936833Y-48896680D01*
X203197986Y-49004853D01*
X203475225Y-49060000D01*
X203757895Y-49060000D01*
X204035134Y-49004853D01*
X204296287Y-48896680D01*
X204531319Y-48739637D01*
X204731197Y-48539759D01*
X204888240Y-48304727D01*
X204986726Y-48066960D01*
X205441057Y-48066960D01*
X205468764Y-48348269D01*
X205550818Y-48618768D01*
X205684068Y-48868061D01*
X205863392Y-49086568D01*
X206081899Y-49265892D01*
X206331192Y-49399142D01*
X206601691Y-49481196D01*
X206812508Y-49501960D01*
X206953492Y-49501960D01*
X207164309Y-49481196D01*
X207434808Y-49399142D01*
X207684101Y-49265892D01*
X207902608Y-49086568D01*
X208081932Y-48868061D01*
X208215182Y-48618768D01*
X208297236Y-48348269D01*
X208324943Y-48066960D01*
X208297236Y-47785651D01*
X208215182Y-47515152D01*
X208081932Y-47265859D01*
X207902608Y-47047352D01*
X207684101Y-46868028D01*
X207434808Y-46734778D01*
X207164309Y-46652724D01*
X206953492Y-46631960D01*
X206812508Y-46631960D01*
X206601691Y-46652724D01*
X206331192Y-46734778D01*
X206081899Y-46868028D01*
X205863392Y-47047352D01*
X205684068Y-47265859D01*
X205550818Y-47515152D01*
X205468764Y-47785651D01*
X205441057Y-48066960D01*
X204986726Y-48066960D01*
X204996413Y-48043574D01*
X205051560Y-47766335D01*
X205051560Y-47483665D01*
X204996413Y-47206426D01*
X204888240Y-46945273D01*
X204731197Y-46710241D01*
X204531319Y-46510363D01*
X204296287Y-46353320D01*
X204035134Y-46245147D01*
X203757895Y-46190000D01*
X203475225Y-46190000D01*
X203197986Y-46245147D01*
X202936833Y-46353320D01*
X202701801Y-46510363D01*
X202501923Y-46710241D01*
X202344880Y-46945273D01*
X202236707Y-47206426D01*
X202181560Y-47483665D01*
X201566522Y-47483665D01*
X201568952Y-47459000D01*
X201568952Y-45759000D01*
X201556692Y-45634518D01*
X201520382Y-45514820D01*
X201461417Y-45404506D01*
X201382065Y-45307815D01*
X201285374Y-45228463D01*
X201175060Y-45169498D01*
X201055362Y-45133188D01*
X200930880Y-45120928D01*
X199230880Y-45120928D01*
X199106398Y-45133188D01*
X198986700Y-45169498D01*
X198876386Y-45228463D01*
X198779695Y-45307815D01*
X198700343Y-45404506D01*
X198641378Y-45514820D01*
X198605068Y-45634518D01*
X198592808Y-45759000D01*
X198592808Y-46270566D01*
X196828016Y-44505775D01*
X196792469Y-44462461D01*
X196619643Y-44320626D01*
X196422467Y-44215234D01*
X196208519Y-44150333D01*
X196041772Y-44133910D01*
X196041771Y-44133910D01*
X195986020Y-44128419D01*
X195930269Y-44133910D01*
X187035326Y-44133910D01*
X193662512Y-42174191D01*
X209499009Y-47132582D01*
G36*
X183134000Y-78531720D02*
G01*
X183154000Y-78531720D01*
X183154000Y-78785720D01*
X183134000Y-78785720D01*
X183134000Y-78805720D01*
X182880000Y-78805720D01*
X182880000Y-78785720D01*
X182860000Y-78785720D01*
X182860000Y-78531720D01*
X182880000Y-78531720D01*
X182880000Y-78511720D01*
X183134000Y-78511720D01*
X183134000Y-78531720D01*
X183134000Y-78531720D01*
G37*
X183134000Y-78531720D02*
X183154000Y-78531720D01*
X183154000Y-78785720D01*
X183134000Y-78785720D01*
X183134000Y-78805720D01*
X182880000Y-78805720D01*
X182880000Y-78785720D01*
X182860000Y-78785720D01*
X182860000Y-78531720D01*
X182880000Y-78531720D01*
X182880000Y-78511720D01*
X183134000Y-78511720D01*
X183134000Y-78531720D01*
G36*
X204123960Y-66542931D02*
G01*
X204107751Y-66512606D01*
X203863782Y-66441023D01*
X203050685Y-67254120D01*
X203064828Y-67268263D01*
X202885223Y-67447868D01*
X202871080Y-67433725D01*
X202856938Y-67447868D01*
X202677333Y-67268263D01*
X202691475Y-67254120D01*
X202677333Y-67239978D01*
X202856938Y-67060373D01*
X202871080Y-67074515D01*
X203160231Y-66785364D01*
X203238498Y-66743530D01*
X203373256Y-66632936D01*
X203400973Y-66599163D01*
X204123959Y-65876177D01*
X204123960Y-66542931D01*
X204123960Y-66542931D01*
G37*
X204123960Y-66542931D02*
X204107751Y-66512606D01*
X203863782Y-66441023D01*
X203050685Y-67254120D01*
X203064828Y-67268263D01*
X202885223Y-67447868D01*
X202871080Y-67433725D01*
X202856938Y-67447868D01*
X202677333Y-67268263D01*
X202691475Y-67254120D01*
X202677333Y-67239978D01*
X202856938Y-67060373D01*
X202871080Y-67074515D01*
X203160231Y-66785364D01*
X203238498Y-66743530D01*
X203373256Y-66632936D01*
X203400973Y-66599163D01*
X204123959Y-65876177D01*
X204123960Y-66542931D01*
G36*
X183986310Y-58476074D02*
G01*
X183789679Y-58279443D01*
X183554647Y-58122400D01*
X183293494Y-58014227D01*
X183016255Y-57959080D01*
X182733585Y-57959080D01*
X182456346Y-58014227D01*
X182195193Y-58122400D01*
X181960161Y-58279443D01*
X181760283Y-58479321D01*
X181603240Y-58714353D01*
X181495067Y-58975506D01*
X181439920Y-59252745D01*
X181439920Y-59535415D01*
X181495067Y-59812654D01*
X181603240Y-60073807D01*
X181760283Y-60308839D01*
X181960161Y-60508717D01*
X182195193Y-60665760D01*
X182456346Y-60773933D01*
X182733585Y-60829080D01*
X183016255Y-60829080D01*
X183293494Y-60773933D01*
X183554647Y-60665760D01*
X183789679Y-60508717D01*
X183989557Y-60308839D01*
X184038994Y-60234852D01*
X184067634Y-60329266D01*
X184173026Y-60526443D01*
X184314861Y-60699269D01*
X184358174Y-60734815D01*
X185076228Y-61452870D01*
X185111771Y-61496179D01*
X185215419Y-61581241D01*
X185205064Y-61615377D01*
X185180053Y-61869320D01*
X185205064Y-62123263D01*
X185279137Y-62367446D01*
X185399423Y-62592487D01*
X185561302Y-62789738D01*
X185758553Y-62951617D01*
X185983594Y-63071903D01*
X186214097Y-63141826D01*
X186104440Y-63163587D01*
X185868659Y-63261127D01*
X185656437Y-63402791D01*
X185475931Y-63583136D01*
X185334076Y-63795231D01*
X185236325Y-64030925D01*
X185228300Y-64082215D01*
X185352187Y-64282320D01*
X187015120Y-64282320D01*
X187015120Y-64262320D01*
X187269120Y-64262320D01*
X187269120Y-64282320D01*
X187289120Y-64282320D01*
X187289120Y-64536320D01*
X187269120Y-64536320D01*
X187269120Y-64556320D01*
X187015120Y-64556320D01*
X187015120Y-64536320D01*
X185352187Y-64536320D01*
X185228300Y-64736425D01*
X185236325Y-64787715D01*
X185334076Y-65023409D01*
X185475931Y-65235504D01*
X185656437Y-65415849D01*
X185868659Y-65557513D01*
X186104440Y-65655053D01*
X186214097Y-65676814D01*
X185983594Y-65746737D01*
X185758553Y-65867023D01*
X185561302Y-66028902D01*
X185532235Y-66064320D01*
X185298261Y-66064320D01*
X184282977Y-65049037D01*
X184255260Y-65015264D01*
X184192787Y-64963994D01*
X184232491Y-64880084D01*
X184301220Y-64605896D01*
X184315137Y-64323568D01*
X184273707Y-64043950D01*
X184178523Y-63777788D01*
X184111591Y-63652566D01*
X183867622Y-63580983D01*
X183054525Y-64394080D01*
X183068668Y-64408223D01*
X182889063Y-64587828D01*
X182874920Y-64573685D01*
X182860778Y-64587828D01*
X182681173Y-64408223D01*
X182695315Y-64394080D01*
X181882218Y-63580983D01*
X181638249Y-63652566D01*
X181517349Y-63908076D01*
X181448620Y-64182264D01*
X181434703Y-64464592D01*
X181476133Y-64744210D01*
X181481451Y-64759081D01*
X176569900Y-64759081D01*
X169590096Y-57779278D01*
X169590091Y-57779272D01*
X169568560Y-57757741D01*
X169568560Y-57487909D01*
X169515335Y-57220331D01*
X169410931Y-56968277D01*
X169259359Y-56741434D01*
X169066446Y-56548521D01*
X168857861Y-56409149D01*
X170612809Y-54654201D01*
X172385606Y-54654201D01*
X172441357Y-54659692D01*
X172497108Y-54654201D01*
X172497109Y-54654201D01*
X172663856Y-54637778D01*
X172877804Y-54572877D01*
X173074980Y-54467485D01*
X173247806Y-54325650D01*
X173283353Y-54282336D01*
X174842226Y-52723464D01*
X174938774Y-52904094D01*
X175124346Y-53130214D01*
X175350466Y-53315786D01*
X175405271Y-53345080D01*
X175350466Y-53374374D01*
X175124346Y-53559946D01*
X174938774Y-53786066D01*
X174800881Y-54044046D01*
X174715967Y-54323969D01*
X174687295Y-54615080D01*
X174715967Y-54906191D01*
X174800881Y-55186114D01*
X174938774Y-55444094D01*
X175124346Y-55670214D01*
X175350466Y-55855786D01*
X175405271Y-55885080D01*
X175350466Y-55914374D01*
X175124346Y-56099946D01*
X174938774Y-56326066D01*
X174800881Y-56584046D01*
X174715967Y-56863969D01*
X174687295Y-57155080D01*
X174715967Y-57446191D01*
X174800881Y-57726114D01*
X174938774Y-57984094D01*
X175124346Y-58210214D01*
X175350466Y-58395786D01*
X175405271Y-58425080D01*
X175350466Y-58454374D01*
X175124346Y-58639946D01*
X174938774Y-58866066D01*
X174800881Y-59124046D01*
X174715967Y-59403969D01*
X174687295Y-59695080D01*
X174715967Y-59986191D01*
X174800881Y-60266114D01*
X174938774Y-60524094D01*
X175124346Y-60750214D01*
X175350466Y-60935786D01*
X175405271Y-60965080D01*
X175350466Y-60994374D01*
X175124346Y-61179946D01*
X174938774Y-61406066D01*
X174800881Y-61664046D01*
X174715967Y-61943969D01*
X174687295Y-62235080D01*
X174715967Y-62526191D01*
X174800881Y-62806114D01*
X174938774Y-63064094D01*
X175124346Y-63290214D01*
X175350466Y-63475786D01*
X175608446Y-63613679D01*
X175888369Y-63698593D01*
X176106530Y-63720080D01*
X176252430Y-63720080D01*
X176470591Y-63698593D01*
X176750514Y-63613679D01*
X177008494Y-63475786D01*
X177099160Y-63401378D01*
X182061823Y-63401378D01*
X182874920Y-64214475D01*
X183688017Y-63401378D01*
X183616434Y-63157409D01*
X183360924Y-63036509D01*
X183086736Y-62967780D01*
X182804408Y-62953863D01*
X182524790Y-62995293D01*
X182258628Y-63090477D01*
X182133406Y-63157409D01*
X182061823Y-63401378D01*
X177099160Y-63401378D01*
X177234614Y-63290214D01*
X177420186Y-63064094D01*
X177558079Y-62806114D01*
X177642993Y-62526191D01*
X177671665Y-62235080D01*
X177642993Y-61943969D01*
X177558079Y-61664046D01*
X177420186Y-61406066D01*
X177234614Y-61179946D01*
X177008494Y-60994374D01*
X176953689Y-60965080D01*
X177008494Y-60935786D01*
X177234614Y-60750214D01*
X177420186Y-60524094D01*
X177558079Y-60266114D01*
X177642993Y-59986191D01*
X177671665Y-59695080D01*
X177642993Y-59403969D01*
X177558079Y-59124046D01*
X177420186Y-58866066D01*
X177234614Y-58639946D01*
X177008494Y-58454374D01*
X176953689Y-58425080D01*
X177008494Y-58395786D01*
X177234614Y-58210214D01*
X177420186Y-57984094D01*
X177558079Y-57726114D01*
X177642993Y-57446191D01*
X177671665Y-57155080D01*
X177642993Y-56863969D01*
X177558079Y-56584046D01*
X177420186Y-56326066D01*
X177234614Y-56099946D01*
X177008494Y-55914374D01*
X176953689Y-55885080D01*
X177008494Y-55855786D01*
X177234614Y-55670214D01*
X177420186Y-55444094D01*
X177558079Y-55186114D01*
X177642993Y-54906191D01*
X177671665Y-54615080D01*
X177642993Y-54323969D01*
X177558079Y-54044046D01*
X177420186Y-53786066D01*
X177234614Y-53559946D01*
X177008494Y-53374374D01*
X176953689Y-53345080D01*
X177008494Y-53315786D01*
X177234614Y-53130214D01*
X177420186Y-52904094D01*
X177558079Y-52646114D01*
X177642993Y-52366191D01*
X177671665Y-52075080D01*
X177642993Y-51783969D01*
X177558079Y-51504046D01*
X177420186Y-51246066D01*
X177234614Y-51019946D01*
X177204793Y-50995473D01*
X177273660Y-50974582D01*
X177383974Y-50915617D01*
X177480665Y-50836265D01*
X177560017Y-50739574D01*
X177618982Y-50629260D01*
X177655292Y-50509562D01*
X177667552Y-50385080D01*
X177667552Y-49094250D01*
X183986311Y-49094250D01*
X183986310Y-58476074D01*
X183986310Y-58476074D01*
G37*
X183986310Y-58476074D02*
X183789679Y-58279443D01*
X183554647Y-58122400D01*
X183293494Y-58014227D01*
X183016255Y-57959080D01*
X182733585Y-57959080D01*
X182456346Y-58014227D01*
X182195193Y-58122400D01*
X181960161Y-58279443D01*
X181760283Y-58479321D01*
X181603240Y-58714353D01*
X181495067Y-58975506D01*
X181439920Y-59252745D01*
X181439920Y-59535415D01*
X181495067Y-59812654D01*
X181603240Y-60073807D01*
X181760283Y-60308839D01*
X181960161Y-60508717D01*
X182195193Y-60665760D01*
X182456346Y-60773933D01*
X182733585Y-60829080D01*
X183016255Y-60829080D01*
X183293494Y-60773933D01*
X183554647Y-60665760D01*
X183789679Y-60508717D01*
X183989557Y-60308839D01*
X184038994Y-60234852D01*
X184067634Y-60329266D01*
X184173026Y-60526443D01*
X184314861Y-60699269D01*
X184358174Y-60734815D01*
X185076228Y-61452870D01*
X185111771Y-61496179D01*
X185215419Y-61581241D01*
X185205064Y-61615377D01*
X185180053Y-61869320D01*
X185205064Y-62123263D01*
X185279137Y-62367446D01*
X185399423Y-62592487D01*
X185561302Y-62789738D01*
X185758553Y-62951617D01*
X185983594Y-63071903D01*
X186214097Y-63141826D01*
X186104440Y-63163587D01*
X185868659Y-63261127D01*
X185656437Y-63402791D01*
X185475931Y-63583136D01*
X185334076Y-63795231D01*
X185236325Y-64030925D01*
X185228300Y-64082215D01*
X185352187Y-64282320D01*
X187015120Y-64282320D01*
X187015120Y-64262320D01*
X187269120Y-64262320D01*
X187269120Y-64282320D01*
X187289120Y-64282320D01*
X187289120Y-64536320D01*
X187269120Y-64536320D01*
X187269120Y-64556320D01*
X187015120Y-64556320D01*
X187015120Y-64536320D01*
X185352187Y-64536320D01*
X185228300Y-64736425D01*
X185236325Y-64787715D01*
X185334076Y-65023409D01*
X185475931Y-65235504D01*
X185656437Y-65415849D01*
X185868659Y-65557513D01*
X186104440Y-65655053D01*
X186214097Y-65676814D01*
X185983594Y-65746737D01*
X185758553Y-65867023D01*
X185561302Y-66028902D01*
X185532235Y-66064320D01*
X185298261Y-66064320D01*
X184282977Y-65049037D01*
X184255260Y-65015264D01*
X184192787Y-64963994D01*
X184232491Y-64880084D01*
X184301220Y-64605896D01*
X184315137Y-64323568D01*
X184273707Y-64043950D01*
X184178523Y-63777788D01*
X184111591Y-63652566D01*
X183867622Y-63580983D01*
X183054525Y-64394080D01*
X183068668Y-64408223D01*
X182889063Y-64587828D01*
X182874920Y-64573685D01*
X182860778Y-64587828D01*
X182681173Y-64408223D01*
X182695315Y-64394080D01*
X181882218Y-63580983D01*
X181638249Y-63652566D01*
X181517349Y-63908076D01*
X181448620Y-64182264D01*
X181434703Y-64464592D01*
X181476133Y-64744210D01*
X181481451Y-64759081D01*
X176569900Y-64759081D01*
X169590096Y-57779278D01*
X169590091Y-57779272D01*
X169568560Y-57757741D01*
X169568560Y-57487909D01*
X169515335Y-57220331D01*
X169410931Y-56968277D01*
X169259359Y-56741434D01*
X169066446Y-56548521D01*
X168857861Y-56409149D01*
X170612809Y-54654201D01*
X172385606Y-54654201D01*
X172441357Y-54659692D01*
X172497108Y-54654201D01*
X172497109Y-54654201D01*
X172663856Y-54637778D01*
X172877804Y-54572877D01*
X173074980Y-54467485D01*
X173247806Y-54325650D01*
X173283353Y-54282336D01*
X174842226Y-52723464D01*
X174938774Y-52904094D01*
X175124346Y-53130214D01*
X175350466Y-53315786D01*
X175405271Y-53345080D01*
X175350466Y-53374374D01*
X175124346Y-53559946D01*
X174938774Y-53786066D01*
X174800881Y-54044046D01*
X174715967Y-54323969D01*
X174687295Y-54615080D01*
X174715967Y-54906191D01*
X174800881Y-55186114D01*
X174938774Y-55444094D01*
X175124346Y-55670214D01*
X175350466Y-55855786D01*
X175405271Y-55885080D01*
X175350466Y-55914374D01*
X175124346Y-56099946D01*
X174938774Y-56326066D01*
X174800881Y-56584046D01*
X174715967Y-56863969D01*
X174687295Y-57155080D01*
X174715967Y-57446191D01*
X174800881Y-57726114D01*
X174938774Y-57984094D01*
X175124346Y-58210214D01*
X175350466Y-58395786D01*
X175405271Y-58425080D01*
X175350466Y-58454374D01*
X175124346Y-58639946D01*
X174938774Y-58866066D01*
X174800881Y-59124046D01*
X174715967Y-59403969D01*
X174687295Y-59695080D01*
X174715967Y-59986191D01*
X174800881Y-60266114D01*
X174938774Y-60524094D01*
X175124346Y-60750214D01*
X175350466Y-60935786D01*
X175405271Y-60965080D01*
X175350466Y-60994374D01*
X175124346Y-61179946D01*
X174938774Y-61406066D01*
X174800881Y-61664046D01*
X174715967Y-61943969D01*
X174687295Y-62235080D01*
X174715967Y-62526191D01*
X174800881Y-62806114D01*
X174938774Y-63064094D01*
X175124346Y-63290214D01*
X175350466Y-63475786D01*
X175608446Y-63613679D01*
X175888369Y-63698593D01*
X176106530Y-63720080D01*
X176252430Y-63720080D01*
X176470591Y-63698593D01*
X176750514Y-63613679D01*
X177008494Y-63475786D01*
X177099160Y-63401378D01*
X182061823Y-63401378D01*
X182874920Y-64214475D01*
X183688017Y-63401378D01*
X183616434Y-63157409D01*
X183360924Y-63036509D01*
X183086736Y-62967780D01*
X182804408Y-62953863D01*
X182524790Y-62995293D01*
X182258628Y-63090477D01*
X182133406Y-63157409D01*
X182061823Y-63401378D01*
X177099160Y-63401378D01*
X177234614Y-63290214D01*
X177420186Y-63064094D01*
X177558079Y-62806114D01*
X177642993Y-62526191D01*
X177671665Y-62235080D01*
X177642993Y-61943969D01*
X177558079Y-61664046D01*
X177420186Y-61406066D01*
X177234614Y-61179946D01*
X177008494Y-60994374D01*
X176953689Y-60965080D01*
X177008494Y-60935786D01*
X177234614Y-60750214D01*
X177420186Y-60524094D01*
X177558079Y-60266114D01*
X177642993Y-59986191D01*
X177671665Y-59695080D01*
X177642993Y-59403969D01*
X177558079Y-59124046D01*
X177420186Y-58866066D01*
X177234614Y-58639946D01*
X177008494Y-58454374D01*
X176953689Y-58425080D01*
X177008494Y-58395786D01*
X177234614Y-58210214D01*
X177420186Y-57984094D01*
X177558079Y-57726114D01*
X177642993Y-57446191D01*
X177671665Y-57155080D01*
X177642993Y-56863969D01*
X177558079Y-56584046D01*
X177420186Y-56326066D01*
X177234614Y-56099946D01*
X177008494Y-55914374D01*
X176953689Y-55885080D01*
X177008494Y-55855786D01*
X177234614Y-55670214D01*
X177420186Y-55444094D01*
X177558079Y-55186114D01*
X177642993Y-54906191D01*
X177671665Y-54615080D01*
X177642993Y-54323969D01*
X177558079Y-54044046D01*
X177420186Y-53786066D01*
X177234614Y-53559946D01*
X177008494Y-53374374D01*
X176953689Y-53345080D01*
X177008494Y-53315786D01*
X177234614Y-53130214D01*
X177420186Y-52904094D01*
X177558079Y-52646114D01*
X177642993Y-52366191D01*
X177671665Y-52075080D01*
X177642993Y-51783969D01*
X177558079Y-51504046D01*
X177420186Y-51246066D01*
X177234614Y-51019946D01*
X177204793Y-50995473D01*
X177273660Y-50974582D01*
X177383974Y-50915617D01*
X177480665Y-50836265D01*
X177560017Y-50739574D01*
X177618982Y-50629260D01*
X177655292Y-50509562D01*
X177667552Y-50385080D01*
X177667552Y-49094250D01*
X183986311Y-49094250D01*
X183986310Y-58476074D01*
G36*
X204845447Y-61532489D02*
G01*
X204816775Y-61823600D01*
X204845447Y-62114711D01*
X204930361Y-62394634D01*
X204990268Y-62506712D01*
X204142343Y-63354636D01*
X204092511Y-63261406D01*
X203848542Y-63189823D01*
X203035445Y-64002920D01*
X203049588Y-64017063D01*
X202869983Y-64196668D01*
X202855840Y-64182525D01*
X202841698Y-64196668D01*
X202662093Y-64017063D01*
X202676235Y-64002920D01*
X202662093Y-63988778D01*
X202841698Y-63809173D01*
X202855840Y-63823315D01*
X203668937Y-63010218D01*
X203597354Y-62766249D01*
X203527256Y-62733081D01*
X204896654Y-61363683D01*
X204845447Y-61532489D01*
X204845447Y-61532489D01*
G37*
X204845447Y-61532489D02*
X204816775Y-61823600D01*
X204845447Y-62114711D01*
X204930361Y-62394634D01*
X204990268Y-62506712D01*
X204142343Y-63354636D01*
X204092511Y-63261406D01*
X203848542Y-63189823D01*
X203035445Y-64002920D01*
X203049588Y-64017063D01*
X202869983Y-64196668D01*
X202855840Y-64182525D01*
X202841698Y-64196668D01*
X202662093Y-64017063D01*
X202676235Y-64002920D01*
X202662093Y-63988778D01*
X202841698Y-63809173D01*
X202855840Y-63823315D01*
X203668937Y-63010218D01*
X203597354Y-62766249D01*
X203527256Y-62733081D01*
X204896654Y-61363683D01*
X204845447Y-61532489D01*
G36*
X194889120Y-61742320D02*
G01*
X194909120Y-61742320D01*
X194909120Y-61996320D01*
X194889120Y-61996320D01*
X194889120Y-62016320D01*
X194635120Y-62016320D01*
X194635120Y-61996320D01*
X194615120Y-61996320D01*
X194615120Y-61742320D01*
X194635120Y-61742320D01*
X194635120Y-61722320D01*
X194889120Y-61722320D01*
X194889120Y-61742320D01*
X194889120Y-61742320D01*
G37*
X194889120Y-61742320D02*
X194909120Y-61742320D01*
X194909120Y-61996320D01*
X194889120Y-61996320D01*
X194889120Y-62016320D01*
X194635120Y-62016320D01*
X194635120Y-61996320D01*
X194615120Y-61996320D01*
X194615120Y-61742320D01*
X194635120Y-61742320D01*
X194635120Y-61722320D01*
X194889120Y-61722320D01*
X194889120Y-61742320D01*
M02*
