<?xml version="1.0" standalone="no"?>
 <!DOCTYPE svg PUBLIC "-//W3C//DTD SVG 1.1//EN" 
 "http://www.w3.org/Graphics/SVG/1.1/DTD/svg11.dtd"> 
<svg xmlns="http://www.w3.org/2000/svg" version="1.1" 
    width="29.7002cm" height="21.0007cm" viewBox="0 0 116930 82680 ">
<title>SVG Picture created as ADClock-brd.svg date 2019/05/12 04:07:54 </title>
  <desc>Picture generated by PCBNEW </desc>
<g style="fill:#000000; fill-opacity:1;stroke:#000000; stroke-opacity:1;
stroke-linecap:round; stroke-linejoin:round; "
 transform="translate(0 0) scale(1 1)">
</g>
<g style="fill:#000000; fill-opacity:0.0; 
stroke:#000000; stroke-width:-0.000393701; stroke-opacity:1; 
stroke-linecap:round; stroke-linejoin:round;">
</g>
<g style="fill:#000000; fill-opacity:0.0; 
stroke:#000000; stroke-width:39.3701; stroke-opacity:1; 
stroke-linecap:round; stroke-linejoin:round;">
</g>
<g style="fill:#000000; fill-opacity:0.0; 
stroke:#000000; stroke-width:59.0551; stroke-opacity:1; 
stroke-linecap:round; stroke-linejoin:round;">
<rect x="69685.9" y="65357.2" width="42519.7" height="12598.4" rx="0" />
</g>
<g style="fill:#000000; fill-opacity:0.0; 
stroke:#000000; stroke-width:39.3701; stroke-opacity:1; 
stroke-linecap:round; stroke-linejoin:round;">
</g>
<g style="fill:#000000; fill-opacity:0.0; 
stroke:#000000; stroke-width:59.0551; stroke-opacity:1; 
stroke-linecap:round; stroke-linejoin:round;">
<rect x="3937.01" y="3937.01" width="109056" height="74806" rx="0" />
</g>
<g style="fill:#000000; fill-opacity:0.0; 
stroke:#000000; stroke-width:39.3701; stroke-opacity:1; 
stroke-linecap:round; stroke-linejoin:round;">
</g>
<g style="fill:#000000; fill-opacity:0.0; 
stroke:#000000; stroke-width:59.0551; stroke-opacity:1; 
stroke-linecap:round; stroke-linejoin:round;">
<rect x="4724.41" y="4724.41" width="107481" height="73231.2" rx="0" />
</g>
<g style="fill:#000000; fill-opacity:0.0; 
stroke:#000000; stroke-width:39.3701; stroke-opacity:1; 
stroke-linecap:round; stroke-linejoin:round;">
</g>
<g style="fill:#000000; fill-opacity:0.0; 
stroke:#000000; stroke-width:59.0551; stroke-opacity:1; 
stroke-linecap:round; stroke-linejoin:round;">
<path d="M23622 4724
L23622 3937
" />
</g>
<g style="fill:#000000; fill-opacity:0.0; 
stroke:#000000; stroke-width:39.3701; stroke-opacity:1; 
stroke-linecap:round; stroke-linejoin:round;">
</g>
<g style="fill:#000000; fill-opacity:0.0; 
stroke:#000000; stroke-width:59.0551; stroke-opacity:1; 
stroke-linecap:round; stroke-linejoin:round;">
<path d="M43307 4724
L43307 3937
" />
</g>
<g style="fill:#000000; fill-opacity:0.0; 
stroke:#000000; stroke-width:39.3701; stroke-opacity:1; 
stroke-linecap:round; stroke-linejoin:round;">
</g>
<g style="fill:#000000; fill-opacity:0.0; 
stroke:#000000; stroke-width:59.0551; stroke-opacity:1; 
stroke-linecap:round; stroke-linejoin:round;">
<path d="M62992 4724
L62992 3937
" />
</g>
<g style="fill:#000000; fill-opacity:0.0; 
stroke:#000000; stroke-width:39.3701; stroke-opacity:1; 
stroke-linecap:round; stroke-linejoin:round;">
</g>
<g style="fill:#000000; fill-opacity:0.0; 
stroke:#000000; stroke-width:59.0551; stroke-opacity:1; 
stroke-linecap:round; stroke-linejoin:round;">
<path d="M82677 4724
L82677 3937
" />
</g>
<g style="fill:#000000; fill-opacity:0.0; 
stroke:#000000; stroke-width:39.3701; stroke-opacity:1; 
stroke-linecap:round; stroke-linejoin:round;">
</g>
<g style="fill:#000000; fill-opacity:0.0; 
stroke:#000000; stroke-width:59.0551; stroke-opacity:1; 
stroke-linecap:round; stroke-linejoin:round;">
<path d="M102362 4724
L102362 3937
" />
</g>
<g style="fill:#000000; fill-opacity:0.0; 
stroke:#000000; stroke-width:39.3701; stroke-opacity:1; 
stroke-linecap:round; stroke-linejoin:round;">
</g>
<g style="fill:#000000; fill-opacity:0.0; 
stroke:#000000; stroke-width:59.0551; stroke-opacity:1; 
stroke-linecap:round; stroke-linejoin:round;">
<path d="M14199 4562
L13906 4562
" />
<path d="M14052 4562
L14052 4050
L14004 4123
L13955 4172
L13906 4196
" />
</g>
<g style="fill:#000000; fill-opacity:0.0; 
stroke:#000000; stroke-width:39.3701; stroke-opacity:1; 
stroke-linecap:round; stroke-linejoin:round;">
</g>
<g style="fill:#000000; fill-opacity:0.0; 
stroke:#000000; stroke-width:59.0551; stroke-opacity:1; 
stroke-linecap:round; stroke-linejoin:round;">
<path d="M33591 4099
L33615 4074
L33664 4050
L33786 4050
L33835 4074
L33859 4099
L33884 4147
L33884 4196
L33859 4269
L33567 4562
L33884 4562
" />
</g>
<g style="fill:#000000; fill-opacity:0.0; 
stroke:#000000; stroke-width:39.3701; stroke-opacity:1; 
stroke-linecap:round; stroke-linejoin:round;">
</g>
<g style="fill:#000000; fill-opacity:0.0; 
stroke:#000000; stroke-width:59.0551; stroke-opacity:1; 
stroke-linecap:round; stroke-linejoin:round;">
<path d="M53252 4050
L53569 4050
L53398 4245
L53471 4245
L53520 4269
L53544 4294
L53569 4342
L53569 4464
L53544 4513
L53520 4537
L53471 4562
L53325 4562
L53276 4537
L53252 4513
" />
</g>
<g style="fill:#000000; fill-opacity:0.0; 
stroke:#000000; stroke-width:39.3701; stroke-opacity:1; 
stroke-linecap:round; stroke-linejoin:round;">
</g>
<g style="fill:#000000; fill-opacity:0.0; 
stroke:#000000; stroke-width:59.0551; stroke-opacity:1; 
stroke-linecap:round; stroke-linejoin:round;">
<path d="M73205 4221
L73205 4562
" />
<path d="M73083 4026
L72961 4391
L73278 4391
" />
</g>
<g style="fill:#000000; fill-opacity:0.0; 
stroke:#000000; stroke-width:39.3701; stroke-opacity:1; 
stroke-linecap:round; stroke-linejoin:round;">
</g>
<g style="fill:#000000; fill-opacity:0.0; 
stroke:#000000; stroke-width:59.0551; stroke-opacity:1; 
stroke-linecap:round; stroke-linejoin:round;">
<path d="M92914 4050
L92671 4050
L92646 4294
L92671 4269
L92719 4245
L92841 4245
L92890 4269
L92914 4294
L92939 4342
L92939 4464
L92914 4513
L92890 4537
L92841 4562
L92719 4562
L92671 4537
L92646 4513
" />
</g>
<g style="fill:#000000; fill-opacity:0.0; 
stroke:#000000; stroke-width:39.3701; stroke-opacity:1; 
stroke-linecap:round; stroke-linejoin:round;">
</g>
<g style="fill:#000000; fill-opacity:0.0; 
stroke:#000000; stroke-width:59.0551; stroke-opacity:1; 
stroke-linecap:round; stroke-linejoin:round;">
<path d="M112575 4050
L112477 4050
L112429 4074
L112404 4099
L112356 4172
L112331 4269
L112331 4464
L112356 4513
L112380 4537
L112429 4562
L112526 4562
L112575 4537
L112599 4513
L112624 4464
L112624 4342
L112599 4294
L112575 4269
L112526 4245
L112429 4245
L112380 4269
L112356 4294
L112331 4342
" />
</g>
<g style="fill:#000000; fill-opacity:0.0; 
stroke:#000000; stroke-width:39.3701; stroke-opacity:1; 
stroke-linecap:round; stroke-linejoin:round;">
</g>
<g style="fill:#000000; fill-opacity:0.0; 
stroke:#000000; stroke-width:59.0551; stroke-opacity:1; 
stroke-linecap:round; stroke-linejoin:round;">
<path d="M23622 77955
L23622 78742
" />
</g>
<g style="fill:#000000; fill-opacity:0.0; 
stroke:#000000; stroke-width:39.3701; stroke-opacity:1; 
stroke-linecap:round; stroke-linejoin:round;">
</g>
<g style="fill:#000000; fill-opacity:0.0; 
stroke:#000000; stroke-width:59.0551; stroke-opacity:1; 
stroke-linecap:round; stroke-linejoin:round;">
<path d="M43307 77955
L43307 78742
" />
</g>
<g style="fill:#000000; fill-opacity:0.0; 
stroke:#000000; stroke-width:39.3701; stroke-opacity:1; 
stroke-linecap:round; stroke-linejoin:round;">
</g>
<g style="fill:#000000; fill-opacity:0.0; 
stroke:#000000; stroke-width:59.0551; stroke-opacity:1; 
stroke-linecap:round; stroke-linejoin:round;">
<path d="M62992 77955
L62992 78742
" />
</g>
<g style="fill:#000000; fill-opacity:0.0; 
stroke:#000000; stroke-width:39.3701; stroke-opacity:1; 
stroke-linecap:round; stroke-linejoin:round;">
</g>
<g style="fill:#000000; fill-opacity:0.0; 
stroke:#000000; stroke-width:59.0551; stroke-opacity:1; 
stroke-linecap:round; stroke-linejoin:round;">
<path d="M82677 77955
L82677 78742
" />
</g>
<g style="fill:#000000; fill-opacity:0.0; 
stroke:#000000; stroke-width:39.3701; stroke-opacity:1; 
stroke-linecap:round; stroke-linejoin:round;">
</g>
<g style="fill:#000000; fill-opacity:0.0; 
stroke:#000000; stroke-width:59.0551; stroke-opacity:1; 
stroke-linecap:round; stroke-linejoin:round;">
<path d="M102362 77955
L102362 78742
" />
</g>
<g style="fill:#000000; fill-opacity:0.0; 
stroke:#000000; stroke-width:39.3701; stroke-opacity:1; 
stroke-linecap:round; stroke-linejoin:round;">
</g>
<g style="fill:#000000; fill-opacity:0.0; 
stroke:#000000; stroke-width:59.0551; stroke-opacity:1; 
stroke-linecap:round; stroke-linejoin:round;">
<path d="M14199 78580
L13906 78580
" />
<path d="M14052 78580
L14052 78069
L14004 78142
L13955 78190
L13906 78215
" />
</g>
<g style="fill:#000000; fill-opacity:0.0; 
stroke:#000000; stroke-width:39.3701; stroke-opacity:1; 
stroke-linecap:round; stroke-linejoin:round;">
</g>
<g style="fill:#000000; fill-opacity:0.0; 
stroke:#000000; stroke-width:59.0551; stroke-opacity:1; 
stroke-linecap:round; stroke-linejoin:round;">
<path d="M33591 78117
L33615 78093
L33664 78069
L33786 78069
L33835 78093
L33859 78117
L33884 78166
L33884 78215
L33859 78288
L33567 78580
L33884 78580
" />
</g>
<g style="fill:#000000; fill-opacity:0.0; 
stroke:#000000; stroke-width:39.3701; stroke-opacity:1; 
stroke-linecap:round; stroke-linejoin:round;">
</g>
<g style="fill:#000000; fill-opacity:0.0; 
stroke:#000000; stroke-width:59.0551; stroke-opacity:1; 
stroke-linecap:round; stroke-linejoin:round;">
<path d="M53252 78069
L53569 78069
L53398 78263
L53471 78263
L53520 78288
L53544 78312
L53569 78361
L53569 78483
L53544 78532
L53520 78556
L53471 78580
L53325 78580
L53276 78556
L53252 78532
" />
</g>
<g style="fill:#000000; fill-opacity:0.0; 
stroke:#000000; stroke-width:39.3701; stroke-opacity:1; 
stroke-linecap:round; stroke-linejoin:round;">
</g>
<g style="fill:#000000; fill-opacity:0.0; 
stroke:#000000; stroke-width:59.0551; stroke-opacity:1; 
stroke-linecap:round; stroke-linejoin:round;">
<path d="M73205 78239
L73205 78580
" />
<path d="M73083 78044
L72961 78410
L73278 78410
" />
</g>
<g style="fill:#000000; fill-opacity:0.0; 
stroke:#000000; stroke-width:39.3701; stroke-opacity:1; 
stroke-linecap:round; stroke-linejoin:round;">
</g>
<g style="fill:#000000; fill-opacity:0.0; 
stroke:#000000; stroke-width:59.0551; stroke-opacity:1; 
stroke-linecap:round; stroke-linejoin:round;">
<path d="M92914 78069
L92671 78069
L92646 78312
L92671 78288
L92719 78263
L92841 78263
L92890 78288
L92914 78312
L92939 78361
L92939 78483
L92914 78532
L92890 78556
L92841 78580
L92719 78580
L92671 78556
L92646 78532
" />
</g>
<g style="fill:#000000; fill-opacity:0.0; 
stroke:#000000; stroke-width:39.3701; stroke-opacity:1; 
stroke-linecap:round; stroke-linejoin:round;">
</g>
<g style="fill:#000000; fill-opacity:0.0; 
stroke:#000000; stroke-width:59.0551; stroke-opacity:1; 
stroke-linecap:round; stroke-linejoin:round;">
<path d="M112575 78069
L112477 78069
L112429 78093
L112404 78117
L112356 78190
L112331 78288
L112331 78483
L112356 78532
L112380 78556
L112429 78580
L112526 78580
L112575 78556
L112599 78532
L112624 78483
L112624 78361
L112599 78312
L112575 78288
L112526 78263
L112429 78263
L112380 78288
L112356 78312
L112331 78361
" />
</g>
<g style="fill:#000000; fill-opacity:0.0; 
stroke:#000000; stroke-width:39.3701; stroke-opacity:1; 
stroke-linecap:round; stroke-linejoin:round;">
</g>
<g style="fill:#000000; fill-opacity:0.0; 
stroke:#000000; stroke-width:59.0551; stroke-opacity:1; 
stroke-linecap:round; stroke-linejoin:round;">
<path d="M3937 23622
L4724 23622
" />
</g>
<g style="fill:#000000; fill-opacity:0.0; 
stroke:#000000; stroke-width:39.3701; stroke-opacity:1; 
stroke-linecap:round; stroke-linejoin:round;">
</g>
<g style="fill:#000000; fill-opacity:0.0; 
stroke:#000000; stroke-width:59.0551; stroke-opacity:1; 
stroke-linecap:round; stroke-linejoin:round;">
<path d="M3937 43307
L4724 43307
" />
</g>
<g style="fill:#000000; fill-opacity:0.0; 
stroke:#000000; stroke-width:39.3701; stroke-opacity:1; 
stroke-linecap:round; stroke-linejoin:round;">
</g>
<g style="fill:#000000; fill-opacity:0.0; 
stroke:#000000; stroke-width:59.0551; stroke-opacity:1; 
stroke-linecap:round; stroke-linejoin:round;">
<path d="M3937 62992
L4724 62992
" />
</g>
<g style="fill:#000000; fill-opacity:0.0; 
stroke:#000000; stroke-width:39.3701; stroke-opacity:1; 
stroke-linecap:round; stroke-linejoin:round;">
</g>
<g style="fill:#000000; fill-opacity:0.0; 
stroke:#000000; stroke-width:59.0551; stroke-opacity:1; 
stroke-linecap:round; stroke-linejoin:round;">
<path d="M4208 13864
L4452 13864
" />
<path d="M4160 14011
L4330 13499
L4501 14011
" />
</g>
<g style="fill:#000000; fill-opacity:0.0; 
stroke:#000000; stroke-width:39.3701; stroke-opacity:1; 
stroke-linecap:round; stroke-linejoin:round;">
</g>
<g style="fill:#000000; fill-opacity:0.0; 
stroke:#000000; stroke-width:59.0551; stroke-opacity:1; 
stroke-linecap:round; stroke-linejoin:round;">
<path d="M4367 33428
L4440 33452
L4464 33476
L4489 33525
L4489 33598
L4464 33647
L4440 33671
L4391 33696
L4196 33696
L4196 33184
L4367 33184
L4416 33208
L4440 33233
L4464 33281
L4464 33330
L4440 33379
L4416 33403
L4367 33428
L4196 33428
" />
</g>
<g style="fill:#000000; fill-opacity:0.0; 
stroke:#000000; stroke-width:39.3701; stroke-opacity:1; 
stroke-linecap:round; stroke-linejoin:round;">
</g>
<g style="fill:#000000; fill-opacity:0.0; 
stroke:#000000; stroke-width:59.0551; stroke-opacity:1; 
stroke-linecap:round; stroke-linejoin:round;">
<path d="M4489 53332
L4464 53356
L4391 53381
L4342 53381
L4269 53356
L4221 53308
L4196 53259
L4172 53161
L4172 53088
L4196 52991
L4221 52942
L4269 52893
L4342 52869
L4391 52869
L4464 52893
L4489 52918
" />
</g>
<g style="fill:#000000; fill-opacity:0.0; 
stroke:#000000; stroke-width:39.3701; stroke-opacity:1; 
stroke-linecap:round; stroke-linejoin:round;">
</g>
<g style="fill:#000000; fill-opacity:0.0; 
stroke:#000000; stroke-width:59.0551; stroke-opacity:1; 
stroke-linecap:round; stroke-linejoin:round;">
<path d="M4196 73066
L4196 72554
L4318 72554
L4391 72578
L4440 72627
L4464 72676
L4489 72773
L4489 72846
L4464 72944
L4440 72993
L4391 73041
L4318 73066
L4196 73066
" />
</g>
<g style="fill:#000000; fill-opacity:0.0; 
stroke:#000000; stroke-width:39.3701; stroke-opacity:1; 
stroke-linecap:round; stroke-linejoin:round;">
</g>
<g style="fill:#000000; fill-opacity:0.0; 
stroke:#000000; stroke-width:59.0551; stroke-opacity:1; 
stroke-linecap:round; stroke-linejoin:round;">
<path d="M112992 23622
L112205 23622
" />
</g>
<g style="fill:#000000; fill-opacity:0.0; 
stroke:#000000; stroke-width:39.3701; stroke-opacity:1; 
stroke-linecap:round; stroke-linejoin:round;">
</g>
<g style="fill:#000000; fill-opacity:0.0; 
stroke:#000000; stroke-width:59.0551; stroke-opacity:1; 
stroke-linecap:round; stroke-linejoin:round;">
<path d="M112992 43307
L112205 43307
" />
</g>
<g style="fill:#000000; fill-opacity:0.0; 
stroke:#000000; stroke-width:39.3701; stroke-opacity:1; 
stroke-linecap:round; stroke-linejoin:round;">
</g>
<g style="fill:#000000; fill-opacity:0.0; 
stroke:#000000; stroke-width:59.0551; stroke-opacity:1; 
stroke-linecap:round; stroke-linejoin:round;">
<path d="M112992 62992
L112205 62992
" />
</g>
<g style="fill:#000000; fill-opacity:0.0; 
stroke:#000000; stroke-width:39.3701; stroke-opacity:1; 
stroke-linecap:round; stroke-linejoin:round;">
</g>
<g style="fill:#000000; fill-opacity:0.0; 
stroke:#000000; stroke-width:59.0551; stroke-opacity:1; 
stroke-linecap:round; stroke-linejoin:round;">
<path d="M112477 13864
L112721 13864
" />
<path d="M112428 14011
L112599 13499
L112769 14011
" />
</g>
<g style="fill:#000000; fill-opacity:0.0; 
stroke:#000000; stroke-width:39.3701; stroke-opacity:1; 
stroke-linecap:round; stroke-linejoin:round;">
</g>
<g style="fill:#000000; fill-opacity:0.0; 
stroke:#000000; stroke-width:59.0551; stroke-opacity:1; 
stroke-linecap:round; stroke-linejoin:round;">
<path d="M112635 33428
L112708 33452
L112733 33476
L112757 33525
L112757 33598
L112733 33647
L112708 33671
L112660 33696
L112465 33696
L112465 33184
L112635 33184
L112684 33208
L112708 33233
L112733 33281
L112733 33330
L112708 33379
L112684 33403
L112635 33428
L112465 33428
" />
</g>
<g style="fill:#000000; fill-opacity:0.0; 
stroke:#000000; stroke-width:39.3701; stroke-opacity:1; 
stroke-linecap:round; stroke-linejoin:round;">
</g>
<g style="fill:#000000; fill-opacity:0.0; 
stroke:#000000; stroke-width:59.0551; stroke-opacity:1; 
stroke-linecap:round; stroke-linejoin:round;">
<path d="M112757 53332
L112733 53356
L112660 53381
L112611 53381
L112538 53356
L112489 53308
L112465 53259
L112440 53161
L112440 53088
L112465 52991
L112489 52942
L112538 52893
L112611 52869
L112660 52869
L112733 52893
L112757 52918
" />
</g>
<g style="fill:#000000; fill-opacity:0.0; 
stroke:#000000; stroke-width:39.3701; stroke-opacity:1; 
stroke-linecap:round; stroke-linejoin:round;">
</g>
<g style="fill:#000000; fill-opacity:0.0; 
stroke:#000000; stroke-width:59.0551; stroke-opacity:1; 
stroke-linecap:round; stroke-linejoin:round;">
<path d="M112465 73066
L112465 72554
L112587 72554
L112660 72578
L112708 72627
L112733 72676
L112757 72773
L112757 72846
L112733 72944
L112708 72993
L112660 73041
L112587 73066
L112465 73066
" />
</g>
<g style="fill:#000000; fill-opacity:0.0; 
stroke:#000000; stroke-width:39.3701; stroke-opacity:1; 
stroke-linecap:round; stroke-linejoin:round;">
</g>
<g style="fill:#000000; fill-opacity:0.0; 
stroke:#000000; stroke-width:59.0551; stroke-opacity:1; 
stroke-linecap:round; stroke-linejoin:round;">
<path d="M78911 76293
L78911 75703
L79051 75703
L79136 75731
L79192 75787
L79220 75843
L79248 75956
L79248 76040
L79220 76153
L79192 76209
L79136 76265
L79051 76293
L78911 76293
" />
<path d="M79754 76293
L79754 75984
L79726 75928
L79670 75899
L79557 75899
L79501 75928
" />
<path d="M79754 76265
L79698 76293
L79557 76293
L79501 76265
L79473 76209
L79473 76153
L79501 76096
L79557 76068
L79698 76068
L79754 76040
" />
<path d="M79951 75899
L80176 75899
" />
<path d="M80036 75703
L80036 76209
L80064 76265
L80120 76293
L80176 76293
" />
<path d="M80598 76265
L80542 76293
L80429 76293
L80373 76265
L80345 76209
L80345 75984
L80373 75928
L80429 75899
L80542 75899
L80598 75928
L80626 75984
L80626 76040
L80345 76096
" />
<path d="M80879 76237
L80907 76265
L80879 76293
L80851 76265
L80879 76237
L80879 76293
" />
<path d="M80879 75928
L80907 75956
L80879 75984
L80851 75956
L80879 75928
L80879 75984
" />
</g>
<g style="fill:#000000; fill-opacity:0.0; 
stroke:#000000; stroke-width:39.3701; stroke-opacity:1; 
stroke-linecap:round; stroke-linejoin:round;">
</g>
<g style="fill:#000000; fill-opacity:0.0; 
stroke:#000000; stroke-width:59.0551; stroke-opacity:1; 
stroke-linecap:round; stroke-linejoin:round;">
<path d="M69685 76577
L112205 76577
" />
</g>
<g style="fill:#000000; fill-opacity:0.0; 
stroke:#000000; stroke-width:39.3701; stroke-opacity:1; 
stroke-linecap:round; stroke-linejoin:round;">
</g>
<g style="fill:#000000; fill-opacity:0.0; 
stroke:#000000; stroke-width:59.0551; stroke-opacity:1; 
stroke-linecap:round; stroke-linejoin:round;">
<path d="M70249 77395
L70249 76805
" />
<path d="M70587 77395
L70334 77058
" />
<path d="M70587 76805
L70249 77142
" />
<path d="M70840 77395
L70840 77002
" />
<path d="M70840 76805
L70812 76833
L70840 76861
L70868 76833
L70840 76805
L70840 76861
" />
<path d="M71458 77339
L71430 77367
L71346 77395
L71290 77395
L71205 77367
L71149 77311
L71121 77255
L71093 77142
L71093 77058
L71121 76946
L71149 76889
L71205 76833
L71290 76805
L71346 76805
L71430 76833
L71458 76861
" />
<path d="M71965 77395
L71965 77086
L71937 77030
L71880 77002
L71768 77002
L71712 77030
" />
<path d="M71965 77367
L71908 77395
L71768 77395
L71712 77367
L71683 77311
L71683 77255
L71712 77199
L71768 77171
L71908 77171
L71965 77142
" />
<path d="M72499 77395
L72499 76805
" />
<path d="M72499 77367
L72443 77395
L72330 77395
L72274 77367
L72246 77339
L72218 77283
L72218 77114
L72246 77058
L72274 77030
L72330 77002
L72443 77002
L72499 77030
" />
<path d="M73230 77086
L73427 77086
" />
<path d="M73511 77395
L73230 77395
L73230 76805
L73511 76805
" />
<path d="M73764 77339
L73793 77367
L73764 77395
L73736 77367
L73764 77339
L73764 77395
" />
<path d="M74046 77395
L74046 76805
L74186 76805
L74271 76833
L74327 76889
L74355 76946
L74383 77058
L74383 77142
L74355 77255
L74327 77311
L74271 77367
L74186 77395
L74046 77395
" />
<path d="M74636 77339
L74664 77367
L74636 77395
L74608 77367
L74636 77339
L74636 77395
" />
<path d="M74889 77227
L75171 77227
" />
<path d="M74833 77395
L75030 76805
L75227 77395
" />
<path d="M75424 77339
L75452 77367
L75424 77395
L75395 77367
L75424 77339
L75424 77395
" />
<path d="M76605 77395
L76605 76805
" />
<path d="M76661 77171
L76830 77395
" />
<path d="M76830 77002
L76605 77227
" />
<path d="M77083 77395
L77083 77002
" />
<path d="M77083 76805
L77055 76833
L77083 76861
L77111 76833
L77083 76805
L77083 76861
" />
<path d="M77617 77367
L77561 77395
L77448 77395
L77392 77367
L77364 77339
L77336 77283
L77336 77114
L77364 77058
L77392 77030
L77448 77002
L77561 77002
L77617 77030
" />
<path d="M78123 77395
L78123 77086
L78095 77030
L78039 77002
L77926 77002
L77870 77030
" />
<path d="M78123 77367
L78067 77395
L77926 77395
L77870 77367
L77842 77311
L77842 77255
L77870 77199
L77926 77171
L78067 77171
L78123 77142
" />
<path d="M78658 77395
L78658 76805
" />
<path d="M78658 77367
L78601 77395
L78489 77395
L78433 77367
L78404 77339
L78376 77283
L78376 77114
L78404 77058
L78433 77030
L78489 77002
L78601 77002
L78658 77030
" />
<path d="M79557 77620
L79529 77592
L79473 77508
L79445 77452
L79417 77367
L79389 77227
L79389 77114
L79417 76974
L79445 76889
L79473 76833
L79529 76749
L79557 76721
" />
<path d="M80064 76805
L79782 76805
L79754 77086
L79782 77058
L79839 77030
L79979 77030
L80036 77058
L80064 77086
L80092 77142
L80092 77283
L80064 77339
L80036 77367
L79979 77395
L79839 77395
L79782 77367
L79754 77339
" />
<path d="M80345 77339
L80373 77367
L80345 77395
L80317 77367
L80345 77339
L80345 77395
" />
<path d="M80935 77395
L80598 77395
" />
<path d="M80767 77395
L80767 76805
L80710 76889
L80654 76946
L80598 76974
" />
<path d="M81188 77339
L81217 77367
L81188 77395
L81160 77367
L81188 77339
L81188 77395
" />
<path d="M81582 76805
L81638 76805
L81695 76833
L81723 76861
L81751 76917
L81779 77030
L81779 77171
L81751 77283
L81723 77339
L81695 77367
L81638 77395
L81582 77395
L81526 77367
L81498 77339
L81470 77283
L81442 77171
L81442 77030
L81470 76917
L81498 76861
L81526 76833
L81582 76805
" />
<path d="M81976 77620
L82004 77592
L82060 77508
L82088 77452
L82117 77367
L82145 77227
L82145 77114
L82117 76974
L82088 76889
L82060 76833
L82004 76749
L81976 76721
" />
<path d="M82426 77171
L82876 77171
" />
<path d="M83466 77395
L83129 77395
" />
<path d="M83298 77395
L83298 76805
L83241 76889
L83185 76946
L83129 76974
" />
</g>
<g style="fill:#000000; fill-opacity:0.0; 
stroke:#000000; stroke-width:39.3701; stroke-opacity:1; 
stroke-linecap:round; stroke-linejoin:round;">
</g>
<g style="fill:#000000; fill-opacity:0.0; 
stroke:#000000; stroke-width:59.0551; stroke-opacity:1; 
stroke-linecap:round; stroke-linejoin:round;">
<path d="M69685 75396
L112205 75396
" />
</g>
<g style="fill:#000000; fill-opacity:0.0; 
stroke:#000000; stroke-width:39.3701; stroke-opacity:1; 
stroke-linecap:round; stroke-linejoin:round;">
</g>
<g style="fill:#000000; fill-opacity:0.0; 
stroke:#000000; stroke-width:118.11; stroke-opacity:1; 
stroke-linecap:round; stroke-linejoin:round;">
<path d="M104099 76293
L103902 76012
" />
<path d="M103761 76293
L103761 75703
L103986 75703
L104042 75731
L104070 75759
L104099 75815
L104099 75899
L104070 75956
L104042 75984
L103986 76012
L103761 76012
" />
<path d="M104577 76265
L104520 76293
L104408 76293
L104352 76265
L104323 76209
L104323 75984
L104352 75928
L104408 75899
L104520 75899
L104577 75928
L104605 75984
L104605 76040
L104323 76096
" />
<path d="M104802 75899
L104942 76293
L105083 75899
" />
<path d="M105308 76237
L105336 76265
L105308 76293
L105280 76265
L105308 76237
L105308 76293
" />
<path d="M105308 75928
L105336 75956
L105308 75984
L105280 75956
L105308 75928
L105308 75984
" />
</g>
<g style="fill:#000000; fill-opacity:0.0; 
stroke:#000000; stroke-width:39.3701; stroke-opacity:1; 
stroke-linecap:round; stroke-linejoin:round;">
</g>
<g style="fill:#000000; fill-opacity:0.0; 
stroke:#000000; stroke-width:59.0551; stroke-opacity:1; 
stroke-linecap:round; stroke-linejoin:round;">
<path d="M70221 76265
L70305 76293
L70446 76293
L70502 76265
L70530 76237
L70559 76181
L70559 76124
L70530 76068
L70502 76040
L70446 76012
L70334 75984
L70277 75956
L70249 75928
L70221 75871
L70221 75815
L70249 75759
L70277 75731
L70334 75703
L70474 75703
L70559 75731
" />
<path d="M70812 76293
L70812 75899
" />
<path d="M70812 75703
L70784 75731
L70812 75759
L70840 75731
L70812 75703
L70812 75759
" />
<path d="M71037 75899
L71346 75899
L71037 76293
L71346 76293
" />
<path d="M71796 76265
L71740 76293
L71627 76293
L71571 76265
L71543 76209
L71543 75984
L71571 75928
L71627 75899
L71740 75899
L71796 75928
L71824 75984
L71824 76040
L71543 76096
" />
<path d="M72077 76237
L72105 76265
L72077 76293
L72049 76265
L72077 76237
L72077 76293
" />
<path d="M72077 75928
L72105 75956
L72077 75984
L72049 75956
L72077 75928
L72077 75984
" />
<path d="M72780 76124
L73061 76124
" />
<path d="M72724 76293
L72921 75703
L73118 76293
" />
<path d="M73568 75899
L73568 76293
" />
<path d="M73427 75674
L73286 76096
L73652 76096
" />
</g>
<g style="fill:#000000; fill-opacity:0.0; 
stroke:#000000; stroke-width:39.3701; stroke-opacity:1; 
stroke-linecap:round; stroke-linejoin:round;">
</g>
<g style="fill:#000000; fill-opacity:0.0; 
stroke:#000000; stroke-width:59.0551; stroke-opacity:1; 
stroke-linecap:round; stroke-linejoin:round;">
<path d="M103714 77395
L103714 76805
" />
<path d="M104248 77395
L104248 76805
" />
<path d="M104248 77367
L104192 77395
L104079 77395
L104023 77367
L103995 77339
L103967 77283
L103967 77114
L103995 77058
L104023 77030
L104079 77002
L104192 77002
L104248 77030
" />
<path d="M104529 77339
L104557 77367
L104529 77395
L104501 77367
L104529 77339
L104529 77395
" />
<path d="M104529 77030
L104557 77058
L104529 77086
L104501 77058
L104529 77030
L104529 77086
" />
<path d="M105570 77395
L105232 77395
" />
<path d="M105401 77395
L105401 76805
L105345 76889
L105289 76946
L105232 76974
" />
<path d="M106245 76777
L105739 77536
" />
<path d="M106751 77395
L106413 77395
" />
<path d="M106582 77395
L106582 76805
L106526 76889
L106470 76946
L106413 76974
" />
</g>
<g style="fill:#000000; fill-opacity:0.0; 
stroke:#000000; stroke-width:39.3701; stroke-opacity:1; 
stroke-linecap:round; stroke-linejoin:round;">
</g>
<g style="fill:#000000; fill-opacity:0.0; 
stroke:#000000; stroke-width:59.0551; stroke-opacity:1; 
stroke-linecap:round; stroke-linejoin:round;">
<path d="M69685 73821
L112205 73821
" />
</g>
<g style="fill:#000000; fill-opacity:0.0; 
stroke:#000000; stroke-width:39.3701; stroke-opacity:1; 
stroke-linecap:round; stroke-linejoin:round;">
</g>
<g style="fill:#000000; fill-opacity:0.0; 
stroke:#000000; stroke-width:157.48; stroke-opacity:1; 
stroke-linecap:round; stroke-linejoin:round;">
<path d="M70360 74099
L70810 74099
" />
<path d="M70486 74886
L70585 74099
" />
<path d="M70974 74886
L71039 74361
" />
<path d="M71072 74099
L71030 74136
L71063 74174
L71105 74136
L71072 74099
L71063 74174
" />
<path d="M71302 74361
L71602 74361
" />
<path d="M71447 74099
L71363 74774
L71391 74849
L71461 74886
L71536 74886
" />
<path d="M71911 74886
L71841 74849
L71813 74774
L71897 74099
" />
<path d="M72516 74849
L72436 74886
L72286 74886
L72216 74849
L72187 74774
L72225 74474
L72272 74399
L72352 74361
L72501 74361
L72572 74399
L72600 74474
L72591 74549
L72206 74624
" />
<path d="M72895 74811
L72928 74849
L72886 74886
L72853 74849
L72895 74811
L72886 74886
" />
<path d="M72947 74399
L72980 74436
L72937 74474
L72905 74436
L72947 74399
L72937 74474
" />
</g>
<g style="fill:#000000; fill-opacity:0.0; 
stroke:#000000; stroke-width:39.3701; stroke-opacity:1; 
stroke-linecap:round; stroke-linejoin:round;">
</g>
<g style="fill:#000000; fill-opacity:0.0; 
stroke:#000000; stroke-width:59.0551; stroke-opacity:1; 
stroke-linecap:round; stroke-linejoin:round;">
<path d="M70446 73070
L70249 73070
" />
<path d="M70249 73380
L70249 72789
L70530 72789
" />
<path d="M70755 73380
L70755 72986
" />
<path d="M70755 72789
L70727 72817
L70755 72845
L70784 72817
L70755 72789
L70755 72845
" />
<path d="M71121 73380
L71065 73352
L71037 73295
L71037 72789
" />
<path d="M71571 73352
L71515 73380
L71402 73380
L71346 73352
L71318 73295
L71318 73070
L71346 73014
L71402 72986
L71515 72986
L71571 73014
L71599 73070
L71599 73127
L71318 73183
" />
<path d="M71852 73323
L71880 73352
L71852 73380
L71824 73352
L71852 73323
L71852 73380
" />
<path d="M71852 73014
L71880 73042
L71852 73070
L71824 73042
L71852 73014
L71852 73070
" />
<path d="M72555 73211
L72836 73211
" />
<path d="M72499 73380
L72696 72789
L72893 73380
" />
<path d="M73090 73380
L73090 72789
L73230 72789
L73314 72817
L73371 72874
L73399 72930
L73427 73042
L73427 73127
L73399 73239
L73371 73295
L73314 73352
L73230 73380
L73090 73380
" />
<path d="M74018 73323
L73989 73352
L73905 73380
L73849 73380
L73764 73352
L73708 73295
L73680 73239
L73652 73127
L73652 73042
L73680 72930
L73708 72874
L73764 72817
L73849 72789
L73905 72789
L73989 72817
L74018 72845
" />
<path d="M74355 73380
L74299 73352
L74271 73295
L74271 72789
" />
<path d="M74664 73380
L74608 73352
L74580 73323
L74552 73267
L74552 73099
L74580 73042
L74608 73014
L74664 72986
L74749 72986
L74805 73014
L74833 73042
L74861 73099
L74861 73267
L74833 73323
L74805 73352
L74749 73380
L74664 73380
" />
<path d="M75367 73352
L75311 73380
L75199 73380
L75142 73352
L75114 73323
L75086 73267
L75086 73099
L75114 73042
L75142 73014
L75199 72986
L75311 72986
L75367 73014
" />
<path d="M75620 73380
L75620 72789
" />
<path d="M75677 73155
L75845 73380
" />
<path d="M75845 72986
L75620 73211
" />
<path d="M76099 73323
L76127 73352
L76099 73380
L76070 73352
L76099 73323
L76099 73380
" />
<path d="M76380 73380
L76380 72789
" />
<path d="M76436 73155
L76605 73380
" />
<path d="M76605 72986
L76380 73211
" />
<path d="M76858 73380
L76858 72986
" />
<path d="M76858 72789
L76830 72817
L76858 72845
L76886 72817
L76858 72789
L76858 72845
" />
<path d="M77392 73352
L77336 73380
L77223 73380
L77167 73352
L77139 73323
L77111 73267
L77111 73099
L77139 73042
L77167 73014
L77223 72986
L77336 72986
L77392 73014
" />
<path d="M77898 73380
L77898 73070
L77870 73014
L77814 72986
L77701 72986
L77645 73014
" />
<path d="M77898 73352
L77842 73380
L77701 73380
L77645 73352
L77617 73295
L77617 73239
L77645 73183
L77701 73155
L77842 73155
L77898 73127
" />
<path d="M78433 73380
L78433 72789
" />
<path d="M78433 73352
L78376 73380
L78264 73380
L78208 73352
L78180 73323
L78151 73267
L78151 73099
L78180 73042
L78208 73014
L78264 72986
L78376 72986
L78433 73014
" />
<path d="M78573 73436
L79023 73436
" />
<path d="M79164 72986
L79164 73577
" />
<path d="M79164 73014
L79220 72986
L79332 72986
L79389 73014
L79417 73042
L79445 73099
L79445 73267
L79417 73323
L79389 73352
L79332 73380
L79220 73380
L79164 73352
" />
<path d="M79951 73352
L79895 73380
L79782 73380
L79726 73352
L79698 73323
L79670 73267
L79670 73099
L79698 73042
L79726 73014
L79782 72986
L79895 72986
L79951 73014
" />
<path d="M80204 73380
L80204 72789
" />
<path d="M80204 73014
L80260 72986
L80373 72986
L80429 73014
L80457 73042
L80485 73099
L80485 73267
L80457 73323
L80429 73352
L80373 73380
L80260 73380
L80204 73352
" />
</g>
<g style="fill:#000000; fill-opacity:0.0; 
stroke:#000000; stroke-width:39.3701; stroke-opacity:1; 
stroke-linecap:round; stroke-linejoin:round;">
</g>
<g style="fill:#000000; fill-opacity:0.0; 
stroke:#000000; stroke-width:59.0551; stroke-opacity:1; 
stroke-linecap:round; stroke-linejoin:round;">
<path d="M69685 71459
L112205 71459
" />
</g>
<g style="fill:#000000; fill-opacity:0.0; 
stroke:#000000; stroke-width:39.3701; stroke-opacity:1; 
stroke-linecap:round; stroke-linejoin:round;">
</g>
<g style="fill:#000000; fill-opacity:0.0; 
stroke:#000000; stroke-width:59.0551; stroke-opacity:1; 
stroke-linecap:round; stroke-linejoin:round;">
<path d="M70221 72289
L70305 72317
L70446 72317
L70502 72289
L70530 72260
L70559 72204
L70559 72148
L70530 72092
L70502 72064
L70446 72036
L70334 72007
L70277 71979
L70249 71951
L70221 71895
L70221 71839
L70249 71782
L70277 71754
L70334 71726
L70474 71726
L70559 71754
" />
<path d="M70812 72317
L70812 71726
" />
<path d="M71065 72317
L71065 72007
L71037 71951
L70980 71923
L70896 71923
L70840 71951
L70812 71979
" />
<path d="M71571 72289
L71515 72317
L71402 72317
L71346 72289
L71318 72232
L71318 72007
L71346 71951
L71402 71923
L71515 71923
L71571 71951
L71599 72007
L71599 72064
L71318 72120
" />
<path d="M72077 72289
L72021 72317
L71908 72317
L71852 72289
L71824 72232
L71824 72007
L71852 71951
L71908 71923
L72021 71923
L72077 71951
L72105 72007
L72105 72064
L71824 72120
" />
<path d="M72274 71923
L72499 71923
" />
<path d="M72358 71726
L72358 72232
L72386 72289
L72443 72317
L72499 72317
" />
<path d="M72696 72260
L72724 72289
L72696 72317
L72668 72289
L72696 72260
L72696 72317
" />
<path d="M72696 71951
L72724 71979
L72696 72007
L72668 71979
L72696 71951
L72696 72007
" />
</g>
<g style="fill:#000000; fill-opacity:0.0; 
stroke:#000000; stroke-width:39.3701; stroke-opacity:1; 
stroke-linecap:round; stroke-linejoin:round;">
</g>
<g style="fill:#000000; fill-opacity:0.0; 
stroke:#000000; stroke-width:59.0551; stroke-opacity:1; 
stroke-linecap:round; stroke-linejoin:round;">
<path d="M77559 75396
L77559 76577
" />
</g>
<g style="fill:#000000; fill-opacity:0.0; 
stroke:#000000; stroke-width:39.3701; stroke-opacity:1; 
stroke-linecap:round; stroke-linejoin:round;">
</g>
<g style="fill:#000000; fill-opacity:0.0; 
stroke:#000000; stroke-width:59.0551; stroke-opacity:1; 
stroke-linecap:round; stroke-linejoin:round;">
<path d="M102756 75396
L102756 77955
" />
</g>
<g style="fill:#848400; fill-opacity:0.0; 
stroke:#848400; stroke-width:59.0551; stroke-opacity:1; 
stroke-linecap:round; stroke-linejoin:round;">
</g>
<g style="fill:#848400; fill-opacity:1.0; 
stroke:#848400; stroke-width:0; stroke-opacity:1; 
stroke-linecap:round; stroke-linejoin:round;">
<path style="fill:#848400; fill-opacity:1.0; 
stroke:#848400; stroke-width:0; stroke-opacity:1; 
stroke-linecap:round; stroke-linejoin:round;fill-rule:evenodd;"
d="M 37580,25108
37774,25147
38007,25243
38136,25329
38191,25366
38217,25383
38395,25562
38535,25771
38631,26002
38632,26004
38681,26251
38681,26504
38668,26571
38632,26751
38535,26984
38395,27193
38217,27372
38007,27512
37774,27608
37651,27633
37527,27657
37275,27657
37151,27633
37028,27608
36795,27512
36585,27372
36407,27193
36267,26984
36170,26751
36135,26571
36121,26504
36121,26251
36170,26004
36171,26002
36267,25771
36407,25562
36585,25383
36611,25366
36666,25329
36795,25243
37028,25147
37222,25108
37275,25098
37527,25098
37580,25108
Z" /> 
<path style="fill:#848400; fill-opacity:1.0; 
stroke:#848400; stroke-width:0; stroke-opacity:1; 
stroke-linecap:round; stroke-linejoin:round;fill-rule:evenodd;"
d="M 51286,26290
51494,26587
51494,26587
51259,26751
50912,26994
50912,26994
50673,26652
50505,26412
50505,26412
50954,26099
51087,26005
51087,26005
51286,26290
Z" /> 
<path style="fill:#848400; fill-opacity:1.0; 
stroke:#848400; stroke-width:0; stroke-opacity:1; 
stroke-linecap:round; stroke-linejoin:round;fill-rule:evenodd;"
d="M 44268,25383
44335,25397
44446,25443
44546,25509
44631,25594
44698,25695
44744,25806
44768,25924
44768,26044
44744,26162
44698,26273
44631,26373
44546,26458
44446,26525
44335,26571
44276,26583
44217,26594
44097,26594
44038,26583
43979,26571
43868,26525
43768,26458
43683,26373
43616,26273
43570,26162
43546,26044
43546,25924
43570,25806
43616,25695
43683,25594
43768,25509
43868,25443
43979,25397
44046,25383
44097,25373
44217,25373
44268,25383
Z" /> 
<path style="fill:#848400; fill-opacity:1.0; 
stroke:#848400; stroke-width:0; stroke-opacity:1; 
stroke-linecap:round; stroke-linejoin:round;fill-rule:evenodd;"
d="M 42268,25383
42335,25397
42446,25443
42546,25509
42631,25594
42698,25695
42744,25806
42768,25924
42768,26044
42744,26162
42698,26273
42631,26373
42546,26458
42446,26525
42335,26571
42276,26583
42217,26594
42097,26594
42038,26583
41979,26571
41868,26525
41768,26458
41683,26373
41616,26273
41570,26162
41546,26044
41546,25924
41570,25806
41616,25695
41683,25594
41768,25509
41868,25443
41979,25397
42046,25383
42097,25373
42217,25373
42268,25383
Z" /> 
<path style="fill:#848400; fill-opacity:1.0; 
stroke:#848400; stroke-width:0; stroke-opacity:1; 
stroke-linecap:round; stroke-linejoin:round;fill-rule:evenodd;"
d="M 40768,26594
39546,26594
39546,25373
40768,25373
40768,26594
Z" /> 
<path style="fill:#848400; fill-opacity:1.0; 
stroke:#848400; stroke-width:0; stroke-opacity:1; 
stroke-linecap:round; stroke-linejoin:round;fill-rule:evenodd;"
d="M 48484,25753
48524,25764
49039,25951
49076,25969
49120,26002
49157,26043
49185,26091
49204,26143
49211,26197
49208,26252
49195,26305
49195,26306
49185,26325
49171,26355
49138,26400
49097,26436
49049,26465
48997,26483
48964,26488
48943,26491
48943,26491
48887,26488
48847,26477
48333,26290
48296,26272
48251,26239
48215,26198
48187,26151
48168,26099
48160,26044
48163,25989
48177,25935
48177,25935
48189,25911
48201,25886
48234,25841
48275,25805
48323,25777
48375,25758
48411,25753
48429,25750
48429,25750
48484,25753
Z" /> 
<path style="fill:#848400; fill-opacity:1.0; 
stroke:#848400; stroke-width:0; stroke-opacity:1; 
stroke-linecap:round; stroke-linejoin:round;fill-rule:evenodd;"
d="M 51862,25574
51888,25576
51955,25597
52017,25630
52031,25641
52071,25674
52098,25707
52115,25728
52115,25728
52138,25771
52148,25790
52168,25856
52175,25926
52168,25995
52148,26062
52115,26124
52103,26138
52071,26178
52031,26211
52017,26222
52017,26222
51961,26252
51955,26255
51888,26276
51862,26278
51836,26281
51801,26281
51775,26278
51749,26276
51682,26255
51677,26252
51621,26222
51621,26222
51607,26211
51567,26178
51534,26138
51522,26124
51489,26062
51469,25995
51462,25926
51469,25856
51489,25790
51499,25771
51522,25728
51522,25728
51539,25707
51567,25674
51607,25641
51621,25630
51682,25597
51749,25576
51775,25574
51801,25571
51836,25571
51862,25574
Z" /> 
<path style="fill:#848400; fill-opacity:1.0; 
stroke:#848400; stroke-width:0; stroke-opacity:1; 
stroke-linecap:round; stroke-linejoin:round;fill-rule:evenodd;"
d="M 52681,25000
52707,25003
52774,25023
52836,25056
52843,25062
52890,25100
52917,25133
52934,25154
52967,25216
52987,25283
52994,25352
52987,25422
52967,25489
52934,25550
52925,25562
52890,25604
52859,25630
52836,25649
52774,25682
52707,25702
52681,25705
52655,25707
52620,25707
52594,25705
52568,25702
52501,25682
52440,25649
52416,25630
52386,25604
52351,25562
52341,25550
52308,25489
52288,25422
52281,25352
52288,25283
52308,25216
52341,25154
52359,25133
52386,25100
52432,25062
52440,25056
52501,25023
52568,25003
52594,25000
52620,24998
52655,24998
52681,25000
Z" /> 
<path style="fill:#848400; fill-opacity:1.0; 
stroke:#848400; stroke-width:0; stroke-opacity:1; 
stroke-linecap:round; stroke-linejoin:round;fill-rule:evenodd;"
d="M 48826,24814
48866,24824
49381,25011
49418,25029
49462,25062
49499,25103
49527,25151
49546,25203
49553,25257
49550,25313
49540,25352
49537,25366
49528,25383
49513,25416
49480,25460
49439,25497
49391,25525
49339,25543
49306,25548
49285,25551
49285,25551
49229,25548
49189,25538
48675,25350
48638,25333
48593,25299
48557,25258
48529,25211
48510,25159
48505,25122
48502,25104
48502,25104
48505,25049
48519,24996
48519,24996
48535,24963
48543,24946
48576,24902
48617,24865
48665,24837
48717,24819
48753,24813
48771,24811
48771,24811
48826,24814
Z" /> 
<path style="fill:#848400; fill-opacity:1.0; 
stroke:#848400; stroke-width:0; stroke-opacity:1; 
stroke-linecap:round; stroke-linejoin:round;fill-rule:evenodd;"
d="M 45665,24727
45705,24738
46220,24925
46257,24943
46301,24976
46338,25017
46366,25064
46385,25117
46385,25117
46391,25159
46392,25171
46389,25226
46376,25279
46376,25280
46374,25283
46352,25329
46319,25374
46278,25410
46230,25438
46178,25457
46144,25462
46123,25465
46123,25465
46068,25462
46028,25451
45514,25264
45477,25246
45432,25213
45396,25172
45367,25124
45349,25072
45341,25018
45344,24963
45358,24909
45358,24909
45379,24865
45382,24860
45415,24815
45456,24779
45504,24750
45556,24732
45592,24727
45610,24724
45610,24724
45665,24727
Z" /> 
<path style="fill:#848400; fill-opacity:1.0; 
stroke:#848400; stroke-width:0; stroke-opacity:1; 
stroke-linecap:round; stroke-linejoin:round;fill-rule:evenodd;"
d="M 53498,24426
53526,24429
53593,24449
53655,24482
53669,24494
53709,24527
53736,24560
53753,24581
53786,24642
53807,24709
53813,24779
53807,24848
53786,24915
53753,24977
53742,24991
53709,25031
53678,25056
53655,25075
53655,25075
53601,25104
53593,25108
53526,25128
53500,25131
53474,25133
53440,25133
53413,25131
53387,25128
53321,25108
53313,25104
53259,25075
53259,25075
53236,25056
53205,25031
53172,24991
53161,24977
53128,24915
53107,24848
53101,24779
53107,24709
53128,24642
53161,24581
53178,24560
53205,24527
53245,24494
53259,24482
53321,24449
53387,24429
53416,24426
53440,24424
53474,24424
53498,24426
Z" /> 
<path style="fill:#848400; fill-opacity:1.0; 
stroke:#848400; stroke-width:0; stroke-opacity:1; 
stroke-linecap:round; stroke-linejoin:round;fill-rule:evenodd;"
d="M 49168,23874
49208,23884
49723,24072
49760,24089
49804,24123
49841,24164
49869,24211
49888,24263
49895,24318
49892,24373
49879,24424
49879,24426
49875,24434
49855,24476
49822,24520
49781,24557
49733,24585
49681,24603
49648,24608
49627,24611
49627,24611
49571,24608
49531,24598
49017,24411
48980,24393
48935,24360
48899,24319
48871,24271
48852,24219
48844,24164
48847,24109
48861,24056
48861,24056
48877,24023
48885,24006
48918,23962
48959,23925
49007,23897
49059,23879
49095,23874
49113,23871
49113,23871
49168,23874
Z" /> 
<path style="fill:#848400; fill-opacity:1.0; 
stroke:#848400; stroke-width:0; stroke-opacity:1; 
stroke-linecap:round; stroke-linejoin:round;fill-rule:evenodd;"
d="M 54320,23853
54346,23856
54413,23876
54413,23876
54427,23884
54474,23909
54488,23920
54528,23953
54554,23985
54572,24007
54605,24069
54626,24136
54633,24205
54626,24275
54605,24342
54572,24403
54566,24411
54528,24457
54488,24490
54474,24502
54413,24535
54346,24555
54323,24557
54294,24560
54259,24560
54229,24557
54207,24555
54140,24535
54078,24502
54064,24490
54024,24457
53986,24411
53980,24403
53947,24342
53927,24275
53920,24205
53927,24136
53947,24069
53980,24007
53998,23985
54024,23953
54065,23920
54078,23909
54125,23884
54140,23876
54140,23876
54207,23856
54233,23853
54259,23850
54294,23850
54320,23853
Z" /> 
<path style="fill:#848400; fill-opacity:1.0; 
stroke:#848400; stroke-width:0; stroke-opacity:1; 
stroke-linecap:round; stroke-linejoin:round;fill-rule:evenodd;"
d="M 46007,23788
46047,23798
46562,23985
46599,24003
46643,24036
46680,24077
46708,24125
46727,24177
46734,24231
46731,24287
46718,24339
46718,24340
46708,24359
46694,24390
46661,24434
46620,24471
46572,24499
46520,24517
46487,24522
46465,24525
46465,24525
46410,24522
46370,24512
45856,24324
45819,24306
45774,24273
45738,24232
45709,24185
45691,24133
45683,24078
45686,24023
45700,23970
45700,23970
45712,23945
45724,23920
45757,23876
45798,23839
45846,23811
45898,23792
45934,23787
45952,23785
45952,23785
46007,23788
Z" /> 
<path style="fill:#848400; fill-opacity:1.0; 
stroke:#848400; stroke-width:0; stroke-opacity:1; 
stroke-linecap:round; stroke-linejoin:round;fill-rule:evenodd;"
d="M 55138,23279
55165,23282
55232,23302
55293,23335
55303,23344
55347,23380
55380,23420
55392,23434
55425,23495
55445,23562
55452,23632
55445,23701
55425,23768
55392,23830
55384,23839
55347,23884
55317,23909
55293,23928
55232,23961
55165,23981
55139,23984
55113,23986
55078,23986
55052,23984
55026,23981
54959,23961
54897,23928
54874,23909
54843,23884
54806,23839
54799,23830
54766,23768
54746,23701
54739,23632
54746,23562
54766,23495
54799,23434
54810,23420
54843,23380
54887,23344
54897,23335
54959,23302
55026,23282
55052,23279
55078,23277
55113,23277
55138,23279
Z" /> 
<path style="fill:#848400; fill-opacity:1.0; 
stroke:#848400; stroke-width:0; stroke-opacity:1; 
stroke-linecap:round; stroke-linejoin:round;fill-rule:evenodd;"
d="M 38490,23243
38516,23246
38583,23266
38583,23266
38593,23271
38645,23299
38649,23302
38699,23344
38727,23378
38743,23398
38776,23459
38796,23526
38803,23596
38796,23665
38776,23732
38743,23794
38732,23808
38699,23848
38665,23876
38645,23892
38583,23925
38516,23945
38490,23948
38464,23950
38429,23950
38403,23948
38377,23945
38310,23925
38249,23892
38229,23876
38195,23848
38162,23808
38151,23794
38118,23732
38097,23665
38090,23596
38097,23526
38118,23459
38151,23398
38166,23378
38195,23344
38245,23302
38249,23299
38301,23271
38310,23266
38310,23266
38377,23246
38403,23243
38429,23241
38464,23241
38490,23243
Z" /> 
<path style="fill:#848400; fill-opacity:1.0; 
stroke:#848400; stroke-width:0; stroke-opacity:1; 
stroke-linecap:round; stroke-linejoin:round;fill-rule:evenodd;"
d="M 49510,22934
49551,22945
50065,23132
50102,23150
50146,23183
50183,23224
50211,23271
50230,23323
50237,23378
50234,23433
50221,23486
50221,23487
50217,23494
50197,23536
50164,23581
50123,23617
50075,23645
50023,23664
49990,23669
49969,23672
49969,23672
49913,23669
49873,23658
49359,23471
49322,23453
49278,23420
49241,23379
49213,23331
49194,23279
49186,23225
49189,23170
49203,23116
49203,23116
49219,23083
49227,23067
49260,23022
49301,22986
49349,22957
49401,22939
49437,22934
49455,22931
49455,22931
49510,22934
Z" /> 
<path style="fill:#848400; fill-opacity:1.0; 
stroke:#848400; stroke-width:0; stroke-opacity:1; 
stroke-linecap:round; stroke-linejoin:round;fill-rule:evenodd;"
d="M 46349,22848
46389,22858
46904,23046
46941,23063
46985,23097
47022,23138
47050,23185
47069,23237
47076,23292
47073,23347
47060,23398
47060,23400
47050,23420
47036,23450
47003,23494
46962,23531
46914,23559
46862,23577
46829,23582
46807,23585
46807,23585
46752,23582
46712,23572
46198,23385
46161,23367
46116,23334
46080,23293
46051,23245
46033,23193
46025,23138
46028,23083
46042,23030
46042,23030
46056,23001
46066,22980
46099,22936
46140,22899
46188,22871
46240,22853
46276,22848
46294,22845
46294,22845
46349,22848
Z" /> 
<path style="fill:#848400; fill-opacity:1.0; 
stroke:#848400; stroke-width:0; stroke-opacity:1; 
stroke-linecap:round; stroke-linejoin:round;fill-rule:evenodd;"
d="M 38832,22304
38858,22306
38925,22327
38925,22327
38935,22332
38987,22360
38999,22369
39041,22404
39069,22438
39085,22458
39118,22520
39138,22586
39145,22656
39138,22725
39118,22792
39085,22854
39074,22868
39041,22908
39007,22936
38987,22952
38925,22985
38858,23006
38832,23008
38806,23011
38771,23011
38745,23008
38719,23006
38652,22985
38591,22952
38571,22936
38537,22908
38504,22868
38493,22854
38460,22792
38439,22725
38432,22656
38439,22586
38460,22520
38493,22458
38509,22438
38537,22404
38579,22369
38591,22360
38643,22332
38652,22327
38652,22327
38719,22306
38745,22304
38771,22301
38806,22301
38832,22304
Z" /> 
<path style="fill:#848400; fill-opacity:1.0; 
stroke:#848400; stroke-width:0; stroke-opacity:1; 
stroke-linecap:round; stroke-linejoin:round;fill-rule:evenodd;"
d="M 57905,22294
57931,22297
57998,22317
58059,22350
58073,22362
58113,22395
58140,22428
58158,22449
58191,22510
58211,22577
58218,22647
58211,22716
58191,22783
58158,22845
58146,22858
58113,22899
58073,22931
58059,22943
57998,22976
57931,22996
57905,22999
57879,23001
57844,23001
57818,22999
57792,22996
57725,22976
57663,22943
57649,22931
57609,22899
57576,22858
57565,22845
57532,22783
57512,22716
57505,22647
57512,22577
57532,22510
57565,22449
57582,22428
57609,22395
57649,22362
57663,22350
57725,22317
57792,22297
57818,22294
57844,22292
57879,22292
57905,22294
Z" /> 
<path style="fill:#848400; fill-opacity:1.0; 
stroke:#848400; stroke-width:0; stroke-opacity:1; 
stroke-linecap:round; stroke-linejoin:round;fill-rule:evenodd;"
d="M 49852,21995
49893,22005
50407,22192
50444,22210
50488,22243
50525,22284
50553,22332
50572,22384
50579,22438
50576,22493
50563,22546
50563,22547
50559,22554
50539,22597
50506,22641
50465,22678
50417,22706
50365,22724
50332,22729
50311,22732
50311,22732
50255,22729
50215,22719
49701,22531
49664,22513
49620,22480
49583,22439
49555,22392
49536,22340
49529,22285
49532,22230
49545,22177
49545,22177
49561,22144
49569,22127
49602,22083
49643,22046
49691,22018
49743,21999
49784,21994
49797,21992
49797,21992
49852,21995
Z" /> 
<path style="fill:#848400; fill-opacity:1.0; 
stroke:#848400; stroke-width:0; stroke-opacity:1; 
stroke-linecap:round; stroke-linejoin:round;fill-rule:evenodd;"
d="M 46691,21908
46731,21919
47246,22106
47283,22124
47327,22157
47364,22198
47392,22245
47411,22297
47418,22352
47415,22407
47405,22449
47402,22461
47392,22480
47378,22510
47345,22554
47304,22591
47256,22619
47204,22638
47171,22642
47149,22645
47149,22645
47094,22642
47054,22632
46540,22445
46503,22427
46458,22394
46422,22353
46394,22305
46375,22253
46367,22199
46370,22144
46384,22090
46384,22090
46396,22066
46408,22040
46441,21996
46482,21960
46530,21931
46582,21913
46618,21908
46636,21905
46636,21905
46691,21908
Z" /> 
<path style="fill:#848400; fill-opacity:1.0; 
stroke:#848400; stroke-width:0; stroke-opacity:1; 
stroke-linecap:round; stroke-linejoin:round;fill-rule:evenodd;"
d="M 58724,21721
58750,21723
58817,21744
58878,21777
58890,21786
58932,21821
58958,21853
58977,21875
59010,21937
59030,22004
59037,22073
59030,22143
59010,22209
58977,22271
58966,22284
58932,22325
58900,22352
58878,22369
58817,22402
58750,22423
58724,22425
58698,22428
58663,22428
58637,22425
58611,22423
58544,22402
58482,22369
58461,22352
58428,22325
58395,22284
58384,22271
58351,22209
58331,22143
58324,22073
58331,22004
58351,21937
58384,21875
58402,21853
58428,21821
58471,21786
58482,21777
58544,21744
58611,21723
58637,21721
58663,21718
58698,21718
58724,21721
Z" /> 
<path style="fill:#848400; fill-opacity:1.0; 
stroke:#848400; stroke-width:0; stroke-opacity:1; 
stroke-linecap:round; stroke-linejoin:round;fill-rule:evenodd;"
d="M 54097,21677
54158,21703
54213,21739
54260,21786
54296,21841
54322,21902
54335,21967
54335,22032
54322,22097
54296,22158
54260,22213
54213,22260
54158,22296
54097,22322
54032,22335
53967,22335
53902,22322
53841,22296
53786,22260
53739,22213
53703,22158
53677,22097
53664,22032
53664,21967
53677,21902
53703,21841
53739,21786
53786,21739
53841,21703
53902,21677
53967,21664
54032,21664
54097,21677
Z" /> 
<path style="fill:#848400; fill-opacity:1.0; 
stroke:#848400; stroke-width:0; stroke-opacity:1; 
stroke-linecap:round; stroke-linejoin:round;fill-rule:evenodd;"
d="M 52129,21677
52190,21703
52245,21739
52291,21786
52328,21841
52353,21902
52366,21967
52366,22032
52353,22097
52328,22158
52291,22213
52245,22260
52190,22296
52129,22322
52064,22335
51998,22335
51933,22322
51872,22296
51817,22260
51771,22213
51734,22158
51709,22097
51696,22032
51696,21967
51709,21902
51734,21841
51771,21786
51817,21739
51872,21703
51933,21677
51998,21664
52064,21664
52129,21677
Z" /> 
<path style="fill:#848400; fill-opacity:1.0; 
stroke:#848400; stroke-width:0; stroke-opacity:1; 
stroke-linecap:round; stroke-linejoin:round;fill-rule:evenodd;"
d="M 39174,21364
39200,21367
39267,21387
39267,21387
39277,21392
39329,21420
39343,21431
39383,21464
39411,21499
39427,21518
39460,21580
39481,21647
39487,21716
39481,21786
39460,21853
39427,21914
39416,21928
39383,21968
39349,21996
39329,22013
39267,22046
39200,22066
39174,22068
39148,22071
39113,22071
39087,22068
39061,22066
38995,22046
38933,22013
38913,21996
38879,21968
38846,21928
38835,21914
38802,21853
38781,21786
38774,21716
38781,21647
38802,21580
38835,21518
38851,21499
38879,21464
38919,21431
38933,21420
38985,21392
38995,21387
38995,21387
39061,21367
39087,21364
39113,21361
39148,21361
39174,21364
Z" /> 
<path style="fill:#848400; fill-opacity:1.0; 
stroke:#848400; stroke-width:0; stroke-opacity:1; 
stroke-linecap:round; stroke-linejoin:round;fill-rule:evenodd;"
d="M 59802,21314
59994,21587
59994,21587
59659,21821
59412,21994
59412,21994
59127,21587
59005,21412
59005,21412
59357,21166
59587,21005
59587,21005
59802,21314
Z" /> 
<path style="fill:#848400; fill-opacity:1.0; 
stroke:#848400; stroke-width:0; stroke-opacity:1; 
stroke-linecap:round; stroke-linejoin:round;fill-rule:evenodd;"
d="M 50195,21055
50235,21065
50749,21253
50786,21270
50830,21303
50867,21345
50895,21392
50914,21444
50921,21499
50918,21554
50905,21607
50905,21607
50895,21627
50881,21657
50848,21701
50807,21738
50759,21766
50707,21784
50674,21789
50653,21792
50653,21792
50598,21789
50557,21779
50043,21592
50006,21574
49962,21541
49925,21500
49897,21452
49878,21400
49873,21361
49871,21345
49871,21345
49874,21290
49887,21237
49887,21237
49903,21204
49911,21187
49944,21143
49985,21106
50033,21078
50085,21060
50121,21055
50139,21052
50139,21052
50195,21055
Z" /> 
<path style="fill:#848400; fill-opacity:1.0; 
stroke:#848400; stroke-width:0; stroke-opacity:1; 
stroke-linecap:round; stroke-linejoin:round;fill-rule:evenodd;"
d="M 47033,20969
47073,20979
47588,21166
47625,21184
47669,21217
47706,21258
47734,21306
47753,21358
47753,21358
47759,21400
47760,21412
47757,21467
47744,21520
47744,21521
47734,21540
47720,21571
47687,21615
47646,21652
47598,21680
47546,21698
47514,21703
47492,21706
47492,21706
47436,21703
47396,21693
46882,21505
46845,21487
46800,21454
46764,21413
46736,21366
46717,21314
46709,21259
46712,21204
46726,21151
46726,21151
46747,21106
46750,21101
46783,21057
46824,21020
46872,20992
46924,20973
46960,20968
46978,20966
46978,20966
47033,20969
Z" /> 
<path style="fill:#848400; fill-opacity:1.0; 
stroke:#848400; stroke-width:0; stroke-opacity:1; 
stroke-linecap:round; stroke-linejoin:round;fill-rule:evenodd;"
d="M 39516,20424
39542,20427
39609,20447
39609,20447
39634,20460
39671,20480
39685,20492
39725,20524
39753,20559
39769,20578
39802,20640
39823,20707
39829,20777
39823,20846
39802,20913
39769,20975
39766,20979
39725,21029
39687,21060
39671,21073
39609,21106
39542,21126
39516,21129
39490,21131
39456,21131
39429,21129
39403,21126
39337,21106
39275,21073
39259,21060
39221,21029
39180,20979
39177,20975
39144,20913
39123,20846
39116,20777
39123,20707
39144,20640
39177,20578
39193,20559
39221,20524
39261,20492
39275,20480
39312,20460
39337,20447
39337,20447
39403,20427
39429,20424
39456,20422
39490,20422
39516,20424
Z" /> 
<path style="fill:#848400; fill-opacity:1.0; 
stroke:#848400; stroke-width:0; stroke-opacity:1; 
stroke-linecap:round; stroke-linejoin:round;fill-rule:evenodd;"
d="M 46171,20351
46232,20376
46287,20413
46334,20459
46371,20514
46396,20575
46409,20640
46409,20706
46396,20770
46371,20831
46334,20886
46287,20933
46232,20970
46171,20995
46107,21008
46041,21008
45976,20995
45915,20970
45860,20933
45813,20886
45777,20831
45752,20770
45739,20706
45739,20640
45752,20575
45777,20514
45813,20459
45860,20413
45915,20376
45976,20351
46041,20338
46107,20338
46171,20351
Z" /> 
<path style="fill:#848400; fill-opacity:1.0; 
stroke:#848400; stroke-width:0; stroke-opacity:1; 
stroke-linecap:round; stroke-linejoin:round;fill-rule:evenodd;"
d="M 50537,20115
50577,20126
51091,20313
51128,20331
51172,20364
51209,20405
51237,20452
51256,20504
51264,20559
51261,20614
51247,20667
51247,20668
51243,20675
51223,20717
51190,20761
51149,20798
51101,20826
51049,20845
51016,20849
50995,20852
50995,20852
50940,20849
50899,20839
50385,20652
50348,20634
50304,20601
50267,20560
50239,20512
50220,20460
50213,20406
50216,20351
50229,20297
50229,20297
50245,20264
50253,20247
50286,20203
50327,20166
50375,20138
50427,20120
50463,20115
50481,20112
50481,20112
50537,20115
Z" /> 
<path style="fill:#848400; fill-opacity:1.0; 
stroke:#848400; stroke-width:0; stroke-opacity:1; 
stroke-linecap:round; stroke-linejoin:round;fill-rule:evenodd;"
d="M 47375,20029
47415,20039
47930,20226
47967,20244
48011,20277
48048,20319
48076,20366
48095,20418
48102,20473
48099,20528
48086,20581
48086,20581
48076,20601
48062,20631
48029,20675
47988,20712
47940,20740
47888,20758
47855,20763
47834,20766
47834,20766
47778,20763
47738,20753
47224,20566
47187,20548
47142,20515
47106,20473
47078,20426
47059,20374
47052,20322
47051,20319
47051,20319
47054,20264
47068,20211
47068,20211
47080,20186
47092,20161
47125,20117
47166,20080
47214,20052
47266,20034
47302,20029
47320,20026
47320,20026
47375,20029
Z" /> 
<path style="fill:#848400; fill-opacity:1.0; 
stroke:#848400; stroke-width:0; stroke-opacity:1; 
stroke-linecap:round; stroke-linejoin:round;fill-rule:evenodd;"
d="M 44322,19677
44383,19703
44437,19739
44484,19786
44521,19841
44546,19902
44559,19967
44559,20032
44546,20097
44521,20158
44484,20213
44437,20260
44383,20296
44322,20322
44257,20335
44191,20335
44126,20322
44065,20296
44010,20260
43964,20213
43927,20158
43902,20097
43889,20032
43889,19967
43902,19902
43927,19841
43964,19786
44010,19739
44065,19703
44126,19677
44191,19664
44257,19664
44322,19677
Z" /> 
<path style="fill:#848400; fill-opacity:1.0; 
stroke:#848400; stroke-width:0; stroke-opacity:1; 
stroke-linecap:round; stroke-linejoin:round;fill-rule:evenodd;"
d="M 52597,19677
52658,19703
52713,19739
52760,19786
52796,19841
52822,19902
52835,19967
52835,20032
52822,20097
52796,20158
52760,20213
52713,20260
52658,20296
52597,20322
52532,20335
52467,20335
52402,20322
52341,20296
52286,20260
52239,20213
52203,20158
52177,20097
52164,20032
52164,19967
52177,19902
52203,19841
52239,19786
52286,19739
52341,19703
52402,19677
52467,19664
52532,19664
52597,19677
Z" /> 
<path style="fill:#848400; fill-opacity:1.0; 
stroke:#848400; stroke-width:0; stroke-opacity:1; 
stroke-linecap:round; stroke-linejoin:round;fill-rule:evenodd;"
d="M 54566,19677
54627,19703
54682,19739
54728,19786
54765,19841
54790,19902
54803,19967
54803,20032
54790,20097
54765,20158
54728,20213
54682,20260
54627,20296
54566,20322
54501,20335
54435,20335
54370,20322
54309,20296
54254,20260
54208,20213
54171,20158
54146,20097
54133,20032
54133,19967
54146,19902
54171,19841
54208,19786
54254,19739
54309,19703
54370,19677
54435,19664
54501,19664
54566,19677
Z" /> 
<path style="fill:#848400; fill-opacity:1.0; 
stroke:#848400; stroke-width:0; stroke-opacity:1; 
stroke-linecap:round; stroke-linejoin:round;fill-rule:evenodd;"
d="M 39858,19485
39884,19487
39951,19508
39951,19508
39961,19513
40013,19540
40027,19552
40067,19585
40095,19619
40111,19639
40144,19700
40165,19767
40171,19837
40165,19906
40144,19973
40111,20035
40100,20049
40067,20089
40033,20117
40013,20133
39951,20166
39884,20186
39858,20189
39832,20192
39798,20192
39771,20189
39745,20186
39679,20166
39617,20133
39597,20117
39563,20089
39530,20049
39519,20035
39486,19973
39465,19906
39459,19837
39465,19767
39486,19700
39519,19639
39535,19619
39563,19585
39603,19552
39617,19540
39669,19513
39679,19508
39679,19508
39745,19487
39771,19485
39798,19482
39832,19482
39858,19485
Z" /> 
<path style="fill:#848400; fill-opacity:1.0; 
stroke:#848400; stroke-width:0; stroke-opacity:1; 
stroke-linecap:round; stroke-linejoin:round;fill-rule:evenodd;"
d="M 50879,19176
50919,19186
51433,19373
51470,19391
51515,19424
51551,19465
51579,19513
51598,19565
51606,19619
51603,19674
51589,19727
51589,19728
51585,19735
51565,19778
51532,19822
51491,19859
51443,19887
51391,19905
51358,19910
51337,19913
51337,19913
51282,19910
51242,19900
50727,19712
50690,19694
50646,19661
50609,19620
50581,19573
50562,19521
50555,19466
50558,19411
50571,19358
50571,19358
50587,19325
50595,19308
50628,19264
50669,19227
50717,19199
50769,19180
50805,19175
50823,19173
50823,19173
50879,19176
Z" /> 
<path style="fill:#848400; fill-opacity:1.0; 
stroke:#848400; stroke-width:0; stroke-opacity:1; 
stroke-linecap:round; stroke-linejoin:round;fill-rule:evenodd;"
d="M 47717,19089
47757,19099
48272,19287
48309,19305
48353,19338
48390,19379
48418,19426
48437,19478
48444,19533
48441,19588
48428,19639
48428,19641
48418,19661
48404,19691
48371,19735
48330,19772
48282,19800
48230,19819
48197,19823
48176,19826
48176,19826
48120,19823
48080,19813
47566,19626
47529,19608
47484,19575
47448,19534
47420,19486
47401,19434
47393,19380
47396,19325
47410,19271
47410,19271
47423,19244
47434,19221
47467,19177
47508,19140
47556,19112
47608,19094
47644,19089
47662,19086
47662,19086
47717,19089
Z" /> 
<path style="fill:#848400; fill-opacity:1.0; 
stroke:#848400; stroke-width:0; stroke-opacity:1; 
stroke-linecap:round; stroke-linejoin:round;fill-rule:evenodd;"
d="M 42591,19196
42649,19220
42649,19220
42701,19255
42744,19298
42779,19350
42779,19350
42803,19408
42815,19468
42815,19531
42803,19591
42783,19639
42779,19649
42744,19701
42701,19744
42649,19779
42649,19779
42649,19779
42591,19803
42531,19815
42468,19815
42408,19803
42350,19779
42350,19779
42350,19779
42298,19744
42255,19701
42220,19649
42216,19639
42196,19591
42184,19531
42184,19468
42196,19408
42220,19350
42220,19350
42255,19298
42298,19255
42350,19220
42350,19220
42408,19196
42468,19184
42531,19184
42591,19196
Z" /> 
<path style="fill:#848400; fill-opacity:1.0; 
stroke:#848400; stroke-width:0; stroke-opacity:1; 
stroke-linecap:round; stroke-linejoin:round;fill-rule:evenodd;"
d="M 46424,19027
46485,19052
46540,19089
46586,19136
46623,19191
46648,19252
46661,19316
46661,19382
46648,19447
46623,19508
46586,19563
46540,19610
46485,19646
46424,19671
46359,19684
46293,19684
46229,19671
46168,19646
46113,19610
46066,19563
46029,19508
46004,19447
45991,19382
45991,19316
46004,19252
46029,19191
46066,19136
46113,19089
46168,19052
46229,19027
46293,19014
46359,19014
46424,19027
Z" /> 
<path style="fill:#848400; fill-opacity:1.0; 
stroke:#848400; stroke-width:0; stroke-opacity:1; 
stroke-linecap:round; stroke-linejoin:round;fill-rule:evenodd;"
d="M 62454,16854
62578,16879
62810,16975
62976,17086
63020,17116
63198,17294
63215,17319
63338,17503
63435,17736
63447,17795
63484,17984
63484,18236
63475,18282
63435,18483
63338,18716
63242,18861
63198,18926
63020,19104
63008,19112
62810,19244
62578,19340
62492,19358
62330,19390
62078,19390
61917,19358
61831,19340
61598,19244
61401,19112
61388,19104
61210,18926
61167,18861
61070,18716
60973,18483
60933,18282
60924,18236
60924,17984
60962,17795
60973,17736
61070,17503
61193,17319
61210,17294
61388,17116
61433,17086
61598,16975
61831,16879
61955,16854
62078,16830
62330,16830
62454,16854
Z" /> 
<path style="fill:#848400; fill-opacity:1.0; 
stroke:#848400; stroke-width:0; stroke-opacity:1; 
stroke-linecap:round; stroke-linejoin:round;fill-rule:evenodd;"
d="M 40060,18484
40612,18685
40612,18685
40586,18755
40369,19352
40369,19352
40191,19287
39702,19109
39704,19104
39783,18887
39945,18442
39945,18442
40060,18484
Z" /> 
<path style="fill:#848400; fill-opacity:1.0; 
stroke:#848400; stroke-width:0; stroke-opacity:1; 
stroke-linecap:round; stroke-linejoin:round;fill-rule:evenodd;"
d="M 44924,18527
44985,18552
45040,18589
45086,18636
45123,18691
45148,18752
45161,18816
45161,18882
45148,18947
45123,19008
45086,19063
45040,19110
44985,19146
44924,19171
44859,19184
44793,19184
44729,19171
44668,19146
44613,19110
44566,19063
44529,19008
44504,18947
44491,18882
44491,18816
44504,18752
44529,18691
44566,18636
44613,18589
44668,18552
44729,18527
44793,18514
44859,18514
44924,18527
Z" /> 
<path style="fill:#848400; fill-opacity:1.0; 
stroke:#848400; stroke-width:0; stroke-opacity:1; 
stroke-linecap:round; stroke-linejoin:round;fill-rule:evenodd;"
d="M 51221,18236
51261,18246
51775,18433
51812,18451
51857,18484
51893,18526
51921,18573
51940,18625
51948,18680
51945,18735
51931,18788
51931,18788
51927,18796
51907,18838
51874,18882
51833,18919
51785,18947
51733,18965
51700,18970
51679,18973
51679,18973
51624,18970
51584,18960
51069,18773
51032,18755
50988,18722
50951,18680
50923,18633
50904,18581
50897,18526
50900,18471
50913,18418
50913,18418
50929,18385
50937,18368
50970,18324
51011,18287
51059,18259
51111,18241
51147,18235
51165,18233
51165,18233
51221,18236
Z" /> 
<path style="fill:#848400; fill-opacity:1.0; 
stroke:#848400; stroke-width:0; stroke-opacity:1; 
stroke-linecap:round; stroke-linejoin:round;fill-rule:evenodd;"
d="M 48059,18150
48100,18160
48614,18347
48651,18365
48695,18398
48732,18439
48760,18487
48779,18539
48786,18593
48783,18648
48773,18691
48770,18702
48763,18716
48746,18752
48713,18796
48672,18833
48624,18861
48572,18879
48539,18884
48518,18887
48518,18887
48462,18884
48422,18873
47908,18686
47871,18668
47827,18635
47790,18594
47762,18547
47743,18495
47735,18440
47738,18385
47752,18331
47752,18331
47764,18307
47776,18282
47809,18238
47850,18201
47898,18173
47950,18154
47986,18149
48004,18147
48004,18147
48059,18150
Z" /> 
<path style="fill:#848400; fill-opacity:1.0; 
stroke:#848400; stroke-width:0; stroke-opacity:1; 
stroke-linecap:round; stroke-linejoin:round;fill-rule:evenodd;"
d="M 55405,17794
55431,17797
55498,17817
55559,17850
55566,17856
55613,17895
55640,17928
55658,17949
55691,18010
55711,18077
55718,18147
55711,18216
55691,18283
55658,18345
55646,18359
55613,18399
55573,18431
55559,18443
55498,18476
55431,18496
55405,18499
55379,18501
55344,18501
55318,18499
55292,18496
55225,18476
55163,18443
55149,18431
55109,18399
55076,18359
55065,18345
55032,18283
55012,18216
55005,18147
55012,18077
55032,18010
55065,17949
55082,17928
55109,17895
55156,17856
55163,17850
55225,17817
55292,17797
55318,17794
55344,17792
55379,17792
55405,17794
Z" /> 
<path style="fill:#848400; fill-opacity:1.0; 
stroke:#848400; stroke-width:0; stroke-opacity:1; 
stroke-linecap:round; stroke-linejoin:round;fill-rule:evenodd;"
d="M 51563,17296
51603,17306
52117,17494
52154,17512
52199,17545
52235,17586
52263,17633
52282,17685
52290,17740
52287,17795
52274,17843
52273,17848
52264,17868
52249,17898
52216,17942
52175,17979
52127,18007
52075,18026
52042,18030
52021,18033
52021,18033
51966,18030
51926,18020
51411,17833
51374,17815
51330,17782
51293,17741
51265,17693
51246,17641
51241,17602
51239,17587
51239,17587
51242,17532
51255,17478
51255,17478
51271,17445
51279,17428
51312,17384
51353,17347
51401,17319
51453,17301
51489,17296
51507,17293
51507,17293
51563,17296
Z" /> 
<path style="fill:#848400; fill-opacity:1.0; 
stroke:#848400; stroke-width:0; stroke-opacity:1; 
stroke-linecap:round; stroke-linejoin:round;fill-rule:evenodd;"
d="M 43249,17391
43306,17415
43306,17415
43358,17449
43402,17493
43436,17545
43436,17545
43460,17602
43472,17663
43472,17725
43460,17786
43440,17833
43436,17843
43402,17895
43358,17939
43306,17974
43306,17974
43306,17974
43249,17997
43188,18009
43126,18009
43065,17997
43007,17974
43007,17974
43007,17974
42956,17939
42912,17895
42877,17843
42873,17833
42853,17786
42841,17725
42841,17663
42853,17602
42877,17545
42877,17545
42912,17493
42956,17449
43007,17415
43007,17415
43065,17391
43126,17379
43188,17379
43249,17391
Z" /> 
<path style="fill:#848400; fill-opacity:1.0; 
stroke:#848400; stroke-width:0; stroke-opacity:1; 
stroke-linecap:round; stroke-linejoin:round;fill-rule:evenodd;"
d="M 48401,17210
48442,17220
48956,17407
48993,17425
49037,17458
49074,17499
49102,17547
49121,17599
49121,17599
49127,17641
49128,17654
49125,17709
49112,17760
49112,17762
49102,17781
49088,17812
49055,17856
49014,17893
48966,17921
48914,17939
48881,17944
48860,17947
48860,17947
48804,17944
48764,17934
48250,17746
48213,17729
48169,17696
48132,17654
48104,17607
48085,17555
48078,17500
48081,17445
48094,17392
48094,17392
48106,17367
48118,17342
48151,17298
48192,17261
48240,17233
48292,17215
48328,17209
48346,17207
48346,17207
48401,17210
Z" /> 
<path style="fill:#848400; fill-opacity:1.0; 
stroke:#848400; stroke-width:0; stroke-opacity:1; 
stroke-linecap:round; stroke-linejoin:round;fill-rule:evenodd;"
d="M 56224,17221
56250,17223
56317,17244
56378,17277
56390,17286
56432,17321
56465,17361
56477,17375
56477,17375
56505,17428
56510,17437
56530,17504
56537,17573
56530,17643
56510,17709
56477,17771
56468,17782
56432,17825
56404,17848
56378,17869
56317,17902
56250,17923
56224,17925
56198,17928
56163,17928
56137,17925
56111,17923
56044,17902
55982,17869
55957,17848
55928,17825
55893,17782
55884,17771
55851,17709
55831,17643
55824,17573
55831,17504
55851,17437
55855,17428
55884,17375
55884,17375
55896,17361
55928,17321
55971,17286
55982,17277
56044,17244
56111,17223
56137,17221
56163,17218
56198,17218
56224,17221
Z" /> 
<path style="fill:#848400; fill-opacity:1.0; 
stroke:#848400; stroke-width:0; stroke-opacity:1; 
stroke-linecap:round; stroke-linejoin:round;fill-rule:evenodd;"
d="M 47097,17177
47158,17203
47213,17239
47260,17286
47296,17341
47322,17402
47335,17467
47335,17532
47322,17597
47296,17658
47260,17713
47213,17760
47158,17796
47097,17822
47032,17835
46967,17835
46902,17822
46841,17796
46786,17760
46739,17713
46703,17658
46677,17597
46664,17532
46664,17467
46677,17402
46703,17341
46739,17286
46786,17239
46841,17203
46902,17177
46967,17164
47032,17164
47097,17177
Z" /> 
<path style="fill:#848400; fill-opacity:1.0; 
stroke:#848400; stroke-width:0; stroke-opacity:1; 
stroke-linecap:round; stroke-linejoin:round;fill-rule:evenodd;"
d="M 41194,15280
41318,15304
41551,15401
41651,15468
41760,15541
41939,15719
41944,15728
42079,15929
42171,16151
42175,16162
42224,16409
42224,16661
42207,16746
42175,16908
42079,17141
41975,17296
41939,17351
41760,17529
41719,17557
41551,17669
41318,17766
41194,17790
41070,17815
40818,17815
40695,17790
40571,17766
40338,17669
40170,17557
40128,17529
39950,17351
39914,17296
39810,17141
39714,16908
39681,16746
39664,16661
39664,16409
39714,16162
39718,16151
39810,15929
39945,15728
39950,15719
40128,15541
40237,15468
40338,15401
40571,15304
40695,15280
40818,15255
41070,15255
41194,15280
Z" /> 
<path style="fill:#848400; fill-opacity:1.0; 
stroke:#848400; stroke-width:0; stroke-opacity:1; 
stroke-linecap:round; stroke-linejoin:round;fill-rule:evenodd;"
d="M 57293,16800
57494,17087
57494,17087
57159,17321
56912,17494
56912,17494
56635,17097
56505,16912
56505,16912
56930,16615
57087,16505
57087,16505
57293,16800
Z" /> 
<path style="fill:#848400; fill-opacity:1.0; 
stroke:#848400; stroke-width:0; stroke-opacity:1; 
stroke-linecap:round; stroke-linejoin:round;fill-rule:evenodd;"
d="M 45597,16677
45658,16703
45713,16739
45760,16786
45796,16841
45822,16902
45835,16967
45835,17032
45822,17097
45796,17158
45760,17213
45713,17260
45658,17296
45597,17322
45532,17335
45467,17335
45402,17322
45341,17296
45286,17260
45239,17213
45203,17158
45177,17097
45164,17032
45164,16967
45177,16902
45203,16841
45239,16786
45286,16739
45341,16703
45402,16677
45467,16664
45532,16664
45597,16677
Z" /> 
<path style="fill:#848400; fill-opacity:1.0; 
stroke:#848400; stroke-width:0; stroke-opacity:1; 
stroke-linecap:round; stroke-linejoin:round;fill-rule:evenodd;"
d="M 51905,16357
51945,16367
52459,16554
52496,16572
52541,16605
52577,16646
52605,16694
52624,16746
52632,16800
52629,16855
52617,16902
52615,16909
52611,16916
52591,16959
52558,17003
52517,17039
52469,17068
52417,17086
52384,17091
52363,17094
52363,17094
52308,17091
52268,17080
51753,16893
51716,16875
51672,16842
51635,16801
51607,16754
51588,16702
51581,16647
51584,16592
51597,16538
51597,16538
51613,16505
51621,16489
51654,16445
51695,16408
51743,16380
51795,16361
51831,16356
51850,16354
51850,16354
51905,16357
Z" /> 
<path style="fill:#848400; fill-opacity:1.0; 
stroke:#848400; stroke-width:0; stroke-opacity:1; 
stroke-linecap:round; stroke-linejoin:round;fill-rule:evenodd;"
d="M 48744,16270
48784,16280
49298,16468
49335,16486
49379,16519
49416,16560
49444,16607
49463,16659
49470,16714
49467,16769
49454,16822
49454,16822
49450,16830
49430,16872
49397,16916
49356,16953
49308,16981
49256,17000
49223,17004
49202,17007
49202,17007
49147,17004
49106,16994
48592,16807
48555,16789
48511,16756
48474,16715
48446,16667
48427,16615
48420,16561
48423,16506
48436,16452
48436,16452
48448,16428
48460,16402
48493,16358
48534,16321
48582,16293
48634,16275
48670,16270
48688,16267
48688,16267
48744,16270
Z" /> 
<path style="fill:#848400; fill-opacity:1.0; 
stroke:#848400; stroke-width:0; stroke-opacity:1; 
stroke-linecap:round; stroke-linejoin:round;fill-rule:evenodd;"
d="M 52247,15417
52287,15427
52801,15614
52838,15632
52883,15665
52919,15706
52948,15754
52966,15806
52974,15861
52971,15916
52957,15968
52957,15969
52953,15977
52933,16019
52900,16063
52859,16100
52811,16128
52759,16146
52726,16151
52705,16154
52705,16154
52650,16151
52610,16141
52095,15953
52058,15936
52014,15902
51977,15861
51949,15814
51930,15762
51923,15707
51926,15652
51939,15599
51939,15599
51955,15566
51963,15549
51996,15505
52037,15468
52085,15440
52137,15422
52173,15416
52192,15414
52192,15414
52247,15417
Z" /> 
<path style="fill:#848400; fill-opacity:1.0; 
stroke:#848400; stroke-width:0; stroke-opacity:1; 
stroke-linecap:round; stroke-linejoin:round;fill-rule:evenodd;"
d="M 49086,15330
49126,15341
49640,15528
49677,15546
49721,15579
49758,15620
49786,15668
49805,15720
49813,15774
49810,15829
49796,15882
49796,15883
49787,15902
49772,15932
49739,15977
49698,16013
49650,16042
49598,16060
49565,16065
49544,16068
49544,16068
49489,16065
49448,16054
48934,15867
48897,15849
48853,15816
48816,15775
48788,15728
48769,15676
48762,15621
48765,15566
48778,15512
48778,15512
48790,15488
48802,15463
48835,15418
48876,15382
48924,15354
48976,15335
49012,15330
49030,15327
49030,15327
49086,15330
Z" /> 
<path style="fill:#848400; fill-opacity:1.0; 
stroke:#848400; stroke-width:0; stroke-opacity:1; 
stroke-linecap:round; stroke-linejoin:round;fill-rule:evenodd;"
d="M 52589,14477
52629,14487
53143,14675
53180,14693
53225,14726
53261,14767
53290,14814
53308,14866
53316,14921
53313,14976
53299,15027
53299,15029
53295,15037
53275,15079
53242,15123
53201,15160
53153,15188
53101,15207
53068,15211
53047,15214
53047,15214
52992,15211
52952,15201
52437,15014
52400,14996
52356,14963
52319,14922
52291,14874
52272,14822
52265,14768
52268,14712
52281,14659
52281,14659
52293,14635
52305,14609
52338,14565
52379,14528
52427,14500
52479,14482
52515,14477
52534,14474
52534,14474
52589,14477
Z" /> 
<path style="fill:#848400; fill-opacity:1.0; 
stroke:#848400; stroke-width:0; stroke-opacity:1; 
stroke-linecap:round; stroke-linejoin:round;fill-rule:evenodd;"
d="M 49428,14391
49468,14401
49982,14588
50019,14606
50064,14639
50100,14680
50128,14728
50147,14780
50155,14835
50152,14890
50138,14942
50138,14943
50134,14950
50114,14993
50081,15037
50040,15074
49992,15102
49940,15120
49907,15125
49886,15128
49886,15128
49831,15125
49791,15115
49276,14927
49239,14910
49195,14876
49158,14835
49130,14788
49111,14736
49104,14681
49107,14626
49120,14573
49120,14573
49132,14548
49144,14523
49177,14479
49218,14442
49266,14414
49318,14396
49354,14390
49372,14388
49372,14388
49428,14391
Z" /> 
<path style="fill:#848400; fill-opacity:1.0; 
stroke:#848400; stroke-width:0; stroke-opacity:1; 
stroke-linecap:round; stroke-linejoin:round;fill-rule:evenodd;"
d="M 41833,14346
41859,14348
41926,14369
41987,14402
42001,14413
42041,14446
42068,14479
42086,14500
42119,14562
42139,14628
42146,14698
42139,14768
42122,14822
42119,14834
42102,14865
42086,14896
42075,14910
42041,14950
42010,14976
41987,14994
41926,15027
41859,15048
41833,15050
41807,15053
41772,15053
41746,15050
41720,15048
41653,15027
41591,14994
41569,14976
41537,14950
41504,14910
41493,14896
41477,14865
41460,14834
41456,14822
41440,14768
41433,14698
41440,14628
41460,14562
41493,14500
41510,14479
41537,14446
41577,14413
41591,14402
41653,14369
41720,14348
41746,14346
41772,14343
41807,14343
41833,14346
Z" /> 
<path style="fill:#848400; fill-opacity:1.0; 
stroke:#848400; stroke-width:0; stroke-opacity:1; 
stroke-linecap:round; stroke-linejoin:round;fill-rule:evenodd;"
d="M 52931,13537
52971,13548
53485,13735
53522,13753
53567,13786
53603,13827
53632,13875
53650,13927
53658,13981
53655,14036
53641,14088
53641,14090
53632,14108
53617,14139
53584,14184
53543,14220
53495,14249
53443,14267
53410,14272
53389,14275
53389,14275
53334,14272
53294,14261
52779,14074
52742,14056
52698,14023
52661,13982
52633,13935
52614,13882
52609,13846
52607,13828
52607,13828
52610,13773
52623,13719
52623,13719
52635,13695
52647,13670
52680,13625
52721,13589
52769,13561
52821,13542
52857,13537
52876,13534
52876,13534
52931,13537
Z" /> 
<path style="fill:#848400; fill-opacity:1.0; 
stroke:#848400; stroke-width:0; stroke-opacity:1; 
stroke-linecap:round; stroke-linejoin:round;fill-rule:evenodd;"
d="M 49770,13451
49810,13461
50324,13649
50361,13666
50406,13700
50442,13741
50470,13788
50489,13840
50489,13840
50495,13882
50497,13895
50494,13950
50480,14003
50480,14003
50471,14023
50456,14053
50423,14097
50382,14134
50334,14162
50282,14180
50249,14185
50228,14188
50228,14188
50173,14185
50133,14175
49618,13988
49581,13970
49537,13937
49500,13896
49472,13848
49453,13796
49446,13742
49449,13686
49462,13633
49462,13633
49484,13589
49486,13583
49519,13539
49560,13502
49608,13474
49660,13456
49696,13451
49714,13448
49714,13448
49770,13451
Z" /> 
<path style="fill:#848400; fill-opacity:1.0; 
stroke:#848400; stroke-width:0; stroke-opacity:1; 
stroke-linecap:round; stroke-linejoin:round;fill-rule:evenodd;"
d="M 42175,13406
42201,13409
42268,13429
42329,13462
42344,13473
42383,13506
42410,13539
42428,13560
42461,13622
42481,13689
42488,13758
42481,13828
42461,13895
42428,13956
42417,13970
42383,14010
42352,14036
42329,14055
42268,14088
42201,14108
42175,14110
42149,14113
42114,14113
42088,14110
42062,14108
41995,14088
41933,14055
41911,14036
41879,14010
41846,13970
41835,13956
41802,13895
41782,13828
41775,13758
41782,13689
41802,13622
41835,13560
41852,13539
41879,13506
41919,13473
41933,13462
41995,13429
42062,13409
42088,13406
42114,13404
42149,13404
42175,13406
Z" /> 
<path style="fill:#848400; fill-opacity:1.0; 
stroke:#848400; stroke-width:0; stroke-opacity:1; 
stroke-linecap:round; stroke-linejoin:round;fill-rule:evenodd;"
d="M 50112,12511
50152,12522
50666,12709
50703,12727
50748,12760
50784,12801
50812,12848
50831,12900
50839,12955
50836,13010
50822,13063
50822,13064
50813,13083
50798,13113
50765,13158
50724,13194
50676,13222
50624,13241
50591,13246
50570,13249
50570,13249
50515,13246
50475,13235
49960,13048
49923,13030
49879,12997
49842,12956
49814,12908
49795,12856
49788,12802
49791,12747
49804,12693
49804,12693
49816,12669
49828,12644
49861,12599
49902,12563
49950,12534
50002,12516
50038,12511
50056,12508
50056,12508
50112,12511
Z" /> 
<path style="fill:#848400; fill-opacity:1.0; 
stroke:#848400; stroke-width:0; stroke-opacity:1; 
stroke-linecap:round; stroke-linejoin:round;fill-rule:evenodd;"
d="M 42517,12466
42543,12469
42610,12489
42671,12522
42686,12534
42725,12567
42752,12599
42770,12621
42803,12682
42823,12749
42830,12819
42823,12888
42803,12955
42770,13017
42759,13030
42725,13071
42686,13103
42671,13115
42610,13148
42543,13168
42517,13171
42491,13173
42456,13173
42430,13171
42404,13168
42337,13148
42275,13115
42261,13103
42221,13071
42188,13030
42177,13017
42144,12955
42124,12888
42117,12819
42124,12749
42144,12682
42177,12621
42194,12599
42221,12567
42261,12534
42275,12522
42337,12489
42404,12469
42430,12466
42456,12464
42491,12464
42517,12466
Z" /> 
<path style="fill:#848400; fill-opacity:1.0; 
stroke:#848400; stroke-width:0; stroke-opacity:1; 
stroke-linecap:round; stroke-linejoin:round;fill-rule:evenodd;"
d="M 53793,10161
53916,10186
54149,10283
54359,10423
54537,10601
54677,10811
54774,11043
54774,11043
54823,11291
54823,11543
54806,11627
54774,11790
54677,12023
54537,12233
54359,12411
54149,12551
53916,12648
53793,12672
53669,12697
53417,12697
53293,12672
53169,12648
52937,12551
52727,12411
52549,12233
52409,12023
52312,11790
52280,11627
52263,11543
52263,11291
52312,11043
52312,11043
52409,10811
52549,10601
52727,10423
52937,10283
53169,10186
53293,10161
53417,10137
53669,10137
53793,10161
Z" /> 
<path style="fill:#848400; fill-opacity:1.0; 
stroke:#848400; stroke-width:0; stroke-opacity:1; 
stroke-linecap:round; stroke-linejoin:round;fill-rule:evenodd;"
d="M 42859,11527
42885,11529
42952,11550
43013,11583
43028,11594
43068,11627
43100,11667
43112,11681
43145,11742
43165,11809
43172,11879
43165,11948
43145,12015
43112,12077
43100,12091
43068,12131
43028,12164
43013,12175
42952,12208
42885,12228
42859,12231
42833,12234
42798,12234
42772,12231
42746,12228
42679,12208
42617,12175
42603,12164
42563,12131
42531,12091
42519,12077
42486,12015
42466,11948
42459,11879
42466,11809
42486,11742
42519,11681
42531,11667
42563,11627
42603,11594
42617,11583
42679,11550
42746,11529
42772,11527
42798,11524
42833,11524
42859,11527
Z" /> 
<path style="fill:#848400; fill-opacity:1.0; 
stroke:#848400; stroke-width:0; stroke-opacity:1; 
stroke-linecap:round; stroke-linejoin:round;fill-rule:evenodd;"
d="M 43197,10587
43227,10590
43294,10610
43294,10610
43325,10626
43356,10643
43370,10654
43410,10687
43442,10727
43454,10741
43487,10803
43507,10870
43514,10939
43507,11009
43487,11076
43454,11137
43442,11151
43410,11191
43370,11224
43356,11236
43294,11269
43227,11289
43207,11291
43175,11294
43140,11294
43108,11291
43088,11289
43021,11269
42959,11236
42945,11224
42905,11191
42873,11151
42861,11137
42828,11076
42808,11009
42801,10939
42808,10870
42828,10803
42861,10741
42873,10727
42905,10687
42945,10654
42959,10643
42990,10626
43021,10610
43021,10610
43088,10590
43118,10587
43140,10584
43175,10584
43197,10587
Z" /> 
<path style="fill:#848400; fill-opacity:1.0; 
stroke:#848400; stroke-width:0; stroke-opacity:1; 
stroke-linecap:round; stroke-linejoin:round;fill-rule:evenodd;"
d="M 51110,10610
49889,10610
49889,9389
51110,9389
51110,10610
Z" /> 
<path style="fill:#848400; fill-opacity:1.0; 
stroke:#848400; stroke-width:0; stroke-opacity:1; 
stroke-linecap:round; stroke-linejoin:round;fill-rule:evenodd;"
d="M 48619,9401
48678,9412
48789,9458
48889,9525
48974,9610
49041,9710
49087,9821
49110,9939
49110,10060
49087,10178
49041,10289
48974,10389
48889,10474
48789,10541
48678,10587
48619,10598
48560,10610
48439,10610
48380,10598
48321,10587
48210,10541
48110,10474
48025,10389
47958,10289
47912,10178
47889,10060
47889,9939
47912,9821
47958,9710
48025,9610
48110,9525
48210,9458
48321,9412
48380,9401
48439,9389
48560,9389
48619,9401
Z" /> 
<path style="fill:#848400; fill-opacity:1.0; 
stroke:#848400; stroke-width:0; stroke-opacity:1; 
stroke-linecap:round; stroke-linejoin:round;fill-rule:evenodd;"
d="M 46619,9401
46678,9412
46789,9458
46889,9525
46974,9610
47041,9710
47087,9821
47110,9939
47110,10060
47087,10178
47041,10289
46974,10389
46889,10474
46789,10541
46678,10587
46619,10598
46560,10610
46439,10610
46380,10598
46321,10587
46210,10541
46110,10474
46025,10389
45958,10289
45912,10178
45889,10060
45889,9939
45912,9821
45958,9710
46025,9610
46110,9525
46210,9458
46321,9412
46380,9401
46439,9389
46560,9389
46619,9401
Z" /> 
<path style="fill:#848400; fill-opacity:1.0; 
stroke:#848400; stroke-width:0; stroke-opacity:1; 
stroke-linecap:round; stroke-linejoin:round;fill-rule:evenodd;"
d="M 43465,9610
43954,9787
43954,9787
43899,9939
43712,10454
43712,10454
43532,10389
43045,10212
43057,10178
43144,9939
43287,9545
43287,9545
43465,9610
Z" /> 
</g>
<g style="fill:#000000; fill-opacity:1.0; 
stroke:#000000; stroke-width:0; stroke-opacity:1; 
stroke-linecap:round; stroke-linejoin:round;">
<g >
</g>
<g >
</g>
<g >
</g>
<g >
</g>
<g >
</g>
<g >
</g>
<g >
</g>
<g >
</g>
<g >
</g>
<g >
</g>
<g >
</g>
<g >
</g>
<g >
</g>
<g >
</g>
<g >
</g>
<g >
</g>
<g >
</g>
<g >
</g>
<g >
</g>
</g>
<g style="fill:#C2C200; fill-opacity:1.0; 
stroke:#C2C200; stroke-width:0; stroke-opacity:1; 
stroke-linecap:round; stroke-linejoin:round;">
</g>
<g style="fill:#C2C200; fill-opacity:1.0; 
stroke:#C2C200; stroke-width:78.7402; stroke-opacity:1; 
stroke-linecap:round; stroke-linejoin:round;">
</g>
<g style="fill:#C2C200; fill-opacity:0.0; 
stroke:#C2C200; stroke-width:78.7402; stroke-opacity:1; 
stroke-linecap:round; stroke-linejoin:round;">
<path d="M51739 27756
L65642 18210
" />
<path d="M35253 27933
L51739 27756
" />
<path d="M65642 18210
L49789 6669
" />
<path d="M41901 9232
L35253 27933
" />
<path d="M49789 6669
L41901 9232
" />
<g >
</g>
<g >
</g>
<g >
</g>
<g >
</g>
<g >
</g>
<g >
</g>
<g >
</g>
<g >
</g>
<g >
</g>
<g >
</g>
<g >
</g>
<g >
</g>
<g >
</g>
<g >
</g>
<g >
</g>
<g >
</g>
<g >
</g>
<g >
</g>
<g >
</g>
</g> 
</svg>
